%TF.GenerationSoftware,KiCad,Pcbnew,8.0.9*%
%TF.CreationDate,2025-11-26T13:41:31-05:00*%
%TF.ProjectId,greenenergyecu,67726565-6e65-46e6-9572-67796563752e,rev?*%
%TF.SameCoordinates,Original*%
%TF.FileFunction,Legend,Top*%
%TF.FilePolarity,Positive*%
%FSLAX46Y46*%
G04 Gerber Fmt 4.6, Leading zero omitted, Abs format (unit mm)*
G04 Created by KiCad (PCBNEW 8.0.9) date 2025-11-26 13:41:31*
%MOMM*%
%LPD*%
G01*
G04 APERTURE LIST*
%ADD10C,0.150000*%
%ADD11C,0.120000*%
G04 APERTURE END LIST*
D10*
X18263095Y-5189819D02*
X18263095Y-5999342D01*
X18263095Y-5999342D02*
X18310714Y-6094580D01*
X18310714Y-6094580D02*
X18358333Y-6142200D01*
X18358333Y-6142200D02*
X18453571Y-6189819D01*
X18453571Y-6189819D02*
X18644047Y-6189819D01*
X18644047Y-6189819D02*
X18739285Y-6142200D01*
X18739285Y-6142200D02*
X18786904Y-6094580D01*
X18786904Y-6094580D02*
X18834523Y-5999342D01*
X18834523Y-5999342D02*
X18834523Y-5189819D01*
X19834523Y-6189819D02*
X19263095Y-6189819D01*
X19548809Y-6189819D02*
X19548809Y-5189819D01*
X19548809Y-5189819D02*
X19453571Y-5332676D01*
X19453571Y-5332676D02*
X19358333Y-5427914D01*
X19358333Y-5427914D02*
X19263095Y-5475533D01*
D11*
%TO.C,U1*%
X19025000Y-6575000D02*
X17075000Y-6575000D01*
X19025000Y-6575000D02*
X20975000Y-6575000D01*
X19025000Y-11695000D02*
X17075000Y-11695000D01*
X19025000Y-11695000D02*
X20975000Y-11695000D01*
X16325000Y-6670000D02*
X16085000Y-6340000D01*
X16565000Y-6340000D01*
X16325000Y-6670000D01*
G36*
X16325000Y-6670000D02*
G01*
X16085000Y-6340000D01*
X16565000Y-6340000D01*
X16325000Y-6670000D01*
G37*
%TD*%
M02*
