%TF.GenerationSoftware,KiCad,Pcbnew,8.0.9*%
%TF.CreationDate,2025-11-28T12:00:50-05:00*%
%TF.ProjectId,greenenergyecu,67726565-6e65-46e6-9572-67796563752e,rev?*%
%TF.SameCoordinates,Original*%
%TF.FileFunction,Drillmap*%
%TF.FilePolarity,Positive*%
%FSLAX45Y45*%
G04 Gerber Fmt 4.5, Leading zero omitted, Abs format (unit mm)*
G04 Created by KiCad (PCBNEW 8.0.9) date 2025-11-28 12:00:50*
%MOMM*%
%LPD*%
G01*
G04 APERTURE LIST*
%ADD10C,0.050000*%
%ADD11C,0.200000*%
G04 APERTURE END LIST*
D10*
X0Y-4000D02*
X3450000Y-4000D01*
X3450000Y-2054000D01*
X0Y-2054000D01*
X0Y-4000D01*
D11*
X258277Y-2367984D02*
X258277Y-2167984D01*
X258277Y-2167984D02*
X305896Y-2167984D01*
X305896Y-2167984D02*
X334467Y-2177508D01*
X334467Y-2177508D02*
X353515Y-2196555D01*
X353515Y-2196555D02*
X363039Y-2215603D01*
X363039Y-2215603D02*
X372562Y-2253698D01*
X372562Y-2253698D02*
X372562Y-2282270D01*
X372562Y-2282270D02*
X363039Y-2320365D01*
X363039Y-2320365D02*
X353515Y-2339412D01*
X353515Y-2339412D02*
X334467Y-2358460D01*
X334467Y-2358460D02*
X305896Y-2367984D01*
X305896Y-2367984D02*
X258277Y-2367984D01*
X458277Y-2367984D02*
X458277Y-2234650D01*
X458277Y-2272746D02*
X467801Y-2253698D01*
X467801Y-2253698D02*
X477324Y-2244174D01*
X477324Y-2244174D02*
X496372Y-2234650D01*
X496372Y-2234650D02*
X515420Y-2234650D01*
X582086Y-2367984D02*
X582086Y-2234650D01*
X582086Y-2167984D02*
X572563Y-2177508D01*
X572563Y-2177508D02*
X582086Y-2187031D01*
X582086Y-2187031D02*
X591610Y-2177508D01*
X591610Y-2177508D02*
X582086Y-2167984D01*
X582086Y-2167984D02*
X582086Y-2187031D01*
X705896Y-2367984D02*
X686848Y-2358460D01*
X686848Y-2358460D02*
X677324Y-2339412D01*
X677324Y-2339412D02*
X677324Y-2167984D01*
X810658Y-2367984D02*
X791610Y-2358460D01*
X791610Y-2358460D02*
X782086Y-2339412D01*
X782086Y-2339412D02*
X782086Y-2167984D01*
X1039229Y-2367984D02*
X1039229Y-2167984D01*
X1039229Y-2167984D02*
X1105896Y-2310841D01*
X1105896Y-2310841D02*
X1172563Y-2167984D01*
X1172563Y-2167984D02*
X1172563Y-2367984D01*
X1353515Y-2367984D02*
X1353515Y-2263222D01*
X1353515Y-2263222D02*
X1343991Y-2244174D01*
X1343991Y-2244174D02*
X1324944Y-2234650D01*
X1324944Y-2234650D02*
X1286848Y-2234650D01*
X1286848Y-2234650D02*
X1267801Y-2244174D01*
X1353515Y-2358460D02*
X1334467Y-2367984D01*
X1334467Y-2367984D02*
X1286848Y-2367984D01*
X1286848Y-2367984D02*
X1267801Y-2358460D01*
X1267801Y-2358460D02*
X1258277Y-2339412D01*
X1258277Y-2339412D02*
X1258277Y-2320365D01*
X1258277Y-2320365D02*
X1267801Y-2301317D01*
X1267801Y-2301317D02*
X1286848Y-2291793D01*
X1286848Y-2291793D02*
X1334467Y-2291793D01*
X1334467Y-2291793D02*
X1353515Y-2282270D01*
X1448753Y-2234650D02*
X1448753Y-2434650D01*
X1448753Y-2244174D02*
X1467801Y-2234650D01*
X1467801Y-2234650D02*
X1505896Y-2234650D01*
X1505896Y-2234650D02*
X1524943Y-2244174D01*
X1524943Y-2244174D02*
X1534467Y-2253698D01*
X1534467Y-2253698D02*
X1543991Y-2272746D01*
X1543991Y-2272746D02*
X1543991Y-2329889D01*
X1543991Y-2329889D02*
X1534467Y-2348936D01*
X1534467Y-2348936D02*
X1524943Y-2358460D01*
X1524943Y-2358460D02*
X1505896Y-2367984D01*
X1505896Y-2367984D02*
X1467801Y-2367984D01*
X1467801Y-2367984D02*
X1448753Y-2358460D01*
X1629705Y-2348936D02*
X1639229Y-2358460D01*
X1639229Y-2358460D02*
X1629705Y-2367984D01*
X1629705Y-2367984D02*
X1620182Y-2358460D01*
X1620182Y-2358460D02*
X1629705Y-2348936D01*
X1629705Y-2348936D02*
X1629705Y-2367984D01*
X1629705Y-2244174D02*
X1639229Y-2253698D01*
X1639229Y-2253698D02*
X1629705Y-2263222D01*
X1629705Y-2263222D02*
X1620182Y-2253698D01*
X1620182Y-2253698D02*
X1629705Y-2244174D01*
X1629705Y-2244174D02*
X1629705Y-2263222D01*
M02*
