%TF.GenerationSoftware,KiCad,Pcbnew,8.0.9*%
%TF.CreationDate,2025-11-26T13:41:23-05:00*%
%TF.ProjectId,greenenergyecu,67726565-6e65-46e6-9572-67796563752e,rev?*%
%TF.SameCoordinates,Original*%
%TF.FileFunction,Drillmap*%
%TF.FilePolarity,Positive*%
%FSLAX45Y45*%
G04 Gerber Fmt 4.5, Leading zero omitted, Abs format (unit mm)*
G04 Created by KiCad (PCBNEW 8.0.9) date 2025-11-26 13:41:23*
%MOMM*%
%LPD*%
G01*
G04 APERTURE LIST*
%ADD10C,0.050000*%
%ADD11C,0.200000*%
%ADD12C,0.100000*%
G04 APERTURE END LIST*
D10*
X0Y-4000D02*
X3450000Y-4000D01*
X3450000Y-2054000D01*
X0Y-2054000D01*
X0Y-4000D01*
D11*
D12*
X-15000Y11000D02*
X15000Y-19000D01*
X15000Y11000D02*
X-15000Y-19000D01*
X85000Y-89000D02*
X115000Y-119000D01*
X115000Y-89000D02*
X85000Y-119000D01*
X135000Y-1889000D02*
X165000Y-1919000D01*
X165000Y-1889000D02*
X135000Y-1919000D01*
X3285000Y-139000D02*
X3315000Y-169000D01*
X3315000Y-139000D02*
X3285000Y-169000D01*
X3285000Y-1889000D02*
X3315000Y-1919000D01*
X3315000Y-1889000D02*
X3285000Y-1919000D01*
D11*
X258277Y-2367984D02*
X258277Y-2167984D01*
X258277Y-2167984D02*
X305896Y-2167984D01*
X305896Y-2167984D02*
X334467Y-2177508D01*
X334467Y-2177508D02*
X353515Y-2196555D01*
X353515Y-2196555D02*
X363039Y-2215603D01*
X363039Y-2215603D02*
X372562Y-2253698D01*
X372562Y-2253698D02*
X372562Y-2282270D01*
X372562Y-2282270D02*
X363039Y-2320365D01*
X363039Y-2320365D02*
X353515Y-2339412D01*
X353515Y-2339412D02*
X334467Y-2358460D01*
X334467Y-2358460D02*
X305896Y-2367984D01*
X305896Y-2367984D02*
X258277Y-2367984D01*
X458277Y-2367984D02*
X458277Y-2234650D01*
X458277Y-2272746D02*
X467801Y-2253698D01*
X467801Y-2253698D02*
X477324Y-2244174D01*
X477324Y-2244174D02*
X496372Y-2234650D01*
X496372Y-2234650D02*
X515420Y-2234650D01*
X582086Y-2367984D02*
X582086Y-2234650D01*
X582086Y-2167984D02*
X572563Y-2177508D01*
X572563Y-2177508D02*
X582086Y-2187031D01*
X582086Y-2187031D02*
X591610Y-2177508D01*
X591610Y-2177508D02*
X582086Y-2167984D01*
X582086Y-2167984D02*
X582086Y-2187031D01*
X705896Y-2367984D02*
X686848Y-2358460D01*
X686848Y-2358460D02*
X677324Y-2339412D01*
X677324Y-2339412D02*
X677324Y-2167984D01*
X810658Y-2367984D02*
X791610Y-2358460D01*
X791610Y-2358460D02*
X782086Y-2339412D01*
X782086Y-2339412D02*
X782086Y-2167984D01*
X1039229Y-2367984D02*
X1039229Y-2167984D01*
X1039229Y-2167984D02*
X1105896Y-2310841D01*
X1105896Y-2310841D02*
X1172563Y-2167984D01*
X1172563Y-2167984D02*
X1172563Y-2367984D01*
X1353515Y-2367984D02*
X1353515Y-2263222D01*
X1353515Y-2263222D02*
X1343991Y-2244174D01*
X1343991Y-2244174D02*
X1324944Y-2234650D01*
X1324944Y-2234650D02*
X1286848Y-2234650D01*
X1286848Y-2234650D02*
X1267801Y-2244174D01*
X1353515Y-2358460D02*
X1334467Y-2367984D01*
X1334467Y-2367984D02*
X1286848Y-2367984D01*
X1286848Y-2367984D02*
X1267801Y-2358460D01*
X1267801Y-2358460D02*
X1258277Y-2339412D01*
X1258277Y-2339412D02*
X1258277Y-2320365D01*
X1258277Y-2320365D02*
X1267801Y-2301317D01*
X1267801Y-2301317D02*
X1286848Y-2291793D01*
X1286848Y-2291793D02*
X1334467Y-2291793D01*
X1334467Y-2291793D02*
X1353515Y-2282270D01*
X1448753Y-2234650D02*
X1448753Y-2434650D01*
X1448753Y-2244174D02*
X1467801Y-2234650D01*
X1467801Y-2234650D02*
X1505896Y-2234650D01*
X1505896Y-2234650D02*
X1524943Y-2244174D01*
X1524943Y-2244174D02*
X1534467Y-2253698D01*
X1534467Y-2253698D02*
X1543991Y-2272746D01*
X1543991Y-2272746D02*
X1543991Y-2329889D01*
X1543991Y-2329889D02*
X1534467Y-2348936D01*
X1534467Y-2348936D02*
X1524943Y-2358460D01*
X1524943Y-2358460D02*
X1505896Y-2367984D01*
X1505896Y-2367984D02*
X1467801Y-2367984D01*
X1467801Y-2367984D02*
X1448753Y-2358460D01*
X1629705Y-2348936D02*
X1639229Y-2358460D01*
X1639229Y-2358460D02*
X1629705Y-2367984D01*
X1629705Y-2367984D02*
X1620182Y-2358460D01*
X1620182Y-2358460D02*
X1629705Y-2348936D01*
X1629705Y-2348936D02*
X1629705Y-2367984D01*
X1629705Y-2244174D02*
X1639229Y-2253698D01*
X1639229Y-2253698D02*
X1629705Y-2263222D01*
X1629705Y-2263222D02*
X1620182Y-2253698D01*
X1620182Y-2253698D02*
X1629705Y-2244174D01*
X1629705Y-2244174D02*
X1629705Y-2263222D01*
D12*
X-32500Y-2681500D02*
X-2500Y-2711500D01*
X-2500Y-2681500D02*
X-32500Y-2711500D01*
D11*
X296372Y-2587984D02*
X315420Y-2587984D01*
X315420Y-2587984D02*
X334467Y-2597508D01*
X334467Y-2597508D02*
X343991Y-2607031D01*
X343991Y-2607031D02*
X353515Y-2626079D01*
X353515Y-2626079D02*
X363039Y-2664174D01*
X363039Y-2664174D02*
X363039Y-2711793D01*
X363039Y-2711793D02*
X353515Y-2749889D01*
X353515Y-2749889D02*
X343991Y-2768936D01*
X343991Y-2768936D02*
X334467Y-2778460D01*
X334467Y-2778460D02*
X315420Y-2787984D01*
X315420Y-2787984D02*
X296372Y-2787984D01*
X296372Y-2787984D02*
X277324Y-2778460D01*
X277324Y-2778460D02*
X267801Y-2768936D01*
X267801Y-2768936D02*
X258277Y-2749889D01*
X258277Y-2749889D02*
X248753Y-2711793D01*
X248753Y-2711793D02*
X248753Y-2664174D01*
X248753Y-2664174D02*
X258277Y-2626079D01*
X258277Y-2626079D02*
X267801Y-2607031D01*
X267801Y-2607031D02*
X277324Y-2597508D01*
X277324Y-2597508D02*
X296372Y-2587984D01*
X448753Y-2768936D02*
X458277Y-2778460D01*
X458277Y-2778460D02*
X448753Y-2787984D01*
X448753Y-2787984D02*
X439229Y-2778460D01*
X439229Y-2778460D02*
X448753Y-2768936D01*
X448753Y-2768936D02*
X448753Y-2787984D01*
X524944Y-2587984D02*
X648753Y-2587984D01*
X648753Y-2587984D02*
X582086Y-2664174D01*
X582086Y-2664174D02*
X610658Y-2664174D01*
X610658Y-2664174D02*
X629705Y-2673698D01*
X629705Y-2673698D02*
X639229Y-2683222D01*
X639229Y-2683222D02*
X648753Y-2702270D01*
X648753Y-2702270D02*
X648753Y-2749889D01*
X648753Y-2749889D02*
X639229Y-2768936D01*
X639229Y-2768936D02*
X629705Y-2778460D01*
X629705Y-2778460D02*
X610658Y-2787984D01*
X610658Y-2787984D02*
X553515Y-2787984D01*
X553515Y-2787984D02*
X534467Y-2778460D01*
X534467Y-2778460D02*
X524944Y-2768936D01*
X772562Y-2587984D02*
X791610Y-2587984D01*
X791610Y-2587984D02*
X810658Y-2597508D01*
X810658Y-2597508D02*
X820182Y-2607031D01*
X820182Y-2607031D02*
X829705Y-2626079D01*
X829705Y-2626079D02*
X839229Y-2664174D01*
X839229Y-2664174D02*
X839229Y-2711793D01*
X839229Y-2711793D02*
X829705Y-2749889D01*
X829705Y-2749889D02*
X820182Y-2768936D01*
X820182Y-2768936D02*
X810658Y-2778460D01*
X810658Y-2778460D02*
X791610Y-2787984D01*
X791610Y-2787984D02*
X772562Y-2787984D01*
X772562Y-2787984D02*
X753515Y-2778460D01*
X753515Y-2778460D02*
X743991Y-2768936D01*
X743991Y-2768936D02*
X734467Y-2749889D01*
X734467Y-2749889D02*
X724943Y-2711793D01*
X724943Y-2711793D02*
X724943Y-2664174D01*
X724943Y-2664174D02*
X734467Y-2626079D01*
X734467Y-2626079D02*
X743991Y-2607031D01*
X743991Y-2607031D02*
X753515Y-2597508D01*
X753515Y-2597508D02*
X772562Y-2587984D01*
X963039Y-2587984D02*
X982086Y-2587984D01*
X982086Y-2587984D02*
X1001134Y-2597508D01*
X1001134Y-2597508D02*
X1010658Y-2607031D01*
X1010658Y-2607031D02*
X1020182Y-2626079D01*
X1020182Y-2626079D02*
X1029705Y-2664174D01*
X1029705Y-2664174D02*
X1029705Y-2711793D01*
X1029705Y-2711793D02*
X1020182Y-2749889D01*
X1020182Y-2749889D02*
X1010658Y-2768936D01*
X1010658Y-2768936D02*
X1001134Y-2778460D01*
X1001134Y-2778460D02*
X982086Y-2787984D01*
X982086Y-2787984D02*
X963039Y-2787984D01*
X963039Y-2787984D02*
X943991Y-2778460D01*
X943991Y-2778460D02*
X934467Y-2768936D01*
X934467Y-2768936D02*
X924943Y-2749889D01*
X924943Y-2749889D02*
X915420Y-2711793D01*
X915420Y-2711793D02*
X915420Y-2664174D01*
X915420Y-2664174D02*
X924943Y-2626079D01*
X924943Y-2626079D02*
X934467Y-2607031D01*
X934467Y-2607031D02*
X943991Y-2597508D01*
X943991Y-2597508D02*
X963039Y-2587984D01*
X1115420Y-2787984D02*
X1115420Y-2654650D01*
X1115420Y-2673698D02*
X1124944Y-2664174D01*
X1124944Y-2664174D02*
X1143991Y-2654650D01*
X1143991Y-2654650D02*
X1172563Y-2654650D01*
X1172563Y-2654650D02*
X1191610Y-2664174D01*
X1191610Y-2664174D02*
X1201134Y-2683222D01*
X1201134Y-2683222D02*
X1201134Y-2787984D01*
X1201134Y-2683222D02*
X1210658Y-2664174D01*
X1210658Y-2664174D02*
X1229705Y-2654650D01*
X1229705Y-2654650D02*
X1258277Y-2654650D01*
X1258277Y-2654650D02*
X1277325Y-2664174D01*
X1277325Y-2664174D02*
X1286848Y-2683222D01*
X1286848Y-2683222D02*
X1286848Y-2787984D01*
X1382086Y-2787984D02*
X1382086Y-2654650D01*
X1382086Y-2673698D02*
X1391610Y-2664174D01*
X1391610Y-2664174D02*
X1410658Y-2654650D01*
X1410658Y-2654650D02*
X1439229Y-2654650D01*
X1439229Y-2654650D02*
X1458277Y-2664174D01*
X1458277Y-2664174D02*
X1467801Y-2683222D01*
X1467801Y-2683222D02*
X1467801Y-2787984D01*
X1467801Y-2683222D02*
X1477324Y-2664174D01*
X1477324Y-2664174D02*
X1496372Y-2654650D01*
X1496372Y-2654650D02*
X1524943Y-2654650D01*
X1524943Y-2654650D02*
X1543991Y-2664174D01*
X1543991Y-2664174D02*
X1553515Y-2683222D01*
X1553515Y-2683222D02*
X1553515Y-2787984D01*
X1943991Y-2578460D02*
X1772563Y-2835603D01*
X2201134Y-2587984D02*
X2220182Y-2587984D01*
X2220182Y-2587984D02*
X2239229Y-2597508D01*
X2239229Y-2597508D02*
X2248753Y-2607031D01*
X2248753Y-2607031D02*
X2258277Y-2626079D01*
X2258277Y-2626079D02*
X2267801Y-2664174D01*
X2267801Y-2664174D02*
X2267801Y-2711793D01*
X2267801Y-2711793D02*
X2258277Y-2749889D01*
X2258277Y-2749889D02*
X2248753Y-2768936D01*
X2248753Y-2768936D02*
X2239229Y-2778460D01*
X2239229Y-2778460D02*
X2220182Y-2787984D01*
X2220182Y-2787984D02*
X2201134Y-2787984D01*
X2201134Y-2787984D02*
X2182087Y-2778460D01*
X2182087Y-2778460D02*
X2172563Y-2768936D01*
X2172563Y-2768936D02*
X2163039Y-2749889D01*
X2163039Y-2749889D02*
X2153515Y-2711793D01*
X2153515Y-2711793D02*
X2153515Y-2664174D01*
X2153515Y-2664174D02*
X2163039Y-2626079D01*
X2163039Y-2626079D02*
X2172563Y-2607031D01*
X2172563Y-2607031D02*
X2182087Y-2597508D01*
X2182087Y-2597508D02*
X2201134Y-2587984D01*
X2353515Y-2768936D02*
X2363039Y-2778460D01*
X2363039Y-2778460D02*
X2353515Y-2787984D01*
X2353515Y-2787984D02*
X2343991Y-2778460D01*
X2343991Y-2778460D02*
X2353515Y-2768936D01*
X2353515Y-2768936D02*
X2353515Y-2787984D01*
X2486848Y-2587984D02*
X2505896Y-2587984D01*
X2505896Y-2587984D02*
X2524944Y-2597508D01*
X2524944Y-2597508D02*
X2534468Y-2607031D01*
X2534468Y-2607031D02*
X2543991Y-2626079D01*
X2543991Y-2626079D02*
X2553515Y-2664174D01*
X2553515Y-2664174D02*
X2553515Y-2711793D01*
X2553515Y-2711793D02*
X2543991Y-2749889D01*
X2543991Y-2749889D02*
X2534468Y-2768936D01*
X2534468Y-2768936D02*
X2524944Y-2778460D01*
X2524944Y-2778460D02*
X2505896Y-2787984D01*
X2505896Y-2787984D02*
X2486848Y-2787984D01*
X2486848Y-2787984D02*
X2467801Y-2778460D01*
X2467801Y-2778460D02*
X2458277Y-2768936D01*
X2458277Y-2768936D02*
X2448753Y-2749889D01*
X2448753Y-2749889D02*
X2439229Y-2711793D01*
X2439229Y-2711793D02*
X2439229Y-2664174D01*
X2439229Y-2664174D02*
X2448753Y-2626079D01*
X2448753Y-2626079D02*
X2458277Y-2607031D01*
X2458277Y-2607031D02*
X2467801Y-2597508D01*
X2467801Y-2597508D02*
X2486848Y-2587984D01*
X2743991Y-2787984D02*
X2629706Y-2787984D01*
X2686848Y-2787984D02*
X2686848Y-2587984D01*
X2686848Y-2587984D02*
X2667801Y-2616555D01*
X2667801Y-2616555D02*
X2648753Y-2635603D01*
X2648753Y-2635603D02*
X2629706Y-2645127D01*
X2934467Y-2787984D02*
X2820182Y-2787984D01*
X2877325Y-2787984D02*
X2877325Y-2587984D01*
X2877325Y-2587984D02*
X2858277Y-2616555D01*
X2858277Y-2616555D02*
X2839229Y-2635603D01*
X2839229Y-2635603D02*
X2820182Y-2645127D01*
X3048753Y-2673698D02*
X3029706Y-2664174D01*
X3029706Y-2664174D02*
X3020182Y-2654650D01*
X3020182Y-2654650D02*
X3010658Y-2635603D01*
X3010658Y-2635603D02*
X3010658Y-2626079D01*
X3010658Y-2626079D02*
X3020182Y-2607031D01*
X3020182Y-2607031D02*
X3029706Y-2597508D01*
X3029706Y-2597508D02*
X3048753Y-2587984D01*
X3048753Y-2587984D02*
X3086848Y-2587984D01*
X3086848Y-2587984D02*
X3105896Y-2597508D01*
X3105896Y-2597508D02*
X3115420Y-2607031D01*
X3115420Y-2607031D02*
X3124944Y-2626079D01*
X3124944Y-2626079D02*
X3124944Y-2635603D01*
X3124944Y-2635603D02*
X3115420Y-2654650D01*
X3115420Y-2654650D02*
X3105896Y-2664174D01*
X3105896Y-2664174D02*
X3086848Y-2673698D01*
X3086848Y-2673698D02*
X3048753Y-2673698D01*
X3048753Y-2673698D02*
X3029706Y-2683222D01*
X3029706Y-2683222D02*
X3020182Y-2692746D01*
X3020182Y-2692746D02*
X3010658Y-2711793D01*
X3010658Y-2711793D02*
X3010658Y-2749889D01*
X3010658Y-2749889D02*
X3020182Y-2768936D01*
X3020182Y-2768936D02*
X3029706Y-2778460D01*
X3029706Y-2778460D02*
X3048753Y-2787984D01*
X3048753Y-2787984D02*
X3086848Y-2787984D01*
X3086848Y-2787984D02*
X3105896Y-2778460D01*
X3105896Y-2778460D02*
X3115420Y-2768936D01*
X3115420Y-2768936D02*
X3124944Y-2749889D01*
X3124944Y-2749889D02*
X3124944Y-2711793D01*
X3124944Y-2711793D02*
X3115420Y-2692746D01*
X3115420Y-2692746D02*
X3105896Y-2683222D01*
X3105896Y-2683222D02*
X3086848Y-2673698D01*
X3201134Y-2587984D02*
X3201134Y-2626079D01*
X3277325Y-2587984D02*
X3277325Y-2626079D01*
X3572563Y-2864174D02*
X3563039Y-2854650D01*
X3563039Y-2854650D02*
X3543991Y-2826079D01*
X3543991Y-2826079D02*
X3534468Y-2807031D01*
X3534468Y-2807031D02*
X3524944Y-2778460D01*
X3524944Y-2778460D02*
X3515420Y-2730841D01*
X3515420Y-2730841D02*
X3515420Y-2692746D01*
X3515420Y-2692746D02*
X3524944Y-2645127D01*
X3524944Y-2645127D02*
X3534468Y-2616555D01*
X3534468Y-2616555D02*
X3543991Y-2597508D01*
X3543991Y-2597508D02*
X3563039Y-2568936D01*
X3563039Y-2568936D02*
X3572563Y-2559412D01*
X3743991Y-2587984D02*
X3648753Y-2587984D01*
X3648753Y-2587984D02*
X3639229Y-2683222D01*
X3639229Y-2683222D02*
X3648753Y-2673698D01*
X3648753Y-2673698D02*
X3667801Y-2664174D01*
X3667801Y-2664174D02*
X3715420Y-2664174D01*
X3715420Y-2664174D02*
X3734468Y-2673698D01*
X3734468Y-2673698D02*
X3743991Y-2683222D01*
X3743991Y-2683222D02*
X3753515Y-2702270D01*
X3753515Y-2702270D02*
X3753515Y-2749889D01*
X3753515Y-2749889D02*
X3743991Y-2768936D01*
X3743991Y-2768936D02*
X3734468Y-2778460D01*
X3734468Y-2778460D02*
X3715420Y-2787984D01*
X3715420Y-2787984D02*
X3667801Y-2787984D01*
X3667801Y-2787984D02*
X3648753Y-2778460D01*
X3648753Y-2778460D02*
X3639229Y-2768936D01*
X3991610Y-2787984D02*
X3991610Y-2587984D01*
X4077325Y-2787984D02*
X4077325Y-2683222D01*
X4077325Y-2683222D02*
X4067801Y-2664174D01*
X4067801Y-2664174D02*
X4048753Y-2654650D01*
X4048753Y-2654650D02*
X4020182Y-2654650D01*
X4020182Y-2654650D02*
X4001134Y-2664174D01*
X4001134Y-2664174D02*
X3991610Y-2673698D01*
X4201134Y-2787984D02*
X4182087Y-2778460D01*
X4182087Y-2778460D02*
X4172563Y-2768936D01*
X4172563Y-2768936D02*
X4163039Y-2749889D01*
X4163039Y-2749889D02*
X4163039Y-2692746D01*
X4163039Y-2692746D02*
X4172563Y-2673698D01*
X4172563Y-2673698D02*
X4182087Y-2664174D01*
X4182087Y-2664174D02*
X4201134Y-2654650D01*
X4201134Y-2654650D02*
X4229706Y-2654650D01*
X4229706Y-2654650D02*
X4248753Y-2664174D01*
X4248753Y-2664174D02*
X4258277Y-2673698D01*
X4258277Y-2673698D02*
X4267801Y-2692746D01*
X4267801Y-2692746D02*
X4267801Y-2749889D01*
X4267801Y-2749889D02*
X4258277Y-2768936D01*
X4258277Y-2768936D02*
X4248753Y-2778460D01*
X4248753Y-2778460D02*
X4229706Y-2787984D01*
X4229706Y-2787984D02*
X4201134Y-2787984D01*
X4382087Y-2787984D02*
X4363039Y-2778460D01*
X4363039Y-2778460D02*
X4353515Y-2759412D01*
X4353515Y-2759412D02*
X4353515Y-2587984D01*
X4534468Y-2778460D02*
X4515420Y-2787984D01*
X4515420Y-2787984D02*
X4477325Y-2787984D01*
X4477325Y-2787984D02*
X4458277Y-2778460D01*
X4458277Y-2778460D02*
X4448753Y-2759412D01*
X4448753Y-2759412D02*
X4448753Y-2683222D01*
X4448753Y-2683222D02*
X4458277Y-2664174D01*
X4458277Y-2664174D02*
X4477325Y-2654650D01*
X4477325Y-2654650D02*
X4515420Y-2654650D01*
X4515420Y-2654650D02*
X4534468Y-2664174D01*
X4534468Y-2664174D02*
X4543992Y-2683222D01*
X4543992Y-2683222D02*
X4543992Y-2702270D01*
X4543992Y-2702270D02*
X4448753Y-2721317D01*
X4620182Y-2778460D02*
X4639230Y-2787984D01*
X4639230Y-2787984D02*
X4677325Y-2787984D01*
X4677325Y-2787984D02*
X4696373Y-2778460D01*
X4696373Y-2778460D02*
X4705896Y-2759412D01*
X4705896Y-2759412D02*
X4705896Y-2749889D01*
X4705896Y-2749889D02*
X4696373Y-2730841D01*
X4696373Y-2730841D02*
X4677325Y-2721317D01*
X4677325Y-2721317D02*
X4648753Y-2721317D01*
X4648753Y-2721317D02*
X4629706Y-2711793D01*
X4629706Y-2711793D02*
X4620182Y-2692746D01*
X4620182Y-2692746D02*
X4620182Y-2683222D01*
X4620182Y-2683222D02*
X4629706Y-2664174D01*
X4629706Y-2664174D02*
X4648753Y-2654650D01*
X4648753Y-2654650D02*
X4677325Y-2654650D01*
X4677325Y-2654650D02*
X4696373Y-2664174D01*
X4772563Y-2864174D02*
X4782087Y-2854650D01*
X4782087Y-2854650D02*
X4801134Y-2826079D01*
X4801134Y-2826079D02*
X4810658Y-2807031D01*
X4810658Y-2807031D02*
X4820182Y-2778460D01*
X4820182Y-2778460D02*
X4829706Y-2730841D01*
X4829706Y-2730841D02*
X4829706Y-2692746D01*
X4829706Y-2692746D02*
X4820182Y-2645127D01*
X4820182Y-2645127D02*
X4810658Y-2616555D01*
X4810658Y-2616555D02*
X4801134Y-2597508D01*
X4801134Y-2597508D02*
X4782087Y-2568936D01*
X4782087Y-2568936D02*
X4772563Y-2559412D01*
M02*
