G04 #@! TF.GenerationSoftware,KiCad,Pcbnew,8.0.9-8.0.9-0~ubuntu24.04.1*
G04 #@! TF.CreationDate,2026-01-23T01:34:04+00:00*
G04 #@! TF.ProjectId,greenenergyecu,67726565-6e65-46e6-9572-67796563752e,rev?*
G04 #@! TF.SameCoordinates,Original*
G04 #@! TF.FileFunction,Soldermask,Bot*
G04 #@! TF.FilePolarity,Negative*
%FSLAX46Y46*%
G04 Gerber Fmt 4.6, Leading zero omitted, Abs format (unit mm)*
G04 Created by KiCad (PCBNEW 8.0.9-8.0.9-0~ubuntu24.04.1) date 2026-01-23 01:34:04*
%MOMM*%
%LPD*%
G01*
G04 APERTURE LIST*
%ADD10C,2.000000*%
%ADD11C,1.700000*%
%ADD12O,1.850000X1.700000*%
G04 APERTURE END LIST*
D10*
G04 #@! TO.C,M5*
X9350126Y25830000D03*
X9350126Y30030000D03*
X9350126Y34230000D03*
D11*
X10850126Y35080000D03*
D10*
X9350126Y38430000D03*
D11*
X10850126Y37620000D03*
D10*
X14850126Y25830000D03*
X14850126Y30030000D03*
D11*
X13390126Y35080000D03*
D10*
X14850126Y34230000D03*
D11*
X13390126Y37620000D03*
D10*
X14850126Y38430000D03*
X9350126Y45230000D03*
X9350126Y49430000D03*
D11*
X10850126Y50280000D03*
D10*
X9350126Y53630000D03*
D11*
X10850126Y52820000D03*
D10*
X9350126Y57830000D03*
D11*
X10850126Y58680000D03*
D10*
X9350126Y62030000D03*
D11*
X10850126Y61220000D03*
D10*
X9350126Y66230000D03*
D11*
X10850126Y67080000D03*
D10*
X9350126Y70430000D03*
D11*
X10850126Y69620000D03*
D10*
X9350126Y74630000D03*
D11*
X10850126Y75480000D03*
D10*
X9350126Y78830000D03*
D11*
X10850126Y78020000D03*
D10*
X14850126Y45230000D03*
D11*
X13390126Y50280000D03*
D10*
X14850126Y49430000D03*
D11*
X13390126Y52820000D03*
D10*
X14850126Y53630000D03*
D11*
X13390126Y58680000D03*
D10*
X14850126Y57830000D03*
D11*
X13390126Y61220000D03*
D10*
X14850126Y62030000D03*
D11*
X13390126Y67080000D03*
D10*
X14850126Y66230000D03*
D11*
X13390126Y69620000D03*
D10*
X14850126Y70430000D03*
D11*
X13390126Y75480000D03*
D10*
X14850126Y74630000D03*
D11*
X13390126Y78020000D03*
D10*
X14850126Y78830000D03*
X10675126Y90755000D03*
D11*
X11525126Y89255000D03*
X14065126Y89255000D03*
D10*
X14875126Y90755000D03*
X19075126Y90755000D03*
D11*
X19925126Y89255000D03*
X22465126Y89255000D03*
D10*
X23275126Y90755000D03*
X27475126Y90755000D03*
D11*
X28325126Y89255000D03*
X30865126Y89255000D03*
D10*
X31675126Y90755000D03*
X35875126Y90755000D03*
D11*
X36725126Y89255000D03*
X39265126Y89255000D03*
D10*
X40075126Y90755000D03*
X44275126Y90755000D03*
X48475126Y90755000D03*
X10675126Y85255000D03*
D11*
X11525126Y86715000D03*
X14065126Y86715000D03*
D10*
X14875126Y85255000D03*
X19075126Y85255000D03*
D11*
X19925126Y86715000D03*
X22465126Y86715000D03*
D10*
X23275126Y85255000D03*
X27475126Y85255000D03*
D11*
X28325126Y86715000D03*
X30865126Y86715000D03*
D10*
X31675126Y85255000D03*
X35875126Y85255000D03*
D11*
X36725126Y86715000D03*
X39265126Y86715000D03*
D10*
X40075126Y85255000D03*
X44275126Y85255000D03*
X48475126Y85255000D03*
X60375126Y90755000D03*
D11*
X61225126Y89255000D03*
X63765126Y89255000D03*
D10*
X64575126Y90755000D03*
X68775126Y90755000D03*
D11*
X69625126Y89255000D03*
X72165126Y89255000D03*
D10*
X72975126Y90755000D03*
X77175126Y90755000D03*
D11*
X78025126Y89255000D03*
X80565126Y89255000D03*
D10*
X81375126Y90755000D03*
X85575126Y90755000D03*
D11*
X86425126Y89255000D03*
X88965126Y89255000D03*
D10*
X89775126Y90755000D03*
X60375126Y85255000D03*
D11*
X61225126Y86715000D03*
X63765126Y86715000D03*
D10*
X64575126Y85255000D03*
X68775126Y85255000D03*
D11*
X69625126Y86715000D03*
X72165126Y86715000D03*
D10*
X72975126Y85255000D03*
X77175126Y85255000D03*
D11*
X78025126Y86715000D03*
X80565126Y86715000D03*
D10*
X81375126Y85255000D03*
X85575126Y85255000D03*
D11*
X86425126Y86715000D03*
X88965126Y86715000D03*
D10*
X89775126Y85255000D03*
D11*
X89340126Y78420000D03*
D10*
X90800126Y79230000D03*
D11*
X89340126Y75880000D03*
D10*
X90800126Y75030000D03*
X90800126Y70830000D03*
X85300126Y79230000D03*
D11*
X86800126Y78420000D03*
D10*
X85300126Y75030000D03*
D11*
X86800126Y75880000D03*
D10*
X85300126Y70830000D03*
G36*
G01*
X83750126Y2180000D02*
X82400126Y2180000D01*
G75*
G02*
X82150126Y2430000I0J250000D01*
G01*
X82150126Y3630000D01*
G75*
G02*
X82400126Y3880000I250000J0D01*
G01*
X83750126Y3880000D01*
G75*
G02*
X84000126Y3630000I0J-250000D01*
G01*
X84000126Y2430000D01*
G75*
G02*
X83750126Y2180000I-250000J0D01*
G01*
G37*
D12*
X83075126Y5530000D03*
X83075126Y8030000D03*
X83075126Y10530000D03*
X83075126Y13030000D03*
D11*
X62575126Y2530000D03*
X62575126Y7530000D03*
X83275126Y24030000D03*
X83275126Y19330000D03*
X5615126Y11530000D03*
X8155126Y11530000D03*
X3075126Y11530000D03*
X23075126Y11030000D03*
G04 #@! TD*
M02*
