G04 #@! TF.GenerationSoftware,KiCad,Pcbnew,8.0.9-8.0.9-0~ubuntu24.04.1*
G04 #@! TF.CreationDate,2025-11-26T22:56:42+00:00*
G04 #@! TF.ProjectId,greenenergyecu,67726565-6e65-46e6-9572-67796563752e,rev?*
G04 #@! TF.SameCoordinates,Original*
G04 #@! TF.FileFunction,Paste,Top*
G04 #@! TF.FilePolarity,Positive*
%FSLAX46Y46*%
G04 Gerber Fmt 4.6, Leading zero omitted, Abs format (unit mm)*
G04 Created by KiCad (PCBNEW 8.0.9-8.0.9-0~ubuntu24.04.1) date 2025-11-26 22:56:42*
%MOMM*%
%LPD*%
G01*
G04 APERTURE LIST*
G04 APERTURE END LIST*
G04 #@! TO.C,U2*
G36*
G01*
X4075000Y-3840000D02*
X4075000Y-3540000D01*
G75*
G02*
X4225000Y-3390000I150000J0D01*
G01*
X5875000Y-3390000D01*
G75*
G02*
X6025000Y-3540000I0J-150000D01*
G01*
X6025000Y-3840000D01*
G75*
G02*
X5875000Y-3990000I-150000J0D01*
G01*
X4225000Y-3990000D01*
G75*
G02*
X4075000Y-3840000I0J150000D01*
G01*
G37*
G36*
G01*
X4075000Y-5110000D02*
X4075000Y-4810000D01*
G75*
G02*
X4225000Y-4660000I150000J0D01*
G01*
X5875000Y-4660000D01*
G75*
G02*
X6025000Y-4810000I0J-150000D01*
G01*
X6025000Y-5110000D01*
G75*
G02*
X5875000Y-5260000I-150000J0D01*
G01*
X4225000Y-5260000D01*
G75*
G02*
X4075000Y-5110000I0J150000D01*
G01*
G37*
G36*
G01*
X4075000Y-6380000D02*
X4075000Y-6080000D01*
G75*
G02*
X4225000Y-5930000I150000J0D01*
G01*
X5875000Y-5930000D01*
G75*
G02*
X6025000Y-6080000I0J-150000D01*
G01*
X6025000Y-6380000D01*
G75*
G02*
X5875000Y-6530000I-150000J0D01*
G01*
X4225000Y-6530000D01*
G75*
G02*
X4075000Y-6380000I0J150000D01*
G01*
G37*
G36*
G01*
X4075000Y-7650000D02*
X4075000Y-7350000D01*
G75*
G02*
X4225000Y-7200000I150000J0D01*
G01*
X5875000Y-7200000D01*
G75*
G02*
X6025000Y-7350000I0J-150000D01*
G01*
X6025000Y-7650000D01*
G75*
G02*
X5875000Y-7800000I-150000J0D01*
G01*
X4225000Y-7800000D01*
G75*
G02*
X4075000Y-7650000I0J150000D01*
G01*
G37*
G36*
G01*
X9025000Y-7650000D02*
X9025000Y-7350000D01*
G75*
G02*
X9175000Y-7200000I150000J0D01*
G01*
X10825000Y-7200000D01*
G75*
G02*
X10975000Y-7350000I0J-150000D01*
G01*
X10975000Y-7650000D01*
G75*
G02*
X10825000Y-7800000I-150000J0D01*
G01*
X9175000Y-7800000D01*
G75*
G02*
X9025000Y-7650000I0J150000D01*
G01*
G37*
G36*
G01*
X9025000Y-6380000D02*
X9025000Y-6080000D01*
G75*
G02*
X9175000Y-5930000I150000J0D01*
G01*
X10825000Y-5930000D01*
G75*
G02*
X10975000Y-6080000I0J-150000D01*
G01*
X10975000Y-6380000D01*
G75*
G02*
X10825000Y-6530000I-150000J0D01*
G01*
X9175000Y-6530000D01*
G75*
G02*
X9025000Y-6380000I0J150000D01*
G01*
G37*
G36*
G01*
X9025000Y-5110000D02*
X9025000Y-4810000D01*
G75*
G02*
X9175000Y-4660000I150000J0D01*
G01*
X10825000Y-4660000D01*
G75*
G02*
X10975000Y-4810000I0J-150000D01*
G01*
X10975000Y-5110000D01*
G75*
G02*
X10825000Y-5260000I-150000J0D01*
G01*
X9175000Y-5260000D01*
G75*
G02*
X9025000Y-5110000I0J150000D01*
G01*
G37*
G36*
G01*
X9025000Y-3840000D02*
X9025000Y-3540000D01*
G75*
G02*
X9175000Y-3390000I150000J0D01*
G01*
X10825000Y-3390000D01*
G75*
G02*
X10975000Y-3540000I0J-150000D01*
G01*
X10975000Y-3840000D01*
G75*
G02*
X10825000Y-3990000I-150000J0D01*
G01*
X9175000Y-3990000D01*
G75*
G02*
X9025000Y-3840000I0J150000D01*
G01*
G37*
G04 #@! TD*
G04 #@! TO.C,U1*
G36*
G01*
X14575000Y-6380000D02*
X14575000Y-6080000D01*
G75*
G02*
X14725000Y-5930000I150000J0D01*
G01*
X16375000Y-5930000D01*
G75*
G02*
X16525000Y-6080000I0J-150000D01*
G01*
X16525000Y-6380000D01*
G75*
G02*
X16375000Y-6530000I-150000J0D01*
G01*
X14725000Y-6530000D01*
G75*
G02*
X14575000Y-6380000I0J150000D01*
G01*
G37*
G36*
G01*
X14575000Y-7650000D02*
X14575000Y-7350000D01*
G75*
G02*
X14725000Y-7200000I150000J0D01*
G01*
X16375000Y-7200000D01*
G75*
G02*
X16525000Y-7350000I0J-150000D01*
G01*
X16525000Y-7650000D01*
G75*
G02*
X16375000Y-7800000I-150000J0D01*
G01*
X14725000Y-7800000D01*
G75*
G02*
X14575000Y-7650000I0J150000D01*
G01*
G37*
G36*
G01*
X14575000Y-8920000D02*
X14575000Y-8620000D01*
G75*
G02*
X14725000Y-8470000I150000J0D01*
G01*
X16375000Y-8470000D01*
G75*
G02*
X16525000Y-8620000I0J-150000D01*
G01*
X16525000Y-8920000D01*
G75*
G02*
X16375000Y-9070000I-150000J0D01*
G01*
X14725000Y-9070000D01*
G75*
G02*
X14575000Y-8920000I0J150000D01*
G01*
G37*
G36*
G01*
X14575000Y-10190000D02*
X14575000Y-9890000D01*
G75*
G02*
X14725000Y-9740000I150000J0D01*
G01*
X16375000Y-9740000D01*
G75*
G02*
X16525000Y-9890000I0J-150000D01*
G01*
X16525000Y-10190000D01*
G75*
G02*
X16375000Y-10340000I-150000J0D01*
G01*
X14725000Y-10340000D01*
G75*
G02*
X14575000Y-10190000I0J150000D01*
G01*
G37*
G36*
G01*
X19525000Y-10190000D02*
X19525000Y-9890000D01*
G75*
G02*
X19675000Y-9740000I150000J0D01*
G01*
X21325000Y-9740000D01*
G75*
G02*
X21475000Y-9890000I0J-150000D01*
G01*
X21475000Y-10190000D01*
G75*
G02*
X21325000Y-10340000I-150000J0D01*
G01*
X19675000Y-10340000D01*
G75*
G02*
X19525000Y-10190000I0J150000D01*
G01*
G37*
G36*
G01*
X19525000Y-8920000D02*
X19525000Y-8620000D01*
G75*
G02*
X19675000Y-8470000I150000J0D01*
G01*
X21325000Y-8470000D01*
G75*
G02*
X21475000Y-8620000I0J-150000D01*
G01*
X21475000Y-8920000D01*
G75*
G02*
X21325000Y-9070000I-150000J0D01*
G01*
X19675000Y-9070000D01*
G75*
G02*
X19525000Y-8920000I0J150000D01*
G01*
G37*
G36*
G01*
X19525000Y-7650000D02*
X19525000Y-7350000D01*
G75*
G02*
X19675000Y-7200000I150000J0D01*
G01*
X21325000Y-7200000D01*
G75*
G02*
X21475000Y-7350000I0J-150000D01*
G01*
X21475000Y-7650000D01*
G75*
G02*
X21325000Y-7800000I-150000J0D01*
G01*
X19675000Y-7800000D01*
G75*
G02*
X19525000Y-7650000I0J150000D01*
G01*
G37*
G36*
G01*
X19525000Y-6380000D02*
X19525000Y-6080000D01*
G75*
G02*
X19675000Y-5930000I150000J0D01*
G01*
X21325000Y-5930000D01*
G75*
G02*
X21475000Y-6080000I0J-150000D01*
G01*
X21475000Y-6380000D01*
G75*
G02*
X21325000Y-6530000I-150000J0D01*
G01*
X19675000Y-6530000D01*
G75*
G02*
X19525000Y-6380000I0J150000D01*
G01*
G37*
G04 #@! TD*
M02*
