G04 #@! TF.GenerationSoftware,KiCad,Pcbnew,8.0.9-8.0.9-0~ubuntu24.04.1*
G04 #@! TF.CreationDate,2025-11-26T22:56:42+00:00*
G04 #@! TF.ProjectId,greenenergyecu,67726565-6e65-46e6-9572-67796563752e,rev?*
G04 #@! TF.SameCoordinates,Original*
G04 #@! TF.FileFunction,Copper,L1,Top*
G04 #@! TF.FilePolarity,Positive*
%FSLAX46Y46*%
G04 Gerber Fmt 4.6, Leading zero omitted, Abs format (unit mm)*
G04 Created by KiCad (PCBNEW 8.0.9-8.0.9-0~ubuntu24.04.1) date 2025-11-26 22:56:42*
%MOMM*%
%LPD*%
G01*
G04 APERTURE LIST*
G04 #@! TA.AperFunction,ViaPad*
%ADD10C,0.600000*%
G04 #@! TD*
G04 #@! TA.AperFunction,Conductor*
%ADD11C,0.200000*%
G04 #@! TD*
G04 APERTURE END LIST*
G04 #@! TO.P,U2,1,GND*
G04 #@! TO.N,Net-(U1-Q)*
G04 #@! TA.AperFunction,SMDPad,CuDef*
G36*
G01*
X4075000Y-3840000D02*
X4075000Y-3540000D01*
G75*
G02*
X4225000Y-3390000I150000J0D01*
G01*
X5875000Y-3390000D01*
G75*
G02*
X6025000Y-3540000I0J-150000D01*
G01*
X6025000Y-3840000D01*
G75*
G02*
X5875000Y-3990000I-150000J0D01*
G01*
X4225000Y-3990000D01*
G75*
G02*
X4075000Y-3840000I0J150000D01*
G01*
G37*
G04 #@! TD.AperFunction*
G04 #@! TO.P,U2,2,TR*
G04 #@! TO.N,Net-(U2-TR)*
G04 #@! TA.AperFunction,SMDPad,CuDef*
G36*
G01*
X4075000Y-5110000D02*
X4075000Y-4810000D01*
G75*
G02*
X4225000Y-4660000I150000J0D01*
G01*
X5875000Y-4660000D01*
G75*
G02*
X6025000Y-4810000I0J-150000D01*
G01*
X6025000Y-5110000D01*
G75*
G02*
X5875000Y-5260000I-150000J0D01*
G01*
X4225000Y-5260000D01*
G75*
G02*
X4075000Y-5110000I0J150000D01*
G01*
G37*
G04 #@! TD.AperFunction*
G04 #@! TO.P,U2,3,Q*
G04 #@! TO.N,unconnected-(U2-Q-Pad3)*
G04 #@! TA.AperFunction,SMDPad,CuDef*
G36*
G01*
X4075000Y-6380000D02*
X4075000Y-6080000D01*
G75*
G02*
X4225000Y-5930000I150000J0D01*
G01*
X5875000Y-5930000D01*
G75*
G02*
X6025000Y-6080000I0J-150000D01*
G01*
X6025000Y-6380000D01*
G75*
G02*
X5875000Y-6530000I-150000J0D01*
G01*
X4225000Y-6530000D01*
G75*
G02*
X4075000Y-6380000I0J150000D01*
G01*
G37*
G04 #@! TD.AperFunction*
G04 #@! TO.P,U2,4,R*
G04 #@! TO.N,unconnected-(U2-R-Pad4)*
G04 #@! TA.AperFunction,SMDPad,CuDef*
G36*
G01*
X4075000Y-7650000D02*
X4075000Y-7350000D01*
G75*
G02*
X4225000Y-7200000I150000J0D01*
G01*
X5875000Y-7200000D01*
G75*
G02*
X6025000Y-7350000I0J-150000D01*
G01*
X6025000Y-7650000D01*
G75*
G02*
X5875000Y-7800000I-150000J0D01*
G01*
X4225000Y-7800000D01*
G75*
G02*
X4075000Y-7650000I0J150000D01*
G01*
G37*
G04 #@! TD.AperFunction*
G04 #@! TO.P,U2,5,CV*
G04 #@! TO.N,unconnected-(U2-CV-Pad5)*
G04 #@! TA.AperFunction,SMDPad,CuDef*
G36*
G01*
X9025000Y-7650000D02*
X9025000Y-7350000D01*
G75*
G02*
X9175000Y-7200000I150000J0D01*
G01*
X10825000Y-7200000D01*
G75*
G02*
X10975000Y-7350000I0J-150000D01*
G01*
X10975000Y-7650000D01*
G75*
G02*
X10825000Y-7800000I-150000J0D01*
G01*
X9175000Y-7800000D01*
G75*
G02*
X9025000Y-7650000I0J150000D01*
G01*
G37*
G04 #@! TD.AperFunction*
G04 #@! TO.P,U2,6,THR*
G04 #@! TO.N,Net-(U1-DIS)*
G04 #@! TA.AperFunction,SMDPad,CuDef*
G36*
G01*
X9025000Y-6380000D02*
X9025000Y-6080000D01*
G75*
G02*
X9175000Y-5930000I150000J0D01*
G01*
X10825000Y-5930000D01*
G75*
G02*
X10975000Y-6080000I0J-150000D01*
G01*
X10975000Y-6380000D01*
G75*
G02*
X10825000Y-6530000I-150000J0D01*
G01*
X9175000Y-6530000D01*
G75*
G02*
X9025000Y-6380000I0J150000D01*
G01*
G37*
G04 #@! TD.AperFunction*
G04 #@! TO.P,U2,7,DIS*
G04 #@! TO.N,unconnected-(U2-DIS-Pad7)*
G04 #@! TA.AperFunction,SMDPad,CuDef*
G36*
G01*
X9025000Y-5110000D02*
X9025000Y-4810000D01*
G75*
G02*
X9175000Y-4660000I150000J0D01*
G01*
X10825000Y-4660000D01*
G75*
G02*
X10975000Y-4810000I0J-150000D01*
G01*
X10975000Y-5110000D01*
G75*
G02*
X10825000Y-5260000I-150000J0D01*
G01*
X9175000Y-5260000D01*
G75*
G02*
X9025000Y-5110000I0J150000D01*
G01*
G37*
G04 #@! TD.AperFunction*
G04 #@! TO.P,U2,8,VCC*
G04 #@! TO.N,Net-(U2-TR)*
G04 #@! TA.AperFunction,SMDPad,CuDef*
G36*
G01*
X9025000Y-3840000D02*
X9025000Y-3540000D01*
G75*
G02*
X9175000Y-3390000I150000J0D01*
G01*
X10825000Y-3390000D01*
G75*
G02*
X10975000Y-3540000I0J-150000D01*
G01*
X10975000Y-3840000D01*
G75*
G02*
X10825000Y-3990000I-150000J0D01*
G01*
X9175000Y-3990000D01*
G75*
G02*
X9025000Y-3840000I0J150000D01*
G01*
G37*
G04 #@! TD.AperFunction*
G04 #@! TD*
G04 #@! TO.P,U1,1,GND*
G04 #@! TO.N,unconnected-(U1-GND-Pad1)*
G04 #@! TA.AperFunction,SMDPad,CuDef*
G36*
G01*
X14575000Y-6380000D02*
X14575000Y-6080000D01*
G75*
G02*
X14725000Y-5930000I150000J0D01*
G01*
X16375000Y-5930000D01*
G75*
G02*
X16525000Y-6080000I0J-150000D01*
G01*
X16525000Y-6380000D01*
G75*
G02*
X16375000Y-6530000I-150000J0D01*
G01*
X14725000Y-6530000D01*
G75*
G02*
X14575000Y-6380000I0J150000D01*
G01*
G37*
G04 #@! TD.AperFunction*
G04 #@! TO.P,U1,2,TR*
G04 #@! TO.N,Net-(U1-TR)*
G04 #@! TA.AperFunction,SMDPad,CuDef*
G36*
G01*
X14575000Y-7650000D02*
X14575000Y-7350000D01*
G75*
G02*
X14725000Y-7200000I150000J0D01*
G01*
X16375000Y-7200000D01*
G75*
G02*
X16525000Y-7350000I0J-150000D01*
G01*
X16525000Y-7650000D01*
G75*
G02*
X16375000Y-7800000I-150000J0D01*
G01*
X14725000Y-7800000D01*
G75*
G02*
X14575000Y-7650000I0J150000D01*
G01*
G37*
G04 #@! TD.AperFunction*
G04 #@! TO.P,U1,3,Q*
G04 #@! TO.N,Net-(U1-Q)*
G04 #@! TA.AperFunction,SMDPad,CuDef*
G36*
G01*
X14575000Y-8920000D02*
X14575000Y-8620000D01*
G75*
G02*
X14725000Y-8470000I150000J0D01*
G01*
X16375000Y-8470000D01*
G75*
G02*
X16525000Y-8620000I0J-150000D01*
G01*
X16525000Y-8920000D01*
G75*
G02*
X16375000Y-9070000I-150000J0D01*
G01*
X14725000Y-9070000D01*
G75*
G02*
X14575000Y-8920000I0J150000D01*
G01*
G37*
G04 #@! TD.AperFunction*
G04 #@! TO.P,U1,4,R*
G04 #@! TO.N,unconnected-(U1-R-Pad4)*
G04 #@! TA.AperFunction,SMDPad,CuDef*
G36*
G01*
X14575000Y-10190000D02*
X14575000Y-9890000D01*
G75*
G02*
X14725000Y-9740000I150000J0D01*
G01*
X16375000Y-9740000D01*
G75*
G02*
X16525000Y-9890000I0J-150000D01*
G01*
X16525000Y-10190000D01*
G75*
G02*
X16375000Y-10340000I-150000J0D01*
G01*
X14725000Y-10340000D01*
G75*
G02*
X14575000Y-10190000I0J150000D01*
G01*
G37*
G04 #@! TD.AperFunction*
G04 #@! TO.P,U1,5,CV*
G04 #@! TO.N,unconnected-(U1-CV-Pad5)*
G04 #@! TA.AperFunction,SMDPad,CuDef*
G36*
G01*
X19525000Y-10190000D02*
X19525000Y-9890000D01*
G75*
G02*
X19675000Y-9740000I150000J0D01*
G01*
X21325000Y-9740000D01*
G75*
G02*
X21475000Y-9890000I0J-150000D01*
G01*
X21475000Y-10190000D01*
G75*
G02*
X21325000Y-10340000I-150000J0D01*
G01*
X19675000Y-10340000D01*
G75*
G02*
X19525000Y-10190000I0J150000D01*
G01*
G37*
G04 #@! TD.AperFunction*
G04 #@! TO.P,U1,6,THR*
G04 #@! TO.N,unconnected-(U1-THR-Pad6)*
G04 #@! TA.AperFunction,SMDPad,CuDef*
G36*
G01*
X19525000Y-8920000D02*
X19525000Y-8620000D01*
G75*
G02*
X19675000Y-8470000I150000J0D01*
G01*
X21325000Y-8470000D01*
G75*
G02*
X21475000Y-8620000I0J-150000D01*
G01*
X21475000Y-8920000D01*
G75*
G02*
X21325000Y-9070000I-150000J0D01*
G01*
X19675000Y-9070000D01*
G75*
G02*
X19525000Y-8920000I0J150000D01*
G01*
G37*
G04 #@! TD.AperFunction*
G04 #@! TO.P,U1,7,DIS*
G04 #@! TO.N,Net-(U1-DIS)*
G04 #@! TA.AperFunction,SMDPad,CuDef*
G36*
G01*
X19525000Y-7650000D02*
X19525000Y-7350000D01*
G75*
G02*
X19675000Y-7200000I150000J0D01*
G01*
X21325000Y-7200000D01*
G75*
G02*
X21475000Y-7350000I0J-150000D01*
G01*
X21475000Y-7650000D01*
G75*
G02*
X21325000Y-7800000I-150000J0D01*
G01*
X19675000Y-7800000D01*
G75*
G02*
X19525000Y-7650000I0J150000D01*
G01*
G37*
G04 #@! TD.AperFunction*
G04 #@! TO.P,U1,8,VCC*
G04 #@! TO.N,Net-(U1-TR)*
G04 #@! TA.AperFunction,SMDPad,CuDef*
G36*
G01*
X19525000Y-6380000D02*
X19525000Y-6080000D01*
G75*
G02*
X19675000Y-5930000I150000J0D01*
G01*
X21325000Y-5930000D01*
G75*
G02*
X21475000Y-6080000I0J-150000D01*
G01*
X21475000Y-6380000D01*
G75*
G02*
X21325000Y-6530000I-150000J0D01*
G01*
X19675000Y-6530000D01*
G75*
G02*
X19525000Y-6380000I0J150000D01*
G01*
G37*
G04 #@! TD.AperFunction*
G04 #@! TD*
D10*
G04 #@! TO.N,*
X0Y-40000D03*
X-1000000Y960000D03*
X500000Y-18040000D03*
X32000000Y-18040000D03*
X32000000Y-540000D03*
G04 #@! TD*
D11*
G04 #@! TO.N,Net-(U1-DIS)*
X10000000Y-6230000D02*
X10974999Y-6230000D01*
X13500000Y-3704999D02*
X13500000Y-3000000D01*
X10974999Y-6230000D02*
X13500000Y-3704999D01*
X13500000Y-3000000D02*
X23000000Y-3000000D01*
X23000000Y-3000000D02*
X23000000Y-6500000D01*
X23000000Y-6500000D02*
X22000000Y-7500000D01*
X22000000Y-7500000D02*
X20500000Y-7500000D01*
G04 #@! TO.N,Net-(U1-Q)*
X8000000Y-8500000D02*
X8500000Y-9000000D01*
X5050000Y-3690000D02*
X6024999Y-3690000D01*
X8500000Y-9000000D02*
X11000000Y-9000000D01*
X8000000Y-5665001D02*
X8000000Y-8500000D01*
X11000000Y-9000000D02*
X11230000Y-8770000D01*
X6024999Y-3690000D02*
X8000000Y-5665001D01*
X11230000Y-8770000D02*
X15550000Y-8770000D01*
G04 #@! TO.N,Net-(U1-TR)*
X15550000Y-7500000D02*
X16524999Y-7500000D01*
X22500000Y-6040000D02*
X22310000Y-6230000D01*
X19484999Y-4540000D02*
X22500000Y-4540000D01*
X22500000Y-4540000D02*
X22500000Y-6040000D01*
X16524999Y-7500000D02*
X19484999Y-4540000D01*
X22310000Y-6230000D02*
X20500000Y-6230000D01*
G04 #@! TO.N,Net-(U2-TR)*
X5050000Y-4960000D02*
X4075001Y-4960000D01*
X3500000Y-4384999D02*
X3500000Y-2500000D01*
X3500000Y-2500000D02*
X10000000Y-2500000D01*
X10000000Y-2500000D02*
X10000000Y-3690000D01*
X10000000Y-2500000D02*
X10500000Y-2000000D01*
X4075001Y-4960000D02*
X3500000Y-4384999D01*
G04 #@! TD*
M02*
