G04 #@! TF.GenerationSoftware,KiCad,Pcbnew,8.0.9-8.0.9-0~ubuntu24.04.1*
G04 #@! TF.CreationDate,2025-11-28T20:23:02+00:00*
G04 #@! TF.ProjectId,greenenergyecu,67726565-6e65-46e6-9572-67796563752e,rev?*
G04 #@! TF.SameCoordinates,Original*
G04 #@! TF.FileFunction,Copper,L1,Top*
G04 #@! TF.FilePolarity,Positive*
%FSLAX46Y46*%
G04 Gerber Fmt 4.6, Leading zero omitted, Abs format (unit mm)*
G04 Created by KiCad (PCBNEW 8.0.9-8.0.9-0~ubuntu24.04.1) date 2025-11-28 20:23:02*
%MOMM*%
%LPD*%
G01*
G04 APERTURE LIST*
G04 #@! TA.AperFunction,ComponentPad*
%ADD10C,0.600000*%
G04 #@! TD*
G04 #@! TA.AperFunction,SMDPad,CuDef*
%ADD11O,0.200000X1.225000*%
G04 #@! TD*
G04 #@! TA.AperFunction,SMDPad,CuDef*
%ADD12O,9.300000X0.200000*%
G04 #@! TD*
G04 #@! TA.AperFunction,SMDPad,CuDef*
%ADD13O,0.500000X0.250000*%
G04 #@! TD*
G04 #@! TA.AperFunction,SMDPad,CuDef*
%ADD14O,0.200000X1.000000*%
G04 #@! TD*
G04 #@! TA.AperFunction,SMDPad,CuDef*
%ADD15O,5.200000X0.200000*%
G04 #@! TD*
G04 #@! TA.AperFunction,SMDPad,CuDef*
%ADD16O,17.600000X0.200000*%
G04 #@! TD*
G04 #@! TA.AperFunction,SMDPad,CuDef*
%ADD17O,12.800000X0.200000*%
G04 #@! TD*
G04 #@! TA.AperFunction,SMDPad,CuDef*
%ADD18O,0.250000X0.500000*%
G04 #@! TD*
G04 #@! TA.AperFunction,SMDPad,CuDef*
%ADD19R,0.250000X6.185000*%
G04 #@! TD*
G04 #@! TA.AperFunction,SMDPad,CuDef*
%ADD20R,0.250000X1.115000*%
G04 #@! TD*
G04 #@! TA.AperFunction,SMDPad,CuDef*
%ADD21R,14.275000X0.250000*%
G04 #@! TD*
G04 #@! TA.AperFunction,SMDPad,CuDef*
%ADD22R,15.100000X0.250000*%
G04 #@! TD*
G04 #@! TA.AperFunction,SMDPad,CuDef*
%ADD23R,0.250000X5.175000*%
G04 #@! TD*
G04 #@! TA.AperFunction,ViaPad*
%ADD24C,0.600000*%
G04 #@! TD*
G04 #@! TA.AperFunction,Conductor*
%ADD25C,0.200000*%
G04 #@! TD*
G04 APERTURE END LIST*
D10*
G04 #@! TO.P,M2,E1,V5A*
G04 #@! TO.N,unconnected-(M2-V5A-PadE1)*
X30850000Y17400000D03*
D11*
G04 #@! TO.P,M2,E2,GND*
G04 #@! TO.N,unconnected-(M2-GND-PadE2)*
X21950000Y15425000D03*
D12*
X26500000Y18000000D03*
X26500000Y14900000D03*
D10*
X30850000Y16450000D03*
G04 #@! TO.P,M2,E3,OUT_KNOCK*
G04 #@! TO.N,Net-(M2-OUT_KNOCK)*
X30850000Y15500002D03*
G04 #@! TO.P,M2,W1,IN_KNOCK*
G04 #@! TO.N,Net-(M1-OUT)*
X22150000Y16500000D03*
G04 #@! TO.P,M2,W2,VREF*
G04 #@! TO.N,unconnected-(M2-VREF-PadW2)*
X22150000Y17400000D03*
G04 #@! TD*
D13*
G04 #@! TO.P,M3,E1,IN_VR1-*
G04 #@! TO.N,unconnected-(M3-IN_VR1--PadE1)*
X31699999Y7025000D03*
G04 #@! TO.P,M3,E2,IN_VR1+*
G04 #@! TO.N,Net-(M2-OUT_KNOCK)*
X31699999Y5299998D03*
G04 #@! TO.P,M3,E3,IN_VR2+*
G04 #@! TO.N,unconnected-(M3-IN_VR2+-PadE3)*
X31699999Y3574998D03*
G04 #@! TO.P,M3,E4,IN_VR2-*
G04 #@! TO.N,unconnected-(M3-IN_VR2--PadE4)*
X31699999Y1875000D03*
D14*
G04 #@! TO.P,M3,G,GND*
G04 #@! TO.N,unconnected-(M3-GND-PadG)*
X12667774Y1314012D03*
D15*
X15504580Y8618506D03*
D16*
X21377182Y846649D03*
D17*
X25250002Y8625000D03*
D18*
G04 #@! TO.P,M3,N1,V5*
G04 #@! TO.N,unconnected-(M3-V5-PadN1)*
X18500000Y8500000D03*
D13*
G04 #@! TO.P,M3,W1,OUT_VR2*
G04 #@! TO.N,unconnected-(M3-OUT_VR2-PadW1)*
X12744126Y2478602D03*
G04 #@! TO.P,M3,W2,OUT_VR1*
G04 #@! TO.N,unconnected-(M3-OUT_VR1-PadW2)*
X12749998Y6100000D03*
G04 #@! TD*
D10*
G04 #@! TO.P,M1,E1,Thresh_IN*
G04 #@! TO.N,unconnected-(M1-Thresh_IN-PadE1)*
X17137500Y16800000D03*
G04 #@! TO.P,M1,E2,OUT_A*
G04 #@! TO.N,unconnected-(M1-OUT_A-PadE2)*
X17137500Y15600000D03*
G04 #@! TO.P,M1,E3,OUT*
G04 #@! TO.N,Net-(M1-OUT)*
X17137500Y18000000D03*
G04 #@! TO.P,M1,E4,V5_IN*
G04 #@! TO.N,unconnected-(M1-V5_IN-PadE4)*
X17137500Y19200000D03*
D19*
G04 #@! TO.P,M1,G,GND*
G04 #@! TO.N,unconnected-(M1-GND-PadG)*
X2487500Y16532500D03*
D20*
X2487500Y10482500D03*
D21*
X9500000Y19500000D03*
D22*
X9912500Y10050000D03*
D23*
X17337500Y12512500D03*
D10*
G04 #@! TO.P,M1,W1,VR-*
G04 #@! TO.N,unconnected-(M1-VR--PadW1)*
X2712500Y12740000D03*
G04 #@! TO.P,M1,W2,VR+*
G04 #@! TO.N,unconnected-(M1-VR+-PadW2)*
X2712500Y11740000D03*
G04 #@! TD*
D24*
G04 #@! TO.N,*
X1000000Y19500000D03*
X0Y20500000D03*
X1500000Y1500000D03*
X33000000Y1500000D03*
X33000000Y19000000D03*
G04 #@! TD*
D25*
G04 #@! TO.N,Net-(M2-OUT_KNOCK)*
X32799998Y5299998D02*
X31699999Y5299998D01*
X33000000Y13774266D02*
X33000000Y5500000D01*
X30850000Y15500002D02*
X31274264Y15500002D01*
X31274264Y15500002D02*
X33000000Y13774266D01*
X33000000Y5500000D02*
X32799998Y5299998D01*
G04 #@! TO.N,Net-(M1-OUT)*
X19500000Y16500000D02*
X22150000Y16500000D01*
X17137500Y18000000D02*
X18000000Y18000000D01*
X18000000Y18000000D02*
X19500000Y16500000D01*
G04 #@! TD*
M02*
