G04 #@! TF.GenerationSoftware,KiCad,Pcbnew,8.0.9-8.0.9-0~ubuntu24.04.1*
G04 #@! TF.CreationDate,2026-01-21T19:34:29+00:00*
G04 #@! TF.ProjectId,greenenergyecu,67726565-6e65-46e6-9572-67796563752e,rev?*
G04 #@! TF.SameCoordinates,Original*
G04 #@! TF.FileFunction,Copper,L1,Top*
G04 #@! TF.FilePolarity,Positive*
%FSLAX46Y46*%
G04 Gerber Fmt 4.6, Leading zero omitted, Abs format (unit mm)*
G04 Created by KiCad (PCBNEW 8.0.9-8.0.9-0~ubuntu24.04.1) date 2026-01-21 19:34:29*
%MOMM*%
%LPD*%
G01*
G04 APERTURE LIST*
G04 #@! TA.AperFunction,SMDPad,CuDef*
%ADD10R,4.400000X0.200000*%
G04 #@! TD*
G04 #@! TA.AperFunction,SMDPad,CuDef*
%ADD11R,0.200000X1.200000*%
G04 #@! TD*
G04 #@! TA.AperFunction,SMDPad,CuDef*
%ADD12R,0.200000X6.800000*%
G04 #@! TD*
G04 #@! TA.AperFunction,SMDPad,CuDef*
%ADD13R,0.200000X4.000000*%
G04 #@! TD*
G04 #@! TA.AperFunction,SMDPad,CuDef*
%ADD14R,0.200000X1.800000*%
G04 #@! TD*
G04 #@! TA.AperFunction,SMDPad,CuDef*
%ADD15R,10.000000X0.200000*%
G04 #@! TD*
G04 #@! TA.AperFunction,ComponentPad*
%ADD16C,0.600000*%
G04 #@! TD*
G04 #@! TA.AperFunction,ComponentPad*
%ADD17C,1.000000*%
G04 #@! TD*
G04 #@! TA.AperFunction,SMDPad,CuDef*
%ADD18O,0.200000X1.225000*%
G04 #@! TD*
G04 #@! TA.AperFunction,SMDPad,CuDef*
%ADD19O,9.300000X0.200000*%
G04 #@! TD*
G04 #@! TA.AperFunction,SMDPad,CuDef*
%ADD20O,0.500000X0.250000*%
G04 #@! TD*
G04 #@! TA.AperFunction,SMDPad,CuDef*
%ADD21O,0.200000X1.000000*%
G04 #@! TD*
G04 #@! TA.AperFunction,SMDPad,CuDef*
%ADD22O,5.200000X0.200000*%
G04 #@! TD*
G04 #@! TA.AperFunction,SMDPad,CuDef*
%ADD23O,17.600000X0.200000*%
G04 #@! TD*
G04 #@! TA.AperFunction,SMDPad,CuDef*
%ADD24O,12.800000X0.200000*%
G04 #@! TD*
G04 #@! TA.AperFunction,SMDPad,CuDef*
%ADD25O,0.250000X0.500000*%
G04 #@! TD*
G04 #@! TA.AperFunction,SMDPad,CuDef*
%ADD26R,0.250000X6.185000*%
G04 #@! TD*
G04 #@! TA.AperFunction,SMDPad,CuDef*
%ADD27R,0.250000X1.115000*%
G04 #@! TD*
G04 #@! TA.AperFunction,SMDPad,CuDef*
%ADD28R,14.275000X0.250000*%
G04 #@! TD*
G04 #@! TA.AperFunction,SMDPad,CuDef*
%ADD29R,15.100000X0.250000*%
G04 #@! TD*
G04 #@! TA.AperFunction,SMDPad,CuDef*
%ADD30R,0.250000X5.175000*%
G04 #@! TD*
G04 #@! TA.AperFunction,ViaPad*
%ADD31C,0.600000*%
G04 #@! TD*
G04 #@! TA.AperFunction,Conductor*
%ADD32C,0.200000*%
G04 #@! TD*
G04 APERTURE END LIST*
D10*
G04 #@! TO.P,M4,G,GND*
G04 #@! TO.N,unconnected-(M4-GND-PadG)*
X12305000Y34645000D03*
D11*
X10205000Y34145000D03*
D12*
X20005000Y29745000D03*
X10205000Y27545000D03*
D13*
X20005000Y22945000D03*
D14*
X10205000Y21845000D03*
D15*
X15105000Y21045000D03*
D16*
G04 #@! TO.P,M4,N1,MOSI*
G04 #@! TO.N,unconnected-(M4-MOSI-PadN1)*
X19805000Y33645000D03*
D17*
G04 #@! TO.P,M4,N2,12V_IN*
G04 #@! TO.N,unconnected-(M4-12V_IN-PadN2)*
X19605000Y25645000D03*
G04 #@! TO.P,M4,S1,12V_IN*
G04 #@! TO.N,unconnected-(M4-12V_IN-PadS1)*
X10605000Y32845000D03*
G04 #@! TO.P,M4,S2,OUT-*
G04 #@! TO.N,unconnected-(M4-OUT--PadS2)*
X10605000Y31645000D03*
G04 #@! TO.P,M4,S3,OUT+*
G04 #@! TO.N,unconnected-(M4-OUT+-PadS3)*
X10605000Y23445000D03*
D16*
G04 #@! TO.P,M4,W1,DIS*
G04 #@! TO.N,unconnected-(M4-DIS-PadW1)*
X19805000Y34445000D03*
G04 #@! TO.P,M4,W2,PWM*
G04 #@! TO.N,unconnected-(M4-PWM-PadW2)*
X19005000Y34445000D03*
G04 #@! TO.P,M4,W3,SCLK*
G04 #@! TO.N,unconnected-(M4-SCLK-PadW3)*
X18205000Y34445000D03*
G04 #@! TO.P,M4,W4,DIR*
G04 #@! TO.N,unconnected-(M4-DIR-PadW4)*
X17405000Y34445000D03*
G04 #@! TO.P,M4,W5,3V3_IN*
G04 #@! TO.N,unconnected-(M4-3V3_IN-PadW5)*
X16605000Y34445000D03*
G04 #@! TO.P,M4,W6,MISO*
G04 #@! TO.N,unconnected-(M4-MISO-PadW6)*
X15805000Y34445000D03*
G04 #@! TO.P,M4,W7,~CS*
G04 #@! TO.N,unconnected-(M4-~CS-PadW7)*
X15005000Y34445000D03*
G04 #@! TD*
G04 #@! TO.P,M2,E1,V5A*
G04 #@! TO.N,unconnected-(M2-V5A-PadE1)*
X30850000Y17400000D03*
D18*
G04 #@! TO.P,M2,E2,GND*
G04 #@! TO.N,unconnected-(M2-GND-PadE2)*
X21950000Y15425000D03*
D19*
X26500000Y18000000D03*
X26500000Y14900000D03*
D16*
X30850000Y16450000D03*
G04 #@! TO.P,M2,E3,OUT_KNOCK*
G04 #@! TO.N,Net-(M2-OUT_KNOCK)*
X30850000Y15500002D03*
G04 #@! TO.P,M2,W1,IN_KNOCK*
G04 #@! TO.N,Net-(M1-OUT)*
X22150000Y16500000D03*
G04 #@! TO.P,M2,W2,VREF*
G04 #@! TO.N,unconnected-(M2-VREF-PadW2)*
X22150000Y17400000D03*
G04 #@! TD*
D20*
G04 #@! TO.P,M3,E1,IN_VR1-*
G04 #@! TO.N,unconnected-(M3-IN_VR1--PadE1)*
X19465873Y6526398D03*
G04 #@! TO.P,M3,E2,IN_VR1+*
G04 #@! TO.N,Net-(M2-OUT_KNOCK)*
X19465873Y4801396D03*
G04 #@! TO.P,M3,E3,IN_VR2+*
G04 #@! TO.N,unconnected-(M3-IN_VR2+-PadE3)*
X19465873Y3076396D03*
G04 #@! TO.P,M3,E4,IN_VR2-*
G04 #@! TO.N,unconnected-(M3-IN_VR2--PadE4)*
X19465873Y1376398D03*
D21*
G04 #@! TO.P,M3,G,GND*
G04 #@! TO.N,unconnected-(M3-GND-PadG)*
X433648Y815410D03*
D22*
X3270454Y8119904D03*
D23*
X9143056Y348047D03*
D24*
X13015876Y8126398D03*
D25*
G04 #@! TO.P,M3,N1,V5*
G04 #@! TO.N,unconnected-(M3-V5-PadN1)*
X6265874Y8001398D03*
D20*
G04 #@! TO.P,M3,W1,OUT_VR2*
G04 #@! TO.N,unconnected-(M3-OUT_VR2-PadW1)*
X510000Y1980000D03*
G04 #@! TO.P,M3,W2,OUT_VR1*
G04 #@! TO.N,unconnected-(M3-OUT_VR1-PadW2)*
X515872Y5601398D03*
G04 #@! TD*
D16*
G04 #@! TO.P,M1,E1,Thresh_IN*
G04 #@! TO.N,unconnected-(M1-Thresh_IN-PadE1)*
X17137500Y16800000D03*
G04 #@! TO.P,M1,E2,OUT_A*
G04 #@! TO.N,unconnected-(M1-OUT_A-PadE2)*
X17137500Y15600000D03*
G04 #@! TO.P,M1,E3,OUT*
G04 #@! TO.N,Net-(M1-OUT)*
X17137500Y18000000D03*
G04 #@! TO.P,M1,E4,V5_IN*
G04 #@! TO.N,unconnected-(M1-V5_IN-PadE4)*
X17137500Y19200000D03*
D26*
G04 #@! TO.P,M1,G,GND*
G04 #@! TO.N,unconnected-(M1-GND-PadG)*
X2487500Y16532500D03*
D27*
X2487500Y10482500D03*
D28*
X9500000Y19500000D03*
D29*
X9912500Y10050000D03*
D30*
X17337500Y12512500D03*
D16*
G04 #@! TO.P,M1,W1,VR-*
G04 #@! TO.N,unconnected-(M1-VR--PadW1)*
X2712500Y12740000D03*
G04 #@! TO.P,M1,W2,VR+*
G04 #@! TO.N,unconnected-(M1-VR+-PadW2)*
X2712500Y11740000D03*
G04 #@! TD*
D31*
G04 #@! TO.N,*
X33000000Y1500000D03*
X33000000Y19000000D03*
G04 #@! TD*
D32*
G04 #@! TO.N,Net-(M2-OUT_KNOCK)*
X32799998Y5299998D02*
X31699999Y5299998D01*
X33000000Y13774266D02*
X33000000Y5500000D01*
X30850000Y15500002D02*
X31274264Y15500002D01*
X31274264Y15500002D02*
X33000000Y13774266D01*
X33000000Y5500000D02*
X32799998Y5299998D01*
G04 #@! TO.N,Net-(M1-OUT)*
X19500000Y16500000D02*
X22150000Y16500000D01*
X17137500Y18000000D02*
X18000000Y18000000D01*
X18000000Y18000000D02*
X19500000Y16500000D01*
G04 #@! TD*
M02*
