G04 #@! TF.GenerationSoftware,KiCad,Pcbnew,8.0.9-8.0.9-0~ubuntu24.04.1*
G04 #@! TF.CreationDate,2026-01-21T20:10:39+00:00*
G04 #@! TF.ProjectId,greenenergyecu,67726565-6e65-46e6-9572-67796563752e,rev?*
G04 #@! TF.SameCoordinates,Original*
G04 #@! TF.FileFunction,Legend,Top*
G04 #@! TF.FilePolarity,Positive*
%FSLAX46Y46*%
G04 Gerber Fmt 4.6, Leading zero omitted, Abs format (unit mm)*
G04 Created by KiCad (PCBNEW 8.0.9-8.0.9-0~ubuntu24.04.1) date 2026-01-21 20:10:39*
%MOMM*%
%LPD*%
G01*
G04 APERTURE LIST*
%ADD10C,0.150000*%
%ADD11C,0.100000*%
%ADD12C,0.200000*%
G04 APERTURE END LIST*
D10*
X21991741Y18919429D02*
X21991741Y19519429D01*
X21991741Y19519429D02*
X22191741Y19090858D01*
X22191741Y19090858D02*
X22391741Y19519429D01*
X22391741Y19519429D02*
X22391741Y18919429D01*
X22648883Y19462286D02*
X22677455Y19490858D01*
X22677455Y19490858D02*
X22734598Y19519429D01*
X22734598Y19519429D02*
X22877455Y19519429D01*
X22877455Y19519429D02*
X22934598Y19490858D01*
X22934598Y19490858D02*
X22963169Y19462286D01*
X22963169Y19462286D02*
X22991740Y19405143D01*
X22991740Y19405143D02*
X22991740Y19348000D01*
X22991740Y19348000D02*
X22963169Y19262286D01*
X22963169Y19262286D02*
X22620312Y18919429D01*
X22620312Y18919429D02*
X22991740Y18919429D01*
G04 #@! TO.C,M4*
D11*
X23805000Y34745000D02*
X10105000Y34745000D01*
X10105000Y24845000D01*
X23805000Y24845000D01*
X23805000Y34745000D01*
D12*
G04 #@! TO.C,M2*
X21950000Y18000003D02*
X31050000Y18000003D01*
X21950000Y14900000D02*
X21950000Y15900002D01*
X21950000Y14900000D02*
X31050000Y14900000D01*
G04 #@! TO.C,M3*
X315873Y7961410D02*
X530861Y8176398D01*
X315873Y251398D02*
X315873Y7961410D01*
X315873Y251398D02*
X19440874Y251398D01*
X530861Y8176398D02*
X19340872Y8176398D01*
X19340872Y8176398D02*
X19665872Y7851398D01*
X19440874Y251398D02*
X19665872Y476396D01*
X19665872Y476396D02*
X19665872Y7851398D01*
G04 #@! TO.C,M1*
X2437500Y19600000D02*
X2437500Y13200000D01*
X2437500Y10000000D02*
X2437500Y11300000D01*
X2437500Y10000000D02*
X17437500Y10000000D01*
X16837500Y19600000D02*
X2437500Y19600000D01*
X17437500Y10000000D02*
X17437500Y15100000D01*
G04 #@! TD*
M02*
