G04 #@! TF.GenerationSoftware,KiCad,Pcbnew,8.0.9-8.0.9-0~ubuntu24.04.1*
G04 #@! TF.CreationDate,2026-01-23T01:34:04+00:00*
G04 #@! TF.ProjectId,greenenergyecu,67726565-6e65-46e6-9572-67796563752e,rev?*
G04 #@! TF.SameCoordinates,Original*
G04 #@! TF.FileFunction,Copper,L2,Bot*
G04 #@! TF.FilePolarity,Positive*
%FSLAX46Y46*%
G04 Gerber Fmt 4.6, Leading zero omitted, Abs format (unit mm)*
G04 Created by KiCad (PCBNEW 8.0.9-8.0.9-0~ubuntu24.04.1) date 2026-01-23 01:34:04*
%MOMM*%
%LPD*%
G01*
G04 APERTURE LIST*
G04 #@! TA.AperFunction,ComponentPad*
%ADD10C,2.000000*%
G04 #@! TD*
G04 #@! TA.AperFunction,ComponentPad*
%ADD11C,1.700000*%
G04 #@! TD*
G04 #@! TA.AperFunction,ComponentPad*
%ADD12O,1.850000X1.700000*%
G04 #@! TD*
G04 APERTURE END LIST*
D10*
G04 #@! TO.P,M5,A1,OUT_DC1-*
G04 #@! TO.N,unconnected-(M5-OUT_DC1--PadA1)*
X9350126Y25830000D03*
G04 #@! TO.P,M5,A2,OUT_DC2-*
G04 #@! TO.N,unconnected-(M5-OUT_DC2--PadA2)*
X9350126Y30030000D03*
G04 #@! TO.P,M5,A3,GND*
G04 #@! TO.N,unconnected-(M5-GND-PadA3)*
X9350126Y34230000D03*
D11*
X10850126Y35080000D03*
D10*
G04 #@! TO.P,M5,A4,GND*
G04 #@! TO.N,unconnected-(M5-GND-PadA4)*
X9350126Y38430000D03*
D11*
X10850126Y37620000D03*
D10*
G04 #@! TO.P,M5,A5,OUT_DC1+*
G04 #@! TO.N,unconnected-(M5-OUT_DC1+-PadA5)*
X14850126Y25830000D03*
G04 #@! TO.P,M5,A6,OUT_DC2+*
G04 #@! TO.N,unconnected-(M5-OUT_DC2+-PadA6)*
X14850126Y30030000D03*
D11*
G04 #@! TO.P,M5,A7,IN_VIGN*
G04 #@! TO.N,unconnected-(M5-IN_VIGN-PadA7)*
X13390126Y35080000D03*
D10*
X14850126Y34230000D03*
D11*
G04 #@! TO.P,M5,A8,IN_V_MAIN*
G04 #@! TO.N,unconnected-(M5-IN_V_MAIN-PadA8)*
X13390126Y37620000D03*
D10*
X14850126Y38430000D03*
G04 #@! TO.P,M5,B1,OUT_INJ6*
G04 #@! TO.N,unconnected-(M5-OUT_INJ6-PadB1)*
X9350126Y45230000D03*
G04 #@! TO.P,M5,B2,OUT_INJ5*
G04 #@! TO.N,unconnected-(M5-OUT_INJ5-PadB2)*
X9350126Y49430000D03*
D11*
X10850126Y50280000D03*
D10*
G04 #@! TO.P,M5,B3,OUT_INJ4*
G04 #@! TO.N,unconnected-(M5-OUT_INJ4-PadB3)*
X9350126Y53630000D03*
D11*
X10850126Y52820000D03*
D10*
G04 #@! TO.P,M5,B4,OUT_INJ3*
G04 #@! TO.N,unconnected-(M5-OUT_INJ3-PadB4)*
X9350126Y57830000D03*
D11*
X10850126Y58680000D03*
D10*
G04 #@! TO.P,M5,B5,OUT_INJ2*
G04 #@! TO.N,unconnected-(M5-OUT_INJ2-PadB5)*
X9350126Y62030000D03*
D11*
X10850126Y61220000D03*
D10*
G04 #@! TO.P,M5,B6,OUT_INJ1*
G04 #@! TO.N,unconnected-(M5-OUT_INJ1-PadB6)*
X9350126Y66230000D03*
D11*
X10850126Y67080000D03*
D10*
G04 #@! TO.P,M5,B7,OUT_LS1*
G04 #@! TO.N,unconnected-(M5-OUT_LS1-PadB7)*
X9350126Y70430000D03*
D11*
X10850126Y69620000D03*
D10*
G04 #@! TO.P,M5,B8,OUT_LS_HOT2*
G04 #@! TO.N,unconnected-(M5-OUT_LS_HOT2-PadB8)*
X9350126Y74630000D03*
D11*
X10850126Y75480000D03*
D10*
G04 #@! TO.P,M5,B9,OUT_LS_HOT1*
G04 #@! TO.N,unconnected-(M5-OUT_LS_HOT1-PadB9)*
X9350126Y78830000D03*
D11*
X10850126Y78020000D03*
D10*
G04 #@! TO.P,M5,B10,OUT_IGN6*
G04 #@! TO.N,unconnected-(M5-OUT_IGN6-PadB10)*
X14850126Y45230000D03*
D11*
G04 #@! TO.P,M5,B11,OUT_IGN4*
G04 #@! TO.N,unconnected-(M5-OUT_IGN4-PadB11)*
X13390126Y50280000D03*
D10*
X14850126Y49430000D03*
D11*
G04 #@! TO.P,M5,B12,OUT_IGN3*
G04 #@! TO.N,unconnected-(M5-OUT_IGN3-PadB12)*
X13390126Y52820000D03*
D10*
X14850126Y53630000D03*
D11*
G04 #@! TO.P,M5,B13,OUT_IGN5*
G04 #@! TO.N,unconnected-(M5-OUT_IGN5-PadB13)*
X13390126Y58680000D03*
D10*
X14850126Y57830000D03*
D11*
G04 #@! TO.P,M5,B14,OUT_IGN2*
G04 #@! TO.N,unconnected-(M5-OUT_IGN2-PadB14)*
X13390126Y61220000D03*
D10*
X14850126Y62030000D03*
D11*
G04 #@! TO.P,M5,B15,OUT_IGN1*
G04 #@! TO.N,unconnected-(M5-OUT_IGN1-PadB15)*
X13390126Y67080000D03*
D10*
X14850126Y66230000D03*
D11*
G04 #@! TO.P,M5,B16,OUT_LS4*
G04 #@! TO.N,unconnected-(M5-OUT_LS4-PadB16)*
X13390126Y69620000D03*
D10*
X14850126Y70430000D03*
D11*
G04 #@! TO.P,M5,B17,OUT_LS3*
G04 #@! TO.N,unconnected-(M5-OUT_LS3-PadB17)*
X13390126Y75480000D03*
D10*
X14850126Y74630000D03*
D11*
G04 #@! TO.P,M5,B18,OUT_LS2*
G04 #@! TO.N,unconnected-(M5-OUT_LS2-PadB18)*
X13390126Y78020000D03*
D10*
X14850126Y78830000D03*
G04 #@! TO.P,M5,C1,+5VP*
G04 #@! TO.N,unconnected-(M5-+5VP-PadC1)*
X10675126Y90755000D03*
D11*
X11525126Y89255000D03*
G04 #@! TO.P,M5,C2,+5VP*
G04 #@! TO.N,unconnected-(M5-+5VP-PadC2)*
X14065126Y89255000D03*
D10*
X14875126Y90755000D03*
G04 #@! TO.P,M5,C3,IN_AUX2*
G04 #@! TO.N,unconnected-(M5-IN_AUX2-PadC3)*
X19075126Y90755000D03*
D11*
X19925126Y89255000D03*
G04 #@! TO.P,M5,C4,IN_PPS2*
G04 #@! TO.N,unconnected-(M5-IN_PPS2-PadC4)*
X22465126Y89255000D03*
D10*
X23275126Y90755000D03*
G04 #@! TO.P,M5,C5,IN_HALL1*
G04 #@! TO.N,unconnected-(M5-IN_HALL1-PadC5)*
X27475126Y90755000D03*
D11*
X28325126Y89255000D03*
G04 #@! TO.P,M5,C6,IN_HALL2*
G04 #@! TO.N,unconnected-(M5-IN_HALL2-PadC6)*
X30865126Y89255000D03*
D10*
X31675126Y90755000D03*
G04 #@! TO.P,M5,C7,IN_HALL3*
G04 #@! TO.N,unconnected-(M5-IN_HALL3-PadC7)*
X35875126Y90755000D03*
D11*
X36725126Y89255000D03*
G04 #@! TO.P,M5,C8,GND*
G04 #@! TO.N,unconnected-(M5-GND-PadC8)*
X39265126Y89255000D03*
D10*
X40075126Y90755000D03*
G04 #@! TO.P,M5,C9,IN_BUTTON3*
G04 #@! TO.N,unconnected-(M5-IN_BUTTON3-PadC9)*
X44275126Y90755000D03*
G04 #@! TO.P,M5,C10,EGT+*
G04 #@! TO.N,unconnected-(M5-EGT+-PadC10)*
X48475126Y90755000D03*
G04 #@! TO.P,M5,C11,GNDA*
G04 #@! TO.N,unconnected-(M5-GNDA-PadC11)*
X10675126Y85255000D03*
D11*
X11525126Y86715000D03*
G04 #@! TO.P,M5,C12,GNDA*
G04 #@! TO.N,unconnected-(M5-GNDA-PadC12)*
X14065126Y86715000D03*
D10*
X14875126Y85255000D03*
G04 #@! TO.P,M5,C13,GNDA*
G04 #@! TO.N,unconnected-(M5-GNDA-PadC13)*
X19075126Y85255000D03*
D11*
X19925126Y86715000D03*
G04 #@! TO.P,M5,C14,IN_TPS2*
G04 #@! TO.N,unconnected-(M5-IN_TPS2-PadC14)*
X22465126Y86715000D03*
D10*
X23275126Y85255000D03*
G04 #@! TO.P,M5,C15,IN_AUX3*
G04 #@! TO.N,unconnected-(M5-IN_AUX3-PadC15)*
X27475126Y85255000D03*
D11*
X28325126Y86715000D03*
G04 #@! TO.P,M5,C16,VR_MAX9924+*
G04 #@! TO.N,unconnected-(M5-VR_MAX9924+-PadC16)*
X30865126Y86715000D03*
D10*
X31675126Y85255000D03*
G04 #@! TO.P,M5,C17,VR_MAX9924-*
G04 #@! TO.N,unconnected-(M5-VR_MAX9924--PadC17)*
X35875126Y85255000D03*
D11*
X36725126Y86715000D03*
G04 #@! TO.P,M5,C18,VR_DISCRETE+*
G04 #@! TO.N,unconnected-(M5-VR_DISCRETE+-PadC18)*
X39265126Y86715000D03*
D10*
X40075126Y85255000D03*
G04 #@! TO.P,M5,C19,VR_DISCRETE-*
G04 #@! TO.N,unconnected-(M5-VR_DISCRETE--PadC19)*
X44275126Y85255000D03*
G04 #@! TO.P,M5,C20,EGT-*
G04 #@! TO.N,unconnected-(M5-EGT--PadC20)*
X48475126Y85255000D03*
G04 #@! TO.P,M5,D1,IN_AUX1*
G04 #@! TO.N,unconnected-(M5-IN_AUX1-PadD1)*
X60375126Y90755000D03*
D11*
X61225126Y89255000D03*
G04 #@! TO.P,M5,D2,IN_BUTTON1*
G04 #@! TO.N,unconnected-(M5-IN_BUTTON1-PadD2)*
X63765126Y89255000D03*
D10*
X64575126Y90755000D03*
G04 #@! TO.P,M5,D3,+5VP*
G04 #@! TO.N,unconnected-(M5-+5VP-PadD3)*
X68775126Y90755000D03*
D11*
X69625126Y89255000D03*
G04 #@! TO.P,M5,D4,+5VP*
G04 #@! TO.N,unconnected-(M5-+5VP-PadD4)*
X72165126Y89255000D03*
D10*
X72975126Y90755000D03*
G04 #@! TO.P,M5,D5,IN_FLEX*
G04 #@! TO.N,unconnected-(M5-IN_FLEX-PadD5)*
X77175126Y90755000D03*
D11*
X78025126Y89255000D03*
G04 #@! TO.P,M5,D6,IN_PPS1*
G04 #@! TO.N,unconnected-(M5-IN_PPS1-PadD6)*
X80565126Y89255000D03*
D10*
X81375126Y90755000D03*
G04 #@! TO.P,M5,D7,CAN+*
G04 #@! TO.N,unconnected-(M5-CAN+-PadD7)*
X85575126Y90755000D03*
D11*
X86425126Y89255000D03*
G04 #@! TO.P,M5,D8,CAN-*
G04 #@! TO.N,unconnected-(M5-CAN--PadD8)*
X88965126Y89255000D03*
D10*
X89775126Y90755000D03*
G04 #@! TO.P,M5,D9,IN_MAP*
G04 #@! TO.N,unconnected-(M5-IN_MAP-PadD9)*
X60375126Y85255000D03*
D11*
X61225126Y86715000D03*
G04 #@! TO.P,M5,D10,IN_BUTTON2*
G04 #@! TO.N,unconnected-(M5-IN_BUTTON2-PadD10)*
X63765126Y86715000D03*
D10*
X64575126Y85255000D03*
G04 #@! TO.P,M5,D11,GNDA*
G04 #@! TO.N,unconnected-(M5-GNDA-PadD11)*
X68775126Y85255000D03*
D11*
X69625126Y86715000D03*
G04 #@! TO.P,M5,D12,GNDA*
G04 #@! TO.N,unconnected-(M5-GNDA-PadD12)*
X72165126Y86715000D03*
D10*
X72975126Y85255000D03*
G04 #@! TO.P,M5,D13,IN_TPS1*
G04 #@! TO.N,unconnected-(M5-IN_TPS1-PadD13)*
X77175126Y85255000D03*
D11*
X78025126Y86715000D03*
G04 #@! TO.P,M5,D14,IN_KNOCK_RAW*
G04 #@! TO.N,unconnected-(M5-IN_KNOCK_RAW-PadD14)*
X80565126Y86715000D03*
D10*
X81375126Y85255000D03*
G04 #@! TO.P,M5,D15,IN_IAT*
G04 #@! TO.N,unconnected-(M5-IN_IAT-PadD15)*
X85575126Y85255000D03*
D11*
X86425126Y86715000D03*
G04 #@! TO.P,M5,D16,IN_CLT*
G04 #@! TO.N,unconnected-(M5-IN_CLT-PadD16)*
X88965126Y86715000D03*
D10*
X89775126Y85255000D03*
D11*
G04 #@! TO.P,M5,E1,+12V_RAW*
G04 #@! TO.N,unconnected-(M5-+12V_RAW-PadE1)*
X89340126Y78420000D03*
D10*
X90800126Y79230000D03*
D11*
G04 #@! TO.P,M5,E2,WBO_Rtrim*
G04 #@! TO.N,unconnected-(M5-WBO_Rtrim-PadE2)*
X89340126Y75880000D03*
D10*
X90800126Y75030000D03*
G04 #@! TO.P,M5,E3,WBO_Heater*
G04 #@! TO.N,unconnected-(M5-WBO_Heater-PadE3)*
X90800126Y70830000D03*
G04 #@! TO.P,M5,E4,WBO_Un*
G04 #@! TO.N,unconnected-(M5-WBO_Un-PadE4)*
X85300126Y79230000D03*
D11*
X86800126Y78420000D03*
D10*
G04 #@! TO.P,M5,E5,WBO_Ip*
G04 #@! TO.N,unconnected-(M5-WBO_Ip-PadE5)*
X85300126Y75030000D03*
D11*
X86800126Y75880000D03*
D10*
G04 #@! TO.P,M5,E6,WBO_Vm*
G04 #@! TO.N,unconnected-(M5-WBO_Vm-PadE6)*
X85300126Y70830000D03*
G04 #@! TO.P,M5,J1,VBUS*
G04 #@! TO.N,unconnected-(M5-VBUS-PadJ1)*
G04 #@! TA.AperFunction,ComponentPad*
G36*
G01*
X83750126Y2180000D02*
X82400126Y2180000D01*
G75*
G02*
X82150126Y2430000I0J250000D01*
G01*
X82150126Y3630000D01*
G75*
G02*
X82400126Y3880000I250000J0D01*
G01*
X83750126Y3880000D01*
G75*
G02*
X84000126Y3630000I0J-250000D01*
G01*
X84000126Y2430000D01*
G75*
G02*
X83750126Y2180000I-250000J0D01*
G01*
G37*
G04 #@! TD.AperFunction*
D12*
G04 #@! TO.P,M5,J2,USB-*
G04 #@! TO.N,unconnected-(M5-USB--PadJ2)*
X83075126Y5530000D03*
G04 #@! TO.P,M5,J3,USB+*
G04 #@! TO.N,unconnected-(M5-USB+-PadJ3)*
X83075126Y8030000D03*
G04 #@! TO.P,M5,J4,GND*
G04 #@! TO.N,unconnected-(M5-GND-PadJ4)*
X83075126Y10530000D03*
G04 #@! TO.P,M5,J5,GND*
G04 #@! TO.N,unconnected-(M5-GND-PadJ5)*
X83075126Y13030000D03*
D11*
G04 #@! TO.P,M5,P3,LED_YELLOW*
G04 #@! TO.N,unconnected-(M5-LED_YELLOW-PadP3)*
X62575126Y2530000D03*
G04 #@! TO.P,M5,P4,LED_GREEN*
G04 #@! TO.N,unconnected-(M5-LED_GREEN-PadP4)*
X62575126Y7530000D03*
G04 #@! TO.P,M5,P7,Rx*
G04 #@! TO.N,unconnected-(M5-Rx-PadP7)*
X83275126Y24030000D03*
G04 #@! TO.P,M5,P8,Tx*
G04 #@! TO.N,unconnected-(M5-Tx-PadP8)*
X83275126Y19330000D03*
G04 #@! TO.P,M5,P15,DC1_DIR*
G04 #@! TO.N,unconnected-(M5-DC1_DIR-PadP15)*
X5615126Y11530000D03*
G04 #@! TO.P,M5,P16,DC2_DIR*
G04 #@! TO.N,unconnected-(M5-DC2_DIR-PadP16)*
X8155126Y11530000D03*
G04 #@! TO.P,M5,P17,DC1_PWM*
G04 #@! TO.N,unconnected-(M5-DC1_PWM-PadP17)*
X3075126Y11530000D03*
G04 #@! TO.P,M5,P18,DC2_PWM*
G04 #@! TO.N,unconnected-(M5-DC2_PWM-PadP18)*
X23075126Y11030000D03*
G04 #@! TD*
M02*
