G04 #@! TF.GenerationSoftware,KiCad,Pcbnew,8.0.9-8.0.9-0~ubuntu24.04.1*
G04 #@! TF.CreationDate,2026-01-23T01:34:04+00:00*
G04 #@! TF.ProjectId,greenenergyecu,67726565-6e65-46e6-9572-67796563752e,rev?*
G04 #@! TF.SameCoordinates,Original*
G04 #@! TF.FileFunction,Legend,Bot*
G04 #@! TF.FilePolarity,Positive*
%FSLAX46Y46*%
G04 Gerber Fmt 4.6, Leading zero omitted, Abs format (unit mm)*
G04 Created by KiCad (PCBNEW 8.0.9-8.0.9-0~ubuntu24.04.1) date 2026-01-23 01:34:04*
%MOMM*%
%LPD*%
G01*
G04 APERTURE LIST*
%ADD10C,0.100000*%
%ADD11C,0.120000*%
G04 APERTURE END LIST*
D10*
X68944708Y91854465D02*
X68405960Y92393213D01*
X68405960Y91854465D02*
X68944708Y92393213D01*
X68170258Y93504381D02*
X68506976Y93167664D01*
X68506976Y93167664D02*
X68203930Y92797274D01*
X68203930Y92797274D02*
X68203930Y92864618D01*
X68203930Y92864618D02*
X68170258Y92965633D01*
X68170258Y92965633D02*
X68001899Y93133992D01*
X68001899Y93133992D02*
X67900884Y93167664D01*
X67900884Y93167664D02*
X67833541Y93167664D01*
X67833541Y93167664D02*
X67732525Y93133992D01*
X67732525Y93133992D02*
X67564167Y92965633D01*
X67564167Y92965633D02*
X67530495Y92864618D01*
X67530495Y92864618D02*
X67530495Y92797274D01*
X67530495Y92797274D02*
X67564167Y92696259D01*
X67564167Y92696259D02*
X67732525Y92527900D01*
X67732525Y92527900D02*
X67833541Y92494229D01*
X67833541Y92494229D02*
X67900884Y92494229D01*
X67934556Y93740083D02*
X66991747Y93268679D01*
X66991747Y93268679D02*
X67463151Y94211488D01*
X66520342Y93740084D02*
X67227449Y94447190D01*
X67227449Y94447190D02*
X66958075Y94716564D01*
X66958075Y94716564D02*
X66857060Y94750236D01*
X66857060Y94750236D02*
X66789716Y94750236D01*
X66789716Y94750236D02*
X66688701Y94716564D01*
X66688701Y94716564D02*
X66587686Y94615549D01*
X66587686Y94615549D02*
X66554014Y94514534D01*
X66554014Y94514534D02*
X66554014Y94447190D01*
X66554014Y94447190D02*
X66587686Y94346175D01*
X66587686Y94346175D02*
X66857060Y94076801D01*
X84425334Y83335091D02*
X85132441Y84042198D01*
X84324319Y83840167D02*
X83987602Y84176885D01*
X84189632Y83570793D02*
X84661037Y84513602D01*
X84661037Y84513602D02*
X83718228Y84042198D01*
X84290647Y84883992D02*
X83886586Y85288053D01*
X83381510Y84378916D02*
X84088617Y85086022D01*
X60519685Y92143016D02*
X60182967Y92479734D01*
X60384998Y91873642D02*
X60856402Y92816451D01*
X60856402Y92816451D02*
X59913593Y92345047D01*
X60384997Y93287856D02*
X59812578Y92715436D01*
X59812578Y92715436D02*
X59711562Y92681764D01*
X59711562Y92681764D02*
X59644219Y92681764D01*
X59644219Y92681764D02*
X59543204Y92715436D01*
X59543204Y92715436D02*
X59408517Y92850123D01*
X59408517Y92850123D02*
X59374845Y92951138D01*
X59374845Y92951138D02*
X59374845Y93018482D01*
X59374845Y93018482D02*
X59408517Y93119497D01*
X59408517Y93119497D02*
X59980936Y93691917D01*
X59711562Y93961291D02*
X58533051Y93725589D01*
X59240158Y94432695D02*
X59004456Y93254184D01*
X57893288Y94365352D02*
X58297349Y93961291D01*
X58095318Y94163321D02*
X58802425Y94870428D01*
X58802425Y94870428D02*
X58768753Y94702069D01*
X58768753Y94702069D02*
X58768753Y94567382D01*
X58768753Y94567382D02*
X58802425Y94466367D01*
X40476573Y83037403D02*
X39533764Y82565998D01*
X39533764Y82565998D02*
X40005169Y83508808D01*
X38658299Y83441464D02*
X39230718Y83542479D01*
X39062360Y83037403D02*
X39769466Y83744510D01*
X39769466Y83744510D02*
X39500092Y84013884D01*
X39500092Y84013884D02*
X39399077Y84047556D01*
X39399077Y84047556D02*
X39331734Y84047556D01*
X39331734Y84047556D02*
X39230718Y84013884D01*
X39230718Y84013884D02*
X39129703Y83912869D01*
X39129703Y83912869D02*
X39096031Y83811853D01*
X39096031Y83811853D02*
X39096031Y83744510D01*
X39096031Y83744510D02*
X39129703Y83643495D01*
X39129703Y83643495D02*
X39399077Y83374121D01*
X37984864Y84114899D02*
X38388925Y83710838D01*
X38186894Y83912869D02*
X38894001Y84619975D01*
X38894001Y84619975D02*
X38860329Y84451617D01*
X38860329Y84451617D02*
X38860329Y84316930D01*
X38860329Y84316930D02*
X38894001Y84215914D01*
X37951192Y84687319D02*
X37412444Y85226067D01*
X37412444Y84687319D02*
X37951192Y85226067D01*
X43624899Y92387398D02*
X43490212Y92454741D01*
X43490212Y92454741D02*
X43422869Y92454741D01*
X43422869Y92454741D02*
X43321853Y92421070D01*
X43321853Y92421070D02*
X43220838Y92320054D01*
X43220838Y92320054D02*
X43187166Y92219039D01*
X43187166Y92219039D02*
X43187166Y92151696D01*
X43187166Y92151696D02*
X43220838Y92050680D01*
X43220838Y92050680D02*
X43490212Y91781306D01*
X43490212Y91781306D02*
X44197319Y92488413D01*
X44197319Y92488413D02*
X43961617Y92724116D01*
X43961617Y92724116D02*
X43860602Y92757787D01*
X43860602Y92757787D02*
X43793258Y92757787D01*
X43793258Y92757787D02*
X43692243Y92724116D01*
X43692243Y92724116D02*
X43624899Y92656772D01*
X43624899Y92656772D02*
X43591228Y92555757D01*
X43591228Y92555757D02*
X43591228Y92488413D01*
X43591228Y92488413D02*
X43624899Y92387398D01*
X43624899Y92387398D02*
X43860602Y92151696D01*
X43591228Y93094505D02*
X43187166Y93498566D01*
X42682090Y92589428D02*
X43389197Y93296535D01*
X42244357Y93027161D02*
X42951464Y93734268D01*
X42951464Y93734268D02*
X41840296Y93431222D01*
X41840296Y93431222D02*
X42547403Y94138329D01*
X42278029Y94407703D02*
X41840296Y94845436D01*
X41840296Y94845436D02*
X41806625Y94340360D01*
X41806625Y94340360D02*
X41705609Y94441375D01*
X41705609Y94441375D02*
X41604594Y94475047D01*
X41604594Y94475047D02*
X41537251Y94475047D01*
X41537251Y94475047D02*
X41436235Y94441375D01*
X41436235Y94441375D02*
X41267877Y94273016D01*
X41267877Y94273016D02*
X41234205Y94172001D01*
X41234205Y94172001D02*
X41234205Y94104657D01*
X41234205Y94104657D02*
X41267877Y94003642D01*
X41267877Y94003642D02*
X41469907Y93801612D01*
X41469907Y93801612D02*
X41570922Y93767940D01*
X41570922Y93767940D02*
X41638266Y93767940D01*
X7425334Y48835091D02*
X8132441Y49542198D01*
X7088617Y49171809D02*
X7795724Y49878915D01*
X7795724Y49878915D02*
X6684556Y49575870D01*
X6684556Y49575870D02*
X7391663Y50282976D01*
X6852915Y50821724D02*
X6347839Y50316648D01*
X6347839Y50316648D02*
X6280495Y50181961D01*
X6280495Y50181961D02*
X6280495Y50047274D01*
X6280495Y50047274D02*
X6347839Y49912587D01*
X6347839Y49912587D02*
X6415182Y49845244D01*
X6179480Y51495160D02*
X6516197Y51158442D01*
X6516197Y51158442D02*
X6213151Y50788053D01*
X6213151Y50788053D02*
X6213151Y50855396D01*
X6213151Y50855396D02*
X6179480Y50956412D01*
X6179480Y50956412D02*
X6011121Y51124770D01*
X6011121Y51124770D02*
X5910106Y51158442D01*
X5910106Y51158442D02*
X5842762Y51158442D01*
X5842762Y51158442D02*
X5741747Y51124770D01*
X5741747Y51124770D02*
X5573388Y50956412D01*
X5573388Y50956412D02*
X5539716Y50855396D01*
X5539716Y50855396D02*
X5539716Y50788053D01*
X5539716Y50788053D02*
X5573388Y50687038D01*
X5573388Y50687038D02*
X5741747Y50518679D01*
X5741747Y50518679D02*
X5842762Y50485007D01*
X5842762Y50485007D02*
X5910106Y50485007D01*
X15338617Y67421809D02*
X15675334Y67085091D01*
X15675334Y67085091D02*
X16382441Y67792198D01*
X15170258Y67657511D02*
X15035571Y67724855D01*
X15035571Y67724855D02*
X14867212Y67893214D01*
X14867212Y67893214D02*
X14833540Y67994229D01*
X14833540Y67994229D02*
X14833540Y68061572D01*
X14833540Y68061572D02*
X14867212Y68162588D01*
X14867212Y68162588D02*
X14934556Y68229931D01*
X14934556Y68229931D02*
X15035571Y68263603D01*
X15035571Y68263603D02*
X15102914Y68263603D01*
X15102914Y68263603D02*
X15203930Y68229931D01*
X15203930Y68229931D02*
X15372288Y68128916D01*
X15372288Y68128916D02*
X15473304Y68095244D01*
X15473304Y68095244D02*
X15540647Y68095244D01*
X15540647Y68095244D02*
X15641662Y68128916D01*
X15641662Y68128916D02*
X15709006Y68196259D01*
X15709006Y68196259D02*
X15742678Y68297275D01*
X15742678Y68297275D02*
X15742678Y68364618D01*
X15742678Y68364618D02*
X15709006Y68465633D01*
X15709006Y68465633D02*
X15540647Y68633992D01*
X15540647Y68633992D02*
X15405960Y68701336D01*
X14597838Y69105397D02*
X14126434Y68633992D01*
X15035571Y69206412D02*
X14698853Y68532977D01*
X14698853Y68532977D02*
X14261121Y68970710D01*
X7718130Y29878372D02*
X8425237Y30585479D01*
X8425237Y30585479D02*
X8256878Y30753838D01*
X8256878Y30753838D02*
X8122191Y30821182D01*
X8122191Y30821182D02*
X7987504Y30821182D01*
X7987504Y30821182D02*
X7886489Y30787510D01*
X7886489Y30787510D02*
X7718130Y30686494D01*
X7718130Y30686494D02*
X7617115Y30585479D01*
X7617115Y30585479D02*
X7516100Y30417120D01*
X7516100Y30417120D02*
X7482428Y30316105D01*
X7482428Y30316105D02*
X7482428Y30181418D01*
X7482428Y30181418D02*
X7549771Y30046731D01*
X7549771Y30046731D02*
X7718130Y29878372D01*
X6674306Y31056884D02*
X6674306Y30989540D01*
X6674306Y30989540D02*
X6741649Y30854853D01*
X6741649Y30854853D02*
X6808993Y30787510D01*
X6808993Y30787510D02*
X6943680Y30720166D01*
X6943680Y30720166D02*
X7078367Y30720166D01*
X7078367Y30720166D02*
X7179382Y30753838D01*
X7179382Y30753838D02*
X7347741Y30854853D01*
X7347741Y30854853D02*
X7448756Y30955869D01*
X7448756Y30955869D02*
X7549771Y31124227D01*
X7549771Y31124227D02*
X7583443Y31225243D01*
X7583443Y31225243D02*
X7583443Y31359930D01*
X7583443Y31359930D02*
X7516100Y31494617D01*
X7516100Y31494617D02*
X7448756Y31561960D01*
X7448756Y31561960D02*
X7314069Y31629304D01*
X7314069Y31629304D02*
X7246726Y31629304D01*
X6977352Y31898678D02*
X6977352Y31966021D01*
X6977352Y31966021D02*
X6943680Y32067036D01*
X6943680Y32067036D02*
X6775321Y32235395D01*
X6775321Y32235395D02*
X6674306Y32269067D01*
X6674306Y32269067D02*
X6606962Y32269067D01*
X6606962Y32269067D02*
X6505947Y32235395D01*
X6505947Y32235395D02*
X6438604Y32168052D01*
X6438604Y32168052D02*
X6371260Y32033365D01*
X6371260Y32033365D02*
X6371260Y31225243D01*
X6371260Y31225243D02*
X5933527Y31662975D01*
X5899856Y32235395D02*
X5361108Y32774143D01*
X40214484Y93139648D02*
X40315499Y93105976D01*
X40315499Y93105976D02*
X40416515Y93004961D01*
X40416515Y93004961D02*
X40483858Y92870274D01*
X40483858Y92870274D02*
X40483858Y92735587D01*
X40483858Y92735587D02*
X40450186Y92634571D01*
X40450186Y92634571D02*
X40349171Y92466213D01*
X40349171Y92466213D02*
X40248156Y92365197D01*
X40248156Y92365197D02*
X40079797Y92264182D01*
X40079797Y92264182D02*
X39978782Y92230510D01*
X39978782Y92230510D02*
X39844095Y92230510D01*
X39844095Y92230510D02*
X39709408Y92297854D01*
X39709408Y92297854D02*
X39642064Y92365197D01*
X39642064Y92365197D02*
X39574721Y92499884D01*
X39574721Y92499884D02*
X39574721Y92567228D01*
X39574721Y92567228D02*
X39810423Y92802930D01*
X39810423Y92802930D02*
X39945110Y92668243D01*
X39204331Y92802930D02*
X39911438Y93510037D01*
X39911438Y93510037D02*
X38800270Y93206991D01*
X38800270Y93206991D02*
X39507377Y93914098D01*
X38463553Y93543709D02*
X39170660Y94250816D01*
X39170660Y94250816D02*
X39002301Y94419174D01*
X39002301Y94419174D02*
X38867614Y94486518D01*
X38867614Y94486518D02*
X38732927Y94486518D01*
X38732927Y94486518D02*
X38631912Y94452846D01*
X38631912Y94452846D02*
X38463553Y94351831D01*
X38463553Y94351831D02*
X38362538Y94250816D01*
X38362538Y94250816D02*
X38261522Y94082457D01*
X38261522Y94082457D02*
X38227851Y93981442D01*
X38227851Y93981442D02*
X38227851Y93846755D01*
X38227851Y93846755D02*
X38295194Y93712067D01*
X38295194Y93712067D02*
X38463553Y93543709D01*
X5177580Y12833885D02*
X6177580Y12833885D01*
X6177580Y12833885D02*
X6177580Y13071980D01*
X6177580Y13071980D02*
X6129961Y13214837D01*
X6129961Y13214837D02*
X6034723Y13310075D01*
X6034723Y13310075D02*
X5939485Y13357694D01*
X5939485Y13357694D02*
X5749009Y13405313D01*
X5749009Y13405313D02*
X5606152Y13405313D01*
X5606152Y13405313D02*
X5415676Y13357694D01*
X5415676Y13357694D02*
X5320438Y13310075D01*
X5320438Y13310075D02*
X5225200Y13214837D01*
X5225200Y13214837D02*
X5177580Y13071980D01*
X5177580Y13071980D02*
X5177580Y12833885D01*
X5272819Y14405313D02*
X5225200Y14357694D01*
X5225200Y14357694D02*
X5177580Y14214837D01*
X5177580Y14214837D02*
X5177580Y14119599D01*
X5177580Y14119599D02*
X5225200Y13976742D01*
X5225200Y13976742D02*
X5320438Y13881504D01*
X5320438Y13881504D02*
X5415676Y13833885D01*
X5415676Y13833885D02*
X5606152Y13786266D01*
X5606152Y13786266D02*
X5749009Y13786266D01*
X5749009Y13786266D02*
X5939485Y13833885D01*
X5939485Y13833885D02*
X6034723Y13881504D01*
X6034723Y13881504D02*
X6129961Y13976742D01*
X6129961Y13976742D02*
X6177580Y14119599D01*
X6177580Y14119599D02*
X6177580Y14214837D01*
X6177580Y14214837D02*
X6129961Y14357694D01*
X6129961Y14357694D02*
X6082342Y14405313D01*
X5177580Y15357694D02*
X5177580Y14786266D01*
X5177580Y15071980D02*
X6177580Y15071980D01*
X6177580Y15071980D02*
X6034723Y14976742D01*
X6034723Y14976742D02*
X5939485Y14881504D01*
X5939485Y14881504D02*
X5891866Y14786266D01*
X5082342Y15548170D02*
X5082342Y16310075D01*
X5177580Y16548171D02*
X6177580Y16548171D01*
X6177580Y16548171D02*
X6177580Y16786266D01*
X6177580Y16786266D02*
X6129961Y16929123D01*
X6129961Y16929123D02*
X6034723Y17024361D01*
X6034723Y17024361D02*
X5939485Y17071980D01*
X5939485Y17071980D02*
X5749009Y17119599D01*
X5749009Y17119599D02*
X5606152Y17119599D01*
X5606152Y17119599D02*
X5415676Y17071980D01*
X5415676Y17071980D02*
X5320438Y17024361D01*
X5320438Y17024361D02*
X5225200Y16929123D01*
X5225200Y16929123D02*
X5177580Y16786266D01*
X5177580Y16786266D02*
X5177580Y16548171D01*
X5177580Y17548171D02*
X6177580Y17548171D01*
X5177580Y18595789D02*
X5653771Y18262456D01*
X5177580Y18024361D02*
X6177580Y18024361D01*
X6177580Y18024361D02*
X6177580Y18405313D01*
X6177580Y18405313D02*
X6129961Y18500551D01*
X6129961Y18500551D02*
X6082342Y18548170D01*
X6082342Y18548170D02*
X5987104Y18595789D01*
X5987104Y18595789D02*
X5844247Y18595789D01*
X5844247Y18595789D02*
X5749009Y18548170D01*
X5749009Y18548170D02*
X5701390Y18500551D01*
X5701390Y18500551D02*
X5653771Y18405313D01*
X5653771Y18405313D02*
X5653771Y18024361D01*
X31470962Y91877526D02*
X32178069Y92584633D01*
X31841352Y92247916D02*
X31437290Y92651977D01*
X31066901Y92281587D02*
X31774008Y92988694D01*
X30965886Y92786664D02*
X30629168Y93123381D01*
X30831199Y92517290D02*
X31302604Y93460099D01*
X31302604Y93460099D02*
X30359794Y92988694D01*
X29787375Y93561114D02*
X30124092Y93224397D01*
X30124092Y93224397D02*
X30831199Y93931503D01*
X29214955Y94133534D02*
X29551672Y93796816D01*
X29551672Y93796816D02*
X30258779Y94503923D01*
X29652687Y94975328D02*
X29652687Y95042671D01*
X29652687Y95042671D02*
X29619016Y95143687D01*
X29619016Y95143687D02*
X29450657Y95312045D01*
X29450657Y95312045D02*
X29349642Y95345717D01*
X29349642Y95345717D02*
X29282298Y95345717D01*
X29282298Y95345717D02*
X29181283Y95312045D01*
X29181283Y95312045D02*
X29113939Y95244702D01*
X29113939Y95244702D02*
X29046596Y95110015D01*
X29046596Y95110015D02*
X29046596Y94301893D01*
X29046596Y94301893D02*
X28608863Y94739626D01*
X64560021Y92441183D02*
X64425334Y92508526D01*
X64425334Y92508526D02*
X64357991Y92508526D01*
X64357991Y92508526D02*
X64256975Y92474855D01*
X64256975Y92474855D02*
X64155960Y92373839D01*
X64155960Y92373839D02*
X64122288Y92272824D01*
X64122288Y92272824D02*
X64122288Y92205481D01*
X64122288Y92205481D02*
X64155960Y92104465D01*
X64155960Y92104465D02*
X64425334Y91835091D01*
X64425334Y91835091D02*
X65132441Y92542198D01*
X65132441Y92542198D02*
X64896739Y92777901D01*
X64896739Y92777901D02*
X64795724Y92811572D01*
X64795724Y92811572D02*
X64728380Y92811572D01*
X64728380Y92811572D02*
X64627365Y92777901D01*
X64627365Y92777901D02*
X64560021Y92710557D01*
X64560021Y92710557D02*
X64526350Y92609542D01*
X64526350Y92609542D02*
X64526350Y92542198D01*
X64526350Y92542198D02*
X64560021Y92441183D01*
X64560021Y92441183D02*
X64795724Y92205481D01*
X64526350Y93148290D02*
X64122288Y93552351D01*
X63617212Y92643213D02*
X64324319Y93350320D01*
X63179479Y93080946D02*
X63886586Y93788053D01*
X63886586Y93788053D02*
X62775418Y93485007D01*
X62775418Y93485007D02*
X63482525Y94192114D01*
X62068312Y94192114D02*
X62472373Y93788053D01*
X62270342Y93990084D02*
X62977449Y94697190D01*
X62977449Y94697190D02*
X62943777Y94528832D01*
X62943777Y94528832D02*
X62943777Y94394145D01*
X62943777Y94394145D02*
X62977449Y94293129D01*
X19198108Y92142104D02*
X18861390Y92478822D01*
X19063421Y91872730D02*
X19534825Y92815539D01*
X19534825Y92815539D02*
X18592016Y92344135D01*
X19063420Y93286944D02*
X18491001Y92714524D01*
X18491001Y92714524D02*
X18389985Y92680852D01*
X18389985Y92680852D02*
X18322642Y92680852D01*
X18322642Y92680852D02*
X18221627Y92714524D01*
X18221627Y92714524D02*
X18086940Y92849211D01*
X18086940Y92849211D02*
X18053268Y92950226D01*
X18053268Y92950226D02*
X18053268Y93017570D01*
X18053268Y93017570D02*
X18086940Y93118585D01*
X18086940Y93118585D02*
X18659359Y93691005D01*
X18389985Y93960379D02*
X17211474Y93724677D01*
X17918581Y94431783D02*
X17682879Y93253272D01*
X17615535Y94600142D02*
X17615535Y94667486D01*
X17615535Y94667486D02*
X17581863Y94768501D01*
X17581863Y94768501D02*
X17413505Y94936860D01*
X17413505Y94936860D02*
X17312489Y94970531D01*
X17312489Y94970531D02*
X17245146Y94970531D01*
X17245146Y94970531D02*
X17144131Y94936860D01*
X17144131Y94936860D02*
X17076787Y94869516D01*
X17076787Y94869516D02*
X17009444Y94734829D01*
X17009444Y94734829D02*
X17009444Y93926707D01*
X17009444Y93926707D02*
X16571711Y94364440D01*
X89494582Y3710011D02*
X89161249Y2710011D01*
X89161249Y2710011D02*
X88827916Y3710011D01*
X88161249Y3233821D02*
X88018392Y3186202D01*
X88018392Y3186202D02*
X87970773Y3138583D01*
X87970773Y3138583D02*
X87923154Y3043345D01*
X87923154Y3043345D02*
X87923154Y2900488D01*
X87923154Y2900488D02*
X87970773Y2805250D01*
X87970773Y2805250D02*
X88018392Y2757630D01*
X88018392Y2757630D02*
X88113630Y2710011D01*
X88113630Y2710011D02*
X88494582Y2710011D01*
X88494582Y2710011D02*
X88494582Y3710011D01*
X88494582Y3710011D02*
X88161249Y3710011D01*
X88161249Y3710011D02*
X88066011Y3662392D01*
X88066011Y3662392D02*
X88018392Y3614773D01*
X88018392Y3614773D02*
X87970773Y3519535D01*
X87970773Y3519535D02*
X87970773Y3424297D01*
X87970773Y3424297D02*
X88018392Y3329059D01*
X88018392Y3329059D02*
X88066011Y3281440D01*
X88066011Y3281440D02*
X88161249Y3233821D01*
X88161249Y3233821D02*
X88494582Y3233821D01*
X87494582Y3710011D02*
X87494582Y2900488D01*
X87494582Y2900488D02*
X87446963Y2805250D01*
X87446963Y2805250D02*
X87399344Y2757630D01*
X87399344Y2757630D02*
X87304106Y2710011D01*
X87304106Y2710011D02*
X87113630Y2710011D01*
X87113630Y2710011D02*
X87018392Y2757630D01*
X87018392Y2757630D02*
X86970773Y2805250D01*
X86970773Y2805250D02*
X86923154Y2900488D01*
X86923154Y2900488D02*
X86923154Y3710011D01*
X86494582Y2757630D02*
X86351725Y2710011D01*
X86351725Y2710011D02*
X86113630Y2710011D01*
X86113630Y2710011D02*
X86018392Y2757630D01*
X86018392Y2757630D02*
X85970773Y2805250D01*
X85970773Y2805250D02*
X85923154Y2900488D01*
X85923154Y2900488D02*
X85923154Y2995726D01*
X85923154Y2995726D02*
X85970773Y3090964D01*
X85970773Y3090964D02*
X86018392Y3138583D01*
X86018392Y3138583D02*
X86113630Y3186202D01*
X86113630Y3186202D02*
X86304106Y3233821D01*
X86304106Y3233821D02*
X86399344Y3281440D01*
X86399344Y3281440D02*
X86446963Y3329059D01*
X86446963Y3329059D02*
X86494582Y3424297D01*
X86494582Y3424297D02*
X86494582Y3519535D01*
X86494582Y3519535D02*
X86446963Y3614773D01*
X86446963Y3614773D02*
X86399344Y3662392D01*
X86399344Y3662392D02*
X86304106Y3710011D01*
X86304106Y3710011D02*
X86066011Y3710011D01*
X86066011Y3710011D02*
X85923154Y3662392D01*
X93771273Y71989152D02*
X94343693Y72090168D01*
X94175334Y71585091D02*
X94882441Y72292198D01*
X94882441Y72292198D02*
X94613067Y72561572D01*
X94613067Y72561572D02*
X94512052Y72595244D01*
X94512052Y72595244D02*
X94444708Y72595244D01*
X94444708Y72595244D02*
X94343693Y72561572D01*
X94343693Y72561572D02*
X94242678Y72460557D01*
X94242678Y72460557D02*
X94209006Y72359542D01*
X94209006Y72359542D02*
X94209006Y72292198D01*
X94209006Y72292198D02*
X94242678Y72191183D01*
X94242678Y72191183D02*
X94512052Y71921809D01*
X94040647Y72662588D02*
X93771273Y72931962D01*
X94175334Y72999305D02*
X93569243Y72393213D01*
X93569243Y72393213D02*
X93468227Y72359542D01*
X93468227Y72359542D02*
X93367212Y72393213D01*
X93367212Y72393213D02*
X93299869Y72460557D01*
X93064166Y72696260D02*
X93535571Y73167664D01*
X93400884Y73032977D02*
X93434555Y73133992D01*
X93434555Y73133992D02*
X93434555Y73201336D01*
X93434555Y73201336D02*
X93400884Y73302351D01*
X93400884Y73302351D02*
X93333540Y73369695D01*
X92626433Y73133993D02*
X93097838Y73605397D01*
X93333540Y73841099D02*
X93333540Y73773756D01*
X93333540Y73773756D02*
X93266196Y73773756D01*
X93266196Y73773756D02*
X93266196Y73841099D01*
X93266196Y73841099D02*
X93333540Y73841099D01*
X93333540Y73841099D02*
X93266196Y73773756D01*
X92289716Y73470710D02*
X92761120Y73942114D01*
X92693777Y73874771D02*
X92693777Y73942114D01*
X92693777Y73942114D02*
X92660105Y74043130D01*
X92660105Y74043130D02*
X92559090Y74144145D01*
X92559090Y74144145D02*
X92458075Y74177817D01*
X92458075Y74177817D02*
X92357059Y74144145D01*
X92357059Y74144145D02*
X91986670Y73773756D01*
X92357059Y74144145D02*
X92390731Y74245160D01*
X92390731Y74245160D02*
X92357059Y74346175D01*
X92357059Y74346175D02*
X92256044Y74447191D01*
X92256044Y74447191D02*
X92155029Y74480862D01*
X92155029Y74480862D02*
X92054014Y74447191D01*
X92054014Y74447191D02*
X91683624Y74076801D01*
X15925334Y45635091D02*
X16632441Y46342198D01*
X15891663Y47015633D02*
X15992678Y46981961D01*
X15992678Y46981961D02*
X16093693Y46880946D01*
X16093693Y46880946D02*
X16161037Y46746259D01*
X16161037Y46746259D02*
X16161037Y46611572D01*
X16161037Y46611572D02*
X16127365Y46510557D01*
X16127365Y46510557D02*
X16026350Y46342198D01*
X16026350Y46342198D02*
X15925335Y46241183D01*
X15925335Y46241183D02*
X15756976Y46140167D01*
X15756976Y46140167D02*
X15655961Y46106496D01*
X15655961Y46106496D02*
X15521274Y46106496D01*
X15521274Y46106496D02*
X15386587Y46173839D01*
X15386587Y46173839D02*
X15319243Y46241183D01*
X15319243Y46241183D02*
X15251900Y46375870D01*
X15251900Y46375870D02*
X15251900Y46443213D01*
X15251900Y46443213D02*
X15487602Y46678915D01*
X15487602Y46678915D02*
X15622289Y46544228D01*
X14881510Y46678915D02*
X15588617Y47386022D01*
X15588617Y47386022D02*
X14477449Y47082976D01*
X14477449Y47082976D02*
X15184556Y47790083D01*
X14309091Y48194144D02*
X13837686Y47722740D01*
X14746823Y48295159D02*
X14410106Y47621724D01*
X14410106Y47621724D02*
X13972373Y48059457D01*
X89415872Y6275869D02*
X89415872Y5466346D01*
X89415872Y5466346D02*
X89368253Y5371108D01*
X89368253Y5371108D02*
X89320634Y5323488D01*
X89320634Y5323488D02*
X89225396Y5275869D01*
X89225396Y5275869D02*
X89034920Y5275869D01*
X89034920Y5275869D02*
X88939682Y5323488D01*
X88939682Y5323488D02*
X88892063Y5371108D01*
X88892063Y5371108D02*
X88844444Y5466346D01*
X88844444Y5466346D02*
X88844444Y6275869D01*
X88415872Y5323488D02*
X88273015Y5275869D01*
X88273015Y5275869D02*
X88034920Y5275869D01*
X88034920Y5275869D02*
X87939682Y5323488D01*
X87939682Y5323488D02*
X87892063Y5371108D01*
X87892063Y5371108D02*
X87844444Y5466346D01*
X87844444Y5466346D02*
X87844444Y5561584D01*
X87844444Y5561584D02*
X87892063Y5656822D01*
X87892063Y5656822D02*
X87939682Y5704441D01*
X87939682Y5704441D02*
X88034920Y5752060D01*
X88034920Y5752060D02*
X88225396Y5799679D01*
X88225396Y5799679D02*
X88320634Y5847298D01*
X88320634Y5847298D02*
X88368253Y5894917D01*
X88368253Y5894917D02*
X88415872Y5990155D01*
X88415872Y5990155D02*
X88415872Y6085393D01*
X88415872Y6085393D02*
X88368253Y6180631D01*
X88368253Y6180631D02*
X88320634Y6228250D01*
X88320634Y6228250D02*
X88225396Y6275869D01*
X88225396Y6275869D02*
X87987301Y6275869D01*
X87987301Y6275869D02*
X87844444Y6228250D01*
X87082539Y5799679D02*
X86939682Y5752060D01*
X86939682Y5752060D02*
X86892063Y5704441D01*
X86892063Y5704441D02*
X86844444Y5609203D01*
X86844444Y5609203D02*
X86844444Y5466346D01*
X86844444Y5466346D02*
X86892063Y5371108D01*
X86892063Y5371108D02*
X86939682Y5323488D01*
X86939682Y5323488D02*
X87034920Y5275869D01*
X87034920Y5275869D02*
X87415872Y5275869D01*
X87415872Y5275869D02*
X87415872Y6275869D01*
X87415872Y6275869D02*
X87082539Y6275869D01*
X87082539Y6275869D02*
X86987301Y6228250D01*
X86987301Y6228250D02*
X86939682Y6180631D01*
X86939682Y6180631D02*
X86892063Y6085393D01*
X86892063Y6085393D02*
X86892063Y5990155D01*
X86892063Y5990155D02*
X86939682Y5894917D01*
X86939682Y5894917D02*
X86987301Y5847298D01*
X86987301Y5847298D02*
X87082539Y5799679D01*
X87082539Y5799679D02*
X87415872Y5799679D01*
X86415872Y5656822D02*
X85653968Y5656822D01*
X36483456Y82941183D02*
X35540647Y82469778D01*
X35540647Y82469778D02*
X36012052Y83412588D01*
X34665182Y83345244D02*
X35237601Y83446259D01*
X35069243Y82941183D02*
X35776349Y83648290D01*
X35776349Y83648290D02*
X35506975Y83917664D01*
X35506975Y83917664D02*
X35405960Y83951336D01*
X35405960Y83951336D02*
X35338617Y83951336D01*
X35338617Y83951336D02*
X35237601Y83917664D01*
X35237601Y83917664D02*
X35136586Y83816649D01*
X35136586Y83816649D02*
X35102914Y83715633D01*
X35102914Y83715633D02*
X35102914Y83648290D01*
X35102914Y83648290D02*
X35136586Y83547275D01*
X35136586Y83547275D02*
X35405960Y83277901D01*
X35035571Y84254381D02*
X35035571Y84321725D01*
X35035571Y84321725D02*
X35001899Y84422740D01*
X35001899Y84422740D02*
X34833540Y84591099D01*
X34833540Y84591099D02*
X34732525Y84624771D01*
X34732525Y84624771D02*
X34665182Y84624771D01*
X34665182Y84624771D02*
X34564166Y84591099D01*
X34564166Y84591099D02*
X34496823Y84523755D01*
X34496823Y84523755D02*
X34429479Y84389068D01*
X34429479Y84389068D02*
X34429479Y83580946D01*
X34429479Y83580946D02*
X33991747Y84018679D01*
X33958075Y84591099D02*
X33419327Y85129847D01*
X73194708Y91854465D02*
X72655960Y92393213D01*
X72655960Y91854465D02*
X73194708Y92393213D01*
X72420258Y93504381D02*
X72756976Y93167664D01*
X72756976Y93167664D02*
X72453930Y92797274D01*
X72453930Y92797274D02*
X72453930Y92864618D01*
X72453930Y92864618D02*
X72420258Y92965633D01*
X72420258Y92965633D02*
X72251899Y93133992D01*
X72251899Y93133992D02*
X72150884Y93167664D01*
X72150884Y93167664D02*
X72083541Y93167664D01*
X72083541Y93167664D02*
X71982525Y93133992D01*
X71982525Y93133992D02*
X71814167Y92965633D01*
X71814167Y92965633D02*
X71780495Y92864618D01*
X71780495Y92864618D02*
X71780495Y92797274D01*
X71780495Y92797274D02*
X71814167Y92696259D01*
X71814167Y92696259D02*
X71982525Y92527900D01*
X71982525Y92527900D02*
X72083541Y92494229D01*
X72083541Y92494229D02*
X72150884Y92494229D01*
X72184556Y93740083D02*
X71241747Y93268679D01*
X71241747Y93268679D02*
X71713151Y94211488D01*
X70770342Y93740084D02*
X71477449Y94447190D01*
X71477449Y94447190D02*
X71208075Y94716564D01*
X71208075Y94716564D02*
X71107060Y94750236D01*
X71107060Y94750236D02*
X71039716Y94750236D01*
X71039716Y94750236D02*
X70938701Y94716564D01*
X70938701Y94716564D02*
X70837686Y94615549D01*
X70837686Y94615549D02*
X70804014Y94514534D01*
X70804014Y94514534D02*
X70804014Y94447190D01*
X70804014Y94447190D02*
X70837686Y94346175D01*
X70837686Y94346175D02*
X71107060Y94076801D01*
X94168378Y67419476D02*
X94875485Y68126583D01*
X94538768Y67789866D02*
X94134706Y68193927D01*
X93764317Y67823537D02*
X94471424Y68530644D01*
X94235722Y68766346D02*
X93831661Y69170408D01*
X93326584Y68261270D02*
X94033691Y68968377D01*
X92484791Y69103064D02*
X93057210Y69204079D01*
X92888852Y68699003D02*
X93595958Y69406110D01*
X93595958Y69406110D02*
X93326584Y69675484D01*
X93326584Y69675484D02*
X93225569Y69709156D01*
X93225569Y69709156D02*
X93158226Y69709156D01*
X93158226Y69709156D02*
X93057210Y69675484D01*
X93057210Y69675484D02*
X92956195Y69574469D01*
X92956195Y69574469D02*
X92922523Y69473453D01*
X92922523Y69473453D02*
X92922523Y69406110D01*
X92922523Y69406110D02*
X92956195Y69305095D01*
X92956195Y69305095D02*
X93225569Y69035721D01*
X92451119Y69675484D02*
X91912371Y70214232D01*
X77483456Y83441183D02*
X77079395Y83845244D01*
X76574319Y82936107D02*
X77281426Y83643213D01*
X76136586Y83373840D02*
X76843693Y84080946D01*
X76843693Y84080946D02*
X76574319Y84350320D01*
X76574319Y84350320D02*
X76473304Y84383992D01*
X76473304Y84383992D02*
X76405960Y84383992D01*
X76405960Y84383992D02*
X76304945Y84350320D01*
X76304945Y84350320D02*
X76203930Y84249305D01*
X76203930Y84249305D02*
X76170258Y84148290D01*
X76170258Y84148290D02*
X76170258Y84080946D01*
X76170258Y84080946D02*
X76203930Y83979931D01*
X76203930Y83979931D02*
X76473304Y83710557D01*
X75496823Y84080946D02*
X75362136Y84148290D01*
X75362136Y84148290D02*
X75193777Y84316649D01*
X75193777Y84316649D02*
X75160105Y84417664D01*
X75160105Y84417664D02*
X75160105Y84485007D01*
X75160105Y84485007D02*
X75193777Y84586023D01*
X75193777Y84586023D02*
X75261121Y84653366D01*
X75261121Y84653366D02*
X75362136Y84687038D01*
X75362136Y84687038D02*
X75429479Y84687038D01*
X75429479Y84687038D02*
X75530495Y84653366D01*
X75530495Y84653366D02*
X75698853Y84552351D01*
X75698853Y84552351D02*
X75799869Y84518679D01*
X75799869Y84518679D02*
X75867212Y84518679D01*
X75867212Y84518679D02*
X75968227Y84552351D01*
X75968227Y84552351D02*
X76035571Y84619694D01*
X76035571Y84619694D02*
X76069243Y84720710D01*
X76069243Y84720710D02*
X76069243Y84788053D01*
X76069243Y84788053D02*
X76035571Y84889068D01*
X76035571Y84889068D02*
X75867212Y85057427D01*
X75867212Y85057427D02*
X75732525Y85124771D01*
X74385655Y85124771D02*
X74789716Y84720710D01*
X74587685Y84922740D02*
X75294792Y85629847D01*
X75294792Y85629847D02*
X75261120Y85461488D01*
X75261120Y85461488D02*
X75261120Y85326801D01*
X75261120Y85326801D02*
X75294792Y85225786D01*
X3797468Y40833884D02*
X4797468Y40833884D01*
X4464135Y41738645D02*
X3654611Y41738645D01*
X3654611Y41738645D02*
X3559373Y41691026D01*
X3559373Y41691026D02*
X3511754Y41643407D01*
X3511754Y41643407D02*
X3464135Y41548169D01*
X3464135Y41548169D02*
X3464135Y41405312D01*
X3464135Y41405312D02*
X3511754Y41310074D01*
X3845088Y41738645D02*
X3797468Y41643407D01*
X3797468Y41643407D02*
X3797468Y41452931D01*
X3797468Y41452931D02*
X3845088Y41357693D01*
X3845088Y41357693D02*
X3892707Y41310074D01*
X3892707Y41310074D02*
X3987945Y41262455D01*
X3987945Y41262455D02*
X4273659Y41262455D01*
X4273659Y41262455D02*
X4368897Y41310074D01*
X4368897Y41310074D02*
X4416516Y41357693D01*
X4416516Y41357693D02*
X4464135Y41452931D01*
X4464135Y41452931D02*
X4464135Y41643407D01*
X4464135Y41643407D02*
X4416516Y41738645D01*
X4464135Y42214836D02*
X3797468Y42214836D01*
X4368897Y42214836D02*
X4416516Y42262455D01*
X4416516Y42262455D02*
X4464135Y42357693D01*
X4464135Y42357693D02*
X4464135Y42500550D01*
X4464135Y42500550D02*
X4416516Y42595788D01*
X4416516Y42595788D02*
X4321278Y42643407D01*
X4321278Y42643407D02*
X3797468Y42643407D01*
X3797468Y43119598D02*
X4464135Y43119598D01*
X4797468Y43119598D02*
X4749849Y43071979D01*
X4749849Y43071979D02*
X4702230Y43119598D01*
X4702230Y43119598D02*
X4749849Y43167217D01*
X4749849Y43167217D02*
X4797468Y43119598D01*
X4797468Y43119598D02*
X4702230Y43119598D01*
X4464135Y43452931D02*
X4464135Y43833883D01*
X4797468Y43595788D02*
X3940326Y43595788D01*
X3940326Y43595788D02*
X3845088Y43643407D01*
X3845088Y43643407D02*
X3797468Y43738645D01*
X3797468Y43738645D02*
X3797468Y43833883D01*
X3797468Y44167217D02*
X4464135Y44167217D01*
X4797468Y44167217D02*
X4749849Y44119598D01*
X4749849Y44119598D02*
X4702230Y44167217D01*
X4702230Y44167217D02*
X4749849Y44214836D01*
X4749849Y44214836D02*
X4797468Y44167217D01*
X4797468Y44167217D02*
X4702230Y44167217D01*
X3797468Y44786264D02*
X3845088Y44691026D01*
X3845088Y44691026D02*
X3892707Y44643407D01*
X3892707Y44643407D02*
X3987945Y44595788D01*
X3987945Y44595788D02*
X4273659Y44595788D01*
X4273659Y44595788D02*
X4368897Y44643407D01*
X4368897Y44643407D02*
X4416516Y44691026D01*
X4416516Y44691026D02*
X4464135Y44786264D01*
X4464135Y44786264D02*
X4464135Y44929121D01*
X4464135Y44929121D02*
X4416516Y45024359D01*
X4416516Y45024359D02*
X4368897Y45071978D01*
X4368897Y45071978D02*
X4273659Y45119597D01*
X4273659Y45119597D02*
X3987945Y45119597D01*
X3987945Y45119597D02*
X3892707Y45071978D01*
X3892707Y45071978D02*
X3845088Y45024359D01*
X3845088Y45024359D02*
X3797468Y44929121D01*
X3797468Y44929121D02*
X3797468Y44786264D01*
X4464135Y45548169D02*
X3797468Y45548169D01*
X4368897Y45548169D02*
X4416516Y45595788D01*
X4416516Y45595788D02*
X4464135Y45691026D01*
X4464135Y45691026D02*
X4464135Y45833883D01*
X4464135Y45833883D02*
X4416516Y45929121D01*
X4416516Y45929121D02*
X4321278Y45976740D01*
X4321278Y45976740D02*
X3797468Y45976740D01*
X3797468Y47357693D02*
X3845088Y47262455D01*
X3845088Y47262455D02*
X3940326Y47214836D01*
X3940326Y47214836D02*
X4797468Y47214836D01*
X3797468Y47881503D02*
X3845088Y47786265D01*
X3845088Y47786265D02*
X3892707Y47738646D01*
X3892707Y47738646D02*
X3987945Y47691027D01*
X3987945Y47691027D02*
X4273659Y47691027D01*
X4273659Y47691027D02*
X4368897Y47738646D01*
X4368897Y47738646D02*
X4416516Y47786265D01*
X4416516Y47786265D02*
X4464135Y47881503D01*
X4464135Y47881503D02*
X4464135Y48024360D01*
X4464135Y48024360D02*
X4416516Y48119598D01*
X4416516Y48119598D02*
X4368897Y48167217D01*
X4368897Y48167217D02*
X4273659Y48214836D01*
X4273659Y48214836D02*
X3987945Y48214836D01*
X3987945Y48214836D02*
X3892707Y48167217D01*
X3892707Y48167217D02*
X3845088Y48119598D01*
X3845088Y48119598D02*
X3797468Y48024360D01*
X3797468Y48024360D02*
X3797468Y47881503D01*
X4464135Y49071979D02*
X3654611Y49071979D01*
X3654611Y49071979D02*
X3559373Y49024360D01*
X3559373Y49024360D02*
X3511754Y48976741D01*
X3511754Y48976741D02*
X3464135Y48881503D01*
X3464135Y48881503D02*
X3464135Y48738646D01*
X3464135Y48738646D02*
X3511754Y48643408D01*
X3845088Y49071979D02*
X3797468Y48976741D01*
X3797468Y48976741D02*
X3797468Y48786265D01*
X3797468Y48786265D02*
X3845088Y48691027D01*
X3845088Y48691027D02*
X3892707Y48643408D01*
X3892707Y48643408D02*
X3987945Y48595789D01*
X3987945Y48595789D02*
X4273659Y48595789D01*
X4273659Y48595789D02*
X4368897Y48643408D01*
X4368897Y48643408D02*
X4416516Y48691027D01*
X4416516Y48691027D02*
X4464135Y48786265D01*
X4464135Y48786265D02*
X4464135Y48976741D01*
X4464135Y48976741D02*
X4416516Y49071979D01*
X3797468Y49548170D02*
X4464135Y49548170D01*
X4797468Y49548170D02*
X4749849Y49500551D01*
X4749849Y49500551D02*
X4702230Y49548170D01*
X4702230Y49548170D02*
X4749849Y49595789D01*
X4749849Y49595789D02*
X4797468Y49548170D01*
X4797468Y49548170D02*
X4702230Y49548170D01*
X3845088Y50452931D02*
X3797468Y50357693D01*
X3797468Y50357693D02*
X3797468Y50167217D01*
X3797468Y50167217D02*
X3845088Y50071979D01*
X3845088Y50071979D02*
X3892707Y50024360D01*
X3892707Y50024360D02*
X3987945Y49976741D01*
X3987945Y49976741D02*
X4273659Y49976741D01*
X4273659Y49976741D02*
X4368897Y50024360D01*
X4368897Y50024360D02*
X4416516Y50071979D01*
X4416516Y50071979D02*
X4464135Y50167217D01*
X4464135Y50167217D02*
X4464135Y50357693D01*
X4464135Y50357693D02*
X4416516Y50452931D01*
X3797468Y51786265D02*
X3845088Y51691027D01*
X3845088Y51691027D02*
X3940326Y51643408D01*
X3940326Y51643408D02*
X4797468Y51643408D01*
X3845088Y52548170D02*
X3797468Y52452932D01*
X3797468Y52452932D02*
X3797468Y52262456D01*
X3797468Y52262456D02*
X3845088Y52167218D01*
X3845088Y52167218D02*
X3940326Y52119599D01*
X3940326Y52119599D02*
X4321278Y52119599D01*
X4321278Y52119599D02*
X4416516Y52167218D01*
X4416516Y52167218D02*
X4464135Y52262456D01*
X4464135Y52262456D02*
X4464135Y52452932D01*
X4464135Y52452932D02*
X4416516Y52548170D01*
X4416516Y52548170D02*
X4321278Y52595789D01*
X4321278Y52595789D02*
X4226040Y52595789D01*
X4226040Y52595789D02*
X4130802Y52119599D01*
X4464135Y52929123D02*
X3797468Y53167218D01*
X3797468Y53167218D02*
X4464135Y53405313D01*
X3845088Y54167218D02*
X3797468Y54071980D01*
X3797468Y54071980D02*
X3797468Y53881504D01*
X3797468Y53881504D02*
X3845088Y53786266D01*
X3845088Y53786266D02*
X3940326Y53738647D01*
X3940326Y53738647D02*
X4321278Y53738647D01*
X4321278Y53738647D02*
X4416516Y53786266D01*
X4416516Y53786266D02*
X4464135Y53881504D01*
X4464135Y53881504D02*
X4464135Y54071980D01*
X4464135Y54071980D02*
X4416516Y54167218D01*
X4416516Y54167218D02*
X4321278Y54214837D01*
X4321278Y54214837D02*
X4226040Y54214837D01*
X4226040Y54214837D02*
X4130802Y53738647D01*
X3797468Y54786266D02*
X3845088Y54691028D01*
X3845088Y54691028D02*
X3940326Y54643409D01*
X3940326Y54643409D02*
X4797468Y54643409D01*
X3797468Y56071981D02*
X3845088Y55976743D01*
X3845088Y55976743D02*
X3892707Y55929124D01*
X3892707Y55929124D02*
X3987945Y55881505D01*
X3987945Y55881505D02*
X4273659Y55881505D01*
X4273659Y55881505D02*
X4368897Y55929124D01*
X4368897Y55929124D02*
X4416516Y55976743D01*
X4416516Y55976743D02*
X4464135Y56071981D01*
X4464135Y56071981D02*
X4464135Y56214838D01*
X4464135Y56214838D02*
X4416516Y56310076D01*
X4416516Y56310076D02*
X4368897Y56357695D01*
X4368897Y56357695D02*
X4273659Y56405314D01*
X4273659Y56405314D02*
X3987945Y56405314D01*
X3987945Y56405314D02*
X3892707Y56357695D01*
X3892707Y56357695D02*
X3845088Y56310076D01*
X3845088Y56310076D02*
X3797468Y56214838D01*
X3797468Y56214838D02*
X3797468Y56071981D01*
X4464135Y57262457D02*
X3797468Y57262457D01*
X4464135Y56833886D02*
X3940326Y56833886D01*
X3940326Y56833886D02*
X3845088Y56881505D01*
X3845088Y56881505D02*
X3797468Y56976743D01*
X3797468Y56976743D02*
X3797468Y57119600D01*
X3797468Y57119600D02*
X3845088Y57214838D01*
X3845088Y57214838D02*
X3892707Y57262457D01*
X4464135Y57595791D02*
X4464135Y57976743D01*
X4797468Y57738648D02*
X3940326Y57738648D01*
X3940326Y57738648D02*
X3845088Y57786267D01*
X3845088Y57786267D02*
X3797468Y57881505D01*
X3797468Y57881505D02*
X3797468Y57976743D01*
X4464135Y58310077D02*
X3464135Y58310077D01*
X4416516Y58310077D02*
X4464135Y58405315D01*
X4464135Y58405315D02*
X4464135Y58595791D01*
X4464135Y58595791D02*
X4416516Y58691029D01*
X4416516Y58691029D02*
X4368897Y58738648D01*
X4368897Y58738648D02*
X4273659Y58786267D01*
X4273659Y58786267D02*
X3987945Y58786267D01*
X3987945Y58786267D02*
X3892707Y58738648D01*
X3892707Y58738648D02*
X3845088Y58691029D01*
X3845088Y58691029D02*
X3797468Y58595791D01*
X3797468Y58595791D02*
X3797468Y58405315D01*
X3797468Y58405315D02*
X3845088Y58310077D01*
X4464135Y59643410D02*
X3797468Y59643410D01*
X4464135Y59214839D02*
X3940326Y59214839D01*
X3940326Y59214839D02*
X3845088Y59262458D01*
X3845088Y59262458D02*
X3797468Y59357696D01*
X3797468Y59357696D02*
X3797468Y59500553D01*
X3797468Y59500553D02*
X3845088Y59595791D01*
X3845088Y59595791D02*
X3892707Y59643410D01*
X4464135Y59976744D02*
X4464135Y60357696D01*
X4797468Y60119601D02*
X3940326Y60119601D01*
X3940326Y60119601D02*
X3845088Y60167220D01*
X3845088Y60167220D02*
X3797468Y60262458D01*
X3797468Y60262458D02*
X3797468Y60357696D01*
X3845088Y60643411D02*
X3797468Y60738649D01*
X3797468Y60738649D02*
X3797468Y60929125D01*
X3797468Y60929125D02*
X3845088Y61024363D01*
X3845088Y61024363D02*
X3940326Y61071982D01*
X3940326Y61071982D02*
X3987945Y61071982D01*
X3987945Y61071982D02*
X4083183Y61024363D01*
X4083183Y61024363D02*
X4130802Y60929125D01*
X4130802Y60929125D02*
X4130802Y60786268D01*
X4130802Y60786268D02*
X4178421Y60691030D01*
X4178421Y60691030D02*
X4273659Y60643411D01*
X4273659Y60643411D02*
X4321278Y60643411D01*
X4321278Y60643411D02*
X4416516Y60691030D01*
X4416516Y60691030D02*
X4464135Y60786268D01*
X4464135Y60786268D02*
X4464135Y60929125D01*
X4464135Y60929125D02*
X4416516Y61024363D01*
X3797468Y62262459D02*
X4797468Y62262459D01*
X4416516Y62262459D02*
X4464135Y62357697D01*
X4464135Y62357697D02*
X4464135Y62548173D01*
X4464135Y62548173D02*
X4416516Y62643411D01*
X4416516Y62643411D02*
X4368897Y62691030D01*
X4368897Y62691030D02*
X4273659Y62738649D01*
X4273659Y62738649D02*
X3987945Y62738649D01*
X3987945Y62738649D02*
X3892707Y62691030D01*
X3892707Y62691030D02*
X3845088Y62643411D01*
X3845088Y62643411D02*
X3797468Y62548173D01*
X3797468Y62548173D02*
X3797468Y62357697D01*
X3797468Y62357697D02*
X3845088Y62262459D01*
X4464135Y63071983D02*
X3797468Y63310078D01*
X4464135Y63548173D02*
X3797468Y63310078D01*
X3797468Y63310078D02*
X3559373Y63214840D01*
X3559373Y63214840D02*
X3511754Y63167221D01*
X3511754Y63167221D02*
X3464135Y63071983D01*
X3797468Y65119602D02*
X4797468Y65119602D01*
X3845088Y65119602D02*
X3797468Y65024364D01*
X3797468Y65024364D02*
X3797468Y64833888D01*
X3797468Y64833888D02*
X3845088Y64738650D01*
X3845088Y64738650D02*
X3892707Y64691031D01*
X3892707Y64691031D02*
X3987945Y64643412D01*
X3987945Y64643412D02*
X4273659Y64643412D01*
X4273659Y64643412D02*
X4368897Y64691031D01*
X4368897Y64691031D02*
X4416516Y64738650D01*
X4416516Y64738650D02*
X4464135Y64833888D01*
X4464135Y64833888D02*
X4464135Y65024364D01*
X4464135Y65024364D02*
X4416516Y65119602D01*
X3845088Y65976745D02*
X3797468Y65881507D01*
X3797468Y65881507D02*
X3797468Y65691031D01*
X3797468Y65691031D02*
X3845088Y65595793D01*
X3845088Y65595793D02*
X3940326Y65548174D01*
X3940326Y65548174D02*
X4321278Y65548174D01*
X4321278Y65548174D02*
X4416516Y65595793D01*
X4416516Y65595793D02*
X4464135Y65691031D01*
X4464135Y65691031D02*
X4464135Y65881507D01*
X4464135Y65881507D02*
X4416516Y65976745D01*
X4416516Y65976745D02*
X4321278Y66024364D01*
X4321278Y66024364D02*
X4226040Y66024364D01*
X4226040Y66024364D02*
X4130802Y65548174D01*
X4464135Y66310079D02*
X4464135Y66691031D01*
X3797468Y66452936D02*
X4654611Y66452936D01*
X4654611Y66452936D02*
X4749849Y66500555D01*
X4749849Y66500555D02*
X4797468Y66595793D01*
X4797468Y66595793D02*
X4797468Y66691031D01*
X3797468Y67452936D02*
X4321278Y67452936D01*
X4321278Y67452936D02*
X4416516Y67405317D01*
X4416516Y67405317D02*
X4464135Y67310079D01*
X4464135Y67310079D02*
X4464135Y67119603D01*
X4464135Y67119603D02*
X4416516Y67024365D01*
X3845088Y67452936D02*
X3797468Y67357698D01*
X3797468Y67357698D02*
X3797468Y67119603D01*
X3797468Y67119603D02*
X3845088Y67024365D01*
X3845088Y67024365D02*
X3940326Y66976746D01*
X3940326Y66976746D02*
X4035564Y66976746D01*
X4035564Y66976746D02*
X4130802Y67024365D01*
X4130802Y67024365D02*
X4178421Y67119603D01*
X4178421Y67119603D02*
X4178421Y67357698D01*
X4178421Y67357698D02*
X4226040Y67452936D01*
X4464135Y68357698D02*
X3797468Y68357698D01*
X4464135Y67929127D02*
X3940326Y67929127D01*
X3940326Y67929127D02*
X3845088Y67976746D01*
X3845088Y67976746D02*
X3797468Y68071984D01*
X3797468Y68071984D02*
X3797468Y68214841D01*
X3797468Y68214841D02*
X3845088Y68310079D01*
X3845088Y68310079D02*
X3892707Y68357698D01*
X3797468Y68976746D02*
X3845088Y68881508D01*
X3845088Y68881508D02*
X3940326Y68833889D01*
X3940326Y68833889D02*
X4797468Y68833889D01*
X4464135Y69214842D02*
X4464135Y69595794D01*
X4797468Y69357699D02*
X3940326Y69357699D01*
X3940326Y69357699D02*
X3845088Y69405318D01*
X3845088Y69405318D02*
X3797468Y69500556D01*
X3797468Y69500556D02*
X3797468Y69595794D01*
X2854191Y40691027D02*
X2854191Y41071979D01*
X3187524Y40833884D02*
X2330382Y40833884D01*
X2330382Y40833884D02*
X2235144Y40881503D01*
X2235144Y40881503D02*
X2187524Y40976741D01*
X2187524Y40976741D02*
X2187524Y41071979D01*
X2187524Y41548170D02*
X2235144Y41452932D01*
X2235144Y41452932D02*
X2282763Y41405313D01*
X2282763Y41405313D02*
X2378001Y41357694D01*
X2378001Y41357694D02*
X2663715Y41357694D01*
X2663715Y41357694D02*
X2758953Y41405313D01*
X2758953Y41405313D02*
X2806572Y41452932D01*
X2806572Y41452932D02*
X2854191Y41548170D01*
X2854191Y41548170D02*
X2854191Y41691027D01*
X2854191Y41691027D02*
X2806572Y41786265D01*
X2806572Y41786265D02*
X2758953Y41833884D01*
X2758953Y41833884D02*
X2663715Y41881503D01*
X2663715Y41881503D02*
X2378001Y41881503D01*
X2378001Y41881503D02*
X2282763Y41833884D01*
X2282763Y41833884D02*
X2235144Y41786265D01*
X2235144Y41786265D02*
X2187524Y41691027D01*
X2187524Y41691027D02*
X2187524Y41548170D01*
X2235144Y43500551D02*
X2187524Y43405313D01*
X2187524Y43405313D02*
X2187524Y43214837D01*
X2187524Y43214837D02*
X2235144Y43119599D01*
X2235144Y43119599D02*
X2282763Y43071980D01*
X2282763Y43071980D02*
X2378001Y43024361D01*
X2378001Y43024361D02*
X2663715Y43024361D01*
X2663715Y43024361D02*
X2758953Y43071980D01*
X2758953Y43071980D02*
X2806572Y43119599D01*
X2806572Y43119599D02*
X2854191Y43214837D01*
X2854191Y43214837D02*
X2854191Y43405313D01*
X2854191Y43405313D02*
X2806572Y43500551D01*
X2187524Y44071980D02*
X2235144Y43976742D01*
X2235144Y43976742D02*
X2282763Y43929123D01*
X2282763Y43929123D02*
X2378001Y43881504D01*
X2378001Y43881504D02*
X2663715Y43881504D01*
X2663715Y43881504D02*
X2758953Y43929123D01*
X2758953Y43929123D02*
X2806572Y43976742D01*
X2806572Y43976742D02*
X2854191Y44071980D01*
X2854191Y44071980D02*
X2854191Y44214837D01*
X2854191Y44214837D02*
X2806572Y44310075D01*
X2806572Y44310075D02*
X2758953Y44357694D01*
X2758953Y44357694D02*
X2663715Y44405313D01*
X2663715Y44405313D02*
X2378001Y44405313D01*
X2378001Y44405313D02*
X2282763Y44357694D01*
X2282763Y44357694D02*
X2235144Y44310075D01*
X2235144Y44310075D02*
X2187524Y44214837D01*
X2187524Y44214837D02*
X2187524Y44071980D01*
X2854191Y44833885D02*
X2187524Y44833885D01*
X2758953Y44833885D02*
X2806572Y44881504D01*
X2806572Y44881504D02*
X2854191Y44976742D01*
X2854191Y44976742D02*
X2854191Y45119599D01*
X2854191Y45119599D02*
X2806572Y45214837D01*
X2806572Y45214837D02*
X2711334Y45262456D01*
X2711334Y45262456D02*
X2187524Y45262456D01*
X2854191Y45595790D02*
X2854191Y45976742D01*
X3187524Y45738647D02*
X2330382Y45738647D01*
X2330382Y45738647D02*
X2235144Y45786266D01*
X2235144Y45786266D02*
X2187524Y45881504D01*
X2187524Y45881504D02*
X2187524Y45976742D01*
X2187524Y46310076D02*
X2854191Y46310076D01*
X2663715Y46310076D02*
X2758953Y46357695D01*
X2758953Y46357695D02*
X2806572Y46405314D01*
X2806572Y46405314D02*
X2854191Y46500552D01*
X2854191Y46500552D02*
X2854191Y46595790D01*
X2187524Y47071981D02*
X2235144Y46976743D01*
X2235144Y46976743D02*
X2282763Y46929124D01*
X2282763Y46929124D02*
X2378001Y46881505D01*
X2378001Y46881505D02*
X2663715Y46881505D01*
X2663715Y46881505D02*
X2758953Y46929124D01*
X2758953Y46929124D02*
X2806572Y46976743D01*
X2806572Y46976743D02*
X2854191Y47071981D01*
X2854191Y47071981D02*
X2854191Y47214838D01*
X2854191Y47214838D02*
X2806572Y47310076D01*
X2806572Y47310076D02*
X2758953Y47357695D01*
X2758953Y47357695D02*
X2663715Y47405314D01*
X2663715Y47405314D02*
X2378001Y47405314D01*
X2378001Y47405314D02*
X2282763Y47357695D01*
X2282763Y47357695D02*
X2235144Y47310076D01*
X2235144Y47310076D02*
X2187524Y47214838D01*
X2187524Y47214838D02*
X2187524Y47071981D01*
X2187524Y47976743D02*
X2235144Y47881505D01*
X2235144Y47881505D02*
X2330382Y47833886D01*
X2330382Y47833886D02*
X3187524Y47833886D01*
X2187524Y49548172D02*
X3187524Y49548172D01*
X2235144Y49548172D02*
X2187524Y49452934D01*
X2187524Y49452934D02*
X2187524Y49262458D01*
X2187524Y49262458D02*
X2235144Y49167220D01*
X2235144Y49167220D02*
X2282763Y49119601D01*
X2282763Y49119601D02*
X2378001Y49071982D01*
X2378001Y49071982D02*
X2663715Y49071982D01*
X2663715Y49071982D02*
X2758953Y49119601D01*
X2758953Y49119601D02*
X2806572Y49167220D01*
X2806572Y49167220D02*
X2854191Y49262458D01*
X2854191Y49262458D02*
X2854191Y49452934D01*
X2854191Y49452934D02*
X2806572Y49548172D01*
X2854191Y50452934D02*
X2187524Y50452934D01*
X2854191Y50024363D02*
X2330382Y50024363D01*
X2330382Y50024363D02*
X2235144Y50071982D01*
X2235144Y50071982D02*
X2187524Y50167220D01*
X2187524Y50167220D02*
X2187524Y50310077D01*
X2187524Y50310077D02*
X2235144Y50405315D01*
X2235144Y50405315D02*
X2282763Y50452934D01*
X2187524Y50929125D02*
X2854191Y50929125D01*
X2758953Y50929125D02*
X2806572Y50976744D01*
X2806572Y50976744D02*
X2854191Y51071982D01*
X2854191Y51071982D02*
X2854191Y51214839D01*
X2854191Y51214839D02*
X2806572Y51310077D01*
X2806572Y51310077D02*
X2711334Y51357696D01*
X2711334Y51357696D02*
X2187524Y51357696D01*
X2711334Y51357696D02*
X2806572Y51405315D01*
X2806572Y51405315D02*
X2854191Y51500553D01*
X2854191Y51500553D02*
X2854191Y51643410D01*
X2854191Y51643410D02*
X2806572Y51738649D01*
X2806572Y51738649D02*
X2711334Y51786268D01*
X2711334Y51786268D02*
X2187524Y51786268D01*
X2187524Y52262458D02*
X3187524Y52262458D01*
X2806572Y52262458D02*
X2854191Y52357696D01*
X2854191Y52357696D02*
X2854191Y52548172D01*
X2854191Y52548172D02*
X2806572Y52643410D01*
X2806572Y52643410D02*
X2758953Y52691029D01*
X2758953Y52691029D02*
X2663715Y52738648D01*
X2663715Y52738648D02*
X2378001Y52738648D01*
X2378001Y52738648D02*
X2282763Y52691029D01*
X2282763Y52691029D02*
X2235144Y52643410D01*
X2235144Y52643410D02*
X2187524Y52548172D01*
X2187524Y52548172D02*
X2187524Y52357696D01*
X2187524Y52357696D02*
X2235144Y52262458D01*
X2235144Y54357696D02*
X2187524Y54262458D01*
X2187524Y54262458D02*
X2187524Y54071982D01*
X2187524Y54071982D02*
X2235144Y53976744D01*
X2235144Y53976744D02*
X2282763Y53929125D01*
X2282763Y53929125D02*
X2378001Y53881506D01*
X2378001Y53881506D02*
X2663715Y53881506D01*
X2663715Y53881506D02*
X2758953Y53929125D01*
X2758953Y53929125D02*
X2806572Y53976744D01*
X2806572Y53976744D02*
X2854191Y54071982D01*
X2854191Y54071982D02*
X2854191Y54262458D01*
X2854191Y54262458D02*
X2806572Y54357696D01*
X2187524Y54929125D02*
X2235144Y54833887D01*
X2235144Y54833887D02*
X2282763Y54786268D01*
X2282763Y54786268D02*
X2378001Y54738649D01*
X2378001Y54738649D02*
X2663715Y54738649D01*
X2663715Y54738649D02*
X2758953Y54786268D01*
X2758953Y54786268D02*
X2806572Y54833887D01*
X2806572Y54833887D02*
X2854191Y54929125D01*
X2854191Y54929125D02*
X2854191Y55071982D01*
X2854191Y55071982D02*
X2806572Y55167220D01*
X2806572Y55167220D02*
X2758953Y55214839D01*
X2758953Y55214839D02*
X2663715Y55262458D01*
X2663715Y55262458D02*
X2378001Y55262458D01*
X2378001Y55262458D02*
X2282763Y55214839D01*
X2282763Y55214839D02*
X2235144Y55167220D01*
X2235144Y55167220D02*
X2187524Y55071982D01*
X2187524Y55071982D02*
X2187524Y54929125D01*
X2187524Y55691030D02*
X2854191Y55691030D01*
X3187524Y55691030D02*
X3139905Y55643411D01*
X3139905Y55643411D02*
X3092286Y55691030D01*
X3092286Y55691030D02*
X3139905Y55738649D01*
X3139905Y55738649D02*
X3187524Y55691030D01*
X3187524Y55691030D02*
X3092286Y55691030D01*
X2187524Y56310077D02*
X2235144Y56214839D01*
X2235144Y56214839D02*
X2330382Y56167220D01*
X2330382Y56167220D02*
X3187524Y56167220D01*
X2235144Y56643411D02*
X2187524Y56738649D01*
X2187524Y56738649D02*
X2187524Y56929125D01*
X2187524Y56929125D02*
X2235144Y57024363D01*
X2235144Y57024363D02*
X2330382Y57071982D01*
X2330382Y57071982D02*
X2378001Y57071982D01*
X2378001Y57071982D02*
X2473239Y57024363D01*
X2473239Y57024363D02*
X2520858Y56929125D01*
X2520858Y56929125D02*
X2520858Y56786268D01*
X2520858Y56786268D02*
X2568477Y56691030D01*
X2568477Y56691030D02*
X2663715Y56643411D01*
X2663715Y56643411D02*
X2711334Y56643411D01*
X2711334Y56643411D02*
X2806572Y56691030D01*
X2806572Y56691030D02*
X2854191Y56786268D01*
X2854191Y56786268D02*
X2854191Y56929125D01*
X2854191Y56929125D02*
X2806572Y57024363D01*
X2187524Y58262459D02*
X2854191Y58262459D01*
X2663715Y58262459D02*
X2758953Y58310078D01*
X2758953Y58310078D02*
X2806572Y58357697D01*
X2806572Y58357697D02*
X2854191Y58452935D01*
X2854191Y58452935D02*
X2854191Y58548173D01*
X2235144Y59262459D02*
X2187524Y59167221D01*
X2187524Y59167221D02*
X2187524Y58976745D01*
X2187524Y58976745D02*
X2235144Y58881507D01*
X2235144Y58881507D02*
X2330382Y58833888D01*
X2330382Y58833888D02*
X2711334Y58833888D01*
X2711334Y58833888D02*
X2806572Y58881507D01*
X2806572Y58881507D02*
X2854191Y58976745D01*
X2854191Y58976745D02*
X2854191Y59167221D01*
X2854191Y59167221D02*
X2806572Y59262459D01*
X2806572Y59262459D02*
X2711334Y59310078D01*
X2711334Y59310078D02*
X2616096Y59310078D01*
X2616096Y59310078D02*
X2520858Y58833888D01*
X2187524Y59738650D02*
X2854191Y59738650D01*
X2758953Y59738650D02*
X2806572Y59786269D01*
X2806572Y59786269D02*
X2854191Y59881507D01*
X2854191Y59881507D02*
X2854191Y60024364D01*
X2854191Y60024364D02*
X2806572Y60119602D01*
X2806572Y60119602D02*
X2711334Y60167221D01*
X2711334Y60167221D02*
X2187524Y60167221D01*
X2711334Y60167221D02*
X2806572Y60214840D01*
X2806572Y60214840D02*
X2854191Y60310078D01*
X2854191Y60310078D02*
X2854191Y60452935D01*
X2854191Y60452935D02*
X2806572Y60548174D01*
X2806572Y60548174D02*
X2711334Y60595793D01*
X2711334Y60595793D02*
X2187524Y60595793D01*
X2187524Y61214840D02*
X2235144Y61119602D01*
X2235144Y61119602D02*
X2282763Y61071983D01*
X2282763Y61071983D02*
X2378001Y61024364D01*
X2378001Y61024364D02*
X2663715Y61024364D01*
X2663715Y61024364D02*
X2758953Y61071983D01*
X2758953Y61071983D02*
X2806572Y61119602D01*
X2806572Y61119602D02*
X2854191Y61214840D01*
X2854191Y61214840D02*
X2854191Y61357697D01*
X2854191Y61357697D02*
X2806572Y61452935D01*
X2806572Y61452935D02*
X2758953Y61500554D01*
X2758953Y61500554D02*
X2663715Y61548173D01*
X2663715Y61548173D02*
X2378001Y61548173D01*
X2378001Y61548173D02*
X2282763Y61500554D01*
X2282763Y61500554D02*
X2235144Y61452935D01*
X2235144Y61452935D02*
X2187524Y61357697D01*
X2187524Y61357697D02*
X2187524Y61214840D01*
X2854191Y61881507D02*
X2187524Y62119602D01*
X2187524Y62119602D02*
X2854191Y62357697D01*
X2235144Y63119602D02*
X2187524Y63024364D01*
X2187524Y63024364D02*
X2187524Y62833888D01*
X2187524Y62833888D02*
X2235144Y62738650D01*
X2235144Y62738650D02*
X2330382Y62691031D01*
X2330382Y62691031D02*
X2711334Y62691031D01*
X2711334Y62691031D02*
X2806572Y62738650D01*
X2806572Y62738650D02*
X2854191Y62833888D01*
X2854191Y62833888D02*
X2854191Y63024364D01*
X2854191Y63024364D02*
X2806572Y63119602D01*
X2806572Y63119602D02*
X2711334Y63167221D01*
X2711334Y63167221D02*
X2616096Y63167221D01*
X2616096Y63167221D02*
X2520858Y62691031D01*
X2187524Y64929126D02*
X2663715Y64595793D01*
X2187524Y64357698D02*
X3187524Y64357698D01*
X3187524Y64357698D02*
X3187524Y64738650D01*
X3187524Y64738650D02*
X3139905Y64833888D01*
X3139905Y64833888D02*
X3092286Y64881507D01*
X3092286Y64881507D02*
X2997048Y64929126D01*
X2997048Y64929126D02*
X2854191Y64929126D01*
X2854191Y64929126D02*
X2758953Y64881507D01*
X2758953Y64881507D02*
X2711334Y64833888D01*
X2711334Y64833888D02*
X2663715Y64738650D01*
X2663715Y64738650D02*
X2663715Y64357698D01*
X3092286Y65310079D02*
X3139905Y65357698D01*
X3139905Y65357698D02*
X3187524Y65452936D01*
X3187524Y65452936D02*
X3187524Y65691031D01*
X3187524Y65691031D02*
X3139905Y65786269D01*
X3139905Y65786269D02*
X3092286Y65833888D01*
X3092286Y65833888D02*
X2997048Y65881507D01*
X2997048Y65881507D02*
X2901810Y65881507D01*
X2901810Y65881507D02*
X2758953Y65833888D01*
X2758953Y65833888D02*
X2187524Y65262460D01*
X2187524Y65262460D02*
X2187524Y65881507D01*
X3187524Y66500555D02*
X3187524Y66595793D01*
X3187524Y66595793D02*
X3139905Y66691031D01*
X3139905Y66691031D02*
X3092286Y66738650D01*
X3092286Y66738650D02*
X2997048Y66786269D01*
X2997048Y66786269D02*
X2806572Y66833888D01*
X2806572Y66833888D02*
X2568477Y66833888D01*
X2568477Y66833888D02*
X2378001Y66786269D01*
X2378001Y66786269D02*
X2282763Y66738650D01*
X2282763Y66738650D02*
X2235144Y66691031D01*
X2235144Y66691031D02*
X2187524Y66595793D01*
X2187524Y66595793D02*
X2187524Y66500555D01*
X2187524Y66500555D02*
X2235144Y66405317D01*
X2235144Y66405317D02*
X2282763Y66357698D01*
X2282763Y66357698D02*
X2378001Y66310079D01*
X2378001Y66310079D02*
X2568477Y66262460D01*
X2568477Y66262460D02*
X2806572Y66262460D01*
X2806572Y66262460D02*
X2997048Y66310079D01*
X2997048Y66310079D02*
X3092286Y66357698D01*
X3092286Y66357698D02*
X3139905Y66405317D01*
X3139905Y66405317D02*
X3187524Y66500555D01*
X2568477Y67262460D02*
X2568477Y68024365D01*
X2187524Y69071983D02*
X2663715Y68738650D01*
X2187524Y68500555D02*
X3187524Y68500555D01*
X3187524Y68500555D02*
X3187524Y68881507D01*
X3187524Y68881507D02*
X3139905Y68976745D01*
X3139905Y68976745D02*
X3092286Y69024364D01*
X3092286Y69024364D02*
X2997048Y69071983D01*
X2997048Y69071983D02*
X2854191Y69071983D01*
X2854191Y69071983D02*
X2758953Y69024364D01*
X2758953Y69024364D02*
X2711334Y68976745D01*
X2711334Y68976745D02*
X2663715Y68881507D01*
X2663715Y68881507D02*
X2663715Y68500555D01*
X3092286Y69452936D02*
X3139905Y69500555D01*
X3139905Y69500555D02*
X3187524Y69595793D01*
X3187524Y69595793D02*
X3187524Y69833888D01*
X3187524Y69833888D02*
X3139905Y69929126D01*
X3139905Y69929126D02*
X3092286Y69976745D01*
X3092286Y69976745D02*
X2997048Y70024364D01*
X2997048Y70024364D02*
X2901810Y70024364D01*
X2901810Y70024364D02*
X2758953Y69976745D01*
X2758953Y69976745D02*
X2187524Y69405317D01*
X2187524Y69405317D02*
X2187524Y70024364D01*
X3092286Y70405317D02*
X3139905Y70452936D01*
X3139905Y70452936D02*
X3187524Y70548174D01*
X3187524Y70548174D02*
X3187524Y70786269D01*
X3187524Y70786269D02*
X3139905Y70881507D01*
X3139905Y70881507D02*
X3092286Y70929126D01*
X3092286Y70929126D02*
X2997048Y70976745D01*
X2997048Y70976745D02*
X2901810Y70976745D01*
X2901810Y70976745D02*
X2758953Y70929126D01*
X2758953Y70929126D02*
X2187524Y70357698D01*
X2187524Y70357698D02*
X2187524Y70976745D01*
X2235144Y71452936D02*
X2187524Y71452936D01*
X2187524Y71452936D02*
X2092286Y71405317D01*
X2092286Y71405317D02*
X2044667Y71357698D01*
X577580Y41405312D02*
X1053771Y41071979D01*
X577580Y40833884D02*
X1577580Y40833884D01*
X1577580Y40833884D02*
X1577580Y41214836D01*
X1577580Y41214836D02*
X1529961Y41310074D01*
X1529961Y41310074D02*
X1482342Y41357693D01*
X1482342Y41357693D02*
X1387104Y41405312D01*
X1387104Y41405312D02*
X1244247Y41405312D01*
X1244247Y41405312D02*
X1149009Y41357693D01*
X1149009Y41357693D02*
X1101390Y41310074D01*
X1101390Y41310074D02*
X1053771Y41214836D01*
X1053771Y41214836D02*
X1053771Y40833884D01*
X1482342Y41786265D02*
X1529961Y41833884D01*
X1529961Y41833884D02*
X1577580Y41929122D01*
X1577580Y41929122D02*
X1577580Y42167217D01*
X1577580Y42167217D02*
X1529961Y42262455D01*
X1529961Y42262455D02*
X1482342Y42310074D01*
X1482342Y42310074D02*
X1387104Y42357693D01*
X1387104Y42357693D02*
X1291866Y42357693D01*
X1291866Y42357693D02*
X1149009Y42310074D01*
X1149009Y42310074D02*
X577580Y41738646D01*
X577580Y41738646D02*
X577580Y42357693D01*
X1577580Y43214836D02*
X1577580Y43024360D01*
X1577580Y43024360D02*
X1529961Y42929122D01*
X1529961Y42929122D02*
X1482342Y42881503D01*
X1482342Y42881503D02*
X1339485Y42786265D01*
X1339485Y42786265D02*
X1149009Y42738646D01*
X1149009Y42738646D02*
X768057Y42738646D01*
X768057Y42738646D02*
X672819Y42786265D01*
X672819Y42786265D02*
X625200Y42833884D01*
X625200Y42833884D02*
X577580Y42929122D01*
X577580Y42929122D02*
X577580Y43119598D01*
X577580Y43119598D02*
X625200Y43214836D01*
X625200Y43214836D02*
X672819Y43262455D01*
X672819Y43262455D02*
X768057Y43310074D01*
X768057Y43310074D02*
X1006152Y43310074D01*
X1006152Y43310074D02*
X1101390Y43262455D01*
X1101390Y43262455D02*
X1149009Y43214836D01*
X1149009Y43214836D02*
X1196628Y43119598D01*
X1196628Y43119598D02*
X1196628Y42929122D01*
X1196628Y42929122D02*
X1149009Y42833884D01*
X1149009Y42833884D02*
X1101390Y42786265D01*
X1101390Y42786265D02*
X1006152Y42738646D01*
X958533Y43738646D02*
X958533Y44500551D01*
X577580Y45548169D02*
X1053771Y45214836D01*
X577580Y44976741D02*
X1577580Y44976741D01*
X1577580Y44976741D02*
X1577580Y45357693D01*
X1577580Y45357693D02*
X1529961Y45452931D01*
X1529961Y45452931D02*
X1482342Y45500550D01*
X1482342Y45500550D02*
X1387104Y45548169D01*
X1387104Y45548169D02*
X1244247Y45548169D01*
X1244247Y45548169D02*
X1149009Y45500550D01*
X1149009Y45500550D02*
X1101390Y45452931D01*
X1101390Y45452931D02*
X1053771Y45357693D01*
X1053771Y45357693D02*
X1053771Y44976741D01*
X1482342Y45929122D02*
X1529961Y45976741D01*
X1529961Y45976741D02*
X1577580Y46071979D01*
X1577580Y46071979D02*
X1577580Y46310074D01*
X1577580Y46310074D02*
X1529961Y46405312D01*
X1529961Y46405312D02*
X1482342Y46452931D01*
X1482342Y46452931D02*
X1387104Y46500550D01*
X1387104Y46500550D02*
X1291866Y46500550D01*
X1291866Y46500550D02*
X1149009Y46452931D01*
X1149009Y46452931D02*
X577580Y45881503D01*
X577580Y45881503D02*
X577580Y46500550D01*
X1149009Y47071979D02*
X1196628Y46976741D01*
X1196628Y46976741D02*
X1244247Y46929122D01*
X1244247Y46929122D02*
X1339485Y46881503D01*
X1339485Y46881503D02*
X1387104Y46881503D01*
X1387104Y46881503D02*
X1482342Y46929122D01*
X1482342Y46929122D02*
X1529961Y46976741D01*
X1529961Y46976741D02*
X1577580Y47071979D01*
X1577580Y47071979D02*
X1577580Y47262455D01*
X1577580Y47262455D02*
X1529961Y47357693D01*
X1529961Y47357693D02*
X1482342Y47405312D01*
X1482342Y47405312D02*
X1387104Y47452931D01*
X1387104Y47452931D02*
X1339485Y47452931D01*
X1339485Y47452931D02*
X1244247Y47405312D01*
X1244247Y47405312D02*
X1196628Y47357693D01*
X1196628Y47357693D02*
X1149009Y47262455D01*
X1149009Y47262455D02*
X1149009Y47071979D01*
X1149009Y47071979D02*
X1101390Y46976741D01*
X1101390Y46976741D02*
X1053771Y46929122D01*
X1053771Y46929122D02*
X958533Y46881503D01*
X958533Y46881503D02*
X768057Y46881503D01*
X768057Y46881503D02*
X672819Y46929122D01*
X672819Y46929122D02*
X625200Y46976741D01*
X625200Y46976741D02*
X577580Y47071979D01*
X577580Y47071979D02*
X577580Y47262455D01*
X577580Y47262455D02*
X625200Y47357693D01*
X625200Y47357693D02*
X672819Y47405312D01*
X672819Y47405312D02*
X768057Y47452931D01*
X768057Y47452931D02*
X958533Y47452931D01*
X958533Y47452931D02*
X1053771Y47405312D01*
X1053771Y47405312D02*
X1101390Y47357693D01*
X1101390Y47357693D02*
X1149009Y47262455D01*
X577580Y49071979D02*
X1101390Y49071979D01*
X1101390Y49071979D02*
X1196628Y49024360D01*
X1196628Y49024360D02*
X1244247Y48929122D01*
X1244247Y48929122D02*
X1244247Y48738646D01*
X1244247Y48738646D02*
X1196628Y48643408D01*
X625200Y49071979D02*
X577580Y48976741D01*
X577580Y48976741D02*
X577580Y48738646D01*
X577580Y48738646D02*
X625200Y48643408D01*
X625200Y48643408D02*
X720438Y48595789D01*
X720438Y48595789D02*
X815676Y48595789D01*
X815676Y48595789D02*
X910914Y48643408D01*
X910914Y48643408D02*
X958533Y48738646D01*
X958533Y48738646D02*
X958533Y48976741D01*
X958533Y48976741D02*
X1006152Y49071979D01*
X1244247Y49548170D02*
X577580Y49548170D01*
X1149009Y49548170D02*
X1196628Y49595789D01*
X1196628Y49595789D02*
X1244247Y49691027D01*
X1244247Y49691027D02*
X1244247Y49833884D01*
X1244247Y49833884D02*
X1196628Y49929122D01*
X1196628Y49929122D02*
X1101390Y49976741D01*
X1101390Y49976741D02*
X577580Y49976741D01*
X577580Y50881503D02*
X1577580Y50881503D01*
X625200Y50881503D02*
X577580Y50786265D01*
X577580Y50786265D02*
X577580Y50595789D01*
X577580Y50595789D02*
X625200Y50500551D01*
X625200Y50500551D02*
X672819Y50452932D01*
X672819Y50452932D02*
X768057Y50405313D01*
X768057Y50405313D02*
X1053771Y50405313D01*
X1053771Y50405313D02*
X1149009Y50452932D01*
X1149009Y50452932D02*
X1196628Y50500551D01*
X1196628Y50500551D02*
X1244247Y50595789D01*
X1244247Y50595789D02*
X1244247Y50786265D01*
X1244247Y50786265D02*
X1196628Y50881503D01*
X1244247Y52119599D02*
X244247Y52119599D01*
X1196628Y52119599D02*
X1244247Y52214837D01*
X1244247Y52214837D02*
X1244247Y52405313D01*
X1244247Y52405313D02*
X1196628Y52500551D01*
X1196628Y52500551D02*
X1149009Y52548170D01*
X1149009Y52548170D02*
X1053771Y52595789D01*
X1053771Y52595789D02*
X768057Y52595789D01*
X768057Y52595789D02*
X672819Y52548170D01*
X672819Y52548170D02*
X625200Y52500551D01*
X625200Y52500551D02*
X577580Y52405313D01*
X577580Y52405313D02*
X577580Y52214837D01*
X577580Y52214837D02*
X625200Y52119599D01*
X577580Y53167218D02*
X625200Y53071980D01*
X625200Y53071980D02*
X672819Y53024361D01*
X672819Y53024361D02*
X768057Y52976742D01*
X768057Y52976742D02*
X1053771Y52976742D01*
X1053771Y52976742D02*
X1149009Y53024361D01*
X1149009Y53024361D02*
X1196628Y53071980D01*
X1196628Y53071980D02*
X1244247Y53167218D01*
X1244247Y53167218D02*
X1244247Y53310075D01*
X1244247Y53310075D02*
X1196628Y53405313D01*
X1196628Y53405313D02*
X1149009Y53452932D01*
X1149009Y53452932D02*
X1053771Y53500551D01*
X1053771Y53500551D02*
X768057Y53500551D01*
X768057Y53500551D02*
X672819Y53452932D01*
X672819Y53452932D02*
X625200Y53405313D01*
X625200Y53405313D02*
X577580Y53310075D01*
X577580Y53310075D02*
X577580Y53167218D01*
X1244247Y53929123D02*
X244247Y53929123D01*
X1196628Y53929123D02*
X1244247Y54024361D01*
X1244247Y54024361D02*
X1244247Y54214837D01*
X1244247Y54214837D02*
X1196628Y54310075D01*
X1196628Y54310075D02*
X1149009Y54357694D01*
X1149009Y54357694D02*
X1053771Y54405313D01*
X1053771Y54405313D02*
X768057Y54405313D01*
X768057Y54405313D02*
X672819Y54357694D01*
X672819Y54357694D02*
X625200Y54310075D01*
X625200Y54310075D02*
X577580Y54214837D01*
X577580Y54214837D02*
X577580Y54024361D01*
X577580Y54024361D02*
X625200Y53929123D01*
X1244247Y55262456D02*
X577580Y55262456D01*
X1244247Y54833885D02*
X720438Y54833885D01*
X720438Y54833885D02*
X625200Y54881504D01*
X625200Y54881504D02*
X577580Y54976742D01*
X577580Y54976742D02*
X577580Y55119599D01*
X577580Y55119599D02*
X625200Y55214837D01*
X625200Y55214837D02*
X672819Y55262456D01*
X577580Y55881504D02*
X625200Y55786266D01*
X625200Y55786266D02*
X720438Y55738647D01*
X720438Y55738647D02*
X1577580Y55738647D01*
X577580Y56691028D02*
X1101390Y56691028D01*
X1101390Y56691028D02*
X1196628Y56643409D01*
X1196628Y56643409D02*
X1244247Y56548171D01*
X1244247Y56548171D02*
X1244247Y56357695D01*
X1244247Y56357695D02*
X1196628Y56262457D01*
X625200Y56691028D02*
X577580Y56595790D01*
X577580Y56595790D02*
X577580Y56357695D01*
X577580Y56357695D02*
X625200Y56262457D01*
X625200Y56262457D02*
X720438Y56214838D01*
X720438Y56214838D02*
X815676Y56214838D01*
X815676Y56214838D02*
X910914Y56262457D01*
X910914Y56262457D02*
X958533Y56357695D01*
X958533Y56357695D02*
X958533Y56595790D01*
X958533Y56595790D02*
X1006152Y56691028D01*
X1244247Y57024362D02*
X1244247Y57405314D01*
X1577580Y57167219D02*
X720438Y57167219D01*
X720438Y57167219D02*
X625200Y57214838D01*
X625200Y57214838D02*
X577580Y57310076D01*
X577580Y57310076D02*
X577580Y57405314D01*
X625200Y58119600D02*
X577580Y58024362D01*
X577580Y58024362D02*
X577580Y57833886D01*
X577580Y57833886D02*
X625200Y57738648D01*
X625200Y57738648D02*
X720438Y57691029D01*
X720438Y57691029D02*
X1101390Y57691029D01*
X1101390Y57691029D02*
X1196628Y57738648D01*
X1196628Y57738648D02*
X1244247Y57833886D01*
X1244247Y57833886D02*
X1244247Y58024362D01*
X1244247Y58024362D02*
X1196628Y58119600D01*
X1196628Y58119600D02*
X1101390Y58167219D01*
X1101390Y58167219D02*
X1006152Y58167219D01*
X1006152Y58167219D02*
X910914Y57691029D01*
X482342Y60024362D02*
X529961Y59929124D01*
X529961Y59929124D02*
X625200Y59833886D01*
X625200Y59833886D02*
X768057Y59691029D01*
X768057Y59691029D02*
X815676Y59595791D01*
X815676Y59595791D02*
X815676Y59500553D01*
X577580Y59548172D02*
X625200Y59452934D01*
X625200Y59452934D02*
X720438Y59357696D01*
X720438Y59357696D02*
X910914Y59310077D01*
X910914Y59310077D02*
X1244247Y59310077D01*
X1244247Y59310077D02*
X1434723Y59357696D01*
X1434723Y59357696D02*
X1529961Y59452934D01*
X1529961Y59452934D02*
X1577580Y59548172D01*
X1577580Y59548172D02*
X1577580Y59738648D01*
X1577580Y59738648D02*
X1529961Y59833886D01*
X1529961Y59833886D02*
X1434723Y59929124D01*
X1434723Y59929124D02*
X1244247Y59976743D01*
X1244247Y59976743D02*
X910914Y59976743D01*
X910914Y59976743D02*
X720438Y59929124D01*
X720438Y59929124D02*
X625200Y59833886D01*
X625200Y59833886D02*
X577580Y59738648D01*
X577580Y59738648D02*
X577580Y59548172D01*
X1577580Y60310077D02*
X1577580Y60976743D01*
X1577580Y60976743D02*
X577580Y60548172D01*
X958533Y61357696D02*
X958533Y62119601D01*
X482342Y63262457D02*
X529961Y63167219D01*
X529961Y63167219D02*
X625200Y63071981D01*
X625200Y63071981D02*
X768057Y62929124D01*
X768057Y62929124D02*
X815676Y62833886D01*
X815676Y62833886D02*
X815676Y62738648D01*
X577580Y62786267D02*
X625200Y62691029D01*
X625200Y62691029D02*
X720438Y62595791D01*
X720438Y62595791D02*
X910914Y62548172D01*
X910914Y62548172D02*
X1244247Y62548172D01*
X1244247Y62548172D02*
X1434723Y62595791D01*
X1434723Y62595791D02*
X1529961Y62691029D01*
X1529961Y62691029D02*
X1577580Y62786267D01*
X1577580Y62786267D02*
X1577580Y62976743D01*
X1577580Y62976743D02*
X1529961Y63071981D01*
X1529961Y63071981D02*
X1434723Y63167219D01*
X1434723Y63167219D02*
X1244247Y63214838D01*
X1244247Y63214838D02*
X910914Y63214838D01*
X910914Y63214838D02*
X720438Y63167219D01*
X720438Y63167219D02*
X625200Y63071981D01*
X625200Y63071981D02*
X577580Y62976743D01*
X577580Y62976743D02*
X577580Y62786267D01*
X577580Y64167219D02*
X577580Y63595791D01*
X577580Y63881505D02*
X1577580Y63881505D01*
X1577580Y63881505D02*
X1434723Y63786267D01*
X1434723Y63786267D02*
X1339485Y63691029D01*
X1339485Y63691029D02*
X1291866Y63595791D01*
X1482342Y64548172D02*
X1529961Y64595791D01*
X1529961Y64595791D02*
X1577580Y64691029D01*
X1577580Y64691029D02*
X1577580Y64929124D01*
X1577580Y64929124D02*
X1529961Y65024362D01*
X1529961Y65024362D02*
X1482342Y65071981D01*
X1482342Y65071981D02*
X1387104Y65119600D01*
X1387104Y65119600D02*
X1291866Y65119600D01*
X1291866Y65119600D02*
X1149009Y65071981D01*
X1149009Y65071981D02*
X577580Y64500553D01*
X577580Y64500553D02*
X577580Y65119600D01*
X577580Y66452934D02*
X625200Y66357696D01*
X625200Y66357696D02*
X672819Y66310077D01*
X672819Y66310077D02*
X768057Y66262458D01*
X768057Y66262458D02*
X1053771Y66262458D01*
X1053771Y66262458D02*
X1149009Y66310077D01*
X1149009Y66310077D02*
X1196628Y66357696D01*
X1196628Y66357696D02*
X1244247Y66452934D01*
X1244247Y66452934D02*
X1244247Y66595791D01*
X1244247Y66595791D02*
X1196628Y66691029D01*
X1196628Y66691029D02*
X1149009Y66738648D01*
X1149009Y66738648D02*
X1053771Y66786267D01*
X1053771Y66786267D02*
X768057Y66786267D01*
X768057Y66786267D02*
X672819Y66738648D01*
X672819Y66738648D02*
X625200Y66691029D01*
X625200Y66691029D02*
X577580Y66595791D01*
X577580Y66595791D02*
X577580Y66452934D01*
X1244247Y67214839D02*
X577580Y67214839D01*
X1149009Y67214839D02*
X1196628Y67262458D01*
X1196628Y67262458D02*
X1244247Y67357696D01*
X1244247Y67357696D02*
X1244247Y67500553D01*
X1244247Y67500553D02*
X1196628Y67595791D01*
X1196628Y67595791D02*
X1101390Y67643410D01*
X1101390Y67643410D02*
X577580Y67643410D01*
X1244247Y69310077D02*
X577580Y69310077D01*
X1244247Y68881506D02*
X720438Y68881506D01*
X720438Y68881506D02*
X625200Y68929125D01*
X625200Y68929125D02*
X577580Y69024363D01*
X577580Y69024363D02*
X577580Y69167220D01*
X577580Y69167220D02*
X625200Y69262458D01*
X625200Y69262458D02*
X672819Y69310077D01*
X577580Y70214839D02*
X1101390Y70214839D01*
X1101390Y70214839D02*
X1196628Y70167220D01*
X1196628Y70167220D02*
X1244247Y70071982D01*
X1244247Y70071982D02*
X1244247Y69881506D01*
X1244247Y69881506D02*
X1196628Y69786268D01*
X625200Y70214839D02*
X577580Y70119601D01*
X577580Y70119601D02*
X577580Y69881506D01*
X577580Y69881506D02*
X625200Y69786268D01*
X625200Y69786268D02*
X720438Y69738649D01*
X720438Y69738649D02*
X815676Y69738649D01*
X815676Y69738649D02*
X910914Y69786268D01*
X910914Y69786268D02*
X958533Y69881506D01*
X958533Y69881506D02*
X958533Y70119601D01*
X958533Y70119601D02*
X1006152Y70214839D01*
X625200Y71071982D02*
X577580Y70976744D01*
X577580Y70976744D02*
X577580Y70786268D01*
X577580Y70786268D02*
X625200Y70691030D01*
X625200Y70691030D02*
X720438Y70643411D01*
X720438Y70643411D02*
X1101390Y70643411D01*
X1101390Y70643411D02*
X1196628Y70691030D01*
X1196628Y70691030D02*
X1244247Y70786268D01*
X1244247Y70786268D02*
X1244247Y70976744D01*
X1244247Y70976744D02*
X1196628Y71071982D01*
X1196628Y71071982D02*
X1101390Y71119601D01*
X1101390Y71119601D02*
X1006152Y71119601D01*
X1006152Y71119601D02*
X910914Y70643411D01*
X1244247Y71405316D02*
X1244247Y71786268D01*
X577580Y71548173D02*
X1434723Y71548173D01*
X1434723Y71548173D02*
X1529961Y71595792D01*
X1529961Y71595792D02*
X1577580Y71691030D01*
X1577580Y71691030D02*
X1577580Y71786268D01*
X577580Y72119602D02*
X1244247Y72119602D01*
X1577580Y72119602D02*
X1529961Y72071983D01*
X1529961Y72071983D02*
X1482342Y72119602D01*
X1482342Y72119602D02*
X1529961Y72167221D01*
X1529961Y72167221D02*
X1577580Y72119602D01*
X1577580Y72119602D02*
X1482342Y72119602D01*
X577580Y73357697D02*
X1577580Y73357697D01*
X1196628Y73357697D02*
X1244247Y73452935D01*
X1244247Y73452935D02*
X1244247Y73643411D01*
X1244247Y73643411D02*
X1196628Y73738649D01*
X1196628Y73738649D02*
X1149009Y73786268D01*
X1149009Y73786268D02*
X1053771Y73833887D01*
X1053771Y73833887D02*
X768057Y73833887D01*
X768057Y73833887D02*
X672819Y73786268D01*
X672819Y73786268D02*
X625200Y73738649D01*
X625200Y73738649D02*
X577580Y73643411D01*
X577580Y73643411D02*
X577580Y73452935D01*
X577580Y73452935D02*
X625200Y73357697D01*
X577580Y74405316D02*
X625200Y74310078D01*
X625200Y74310078D02*
X672819Y74262459D01*
X672819Y74262459D02*
X768057Y74214840D01*
X768057Y74214840D02*
X1053771Y74214840D01*
X1053771Y74214840D02*
X1149009Y74262459D01*
X1149009Y74262459D02*
X1196628Y74310078D01*
X1196628Y74310078D02*
X1244247Y74405316D01*
X1244247Y74405316D02*
X1244247Y74548173D01*
X1244247Y74548173D02*
X1196628Y74643411D01*
X1196628Y74643411D02*
X1149009Y74691030D01*
X1149009Y74691030D02*
X1053771Y74738649D01*
X1053771Y74738649D02*
X768057Y74738649D01*
X768057Y74738649D02*
X672819Y74691030D01*
X672819Y74691030D02*
X625200Y74643411D01*
X625200Y74643411D02*
X577580Y74548173D01*
X577580Y74548173D02*
X577580Y74405316D01*
X577580Y75595792D02*
X1101390Y75595792D01*
X1101390Y75595792D02*
X1196628Y75548173D01*
X1196628Y75548173D02*
X1244247Y75452935D01*
X1244247Y75452935D02*
X1244247Y75262459D01*
X1244247Y75262459D02*
X1196628Y75167221D01*
X625200Y75595792D02*
X577580Y75500554D01*
X577580Y75500554D02*
X577580Y75262459D01*
X577580Y75262459D02*
X625200Y75167221D01*
X625200Y75167221D02*
X720438Y75119602D01*
X720438Y75119602D02*
X815676Y75119602D01*
X815676Y75119602D02*
X910914Y75167221D01*
X910914Y75167221D02*
X958533Y75262459D01*
X958533Y75262459D02*
X958533Y75500554D01*
X958533Y75500554D02*
X1006152Y75595792D01*
X577580Y76071983D02*
X1244247Y76071983D01*
X1053771Y76071983D02*
X1149009Y76119602D01*
X1149009Y76119602D02*
X1196628Y76167221D01*
X1196628Y76167221D02*
X1244247Y76262459D01*
X1244247Y76262459D02*
X1244247Y76357697D01*
X577580Y77119602D02*
X1577580Y77119602D01*
X625200Y77119602D02*
X577580Y77024364D01*
X577580Y77024364D02*
X577580Y76833888D01*
X577580Y76833888D02*
X625200Y76738650D01*
X625200Y76738650D02*
X672819Y76691031D01*
X672819Y76691031D02*
X768057Y76643412D01*
X768057Y76643412D02*
X1053771Y76643412D01*
X1053771Y76643412D02*
X1149009Y76691031D01*
X1149009Y76691031D02*
X1196628Y76738650D01*
X1196628Y76738650D02*
X1244247Y76833888D01*
X1244247Y76833888D02*
X1244247Y77024364D01*
X1244247Y77024364D02*
X1196628Y77119602D01*
X81342578Y91903383D02*
X82049685Y92610490D01*
X82049685Y92610490D02*
X81780311Y92879864D01*
X81780311Y92879864D02*
X81679296Y92913536D01*
X81679296Y92913536D02*
X81611952Y92913536D01*
X81611952Y92913536D02*
X81510937Y92879864D01*
X81510937Y92879864D02*
X81409922Y92778849D01*
X81409922Y92778849D02*
X81376250Y92677834D01*
X81376250Y92677834D02*
X81376250Y92610490D01*
X81376250Y92610490D02*
X81409922Y92509475D01*
X81409922Y92509475D02*
X81679296Y92240101D01*
X80635471Y92610490D02*
X81342578Y93317597D01*
X81342578Y93317597D02*
X81073204Y93586971D01*
X81073204Y93586971D02*
X80972189Y93620643D01*
X80972189Y93620643D02*
X80904845Y93620643D01*
X80904845Y93620643D02*
X80803830Y93586971D01*
X80803830Y93586971D02*
X80702815Y93485956D01*
X80702815Y93485956D02*
X80669143Y93384941D01*
X80669143Y93384941D02*
X80669143Y93317597D01*
X80669143Y93317597D02*
X80702815Y93216582D01*
X80702815Y93216582D02*
X80972189Y92947208D01*
X79995708Y93317597D02*
X79861021Y93384941D01*
X79861021Y93384941D02*
X79692662Y93553299D01*
X79692662Y93553299D02*
X79658991Y93654315D01*
X79658991Y93654315D02*
X79658991Y93721658D01*
X79658991Y93721658D02*
X79692662Y93822673D01*
X79692662Y93822673D02*
X79760006Y93890017D01*
X79760006Y93890017D02*
X79861021Y93923689D01*
X79861021Y93923689D02*
X79928365Y93923689D01*
X79928365Y93923689D02*
X80029380Y93890017D01*
X80029380Y93890017D02*
X80197739Y93789002D01*
X80197739Y93789002D02*
X80298754Y93755330D01*
X80298754Y93755330D02*
X80366097Y93755330D01*
X80366097Y93755330D02*
X80467113Y93789002D01*
X80467113Y93789002D02*
X80534456Y93856345D01*
X80534456Y93856345D02*
X80568128Y93957360D01*
X80568128Y93957360D02*
X80568128Y94024704D01*
X80568128Y94024704D02*
X80534456Y94125719D01*
X80534456Y94125719D02*
X80366097Y94294078D01*
X80366097Y94294078D02*
X80231410Y94361421D01*
X78884540Y94361421D02*
X79288601Y93957360D01*
X79086571Y94159391D02*
X79793678Y94866498D01*
X79793678Y94866498D02*
X79760006Y94698139D01*
X79760006Y94698139D02*
X79760006Y94563452D01*
X79760006Y94563452D02*
X79793678Y94462437D01*
X23733456Y82941183D02*
X23329395Y83345244D01*
X22824319Y82436107D02*
X23531426Y83143213D01*
X22386586Y82873840D02*
X23093693Y83580946D01*
X23093693Y83580946D02*
X22824319Y83850320D01*
X22824319Y83850320D02*
X22723304Y83883992D01*
X22723304Y83883992D02*
X22655960Y83883992D01*
X22655960Y83883992D02*
X22554945Y83850320D01*
X22554945Y83850320D02*
X22453930Y83749305D01*
X22453930Y83749305D02*
X22420258Y83648290D01*
X22420258Y83648290D02*
X22420258Y83580946D01*
X22420258Y83580946D02*
X22453930Y83479931D01*
X22453930Y83479931D02*
X22723304Y83210557D01*
X21746823Y83580946D02*
X21612136Y83648290D01*
X21612136Y83648290D02*
X21443777Y83816649D01*
X21443777Y83816649D02*
X21410105Y83917664D01*
X21410105Y83917664D02*
X21410105Y83985007D01*
X21410105Y83985007D02*
X21443777Y84086023D01*
X21443777Y84086023D02*
X21511121Y84153366D01*
X21511121Y84153366D02*
X21612136Y84187038D01*
X21612136Y84187038D02*
X21679479Y84187038D01*
X21679479Y84187038D02*
X21780495Y84153366D01*
X21780495Y84153366D02*
X21948853Y84052351D01*
X21948853Y84052351D02*
X22049869Y84018679D01*
X22049869Y84018679D02*
X22117212Y84018679D01*
X22117212Y84018679D02*
X22218227Y84052351D01*
X22218227Y84052351D02*
X22285571Y84119694D01*
X22285571Y84119694D02*
X22319243Y84220710D01*
X22319243Y84220710D02*
X22319243Y84288053D01*
X22319243Y84288053D02*
X22285571Y84389068D01*
X22285571Y84389068D02*
X22117212Y84557427D01*
X22117212Y84557427D02*
X21982525Y84624771D01*
X21679479Y84860473D02*
X21679479Y84927817D01*
X21679479Y84927817D02*
X21645807Y85028832D01*
X21645807Y85028832D02*
X21477449Y85197191D01*
X21477449Y85197191D02*
X21376433Y85230862D01*
X21376433Y85230862D02*
X21309090Y85230862D01*
X21309090Y85230862D02*
X21208075Y85197191D01*
X21208075Y85197191D02*
X21140731Y85129847D01*
X21140731Y85129847D02*
X21073388Y84995160D01*
X21073388Y84995160D02*
X21073388Y84187038D01*
X21073388Y84187038D02*
X20635655Y84624771D01*
X15733456Y31741183D02*
X14790647Y31269778D01*
X14790647Y31269778D02*
X15262052Y32212588D01*
X14319243Y31741183D02*
X15026349Y32448290D01*
X14285571Y33121725D02*
X14386586Y33088053D01*
X14386586Y33088053D02*
X14487602Y32987038D01*
X14487602Y32987038D02*
X14554945Y32852351D01*
X14554945Y32852351D02*
X14554945Y32717664D01*
X14554945Y32717664D02*
X14521273Y32616648D01*
X14521273Y32616648D02*
X14420258Y32448290D01*
X14420258Y32448290D02*
X14319243Y32347274D01*
X14319243Y32347274D02*
X14150884Y32246259D01*
X14150884Y32246259D02*
X14049869Y32212587D01*
X14049869Y32212587D02*
X13915182Y32212587D01*
X13915182Y32212587D02*
X13780495Y32279931D01*
X13780495Y32279931D02*
X13713151Y32347274D01*
X13713151Y32347274D02*
X13645808Y32481961D01*
X13645808Y32481961D02*
X13645808Y32549305D01*
X13645808Y32549305D02*
X13881510Y32785007D01*
X13881510Y32785007D02*
X14016197Y32650320D01*
X13275419Y32785007D02*
X13982525Y33492114D01*
X13982525Y33492114D02*
X12871358Y33189068D01*
X12871358Y33189068D02*
X13578464Y33896175D01*
X16225334Y62435091D02*
X16932441Y63142198D01*
X16191663Y63815633D02*
X16292678Y63781961D01*
X16292678Y63781961D02*
X16393693Y63680946D01*
X16393693Y63680946D02*
X16461037Y63546259D01*
X16461037Y63546259D02*
X16461037Y63411572D01*
X16461037Y63411572D02*
X16427365Y63310557D01*
X16427365Y63310557D02*
X16326350Y63142198D01*
X16326350Y63142198D02*
X16225335Y63041183D01*
X16225335Y63041183D02*
X16056976Y62940167D01*
X16056976Y62940167D02*
X15955961Y62906496D01*
X15955961Y62906496D02*
X15821274Y62906496D01*
X15821274Y62906496D02*
X15686587Y62973839D01*
X15686587Y62973839D02*
X15619243Y63041183D01*
X15619243Y63041183D02*
X15551900Y63175870D01*
X15551900Y63175870D02*
X15551900Y63243213D01*
X15551900Y63243213D02*
X15787602Y63478915D01*
X15787602Y63478915D02*
X15922289Y63344228D01*
X15181510Y63478915D02*
X15888617Y64186022D01*
X15888617Y64186022D02*
X14777449Y63882976D01*
X14777449Y63882976D02*
X15484556Y64590083D01*
X14070343Y64590083D02*
X14474404Y64186022D01*
X14272373Y64388053D02*
X14979480Y65095159D01*
X14979480Y65095159D02*
X14945808Y64926801D01*
X14945808Y64926801D02*
X14945808Y64792114D01*
X14945808Y64792114D02*
X14979480Y64691098D01*
X7136675Y65545240D02*
X7843782Y66252347D01*
X6799958Y65881958D02*
X7507065Y66589064D01*
X7507065Y66589064D02*
X6395897Y66286019D01*
X6395897Y66286019D02*
X7103004Y66993125D01*
X6564256Y67531873D02*
X6059180Y67026797D01*
X6059180Y67026797D02*
X5991836Y66892110D01*
X5991836Y66892110D02*
X5991836Y66757423D01*
X5991836Y66757423D02*
X6059180Y66622736D01*
X6059180Y66622736D02*
X6126523Y66555393D01*
X5150042Y67531874D02*
X5554103Y67127813D01*
X5352073Y67329843D02*
X6059179Y68036950D01*
X6059179Y68036950D02*
X6025508Y67868591D01*
X6025508Y67868591D02*
X6025508Y67733904D01*
X6025508Y67733904D02*
X6059179Y67632889D01*
X7810091Y34994880D02*
X7911106Y34961208D01*
X7911106Y34961208D02*
X8012122Y34860193D01*
X8012122Y34860193D02*
X8079465Y34725506D01*
X8079465Y34725506D02*
X8079465Y34590819D01*
X8079465Y34590819D02*
X8045793Y34489803D01*
X8045793Y34489803D02*
X7944778Y34321445D01*
X7944778Y34321445D02*
X7843763Y34220429D01*
X7843763Y34220429D02*
X7675404Y34119414D01*
X7675404Y34119414D02*
X7574389Y34085742D01*
X7574389Y34085742D02*
X7439702Y34085742D01*
X7439702Y34085742D02*
X7305015Y34153086D01*
X7305015Y34153086D02*
X7237671Y34220429D01*
X7237671Y34220429D02*
X7170328Y34355116D01*
X7170328Y34355116D02*
X7170328Y34422460D01*
X7170328Y34422460D02*
X7406030Y34658162D01*
X7406030Y34658162D02*
X7540717Y34523475D01*
X6799938Y34658162D02*
X7507045Y35365269D01*
X7507045Y35365269D02*
X6395877Y35062223D01*
X6395877Y35062223D02*
X7102984Y35769330D01*
X6059160Y35398941D02*
X6766267Y36106048D01*
X6766267Y36106048D02*
X6597908Y36274406D01*
X6597908Y36274406D02*
X6463221Y36341750D01*
X6463221Y36341750D02*
X6328534Y36341750D01*
X6328534Y36341750D02*
X6227519Y36308078D01*
X6227519Y36308078D02*
X6059160Y36207063D01*
X6059160Y36207063D02*
X5958145Y36106048D01*
X5958145Y36106048D02*
X5857129Y35937689D01*
X5857129Y35937689D02*
X5823458Y35836674D01*
X5823458Y35836674D02*
X5823458Y35701987D01*
X5823458Y35701987D02*
X5890801Y35567299D01*
X5890801Y35567299D02*
X6059160Y35398941D01*
X72978380Y83628916D02*
X73079395Y83595244D01*
X73079395Y83595244D02*
X73180411Y83494229D01*
X73180411Y83494229D02*
X73247754Y83359542D01*
X73247754Y83359542D02*
X73247754Y83224855D01*
X73247754Y83224855D02*
X73214082Y83123839D01*
X73214082Y83123839D02*
X73113067Y82955481D01*
X73113067Y82955481D02*
X73012052Y82854465D01*
X73012052Y82854465D02*
X72843693Y82753450D01*
X72843693Y82753450D02*
X72742678Y82719778D01*
X72742678Y82719778D02*
X72607991Y82719778D01*
X72607991Y82719778D02*
X72473304Y82787122D01*
X72473304Y82787122D02*
X72405960Y82854465D01*
X72405960Y82854465D02*
X72338617Y82989152D01*
X72338617Y82989152D02*
X72338617Y83056496D01*
X72338617Y83056496D02*
X72574319Y83292198D01*
X72574319Y83292198D02*
X72709006Y83157511D01*
X71968227Y83292198D02*
X72675334Y83999305D01*
X72675334Y83999305D02*
X71564166Y83696259D01*
X71564166Y83696259D02*
X72271273Y84403366D01*
X71227449Y84032977D02*
X71934556Y84740084D01*
X71934556Y84740084D02*
X71766197Y84908442D01*
X71766197Y84908442D02*
X71631510Y84975786D01*
X71631510Y84975786D02*
X71496823Y84975786D01*
X71496823Y84975786D02*
X71395808Y84942114D01*
X71395808Y84942114D02*
X71227449Y84841099D01*
X71227449Y84841099D02*
X71126434Y84740084D01*
X71126434Y84740084D02*
X71025418Y84571725D01*
X71025418Y84571725D02*
X70991747Y84470710D01*
X70991747Y84470710D02*
X70991747Y84336023D01*
X70991747Y84336023D02*
X71059090Y84201335D01*
X71059090Y84201335D02*
X71227449Y84032977D01*
X70756044Y84908442D02*
X70419327Y85245160D01*
X70621357Y84639068D02*
X71092762Y85581877D01*
X71092762Y85581877D02*
X70149953Y85110473D01*
X81725334Y81935091D02*
X82432441Y82642198D01*
X81321273Y82339152D02*
X82028380Y82440168D01*
X82028380Y83046259D02*
X82028380Y82238137D01*
X81018227Y82642198D02*
X81725334Y83349305D01*
X81725334Y83349305D02*
X80614166Y83046259D01*
X80614166Y83046259D02*
X81321273Y83753366D01*
X80849869Y84224771D02*
X80715182Y84359458D01*
X80715182Y84359458D02*
X80614166Y84393129D01*
X80614166Y84393129D02*
X80479479Y84393129D01*
X80479479Y84393129D02*
X80311121Y84292114D01*
X80311121Y84292114D02*
X80075418Y84056412D01*
X80075418Y84056412D02*
X79974403Y83888053D01*
X79974403Y83888053D02*
X79974403Y83753366D01*
X79974403Y83753366D02*
X80008075Y83652351D01*
X80008075Y83652351D02*
X80142762Y83517664D01*
X80142762Y83517664D02*
X80243777Y83483992D01*
X80243777Y83483992D02*
X80378464Y83483992D01*
X80378464Y83483992D02*
X80546823Y83585007D01*
X80546823Y83585007D02*
X80782525Y83820710D01*
X80782525Y83820710D02*
X80883540Y83989068D01*
X80883540Y83989068D02*
X80883540Y84123755D01*
X80883540Y84123755D02*
X80849869Y84224771D01*
X79199953Y84595160D02*
X79199953Y84527816D01*
X79199953Y84527816D02*
X79267296Y84393129D01*
X79267296Y84393129D02*
X79334640Y84325786D01*
X79334640Y84325786D02*
X79469327Y84258442D01*
X79469327Y84258442D02*
X79604014Y84258442D01*
X79604014Y84258442D02*
X79705029Y84292114D01*
X79705029Y84292114D02*
X79873388Y84393129D01*
X79873388Y84393129D02*
X79974403Y84494145D01*
X79974403Y84494145D02*
X80075418Y84662503D01*
X80075418Y84662503D02*
X80109090Y84763519D01*
X80109090Y84763519D02*
X80109090Y84898206D01*
X80109090Y84898206D02*
X80041747Y85032893D01*
X80041747Y85032893D02*
X79974403Y85100236D01*
X79974403Y85100236D02*
X79839716Y85167580D01*
X79839716Y85167580D02*
X79772373Y85167580D01*
X78829564Y84830862D02*
X79536670Y85537969D01*
X78425503Y85234923D02*
X79132609Y85335938D01*
X79132609Y85942030D02*
X79132609Y85133908D01*
X16794708Y34354465D02*
X16255960Y34893213D01*
X16255960Y34354465D02*
X16794708Y34893213D01*
X15279480Y35330946D02*
X15683541Y34926885D01*
X15481510Y35128916D02*
X16188617Y35836022D01*
X16188617Y35836022D02*
X16154945Y35667664D01*
X16154945Y35667664D02*
X16154945Y35532977D01*
X16154945Y35532977D02*
X16188617Y35431961D01*
X15649869Y36240083D02*
X15649869Y36307427D01*
X15649869Y36307427D02*
X15616197Y36408442D01*
X15616197Y36408442D02*
X15447838Y36576801D01*
X15447838Y36576801D02*
X15346823Y36610473D01*
X15346823Y36610473D02*
X15279480Y36610473D01*
X15279480Y36610473D02*
X15178464Y36576801D01*
X15178464Y36576801D02*
X15111121Y36509457D01*
X15111121Y36509457D02*
X15043777Y36374770D01*
X15043777Y36374770D02*
X15043777Y35566648D01*
X15043777Y35566648D02*
X14606045Y36004381D01*
X15111121Y36913518D02*
X14168312Y36442114D01*
X14168312Y36442114D02*
X14639716Y37384923D01*
X19228380Y83378916D02*
X19329395Y83345244D01*
X19329395Y83345244D02*
X19430411Y83244229D01*
X19430411Y83244229D02*
X19497754Y83109542D01*
X19497754Y83109542D02*
X19497754Y82974855D01*
X19497754Y82974855D02*
X19464082Y82873839D01*
X19464082Y82873839D02*
X19363067Y82705481D01*
X19363067Y82705481D02*
X19262052Y82604465D01*
X19262052Y82604465D02*
X19093693Y82503450D01*
X19093693Y82503450D02*
X18992678Y82469778D01*
X18992678Y82469778D02*
X18857991Y82469778D01*
X18857991Y82469778D02*
X18723304Y82537122D01*
X18723304Y82537122D02*
X18655960Y82604465D01*
X18655960Y82604465D02*
X18588617Y82739152D01*
X18588617Y82739152D02*
X18588617Y82806496D01*
X18588617Y82806496D02*
X18824319Y83042198D01*
X18824319Y83042198D02*
X18959006Y82907511D01*
X18218227Y83042198D02*
X18925334Y83749305D01*
X18925334Y83749305D02*
X17814166Y83446259D01*
X17814166Y83446259D02*
X18521273Y84153366D01*
X17477449Y83782977D02*
X18184556Y84490084D01*
X18184556Y84490084D02*
X18016197Y84658442D01*
X18016197Y84658442D02*
X17881510Y84725786D01*
X17881510Y84725786D02*
X17746823Y84725786D01*
X17746823Y84725786D02*
X17645808Y84692114D01*
X17645808Y84692114D02*
X17477449Y84591099D01*
X17477449Y84591099D02*
X17376434Y84490084D01*
X17376434Y84490084D02*
X17275418Y84321725D01*
X17275418Y84321725D02*
X17241747Y84220710D01*
X17241747Y84220710D02*
X17241747Y84086023D01*
X17241747Y84086023D02*
X17309090Y83951335D01*
X17309090Y83951335D02*
X17477449Y83782977D01*
X17006044Y84658442D02*
X16669327Y84995160D01*
X16871357Y84389068D02*
X17342762Y85331877D01*
X17342762Y85331877D02*
X16399953Y84860473D01*
X16021554Y26216867D02*
X16728661Y26923974D01*
X16728661Y26923974D02*
X16560302Y27092333D01*
X16560302Y27092333D02*
X16425615Y27159677D01*
X16425615Y27159677D02*
X16290928Y27159677D01*
X16290928Y27159677D02*
X16189913Y27126005D01*
X16189913Y27126005D02*
X16021554Y27024989D01*
X16021554Y27024989D02*
X15920539Y26923974D01*
X15920539Y26923974D02*
X15819524Y26755615D01*
X15819524Y26755615D02*
X15785852Y26654600D01*
X15785852Y26654600D02*
X15785852Y26519913D01*
X15785852Y26519913D02*
X15853195Y26385226D01*
X15853195Y26385226D02*
X16021554Y26216867D01*
X14977730Y27395379D02*
X14977730Y27328035D01*
X14977730Y27328035D02*
X15045073Y27193348D01*
X15045073Y27193348D02*
X15112417Y27126005D01*
X15112417Y27126005D02*
X15247104Y27058661D01*
X15247104Y27058661D02*
X15381791Y27058661D01*
X15381791Y27058661D02*
X15482806Y27092333D01*
X15482806Y27092333D02*
X15651165Y27193348D01*
X15651165Y27193348D02*
X15752180Y27294364D01*
X15752180Y27294364D02*
X15853195Y27462722D01*
X15853195Y27462722D02*
X15886867Y27563738D01*
X15886867Y27563738D02*
X15886867Y27698425D01*
X15886867Y27698425D02*
X15819524Y27833112D01*
X15819524Y27833112D02*
X15752180Y27900455D01*
X15752180Y27900455D02*
X15617493Y27967799D01*
X15617493Y27967799D02*
X15550150Y27967799D01*
X15280776Y28237173D02*
X15280776Y28304516D01*
X15280776Y28304516D02*
X15247104Y28405531D01*
X15247104Y28405531D02*
X15078745Y28573890D01*
X15078745Y28573890D02*
X14977730Y28607562D01*
X14977730Y28607562D02*
X14910386Y28607562D01*
X14910386Y28607562D02*
X14809371Y28573890D01*
X14809371Y28573890D02*
X14742028Y28506547D01*
X14742028Y28506547D02*
X14674684Y28371860D01*
X14674684Y28371860D02*
X14674684Y27563738D01*
X14674684Y27563738D02*
X14236951Y28001470D01*
X14203280Y28573890D02*
X13664532Y29112638D01*
X13664532Y28573890D02*
X14203280Y29112638D01*
X89383799Y8745507D02*
X89383799Y7935984D01*
X89383799Y7935984D02*
X89336180Y7840746D01*
X89336180Y7840746D02*
X89288561Y7793126D01*
X89288561Y7793126D02*
X89193323Y7745507D01*
X89193323Y7745507D02*
X89002847Y7745507D01*
X89002847Y7745507D02*
X88907609Y7793126D01*
X88907609Y7793126D02*
X88859990Y7840746D01*
X88859990Y7840746D02*
X88812371Y7935984D01*
X88812371Y7935984D02*
X88812371Y8745507D01*
X88383799Y7793126D02*
X88240942Y7745507D01*
X88240942Y7745507D02*
X88002847Y7745507D01*
X88002847Y7745507D02*
X87907609Y7793126D01*
X87907609Y7793126D02*
X87859990Y7840746D01*
X87859990Y7840746D02*
X87812371Y7935984D01*
X87812371Y7935984D02*
X87812371Y8031222D01*
X87812371Y8031222D02*
X87859990Y8126460D01*
X87859990Y8126460D02*
X87907609Y8174079D01*
X87907609Y8174079D02*
X88002847Y8221698D01*
X88002847Y8221698D02*
X88193323Y8269317D01*
X88193323Y8269317D02*
X88288561Y8316936D01*
X88288561Y8316936D02*
X88336180Y8364555D01*
X88336180Y8364555D02*
X88383799Y8459793D01*
X88383799Y8459793D02*
X88383799Y8555031D01*
X88383799Y8555031D02*
X88336180Y8650269D01*
X88336180Y8650269D02*
X88288561Y8697888D01*
X88288561Y8697888D02*
X88193323Y8745507D01*
X88193323Y8745507D02*
X87955228Y8745507D01*
X87955228Y8745507D02*
X87812371Y8697888D01*
X87050466Y8269317D02*
X86907609Y8221698D01*
X86907609Y8221698D02*
X86859990Y8174079D01*
X86859990Y8174079D02*
X86812371Y8078841D01*
X86812371Y8078841D02*
X86812371Y7935984D01*
X86812371Y7935984D02*
X86859990Y7840746D01*
X86859990Y7840746D02*
X86907609Y7793126D01*
X86907609Y7793126D02*
X87002847Y7745507D01*
X87002847Y7745507D02*
X87383799Y7745507D01*
X87383799Y7745507D02*
X87383799Y8745507D01*
X87383799Y8745507D02*
X87050466Y8745507D01*
X87050466Y8745507D02*
X86955228Y8697888D01*
X86955228Y8697888D02*
X86907609Y8650269D01*
X86907609Y8650269D02*
X86859990Y8555031D01*
X86859990Y8555031D02*
X86859990Y8459793D01*
X86859990Y8459793D02*
X86907609Y8364555D01*
X86907609Y8364555D02*
X86955228Y8316936D01*
X86955228Y8316936D02*
X87050466Y8269317D01*
X87050466Y8269317D02*
X87383799Y8269317D01*
X86383799Y8126460D02*
X85621895Y8126460D01*
X86002847Y7745507D02*
X86002847Y8507412D01*
X88588617Y83556496D02*
X88588617Y83489152D01*
X88588617Y83489152D02*
X88655960Y83354465D01*
X88655960Y83354465D02*
X88723304Y83287122D01*
X88723304Y83287122D02*
X88857991Y83219778D01*
X88857991Y83219778D02*
X88992678Y83219778D01*
X88992678Y83219778D02*
X89093693Y83253450D01*
X89093693Y83253450D02*
X89262052Y83354465D01*
X89262052Y83354465D02*
X89363067Y83455481D01*
X89363067Y83455481D02*
X89464082Y83623839D01*
X89464082Y83623839D02*
X89497754Y83724855D01*
X89497754Y83724855D02*
X89497754Y83859542D01*
X89497754Y83859542D02*
X89430411Y83994229D01*
X89430411Y83994229D02*
X89363067Y84061572D01*
X89363067Y84061572D02*
X89228380Y84128916D01*
X89228380Y84128916D02*
X89161037Y84128916D01*
X87881510Y84128916D02*
X88218227Y83792198D01*
X88218227Y83792198D02*
X88925334Y84499305D01*
X88453930Y84970710D02*
X88049869Y85374771D01*
X87544792Y84465633D02*
X88251899Y85172740D01*
X16080048Y58184410D02*
X16787155Y58891517D01*
X16046377Y59564952D02*
X16147392Y59531280D01*
X16147392Y59531280D02*
X16248407Y59430265D01*
X16248407Y59430265D02*
X16315751Y59295578D01*
X16315751Y59295578D02*
X16315751Y59160891D01*
X16315751Y59160891D02*
X16282079Y59059876D01*
X16282079Y59059876D02*
X16181064Y58891517D01*
X16181064Y58891517D02*
X16080049Y58790502D01*
X16080049Y58790502D02*
X15911690Y58689486D01*
X15911690Y58689486D02*
X15810675Y58655815D01*
X15810675Y58655815D02*
X15675988Y58655815D01*
X15675988Y58655815D02*
X15541301Y58723158D01*
X15541301Y58723158D02*
X15473957Y58790502D01*
X15473957Y58790502D02*
X15406614Y58925189D01*
X15406614Y58925189D02*
X15406614Y58992532D01*
X15406614Y58992532D02*
X15642316Y59228234D01*
X15642316Y59228234D02*
X15777003Y59093547D01*
X15036224Y59228234D02*
X15743331Y59935341D01*
X15743331Y59935341D02*
X14632163Y59632295D01*
X14632163Y59632295D02*
X15339270Y60339402D01*
X14968881Y60575104D02*
X14968881Y60642448D01*
X14968881Y60642448D02*
X14935209Y60743463D01*
X14935209Y60743463D02*
X14766850Y60911822D01*
X14766850Y60911822D02*
X14665835Y60945494D01*
X14665835Y60945494D02*
X14598492Y60945494D01*
X14598492Y60945494D02*
X14497476Y60911822D01*
X14497476Y60911822D02*
X14430133Y60844478D01*
X14430133Y60844478D02*
X14362789Y60709791D01*
X14362789Y60709791D02*
X14362789Y59901669D01*
X14362789Y59901669D02*
X13925057Y60339402D01*
X93925334Y75585091D02*
X94632441Y76292198D01*
X94295724Y75955481D02*
X93891662Y76359542D01*
X93521273Y75989152D02*
X94228380Y76696259D01*
X93992678Y76931961D02*
X93588617Y77336023D01*
X93083540Y76426885D02*
X93790647Y77133992D01*
X92241747Y77268679D02*
X92814166Y77369694D01*
X92645808Y76864618D02*
X93352914Y77571725D01*
X93352914Y77571725D02*
X93083540Y77841099D01*
X93083540Y77841099D02*
X92982525Y77874771D01*
X92982525Y77874771D02*
X92915182Y77874771D01*
X92915182Y77874771D02*
X92814166Y77841099D01*
X92814166Y77841099D02*
X92713151Y77740084D01*
X92713151Y77740084D02*
X92679479Y77639068D01*
X92679479Y77639068D02*
X92679479Y77571725D01*
X92679479Y77571725D02*
X92713151Y77470710D01*
X92713151Y77470710D02*
X92982525Y77201336D01*
X92208075Y77841099D02*
X91669327Y78379847D01*
X91669327Y77841099D02*
X92208075Y78379847D01*
X7175334Y44585091D02*
X7882441Y45292198D01*
X6838617Y44921809D02*
X7545724Y45628915D01*
X7545724Y45628915D02*
X6434556Y45325870D01*
X6434556Y45325870D02*
X7141663Y46032976D01*
X6602915Y46571724D02*
X6097839Y46066648D01*
X6097839Y46066648D02*
X6030495Y45931961D01*
X6030495Y45931961D02*
X6030495Y45797274D01*
X6030495Y45797274D02*
X6097839Y45662587D01*
X6097839Y45662587D02*
X6165182Y45595244D01*
X5963151Y47211488D02*
X6097838Y47076801D01*
X6097838Y47076801D02*
X6131510Y46975786D01*
X6131510Y46975786D02*
X6131510Y46908442D01*
X6131510Y46908442D02*
X6097838Y46740083D01*
X6097838Y46740083D02*
X5996823Y46571725D01*
X5996823Y46571725D02*
X5727449Y46302351D01*
X5727449Y46302351D02*
X5626434Y46268679D01*
X5626434Y46268679D02*
X5559090Y46268679D01*
X5559090Y46268679D02*
X5458075Y46302351D01*
X5458075Y46302351D02*
X5323388Y46437038D01*
X5323388Y46437038D02*
X5289716Y46538053D01*
X5289716Y46538053D02*
X5289716Y46605396D01*
X5289716Y46605396D02*
X5323388Y46706412D01*
X5323388Y46706412D02*
X5491747Y46874770D01*
X5491747Y46874770D02*
X5592762Y46908442D01*
X5592762Y46908442D02*
X5660106Y46908442D01*
X5660106Y46908442D02*
X5761121Y46874770D01*
X5761121Y46874770D02*
X5895808Y46740083D01*
X5895808Y46740083D02*
X5929480Y46639068D01*
X5929480Y46639068D02*
X5929480Y46571725D01*
X5929480Y46571725D02*
X5895808Y46470709D01*
X87801573Y13508872D02*
X87896811Y13556491D01*
X87896811Y13556491D02*
X88039668Y13556491D01*
X88039668Y13556491D02*
X88182525Y13508872D01*
X88182525Y13508872D02*
X88277763Y13413634D01*
X88277763Y13413634D02*
X88325382Y13318396D01*
X88325382Y13318396D02*
X88373001Y13127920D01*
X88373001Y13127920D02*
X88373001Y12985063D01*
X88373001Y12985063D02*
X88325382Y12794587D01*
X88325382Y12794587D02*
X88277763Y12699349D01*
X88277763Y12699349D02*
X88182525Y12604110D01*
X88182525Y12604110D02*
X88039668Y12556491D01*
X88039668Y12556491D02*
X87944430Y12556491D01*
X87944430Y12556491D02*
X87801573Y12604110D01*
X87801573Y12604110D02*
X87753954Y12651730D01*
X87753954Y12651730D02*
X87753954Y12985063D01*
X87753954Y12985063D02*
X87944430Y12985063D01*
X87325382Y12556491D02*
X87325382Y13556491D01*
X87325382Y13556491D02*
X86753954Y12556491D01*
X86753954Y12556491D02*
X86753954Y13556491D01*
X86277763Y12556491D02*
X86277763Y13556491D01*
X86277763Y13556491D02*
X86039668Y13556491D01*
X86039668Y13556491D02*
X85896811Y13508872D01*
X85896811Y13508872D02*
X85801573Y13413634D01*
X85801573Y13413634D02*
X85753954Y13318396D01*
X85753954Y13318396D02*
X85706335Y13127920D01*
X85706335Y13127920D02*
X85706335Y12985063D01*
X85706335Y12985063D02*
X85753954Y12794587D01*
X85753954Y12794587D02*
X85801573Y12699349D01*
X85801573Y12699349D02*
X85896811Y12604110D01*
X85896811Y12604110D02*
X86039668Y12556491D01*
X86039668Y12556491D02*
X86277763Y12556491D01*
X85632441Y77542198D02*
X85060021Y76969778D01*
X85060021Y76969778D02*
X84959006Y76936107D01*
X84959006Y76936107D02*
X84891662Y76936107D01*
X84891662Y76936107D02*
X84790647Y76969778D01*
X84790647Y76969778D02*
X84655960Y77104465D01*
X84655960Y77104465D02*
X84622288Y77205481D01*
X84622288Y77205481D02*
X84622288Y77272824D01*
X84622288Y77272824D02*
X84655960Y77373839D01*
X84655960Y77373839D02*
X85228380Y77946259D01*
X84655960Y78047274D02*
X84184556Y77575870D01*
X84588617Y77979931D02*
X84588617Y78047274D01*
X84588617Y78047274D02*
X84554945Y78148290D01*
X84554945Y78148290D02*
X84453930Y78249305D01*
X84453930Y78249305D02*
X84352915Y78282977D01*
X84352915Y78282977D02*
X84251899Y78249305D01*
X84251899Y78249305D02*
X83881510Y77878916D01*
X67849925Y2100620D02*
X68326115Y2100620D01*
X68326115Y2100620D02*
X68326115Y3100620D01*
X67516591Y2624430D02*
X67183258Y2624430D01*
X67040401Y2100620D02*
X67516591Y2100620D01*
X67516591Y2100620D02*
X67516591Y3100620D01*
X67516591Y3100620D02*
X67040401Y3100620D01*
X66611829Y2100620D02*
X66611829Y3100620D01*
X66611829Y3100620D02*
X66373734Y3100620D01*
X66373734Y3100620D02*
X66230877Y3053001D01*
X66230877Y3053001D02*
X66135639Y2957763D01*
X66135639Y2957763D02*
X66088020Y2862525D01*
X66088020Y2862525D02*
X66040401Y2672049D01*
X66040401Y2672049D02*
X66040401Y2529192D01*
X66040401Y2529192D02*
X66088020Y2338716D01*
X66088020Y2338716D02*
X66135639Y2243478D01*
X66135639Y2243478D02*
X66230877Y2148239D01*
X66230877Y2148239D02*
X66373734Y2100620D01*
X66373734Y2100620D02*
X66611829Y2100620D01*
X65849925Y2005382D02*
X65088020Y2005382D01*
X64659448Y2576811D02*
X64659448Y2100620D01*
X64992781Y3100620D02*
X64659448Y2576811D01*
X64659448Y2576811D02*
X64326115Y3100620D01*
X7677580Y12833885D02*
X8677580Y12833885D01*
X8677580Y12833885D02*
X8677580Y13071980D01*
X8677580Y13071980D02*
X8629961Y13214837D01*
X8629961Y13214837D02*
X8534723Y13310075D01*
X8534723Y13310075D02*
X8439485Y13357694D01*
X8439485Y13357694D02*
X8249009Y13405313D01*
X8249009Y13405313D02*
X8106152Y13405313D01*
X8106152Y13405313D02*
X7915676Y13357694D01*
X7915676Y13357694D02*
X7820438Y13310075D01*
X7820438Y13310075D02*
X7725200Y13214837D01*
X7725200Y13214837D02*
X7677580Y13071980D01*
X7677580Y13071980D02*
X7677580Y12833885D01*
X7772819Y14405313D02*
X7725200Y14357694D01*
X7725200Y14357694D02*
X7677580Y14214837D01*
X7677580Y14214837D02*
X7677580Y14119599D01*
X7677580Y14119599D02*
X7725200Y13976742D01*
X7725200Y13976742D02*
X7820438Y13881504D01*
X7820438Y13881504D02*
X7915676Y13833885D01*
X7915676Y13833885D02*
X8106152Y13786266D01*
X8106152Y13786266D02*
X8249009Y13786266D01*
X8249009Y13786266D02*
X8439485Y13833885D01*
X8439485Y13833885D02*
X8534723Y13881504D01*
X8534723Y13881504D02*
X8629961Y13976742D01*
X8629961Y13976742D02*
X8677580Y14119599D01*
X8677580Y14119599D02*
X8677580Y14214837D01*
X8677580Y14214837D02*
X8629961Y14357694D01*
X8629961Y14357694D02*
X8582342Y14405313D01*
X8582342Y14786266D02*
X8629961Y14833885D01*
X8629961Y14833885D02*
X8677580Y14929123D01*
X8677580Y14929123D02*
X8677580Y15167218D01*
X8677580Y15167218D02*
X8629961Y15262456D01*
X8629961Y15262456D02*
X8582342Y15310075D01*
X8582342Y15310075D02*
X8487104Y15357694D01*
X8487104Y15357694D02*
X8391866Y15357694D01*
X8391866Y15357694D02*
X8249009Y15310075D01*
X8249009Y15310075D02*
X7677580Y14738647D01*
X7677580Y14738647D02*
X7677580Y15357694D01*
X7582342Y15548170D02*
X7582342Y16310075D01*
X7677580Y16548171D02*
X8677580Y16548171D01*
X8677580Y16548171D02*
X8677580Y16786266D01*
X8677580Y16786266D02*
X8629961Y16929123D01*
X8629961Y16929123D02*
X8534723Y17024361D01*
X8534723Y17024361D02*
X8439485Y17071980D01*
X8439485Y17071980D02*
X8249009Y17119599D01*
X8249009Y17119599D02*
X8106152Y17119599D01*
X8106152Y17119599D02*
X7915676Y17071980D01*
X7915676Y17071980D02*
X7820438Y17024361D01*
X7820438Y17024361D02*
X7725200Y16929123D01*
X7725200Y16929123D02*
X7677580Y16786266D01*
X7677580Y16786266D02*
X7677580Y16548171D01*
X7677580Y17548171D02*
X8677580Y17548171D01*
X7677580Y18595789D02*
X8153771Y18262456D01*
X7677580Y18024361D02*
X8677580Y18024361D01*
X8677580Y18024361D02*
X8677580Y18405313D01*
X8677580Y18405313D02*
X8629961Y18500551D01*
X8629961Y18500551D02*
X8582342Y18548170D01*
X8582342Y18548170D02*
X8487104Y18595789D01*
X8487104Y18595789D02*
X8344247Y18595789D01*
X8344247Y18595789D02*
X8249009Y18548170D01*
X8249009Y18548170D02*
X8201390Y18500551D01*
X8201390Y18500551D02*
X8153771Y18405313D01*
X8153771Y18405313D02*
X8153771Y18024361D01*
X10978380Y83128916D02*
X11079395Y83095244D01*
X11079395Y83095244D02*
X11180411Y82994229D01*
X11180411Y82994229D02*
X11247754Y82859542D01*
X11247754Y82859542D02*
X11247754Y82724855D01*
X11247754Y82724855D02*
X11214082Y82623839D01*
X11214082Y82623839D02*
X11113067Y82455481D01*
X11113067Y82455481D02*
X11012052Y82354465D01*
X11012052Y82354465D02*
X10843693Y82253450D01*
X10843693Y82253450D02*
X10742678Y82219778D01*
X10742678Y82219778D02*
X10607991Y82219778D01*
X10607991Y82219778D02*
X10473304Y82287122D01*
X10473304Y82287122D02*
X10405960Y82354465D01*
X10405960Y82354465D02*
X10338617Y82489152D01*
X10338617Y82489152D02*
X10338617Y82556496D01*
X10338617Y82556496D02*
X10574319Y82792198D01*
X10574319Y82792198D02*
X10709006Y82657511D01*
X9968227Y82792198D02*
X10675334Y83499305D01*
X10675334Y83499305D02*
X9564166Y83196259D01*
X9564166Y83196259D02*
X10271273Y83903366D01*
X9227449Y83532977D02*
X9934556Y84240084D01*
X9934556Y84240084D02*
X9766197Y84408442D01*
X9766197Y84408442D02*
X9631510Y84475786D01*
X9631510Y84475786D02*
X9496823Y84475786D01*
X9496823Y84475786D02*
X9395808Y84442114D01*
X9395808Y84442114D02*
X9227449Y84341099D01*
X9227449Y84341099D02*
X9126434Y84240084D01*
X9126434Y84240084D02*
X9025418Y84071725D01*
X9025418Y84071725D02*
X8991747Y83970710D01*
X8991747Y83970710D02*
X8991747Y83836023D01*
X8991747Y83836023D02*
X9059090Y83701335D01*
X9059090Y83701335D02*
X9227449Y83532977D01*
X8756044Y84408442D02*
X8419327Y84745160D01*
X8621357Y84139068D02*
X9092762Y85081877D01*
X9092762Y85081877D02*
X8149953Y84610473D01*
X67901640Y6815384D02*
X68377830Y6815384D01*
X68377830Y6815384D02*
X68377830Y7815384D01*
X67568306Y7339194D02*
X67234973Y7339194D01*
X67092116Y6815384D02*
X67568306Y6815384D01*
X67568306Y6815384D02*
X67568306Y7815384D01*
X67568306Y7815384D02*
X67092116Y7815384D01*
X66663544Y6815384D02*
X66663544Y7815384D01*
X66663544Y7815384D02*
X66425449Y7815384D01*
X66425449Y7815384D02*
X66282592Y7767765D01*
X66282592Y7767765D02*
X66187354Y7672527D01*
X66187354Y7672527D02*
X66139735Y7577289D01*
X66139735Y7577289D02*
X66092116Y7386813D01*
X66092116Y7386813D02*
X66092116Y7243956D01*
X66092116Y7243956D02*
X66139735Y7053480D01*
X66139735Y7053480D02*
X66187354Y6958242D01*
X66187354Y6958242D02*
X66282592Y6863003D01*
X66282592Y6863003D02*
X66425449Y6815384D01*
X66425449Y6815384D02*
X66663544Y6815384D01*
X65901640Y6720146D02*
X65139735Y6720146D01*
X64377830Y7767765D02*
X64473068Y7815384D01*
X64473068Y7815384D02*
X64615925Y7815384D01*
X64615925Y7815384D02*
X64758782Y7767765D01*
X64758782Y7767765D02*
X64854020Y7672527D01*
X64854020Y7672527D02*
X64901639Y7577289D01*
X64901639Y7577289D02*
X64949258Y7386813D01*
X64949258Y7386813D02*
X64949258Y7243956D01*
X64949258Y7243956D02*
X64901639Y7053480D01*
X64901639Y7053480D02*
X64854020Y6958242D01*
X64854020Y6958242D02*
X64758782Y6863003D01*
X64758782Y6863003D02*
X64615925Y6815384D01*
X64615925Y6815384D02*
X64520687Y6815384D01*
X64520687Y6815384D02*
X64377830Y6863003D01*
X64377830Y6863003D02*
X64330211Y6910623D01*
X64330211Y6910623D02*
X64330211Y7243956D01*
X64330211Y7243956D02*
X64520687Y7243956D01*
X10354708Y92044465D02*
X9815960Y92583213D01*
X9815960Y92044465D02*
X10354708Y92583213D01*
X9580258Y93694381D02*
X9916976Y93357664D01*
X9916976Y93357664D02*
X9613930Y92987274D01*
X9613930Y92987274D02*
X9613930Y93054618D01*
X9613930Y93054618D02*
X9580258Y93155633D01*
X9580258Y93155633D02*
X9411899Y93323992D01*
X9411899Y93323992D02*
X9310884Y93357664D01*
X9310884Y93357664D02*
X9243541Y93357664D01*
X9243541Y93357664D02*
X9142525Y93323992D01*
X9142525Y93323992D02*
X8974167Y93155633D01*
X8974167Y93155633D02*
X8940495Y93054618D01*
X8940495Y93054618D02*
X8940495Y92987274D01*
X8940495Y92987274D02*
X8974167Y92886259D01*
X8974167Y92886259D02*
X9142525Y92717900D01*
X9142525Y92717900D02*
X9243541Y92684229D01*
X9243541Y92684229D02*
X9310884Y92684229D01*
X9344556Y93930083D02*
X8401747Y93458679D01*
X8401747Y93458679D02*
X8873151Y94401488D01*
X7930342Y93930084D02*
X8637449Y94637190D01*
X8637449Y94637190D02*
X8368075Y94906564D01*
X8368075Y94906564D02*
X8267060Y94940236D01*
X8267060Y94940236D02*
X8199716Y94940236D01*
X8199716Y94940236D02*
X8098701Y94906564D01*
X8098701Y94906564D02*
X7997686Y94805549D01*
X7997686Y94805549D02*
X7964014Y94704534D01*
X7964014Y94704534D02*
X7964014Y94637190D01*
X7964014Y94637190D02*
X7997686Y94536175D01*
X7997686Y94536175D02*
X8267060Y94266801D01*
X84675334Y73085091D02*
X85382441Y73792198D01*
X84810022Y73893213D02*
X84102915Y73186106D01*
X84776350Y73859541D02*
X84742678Y73960557D01*
X84742678Y73960557D02*
X84607991Y74095244D01*
X84607991Y74095244D02*
X84506976Y74128915D01*
X84506976Y74128915D02*
X84439632Y74128915D01*
X84439632Y74128915D02*
X84338617Y74095244D01*
X84338617Y74095244D02*
X84136587Y73893213D01*
X84136587Y73893213D02*
X84102915Y73792198D01*
X84102915Y73792198D02*
X84102915Y73724854D01*
X84102915Y73724854D02*
X84136587Y73623839D01*
X84136587Y73623839D02*
X84271274Y73489152D01*
X84271274Y73489152D02*
X84372289Y73455480D01*
X27661037Y82503450D02*
X27324319Y82840168D01*
X27526350Y82234076D02*
X27997754Y83176885D01*
X27997754Y83176885D02*
X27054945Y82705481D01*
X27526349Y83648290D02*
X26953930Y83075870D01*
X26953930Y83075870D02*
X26852914Y83042198D01*
X26852914Y83042198D02*
X26785571Y83042198D01*
X26785571Y83042198D02*
X26684556Y83075870D01*
X26684556Y83075870D02*
X26549869Y83210557D01*
X26549869Y83210557D02*
X26516197Y83311572D01*
X26516197Y83311572D02*
X26516197Y83378916D01*
X26516197Y83378916D02*
X26549869Y83479931D01*
X26549869Y83479931D02*
X27122288Y84052351D01*
X26852914Y84321725D02*
X25674403Y84086023D01*
X26381510Y84793129D02*
X26145808Y83614618D01*
X26179479Y84995160D02*
X25741747Y85432893D01*
X25741747Y85432893D02*
X25708075Y84927816D01*
X25708075Y84927816D02*
X25607060Y85028832D01*
X25607060Y85028832D02*
X25506044Y85062503D01*
X25506044Y85062503D02*
X25438701Y85062503D01*
X25438701Y85062503D02*
X25337686Y85028832D01*
X25337686Y85028832D02*
X25169327Y84860473D01*
X25169327Y84860473D02*
X25135655Y84759458D01*
X25135655Y84759458D02*
X25135655Y84692114D01*
X25135655Y84692114D02*
X25169327Y84591099D01*
X25169327Y84591099D02*
X25371357Y84389068D01*
X25371357Y84389068D02*
X25472373Y84355397D01*
X25472373Y84355397D02*
X25539716Y84355397D01*
X7457407Y52715951D02*
X8164514Y53423058D01*
X7120690Y53052669D02*
X7827797Y53759775D01*
X7827797Y53759775D02*
X6716629Y53456730D01*
X6716629Y53456730D02*
X7423736Y54163836D01*
X6884988Y54702584D02*
X6379912Y54197508D01*
X6379912Y54197508D02*
X6312568Y54062821D01*
X6312568Y54062821D02*
X6312568Y53928134D01*
X6312568Y53928134D02*
X6379912Y53793447D01*
X6379912Y53793447D02*
X6447255Y53726104D01*
X6009522Y55106646D02*
X5538118Y54635241D01*
X6447255Y55207661D02*
X6110537Y54534226D01*
X6110537Y54534226D02*
X5672805Y54971959D01*
X85119188Y92331496D02*
X85119188Y92264152D01*
X85119188Y92264152D02*
X85186531Y92129465D01*
X85186531Y92129465D02*
X85253875Y92062122D01*
X85253875Y92062122D02*
X85388562Y91994778D01*
X85388562Y91994778D02*
X85523249Y91994778D01*
X85523249Y91994778D02*
X85624264Y92028450D01*
X85624264Y92028450D02*
X85792623Y92129465D01*
X85792623Y92129465D02*
X85893638Y92230481D01*
X85893638Y92230481D02*
X85994653Y92398839D01*
X85994653Y92398839D02*
X86028325Y92499855D01*
X86028325Y92499855D02*
X86028325Y92634542D01*
X86028325Y92634542D02*
X85960982Y92769229D01*
X85960982Y92769229D02*
X85893638Y92836572D01*
X85893638Y92836572D02*
X85758951Y92903916D01*
X85758951Y92903916D02*
X85691608Y92903916D01*
X84984501Y92735557D02*
X84647783Y93072275D01*
X84849814Y92466183D02*
X85321218Y93408992D01*
X85321218Y93408992D02*
X84378409Y92937588D01*
X84142707Y93173290D02*
X84849814Y93880397D01*
X84849814Y93880397D02*
X83738646Y93577351D01*
X83738646Y93577351D02*
X84445753Y94284458D01*
X83401928Y93914068D02*
X84109035Y94621175D01*
X83772318Y94284458D02*
X83368257Y94688519D01*
X82997867Y94318129D02*
X83704974Y95025236D01*
X32433456Y82941183D02*
X31490647Y82469778D01*
X31490647Y82469778D02*
X31962052Y83412588D01*
X30615182Y83345244D02*
X31187601Y83446259D01*
X31019243Y82941183D02*
X31726349Y83648290D01*
X31726349Y83648290D02*
X31456975Y83917664D01*
X31456975Y83917664D02*
X31355960Y83951336D01*
X31355960Y83951336D02*
X31288617Y83951336D01*
X31288617Y83951336D02*
X31187601Y83917664D01*
X31187601Y83917664D02*
X31086586Y83816649D01*
X31086586Y83816649D02*
X31052914Y83715633D01*
X31052914Y83715633D02*
X31052914Y83648290D01*
X31052914Y83648290D02*
X31086586Y83547275D01*
X31086586Y83547275D02*
X31355960Y83277901D01*
X30985571Y84254381D02*
X30985571Y84321725D01*
X30985571Y84321725D02*
X30951899Y84422740D01*
X30951899Y84422740D02*
X30783540Y84591099D01*
X30783540Y84591099D02*
X30682525Y84624771D01*
X30682525Y84624771D02*
X30615182Y84624771D01*
X30615182Y84624771D02*
X30514166Y84591099D01*
X30514166Y84591099D02*
X30446823Y84523755D01*
X30446823Y84523755D02*
X30379479Y84389068D01*
X30379479Y84389068D02*
X30379479Y83580946D01*
X30379479Y83580946D02*
X29941747Y84018679D01*
X29908075Y84591099D02*
X29369327Y85129847D01*
X29369327Y84591099D02*
X29908075Y85129847D01*
X7040507Y70388863D02*
X7377224Y70052145D01*
X7377224Y70052145D02*
X8084331Y70759252D01*
X6872148Y70624565D02*
X6737461Y70691909D01*
X6737461Y70691909D02*
X6569102Y70860268D01*
X6569102Y70860268D02*
X6535430Y70961283D01*
X6535430Y70961283D02*
X6535430Y71028626D01*
X6535430Y71028626D02*
X6569102Y71129642D01*
X6569102Y71129642D02*
X6636446Y71196985D01*
X6636446Y71196985D02*
X6737461Y71230657D01*
X6737461Y71230657D02*
X6804804Y71230657D01*
X6804804Y71230657D02*
X6905820Y71196985D01*
X6905820Y71196985D02*
X7074178Y71095970D01*
X7074178Y71095970D02*
X7175194Y71062298D01*
X7175194Y71062298D02*
X7242537Y71062298D01*
X7242537Y71062298D02*
X7343552Y71095970D01*
X7343552Y71095970D02*
X7410896Y71163313D01*
X7410896Y71163313D02*
X7444568Y71264329D01*
X7444568Y71264329D02*
X7444568Y71331672D01*
X7444568Y71331672D02*
X7410896Y71432687D01*
X7410896Y71432687D02*
X7242537Y71601046D01*
X7242537Y71601046D02*
X7107850Y71668390D01*
X5760980Y71668390D02*
X6165041Y71264329D01*
X5963011Y71466359D02*
X6670117Y72173466D01*
X6670117Y72173466D02*
X6636446Y72005107D01*
X6636446Y72005107D02*
X6636446Y71870420D01*
X6636446Y71870420D02*
X6670117Y71769405D01*
X16125334Y49716767D02*
X16832441Y50423874D01*
X16091663Y51097309D02*
X16192678Y51063637D01*
X16192678Y51063637D02*
X16293693Y50962622D01*
X16293693Y50962622D02*
X16361037Y50827935D01*
X16361037Y50827935D02*
X16361037Y50693248D01*
X16361037Y50693248D02*
X16327365Y50592233D01*
X16327365Y50592233D02*
X16226350Y50423874D01*
X16226350Y50423874D02*
X16125335Y50322859D01*
X16125335Y50322859D02*
X15956976Y50221843D01*
X15956976Y50221843D02*
X15855961Y50188172D01*
X15855961Y50188172D02*
X15721274Y50188172D01*
X15721274Y50188172D02*
X15586587Y50255515D01*
X15586587Y50255515D02*
X15519243Y50322859D01*
X15519243Y50322859D02*
X15451900Y50457546D01*
X15451900Y50457546D02*
X15451900Y50524889D01*
X15451900Y50524889D02*
X15687602Y50760591D01*
X15687602Y50760591D02*
X15822289Y50625904D01*
X15081510Y50760591D02*
X15788617Y51467698D01*
X15788617Y51467698D02*
X14677449Y51164652D01*
X14677449Y51164652D02*
X15384556Y51871759D01*
X15115182Y52141133D02*
X14677449Y52578866D01*
X14677449Y52578866D02*
X14643778Y52073790D01*
X14643778Y52073790D02*
X14542762Y52174805D01*
X14542762Y52174805D02*
X14441747Y52208477D01*
X14441747Y52208477D02*
X14374404Y52208477D01*
X14374404Y52208477D02*
X14273388Y52174805D01*
X14273388Y52174805D02*
X14105030Y52006446D01*
X14105030Y52006446D02*
X14071358Y51905431D01*
X14071358Y51905431D02*
X14071358Y51838087D01*
X14071358Y51838087D02*
X14105030Y51737072D01*
X14105030Y51737072D02*
X14307060Y51535042D01*
X14307060Y51535042D02*
X14408075Y51501370D01*
X14408075Y51501370D02*
X14475419Y51501370D01*
X68728380Y83628916D02*
X68829395Y83595244D01*
X68829395Y83595244D02*
X68930411Y83494229D01*
X68930411Y83494229D02*
X68997754Y83359542D01*
X68997754Y83359542D02*
X68997754Y83224855D01*
X68997754Y83224855D02*
X68964082Y83123839D01*
X68964082Y83123839D02*
X68863067Y82955481D01*
X68863067Y82955481D02*
X68762052Y82854465D01*
X68762052Y82854465D02*
X68593693Y82753450D01*
X68593693Y82753450D02*
X68492678Y82719778D01*
X68492678Y82719778D02*
X68357991Y82719778D01*
X68357991Y82719778D02*
X68223304Y82787122D01*
X68223304Y82787122D02*
X68155960Y82854465D01*
X68155960Y82854465D02*
X68088617Y82989152D01*
X68088617Y82989152D02*
X68088617Y83056496D01*
X68088617Y83056496D02*
X68324319Y83292198D01*
X68324319Y83292198D02*
X68459006Y83157511D01*
X67718227Y83292198D02*
X68425334Y83999305D01*
X68425334Y83999305D02*
X67314166Y83696259D01*
X67314166Y83696259D02*
X68021273Y84403366D01*
X66977449Y84032977D02*
X67684556Y84740084D01*
X67684556Y84740084D02*
X67516197Y84908442D01*
X67516197Y84908442D02*
X67381510Y84975786D01*
X67381510Y84975786D02*
X67246823Y84975786D01*
X67246823Y84975786D02*
X67145808Y84942114D01*
X67145808Y84942114D02*
X66977449Y84841099D01*
X66977449Y84841099D02*
X66876434Y84740084D01*
X66876434Y84740084D02*
X66775418Y84571725D01*
X66775418Y84571725D02*
X66741747Y84470710D01*
X66741747Y84470710D02*
X66741747Y84336023D01*
X66741747Y84336023D02*
X66809090Y84201335D01*
X66809090Y84201335D02*
X66977449Y84032977D01*
X66506044Y84908442D02*
X66169327Y85245160D01*
X66371357Y84639068D02*
X66842762Y85581877D01*
X66842762Y85581877D02*
X65899953Y85110473D01*
X7088617Y78421809D02*
X7425334Y78085091D01*
X7425334Y78085091D02*
X8132441Y78792198D01*
X6920258Y78657511D02*
X6785571Y78724855D01*
X6785571Y78724855D02*
X6617212Y78893214D01*
X6617212Y78893214D02*
X6583540Y78994229D01*
X6583540Y78994229D02*
X6583540Y79061572D01*
X6583540Y79061572D02*
X6617212Y79162588D01*
X6617212Y79162588D02*
X6684556Y79229931D01*
X6684556Y79229931D02*
X6785571Y79263603D01*
X6785571Y79263603D02*
X6852914Y79263603D01*
X6852914Y79263603D02*
X6953930Y79229931D01*
X6953930Y79229931D02*
X7122288Y79128916D01*
X7122288Y79128916D02*
X7223304Y79095244D01*
X7223304Y79095244D02*
X7290647Y79095244D01*
X7290647Y79095244D02*
X7391662Y79128916D01*
X7391662Y79128916D02*
X7459006Y79196259D01*
X7459006Y79196259D02*
X7492678Y79297275D01*
X7492678Y79297275D02*
X7492678Y79364618D01*
X7492678Y79364618D02*
X7459006Y79465633D01*
X7459006Y79465633D02*
X7290647Y79633992D01*
X7290647Y79633992D02*
X7155960Y79701336D01*
X6179479Y79330946D02*
X6886586Y80038053D01*
X6549869Y79701336D02*
X6145808Y80105397D01*
X5775418Y79735007D02*
X6482525Y80442114D01*
X5068312Y80442114D02*
X5472373Y80038053D01*
X5270342Y80240084D02*
X5977449Y80947190D01*
X5977449Y80947190D02*
X5943777Y80778832D01*
X5943777Y80778832D02*
X5943777Y80644145D01*
X5943777Y80644145D02*
X5977449Y80543129D01*
X14973252Y91958066D02*
X14434504Y92496814D01*
X14434504Y91958066D02*
X14973252Y92496814D01*
X14198802Y93607982D02*
X14535520Y93271265D01*
X14535520Y93271265D02*
X14232474Y92900875D01*
X14232474Y92900875D02*
X14232474Y92968219D01*
X14232474Y92968219D02*
X14198802Y93069234D01*
X14198802Y93069234D02*
X14030443Y93237593D01*
X14030443Y93237593D02*
X13929428Y93271265D01*
X13929428Y93271265D02*
X13862085Y93271265D01*
X13862085Y93271265D02*
X13761069Y93237593D01*
X13761069Y93237593D02*
X13592711Y93069234D01*
X13592711Y93069234D02*
X13559039Y92968219D01*
X13559039Y92968219D02*
X13559039Y92900875D01*
X13559039Y92900875D02*
X13592711Y92799860D01*
X13592711Y92799860D02*
X13761069Y92631501D01*
X13761069Y92631501D02*
X13862085Y92597830D01*
X13862085Y92597830D02*
X13929428Y92597830D01*
X13963100Y93843684D02*
X13020291Y93372280D01*
X13020291Y93372280D02*
X13491695Y94315089D01*
X12548886Y93843685D02*
X13255993Y94550791D01*
X13255993Y94550791D02*
X12986619Y94820165D01*
X12986619Y94820165D02*
X12885604Y94853837D01*
X12885604Y94853837D02*
X12818260Y94853837D01*
X12818260Y94853837D02*
X12717245Y94820165D01*
X12717245Y94820165D02*
X12616230Y94719150D01*
X12616230Y94719150D02*
X12582558Y94618135D01*
X12582558Y94618135D02*
X12582558Y94550791D01*
X12582558Y94550791D02*
X12616230Y94449776D01*
X12616230Y94449776D02*
X12885604Y94180402D01*
X2427580Y12833885D02*
X3427580Y12833885D01*
X3427580Y12833885D02*
X3427580Y13071980D01*
X3427580Y13071980D02*
X3379961Y13214837D01*
X3379961Y13214837D02*
X3284723Y13310075D01*
X3284723Y13310075D02*
X3189485Y13357694D01*
X3189485Y13357694D02*
X2999009Y13405313D01*
X2999009Y13405313D02*
X2856152Y13405313D01*
X2856152Y13405313D02*
X2665676Y13357694D01*
X2665676Y13357694D02*
X2570438Y13310075D01*
X2570438Y13310075D02*
X2475200Y13214837D01*
X2475200Y13214837D02*
X2427580Y13071980D01*
X2427580Y13071980D02*
X2427580Y12833885D01*
X2522819Y14405313D02*
X2475200Y14357694D01*
X2475200Y14357694D02*
X2427580Y14214837D01*
X2427580Y14214837D02*
X2427580Y14119599D01*
X2427580Y14119599D02*
X2475200Y13976742D01*
X2475200Y13976742D02*
X2570438Y13881504D01*
X2570438Y13881504D02*
X2665676Y13833885D01*
X2665676Y13833885D02*
X2856152Y13786266D01*
X2856152Y13786266D02*
X2999009Y13786266D01*
X2999009Y13786266D02*
X3189485Y13833885D01*
X3189485Y13833885D02*
X3284723Y13881504D01*
X3284723Y13881504D02*
X3379961Y13976742D01*
X3379961Y13976742D02*
X3427580Y14119599D01*
X3427580Y14119599D02*
X3427580Y14214837D01*
X3427580Y14214837D02*
X3379961Y14357694D01*
X3379961Y14357694D02*
X3332342Y14405313D01*
X2427580Y15357694D02*
X2427580Y14786266D01*
X2427580Y15071980D02*
X3427580Y15071980D01*
X3427580Y15071980D02*
X3284723Y14976742D01*
X3284723Y14976742D02*
X3189485Y14881504D01*
X3189485Y14881504D02*
X3141866Y14786266D01*
X2332342Y15548170D02*
X2332342Y16310075D01*
X2427580Y16548171D02*
X3427580Y16548171D01*
X3427580Y16548171D02*
X3427580Y16929123D01*
X3427580Y16929123D02*
X3379961Y17024361D01*
X3379961Y17024361D02*
X3332342Y17071980D01*
X3332342Y17071980D02*
X3237104Y17119599D01*
X3237104Y17119599D02*
X3094247Y17119599D01*
X3094247Y17119599D02*
X2999009Y17071980D01*
X2999009Y17071980D02*
X2951390Y17024361D01*
X2951390Y17024361D02*
X2903771Y16929123D01*
X2903771Y16929123D02*
X2903771Y16548171D01*
X3427580Y17452933D02*
X2427580Y17691028D01*
X2427580Y17691028D02*
X3141866Y17881504D01*
X3141866Y17881504D02*
X2427580Y18071980D01*
X2427580Y18071980D02*
X3427580Y18310075D01*
X2427580Y18691028D02*
X3427580Y18691028D01*
X3427580Y18691028D02*
X2713295Y19024361D01*
X2713295Y19024361D02*
X3427580Y19357694D01*
X3427580Y19357694D02*
X2427580Y19357694D01*
X64560021Y82941183D02*
X64425334Y83008526D01*
X64425334Y83008526D02*
X64357991Y83008526D01*
X64357991Y83008526D02*
X64256975Y82974855D01*
X64256975Y82974855D02*
X64155960Y82873839D01*
X64155960Y82873839D02*
X64122288Y82772824D01*
X64122288Y82772824D02*
X64122288Y82705481D01*
X64122288Y82705481D02*
X64155960Y82604465D01*
X64155960Y82604465D02*
X64425334Y82335091D01*
X64425334Y82335091D02*
X65132441Y83042198D01*
X65132441Y83042198D02*
X64896739Y83277901D01*
X64896739Y83277901D02*
X64795724Y83311572D01*
X64795724Y83311572D02*
X64728380Y83311572D01*
X64728380Y83311572D02*
X64627365Y83277901D01*
X64627365Y83277901D02*
X64560021Y83210557D01*
X64560021Y83210557D02*
X64526350Y83109542D01*
X64526350Y83109542D02*
X64526350Y83042198D01*
X64526350Y83042198D02*
X64560021Y82941183D01*
X64560021Y82941183D02*
X64795724Y82705481D01*
X64526350Y83648290D02*
X64122288Y84052351D01*
X63617212Y83143213D02*
X64324319Y83850320D01*
X63179479Y83580946D02*
X63886586Y84288053D01*
X63886586Y84288053D02*
X62775418Y83985007D01*
X62775418Y83985007D02*
X63482525Y84692114D01*
X63112136Y84927816D02*
X63112136Y84995160D01*
X63112136Y84995160D02*
X63078464Y85096175D01*
X63078464Y85096175D02*
X62910105Y85264534D01*
X62910105Y85264534D02*
X62809090Y85298206D01*
X62809090Y85298206D02*
X62741747Y85298206D01*
X62741747Y85298206D02*
X62640731Y85264534D01*
X62640731Y85264534D02*
X62573388Y85197190D01*
X62573388Y85197190D02*
X62506044Y85062503D01*
X62506044Y85062503D02*
X62506044Y84254381D01*
X62506044Y84254381D02*
X62068312Y84692114D01*
X7393261Y61119135D02*
X8100368Y61826242D01*
X7056544Y61455853D02*
X7763651Y62162959D01*
X7763651Y62162959D02*
X6652483Y61859914D01*
X6652483Y61859914D02*
X7359590Y62567020D01*
X6820842Y63105768D02*
X6315766Y62600692D01*
X6315766Y62600692D02*
X6248422Y62466005D01*
X6248422Y62466005D02*
X6248422Y62331318D01*
X6248422Y62331318D02*
X6315766Y62196631D01*
X6315766Y62196631D02*
X6383109Y62129288D01*
X6450452Y63341471D02*
X6450452Y63408814D01*
X6450452Y63408814D02*
X6416781Y63509830D01*
X6416781Y63509830D02*
X6248422Y63678188D01*
X6248422Y63678188D02*
X6147407Y63711860D01*
X6147407Y63711860D02*
X6080063Y63711860D01*
X6080063Y63711860D02*
X5979048Y63678188D01*
X5979048Y63678188D02*
X5911704Y63610845D01*
X5911704Y63610845D02*
X5844361Y63476158D01*
X5844361Y63476158D02*
X5844361Y62668036D01*
X5844361Y62668036D02*
X5406628Y63105769D01*
X86685566Y20034285D02*
X86114138Y20034285D01*
X86399852Y19034285D02*
X86399852Y20034285D01*
X85876042Y19034285D02*
X85352233Y19700952D01*
X85876042Y19700952D02*
X85352233Y19034285D01*
X87801573Y10878867D02*
X87896811Y10926486D01*
X87896811Y10926486D02*
X88039668Y10926486D01*
X88039668Y10926486D02*
X88182525Y10878867D01*
X88182525Y10878867D02*
X88277763Y10783629D01*
X88277763Y10783629D02*
X88325382Y10688391D01*
X88325382Y10688391D02*
X88373001Y10497915D01*
X88373001Y10497915D02*
X88373001Y10355058D01*
X88373001Y10355058D02*
X88325382Y10164582D01*
X88325382Y10164582D02*
X88277763Y10069344D01*
X88277763Y10069344D02*
X88182525Y9974105D01*
X88182525Y9974105D02*
X88039668Y9926486D01*
X88039668Y9926486D02*
X87944430Y9926486D01*
X87944430Y9926486D02*
X87801573Y9974105D01*
X87801573Y9974105D02*
X87753954Y10021725D01*
X87753954Y10021725D02*
X87753954Y10355058D01*
X87753954Y10355058D02*
X87944430Y10355058D01*
X87325382Y9926486D02*
X87325382Y10926486D01*
X87325382Y10926486D02*
X86753954Y9926486D01*
X86753954Y9926486D02*
X86753954Y10926486D01*
X86277763Y9926486D02*
X86277763Y10926486D01*
X86277763Y10926486D02*
X86039668Y10926486D01*
X86039668Y10926486D02*
X85896811Y10878867D01*
X85896811Y10878867D02*
X85801573Y10783629D01*
X85801573Y10783629D02*
X85753954Y10688391D01*
X85753954Y10688391D02*
X85706335Y10497915D01*
X85706335Y10497915D02*
X85706335Y10355058D01*
X85706335Y10355058D02*
X85753954Y10164582D01*
X85753954Y10164582D02*
X85801573Y10069344D01*
X85801573Y10069344D02*
X85896811Y9974105D01*
X85896811Y9974105D02*
X86039668Y9926486D01*
X86039668Y9926486D02*
X86277763Y9926486D01*
X35640481Y91877526D02*
X36347588Y92584633D01*
X36010871Y92247916D02*
X35606809Y92651977D01*
X35236420Y92281587D02*
X35943527Y92988694D01*
X35135405Y92786664D02*
X34798687Y93123381D01*
X35000718Y92517290D02*
X35472123Y93460099D01*
X35472123Y93460099D02*
X34529313Y92988694D01*
X33956894Y93561114D02*
X34293611Y93224397D01*
X34293611Y93224397D02*
X35000718Y93931503D01*
X33384474Y94133534D02*
X33721191Y93796816D01*
X33721191Y93796816D02*
X34428298Y94503923D01*
X33923222Y95009000D02*
X33485489Y95446732D01*
X33485489Y95446732D02*
X33451817Y94941656D01*
X33451817Y94941656D02*
X33350802Y95042671D01*
X33350802Y95042671D02*
X33249787Y95076343D01*
X33249787Y95076343D02*
X33182443Y95076343D01*
X33182443Y95076343D02*
X33081428Y95042671D01*
X33081428Y95042671D02*
X32913069Y94874313D01*
X32913069Y94874313D02*
X32879397Y94773297D01*
X32879397Y94773297D02*
X32879397Y94705954D01*
X32879397Y94705954D02*
X32913069Y94604939D01*
X32913069Y94604939D02*
X33115100Y94402908D01*
X33115100Y94402908D02*
X33216115Y94369236D01*
X33216115Y94369236D02*
X33283458Y94369236D01*
X85233456Y69191183D02*
X84290647Y68719778D01*
X84290647Y68719778D02*
X84762052Y69662588D01*
X83819243Y69191183D02*
X84290647Y69662588D01*
X84223304Y69595244D02*
X84223304Y69662588D01*
X84223304Y69662588D02*
X84189632Y69763603D01*
X84189632Y69763603D02*
X84088617Y69864618D01*
X84088617Y69864618D02*
X83987601Y69898290D01*
X83987601Y69898290D02*
X83886586Y69864618D01*
X83886586Y69864618D02*
X83516197Y69494229D01*
X83886586Y69864618D02*
X83920258Y69965633D01*
X83920258Y69965633D02*
X83886586Y70066649D01*
X83886586Y70066649D02*
X83785571Y70167664D01*
X83785571Y70167664D02*
X83684556Y70201336D01*
X83684556Y70201336D02*
X83583540Y70167664D01*
X83583540Y70167664D02*
X83213151Y69797275D01*
X21746115Y10657581D02*
X21746115Y11657581D01*
X21746115Y11657581D02*
X21508020Y11657581D01*
X21508020Y11657581D02*
X21365163Y11609962D01*
X21365163Y11609962D02*
X21269925Y11514724D01*
X21269925Y11514724D02*
X21222306Y11419486D01*
X21222306Y11419486D02*
X21174687Y11229010D01*
X21174687Y11229010D02*
X21174687Y11086153D01*
X21174687Y11086153D02*
X21222306Y10895677D01*
X21222306Y10895677D02*
X21269925Y10800439D01*
X21269925Y10800439D02*
X21365163Y10705200D01*
X21365163Y10705200D02*
X21508020Y10657581D01*
X21508020Y10657581D02*
X21746115Y10657581D01*
X20174687Y10752820D02*
X20222306Y10705200D01*
X20222306Y10705200D02*
X20365163Y10657581D01*
X20365163Y10657581D02*
X20460401Y10657581D01*
X20460401Y10657581D02*
X20603258Y10705200D01*
X20603258Y10705200D02*
X20698496Y10800439D01*
X20698496Y10800439D02*
X20746115Y10895677D01*
X20746115Y10895677D02*
X20793734Y11086153D01*
X20793734Y11086153D02*
X20793734Y11229010D01*
X20793734Y11229010D02*
X20746115Y11419486D01*
X20746115Y11419486D02*
X20698496Y11514724D01*
X20698496Y11514724D02*
X20603258Y11609962D01*
X20603258Y11609962D02*
X20460401Y11657581D01*
X20460401Y11657581D02*
X20365163Y11657581D01*
X20365163Y11657581D02*
X20222306Y11609962D01*
X20222306Y11609962D02*
X20174687Y11562343D01*
X19793734Y11562343D02*
X19746115Y11609962D01*
X19746115Y11609962D02*
X19650877Y11657581D01*
X19650877Y11657581D02*
X19412782Y11657581D01*
X19412782Y11657581D02*
X19317544Y11609962D01*
X19317544Y11609962D02*
X19269925Y11562343D01*
X19269925Y11562343D02*
X19222306Y11467105D01*
X19222306Y11467105D02*
X19222306Y11371867D01*
X19222306Y11371867D02*
X19269925Y11229010D01*
X19269925Y11229010D02*
X19841353Y10657581D01*
X19841353Y10657581D02*
X19222306Y10657581D01*
X19031830Y10562343D02*
X18269925Y10562343D01*
X18031829Y10657581D02*
X18031829Y11657581D01*
X18031829Y11657581D02*
X17650877Y11657581D01*
X17650877Y11657581D02*
X17555639Y11609962D01*
X17555639Y11609962D02*
X17508020Y11562343D01*
X17508020Y11562343D02*
X17460401Y11467105D01*
X17460401Y11467105D02*
X17460401Y11324248D01*
X17460401Y11324248D02*
X17508020Y11229010D01*
X17508020Y11229010D02*
X17555639Y11181391D01*
X17555639Y11181391D02*
X17650877Y11133772D01*
X17650877Y11133772D02*
X18031829Y11133772D01*
X17127067Y11657581D02*
X16888972Y10657581D01*
X16888972Y10657581D02*
X16698496Y11371867D01*
X16698496Y11371867D02*
X16508020Y10657581D01*
X16508020Y10657581D02*
X16269925Y11657581D01*
X15888972Y10657581D02*
X15888972Y11657581D01*
X15888972Y11657581D02*
X15555639Y10943296D01*
X15555639Y10943296D02*
X15222306Y11657581D01*
X15222306Y11657581D02*
X15222306Y10657581D01*
X15838617Y75671809D02*
X16175334Y75335091D01*
X16175334Y75335091D02*
X16882441Y76042198D01*
X15670258Y75907511D02*
X15535571Y75974855D01*
X15535571Y75974855D02*
X15367212Y76143214D01*
X15367212Y76143214D02*
X15333540Y76244229D01*
X15333540Y76244229D02*
X15333540Y76311572D01*
X15333540Y76311572D02*
X15367212Y76412588D01*
X15367212Y76412588D02*
X15434556Y76479931D01*
X15434556Y76479931D02*
X15535571Y76513603D01*
X15535571Y76513603D02*
X15602914Y76513603D01*
X15602914Y76513603D02*
X15703930Y76479931D01*
X15703930Y76479931D02*
X15872288Y76378916D01*
X15872288Y76378916D02*
X15973304Y76345244D01*
X15973304Y76345244D02*
X16040647Y76345244D01*
X16040647Y76345244D02*
X16141662Y76378916D01*
X16141662Y76378916D02*
X16209006Y76446259D01*
X16209006Y76446259D02*
X16242678Y76547275D01*
X16242678Y76547275D02*
X16242678Y76614618D01*
X16242678Y76614618D02*
X16209006Y76715633D01*
X16209006Y76715633D02*
X16040647Y76883992D01*
X16040647Y76883992D02*
X15905960Y76951336D01*
X15602914Y77187038D02*
X15602914Y77254381D01*
X15602914Y77254381D02*
X15569243Y77355397D01*
X15569243Y77355397D02*
X15400884Y77523755D01*
X15400884Y77523755D02*
X15299869Y77557427D01*
X15299869Y77557427D02*
X15232525Y77557427D01*
X15232525Y77557427D02*
X15131510Y77523755D01*
X15131510Y77523755D02*
X15064166Y77456412D01*
X15064166Y77456412D02*
X14996823Y77321725D01*
X14996823Y77321725D02*
X14996823Y76513603D01*
X14996823Y76513603D02*
X14559090Y76951336D01*
X77186580Y92452456D02*
X77422283Y92216754D01*
X77051893Y91846364D02*
X77759000Y92553471D01*
X77759000Y92553471D02*
X77422283Y92890189D01*
X76109084Y92789174D02*
X76445802Y92452456D01*
X76445802Y92452456D02*
X77152908Y93159563D01*
X76243771Y93395265D02*
X76008069Y93630968D01*
X75536664Y93361594D02*
X75873382Y93024876D01*
X75873382Y93024876D02*
X76580488Y93731983D01*
X76580488Y93731983D02*
X76243771Y94068700D01*
X76008069Y94304403D02*
X74829557Y94068700D01*
X75536664Y94775807D02*
X75300962Y93597296D01*
X7108260Y73948991D02*
X7444977Y73612273D01*
X7444977Y73612273D02*
X8152084Y74319380D01*
X6939901Y74184693D02*
X6805214Y74252037D01*
X6805214Y74252037D02*
X6636855Y74420396D01*
X6636855Y74420396D02*
X6603183Y74521411D01*
X6603183Y74521411D02*
X6603183Y74588754D01*
X6603183Y74588754D02*
X6636855Y74689770D01*
X6636855Y74689770D02*
X6704199Y74757113D01*
X6704199Y74757113D02*
X6805214Y74790785D01*
X6805214Y74790785D02*
X6872557Y74790785D01*
X6872557Y74790785D02*
X6973573Y74757113D01*
X6973573Y74757113D02*
X7141931Y74656098D01*
X7141931Y74656098D02*
X7242947Y74622426D01*
X7242947Y74622426D02*
X7310290Y74622426D01*
X7310290Y74622426D02*
X7411305Y74656098D01*
X7411305Y74656098D02*
X7478649Y74723441D01*
X7478649Y74723441D02*
X7512321Y74824457D01*
X7512321Y74824457D02*
X7512321Y74891800D01*
X7512321Y74891800D02*
X7478649Y74992815D01*
X7478649Y74992815D02*
X7310290Y75161174D01*
X7310290Y75161174D02*
X7175603Y75228518D01*
X6199122Y74858128D02*
X6906229Y75565235D01*
X6569512Y75228518D02*
X6165451Y75632579D01*
X5795061Y75262189D02*
X6502168Y75969296D01*
X6131779Y76204998D02*
X6131779Y76272342D01*
X6131779Y76272342D02*
X6098107Y76373357D01*
X6098107Y76373357D02*
X5929748Y76541716D01*
X5929748Y76541716D02*
X5828733Y76575388D01*
X5828733Y76575388D02*
X5761390Y76575388D01*
X5761390Y76575388D02*
X5660374Y76541716D01*
X5660374Y76541716D02*
X5593031Y76474372D01*
X5593031Y76474372D02*
X5525687Y76339685D01*
X5525687Y76339685D02*
X5525687Y75531563D01*
X5525687Y75531563D02*
X5087955Y75969296D01*
X86099574Y23652829D02*
X86432907Y24129020D01*
X86671002Y23652829D02*
X86671002Y24652829D01*
X86671002Y24652829D02*
X86290050Y24652829D01*
X86290050Y24652829D02*
X86194812Y24605210D01*
X86194812Y24605210D02*
X86147193Y24557591D01*
X86147193Y24557591D02*
X86099574Y24462353D01*
X86099574Y24462353D02*
X86099574Y24319496D01*
X86099574Y24319496D02*
X86147193Y24224258D01*
X86147193Y24224258D02*
X86194812Y24176639D01*
X86194812Y24176639D02*
X86290050Y24129020D01*
X86290050Y24129020D02*
X86671002Y24129020D01*
X85766240Y23652829D02*
X85242431Y24319496D01*
X85766240Y24319496D02*
X85242431Y23652829D01*
X7848380Y39478916D02*
X7949395Y39445244D01*
X7949395Y39445244D02*
X8050411Y39344229D01*
X8050411Y39344229D02*
X8117754Y39209542D01*
X8117754Y39209542D02*
X8117754Y39074855D01*
X8117754Y39074855D02*
X8084082Y38973839D01*
X8084082Y38973839D02*
X7983067Y38805481D01*
X7983067Y38805481D02*
X7882052Y38704465D01*
X7882052Y38704465D02*
X7713693Y38603450D01*
X7713693Y38603450D02*
X7612678Y38569778D01*
X7612678Y38569778D02*
X7477991Y38569778D01*
X7477991Y38569778D02*
X7343304Y38637122D01*
X7343304Y38637122D02*
X7275960Y38704465D01*
X7275960Y38704465D02*
X7208617Y38839152D01*
X7208617Y38839152D02*
X7208617Y38906496D01*
X7208617Y38906496D02*
X7444319Y39142198D01*
X7444319Y39142198D02*
X7579006Y39007511D01*
X6838227Y39142198D02*
X7545334Y39849305D01*
X7545334Y39849305D02*
X6434166Y39546259D01*
X6434166Y39546259D02*
X7141273Y40253366D01*
X6097449Y39882977D02*
X6804556Y40590084D01*
X6804556Y40590084D02*
X6636197Y40758442D01*
X6636197Y40758442D02*
X6501510Y40825786D01*
X6501510Y40825786D02*
X6366823Y40825786D01*
X6366823Y40825786D02*
X6265808Y40792114D01*
X6265808Y40792114D02*
X6097449Y40691099D01*
X6097449Y40691099D02*
X5996434Y40590084D01*
X5996434Y40590084D02*
X5895418Y40421725D01*
X5895418Y40421725D02*
X5861747Y40320710D01*
X5861747Y40320710D02*
X5861747Y40186023D01*
X5861747Y40186023D02*
X5929090Y40051335D01*
X5929090Y40051335D02*
X6097449Y39882977D01*
X7264968Y56949616D02*
X7972075Y57656723D01*
X6928251Y57286334D02*
X7635358Y57993440D01*
X7635358Y57993440D02*
X6524190Y57690395D01*
X6524190Y57690395D02*
X7231297Y58397501D01*
X6692549Y58936249D02*
X6187473Y58431173D01*
X6187473Y58431173D02*
X6120129Y58296486D01*
X6120129Y58296486D02*
X6120129Y58161799D01*
X6120129Y58161799D02*
X6187473Y58027112D01*
X6187473Y58027112D02*
X6254816Y57959769D01*
X6423175Y59205624D02*
X5985442Y59643356D01*
X5985442Y59643356D02*
X5951770Y59138280D01*
X5951770Y59138280D02*
X5850755Y59239295D01*
X5850755Y59239295D02*
X5749740Y59272967D01*
X5749740Y59272967D02*
X5682396Y59272967D01*
X5682396Y59272967D02*
X5581381Y59239295D01*
X5581381Y59239295D02*
X5413022Y59070937D01*
X5413022Y59070937D02*
X5379350Y58969921D01*
X5379350Y58969921D02*
X5379350Y58902578D01*
X5379350Y58902578D02*
X5413022Y58801563D01*
X5413022Y58801563D02*
X5615053Y58599532D01*
X5615053Y58599532D02*
X5716068Y58565860D01*
X5716068Y58565860D02*
X5783411Y58565860D01*
X22785334Y91775091D02*
X23492441Y92482198D01*
X23492441Y92482198D02*
X23223067Y92751572D01*
X23223067Y92751572D02*
X23122052Y92785244D01*
X23122052Y92785244D02*
X23054708Y92785244D01*
X23054708Y92785244D02*
X22953693Y92751572D01*
X22953693Y92751572D02*
X22852678Y92650557D01*
X22852678Y92650557D02*
X22819006Y92549542D01*
X22819006Y92549542D02*
X22819006Y92482198D01*
X22819006Y92482198D02*
X22852678Y92381183D01*
X22852678Y92381183D02*
X23122052Y92111809D01*
X22078227Y92482198D02*
X22785334Y93189305D01*
X22785334Y93189305D02*
X22515960Y93458679D01*
X22515960Y93458679D02*
X22414945Y93492351D01*
X22414945Y93492351D02*
X22347601Y93492351D01*
X22347601Y93492351D02*
X22246586Y93458679D01*
X22246586Y93458679D02*
X22145571Y93357664D01*
X22145571Y93357664D02*
X22111899Y93256649D01*
X22111899Y93256649D02*
X22111899Y93189305D01*
X22111899Y93189305D02*
X22145571Y93088290D01*
X22145571Y93088290D02*
X22414945Y92818916D01*
X21438464Y93189305D02*
X21303777Y93256649D01*
X21303777Y93256649D02*
X21135418Y93425007D01*
X21135418Y93425007D02*
X21101747Y93526023D01*
X21101747Y93526023D02*
X21101747Y93593366D01*
X21101747Y93593366D02*
X21135418Y93694381D01*
X21135418Y93694381D02*
X21202762Y93761725D01*
X21202762Y93761725D02*
X21303777Y93795397D01*
X21303777Y93795397D02*
X21371121Y93795397D01*
X21371121Y93795397D02*
X21472136Y93761725D01*
X21472136Y93761725D02*
X21640495Y93660710D01*
X21640495Y93660710D02*
X21741510Y93627038D01*
X21741510Y93627038D02*
X21808853Y93627038D01*
X21808853Y93627038D02*
X21909869Y93660710D01*
X21909869Y93660710D02*
X21977212Y93728053D01*
X21977212Y93728053D02*
X22010884Y93829068D01*
X22010884Y93829068D02*
X22010884Y93896412D01*
X22010884Y93896412D02*
X21977212Y93997427D01*
X21977212Y93997427D02*
X21808853Y94165786D01*
X21808853Y94165786D02*
X21674166Y94233129D01*
X21371121Y94468832D02*
X21371121Y94536175D01*
X21371121Y94536175D02*
X21337449Y94637190D01*
X21337449Y94637190D02*
X21169090Y94805549D01*
X21169090Y94805549D02*
X21068075Y94839221D01*
X21068075Y94839221D02*
X21000731Y94839221D01*
X21000731Y94839221D02*
X20899716Y94805549D01*
X20899716Y94805549D02*
X20832373Y94738206D01*
X20832373Y94738206D02*
X20765029Y94603519D01*
X20765029Y94603519D02*
X20765029Y93795397D01*
X20765029Y93795397D02*
X20327296Y94233129D01*
X89288707Y92396171D02*
X89288707Y92328827D01*
X89288707Y92328827D02*
X89356050Y92194140D01*
X89356050Y92194140D02*
X89423394Y92126797D01*
X89423394Y92126797D02*
X89558081Y92059453D01*
X89558081Y92059453D02*
X89692768Y92059453D01*
X89692768Y92059453D02*
X89793783Y92093125D01*
X89793783Y92093125D02*
X89962142Y92194140D01*
X89962142Y92194140D02*
X90063157Y92295156D01*
X90063157Y92295156D02*
X90164172Y92463514D01*
X90164172Y92463514D02*
X90197844Y92564530D01*
X90197844Y92564530D02*
X90197844Y92699217D01*
X90197844Y92699217D02*
X90130501Y92833904D01*
X90130501Y92833904D02*
X90063157Y92901247D01*
X90063157Y92901247D02*
X89928470Y92968591D01*
X89928470Y92968591D02*
X89861127Y92968591D01*
X89154020Y92800232D02*
X88817302Y93136950D01*
X89019333Y92530858D02*
X89490737Y93473667D01*
X89490737Y93473667D02*
X88547928Y93002263D01*
X88312226Y93237965D02*
X89019333Y93945072D01*
X89019333Y93945072D02*
X87908165Y93642026D01*
X87908165Y93642026D02*
X88615272Y94349133D01*
X87234730Y94315461D02*
X87571447Y93978743D01*
X87571447Y93978743D02*
X88278554Y94685850D01*
X7545334Y25735091D02*
X8252441Y26442198D01*
X8252441Y26442198D02*
X8084082Y26610557D01*
X8084082Y26610557D02*
X7949395Y26677901D01*
X7949395Y26677901D02*
X7814708Y26677901D01*
X7814708Y26677901D02*
X7713693Y26644229D01*
X7713693Y26644229D02*
X7545334Y26543213D01*
X7545334Y26543213D02*
X7444319Y26442198D01*
X7444319Y26442198D02*
X7343304Y26273839D01*
X7343304Y26273839D02*
X7309632Y26172824D01*
X7309632Y26172824D02*
X7309632Y26038137D01*
X7309632Y26038137D02*
X7376975Y25903450D01*
X7376975Y25903450D02*
X7545334Y25735091D01*
X6501510Y26913603D02*
X6501510Y26846259D01*
X6501510Y26846259D02*
X6568853Y26711572D01*
X6568853Y26711572D02*
X6636197Y26644229D01*
X6636197Y26644229D02*
X6770884Y26576885D01*
X6770884Y26576885D02*
X6905571Y26576885D01*
X6905571Y26576885D02*
X7006586Y26610557D01*
X7006586Y26610557D02*
X7174945Y26711572D01*
X7174945Y26711572D02*
X7275960Y26812588D01*
X7275960Y26812588D02*
X7376975Y26980946D01*
X7376975Y26980946D02*
X7410647Y27081962D01*
X7410647Y27081962D02*
X7410647Y27216649D01*
X7410647Y27216649D02*
X7343304Y27351336D01*
X7343304Y27351336D02*
X7275960Y27418679D01*
X7275960Y27418679D02*
X7141273Y27486023D01*
X7141273Y27486023D02*
X7073930Y27486023D01*
X5760731Y27519694D02*
X6164792Y27115633D01*
X5962762Y27317664D02*
X6669869Y28024771D01*
X6669869Y28024771D02*
X6636197Y27856412D01*
X6636197Y27856412D02*
X6636197Y27721725D01*
X6636197Y27721725D02*
X6669869Y27620710D01*
X5727060Y28092114D02*
X5188312Y28630862D01*
X14978380Y83128916D02*
X15079395Y83095244D01*
X15079395Y83095244D02*
X15180411Y82994229D01*
X15180411Y82994229D02*
X15247754Y82859542D01*
X15247754Y82859542D02*
X15247754Y82724855D01*
X15247754Y82724855D02*
X15214082Y82623839D01*
X15214082Y82623839D02*
X15113067Y82455481D01*
X15113067Y82455481D02*
X15012052Y82354465D01*
X15012052Y82354465D02*
X14843693Y82253450D01*
X14843693Y82253450D02*
X14742678Y82219778D01*
X14742678Y82219778D02*
X14607991Y82219778D01*
X14607991Y82219778D02*
X14473304Y82287122D01*
X14473304Y82287122D02*
X14405960Y82354465D01*
X14405960Y82354465D02*
X14338617Y82489152D01*
X14338617Y82489152D02*
X14338617Y82556496D01*
X14338617Y82556496D02*
X14574319Y82792198D01*
X14574319Y82792198D02*
X14709006Y82657511D01*
X13968227Y82792198D02*
X14675334Y83499305D01*
X14675334Y83499305D02*
X13564166Y83196259D01*
X13564166Y83196259D02*
X14271273Y83903366D01*
X13227449Y83532977D02*
X13934556Y84240084D01*
X13934556Y84240084D02*
X13766197Y84408442D01*
X13766197Y84408442D02*
X13631510Y84475786D01*
X13631510Y84475786D02*
X13496823Y84475786D01*
X13496823Y84475786D02*
X13395808Y84442114D01*
X13395808Y84442114D02*
X13227449Y84341099D01*
X13227449Y84341099D02*
X13126434Y84240084D01*
X13126434Y84240084D02*
X13025418Y84071725D01*
X13025418Y84071725D02*
X12991747Y83970710D01*
X12991747Y83970710D02*
X12991747Y83836023D01*
X12991747Y83836023D02*
X13059090Y83701335D01*
X13059090Y83701335D02*
X13227449Y83532977D01*
X12756044Y84408442D02*
X12419327Y84745160D01*
X12621357Y84139068D02*
X13092762Y85081877D01*
X13092762Y85081877D02*
X12149953Y84610473D01*
X48094268Y92376208D02*
X47858565Y92611910D01*
X47387161Y92342536D02*
X47723878Y92005818D01*
X47723878Y92005818D02*
X48430985Y92712925D01*
X48430985Y92712925D02*
X48094268Y93049643D01*
X47387161Y93689406D02*
X47488176Y93655734D01*
X47488176Y93655734D02*
X47589191Y93554719D01*
X47589191Y93554719D02*
X47656535Y93420032D01*
X47656535Y93420032D02*
X47656535Y93285345D01*
X47656535Y93285345D02*
X47622863Y93184330D01*
X47622863Y93184330D02*
X47521848Y93015971D01*
X47521848Y93015971D02*
X47420832Y92914956D01*
X47420832Y92914956D02*
X47252474Y92813941D01*
X47252474Y92813941D02*
X47151458Y92780269D01*
X47151458Y92780269D02*
X47016771Y92780269D01*
X47016771Y92780269D02*
X46882084Y92847612D01*
X46882084Y92847612D02*
X46814741Y92914956D01*
X46814741Y92914956D02*
X46747397Y93049643D01*
X46747397Y93049643D02*
X46747397Y93116986D01*
X46747397Y93116986D02*
X46983100Y93352689D01*
X46983100Y93352689D02*
X47117787Y93218002D01*
X47185130Y93958780D02*
X46781069Y94362841D01*
X46275993Y93453704D02*
X46983100Y94160811D01*
X46107634Y94160811D02*
X45568886Y94699559D01*
X45568886Y94160811D02*
X46107634Y94699559D01*
X27141077Y91845452D02*
X27848184Y92552559D01*
X27511467Y92215842D02*
X27107405Y92619903D01*
X26737016Y92249513D02*
X27444123Y92956620D01*
X26636001Y92754590D02*
X26299283Y93091307D01*
X26501314Y92485216D02*
X26972719Y93428025D01*
X26972719Y93428025D02*
X26029909Y92956620D01*
X25457490Y93529040D02*
X25794207Y93192323D01*
X25794207Y93192323D02*
X26501314Y93899429D01*
X24885070Y94101460D02*
X25221787Y93764742D01*
X25221787Y93764742D02*
X25928894Y94471849D01*
X24278978Y94707552D02*
X24683039Y94303491D01*
X24481009Y94505521D02*
X25188115Y95212628D01*
X25188115Y95212628D02*
X25154444Y95044269D01*
X25154444Y95044269D02*
X25154444Y94909582D01*
X25154444Y94909582D02*
X25188115Y94808567D01*
X15925334Y21935091D02*
X16632441Y22642198D01*
X16632441Y22642198D02*
X16464082Y22810557D01*
X16464082Y22810557D02*
X16329395Y22877901D01*
X16329395Y22877901D02*
X16194708Y22877901D01*
X16194708Y22877901D02*
X16093693Y22844229D01*
X16093693Y22844229D02*
X15925334Y22743213D01*
X15925334Y22743213D02*
X15824319Y22642198D01*
X15824319Y22642198D02*
X15723304Y22473839D01*
X15723304Y22473839D02*
X15689632Y22372824D01*
X15689632Y22372824D02*
X15689632Y22238137D01*
X15689632Y22238137D02*
X15756975Y22103450D01*
X15756975Y22103450D02*
X15925334Y21935091D01*
X14881510Y23113603D02*
X14881510Y23046259D01*
X14881510Y23046259D02*
X14948853Y22911572D01*
X14948853Y22911572D02*
X15016197Y22844229D01*
X15016197Y22844229D02*
X15150884Y22776885D01*
X15150884Y22776885D02*
X15285571Y22776885D01*
X15285571Y22776885D02*
X15386586Y22810557D01*
X15386586Y22810557D02*
X15554945Y22911572D01*
X15554945Y22911572D02*
X15655960Y23012588D01*
X15655960Y23012588D02*
X15756975Y23180946D01*
X15756975Y23180946D02*
X15790647Y23281962D01*
X15790647Y23281962D02*
X15790647Y23416649D01*
X15790647Y23416649D02*
X15723304Y23551336D01*
X15723304Y23551336D02*
X15655960Y23618679D01*
X15655960Y23618679D02*
X15521273Y23686023D01*
X15521273Y23686023D02*
X15453930Y23686023D01*
X14140731Y23719694D02*
X14544792Y23315633D01*
X14342762Y23517664D02*
X15049869Y24224771D01*
X15049869Y24224771D02*
X15016197Y24056412D01*
X15016197Y24056412D02*
X15016197Y23921725D01*
X15016197Y23921725D02*
X15049869Y23820710D01*
X14107060Y24292114D02*
X13568312Y24830862D01*
X13568312Y24292114D02*
X14107060Y24830862D01*
X16425334Y53735091D02*
X17132441Y54442198D01*
X16391663Y55115633D02*
X16492678Y55081961D01*
X16492678Y55081961D02*
X16593693Y54980946D01*
X16593693Y54980946D02*
X16661037Y54846259D01*
X16661037Y54846259D02*
X16661037Y54711572D01*
X16661037Y54711572D02*
X16627365Y54610557D01*
X16627365Y54610557D02*
X16526350Y54442198D01*
X16526350Y54442198D02*
X16425335Y54341183D01*
X16425335Y54341183D02*
X16256976Y54240167D01*
X16256976Y54240167D02*
X16155961Y54206496D01*
X16155961Y54206496D02*
X16021274Y54206496D01*
X16021274Y54206496D02*
X15886587Y54273839D01*
X15886587Y54273839D02*
X15819243Y54341183D01*
X15819243Y54341183D02*
X15751900Y54475870D01*
X15751900Y54475870D02*
X15751900Y54543213D01*
X15751900Y54543213D02*
X15987602Y54778915D01*
X15987602Y54778915D02*
X16122289Y54644228D01*
X15381510Y54778915D02*
X16088617Y55486022D01*
X16088617Y55486022D02*
X14977449Y55182976D01*
X14977449Y55182976D02*
X15684556Y55890083D01*
X15011121Y56563518D02*
X15347839Y56226801D01*
X15347839Y56226801D02*
X15044793Y55856411D01*
X15044793Y55856411D02*
X15044793Y55923755D01*
X15044793Y55923755D02*
X15011121Y56024770D01*
X15011121Y56024770D02*
X14842762Y56193129D01*
X14842762Y56193129D02*
X14741747Y56226801D01*
X14741747Y56226801D02*
X14674404Y56226801D01*
X14674404Y56226801D02*
X14573388Y56193129D01*
X14573388Y56193129D02*
X14405030Y56024770D01*
X14405030Y56024770D02*
X14371358Y55923755D01*
X14371358Y55923755D02*
X14371358Y55856411D01*
X14371358Y55856411D02*
X14405030Y55755396D01*
X14405030Y55755396D02*
X14573388Y55587037D01*
X14573388Y55587037D02*
X14674404Y55553366D01*
X14674404Y55553366D02*
X14741747Y55553366D01*
X44596010Y83143074D02*
X43653201Y82671669D01*
X43653201Y82671669D02*
X44124606Y83614479D01*
X42777736Y83547135D02*
X43350155Y83648150D01*
X43181797Y83143074D02*
X43888903Y83850181D01*
X43888903Y83850181D02*
X43619529Y84119555D01*
X43619529Y84119555D02*
X43518514Y84153227D01*
X43518514Y84153227D02*
X43451171Y84153227D01*
X43451171Y84153227D02*
X43350155Y84119555D01*
X43350155Y84119555D02*
X43249140Y84018540D01*
X43249140Y84018540D02*
X43215468Y83917524D01*
X43215468Y83917524D02*
X43215468Y83850181D01*
X43215468Y83850181D02*
X43249140Y83749166D01*
X43249140Y83749166D02*
X43518514Y83479792D01*
X42104301Y84220570D02*
X42508362Y83816509D01*
X42306331Y84018540D02*
X43013438Y84725646D01*
X43013438Y84725646D02*
X42979766Y84557288D01*
X42979766Y84557288D02*
X42979766Y84422601D01*
X42979766Y84422601D02*
X43013438Y84321585D01*
X42070629Y84792990D02*
X41531881Y85331738D01*
X15588617Y71421809D02*
X15925334Y71085091D01*
X15925334Y71085091D02*
X16632441Y71792198D01*
X15420258Y71657511D02*
X15285571Y71724855D01*
X15285571Y71724855D02*
X15117212Y71893214D01*
X15117212Y71893214D02*
X15083540Y71994229D01*
X15083540Y71994229D02*
X15083540Y72061572D01*
X15083540Y72061572D02*
X15117212Y72162588D01*
X15117212Y72162588D02*
X15184556Y72229931D01*
X15184556Y72229931D02*
X15285571Y72263603D01*
X15285571Y72263603D02*
X15352914Y72263603D01*
X15352914Y72263603D02*
X15453930Y72229931D01*
X15453930Y72229931D02*
X15622288Y72128916D01*
X15622288Y72128916D02*
X15723304Y72095244D01*
X15723304Y72095244D02*
X15790647Y72095244D01*
X15790647Y72095244D02*
X15891662Y72128916D01*
X15891662Y72128916D02*
X15959006Y72196259D01*
X15959006Y72196259D02*
X15992678Y72297275D01*
X15992678Y72297275D02*
X15992678Y72364618D01*
X15992678Y72364618D02*
X15959006Y72465633D01*
X15959006Y72465633D02*
X15790647Y72633992D01*
X15790647Y72633992D02*
X15655960Y72701336D01*
X15453930Y72970710D02*
X15016197Y73408442D01*
X15016197Y73408442D02*
X14982525Y72903366D01*
X14982525Y72903366D02*
X14881510Y73004381D01*
X14881510Y73004381D02*
X14780495Y73038053D01*
X14780495Y73038053D02*
X14713151Y73038053D01*
X14713151Y73038053D02*
X14612136Y73004381D01*
X14612136Y73004381D02*
X14443777Y72836023D01*
X14443777Y72836023D02*
X14410105Y72735007D01*
X14410105Y72735007D02*
X14410105Y72667664D01*
X14410105Y72667664D02*
X14443777Y72566649D01*
X14443777Y72566649D02*
X14645808Y72364618D01*
X14645808Y72364618D02*
X14746823Y72330946D01*
X14746823Y72330946D02*
X14814166Y72330946D01*
X59925334Y82585091D02*
X60632441Y83292198D01*
X60632441Y83292198D02*
X59891662Y83022824D01*
X59891662Y83022824D02*
X60161037Y83763603D01*
X60161037Y83763603D02*
X59453930Y83056496D01*
X59352915Y83561572D02*
X59016197Y83898290D01*
X59218228Y83292198D02*
X59689632Y84235007D01*
X59689632Y84235007D02*
X58746823Y83763603D01*
X58511121Y83999305D02*
X59218227Y84706412D01*
X59218227Y84706412D02*
X58948853Y84975786D01*
X58948853Y84975786D02*
X58847838Y85009458D01*
X58847838Y85009458D02*
X58780495Y85009458D01*
X58780495Y85009458D02*
X58679479Y84975786D01*
X58679479Y84975786D02*
X58578464Y84874771D01*
X58578464Y84874771D02*
X58544792Y84773755D01*
X58544792Y84773755D02*
X58544792Y84706412D01*
X58544792Y84706412D02*
X58578464Y84605397D01*
X58578464Y84605397D02*
X58847838Y84336023D01*
X15904897Y41293232D02*
X16612004Y42000339D01*
X15871226Y42673774D02*
X15972241Y42640102D01*
X15972241Y42640102D02*
X16073256Y42539087D01*
X16073256Y42539087D02*
X16140600Y42404400D01*
X16140600Y42404400D02*
X16140600Y42269713D01*
X16140600Y42269713D02*
X16106928Y42168698D01*
X16106928Y42168698D02*
X16005913Y42000339D01*
X16005913Y42000339D02*
X15904898Y41899324D01*
X15904898Y41899324D02*
X15736539Y41798308D01*
X15736539Y41798308D02*
X15635524Y41764637D01*
X15635524Y41764637D02*
X15500837Y41764637D01*
X15500837Y41764637D02*
X15366150Y41831980D01*
X15366150Y41831980D02*
X15298806Y41899324D01*
X15298806Y41899324D02*
X15231463Y42034011D01*
X15231463Y42034011D02*
X15231463Y42101354D01*
X15231463Y42101354D02*
X15467165Y42337056D01*
X15467165Y42337056D02*
X15601852Y42202369D01*
X14861073Y42337056D02*
X15568180Y43044163D01*
X15568180Y43044163D02*
X14457012Y42741117D01*
X14457012Y42741117D02*
X15164119Y43448224D01*
X14524356Y44087987D02*
X14659043Y43953300D01*
X14659043Y43953300D02*
X14692715Y43852285D01*
X14692715Y43852285D02*
X14692715Y43784942D01*
X14692715Y43784942D02*
X14659043Y43616583D01*
X14659043Y43616583D02*
X14558028Y43448224D01*
X14558028Y43448224D02*
X14288654Y43178850D01*
X14288654Y43178850D02*
X14187638Y43145178D01*
X14187638Y43145178D02*
X14120295Y43145178D01*
X14120295Y43145178D02*
X14019280Y43178850D01*
X14019280Y43178850D02*
X13884593Y43313537D01*
X13884593Y43313537D02*
X13850921Y43414552D01*
X13850921Y43414552D02*
X13850921Y43481896D01*
X13850921Y43481896D02*
X13884593Y43582911D01*
X13884593Y43582911D02*
X14052951Y43751270D01*
X14052951Y43751270D02*
X14153967Y43784942D01*
X14153967Y43784942D02*
X14221310Y43784942D01*
X14221310Y43784942D02*
X14322325Y43751270D01*
X14322325Y43751270D02*
X14457012Y43616583D01*
X14457012Y43616583D02*
X14490684Y43515568D01*
X14490684Y43515568D02*
X14490684Y43448224D01*
X14490684Y43448224D02*
X14457012Y43347209D01*
X48295724Y82955481D02*
X48060021Y83191183D01*
X47588617Y82921809D02*
X47925334Y82585091D01*
X47925334Y82585091D02*
X48632441Y83292198D01*
X48632441Y83292198D02*
X48295724Y83628916D01*
X47588617Y84268679D02*
X47689632Y84235007D01*
X47689632Y84235007D02*
X47790647Y84133992D01*
X47790647Y84133992D02*
X47857991Y83999305D01*
X47857991Y83999305D02*
X47857991Y83864618D01*
X47857991Y83864618D02*
X47824319Y83763603D01*
X47824319Y83763603D02*
X47723304Y83595244D01*
X47723304Y83595244D02*
X47622288Y83494229D01*
X47622288Y83494229D02*
X47453930Y83393214D01*
X47453930Y83393214D02*
X47352914Y83359542D01*
X47352914Y83359542D02*
X47218227Y83359542D01*
X47218227Y83359542D02*
X47083540Y83426885D01*
X47083540Y83426885D02*
X47016197Y83494229D01*
X47016197Y83494229D02*
X46948853Y83628916D01*
X46948853Y83628916D02*
X46948853Y83696259D01*
X46948853Y83696259D02*
X47184556Y83931962D01*
X47184556Y83931962D02*
X47319243Y83797275D01*
X47386586Y84538053D02*
X46982525Y84942114D01*
X46477449Y84032977D02*
X47184556Y84740084D01*
X46309090Y84740084D02*
X45770342Y85278832D01*
D11*
G04 #@! TO.C,M5*
X61245126Y6200000D02*
X61245126Y8860000D01*
X61245126Y1200000D02*
X61245126Y3860000D01*
X61539588Y8860000D02*
X61245126Y8860000D01*
X61539588Y3860000D02*
X61245126Y3860000D01*
X61550753Y6200000D02*
X61245126Y6200000D01*
X61550753Y1200000D02*
X61245126Y1200000D01*
X63599499Y8860000D02*
X63905126Y8860000D01*
X63599499Y3860000D02*
X63905126Y3860000D01*
X63610664Y6200000D02*
X63905126Y6200000D01*
X63610664Y1200000D02*
X63905126Y1200000D01*
X63905126Y8860000D02*
X63905126Y6200000D01*
X63905126Y3860000D02*
X63905126Y1200000D01*
X81945126Y22700000D02*
X81945126Y25360000D01*
X81945126Y18000000D02*
X81945126Y20660000D01*
X82239588Y25360000D02*
X81945126Y25360000D01*
X82239588Y20660000D02*
X81945126Y20660000D01*
X82250753Y22700000D02*
X81945126Y22700000D01*
X82250753Y18000000D02*
X81945126Y18000000D01*
X84299499Y25360000D02*
X84605126Y25360000D01*
X84299499Y20660000D02*
X84605126Y20660000D01*
X84310664Y22700000D02*
X84605126Y22700000D01*
X84310664Y18000000D02*
X84605126Y18000000D01*
X84605126Y25360000D02*
X84605126Y22700000D01*
X84605126Y20660000D02*
X84605126Y18000000D01*
G04 #@! TD*
M02*
