G04 #@! TF.GenerationSoftware,KiCad,Pcbnew,8.0.9-8.0.9-0~ubuntu24.04.1*
G04 #@! TF.CreationDate,2026-01-21T19:08:48+00:00*
G04 #@! TF.ProjectId,greenenergyecu,67726565-6e65-46e6-9572-67796563752e,rev?*
G04 #@! TF.SameCoordinates,Original*
G04 #@! TF.FileFunction,Copper,L2,Bot*
G04 #@! TF.FilePolarity,Positive*
%FSLAX46Y46*%
G04 Gerber Fmt 4.6, Leading zero omitted, Abs format (unit mm)*
G04 Created by KiCad (PCBNEW 8.0.9-8.0.9-0~ubuntu24.04.1) date 2026-01-21 19:08:48*
%MOMM*%
%LPD*%
G01*
G04 APERTURE LIST*
G04 #@! TA.AperFunction,SMDPad,CuDef*
%ADD10R,0.200000X4.400000*%
G04 #@! TD*
G04 #@! TA.AperFunction,SMDPad,CuDef*
%ADD11R,1.200000X0.200000*%
G04 #@! TD*
G04 #@! TA.AperFunction,SMDPad,CuDef*
%ADD12R,6.800000X0.200000*%
G04 #@! TD*
G04 #@! TA.AperFunction,SMDPad,CuDef*
%ADD13R,4.000000X0.200000*%
G04 #@! TD*
G04 #@! TA.AperFunction,SMDPad,CuDef*
%ADD14R,1.800000X0.200000*%
G04 #@! TD*
G04 #@! TA.AperFunction,SMDPad,CuDef*
%ADD15R,0.200000X10.000000*%
G04 #@! TD*
G04 #@! TA.AperFunction,ComponentPad*
%ADD16C,0.600000*%
G04 #@! TD*
G04 #@! TA.AperFunction,ComponentPad*
%ADD17C,1.000000*%
G04 #@! TD*
G04 #@! TA.AperFunction,SMDPad,CuDef*
%ADD18O,0.200000X1.225000*%
G04 #@! TD*
G04 #@! TA.AperFunction,SMDPad,CuDef*
%ADD19O,9.300000X0.200000*%
G04 #@! TD*
G04 #@! TA.AperFunction,SMDPad,CuDef*
%ADD20R,0.250000X6.185000*%
G04 #@! TD*
G04 #@! TA.AperFunction,SMDPad,CuDef*
%ADD21R,0.250000X1.115000*%
G04 #@! TD*
G04 #@! TA.AperFunction,SMDPad,CuDef*
%ADD22R,14.275000X0.250000*%
G04 #@! TD*
G04 #@! TA.AperFunction,SMDPad,CuDef*
%ADD23R,15.100000X0.250000*%
G04 #@! TD*
G04 #@! TA.AperFunction,SMDPad,CuDef*
%ADD24R,0.250000X5.175000*%
G04 #@! TD*
G04 #@! TA.AperFunction,ViaPad*
%ADD25C,0.600000*%
G04 #@! TD*
G04 APERTURE END LIST*
D10*
G04 #@! TO.P,M4,G,GND*
G04 #@! TO.N,unconnected-(M4-GND-PadG)*
X8760000Y23430000D03*
D11*
X9260000Y21330000D03*
D12*
X13660000Y31130000D03*
X15860000Y21330000D03*
D13*
X20460000Y31130000D03*
D14*
X21560000Y21330000D03*
D15*
X22360000Y26230000D03*
D16*
G04 #@! TO.P,M4,N1,MOSI*
G04 #@! TO.N,unconnected-(M4-MOSI-PadN1)*
X9760000Y30930000D03*
D17*
G04 #@! TO.P,M4,N2,12V_IN*
G04 #@! TO.N,unconnected-(M4-12V_IN-PadN2)*
X17760000Y30730000D03*
G04 #@! TO.P,M4,S1,12V_IN*
G04 #@! TO.N,unconnected-(M4-12V_IN-PadS1)*
X10560000Y21730000D03*
G04 #@! TO.P,M4,S2,OUT-*
G04 #@! TO.N,unconnected-(M4-OUT--PadS2)*
X11760000Y21730000D03*
G04 #@! TO.P,M4,S3,OUT+*
G04 #@! TO.N,unconnected-(M4-OUT+-PadS3)*
X19960000Y21730000D03*
D16*
G04 #@! TO.P,M4,W1,DIS*
G04 #@! TO.N,unconnected-(M4-DIS-PadW1)*
X8960000Y30930000D03*
G04 #@! TO.P,M4,W2,PWM*
G04 #@! TO.N,unconnected-(M4-PWM-PadW2)*
X8960000Y30130000D03*
G04 #@! TO.P,M4,W3,SCLK*
G04 #@! TO.N,unconnected-(M4-SCLK-PadW3)*
X8960000Y29330000D03*
G04 #@! TO.P,M4,W4,DIR*
G04 #@! TO.N,unconnected-(M4-DIR-PadW4)*
X8960000Y28530000D03*
G04 #@! TO.P,M4,W5,3V3_IN*
G04 #@! TO.N,unconnected-(M4-3V3_IN-PadW5)*
X8960000Y27730000D03*
G04 #@! TO.P,M4,W6,MISO*
G04 #@! TO.N,unconnected-(M4-MISO-PadW6)*
X8960000Y26930000D03*
G04 #@! TO.P,M4,W7,~CS*
G04 #@! TO.N,unconnected-(M4-~CS-PadW7)*
X8960000Y26130000D03*
G04 #@! TD*
G04 #@! TO.P,M2,E1,V5A*
G04 #@! TO.N,unconnected-(M2-V5A-PadE1)*
X30850000Y17400000D03*
D18*
G04 #@! TO.P,M2,E2,GND*
G04 #@! TO.N,unconnected-(M2-GND-PadE2)*
X21950000Y15425000D03*
D19*
X26500000Y18000000D03*
X26500000Y14900000D03*
D16*
X30850000Y16450000D03*
G04 #@! TO.P,M2,E3,OUT_KNOCK*
G04 #@! TO.N,Net-(M2-OUT_KNOCK)*
X30850000Y15500002D03*
G04 #@! TO.P,M2,W1,IN_KNOCK*
G04 #@! TO.N,Net-(M1-OUT)*
X22150000Y16500000D03*
G04 #@! TO.P,M2,W2,VREF*
G04 #@! TO.N,unconnected-(M2-VREF-PadW2)*
X22150000Y17400000D03*
G04 #@! TD*
G04 #@! TO.P,M1,E1,Thresh_IN*
G04 #@! TO.N,unconnected-(M1-Thresh_IN-PadE1)*
X17137500Y16800000D03*
G04 #@! TO.P,M1,E2,OUT_A*
G04 #@! TO.N,unconnected-(M1-OUT_A-PadE2)*
X17137500Y15600000D03*
G04 #@! TO.P,M1,E3,OUT*
G04 #@! TO.N,Net-(M1-OUT)*
X17137500Y18000000D03*
G04 #@! TO.P,M1,E4,V5_IN*
G04 #@! TO.N,unconnected-(M1-V5_IN-PadE4)*
X17137500Y19200000D03*
D20*
G04 #@! TO.P,M1,G,GND*
G04 #@! TO.N,unconnected-(M1-GND-PadG)*
X2487500Y16532500D03*
D21*
X2487500Y10482500D03*
D22*
X9500000Y19500000D03*
D23*
X9912500Y10050000D03*
D24*
X17337500Y12512500D03*
D16*
G04 #@! TO.P,M1,W1,VR-*
G04 #@! TO.N,unconnected-(M1-VR--PadW1)*
X2712500Y12740000D03*
G04 #@! TO.P,M1,W2,VR+*
G04 #@! TO.N,unconnected-(M1-VR+-PadW2)*
X2712500Y11740000D03*
G04 #@! TD*
D25*
G04 #@! TO.N,*
X1500000Y1500000D03*
X33000000Y1500000D03*
X33000000Y19000000D03*
G04 #@! TD*
M02*
