M48
; DRILL file {KiCad 8.0.9-8.0.9-0~ubuntu24.04.1} date 2026-01-21T19:08:48+0000
; FORMAT={2:4/ absolute / inch / suppress leading zeros}
; #@! TF.CreationDate,2026-01-21T19:08:48+00:00
; #@! TF.GenerationSoftware,Kicad,Pcbnew,8.0.9-8.0.9-0~ubuntu24.04.1
; #@! TF.FileFunction,MixedPlating,1,2
FMAT,2
INCH,TZ
; #@! TA.AperFunction,Plated,PTH,ViaDrill
T1C0.0118
; #@! TA.AperFunction,Plated,PTH,ComponentDrill
T2C0.0118
; #@! TA.AperFunction,Plated,PTH,ComponentDrill
T3C0.0276
%
G90
G05
T1
X591Y591
X12992Y7480
X12992Y591
T2
X1068Y5016
X1068Y4622
X3528Y12177
X3528Y11862
X3528Y11547
X3528Y11232
X3528Y10917
X3528Y10602
X3528Y10287
X3843Y12177
X6747Y7559
X6747Y7087
X6747Y6614
X6747Y6142
X8720Y6850
X8720Y6496
X12146Y6850
X12146Y6476
X12146Y6102
T3
X4157Y8555
X4630Y8555
X6992Y12098
X7858Y8555
M30
