G04 #@! TF.GenerationSoftware,KiCad,Pcbnew,8.0.9-8.0.9-0~ubuntu24.04.1*
G04 #@! TF.CreationDate,2025-11-26T19:15:22+00:00*
G04 #@! TF.ProjectId,greenenergyecu,67726565-6e65-46e6-9572-67796563752e,rev?*
G04 #@! TF.SameCoordinates,Original*
G04 #@! TF.FileFunction,Copper,L1,Top*
G04 #@! TF.FilePolarity,Positive*
%FSLAX46Y46*%
G04 Gerber Fmt 4.6, Leading zero omitted, Abs format (unit mm)*
G04 Created by KiCad (PCBNEW 8.0.9-8.0.9-0~ubuntu24.04.1) date 2025-11-26 19:15:22*
%MOMM*%
%LPD*%
G01*
G04 APERTURE LIST*
G04 #@! TA.AperFunction,ViaPad*
%ADD10C,0.600000*%
G04 #@! TD*
G04 #@! TA.AperFunction,Conductor*
%ADD11C,0.200000*%
G04 #@! TD*
G04 APERTURE END LIST*
G04 #@! TO.P,U1,1,GND*
G04 #@! TO.N,unconnected-(U1-GND-Pad1)*
G04 #@! TA.AperFunction,SMDPad,CuDef*
G36*
G01*
X14575000Y-6380000D02*
X14575000Y-6080000D01*
G75*
G02*
X14725000Y-5930000I150000J0D01*
G01*
X16375000Y-5930000D01*
G75*
G02*
X16525000Y-6080000I0J-150000D01*
G01*
X16525000Y-6380000D01*
G75*
G02*
X16375000Y-6530000I-150000J0D01*
G01*
X14725000Y-6530000D01*
G75*
G02*
X14575000Y-6380000I0J150000D01*
G01*
G37*
G04 #@! TD.AperFunction*
G04 #@! TO.P,U1,2,TR*
G04 #@! TO.N,Net-(U1-TR)*
G04 #@! TA.AperFunction,SMDPad,CuDef*
G36*
G01*
X14575000Y-7650000D02*
X14575000Y-7350000D01*
G75*
G02*
X14725000Y-7200000I150000J0D01*
G01*
X16375000Y-7200000D01*
G75*
G02*
X16525000Y-7350000I0J-150000D01*
G01*
X16525000Y-7650000D01*
G75*
G02*
X16375000Y-7800000I-150000J0D01*
G01*
X14725000Y-7800000D01*
G75*
G02*
X14575000Y-7650000I0J150000D01*
G01*
G37*
G04 #@! TD.AperFunction*
G04 #@! TO.P,U1,3,Q*
G04 #@! TO.N,unconnected-(U1-Q-Pad3)*
G04 #@! TA.AperFunction,SMDPad,CuDef*
G36*
G01*
X14575000Y-8920000D02*
X14575000Y-8620000D01*
G75*
G02*
X14725000Y-8470000I150000J0D01*
G01*
X16375000Y-8470000D01*
G75*
G02*
X16525000Y-8620000I0J-150000D01*
G01*
X16525000Y-8920000D01*
G75*
G02*
X16375000Y-9070000I-150000J0D01*
G01*
X14725000Y-9070000D01*
G75*
G02*
X14575000Y-8920000I0J150000D01*
G01*
G37*
G04 #@! TD.AperFunction*
G04 #@! TO.P,U1,4,R*
G04 #@! TO.N,unconnected-(U1-R-Pad4)*
G04 #@! TA.AperFunction,SMDPad,CuDef*
G36*
G01*
X14575000Y-10190000D02*
X14575000Y-9890000D01*
G75*
G02*
X14725000Y-9740000I150000J0D01*
G01*
X16375000Y-9740000D01*
G75*
G02*
X16525000Y-9890000I0J-150000D01*
G01*
X16525000Y-10190000D01*
G75*
G02*
X16375000Y-10340000I-150000J0D01*
G01*
X14725000Y-10340000D01*
G75*
G02*
X14575000Y-10190000I0J150000D01*
G01*
G37*
G04 #@! TD.AperFunction*
G04 #@! TO.P,U1,5,CV*
G04 #@! TO.N,unconnected-(U1-CV-Pad5)*
G04 #@! TA.AperFunction,SMDPad,CuDef*
G36*
G01*
X19525000Y-10190000D02*
X19525000Y-9890000D01*
G75*
G02*
X19675000Y-9740000I150000J0D01*
G01*
X21325000Y-9740000D01*
G75*
G02*
X21475000Y-9890000I0J-150000D01*
G01*
X21475000Y-10190000D01*
G75*
G02*
X21325000Y-10340000I-150000J0D01*
G01*
X19675000Y-10340000D01*
G75*
G02*
X19525000Y-10190000I0J150000D01*
G01*
G37*
G04 #@! TD.AperFunction*
G04 #@! TO.P,U1,6,THR*
G04 #@! TO.N,unconnected-(U1-THR-Pad6)*
G04 #@! TA.AperFunction,SMDPad,CuDef*
G36*
G01*
X19525000Y-8920000D02*
X19525000Y-8620000D01*
G75*
G02*
X19675000Y-8470000I150000J0D01*
G01*
X21325000Y-8470000D01*
G75*
G02*
X21475000Y-8620000I0J-150000D01*
G01*
X21475000Y-8920000D01*
G75*
G02*
X21325000Y-9070000I-150000J0D01*
G01*
X19675000Y-9070000D01*
G75*
G02*
X19525000Y-8920000I0J150000D01*
G01*
G37*
G04 #@! TD.AperFunction*
G04 #@! TO.P,U1,7,DIS*
G04 #@! TO.N,unconnected-(U1-DIS-Pad7)*
G04 #@! TA.AperFunction,SMDPad,CuDef*
G36*
G01*
X19525000Y-7650000D02*
X19525000Y-7350000D01*
G75*
G02*
X19675000Y-7200000I150000J0D01*
G01*
X21325000Y-7200000D01*
G75*
G02*
X21475000Y-7350000I0J-150000D01*
G01*
X21475000Y-7650000D01*
G75*
G02*
X21325000Y-7800000I-150000J0D01*
G01*
X19675000Y-7800000D01*
G75*
G02*
X19525000Y-7650000I0J150000D01*
G01*
G37*
G04 #@! TD.AperFunction*
G04 #@! TO.P,U1,8,VCC*
G04 #@! TO.N,Net-(U1-TR)*
G04 #@! TA.AperFunction,SMDPad,CuDef*
G36*
G01*
X19525000Y-6380000D02*
X19525000Y-6080000D01*
G75*
G02*
X19675000Y-5930000I150000J0D01*
G01*
X21325000Y-5930000D01*
G75*
G02*
X21475000Y-6080000I0J-150000D01*
G01*
X21475000Y-6380000D01*
G75*
G02*
X21325000Y-6530000I-150000J0D01*
G01*
X19675000Y-6530000D01*
G75*
G02*
X19525000Y-6380000I0J150000D01*
G01*
G37*
G04 #@! TD.AperFunction*
G04 #@! TD*
D10*
G04 #@! TO.N,*
X0Y-40000D03*
X-1000000Y960000D03*
X500000Y-18040000D03*
X32000000Y-18040000D03*
X32000000Y-540000D03*
G04 #@! TD*
D11*
G04 #@! TO.N,Net-(U1-TR)*
X15550000Y-7500000D02*
X16524999Y-7500000D01*
X22500000Y-6040000D02*
X22310000Y-6230000D01*
X19484999Y-4540000D02*
X22500000Y-4540000D01*
X22500000Y-4540000D02*
X22500000Y-6040000D01*
X16524999Y-7500000D02*
X19484999Y-4540000D01*
X22310000Y-6230000D02*
X20500000Y-6230000D01*
G04 #@! TD*
M02*
