G04 #@! TF.GenerationSoftware,KiCad,Pcbnew,8.0.9-8.0.9-0~ubuntu24.04.1*
G04 #@! TF.CreationDate,2026-01-23T01:34:04+00:00*
G04 #@! TF.ProjectId,greenenergyecu,67726565-6e65-46e6-9572-67796563752e,rev?*
G04 #@! TF.SameCoordinates,Original*
G04 #@! TF.FileFunction,Legend,Top*
G04 #@! TF.FilePolarity,Positive*
%FSLAX46Y46*%
G04 Gerber Fmt 4.6, Leading zero omitted, Abs format (unit mm)*
G04 Created by KiCad (PCBNEW 8.0.9-8.0.9-0~ubuntu24.04.1) date 2026-01-23 01:34:04*
%MOMM*%
%LPD*%
G01*
G04 APERTURE LIST*
%ADD10C,0.100000*%
%ADD11C,0.120000*%
G04 APERTURE END LIST*
D10*
X1602531Y40833884D02*
X602531Y40833884D01*
X935864Y41738645D02*
X1745388Y41738645D01*
X1745388Y41738645D02*
X1840626Y41691026D01*
X1840626Y41691026D02*
X1888245Y41643407D01*
X1888245Y41643407D02*
X1935864Y41548169D01*
X1935864Y41548169D02*
X1935864Y41405312D01*
X1935864Y41405312D02*
X1888245Y41310074D01*
X1554912Y41738645D02*
X1602531Y41643407D01*
X1602531Y41643407D02*
X1602531Y41452931D01*
X1602531Y41452931D02*
X1554912Y41357693D01*
X1554912Y41357693D02*
X1507292Y41310074D01*
X1507292Y41310074D02*
X1412054Y41262455D01*
X1412054Y41262455D02*
X1126340Y41262455D01*
X1126340Y41262455D02*
X1031102Y41310074D01*
X1031102Y41310074D02*
X983483Y41357693D01*
X983483Y41357693D02*
X935864Y41452931D01*
X935864Y41452931D02*
X935864Y41643407D01*
X935864Y41643407D02*
X983483Y41738645D01*
X935864Y42214836D02*
X1602531Y42214836D01*
X1031102Y42214836D02*
X983483Y42262455D01*
X983483Y42262455D02*
X935864Y42357693D01*
X935864Y42357693D02*
X935864Y42500550D01*
X935864Y42500550D02*
X983483Y42595788D01*
X983483Y42595788D02*
X1078721Y42643407D01*
X1078721Y42643407D02*
X1602531Y42643407D01*
X1602531Y43119598D02*
X935864Y43119598D01*
X602531Y43119598D02*
X650150Y43071979D01*
X650150Y43071979D02*
X697769Y43119598D01*
X697769Y43119598D02*
X650150Y43167217D01*
X650150Y43167217D02*
X602531Y43119598D01*
X602531Y43119598D02*
X697769Y43119598D01*
X935864Y43452931D02*
X935864Y43833883D01*
X602531Y43595788D02*
X1459673Y43595788D01*
X1459673Y43595788D02*
X1554912Y43643407D01*
X1554912Y43643407D02*
X1602531Y43738645D01*
X1602531Y43738645D02*
X1602531Y43833883D01*
X1602531Y44167217D02*
X935864Y44167217D01*
X602531Y44167217D02*
X650150Y44119598D01*
X650150Y44119598D02*
X697769Y44167217D01*
X697769Y44167217D02*
X650150Y44214836D01*
X650150Y44214836D02*
X602531Y44167217D01*
X602531Y44167217D02*
X697769Y44167217D01*
X1602531Y44786264D02*
X1554912Y44691026D01*
X1554912Y44691026D02*
X1507292Y44643407D01*
X1507292Y44643407D02*
X1412054Y44595788D01*
X1412054Y44595788D02*
X1126340Y44595788D01*
X1126340Y44595788D02*
X1031102Y44643407D01*
X1031102Y44643407D02*
X983483Y44691026D01*
X983483Y44691026D02*
X935864Y44786264D01*
X935864Y44786264D02*
X935864Y44929121D01*
X935864Y44929121D02*
X983483Y45024359D01*
X983483Y45024359D02*
X1031102Y45071978D01*
X1031102Y45071978D02*
X1126340Y45119597D01*
X1126340Y45119597D02*
X1412054Y45119597D01*
X1412054Y45119597D02*
X1507292Y45071978D01*
X1507292Y45071978D02*
X1554912Y45024359D01*
X1554912Y45024359D02*
X1602531Y44929121D01*
X1602531Y44929121D02*
X1602531Y44786264D01*
X935864Y45548169D02*
X1602531Y45548169D01*
X1031102Y45548169D02*
X983483Y45595788D01*
X983483Y45595788D02*
X935864Y45691026D01*
X935864Y45691026D02*
X935864Y45833883D01*
X935864Y45833883D02*
X983483Y45929121D01*
X983483Y45929121D02*
X1078721Y45976740D01*
X1078721Y45976740D02*
X1602531Y45976740D01*
X1602531Y47357693D02*
X1554912Y47262455D01*
X1554912Y47262455D02*
X1459673Y47214836D01*
X1459673Y47214836D02*
X602531Y47214836D01*
X1602531Y47881503D02*
X1554912Y47786265D01*
X1554912Y47786265D02*
X1507292Y47738646D01*
X1507292Y47738646D02*
X1412054Y47691027D01*
X1412054Y47691027D02*
X1126340Y47691027D01*
X1126340Y47691027D02*
X1031102Y47738646D01*
X1031102Y47738646D02*
X983483Y47786265D01*
X983483Y47786265D02*
X935864Y47881503D01*
X935864Y47881503D02*
X935864Y48024360D01*
X935864Y48024360D02*
X983483Y48119598D01*
X983483Y48119598D02*
X1031102Y48167217D01*
X1031102Y48167217D02*
X1126340Y48214836D01*
X1126340Y48214836D02*
X1412054Y48214836D01*
X1412054Y48214836D02*
X1507292Y48167217D01*
X1507292Y48167217D02*
X1554912Y48119598D01*
X1554912Y48119598D02*
X1602531Y48024360D01*
X1602531Y48024360D02*
X1602531Y47881503D01*
X935864Y49071979D02*
X1745388Y49071979D01*
X1745388Y49071979D02*
X1840626Y49024360D01*
X1840626Y49024360D02*
X1888245Y48976741D01*
X1888245Y48976741D02*
X1935864Y48881503D01*
X1935864Y48881503D02*
X1935864Y48738646D01*
X1935864Y48738646D02*
X1888245Y48643408D01*
X1554912Y49071979D02*
X1602531Y48976741D01*
X1602531Y48976741D02*
X1602531Y48786265D01*
X1602531Y48786265D02*
X1554912Y48691027D01*
X1554912Y48691027D02*
X1507292Y48643408D01*
X1507292Y48643408D02*
X1412054Y48595789D01*
X1412054Y48595789D02*
X1126340Y48595789D01*
X1126340Y48595789D02*
X1031102Y48643408D01*
X1031102Y48643408D02*
X983483Y48691027D01*
X983483Y48691027D02*
X935864Y48786265D01*
X935864Y48786265D02*
X935864Y48976741D01*
X935864Y48976741D02*
X983483Y49071979D01*
X1602531Y49548170D02*
X935864Y49548170D01*
X602531Y49548170D02*
X650150Y49500551D01*
X650150Y49500551D02*
X697769Y49548170D01*
X697769Y49548170D02*
X650150Y49595789D01*
X650150Y49595789D02*
X602531Y49548170D01*
X602531Y49548170D02*
X697769Y49548170D01*
X1554912Y50452931D02*
X1602531Y50357693D01*
X1602531Y50357693D02*
X1602531Y50167217D01*
X1602531Y50167217D02*
X1554912Y50071979D01*
X1554912Y50071979D02*
X1507292Y50024360D01*
X1507292Y50024360D02*
X1412054Y49976741D01*
X1412054Y49976741D02*
X1126340Y49976741D01*
X1126340Y49976741D02*
X1031102Y50024360D01*
X1031102Y50024360D02*
X983483Y50071979D01*
X983483Y50071979D02*
X935864Y50167217D01*
X935864Y50167217D02*
X935864Y50357693D01*
X935864Y50357693D02*
X983483Y50452931D01*
X1602531Y51786265D02*
X1554912Y51691027D01*
X1554912Y51691027D02*
X1459673Y51643408D01*
X1459673Y51643408D02*
X602531Y51643408D01*
X1554912Y52548170D02*
X1602531Y52452932D01*
X1602531Y52452932D02*
X1602531Y52262456D01*
X1602531Y52262456D02*
X1554912Y52167218D01*
X1554912Y52167218D02*
X1459673Y52119599D01*
X1459673Y52119599D02*
X1078721Y52119599D01*
X1078721Y52119599D02*
X983483Y52167218D01*
X983483Y52167218D02*
X935864Y52262456D01*
X935864Y52262456D02*
X935864Y52452932D01*
X935864Y52452932D02*
X983483Y52548170D01*
X983483Y52548170D02*
X1078721Y52595789D01*
X1078721Y52595789D02*
X1173959Y52595789D01*
X1173959Y52595789D02*
X1269197Y52119599D01*
X935864Y52929123D02*
X1602531Y53167218D01*
X1602531Y53167218D02*
X935864Y53405313D01*
X1554912Y54167218D02*
X1602531Y54071980D01*
X1602531Y54071980D02*
X1602531Y53881504D01*
X1602531Y53881504D02*
X1554912Y53786266D01*
X1554912Y53786266D02*
X1459673Y53738647D01*
X1459673Y53738647D02*
X1078721Y53738647D01*
X1078721Y53738647D02*
X983483Y53786266D01*
X983483Y53786266D02*
X935864Y53881504D01*
X935864Y53881504D02*
X935864Y54071980D01*
X935864Y54071980D02*
X983483Y54167218D01*
X983483Y54167218D02*
X1078721Y54214837D01*
X1078721Y54214837D02*
X1173959Y54214837D01*
X1173959Y54214837D02*
X1269197Y53738647D01*
X1602531Y54786266D02*
X1554912Y54691028D01*
X1554912Y54691028D02*
X1459673Y54643409D01*
X1459673Y54643409D02*
X602531Y54643409D01*
X1602531Y56071981D02*
X1554912Y55976743D01*
X1554912Y55976743D02*
X1507292Y55929124D01*
X1507292Y55929124D02*
X1412054Y55881505D01*
X1412054Y55881505D02*
X1126340Y55881505D01*
X1126340Y55881505D02*
X1031102Y55929124D01*
X1031102Y55929124D02*
X983483Y55976743D01*
X983483Y55976743D02*
X935864Y56071981D01*
X935864Y56071981D02*
X935864Y56214838D01*
X935864Y56214838D02*
X983483Y56310076D01*
X983483Y56310076D02*
X1031102Y56357695D01*
X1031102Y56357695D02*
X1126340Y56405314D01*
X1126340Y56405314D02*
X1412054Y56405314D01*
X1412054Y56405314D02*
X1507292Y56357695D01*
X1507292Y56357695D02*
X1554912Y56310076D01*
X1554912Y56310076D02*
X1602531Y56214838D01*
X1602531Y56214838D02*
X1602531Y56071981D01*
X935864Y57262457D02*
X1602531Y57262457D01*
X935864Y56833886D02*
X1459673Y56833886D01*
X1459673Y56833886D02*
X1554912Y56881505D01*
X1554912Y56881505D02*
X1602531Y56976743D01*
X1602531Y56976743D02*
X1602531Y57119600D01*
X1602531Y57119600D02*
X1554912Y57214838D01*
X1554912Y57214838D02*
X1507292Y57262457D01*
X935864Y57595791D02*
X935864Y57976743D01*
X602531Y57738648D02*
X1459673Y57738648D01*
X1459673Y57738648D02*
X1554912Y57786267D01*
X1554912Y57786267D02*
X1602531Y57881505D01*
X1602531Y57881505D02*
X1602531Y57976743D01*
X935864Y58310077D02*
X1935864Y58310077D01*
X983483Y58310077D02*
X935864Y58405315D01*
X935864Y58405315D02*
X935864Y58595791D01*
X935864Y58595791D02*
X983483Y58691029D01*
X983483Y58691029D02*
X1031102Y58738648D01*
X1031102Y58738648D02*
X1126340Y58786267D01*
X1126340Y58786267D02*
X1412054Y58786267D01*
X1412054Y58786267D02*
X1507292Y58738648D01*
X1507292Y58738648D02*
X1554912Y58691029D01*
X1554912Y58691029D02*
X1602531Y58595791D01*
X1602531Y58595791D02*
X1602531Y58405315D01*
X1602531Y58405315D02*
X1554912Y58310077D01*
X935864Y59643410D02*
X1602531Y59643410D01*
X935864Y59214839D02*
X1459673Y59214839D01*
X1459673Y59214839D02*
X1554912Y59262458D01*
X1554912Y59262458D02*
X1602531Y59357696D01*
X1602531Y59357696D02*
X1602531Y59500553D01*
X1602531Y59500553D02*
X1554912Y59595791D01*
X1554912Y59595791D02*
X1507292Y59643410D01*
X935864Y59976744D02*
X935864Y60357696D01*
X602531Y60119601D02*
X1459673Y60119601D01*
X1459673Y60119601D02*
X1554912Y60167220D01*
X1554912Y60167220D02*
X1602531Y60262458D01*
X1602531Y60262458D02*
X1602531Y60357696D01*
X1554912Y60643411D02*
X1602531Y60738649D01*
X1602531Y60738649D02*
X1602531Y60929125D01*
X1602531Y60929125D02*
X1554912Y61024363D01*
X1554912Y61024363D02*
X1459673Y61071982D01*
X1459673Y61071982D02*
X1412054Y61071982D01*
X1412054Y61071982D02*
X1316816Y61024363D01*
X1316816Y61024363D02*
X1269197Y60929125D01*
X1269197Y60929125D02*
X1269197Y60786268D01*
X1269197Y60786268D02*
X1221578Y60691030D01*
X1221578Y60691030D02*
X1126340Y60643411D01*
X1126340Y60643411D02*
X1078721Y60643411D01*
X1078721Y60643411D02*
X983483Y60691030D01*
X983483Y60691030D02*
X935864Y60786268D01*
X935864Y60786268D02*
X935864Y60929125D01*
X935864Y60929125D02*
X983483Y61024363D01*
X1602531Y62262459D02*
X602531Y62262459D01*
X983483Y62262459D02*
X935864Y62357697D01*
X935864Y62357697D02*
X935864Y62548173D01*
X935864Y62548173D02*
X983483Y62643411D01*
X983483Y62643411D02*
X1031102Y62691030D01*
X1031102Y62691030D02*
X1126340Y62738649D01*
X1126340Y62738649D02*
X1412054Y62738649D01*
X1412054Y62738649D02*
X1507292Y62691030D01*
X1507292Y62691030D02*
X1554912Y62643411D01*
X1554912Y62643411D02*
X1602531Y62548173D01*
X1602531Y62548173D02*
X1602531Y62357697D01*
X1602531Y62357697D02*
X1554912Y62262459D01*
X935864Y63071983D02*
X1602531Y63310078D01*
X935864Y63548173D02*
X1602531Y63310078D01*
X1602531Y63310078D02*
X1840626Y63214840D01*
X1840626Y63214840D02*
X1888245Y63167221D01*
X1888245Y63167221D02*
X1935864Y63071983D01*
X1602531Y65119602D02*
X602531Y65119602D01*
X1554912Y65119602D02*
X1602531Y65024364D01*
X1602531Y65024364D02*
X1602531Y64833888D01*
X1602531Y64833888D02*
X1554912Y64738650D01*
X1554912Y64738650D02*
X1507292Y64691031D01*
X1507292Y64691031D02*
X1412054Y64643412D01*
X1412054Y64643412D02*
X1126340Y64643412D01*
X1126340Y64643412D02*
X1031102Y64691031D01*
X1031102Y64691031D02*
X983483Y64738650D01*
X983483Y64738650D02*
X935864Y64833888D01*
X935864Y64833888D02*
X935864Y65024364D01*
X935864Y65024364D02*
X983483Y65119602D01*
X1554912Y65976745D02*
X1602531Y65881507D01*
X1602531Y65881507D02*
X1602531Y65691031D01*
X1602531Y65691031D02*
X1554912Y65595793D01*
X1554912Y65595793D02*
X1459673Y65548174D01*
X1459673Y65548174D02*
X1078721Y65548174D01*
X1078721Y65548174D02*
X983483Y65595793D01*
X983483Y65595793D02*
X935864Y65691031D01*
X935864Y65691031D02*
X935864Y65881507D01*
X935864Y65881507D02*
X983483Y65976745D01*
X983483Y65976745D02*
X1078721Y66024364D01*
X1078721Y66024364D02*
X1173959Y66024364D01*
X1173959Y66024364D02*
X1269197Y65548174D01*
X935864Y66310079D02*
X935864Y66691031D01*
X1602531Y66452936D02*
X745388Y66452936D01*
X745388Y66452936D02*
X650150Y66500555D01*
X650150Y66500555D02*
X602531Y66595793D01*
X602531Y66595793D02*
X602531Y66691031D01*
X1602531Y67452936D02*
X1078721Y67452936D01*
X1078721Y67452936D02*
X983483Y67405317D01*
X983483Y67405317D02*
X935864Y67310079D01*
X935864Y67310079D02*
X935864Y67119603D01*
X935864Y67119603D02*
X983483Y67024365D01*
X1554912Y67452936D02*
X1602531Y67357698D01*
X1602531Y67357698D02*
X1602531Y67119603D01*
X1602531Y67119603D02*
X1554912Y67024365D01*
X1554912Y67024365D02*
X1459673Y66976746D01*
X1459673Y66976746D02*
X1364435Y66976746D01*
X1364435Y66976746D02*
X1269197Y67024365D01*
X1269197Y67024365D02*
X1221578Y67119603D01*
X1221578Y67119603D02*
X1221578Y67357698D01*
X1221578Y67357698D02*
X1173959Y67452936D01*
X935864Y68357698D02*
X1602531Y68357698D01*
X935864Y67929127D02*
X1459673Y67929127D01*
X1459673Y67929127D02*
X1554912Y67976746D01*
X1554912Y67976746D02*
X1602531Y68071984D01*
X1602531Y68071984D02*
X1602531Y68214841D01*
X1602531Y68214841D02*
X1554912Y68310079D01*
X1554912Y68310079D02*
X1507292Y68357698D01*
X1602531Y68976746D02*
X1554912Y68881508D01*
X1554912Y68881508D02*
X1459673Y68833889D01*
X1459673Y68833889D02*
X602531Y68833889D01*
X935864Y69214842D02*
X935864Y69595794D01*
X602531Y69357699D02*
X1459673Y69357699D01*
X1459673Y69357699D02*
X1554912Y69405318D01*
X1554912Y69405318D02*
X1602531Y69500556D01*
X1602531Y69500556D02*
X1602531Y69595794D01*
X2545808Y40691027D02*
X2545808Y41071979D01*
X2212475Y40833884D02*
X3069617Y40833884D01*
X3069617Y40833884D02*
X3164856Y40881503D01*
X3164856Y40881503D02*
X3212475Y40976741D01*
X3212475Y40976741D02*
X3212475Y41071979D01*
X3212475Y41548170D02*
X3164856Y41452932D01*
X3164856Y41452932D02*
X3117236Y41405313D01*
X3117236Y41405313D02*
X3021998Y41357694D01*
X3021998Y41357694D02*
X2736284Y41357694D01*
X2736284Y41357694D02*
X2641046Y41405313D01*
X2641046Y41405313D02*
X2593427Y41452932D01*
X2593427Y41452932D02*
X2545808Y41548170D01*
X2545808Y41548170D02*
X2545808Y41691027D01*
X2545808Y41691027D02*
X2593427Y41786265D01*
X2593427Y41786265D02*
X2641046Y41833884D01*
X2641046Y41833884D02*
X2736284Y41881503D01*
X2736284Y41881503D02*
X3021998Y41881503D01*
X3021998Y41881503D02*
X3117236Y41833884D01*
X3117236Y41833884D02*
X3164856Y41786265D01*
X3164856Y41786265D02*
X3212475Y41691027D01*
X3212475Y41691027D02*
X3212475Y41548170D01*
X3164856Y43500551D02*
X3212475Y43405313D01*
X3212475Y43405313D02*
X3212475Y43214837D01*
X3212475Y43214837D02*
X3164856Y43119599D01*
X3164856Y43119599D02*
X3117236Y43071980D01*
X3117236Y43071980D02*
X3021998Y43024361D01*
X3021998Y43024361D02*
X2736284Y43024361D01*
X2736284Y43024361D02*
X2641046Y43071980D01*
X2641046Y43071980D02*
X2593427Y43119599D01*
X2593427Y43119599D02*
X2545808Y43214837D01*
X2545808Y43214837D02*
X2545808Y43405313D01*
X2545808Y43405313D02*
X2593427Y43500551D01*
X3212475Y44071980D02*
X3164856Y43976742D01*
X3164856Y43976742D02*
X3117236Y43929123D01*
X3117236Y43929123D02*
X3021998Y43881504D01*
X3021998Y43881504D02*
X2736284Y43881504D01*
X2736284Y43881504D02*
X2641046Y43929123D01*
X2641046Y43929123D02*
X2593427Y43976742D01*
X2593427Y43976742D02*
X2545808Y44071980D01*
X2545808Y44071980D02*
X2545808Y44214837D01*
X2545808Y44214837D02*
X2593427Y44310075D01*
X2593427Y44310075D02*
X2641046Y44357694D01*
X2641046Y44357694D02*
X2736284Y44405313D01*
X2736284Y44405313D02*
X3021998Y44405313D01*
X3021998Y44405313D02*
X3117236Y44357694D01*
X3117236Y44357694D02*
X3164856Y44310075D01*
X3164856Y44310075D02*
X3212475Y44214837D01*
X3212475Y44214837D02*
X3212475Y44071980D01*
X2545808Y44833885D02*
X3212475Y44833885D01*
X2641046Y44833885D02*
X2593427Y44881504D01*
X2593427Y44881504D02*
X2545808Y44976742D01*
X2545808Y44976742D02*
X2545808Y45119599D01*
X2545808Y45119599D02*
X2593427Y45214837D01*
X2593427Y45214837D02*
X2688665Y45262456D01*
X2688665Y45262456D02*
X3212475Y45262456D01*
X2545808Y45595790D02*
X2545808Y45976742D01*
X2212475Y45738647D02*
X3069617Y45738647D01*
X3069617Y45738647D02*
X3164856Y45786266D01*
X3164856Y45786266D02*
X3212475Y45881504D01*
X3212475Y45881504D02*
X3212475Y45976742D01*
X3212475Y46310076D02*
X2545808Y46310076D01*
X2736284Y46310076D02*
X2641046Y46357695D01*
X2641046Y46357695D02*
X2593427Y46405314D01*
X2593427Y46405314D02*
X2545808Y46500552D01*
X2545808Y46500552D02*
X2545808Y46595790D01*
X3212475Y47071981D02*
X3164856Y46976743D01*
X3164856Y46976743D02*
X3117236Y46929124D01*
X3117236Y46929124D02*
X3021998Y46881505D01*
X3021998Y46881505D02*
X2736284Y46881505D01*
X2736284Y46881505D02*
X2641046Y46929124D01*
X2641046Y46929124D02*
X2593427Y46976743D01*
X2593427Y46976743D02*
X2545808Y47071981D01*
X2545808Y47071981D02*
X2545808Y47214838D01*
X2545808Y47214838D02*
X2593427Y47310076D01*
X2593427Y47310076D02*
X2641046Y47357695D01*
X2641046Y47357695D02*
X2736284Y47405314D01*
X2736284Y47405314D02*
X3021998Y47405314D01*
X3021998Y47405314D02*
X3117236Y47357695D01*
X3117236Y47357695D02*
X3164856Y47310076D01*
X3164856Y47310076D02*
X3212475Y47214838D01*
X3212475Y47214838D02*
X3212475Y47071981D01*
X3212475Y47976743D02*
X3164856Y47881505D01*
X3164856Y47881505D02*
X3069617Y47833886D01*
X3069617Y47833886D02*
X2212475Y47833886D01*
X3212475Y49548172D02*
X2212475Y49548172D01*
X3164856Y49548172D02*
X3212475Y49452934D01*
X3212475Y49452934D02*
X3212475Y49262458D01*
X3212475Y49262458D02*
X3164856Y49167220D01*
X3164856Y49167220D02*
X3117236Y49119601D01*
X3117236Y49119601D02*
X3021998Y49071982D01*
X3021998Y49071982D02*
X2736284Y49071982D01*
X2736284Y49071982D02*
X2641046Y49119601D01*
X2641046Y49119601D02*
X2593427Y49167220D01*
X2593427Y49167220D02*
X2545808Y49262458D01*
X2545808Y49262458D02*
X2545808Y49452934D01*
X2545808Y49452934D02*
X2593427Y49548172D01*
X2545808Y50452934D02*
X3212475Y50452934D01*
X2545808Y50024363D02*
X3069617Y50024363D01*
X3069617Y50024363D02*
X3164856Y50071982D01*
X3164856Y50071982D02*
X3212475Y50167220D01*
X3212475Y50167220D02*
X3212475Y50310077D01*
X3212475Y50310077D02*
X3164856Y50405315D01*
X3164856Y50405315D02*
X3117236Y50452934D01*
X3212475Y50929125D02*
X2545808Y50929125D01*
X2641046Y50929125D02*
X2593427Y50976744D01*
X2593427Y50976744D02*
X2545808Y51071982D01*
X2545808Y51071982D02*
X2545808Y51214839D01*
X2545808Y51214839D02*
X2593427Y51310077D01*
X2593427Y51310077D02*
X2688665Y51357696D01*
X2688665Y51357696D02*
X3212475Y51357696D01*
X2688665Y51357696D02*
X2593427Y51405315D01*
X2593427Y51405315D02*
X2545808Y51500553D01*
X2545808Y51500553D02*
X2545808Y51643410D01*
X2545808Y51643410D02*
X2593427Y51738649D01*
X2593427Y51738649D02*
X2688665Y51786268D01*
X2688665Y51786268D02*
X3212475Y51786268D01*
X3212475Y52262458D02*
X2212475Y52262458D01*
X2593427Y52262458D02*
X2545808Y52357696D01*
X2545808Y52357696D02*
X2545808Y52548172D01*
X2545808Y52548172D02*
X2593427Y52643410D01*
X2593427Y52643410D02*
X2641046Y52691029D01*
X2641046Y52691029D02*
X2736284Y52738648D01*
X2736284Y52738648D02*
X3021998Y52738648D01*
X3021998Y52738648D02*
X3117236Y52691029D01*
X3117236Y52691029D02*
X3164856Y52643410D01*
X3164856Y52643410D02*
X3212475Y52548172D01*
X3212475Y52548172D02*
X3212475Y52357696D01*
X3212475Y52357696D02*
X3164856Y52262458D01*
X3164856Y54357696D02*
X3212475Y54262458D01*
X3212475Y54262458D02*
X3212475Y54071982D01*
X3212475Y54071982D02*
X3164856Y53976744D01*
X3164856Y53976744D02*
X3117236Y53929125D01*
X3117236Y53929125D02*
X3021998Y53881506D01*
X3021998Y53881506D02*
X2736284Y53881506D01*
X2736284Y53881506D02*
X2641046Y53929125D01*
X2641046Y53929125D02*
X2593427Y53976744D01*
X2593427Y53976744D02*
X2545808Y54071982D01*
X2545808Y54071982D02*
X2545808Y54262458D01*
X2545808Y54262458D02*
X2593427Y54357696D01*
X3212475Y54929125D02*
X3164856Y54833887D01*
X3164856Y54833887D02*
X3117236Y54786268D01*
X3117236Y54786268D02*
X3021998Y54738649D01*
X3021998Y54738649D02*
X2736284Y54738649D01*
X2736284Y54738649D02*
X2641046Y54786268D01*
X2641046Y54786268D02*
X2593427Y54833887D01*
X2593427Y54833887D02*
X2545808Y54929125D01*
X2545808Y54929125D02*
X2545808Y55071982D01*
X2545808Y55071982D02*
X2593427Y55167220D01*
X2593427Y55167220D02*
X2641046Y55214839D01*
X2641046Y55214839D02*
X2736284Y55262458D01*
X2736284Y55262458D02*
X3021998Y55262458D01*
X3021998Y55262458D02*
X3117236Y55214839D01*
X3117236Y55214839D02*
X3164856Y55167220D01*
X3164856Y55167220D02*
X3212475Y55071982D01*
X3212475Y55071982D02*
X3212475Y54929125D01*
X3212475Y55691030D02*
X2545808Y55691030D01*
X2212475Y55691030D02*
X2260094Y55643411D01*
X2260094Y55643411D02*
X2307713Y55691030D01*
X2307713Y55691030D02*
X2260094Y55738649D01*
X2260094Y55738649D02*
X2212475Y55691030D01*
X2212475Y55691030D02*
X2307713Y55691030D01*
X3212475Y56310077D02*
X3164856Y56214839D01*
X3164856Y56214839D02*
X3069617Y56167220D01*
X3069617Y56167220D02*
X2212475Y56167220D01*
X3164856Y56643411D02*
X3212475Y56738649D01*
X3212475Y56738649D02*
X3212475Y56929125D01*
X3212475Y56929125D02*
X3164856Y57024363D01*
X3164856Y57024363D02*
X3069617Y57071982D01*
X3069617Y57071982D02*
X3021998Y57071982D01*
X3021998Y57071982D02*
X2926760Y57024363D01*
X2926760Y57024363D02*
X2879141Y56929125D01*
X2879141Y56929125D02*
X2879141Y56786268D01*
X2879141Y56786268D02*
X2831522Y56691030D01*
X2831522Y56691030D02*
X2736284Y56643411D01*
X2736284Y56643411D02*
X2688665Y56643411D01*
X2688665Y56643411D02*
X2593427Y56691030D01*
X2593427Y56691030D02*
X2545808Y56786268D01*
X2545808Y56786268D02*
X2545808Y56929125D01*
X2545808Y56929125D02*
X2593427Y57024363D01*
X3212475Y58262459D02*
X2545808Y58262459D01*
X2736284Y58262459D02*
X2641046Y58310078D01*
X2641046Y58310078D02*
X2593427Y58357697D01*
X2593427Y58357697D02*
X2545808Y58452935D01*
X2545808Y58452935D02*
X2545808Y58548173D01*
X3164856Y59262459D02*
X3212475Y59167221D01*
X3212475Y59167221D02*
X3212475Y58976745D01*
X3212475Y58976745D02*
X3164856Y58881507D01*
X3164856Y58881507D02*
X3069617Y58833888D01*
X3069617Y58833888D02*
X2688665Y58833888D01*
X2688665Y58833888D02*
X2593427Y58881507D01*
X2593427Y58881507D02*
X2545808Y58976745D01*
X2545808Y58976745D02*
X2545808Y59167221D01*
X2545808Y59167221D02*
X2593427Y59262459D01*
X2593427Y59262459D02*
X2688665Y59310078D01*
X2688665Y59310078D02*
X2783903Y59310078D01*
X2783903Y59310078D02*
X2879141Y58833888D01*
X3212475Y59738650D02*
X2545808Y59738650D01*
X2641046Y59738650D02*
X2593427Y59786269D01*
X2593427Y59786269D02*
X2545808Y59881507D01*
X2545808Y59881507D02*
X2545808Y60024364D01*
X2545808Y60024364D02*
X2593427Y60119602D01*
X2593427Y60119602D02*
X2688665Y60167221D01*
X2688665Y60167221D02*
X3212475Y60167221D01*
X2688665Y60167221D02*
X2593427Y60214840D01*
X2593427Y60214840D02*
X2545808Y60310078D01*
X2545808Y60310078D02*
X2545808Y60452935D01*
X2545808Y60452935D02*
X2593427Y60548174D01*
X2593427Y60548174D02*
X2688665Y60595793D01*
X2688665Y60595793D02*
X3212475Y60595793D01*
X3212475Y61214840D02*
X3164856Y61119602D01*
X3164856Y61119602D02*
X3117236Y61071983D01*
X3117236Y61071983D02*
X3021998Y61024364D01*
X3021998Y61024364D02*
X2736284Y61024364D01*
X2736284Y61024364D02*
X2641046Y61071983D01*
X2641046Y61071983D02*
X2593427Y61119602D01*
X2593427Y61119602D02*
X2545808Y61214840D01*
X2545808Y61214840D02*
X2545808Y61357697D01*
X2545808Y61357697D02*
X2593427Y61452935D01*
X2593427Y61452935D02*
X2641046Y61500554D01*
X2641046Y61500554D02*
X2736284Y61548173D01*
X2736284Y61548173D02*
X3021998Y61548173D01*
X3021998Y61548173D02*
X3117236Y61500554D01*
X3117236Y61500554D02*
X3164856Y61452935D01*
X3164856Y61452935D02*
X3212475Y61357697D01*
X3212475Y61357697D02*
X3212475Y61214840D01*
X2545808Y61881507D02*
X3212475Y62119602D01*
X3212475Y62119602D02*
X2545808Y62357697D01*
X3164856Y63119602D02*
X3212475Y63024364D01*
X3212475Y63024364D02*
X3212475Y62833888D01*
X3212475Y62833888D02*
X3164856Y62738650D01*
X3164856Y62738650D02*
X3069617Y62691031D01*
X3069617Y62691031D02*
X2688665Y62691031D01*
X2688665Y62691031D02*
X2593427Y62738650D01*
X2593427Y62738650D02*
X2545808Y62833888D01*
X2545808Y62833888D02*
X2545808Y63024364D01*
X2545808Y63024364D02*
X2593427Y63119602D01*
X2593427Y63119602D02*
X2688665Y63167221D01*
X2688665Y63167221D02*
X2783903Y63167221D01*
X2783903Y63167221D02*
X2879141Y62691031D01*
X3212475Y64929126D02*
X2736284Y64595793D01*
X3212475Y64357698D02*
X2212475Y64357698D01*
X2212475Y64357698D02*
X2212475Y64738650D01*
X2212475Y64738650D02*
X2260094Y64833888D01*
X2260094Y64833888D02*
X2307713Y64881507D01*
X2307713Y64881507D02*
X2402951Y64929126D01*
X2402951Y64929126D02*
X2545808Y64929126D01*
X2545808Y64929126D02*
X2641046Y64881507D01*
X2641046Y64881507D02*
X2688665Y64833888D01*
X2688665Y64833888D02*
X2736284Y64738650D01*
X2736284Y64738650D02*
X2736284Y64357698D01*
X2307713Y65310079D02*
X2260094Y65357698D01*
X2260094Y65357698D02*
X2212475Y65452936D01*
X2212475Y65452936D02*
X2212475Y65691031D01*
X2212475Y65691031D02*
X2260094Y65786269D01*
X2260094Y65786269D02*
X2307713Y65833888D01*
X2307713Y65833888D02*
X2402951Y65881507D01*
X2402951Y65881507D02*
X2498189Y65881507D01*
X2498189Y65881507D02*
X2641046Y65833888D01*
X2641046Y65833888D02*
X3212475Y65262460D01*
X3212475Y65262460D02*
X3212475Y65881507D01*
X2212475Y66500555D02*
X2212475Y66595793D01*
X2212475Y66595793D02*
X2260094Y66691031D01*
X2260094Y66691031D02*
X2307713Y66738650D01*
X2307713Y66738650D02*
X2402951Y66786269D01*
X2402951Y66786269D02*
X2593427Y66833888D01*
X2593427Y66833888D02*
X2831522Y66833888D01*
X2831522Y66833888D02*
X3021998Y66786269D01*
X3021998Y66786269D02*
X3117236Y66738650D01*
X3117236Y66738650D02*
X3164856Y66691031D01*
X3164856Y66691031D02*
X3212475Y66595793D01*
X3212475Y66595793D02*
X3212475Y66500555D01*
X3212475Y66500555D02*
X3164856Y66405317D01*
X3164856Y66405317D02*
X3117236Y66357698D01*
X3117236Y66357698D02*
X3021998Y66310079D01*
X3021998Y66310079D02*
X2831522Y66262460D01*
X2831522Y66262460D02*
X2593427Y66262460D01*
X2593427Y66262460D02*
X2402951Y66310079D01*
X2402951Y66310079D02*
X2307713Y66357698D01*
X2307713Y66357698D02*
X2260094Y66405317D01*
X2260094Y66405317D02*
X2212475Y66500555D01*
X2831522Y67262460D02*
X2831522Y68024365D01*
X3212475Y69071983D02*
X2736284Y68738650D01*
X3212475Y68500555D02*
X2212475Y68500555D01*
X2212475Y68500555D02*
X2212475Y68881507D01*
X2212475Y68881507D02*
X2260094Y68976745D01*
X2260094Y68976745D02*
X2307713Y69024364D01*
X2307713Y69024364D02*
X2402951Y69071983D01*
X2402951Y69071983D02*
X2545808Y69071983D01*
X2545808Y69071983D02*
X2641046Y69024364D01*
X2641046Y69024364D02*
X2688665Y68976745D01*
X2688665Y68976745D02*
X2736284Y68881507D01*
X2736284Y68881507D02*
X2736284Y68500555D01*
X2307713Y69452936D02*
X2260094Y69500555D01*
X2260094Y69500555D02*
X2212475Y69595793D01*
X2212475Y69595793D02*
X2212475Y69833888D01*
X2212475Y69833888D02*
X2260094Y69929126D01*
X2260094Y69929126D02*
X2307713Y69976745D01*
X2307713Y69976745D02*
X2402951Y70024364D01*
X2402951Y70024364D02*
X2498189Y70024364D01*
X2498189Y70024364D02*
X2641046Y69976745D01*
X2641046Y69976745D02*
X3212475Y69405317D01*
X3212475Y69405317D02*
X3212475Y70024364D01*
X2307713Y70405317D02*
X2260094Y70452936D01*
X2260094Y70452936D02*
X2212475Y70548174D01*
X2212475Y70548174D02*
X2212475Y70786269D01*
X2212475Y70786269D02*
X2260094Y70881507D01*
X2260094Y70881507D02*
X2307713Y70929126D01*
X2307713Y70929126D02*
X2402951Y70976745D01*
X2402951Y70976745D02*
X2498189Y70976745D01*
X2498189Y70976745D02*
X2641046Y70929126D01*
X2641046Y70929126D02*
X3212475Y70357698D01*
X3212475Y70357698D02*
X3212475Y70976745D01*
X3164856Y71452936D02*
X3212475Y71452936D01*
X3212475Y71452936D02*
X3307713Y71405317D01*
X3307713Y71405317D02*
X3355332Y71357698D01*
X4822419Y41405312D02*
X4346228Y41071979D01*
X4822419Y40833884D02*
X3822419Y40833884D01*
X3822419Y40833884D02*
X3822419Y41214836D01*
X3822419Y41214836D02*
X3870038Y41310074D01*
X3870038Y41310074D02*
X3917657Y41357693D01*
X3917657Y41357693D02*
X4012895Y41405312D01*
X4012895Y41405312D02*
X4155752Y41405312D01*
X4155752Y41405312D02*
X4250990Y41357693D01*
X4250990Y41357693D02*
X4298609Y41310074D01*
X4298609Y41310074D02*
X4346228Y41214836D01*
X4346228Y41214836D02*
X4346228Y40833884D01*
X3917657Y41786265D02*
X3870038Y41833884D01*
X3870038Y41833884D02*
X3822419Y41929122D01*
X3822419Y41929122D02*
X3822419Y42167217D01*
X3822419Y42167217D02*
X3870038Y42262455D01*
X3870038Y42262455D02*
X3917657Y42310074D01*
X3917657Y42310074D02*
X4012895Y42357693D01*
X4012895Y42357693D02*
X4108133Y42357693D01*
X4108133Y42357693D02*
X4250990Y42310074D01*
X4250990Y42310074D02*
X4822419Y41738646D01*
X4822419Y41738646D02*
X4822419Y42357693D01*
X3822419Y43214836D02*
X3822419Y43024360D01*
X3822419Y43024360D02*
X3870038Y42929122D01*
X3870038Y42929122D02*
X3917657Y42881503D01*
X3917657Y42881503D02*
X4060514Y42786265D01*
X4060514Y42786265D02*
X4250990Y42738646D01*
X4250990Y42738646D02*
X4631942Y42738646D01*
X4631942Y42738646D02*
X4727180Y42786265D01*
X4727180Y42786265D02*
X4774800Y42833884D01*
X4774800Y42833884D02*
X4822419Y42929122D01*
X4822419Y42929122D02*
X4822419Y43119598D01*
X4822419Y43119598D02*
X4774800Y43214836D01*
X4774800Y43214836D02*
X4727180Y43262455D01*
X4727180Y43262455D02*
X4631942Y43310074D01*
X4631942Y43310074D02*
X4393847Y43310074D01*
X4393847Y43310074D02*
X4298609Y43262455D01*
X4298609Y43262455D02*
X4250990Y43214836D01*
X4250990Y43214836D02*
X4203371Y43119598D01*
X4203371Y43119598D02*
X4203371Y42929122D01*
X4203371Y42929122D02*
X4250990Y42833884D01*
X4250990Y42833884D02*
X4298609Y42786265D01*
X4298609Y42786265D02*
X4393847Y42738646D01*
X4441466Y43738646D02*
X4441466Y44500551D01*
X4822419Y45548169D02*
X4346228Y45214836D01*
X4822419Y44976741D02*
X3822419Y44976741D01*
X3822419Y44976741D02*
X3822419Y45357693D01*
X3822419Y45357693D02*
X3870038Y45452931D01*
X3870038Y45452931D02*
X3917657Y45500550D01*
X3917657Y45500550D02*
X4012895Y45548169D01*
X4012895Y45548169D02*
X4155752Y45548169D01*
X4155752Y45548169D02*
X4250990Y45500550D01*
X4250990Y45500550D02*
X4298609Y45452931D01*
X4298609Y45452931D02*
X4346228Y45357693D01*
X4346228Y45357693D02*
X4346228Y44976741D01*
X3917657Y45929122D02*
X3870038Y45976741D01*
X3870038Y45976741D02*
X3822419Y46071979D01*
X3822419Y46071979D02*
X3822419Y46310074D01*
X3822419Y46310074D02*
X3870038Y46405312D01*
X3870038Y46405312D02*
X3917657Y46452931D01*
X3917657Y46452931D02*
X4012895Y46500550D01*
X4012895Y46500550D02*
X4108133Y46500550D01*
X4108133Y46500550D02*
X4250990Y46452931D01*
X4250990Y46452931D02*
X4822419Y45881503D01*
X4822419Y45881503D02*
X4822419Y46500550D01*
X4250990Y47071979D02*
X4203371Y46976741D01*
X4203371Y46976741D02*
X4155752Y46929122D01*
X4155752Y46929122D02*
X4060514Y46881503D01*
X4060514Y46881503D02*
X4012895Y46881503D01*
X4012895Y46881503D02*
X3917657Y46929122D01*
X3917657Y46929122D02*
X3870038Y46976741D01*
X3870038Y46976741D02*
X3822419Y47071979D01*
X3822419Y47071979D02*
X3822419Y47262455D01*
X3822419Y47262455D02*
X3870038Y47357693D01*
X3870038Y47357693D02*
X3917657Y47405312D01*
X3917657Y47405312D02*
X4012895Y47452931D01*
X4012895Y47452931D02*
X4060514Y47452931D01*
X4060514Y47452931D02*
X4155752Y47405312D01*
X4155752Y47405312D02*
X4203371Y47357693D01*
X4203371Y47357693D02*
X4250990Y47262455D01*
X4250990Y47262455D02*
X4250990Y47071979D01*
X4250990Y47071979D02*
X4298609Y46976741D01*
X4298609Y46976741D02*
X4346228Y46929122D01*
X4346228Y46929122D02*
X4441466Y46881503D01*
X4441466Y46881503D02*
X4631942Y46881503D01*
X4631942Y46881503D02*
X4727180Y46929122D01*
X4727180Y46929122D02*
X4774800Y46976741D01*
X4774800Y46976741D02*
X4822419Y47071979D01*
X4822419Y47071979D02*
X4822419Y47262455D01*
X4822419Y47262455D02*
X4774800Y47357693D01*
X4774800Y47357693D02*
X4727180Y47405312D01*
X4727180Y47405312D02*
X4631942Y47452931D01*
X4631942Y47452931D02*
X4441466Y47452931D01*
X4441466Y47452931D02*
X4346228Y47405312D01*
X4346228Y47405312D02*
X4298609Y47357693D01*
X4298609Y47357693D02*
X4250990Y47262455D01*
X4822419Y49071979D02*
X4298609Y49071979D01*
X4298609Y49071979D02*
X4203371Y49024360D01*
X4203371Y49024360D02*
X4155752Y48929122D01*
X4155752Y48929122D02*
X4155752Y48738646D01*
X4155752Y48738646D02*
X4203371Y48643408D01*
X4774800Y49071979D02*
X4822419Y48976741D01*
X4822419Y48976741D02*
X4822419Y48738646D01*
X4822419Y48738646D02*
X4774800Y48643408D01*
X4774800Y48643408D02*
X4679561Y48595789D01*
X4679561Y48595789D02*
X4584323Y48595789D01*
X4584323Y48595789D02*
X4489085Y48643408D01*
X4489085Y48643408D02*
X4441466Y48738646D01*
X4441466Y48738646D02*
X4441466Y48976741D01*
X4441466Y48976741D02*
X4393847Y49071979D01*
X4155752Y49548170D02*
X4822419Y49548170D01*
X4250990Y49548170D02*
X4203371Y49595789D01*
X4203371Y49595789D02*
X4155752Y49691027D01*
X4155752Y49691027D02*
X4155752Y49833884D01*
X4155752Y49833884D02*
X4203371Y49929122D01*
X4203371Y49929122D02*
X4298609Y49976741D01*
X4298609Y49976741D02*
X4822419Y49976741D01*
X4822419Y50881503D02*
X3822419Y50881503D01*
X4774800Y50881503D02*
X4822419Y50786265D01*
X4822419Y50786265D02*
X4822419Y50595789D01*
X4822419Y50595789D02*
X4774800Y50500551D01*
X4774800Y50500551D02*
X4727180Y50452932D01*
X4727180Y50452932D02*
X4631942Y50405313D01*
X4631942Y50405313D02*
X4346228Y50405313D01*
X4346228Y50405313D02*
X4250990Y50452932D01*
X4250990Y50452932D02*
X4203371Y50500551D01*
X4203371Y50500551D02*
X4155752Y50595789D01*
X4155752Y50595789D02*
X4155752Y50786265D01*
X4155752Y50786265D02*
X4203371Y50881503D01*
X4155752Y52119599D02*
X5155752Y52119599D01*
X4203371Y52119599D02*
X4155752Y52214837D01*
X4155752Y52214837D02*
X4155752Y52405313D01*
X4155752Y52405313D02*
X4203371Y52500551D01*
X4203371Y52500551D02*
X4250990Y52548170D01*
X4250990Y52548170D02*
X4346228Y52595789D01*
X4346228Y52595789D02*
X4631942Y52595789D01*
X4631942Y52595789D02*
X4727180Y52548170D01*
X4727180Y52548170D02*
X4774800Y52500551D01*
X4774800Y52500551D02*
X4822419Y52405313D01*
X4822419Y52405313D02*
X4822419Y52214837D01*
X4822419Y52214837D02*
X4774800Y52119599D01*
X4822419Y53167218D02*
X4774800Y53071980D01*
X4774800Y53071980D02*
X4727180Y53024361D01*
X4727180Y53024361D02*
X4631942Y52976742D01*
X4631942Y52976742D02*
X4346228Y52976742D01*
X4346228Y52976742D02*
X4250990Y53024361D01*
X4250990Y53024361D02*
X4203371Y53071980D01*
X4203371Y53071980D02*
X4155752Y53167218D01*
X4155752Y53167218D02*
X4155752Y53310075D01*
X4155752Y53310075D02*
X4203371Y53405313D01*
X4203371Y53405313D02*
X4250990Y53452932D01*
X4250990Y53452932D02*
X4346228Y53500551D01*
X4346228Y53500551D02*
X4631942Y53500551D01*
X4631942Y53500551D02*
X4727180Y53452932D01*
X4727180Y53452932D02*
X4774800Y53405313D01*
X4774800Y53405313D02*
X4822419Y53310075D01*
X4822419Y53310075D02*
X4822419Y53167218D01*
X4155752Y53929123D02*
X5155752Y53929123D01*
X4203371Y53929123D02*
X4155752Y54024361D01*
X4155752Y54024361D02*
X4155752Y54214837D01*
X4155752Y54214837D02*
X4203371Y54310075D01*
X4203371Y54310075D02*
X4250990Y54357694D01*
X4250990Y54357694D02*
X4346228Y54405313D01*
X4346228Y54405313D02*
X4631942Y54405313D01*
X4631942Y54405313D02*
X4727180Y54357694D01*
X4727180Y54357694D02*
X4774800Y54310075D01*
X4774800Y54310075D02*
X4822419Y54214837D01*
X4822419Y54214837D02*
X4822419Y54024361D01*
X4822419Y54024361D02*
X4774800Y53929123D01*
X4155752Y55262456D02*
X4822419Y55262456D01*
X4155752Y54833885D02*
X4679561Y54833885D01*
X4679561Y54833885D02*
X4774800Y54881504D01*
X4774800Y54881504D02*
X4822419Y54976742D01*
X4822419Y54976742D02*
X4822419Y55119599D01*
X4822419Y55119599D02*
X4774800Y55214837D01*
X4774800Y55214837D02*
X4727180Y55262456D01*
X4822419Y55881504D02*
X4774800Y55786266D01*
X4774800Y55786266D02*
X4679561Y55738647D01*
X4679561Y55738647D02*
X3822419Y55738647D01*
X4822419Y56691028D02*
X4298609Y56691028D01*
X4298609Y56691028D02*
X4203371Y56643409D01*
X4203371Y56643409D02*
X4155752Y56548171D01*
X4155752Y56548171D02*
X4155752Y56357695D01*
X4155752Y56357695D02*
X4203371Y56262457D01*
X4774800Y56691028D02*
X4822419Y56595790D01*
X4822419Y56595790D02*
X4822419Y56357695D01*
X4822419Y56357695D02*
X4774800Y56262457D01*
X4774800Y56262457D02*
X4679561Y56214838D01*
X4679561Y56214838D02*
X4584323Y56214838D01*
X4584323Y56214838D02*
X4489085Y56262457D01*
X4489085Y56262457D02*
X4441466Y56357695D01*
X4441466Y56357695D02*
X4441466Y56595790D01*
X4441466Y56595790D02*
X4393847Y56691028D01*
X4155752Y57024362D02*
X4155752Y57405314D01*
X3822419Y57167219D02*
X4679561Y57167219D01*
X4679561Y57167219D02*
X4774800Y57214838D01*
X4774800Y57214838D02*
X4822419Y57310076D01*
X4822419Y57310076D02*
X4822419Y57405314D01*
X4774800Y58119600D02*
X4822419Y58024362D01*
X4822419Y58024362D02*
X4822419Y57833886D01*
X4822419Y57833886D02*
X4774800Y57738648D01*
X4774800Y57738648D02*
X4679561Y57691029D01*
X4679561Y57691029D02*
X4298609Y57691029D01*
X4298609Y57691029D02*
X4203371Y57738648D01*
X4203371Y57738648D02*
X4155752Y57833886D01*
X4155752Y57833886D02*
X4155752Y58024362D01*
X4155752Y58024362D02*
X4203371Y58119600D01*
X4203371Y58119600D02*
X4298609Y58167219D01*
X4298609Y58167219D02*
X4393847Y58167219D01*
X4393847Y58167219D02*
X4489085Y57691029D01*
X4917657Y60024362D02*
X4870038Y59929124D01*
X4870038Y59929124D02*
X4774800Y59833886D01*
X4774800Y59833886D02*
X4631942Y59691029D01*
X4631942Y59691029D02*
X4584323Y59595791D01*
X4584323Y59595791D02*
X4584323Y59500553D01*
X4822419Y59548172D02*
X4774800Y59452934D01*
X4774800Y59452934D02*
X4679561Y59357696D01*
X4679561Y59357696D02*
X4489085Y59310077D01*
X4489085Y59310077D02*
X4155752Y59310077D01*
X4155752Y59310077D02*
X3965276Y59357696D01*
X3965276Y59357696D02*
X3870038Y59452934D01*
X3870038Y59452934D02*
X3822419Y59548172D01*
X3822419Y59548172D02*
X3822419Y59738648D01*
X3822419Y59738648D02*
X3870038Y59833886D01*
X3870038Y59833886D02*
X3965276Y59929124D01*
X3965276Y59929124D02*
X4155752Y59976743D01*
X4155752Y59976743D02*
X4489085Y59976743D01*
X4489085Y59976743D02*
X4679561Y59929124D01*
X4679561Y59929124D02*
X4774800Y59833886D01*
X4774800Y59833886D02*
X4822419Y59738648D01*
X4822419Y59738648D02*
X4822419Y59548172D01*
X3822419Y60310077D02*
X3822419Y60976743D01*
X3822419Y60976743D02*
X4822419Y60548172D01*
X4441466Y61357696D02*
X4441466Y62119601D01*
X4917657Y63262457D02*
X4870038Y63167219D01*
X4870038Y63167219D02*
X4774800Y63071981D01*
X4774800Y63071981D02*
X4631942Y62929124D01*
X4631942Y62929124D02*
X4584323Y62833886D01*
X4584323Y62833886D02*
X4584323Y62738648D01*
X4822419Y62786267D02*
X4774800Y62691029D01*
X4774800Y62691029D02*
X4679561Y62595791D01*
X4679561Y62595791D02*
X4489085Y62548172D01*
X4489085Y62548172D02*
X4155752Y62548172D01*
X4155752Y62548172D02*
X3965276Y62595791D01*
X3965276Y62595791D02*
X3870038Y62691029D01*
X3870038Y62691029D02*
X3822419Y62786267D01*
X3822419Y62786267D02*
X3822419Y62976743D01*
X3822419Y62976743D02*
X3870038Y63071981D01*
X3870038Y63071981D02*
X3965276Y63167219D01*
X3965276Y63167219D02*
X4155752Y63214838D01*
X4155752Y63214838D02*
X4489085Y63214838D01*
X4489085Y63214838D02*
X4679561Y63167219D01*
X4679561Y63167219D02*
X4774800Y63071981D01*
X4774800Y63071981D02*
X4822419Y62976743D01*
X4822419Y62976743D02*
X4822419Y62786267D01*
X4822419Y64167219D02*
X4822419Y63595791D01*
X4822419Y63881505D02*
X3822419Y63881505D01*
X3822419Y63881505D02*
X3965276Y63786267D01*
X3965276Y63786267D02*
X4060514Y63691029D01*
X4060514Y63691029D02*
X4108133Y63595791D01*
X3917657Y64548172D02*
X3870038Y64595791D01*
X3870038Y64595791D02*
X3822419Y64691029D01*
X3822419Y64691029D02*
X3822419Y64929124D01*
X3822419Y64929124D02*
X3870038Y65024362D01*
X3870038Y65024362D02*
X3917657Y65071981D01*
X3917657Y65071981D02*
X4012895Y65119600D01*
X4012895Y65119600D02*
X4108133Y65119600D01*
X4108133Y65119600D02*
X4250990Y65071981D01*
X4250990Y65071981D02*
X4822419Y64500553D01*
X4822419Y64500553D02*
X4822419Y65119600D01*
X4822419Y66452934D02*
X4774800Y66357696D01*
X4774800Y66357696D02*
X4727180Y66310077D01*
X4727180Y66310077D02*
X4631942Y66262458D01*
X4631942Y66262458D02*
X4346228Y66262458D01*
X4346228Y66262458D02*
X4250990Y66310077D01*
X4250990Y66310077D02*
X4203371Y66357696D01*
X4203371Y66357696D02*
X4155752Y66452934D01*
X4155752Y66452934D02*
X4155752Y66595791D01*
X4155752Y66595791D02*
X4203371Y66691029D01*
X4203371Y66691029D02*
X4250990Y66738648D01*
X4250990Y66738648D02*
X4346228Y66786267D01*
X4346228Y66786267D02*
X4631942Y66786267D01*
X4631942Y66786267D02*
X4727180Y66738648D01*
X4727180Y66738648D02*
X4774800Y66691029D01*
X4774800Y66691029D02*
X4822419Y66595791D01*
X4822419Y66595791D02*
X4822419Y66452934D01*
X4155752Y67214839D02*
X4822419Y67214839D01*
X4250990Y67214839D02*
X4203371Y67262458D01*
X4203371Y67262458D02*
X4155752Y67357696D01*
X4155752Y67357696D02*
X4155752Y67500553D01*
X4155752Y67500553D02*
X4203371Y67595791D01*
X4203371Y67595791D02*
X4298609Y67643410D01*
X4298609Y67643410D02*
X4822419Y67643410D01*
X4155752Y69310077D02*
X4822419Y69310077D01*
X4155752Y68881506D02*
X4679561Y68881506D01*
X4679561Y68881506D02*
X4774800Y68929125D01*
X4774800Y68929125D02*
X4822419Y69024363D01*
X4822419Y69024363D02*
X4822419Y69167220D01*
X4822419Y69167220D02*
X4774800Y69262458D01*
X4774800Y69262458D02*
X4727180Y69310077D01*
X4822419Y70214839D02*
X4298609Y70214839D01*
X4298609Y70214839D02*
X4203371Y70167220D01*
X4203371Y70167220D02*
X4155752Y70071982D01*
X4155752Y70071982D02*
X4155752Y69881506D01*
X4155752Y69881506D02*
X4203371Y69786268D01*
X4774800Y70214839D02*
X4822419Y70119601D01*
X4822419Y70119601D02*
X4822419Y69881506D01*
X4822419Y69881506D02*
X4774800Y69786268D01*
X4774800Y69786268D02*
X4679561Y69738649D01*
X4679561Y69738649D02*
X4584323Y69738649D01*
X4584323Y69738649D02*
X4489085Y69786268D01*
X4489085Y69786268D02*
X4441466Y69881506D01*
X4441466Y69881506D02*
X4441466Y70119601D01*
X4441466Y70119601D02*
X4393847Y70214839D01*
X4774800Y71071982D02*
X4822419Y70976744D01*
X4822419Y70976744D02*
X4822419Y70786268D01*
X4822419Y70786268D02*
X4774800Y70691030D01*
X4774800Y70691030D02*
X4679561Y70643411D01*
X4679561Y70643411D02*
X4298609Y70643411D01*
X4298609Y70643411D02*
X4203371Y70691030D01*
X4203371Y70691030D02*
X4155752Y70786268D01*
X4155752Y70786268D02*
X4155752Y70976744D01*
X4155752Y70976744D02*
X4203371Y71071982D01*
X4203371Y71071982D02*
X4298609Y71119601D01*
X4298609Y71119601D02*
X4393847Y71119601D01*
X4393847Y71119601D02*
X4489085Y70643411D01*
X4155752Y71405316D02*
X4155752Y71786268D01*
X4822419Y71548173D02*
X3965276Y71548173D01*
X3965276Y71548173D02*
X3870038Y71595792D01*
X3870038Y71595792D02*
X3822419Y71691030D01*
X3822419Y71691030D02*
X3822419Y71786268D01*
X4822419Y72119602D02*
X4155752Y72119602D01*
X3822419Y72119602D02*
X3870038Y72071983D01*
X3870038Y72071983D02*
X3917657Y72119602D01*
X3917657Y72119602D02*
X3870038Y72167221D01*
X3870038Y72167221D02*
X3822419Y72119602D01*
X3822419Y72119602D02*
X3917657Y72119602D01*
X4822419Y73357697D02*
X3822419Y73357697D01*
X4203371Y73357697D02*
X4155752Y73452935D01*
X4155752Y73452935D02*
X4155752Y73643411D01*
X4155752Y73643411D02*
X4203371Y73738649D01*
X4203371Y73738649D02*
X4250990Y73786268D01*
X4250990Y73786268D02*
X4346228Y73833887D01*
X4346228Y73833887D02*
X4631942Y73833887D01*
X4631942Y73833887D02*
X4727180Y73786268D01*
X4727180Y73786268D02*
X4774800Y73738649D01*
X4774800Y73738649D02*
X4822419Y73643411D01*
X4822419Y73643411D02*
X4822419Y73452935D01*
X4822419Y73452935D02*
X4774800Y73357697D01*
X4822419Y74405316D02*
X4774800Y74310078D01*
X4774800Y74310078D02*
X4727180Y74262459D01*
X4727180Y74262459D02*
X4631942Y74214840D01*
X4631942Y74214840D02*
X4346228Y74214840D01*
X4346228Y74214840D02*
X4250990Y74262459D01*
X4250990Y74262459D02*
X4203371Y74310078D01*
X4203371Y74310078D02*
X4155752Y74405316D01*
X4155752Y74405316D02*
X4155752Y74548173D01*
X4155752Y74548173D02*
X4203371Y74643411D01*
X4203371Y74643411D02*
X4250990Y74691030D01*
X4250990Y74691030D02*
X4346228Y74738649D01*
X4346228Y74738649D02*
X4631942Y74738649D01*
X4631942Y74738649D02*
X4727180Y74691030D01*
X4727180Y74691030D02*
X4774800Y74643411D01*
X4774800Y74643411D02*
X4822419Y74548173D01*
X4822419Y74548173D02*
X4822419Y74405316D01*
X4822419Y75595792D02*
X4298609Y75595792D01*
X4298609Y75595792D02*
X4203371Y75548173D01*
X4203371Y75548173D02*
X4155752Y75452935D01*
X4155752Y75452935D02*
X4155752Y75262459D01*
X4155752Y75262459D02*
X4203371Y75167221D01*
X4774800Y75595792D02*
X4822419Y75500554D01*
X4822419Y75500554D02*
X4822419Y75262459D01*
X4822419Y75262459D02*
X4774800Y75167221D01*
X4774800Y75167221D02*
X4679561Y75119602D01*
X4679561Y75119602D02*
X4584323Y75119602D01*
X4584323Y75119602D02*
X4489085Y75167221D01*
X4489085Y75167221D02*
X4441466Y75262459D01*
X4441466Y75262459D02*
X4441466Y75500554D01*
X4441466Y75500554D02*
X4393847Y75595792D01*
X4822419Y76071983D02*
X4155752Y76071983D01*
X4346228Y76071983D02*
X4250990Y76119602D01*
X4250990Y76119602D02*
X4203371Y76167221D01*
X4203371Y76167221D02*
X4155752Y76262459D01*
X4155752Y76262459D02*
X4155752Y76357697D01*
X4822419Y77119602D02*
X3822419Y77119602D01*
X4774800Y77119602D02*
X4822419Y77024364D01*
X4822419Y77024364D02*
X4822419Y76833888D01*
X4822419Y76833888D02*
X4774800Y76738650D01*
X4774800Y76738650D02*
X4727180Y76691031D01*
X4727180Y76691031D02*
X4631942Y76643412D01*
X4631942Y76643412D02*
X4346228Y76643412D01*
X4346228Y76643412D02*
X4250990Y76691031D01*
X4250990Y76691031D02*
X4203371Y76738650D01*
X4203371Y76738650D02*
X4155752Y76833888D01*
X4155752Y76833888D02*
X4155752Y77024364D01*
X4155752Y77024364D02*
X4203371Y77119602D01*
D11*
G04 #@! TO.C,M5*
X8075126Y91055000D02*
X8675126Y90755000D01*
X8075126Y90455000D02*
X8075126Y91055000D01*
X8350126Y76240000D02*
X8350126Y77220000D01*
X8350126Y72040000D02*
X8350126Y73020000D01*
X8350126Y67840000D02*
X8350126Y68820000D01*
X8350126Y63640000D02*
X8350126Y64620000D01*
X8350126Y59440000D02*
X8350126Y60420000D01*
X8350126Y55240000D02*
X8350126Y56220000D01*
X8350126Y51040000D02*
X8350126Y52020000D01*
X8350126Y46840000D02*
X8350126Y47820000D01*
X8350126Y35840000D02*
X8350126Y36820000D01*
X8350126Y31640000D02*
X8350126Y32620000D01*
X8350126Y27440000D02*
X8350126Y28420000D01*
X8360126Y80830000D02*
X8360126Y81640000D01*
X8360126Y43230000D02*
X8360126Y42420000D01*
X8360126Y40430000D02*
X8360126Y41240000D01*
X8360126Y23830000D02*
X8360126Y23020000D01*
X8675126Y91745000D02*
X7865126Y91745000D01*
X8675126Y90755000D02*
X8075126Y90455000D01*
X8727290Y84356098D02*
X7917290Y84356098D01*
X9050126Y42630000D02*
X9350126Y43230000D01*
X9050126Y23230000D02*
X9350126Y23830000D01*
X9350126Y43230000D02*
X9650126Y42630000D01*
X9350126Y23830000D02*
X9650126Y23230000D01*
X9650126Y42630000D02*
X9050126Y42630000D01*
X9650126Y23230000D02*
X9050126Y23230000D01*
X12285126Y91755000D02*
X13265126Y91755000D01*
X12337290Y84366098D02*
X13317290Y84366098D01*
X15738963Y35893539D02*
X15738963Y36873539D01*
X15738963Y31693539D02*
X15738963Y32673539D01*
X15738963Y27493539D02*
X15738963Y28473539D01*
X15739060Y76266065D02*
X15739060Y77246065D01*
X15739060Y72066065D02*
X15739060Y73046065D01*
X15739060Y67866065D02*
X15739060Y68846065D01*
X15739060Y63666065D02*
X15739060Y64646065D01*
X15739060Y59466065D02*
X15739060Y60446065D01*
X15739060Y55266065D02*
X15739060Y56246065D01*
X15739060Y51066065D02*
X15739060Y52046065D01*
X15739060Y46866065D02*
X15739060Y47846065D01*
X15748963Y40483539D02*
X15748963Y41293539D01*
X15748963Y23883539D02*
X15748963Y23073539D01*
X15749060Y80856065D02*
X15749060Y81666065D01*
X15749060Y43256065D02*
X15749060Y42446065D01*
X16485126Y91755000D02*
X17465126Y91755000D01*
X16537290Y84366098D02*
X17517290Y84366098D01*
X20685126Y91755000D02*
X21665126Y91755000D01*
X20737290Y84366098D02*
X21717290Y84366098D01*
X24885126Y91755000D02*
X25865126Y91755000D01*
X24937290Y84366098D02*
X25917290Y84366098D01*
X29085126Y91755000D02*
X30065126Y91755000D01*
X29137290Y84366098D02*
X30117290Y84366098D01*
X33285126Y91755000D02*
X34265126Y91755000D01*
X33337290Y84366098D02*
X34317290Y84366098D01*
X37485126Y91755000D02*
X38465126Y91755000D01*
X37537290Y84366098D02*
X38517290Y84366098D01*
X41685126Y91755000D02*
X42665126Y91755000D01*
X41737290Y84366098D02*
X42717290Y84366098D01*
X45885126Y91755000D02*
X46865126Y91755000D01*
X45937290Y84366098D02*
X46917290Y84366098D01*
X50475126Y91745000D02*
X51285126Y91745000D01*
X50527290Y84356098D02*
X51337290Y84356098D01*
X57775126Y91055000D02*
X58375126Y90755000D01*
X57775126Y90455000D02*
X57775126Y91055000D01*
X58375126Y91745000D02*
X57565126Y91745000D01*
X58375126Y90755000D02*
X57775126Y90455000D01*
X58413637Y84378254D02*
X57603637Y84378254D01*
X61245126Y8860000D02*
X61245126Y6200000D01*
X61245126Y3860000D02*
X61245126Y1200000D01*
X61539588Y6200000D02*
X61245126Y6200000D01*
X61539588Y1200000D02*
X61245126Y1200000D01*
X61550753Y8860000D02*
X61245126Y8860000D01*
X61550753Y3860000D02*
X61245126Y3860000D01*
X61985126Y91755000D02*
X62965126Y91755000D01*
X62023637Y84388254D02*
X63003637Y84388254D01*
X63599499Y6200000D02*
X63905126Y6200000D01*
X63599499Y1200000D02*
X63905126Y1200000D01*
X63610664Y8860000D02*
X63905126Y8860000D01*
X63610664Y3860000D02*
X63905126Y3860000D01*
X63905126Y6200000D02*
X63905126Y8860000D01*
X63905126Y1200000D02*
X63905126Y3860000D01*
X66185126Y91755000D02*
X67165126Y91755000D01*
X66223637Y84388254D02*
X67203637Y84388254D01*
X70385126Y91755000D02*
X71365126Y91755000D01*
X70423637Y84388254D02*
X71403637Y84388254D01*
X74585126Y91755000D02*
X75565126Y91755000D01*
X74623637Y84388254D02*
X75603637Y84388254D01*
X78785126Y91755000D02*
X79765126Y91755000D01*
X78823637Y84388254D02*
X79803637Y84388254D01*
X79865126Y15590000D02*
X79865126Y470000D01*
X79865126Y15590000D02*
X79865126Y470000D01*
X79865126Y470000D02*
X84985126Y470000D01*
X79865126Y470000D02*
X84985126Y470000D01*
X81945126Y25360000D02*
X81945126Y22700000D01*
X81945126Y20660000D02*
X81945126Y18000000D01*
X82239588Y22700000D02*
X81945126Y22700000D01*
X82239588Y18000000D02*
X81945126Y18000000D01*
X82250753Y25360000D02*
X81945126Y25360000D01*
X82250753Y20660000D02*
X81945126Y20660000D01*
X82875126Y170000D02*
X85285126Y170000D01*
X82875126Y170000D02*
X85285126Y170000D01*
X82985126Y91755000D02*
X83965126Y91755000D01*
X83023637Y84388254D02*
X84003637Y84388254D01*
X83985126Y15590000D02*
X79865126Y15590000D01*
X83985126Y15590000D02*
X79865126Y15590000D01*
X84299499Y22700000D02*
X84605126Y22700000D01*
X84299499Y18000000D02*
X84605126Y18000000D01*
X84310664Y25360000D02*
X84605126Y25360000D01*
X84310664Y20660000D02*
X84605126Y20660000D01*
X84520065Y81198005D02*
X84520065Y82008005D01*
X84530065Y77588005D02*
X84530065Y76608005D01*
X84530065Y73388005D02*
X84530065Y72408005D01*
X84553870Y68030193D02*
X84553870Y69010193D01*
X84605126Y22700000D02*
X84605126Y25360000D01*
X84605126Y18000000D02*
X84605126Y20660000D01*
X84985126Y14590000D02*
X83985126Y15590000D01*
X84985126Y14590000D02*
X83985126Y15590000D01*
X84985126Y470000D02*
X84985126Y14590000D01*
X84985126Y470000D02*
X84985126Y14590000D01*
X85285126Y170000D02*
X85285126Y2580000D01*
X85285126Y170000D02*
X85285126Y2580000D01*
X87185126Y91755000D02*
X88165126Y91755000D01*
X87223637Y84388254D02*
X88203637Y84388254D01*
X90533943Y81829710D02*
X91133943Y81829710D01*
X90833943Y81229710D02*
X90533943Y81829710D01*
X91133943Y81829710D02*
X90833943Y81229710D01*
X91423637Y84388254D02*
X92403637Y84388254D01*
X91775126Y91745000D02*
X92585126Y91745000D01*
X91823943Y81229710D02*
X91823943Y82039710D01*
X91833943Y77619710D02*
X91833943Y76639710D01*
X91833943Y73419710D02*
X91833943Y72439710D01*
X91857748Y68061898D02*
X91857748Y69041898D01*
G04 #@! TD*
M02*
