M48
; DRILL file {KiCad 8.0.9-8.0.9-0~ubuntu24.04.1} date 2026-01-23T01:34:05+0000
; FORMAT={2:4/ absolute / inch / suppress leading zeros}
; #@! TF.CreationDate,2026-01-23T01:34:05+00:00
; #@! TF.GenerationSoftware,Kicad,Pcbnew,8.0.9-8.0.9-0~ubuntu24.04.1
; #@! TF.FileFunction,MixedPlating,1,2
FMAT,2
INCH,TZ
; #@! TA.AperFunction,Plated,PTH,ComponentDrill
T1C0.0335
; #@! TA.AperFunction,Plated,PTH,ComponentDrill
T2C0.0394
; #@! TA.AperFunction,Plated,PTH,ComponentDrill
T3C0.0472
%
G90
G05
T1
X32707Y5130
X32707Y4146
X32707Y3161
X32707Y2177
X32707Y1193
T2
X1211Y4539
X2211Y4539
X3211Y4539
X4272Y30717
X4272Y29717
X4272Y27409
X4272Y26409
X4272Y24102
X4272Y23102
X4272Y20795
X4272Y19795
X4272Y14811
X4272Y13811
X4537Y35140
X4537Y34140
X5272Y30717
X5272Y29717
X5272Y27409
X5272Y26409
X5272Y24102
X5272Y23102
X5272Y20795
X5272Y19795
X5272Y14811
X5272Y13811
X5537Y35140
X5537Y34140
X7845Y35140
X7845Y34140
X8845Y35140
X8845Y34140
X9085Y4343
X11152Y35140
X11152Y34140
X12152Y35140
X12152Y34140
X14459Y35140
X14459Y34140
X15459Y35140
X15459Y34140
X24104Y35140
X24104Y34140
X24636Y2965
X24636Y996
X25104Y35140
X25104Y34140
X27411Y35140
X27411Y34140
X28411Y35140
X28411Y34140
X30719Y35140
X30719Y34140
X31719Y35140
X31719Y34140
X32785Y9461
X32785Y7610
X34026Y35140
X34026Y34140
X34173Y30874
X34173Y29874
X35026Y35140
X35026Y34140
X35173Y30874
X35173Y29874
T3
X3681Y31035
X3681Y29382
X3681Y27728
X3681Y26075
X3681Y24421
X3681Y22768
X3681Y21114
X3681Y19461
X3681Y17807
X3681Y15130
X3681Y13476
X3681Y11823
X3681Y10169
X4203Y35730
X4203Y33565
X5847Y31035
X5847Y29382
X5847Y27728
X5847Y26075
X5847Y24421
X5847Y22768
X5847Y21114
X5847Y19461
X5847Y17807
X5847Y15130
X5847Y13476
X5847Y11823
X5847Y10169
X5856Y35730
X5856Y33565
X7510Y35730
X7510Y33565
X9163Y35730
X9163Y33565
X10817Y35730
X10817Y33565
X12471Y35730
X12471Y33565
X14124Y35730
X14124Y33565
X15778Y35730
X15778Y33565
X17431Y35730
X17431Y33565
X19085Y35730
X19085Y33565
X23770Y35730
X23770Y33565
X25423Y35730
X25423Y33565
X27077Y35730
X27077Y33565
X28730Y35730
X28730Y33565
X30384Y35730
X30384Y33565
X32037Y35730
X32037Y33565
X33583Y31193
X33583Y29539
X33583Y27886
X33691Y35730
X33691Y33565
X35345Y35730
X35345Y33565
X35748Y31193
X35748Y29539
X35748Y27886
M30
