G04 #@! TF.GenerationSoftware,KiCad,Pcbnew,8.0.9-8.0.9-0~ubuntu24.04.1*
G04 #@! TF.CreationDate,2026-01-23T01:34:04+00:00*
G04 #@! TF.ProjectId,greenenergyecu,67726565-6e65-46e6-9572-67796563752e,rev?*
G04 #@! TF.SameCoordinates,Original*
G04 #@! TF.FileFunction,Profile,NP*
%FSLAX46Y46*%
G04 Gerber Fmt 4.6, Leading zero omitted, Abs format (unit mm)*
G04 Created by KiCad (PCBNEW 8.0.9-8.0.9-0~ubuntu24.04.1) date 2026-01-23 01:34:04*
%MOMM*%
%LPD*%
G01*
G04 APERTURE LIST*
G04 #@! TA.AperFunction,Profile*
%ADD10C,0.050000*%
G04 #@! TD*
G04 #@! TA.AperFunction,Profile*
%ADD11C,0.100000*%
G04 #@! TD*
G04 APERTURE END LIST*
D10*
X0Y148530000D02*
X180670000Y148530000D01*
X180670000Y0D01*
X0Y0D01*
X0Y148530000D01*
D11*
G04 #@! TO.C,M5*
X18062559Y31767182D02*
X18050000Y15030000D01*
X18062559Y31767182D02*
X18062562Y74817438D01*
X20050000Y13030000D02*
X23050000Y13030000D01*
X25050000Y11030000D02*
X25050000Y3317437D01*
X57950000Y1330000D02*
X27050000Y1317437D01*
X59950000Y3330000D02*
X59949911Y8030080D01*
X61949911Y10030080D02*
X76110074Y10029926D01*
X75112815Y81817437D02*
X25062563Y81817437D01*
X78112811Y27767180D02*
X78110074Y12029926D01*
X80112811Y29767180D02*
X95562563Y29767180D01*
X82112814Y74817436D02*
X82112814Y67117437D01*
X95562563Y65117437D02*
X84112814Y65117437D01*
X97562563Y31767180D02*
X97562563Y63117437D01*
X18062562Y74817438D02*
G75*
G02*
X25062563Y81817438I6999998J2D01*
G01*
X20050000Y13030000D02*
G75*
G02*
X18050000Y15030000I0J2000000D01*
G01*
X23050000Y13030000D02*
G75*
G02*
X25050000Y11030000I0J-2000000D01*
G01*
X27050000Y1317437D02*
G75*
G02*
X25049937Y3317437I0J2000063D01*
G01*
X59949911Y8030080D02*
G75*
G02*
X61949911Y10030089I2000089J-80D01*
G01*
X59950000Y3330000D02*
G75*
G02*
X57950000Y1330000I-2000100J100D01*
G01*
X75112815Y81817437D02*
G75*
G02*
X82112807Y74817436I145J-6999847D01*
G01*
X78110074Y12029926D02*
G75*
G02*
X76110074Y10029926I-2000074J74D01*
G01*
X78112811Y27767180D02*
G75*
G02*
X80112811Y29767189I2000089J-80D01*
G01*
X84112814Y65117437D02*
G75*
G02*
X82112837Y67117437I-14J1999963D01*
G01*
X95562563Y65117437D02*
G75*
G02*
X97562537Y63117437I-63J-2000037D01*
G01*
X97562563Y31767180D02*
G75*
G02*
X95562563Y29767137I-1999963J-80D01*
G01*
G04 #@! TD*
M02*
