G04 #@! TF.GenerationSoftware,KiCad,Pcbnew,8.0.9-8.0.9-0~ubuntu24.04.1*
G04 #@! TF.CreationDate,2025-11-26T22:56:42+00:00*
G04 #@! TF.ProjectId,greenenergyecu,67726565-6e65-46e6-9572-67796563752e,rev?*
G04 #@! TF.SameCoordinates,Original*
G04 #@! TF.FileFunction,Legend,Top*
G04 #@! TF.FilePolarity,Positive*
%FSLAX46Y46*%
G04 Gerber Fmt 4.6, Leading zero omitted, Abs format (unit mm)*
G04 Created by KiCad (PCBNEW 8.0.9-8.0.9-0~ubuntu24.04.1) date 2025-11-26 22:56:42*
%MOMM*%
%LPD*%
G01*
G04 APERTURE LIST*
%ADD10C,0.150000*%
%ADD11C,0.120000*%
G04 APERTURE END LIST*
D10*
X6763095Y-1649819D02*
X6763095Y-2459342D01*
X6763095Y-2459342D02*
X6810714Y-2554580D01*
X6810714Y-2554580D02*
X6858333Y-2602200D01*
X6858333Y-2602200D02*
X6953571Y-2649819D01*
X6953571Y-2649819D02*
X7144047Y-2649819D01*
X7144047Y-2649819D02*
X7239285Y-2602200D01*
X7239285Y-2602200D02*
X7286904Y-2554580D01*
X7286904Y-2554580D02*
X7334523Y-2459342D01*
X7334523Y-2459342D02*
X7334523Y-1649819D01*
X7763095Y-1745057D02*
X7810714Y-1697438D01*
X7810714Y-1697438D02*
X7905952Y-1649819D01*
X7905952Y-1649819D02*
X8144047Y-1649819D01*
X8144047Y-1649819D02*
X8239285Y-1697438D01*
X8239285Y-1697438D02*
X8286904Y-1745057D01*
X8286904Y-1745057D02*
X8334523Y-1840295D01*
X8334523Y-1840295D02*
X8334523Y-1935533D01*
X8334523Y-1935533D02*
X8286904Y-2078390D01*
X8286904Y-2078390D02*
X7715476Y-2649819D01*
X7715476Y-2649819D02*
X8334523Y-2649819D01*
X17263095Y-4189819D02*
X17263095Y-4999342D01*
X17263095Y-4999342D02*
X17310714Y-5094580D01*
X17310714Y-5094580D02*
X17358333Y-5142200D01*
X17358333Y-5142200D02*
X17453571Y-5189819D01*
X17453571Y-5189819D02*
X17644047Y-5189819D01*
X17644047Y-5189819D02*
X17739285Y-5142200D01*
X17739285Y-5142200D02*
X17786904Y-5094580D01*
X17786904Y-5094580D02*
X17834523Y-4999342D01*
X17834523Y-4999342D02*
X17834523Y-4189819D01*
X18834523Y-5189819D02*
X18263095Y-5189819D01*
X18548809Y-5189819D02*
X18548809Y-4189819D01*
X18548809Y-4189819D02*
X18453571Y-4332676D01*
X18453571Y-4332676D02*
X18358333Y-4427914D01*
X18358333Y-4427914D02*
X18263095Y-4475533D01*
D11*
G04 #@! TO.C,U2*
X7525000Y-3035000D02*
X5575000Y-3035000D01*
X7525000Y-3035000D02*
X9475000Y-3035000D01*
X7525000Y-8155000D02*
X5575000Y-8155000D01*
X7525000Y-8155000D02*
X9475000Y-8155000D01*
X4825000Y-3130000D02*
X4585000Y-2800000D01*
X5065000Y-2800000D01*
X4825000Y-3130000D01*
G36*
X4825000Y-3130000D02*
G01*
X4585000Y-2800000D01*
X5065000Y-2800000D01*
X4825000Y-3130000D01*
G37*
G04 #@! TO.C,U1*
X18025000Y-5575000D02*
X16075000Y-5575000D01*
X18025000Y-5575000D02*
X19975000Y-5575000D01*
X18025000Y-10695000D02*
X16075000Y-10695000D01*
X18025000Y-10695000D02*
X19975000Y-10695000D01*
X15325000Y-5670000D02*
X15085000Y-5340000D01*
X15565000Y-5340000D01*
X15325000Y-5670000D01*
G36*
X15325000Y-5670000D02*
G01*
X15085000Y-5340000D01*
X15565000Y-5340000D01*
X15325000Y-5670000D01*
G37*
G04 #@! TD*
M02*
