G75*
G70*
%OFA0B0*%
%FSLAX25Y25*%
%IPPOS*%
%LPD*%
%AMOC8*
5,1,8,0,0,1.08239X$1,22.5*
%
%ADD10C,0.02362*%
%ADD11O,0.00787X0.04823*%
%ADD12O,0.36614X0.00787*%
%ADD13R,0.00984X0.24350*%
%ADD14R,0.00984X0.04390*%
%ADD15R,0.56201X0.00984*%
%ADD16R,0.59449X0.00984*%
%ADD17R,0.00984X0.20374*%
%ADD23C,0.00984*%
%ADD28C,0.01575*%
X0029626Y0008760D02*
%LPD*%
G01*
D10*
X0087894Y0035925D03*
X0087894Y0031201D03*
X0087894Y0040650D03*
X0087894Y0045374D03*
D13*
X0030217Y0034872D03*
D14*
X0030217Y0011053D03*
D15*
X0057825Y0046555D03*
D16*
X0059449Y0009351D03*
D17*
X0088681Y0019045D03*
D10*
X0031102Y0019941D03*
X0031102Y0016004D03*
D10*
X0041283Y0027697D03*
X0047510Y0045667D03*
X0088051Y0010138D03*
X0031280Y0043917D03*
X0031496Y0035630D03*
X0064862Y0010335D03*
X0056515Y0034615D03*
X0038810Y0017961D03*
X0051151Y0030842D03*
X0046949Y0010335D03*
X0038719Y0010390D03*
X0068701Y0030315D03*
X0070871Y0022419D03*
X0031004Y0027461D03*
X0058366Y0029823D03*
X0087894Y0019095D03*
X0065551Y0026083D03*
X0077347Y0045458D03*
X0087795Y0014961D03*
X0044195Y0024818D03*
X0043899Y0011672D03*
X0061775Y0025612D03*
X0048391Y0017740D03*
X0039064Y0025751D03*
X0039547Y0044036D03*
X0085373Y0016645D03*
X0049926Y0040950D03*
X0048273Y0030199D03*
X0059161Y0015529D03*
X0080611Y0016734D03*
X0075392Y0043169D03*
X0043026Y0043756D03*
X0072441Y0043764D03*
X0071749Y0030019D03*
X0071084Y0037054D03*
X0059565Y0019033D03*
X0039570Y0034725D03*
X0054094Y0030606D03*
X0057839Y0026564D03*
X0058465Y0022638D03*
X0069882Y0027461D03*
X0077230Y0030471D03*
X0071518Y0011931D03*
X0058661Y0011811D03*
D23*
X0043484Y0032067D02*
X0037106Y0032067D01*
X0045177Y0033760D02*
X0043484Y0032067D01*
X0037106Y0032067D02*
X0037106Y0027709D01*
X0037106Y0035532D02*
X0037106Y0032067D01*
X0043899Y0012758D02*
X0043899Y0011672D01*
X0049154Y0014862D02*
X0046004Y0014862D01*
X0046004Y0014862D02*
X0043899Y0012758D01*
X0050965Y0016673D02*
X0049154Y0014862D01*
X0041283Y0027697D02*
X0044548Y0027697D01*
X0044548Y0027697D02*
X0050965Y0021280D01*
X0050965Y0021280D02*
X0050965Y0016673D01*
X0054171Y0033760D02*
X0045177Y0033760D01*
X0059324Y0032067D02*
X0059304Y0032087D01*
X0067251Y0032067D02*
X0059324Y0032067D01*
X0079273Y0032735D02*
X0067919Y0032735D01*
X0085251Y0017048D02*
X0085251Y0026757D01*
X0037106Y0027709D02*
X0039064Y0025751D01*
X0085251Y0026757D02*
X0079273Y0032735D01*
X0042618Y0041043D02*
X0037106Y0035532D01*
X0039064Y0023239D02*
X0039064Y0025751D01*
X0044563Y0017740D02*
X0039064Y0023239D01*
X0059304Y0032087D02*
X0055845Y0032087D01*
X0048391Y0017740D02*
X0044563Y0017740D01*
X0067919Y0032735D02*
X0067251Y0032067D01*
X0055845Y0032087D02*
X0054171Y0033760D01*
X0045418Y0037839D02*
X0056157Y0037839D01*
X0042303Y0034725D02*
X0045418Y0037839D01*
X0039570Y0034725D02*
X0042303Y0034725D01*
X0077720Y0015551D02*
X0079886Y0017717D01*
X0059843Y0015551D02*
X0077720Y0015551D01*
X0048273Y0027121D02*
X0059843Y0015551D01*
X0048273Y0030199D02*
X0048273Y0027121D01*
X0061775Y0025612D02*
X0061752Y0025635D01*
X0057382Y0040945D02*
X0058950Y0039377D01*
X0042638Y0040945D02*
X0057382Y0040945D01*
X0061752Y0025635D02*
X0061752Y0031988D01*
X0081897Y0039377D02*
X0087894Y0045374D01*
X0039547Y0044036D02*
X0042638Y0040945D01*
X0058950Y0039377D02*
X0081897Y0039377D01*
X0073463Y0041240D02*
X0075392Y0043169D01*
X0043026Y0043756D02*
X0043376Y0043406D01*
X0058366Y0043406D02*
X0060532Y0041240D01*
X0060532Y0041240D02*
X0073463Y0041240D01*
X0043376Y0043406D02*
X0058366Y0043406D01*
X0056157Y0037839D02*
X0057049Y0037839D01*
X0056157Y0037839D02*
X0056835Y0037839D01*
X0060460Y0034429D02*
X0081771Y0034429D01*
X0081771Y0034429D02*
X0087894Y0040551D01*
X0057049Y0037839D02*
X0060460Y0034429D01*
X0077230Y0030471D02*
X0074219Y0027461D01*
X0074219Y0027461D02*
X0069882Y0027461D01*
G36*
X0086377Y0046973D02*
G01*
X0086518Y0046778D01*
X0086518Y0046537D01*
X0086442Y0046402D01*
X0086389Y0046341D01*
X0086177Y0045878D01*
X0086177Y0045878D01*
X0086105Y0045374D01*
X0086105Y0045374D01*
X0086110Y0045341D01*
X0086069Y0045103D01*
X0086000Y0045010D01*
X0081563Y0040573D01*
X0081348Y0040464D01*
X0081287Y0040459D01*
X0075152Y0040459D01*
X0074923Y0040533D01*
X0074782Y0040728D01*
X0074782Y0040969D01*
X0074877Y0041124D01*
X0075037Y0041284D01*
X0075251Y0041393D01*
X0075312Y0041398D01*
X0075646Y0041398D01*
X0075646Y0041398D01*
X0076135Y0041542D01*
X0076563Y0041817D01*
X0076897Y0042202D01*
X0077108Y0042665D01*
X0077111Y0042684D01*
X0077181Y0043169D01*
X0077181Y0043169D01*
X0077108Y0043673D01*
X0077108Y0043673D01*
X0077108Y0043673D01*
X0076897Y0044136D01*
X0076563Y0044521D01*
X0076434Y0044604D01*
X0076135Y0044796D01*
X0075646Y0044939D01*
X0075646Y0044939D01*
X0075137Y0044939D01*
X0075137Y0044939D01*
X0074649Y0044796D01*
X0074445Y0044665D01*
X0074212Y0044604D01*
X0073988Y0044691D01*
X0073940Y0044737D01*
X0073612Y0045115D01*
X0073184Y0045391D01*
X0072696Y0045534D01*
X0072696Y0045534D01*
X0072186Y0045534D01*
X0072186Y0045534D01*
X0071698Y0045391D01*
X0071698Y0045391D01*
X0071270Y0045115D01*
X0071270Y0045115D01*
X0071270Y0045115D01*
X0070993Y0044796D01*
X0070936Y0044731D01*
X0070725Y0044267D01*
X0070725Y0044267D01*
X0070652Y0043764D01*
X0070652Y0043764D01*
X0070725Y0043260D01*
X0070725Y0043260D01*
X0070725Y0043260D01*
X0070725Y0043260D01*
X0070766Y0043169D01*
X0070901Y0042873D01*
X0070929Y0042634D01*
X0070810Y0042424D01*
X0070591Y0042324D01*
X0070547Y0042322D01*
X0061141Y0042322D01*
X0060912Y0042396D01*
X0060865Y0042436D01*
X0059233Y0044068D01*
X0059185Y0044127D01*
X0059146Y0044185D01*
X0058788Y0044424D01*
X0058788Y0044424D01*
X0058788Y0044424D01*
X0058677Y0044447D01*
X0058621Y0044458D01*
X0058366Y0044508D01*
X0058366Y0044508D01*
X0058297Y0044495D01*
X0058221Y0044487D01*
X0044889Y0044487D01*
X0044660Y0044562D01*
X0044547Y0044700D01*
X0044546Y0044699D01*
X0044541Y0044707D01*
X0044534Y0044715D01*
X0044531Y0044723D01*
X0044531Y0044723D01*
X0044197Y0045107D01*
X0043769Y0045383D01*
X0043742Y0045391D01*
X0043280Y0045526D01*
X0043280Y0045526D01*
X0042771Y0045526D01*
X0042771Y0045526D01*
X0042283Y0045383D01*
X0042283Y0045383D01*
X0041855Y0045107D01*
X0041695Y0044923D01*
X0041489Y0044799D01*
X0041249Y0044819D01*
X0041066Y0044977D01*
X0041057Y0044994D01*
X0041052Y0045003D01*
X0041052Y0045003D01*
X0041052Y0045003D01*
X0040719Y0045387D01*
X0040290Y0045663D01*
X0039802Y0045806D01*
X0039802Y0045806D01*
X0039293Y0045806D01*
X0039293Y0045806D01*
X0038804Y0045663D01*
X0038804Y0045663D01*
X0038376Y0045387D01*
X0038376Y0045387D01*
X0038376Y0045387D01*
X0038364Y0045374D01*
X0038043Y0045003D01*
X0037831Y0044540D01*
X0037831Y0044540D01*
X0037759Y0044036D01*
X0037759Y0044036D01*
X0037831Y0043532D01*
X0037831Y0043532D01*
X0037831Y0043532D01*
X0037831Y0043532D01*
X0038043Y0043069D01*
X0038376Y0042684D01*
X0038804Y0042409D01*
X0039293Y0042265D01*
X0039627Y0042265D01*
X0039856Y0042191D01*
X0039902Y0042151D01*
X0040774Y0041280D01*
X0040883Y0041065D01*
X0040845Y0040827D01*
X0040774Y0040728D01*
X0036444Y0036399D01*
X0036385Y0036350D01*
X0036327Y0036311D01*
X0036252Y0036199D01*
X0036177Y0036087D01*
X0036156Y0036056D01*
X0036088Y0035954D01*
X0036088Y0035954D01*
X0036004Y0035532D01*
X0036017Y0035463D01*
X0036025Y0035387D01*
X0036025Y0032212D01*
X0036017Y0032136D01*
X0036004Y0032067D01*
X0036017Y0031998D01*
X0036025Y0031922D01*
X0036025Y0027854D01*
X0036017Y0027778D01*
X0036004Y0027709D01*
X0036012Y0027669D01*
X0036025Y0027603D01*
X0036088Y0027287D01*
X0036290Y0026984D01*
X0036327Y0026929D01*
X0036385Y0026890D01*
X0036444Y0026842D01*
X0037170Y0026116D01*
X0037280Y0025901D01*
X0037281Y0025785D01*
X0037276Y0025751D01*
X0037276Y0025751D01*
X0037348Y0025247D01*
X0037348Y0025247D01*
X0037348Y0025247D01*
X0037348Y0025247D01*
X0037560Y0024784D01*
X0037888Y0024405D01*
X0037982Y0024183D01*
X0037983Y0024150D01*
X0037983Y0023384D01*
X0037975Y0023308D01*
X0037962Y0023239D01*
X0037983Y0023132D01*
X0038046Y0022817D01*
X0038205Y0022579D01*
X0038285Y0022459D01*
X0038343Y0022420D01*
X0038402Y0022372D01*
X0043696Y0017078D01*
X0043744Y0017019D01*
X0043783Y0016961D01*
X0044064Y0016773D01*
X0044141Y0016722D01*
X0044563Y0016638D01*
X0044621Y0016649D01*
X0044632Y0016651D01*
X0044708Y0016659D01*
X0045534Y0016659D01*
X0045763Y0016584D01*
X0045905Y0016389D01*
X0045905Y0016149D01*
X0045763Y0015954D01*
X0045610Y0015887D01*
X0045582Y0015881D01*
X0045224Y0015642D01*
X0045224Y0015642D01*
X0045185Y0015584D01*
X0045137Y0015525D01*
X0043237Y0013625D01*
X0043178Y0013576D01*
X0043120Y0013537D01*
X0043120Y0013537D01*
X0043012Y0013376D01*
X0042960Y0013299D01*
X0042880Y0013180D01*
X0042880Y0013180D01*
X0042859Y0013148D01*
X0042847Y0013156D01*
X0042745Y0013035D01*
X0042728Y0013024D01*
X0042394Y0012639D01*
X0042183Y0012176D01*
X0042183Y0012176D01*
X0042111Y0011672D01*
X0042111Y0011672D01*
X0042183Y0011168D01*
X0042183Y0011168D01*
X0042183Y0011168D01*
X0042183Y0011168D01*
X0042394Y0010705D01*
X0042728Y0010320D01*
X0043156Y0010045D01*
X0043645Y0009901D01*
X0043645Y0009901D01*
X0044154Y0009901D01*
X0044154Y0009901D01*
X0044642Y0010045D01*
X0045071Y0010320D01*
X0045404Y0010705D01*
X0045615Y0011168D01*
X0045615Y0011168D01*
X0045688Y0011672D01*
X0045688Y0011672D01*
X0045615Y0012176D01*
X0045615Y0012176D01*
X0045615Y0012176D01*
X0045487Y0012457D01*
X0045459Y0012697D01*
X0045566Y0012895D01*
X0046338Y0013667D01*
X0046552Y0013776D01*
X0046613Y0013781D01*
X0049009Y0013781D01*
X0049085Y0013773D01*
X0049098Y0013771D01*
X0049154Y0013760D01*
X0049576Y0013844D01*
X0049601Y0013860D01*
X0049933Y0014083D01*
X0049972Y0014141D01*
X0050021Y0014200D01*
X0051627Y0015806D01*
X0051686Y0015855D01*
X0051744Y0015894D01*
X0051983Y0016251D01*
X0052046Y0016567D01*
X0052067Y0016673D01*
X0052058Y0016722D01*
X0052054Y0016742D01*
X0052046Y0016818D01*
X0052046Y0020877D01*
X0052121Y0021106D01*
X0052315Y0021248D01*
X0052556Y0021248D01*
X0052711Y0021153D01*
X0057375Y0016490D01*
X0057484Y0016275D01*
X0057454Y0016052D01*
X0057445Y0016033D01*
X0057445Y0016033D01*
X0057373Y0015529D01*
X0057373Y0015529D01*
X0057445Y0015025D01*
X0057445Y0015025D01*
X0057445Y0015025D01*
X0057445Y0015025D01*
X0057657Y0014562D01*
X0057990Y0014177D01*
X0058039Y0014146D01*
X0058191Y0013959D01*
X0058205Y0013719D01*
X0058075Y0013516D01*
X0057938Y0013444D01*
X0057918Y0013438D01*
X0057918Y0013438D01*
X0057490Y0013163D01*
X0057490Y0013163D01*
X0057490Y0013163D01*
X0057354Y0013005D01*
X0057157Y0012778D01*
X0056945Y0012315D01*
X0056945Y0012315D01*
X0056873Y0011811D01*
X0056873Y0011811D01*
X0056945Y0011307D01*
X0056945Y0011307D01*
X0056945Y0011307D01*
X0056945Y0011307D01*
X0057157Y0010844D01*
X0057490Y0010459D01*
X0057918Y0010184D01*
X0058407Y0010041D01*
X0058407Y0010041D01*
X0058916Y0010041D01*
X0058916Y0010041D01*
X0059404Y0010184D01*
X0059833Y0010459D01*
X0060166Y0010844D01*
X0060378Y0011307D01*
X0060395Y0011428D01*
X0060450Y0011811D01*
X0060450Y0011811D01*
X0060433Y0011931D01*
X0069729Y0011931D01*
X0069802Y0011428D01*
X0069802Y0011428D01*
X0069802Y0011428D01*
X0069802Y0011428D01*
X0070013Y0010964D01*
X0070346Y0010580D01*
X0070775Y0010304D01*
X0071263Y0010161D01*
X0071263Y0010161D01*
X0071772Y0010161D01*
X0071772Y0010161D01*
X0072261Y0010304D01*
X0072689Y0010580D01*
X0073022Y0010964D01*
X0073234Y0011428D01*
X0073234Y0011428D01*
X0073306Y0011931D01*
X0073306Y0011931D01*
X0073234Y0012435D01*
X0073234Y0012435D01*
X0073234Y0012435D01*
X0073022Y0012898D01*
X0072689Y0013283D01*
X0072439Y0013444D01*
X0072261Y0013558D01*
X0071758Y0013706D01*
X0071559Y0013842D01*
X0071524Y0013940D01*
X0071397Y0013765D01*
X0071277Y0013706D01*
X0070775Y0013558D01*
X0070775Y0013558D01*
X0070346Y0013283D01*
X0070346Y0013283D01*
X0070346Y0013283D01*
X0070199Y0013113D01*
X0070013Y0012898D01*
X0069802Y0012435D01*
X0069802Y0012435D01*
X0069729Y0011931D01*
X0069729Y0011931D01*
X0060433Y0011931D01*
X0060378Y0012315D01*
X0060378Y0012315D01*
X0060378Y0012315D01*
X0060166Y0012778D01*
X0059833Y0013163D01*
X0059784Y0013194D01*
X0059631Y0013381D01*
X0059618Y0013621D01*
X0059748Y0013824D01*
X0059885Y0013896D01*
X0059904Y0013902D01*
X0060333Y0014177D01*
X0060470Y0014335D01*
X0060676Y0014460D01*
X0060764Y0014470D01*
X0071168Y0014470D01*
X0071397Y0014395D01*
X0071523Y0014222D01*
X0071546Y0014300D01*
X0071737Y0014447D01*
X0071868Y0014470D01*
X0077575Y0014470D01*
X0077651Y0014462D01*
X0077665Y0014460D01*
X0077720Y0014449D01*
X0078142Y0014533D01*
X0078500Y0014772D01*
X0078539Y0014830D01*
X0078588Y0014889D01*
X0078999Y0015301D01*
X0079214Y0015410D01*
X0079452Y0015372D01*
X0079485Y0015353D01*
X0079868Y0015107D01*
X0079868Y0015107D01*
X0080357Y0014963D01*
X0080357Y0014963D01*
X0080866Y0014963D01*
X0080866Y0014963D01*
X0081354Y0015107D01*
X0081783Y0015382D01*
X0082116Y0015767D01*
X0082327Y0016230D01*
X0082337Y0016298D01*
X0082400Y0016734D01*
X0082400Y0016734D01*
X0082327Y0017238D01*
X0082327Y0017238D01*
X0082327Y0017238D01*
X0082116Y0017701D01*
X0081783Y0018086D01*
X0081762Y0018099D01*
X0081354Y0018361D01*
X0080866Y0018504D01*
X0080866Y0018504D01*
X0080772Y0018504D01*
X0080555Y0018570D01*
X0080308Y0018735D01*
X0080308Y0018735D01*
X0080308Y0018735D01*
X0079886Y0018819D01*
X0079886Y0018819D01*
X0079464Y0018735D01*
X0079464Y0018735D01*
X0079196Y0018557D01*
X0077387Y0016747D01*
X0077172Y0016638D01*
X0077111Y0016633D01*
X0060725Y0016633D01*
X0060496Y0016707D01*
X0060431Y0016767D01*
X0060420Y0016780D01*
X0060333Y0016881D01*
X0060333Y0016881D01*
X0060326Y0016889D01*
X0060232Y0017111D01*
X0060287Y0017345D01*
X0060410Y0017472D01*
X0060736Y0017682D01*
X0061069Y0018066D01*
X0061281Y0018530D01*
X0061309Y0018721D01*
X0061353Y0019033D01*
X0061353Y0019033D01*
X0061281Y0019537D01*
X0061281Y0019537D01*
X0061281Y0019537D01*
X0061069Y0020000D01*
X0060736Y0020385D01*
X0060308Y0020660D01*
X0059963Y0020762D01*
X0059922Y0020774D01*
X0059723Y0020910D01*
X0059642Y0021137D01*
X0059710Y0021368D01*
X0059737Y0021403D01*
X0059969Y0021671D01*
X0060181Y0022134D01*
X0060228Y0022459D01*
X0060253Y0022638D01*
X0060253Y0022638D01*
X0060181Y0023142D01*
X0060181Y0023142D01*
X0060181Y0023142D01*
X0059969Y0023605D01*
X0059636Y0023990D01*
X0059208Y0024265D01*
X0059208Y0024265D01*
X0058879Y0024361D01*
X0058680Y0024497D01*
X0058599Y0024724D01*
X0058667Y0024955D01*
X0058778Y0025063D01*
X0059010Y0025212D01*
X0059338Y0025590D01*
X0059544Y0025715D01*
X0059784Y0025694D01*
X0059966Y0025536D01*
X0060018Y0025391D01*
X0060059Y0025108D01*
X0060059Y0025108D01*
X0060059Y0025108D01*
X0060059Y0025108D01*
X0060270Y0024645D01*
X0060604Y0024260D01*
X0061032Y0023985D01*
X0061520Y0023841D01*
X0061520Y0023841D01*
X0062030Y0023841D01*
X0062030Y0023841D01*
X0062518Y0023985D01*
X0062946Y0024260D01*
X0063280Y0024645D01*
X0063491Y0025108D01*
X0063511Y0025247D01*
X0063564Y0025612D01*
X0063564Y0025612D01*
X0063491Y0026116D01*
X0063491Y0026116D01*
X0063491Y0026116D01*
X0063280Y0026579D01*
X0063280Y0026579D01*
X0063280Y0026579D01*
X0062929Y0026984D01*
X0062835Y0027206D01*
X0062833Y0027239D01*
X0062833Y0030596D01*
X0062908Y0030825D01*
X0063103Y0030967D01*
X0063223Y0030986D01*
X0067106Y0030986D01*
X0067182Y0030978D01*
X0067196Y0030975D01*
X0067251Y0030964D01*
X0067673Y0031048D01*
X0067736Y0031090D01*
X0067753Y0031102D01*
X0067850Y0031166D01*
X0068031Y0031287D01*
X0068070Y0031346D01*
X0068119Y0031405D01*
X0068178Y0031465D01*
X0068253Y0031539D01*
X0068467Y0031649D01*
X0068528Y0031653D01*
X0069970Y0031653D01*
X0070199Y0031579D01*
X0070340Y0031384D01*
X0070340Y0031143D01*
X0070264Y0031008D01*
X0070246Y0030987D01*
X0070245Y0030986D01*
X0070033Y0030523D01*
X0070033Y0030523D01*
X0069961Y0030019D01*
X0069961Y0030019D01*
X0070010Y0029676D01*
X0069969Y0029439D01*
X0069796Y0029271D01*
X0069654Y0029238D01*
X0069655Y0029235D01*
X0069627Y0029231D01*
X0069139Y0029088D01*
X0069139Y0029088D01*
X0068711Y0028813D01*
X0068711Y0028813D01*
X0068711Y0028813D01*
X0068614Y0028701D01*
X0068377Y0028428D01*
X0068166Y0027965D01*
X0068166Y0027965D01*
X0068093Y0027461D01*
X0068093Y0027461D01*
X0068166Y0026957D01*
X0068166Y0026957D01*
X0068166Y0026957D01*
X0068166Y0026957D01*
X0068377Y0026494D01*
X0068711Y0026109D01*
X0069139Y0025834D01*
X0069627Y0025690D01*
X0069627Y0025690D01*
X0070136Y0025690D01*
X0070136Y0025690D01*
X0070625Y0025834D01*
X0071053Y0026109D01*
X0071171Y0026245D01*
X0071377Y0026369D01*
X0071465Y0026379D01*
X0074074Y0026379D01*
X0074150Y0026372D01*
X0074164Y0026369D01*
X0074219Y0026358D01*
X0074641Y0026442D01*
X0074643Y0026443D01*
X0074646Y0026445D01*
X0074787Y0026539D01*
X0074999Y0026681D01*
X0075038Y0026739D01*
X0075087Y0026799D01*
X0076874Y0028586D01*
X0077089Y0028696D01*
X0077150Y0028701D01*
X0077484Y0028701D01*
X0077484Y0028701D01*
X0077973Y0028844D01*
X0078401Y0029119D01*
X0078734Y0029504D01*
X0078946Y0029967D01*
X0078946Y0029967D01*
X0079018Y0030471D01*
X0079018Y0030499D01*
X0079024Y0030499D01*
X0079060Y0030705D01*
X0079233Y0030873D01*
X0079471Y0030907D01*
X0079680Y0030798D01*
X0084056Y0026423D01*
X0084165Y0026208D01*
X0084170Y0026147D01*
X0084170Y0018106D01*
X0084095Y0017877D01*
X0084075Y0017851D01*
X0083868Y0017612D01*
X0083656Y0017149D01*
X0083656Y0017149D01*
X0083584Y0016645D01*
X0083584Y0016645D01*
X0083656Y0016141D01*
X0083656Y0016141D01*
X0083656Y0016141D01*
X0083656Y0016141D01*
X0083868Y0015678D01*
X0084201Y0015293D01*
X0084629Y0015018D01*
X0085118Y0014875D01*
X0085118Y0014875D01*
X0085627Y0014875D01*
X0085627Y0014875D01*
X0086116Y0015018D01*
X0086544Y0015293D01*
X0086877Y0015678D01*
X0087089Y0016141D01*
X0087089Y0016141D01*
X0087161Y0016645D01*
X0087161Y0016645D01*
X0087089Y0017149D01*
X0087089Y0017149D01*
X0087089Y0017149D01*
X0086877Y0017612D01*
X0086544Y0017997D01*
X0086544Y0017997D01*
X0086512Y0018018D01*
X0086359Y0018204D01*
X0086333Y0018345D01*
X0086333Y0026612D01*
X0086340Y0026688D01*
X0086342Y0026699D01*
X0086354Y0026757D01*
X0086270Y0027179D01*
X0086252Y0027206D01*
X0086230Y0027239D01*
X0086040Y0027523D01*
X0086031Y0027536D01*
X0085973Y0027575D01*
X0085914Y0027624D01*
X0080856Y0032682D01*
X0080747Y0032896D01*
X0080784Y0033134D01*
X0080955Y0033305D01*
X0081131Y0033347D01*
X0081626Y0033347D01*
X0081702Y0033340D01*
X0081715Y0033337D01*
X0081771Y0033326D01*
X0082193Y0033410D01*
X0082551Y0033649D01*
X0082590Y0033707D01*
X0082638Y0033766D01*
X0085497Y0036625D01*
X0085711Y0036734D01*
X0085949Y0036696D01*
X0086119Y0036526D01*
X0086158Y0036294D01*
X0086105Y0035925D01*
X0086105Y0035925D01*
X0086177Y0035421D01*
X0086177Y0035421D01*
X0086177Y0035421D01*
X0086177Y0035421D01*
X0086389Y0034958D01*
X0086617Y0034695D01*
X0086711Y0034473D01*
X0086713Y0034439D01*
X0086713Y0032687D01*
X0086638Y0032458D01*
X0086617Y0032432D01*
X0086389Y0032168D01*
X0086177Y0031705D01*
X0086177Y0031705D01*
X0086105Y0031201D01*
X0086105Y0031201D01*
X0086177Y0030697D01*
X0086177Y0030697D01*
X0086177Y0030697D01*
X0086177Y0030697D01*
X0086389Y0030234D01*
X0086722Y0029849D01*
X0087151Y0029574D01*
X0087639Y0029430D01*
X0087639Y0029430D01*
X0088148Y0029430D01*
X0088148Y0029430D01*
X0088637Y0029574D01*
X0088637Y0029574D01*
X0088664Y0029582D01*
X0088666Y0029572D01*
X0088861Y0029594D01*
X0089071Y0029476D01*
X0089171Y0029257D01*
X0089173Y0029212D01*
X0089173Y0009250D01*
X0089099Y0009021D01*
X0088904Y0008879D01*
X0088783Y0008860D01*
X0030116Y0008860D01*
X0029887Y0008935D01*
X0029745Y0009130D01*
X0029726Y0009250D01*
X0029726Y0013005D01*
X0029801Y0013234D01*
X0029996Y0013376D01*
X0030209Y0013384D01*
X0030768Y0013246D01*
X0030768Y0013246D01*
X0031437Y0013246D01*
X0031437Y0013246D01*
X0032088Y0013406D01*
X0032681Y0013718D01*
X0033182Y0014162D01*
X0033562Y0014713D01*
X0033800Y0015339D01*
X0033881Y0016004D01*
X0033880Y0016006D01*
X0033853Y0016230D01*
X0033800Y0016669D01*
X0033562Y0017295D01*
X0033248Y0017751D01*
X0033179Y0017982D01*
X0033248Y0018194D01*
X0033562Y0018650D01*
X0033800Y0019276D01*
X0033881Y0019941D01*
X0033800Y0020606D01*
X0033562Y0021232D01*
X0033182Y0021783D01*
X0032681Y0022227D01*
X0032088Y0022539D01*
X0032088Y0022539D01*
X0032088Y0022539D01*
X0031437Y0022699D01*
X0031437Y0022699D01*
X0030768Y0022699D01*
X0030768Y0022699D01*
X0030209Y0022561D01*
X0029969Y0022579D01*
X0029785Y0022734D01*
X0029726Y0022940D01*
X0029726Y0046658D01*
X0029801Y0046887D01*
X0029996Y0047028D01*
X0030116Y0047047D01*
X0086147Y0047047D01*
X0086377Y0046973D01*
G37*
G36*
X0052947Y0032604D02*
G01*
X0053088Y0032409D01*
X0053088Y0032168D01*
X0052947Y0031973D01*
X0052928Y0031961D01*
X0052923Y0031958D01*
X0052923Y0031958D01*
X0052923Y0031958D01*
X0052660Y0031653D01*
X0052590Y0031573D01*
X0052378Y0031110D01*
X0052378Y0031110D01*
X0052306Y0030606D01*
X0052306Y0030606D01*
X0052378Y0030102D01*
X0052378Y0030102D01*
X0052378Y0030102D01*
X0052378Y0030102D01*
X0052590Y0029639D01*
X0052923Y0029254D01*
X0053351Y0028979D01*
X0053840Y0028835D01*
X0053840Y0028835D01*
X0054349Y0028835D01*
X0054349Y0028835D01*
X0054838Y0028979D01*
X0055266Y0029254D01*
X0055599Y0029639D01*
X0055811Y0030102D01*
X0055811Y0030106D01*
X0055883Y0030606D01*
X0055883Y0030616D01*
X0055886Y0030623D01*
X0055887Y0030633D01*
X0055889Y0030633D01*
X0055958Y0030845D01*
X0056152Y0030986D01*
X0056273Y0031005D01*
X0059080Y0031005D01*
X0059156Y0030998D01*
X0059324Y0030964D01*
X0059381Y0030976D01*
X0059392Y0030978D01*
X0059468Y0030986D01*
X0060281Y0030986D01*
X0060510Y0030911D01*
X0060651Y0030716D01*
X0060670Y0030596D01*
X0060670Y0027186D01*
X0060596Y0026957D01*
X0060575Y0026931D01*
X0060276Y0026586D01*
X0060070Y0026461D01*
X0059830Y0026482D01*
X0059648Y0026640D01*
X0059596Y0026786D01*
X0059555Y0027068D01*
X0059555Y0027068D01*
X0059555Y0027068D01*
X0059344Y0027531D01*
X0059010Y0027916D01*
X0058935Y0027965D01*
X0058582Y0028191D01*
X0058094Y0028335D01*
X0058094Y0028335D01*
X0057584Y0028335D01*
X0057584Y0028335D01*
X0057096Y0028191D01*
X0057096Y0028191D01*
X0056668Y0027916D01*
X0056668Y0027916D01*
X0056668Y0027916D01*
X0056488Y0027709D01*
X0056334Y0027531D01*
X0056123Y0027068D01*
X0056123Y0027068D01*
X0056050Y0026564D01*
X0056050Y0026564D01*
X0056123Y0026060D01*
X0056123Y0026060D01*
X0056123Y0026060D01*
X0056123Y0026060D01*
X0056334Y0025597D01*
X0056668Y0025212D01*
X0057096Y0024937D01*
X0057424Y0024841D01*
X0057623Y0024705D01*
X0057704Y0024478D01*
X0057636Y0024247D01*
X0057525Y0024139D01*
X0057293Y0023990D01*
X0057293Y0023990D01*
X0057293Y0023990D01*
X0057165Y0023841D01*
X0056960Y0023605D01*
X0056748Y0023142D01*
X0056748Y0023142D01*
X0056676Y0022638D01*
X0056676Y0022638D01*
X0056748Y0022134D01*
X0056748Y0022134D01*
X0056748Y0022134D01*
X0056748Y0022134D01*
X0056960Y0021671D01*
X0057293Y0021286D01*
X0057722Y0021011D01*
X0058107Y0020898D01*
X0058306Y0020762D01*
X0058387Y0020535D01*
X0058319Y0020304D01*
X0058292Y0020268D01*
X0058060Y0020000D01*
X0057937Y0019730D01*
X0057774Y0019553D01*
X0057538Y0019505D01*
X0057319Y0019605D01*
X0057307Y0019617D01*
X0049469Y0027455D01*
X0049359Y0027669D01*
X0049355Y0027730D01*
X0049355Y0028598D01*
X0049429Y0028828D01*
X0049450Y0028854D01*
X0049778Y0029232D01*
X0049989Y0029695D01*
X0049989Y0029695D01*
X0050062Y0030199D01*
X0050062Y0030199D01*
X0049989Y0030703D01*
X0049989Y0030703D01*
X0049989Y0030703D01*
X0049778Y0031166D01*
X0049444Y0031551D01*
X0049016Y0031826D01*
X0048715Y0031915D01*
X0048516Y0032051D01*
X0048435Y0032278D01*
X0048503Y0032509D01*
X0048694Y0032656D01*
X0048825Y0032679D01*
X0052718Y0032679D01*
X0052947Y0032604D01*
G37*
G36*
X0056669Y0036683D02*
G01*
X0056715Y0036643D01*
X0059510Y0033849D01*
X0059619Y0033634D01*
X0059582Y0033396D01*
X0059411Y0033226D01*
X0059310Y0033191D01*
X0059235Y0033176D01*
X0059159Y0033168D01*
X0056454Y0033168D01*
X0056225Y0033243D01*
X0056178Y0033282D01*
X0055039Y0034422D01*
X0054990Y0034481D01*
X0054951Y0034540D01*
X0054951Y0034540D01*
X0054949Y0034541D01*
X0054593Y0034779D01*
X0054278Y0034841D01*
X0054240Y0034849D01*
X0054171Y0034863D01*
X0054171Y0034863D01*
X0054103Y0034849D01*
X0054026Y0034841D01*
X0045322Y0034841D01*
X0045246Y0034849D01*
X0045177Y0034863D01*
X0045071Y0034841D01*
X0044931Y0034814D01*
X0044692Y0034842D01*
X0044515Y0035006D01*
X0044468Y0035242D01*
X0044569Y0035461D01*
X0044580Y0035472D01*
X0045751Y0036643D01*
X0045966Y0036753D01*
X0046027Y0036758D01*
X0056051Y0036758D01*
X0056440Y0036758D01*
X0056669Y0036683D01*
G37*
X0041339Y0052520D02*
G01*
G75*
G36*
X0076559Y0064922D02*
X0075927Y0064796D01*
X0075211Y0064317D01*
X0075107Y0064161D01*
X0070609Y0064161D01*
X0070071Y0064054D01*
X0069615Y0063750D01*
X0069240Y0063375D01*
X0068595Y0063565D01*
X0068276Y0064043D01*
X0067690Y0064434D01*
X0066999Y0064572D01*
X0066308Y0064434D01*
X0065722Y0064043D01*
X0065330Y0063457D01*
X0065193Y0062766D01*
X0065330Y0062074D01*
X0065514Y0061799D01*
X0065198Y0061208D01*
X0063767Y0061208D01*
X0063484Y0061491D01*
X0063028Y0061796D01*
X0062491Y0061903D01*
X0058798Y0061903D01*
X0058403Y0062167D01*
X0057712Y0062304D01*
X0057021Y0062167D01*
X0056435Y0061775D01*
X0056043Y0061189D01*
X0055906Y0060498D01*
X0056043Y0059807D01*
X0056435Y0059221D01*
X0057021Y0058829D01*
X0057712Y0058692D01*
X0058403Y0058829D01*
X0058798Y0059093D01*
X0061909Y0059093D01*
X0062192Y0058810D01*
X0062648Y0058505D01*
X0063185Y0058398D01*
X0067656Y0058398D01*
X0068194Y0058505D01*
X0068649Y0058810D01*
X0071190Y0061351D01*
X0075107Y0061351D01*
X0075211Y0061195D01*
X0075927Y0060716D01*
X0076772Y0060548D01*
X0076772Y0057484D01*
X0075927Y0057316D01*
X0075211Y0056837D01*
X0074732Y0056121D01*
X0074564Y0055276D01*
X0074732Y0054431D01*
X0075211Y0053715D01*
X0075927Y0053236D01*
X0076559Y0053111D01*
X0076500Y0052520D01*
X0041339Y0052520D01*
X0041339Y0056742D01*
X0041832Y0057059D01*
X0042387Y0056825D01*
X0042290Y0056338D01*
X0042428Y0055647D01*
X0042819Y0055061D01*
X0043405Y0054669D01*
X0044096Y0054532D01*
X0044788Y0054669D01*
X0045374Y0055061D01*
X0045765Y0055647D01*
X0045903Y0056338D01*
X0045765Y0057029D01*
X0045374Y0057615D01*
X0044954Y0057896D01*
X0044752Y0058138D01*
X0044615Y0058644D01*
X0044728Y0059213D01*
X0044560Y0060058D01*
X0044215Y0060574D01*
X0044127Y0060985D01*
X0044215Y0061395D01*
X0044560Y0061911D01*
X0044728Y0062756D01*
X0044560Y0063601D01*
X0044081Y0064317D01*
X0043365Y0064796D01*
X0042733Y0064922D01*
X0042792Y0065512D01*
X0076501Y0065512D01*
X0076559Y0064922D01*
D02*
G37*
%LPC*%
G36*
X0052205Y0057181D02*
X0051514Y0057043D01*
X0050928Y0056652D01*
X0050536Y0056066D01*
X0050399Y0055374D01*
X0050536Y0054683D01*
X0050928Y0054097D01*
X0051514Y0053705D01*
X0052205Y0053568D01*
X0052896Y0053705D01*
X0053482Y0054097D01*
X0053874Y0054683D01*
X0054012Y0055374D01*
X0053874Y0056066D01*
X0053482Y0056652D01*
X0052896Y0057043D01*
X0052205Y0057181D01*
D02*
G37*
%LPD*%
D12*
X0059646Y0065118D02*
D03*
X0059646Y0052914D02*
D03*
D11*
X0041733Y0054981D02*
D03*
D28*
X0070609Y0062756D02*
X0076772Y0062756D01*
X0063185Y0059803D02*
X0067656Y0059803D01*
X0070609Y0062756D01*
X0057712Y0060498D02*
X0062491Y0060498D01*
X0063185Y0059803D01*
D10*
X0076772Y0062756D02*
D03*
X0076772Y0059016D02*
D03*
X0057712Y0060498D02*
D03*
X0042579Y0053805D02*
D03*
X0055281Y0058367D02*
D03*
X0052542Y0059423D02*
D03*
M02*
