G75*
G70*
%OFA0B0*%
%FSLAX25Y25*%
%IPPOS*%
%LPD*%
%AMOC8*
5,1,8,0,0,1.08239X$1,22.5*
%
%AMM1*
21,1,0.021650,0.052760,0.000000,0.000000,270.000000*
21,1,0.017320,0.057090,0.000000,0.000000,270.000000*
1,1,0.004330,-0.026380,-0.008660*
1,1,0.004330,-0.026380,0.008660*
1,1,0.004330,0.026380,0.008660*
1,1,0.004330,0.026380,-0.008660*
%
%AMM11*
21,1,0.027560,0.030710,0.000000,0.000000,180.000000*
21,1,0.022050,0.036220,0.000000,0.000000,180.000000*
1,1,0.005510,-0.011020,0.015350*
1,1,0.005510,0.011020,0.015350*
1,1,0.005510,0.011020,-0.015350*
1,1,0.005510,-0.011020,-0.015350*
%
%AMM12*
21,1,0.039370,0.049210,0.000000,0.000000,0.000000*
21,1,0.031500,0.057090,0.000000,0.000000,0.000000*
1,1,0.007870,0.015750,-0.024610*
1,1,0.007870,-0.015750,-0.024610*
1,1,0.007870,-0.015750,0.024610*
1,1,0.007870,0.015750,0.024610*
%
%AMM13*
21,1,0.039370,0.049210,0.000000,0.000000,90.000000*
21,1,0.031500,0.057090,0.000000,0.000000,90.000000*
1,1,0.007870,0.024610,0.015750*
1,1,0.007870,0.024610,-0.015750*
1,1,0.007870,-0.024610,-0.015750*
1,1,0.007870,-0.024610,0.015750*
%
%AMM14*
21,1,0.039370,0.035430,0.000000,0.000000,270.000000*
21,1,0.031500,0.043310,0.000000,0.000000,270.000000*
1,1,0.007870,-0.017720,-0.015750*
1,1,0.007870,-0.017720,0.015750*
1,1,0.007870,0.017720,0.015750*
1,1,0.007870,0.017720,-0.015750*
%
%AMM15*
21,1,0.033470,0.026770,0.000000,0.000000,0.000000*
21,1,0.026770,0.033470,0.000000,0.000000,0.000000*
1,1,0.006690,0.013390,-0.013390*
1,1,0.006690,-0.013390,-0.013390*
1,1,0.006690,-0.013390,0.013390*
1,1,0.006690,0.013390,0.013390*
%
%ADD10C,0.02362*%
%ADD11O,0.00787X0.04823*%
%ADD12O,0.36614X0.00787*%
%ADD13O,0.01969X0.00984*%
%ADD14O,0.00787X0.03937*%
%ADD15O,0.20472X0.00787*%
%ADD16O,0.69291X0.00787*%
%ADD17O,0.50394X0.00787*%
%ADD18O,0.00984X0.01969*%
%ADD19R,0.00984X0.24350*%
%ADD20R,0.00984X0.04390*%
%ADD21R,0.56201X0.00984*%
%ADD22R,0.59449X0.00984*%
%ADD23R,0.00984X0.20374*%
%ADD24C,0.00787*%
%ADD27R,0.02559X0.01575*%
%ADD28R,0.01575X0.02559*%
%ADD29C,0.00984*%
%ADD32M1*%
%ADD33C,0.01850*%
%ADD34C,0.01575*%
%ADD46O,0.01968X0.00984*%
%ADD47O,0.00984X0.01968*%
%ADD48O,0.07087X0.01378*%
%ADD49M11*%
%ADD50M12*%
%ADD51M13*%
%ADD52M14*%
%ADD53M15*%
%ADD54C,0.01181*%
X0000000Y0000000D02*
%LPD*%
G01*
D10*
X0121457Y0068504D03*
D11*
X0086417Y0060728D03*
D12*
X0104331Y0070866D03*
X0104331Y0058661D03*
D10*
X0121457Y0064764D03*
X0121457Y0061024D03*
X0087205Y0064961D03*
X0087205Y0068504D03*
D13*
X0124803Y0027657D03*
X0124803Y0020866D03*
X0124803Y0014075D03*
X0124803Y0007382D03*
D14*
X0049873Y0005173D03*
D15*
X0061042Y0033931D03*
D16*
X0084162Y0003333D03*
D17*
X0099409Y0033957D03*
D18*
X0072835Y0033465D03*
D13*
X0050174Y0009758D03*
X0050197Y0024016D03*
D10*
X0067470Y0066142D03*
X0067470Y0061417D03*
X0067470Y0070866D03*
X0067470Y0075591D03*
D19*
X0009793Y0065089D03*
D20*
X0009793Y0041270D03*
D21*
X0037402Y0076772D03*
D22*
X0039026Y0039567D03*
D23*
X0068258Y0049262D03*
D10*
X0010679Y0050157D03*
X0010679Y0046220D03*
D10*
X0003937Y0076772D03*
X0000000Y0080709D03*
X0005906Y0005906D03*
X0129921Y0005906D03*
X0129921Y0074803D03*
D24*
X0129134Y0020866D02*
X0124803Y0020866D01*
X0129921Y0054229D02*
X0129921Y0021654D01*
X0121457Y0061024D02*
X0123127Y0061024D01*
X0123127Y0061024D02*
X0129921Y0054229D01*
X0129921Y0021654D02*
X0129134Y0020866D01*
X0076772Y0064961D02*
X0087205Y0064961D01*
X0067470Y0070866D02*
X0070866Y0070866D01*
X0070866Y0070866D02*
X0076772Y0064961D01*
X0009203Y0038976D02*
%LPD*%
G01*
D10*
X0067471Y0066141D03*
X0067471Y0061417D03*
X0067471Y0070866D03*
X0067471Y0075590D03*
D19*
X0009794Y0065088D03*
D20*
X0009794Y0041269D03*
D21*
X0037402Y0076771D03*
D22*
X0039026Y0039567D03*
D23*
X0068258Y0049261D03*
D10*
X0010679Y0050157D03*
X0010679Y0046220D03*
G36*
G01*
X0026644Y0056594D02*
X0026644Y0058051D01*
G75*
G02*
X0027175Y0058582I0000531J0000000D01*
G01*
X0028238Y0058582D01*
G75*
G02*
X0028770Y0058051I0000000J-000531D01*
G01*
X0028770Y0056594D01*
G75*
G02*
X0028238Y0056063I-000531J0000000D01*
G01*
X0027175Y0056063D01*
G75*
G02*
X0026644Y0056594I0000000J0000531D01*
G01*
G37*
G36*
G01*
X0022628Y0056594D02*
X0022628Y0058051D01*
G75*
G02*
X0023160Y0058582I0000531J0000000D01*
G01*
X0024223Y0058582D01*
G75*
G02*
X0024754Y0058051I0000000J-000531D01*
G01*
X0024754Y0056594D01*
G75*
G02*
X0024223Y0056063I-000531J0000000D01*
G01*
X0023160Y0056063D01*
G75*
G02*
X0022628Y0056594I0000000J0000531D01*
G01*
G37*
G36*
G01*
X0049892Y0040905D02*
X0048435Y0040905D01*
G75*
G02*
X0047904Y0041437I0000000J0000531D01*
G01*
X0047904Y0042500D01*
G75*
G02*
X0048435Y0043031I0000531J0000000D01*
G01*
X0049892Y0043031D01*
G75*
G02*
X0050423Y0042500I0000000J-000531D01*
G01*
X0050423Y0041437D01*
G75*
G02*
X0049892Y0040905I-000531J0000000D01*
G01*
G37*
G36*
G01*
X0049892Y0044921D02*
X0048435Y0044921D01*
G75*
G02*
X0047904Y0045452I0000000J0000531D01*
G01*
X0047904Y0046515D01*
G75*
G02*
X0048435Y0047047I0000531J0000000D01*
G01*
X0049892Y0047047D01*
G75*
G02*
X0050423Y0046515I0000000J-000531D01*
G01*
X0050423Y0045452D01*
G75*
G02*
X0049892Y0044921I-000531J0000000D01*
G01*
G37*
G36*
G01*
X0038920Y0073248D02*
X0038920Y0074429D01*
G75*
G02*
X0039510Y0075019I0000591J0000000D01*
G01*
X0046006Y0075019D01*
G75*
G02*
X0046597Y0074429I0000000J-000591D01*
G01*
X0046597Y0073248D01*
G75*
G02*
X0046006Y0072657I-000591J0000000D01*
G01*
X0039510Y0072657D01*
G75*
G02*
X0038920Y0073248I0000000J0000591D01*
G01*
G37*
G36*
G01*
X0038920Y0068248D02*
X0038920Y0069429D01*
G75*
G02*
X0039510Y0070019I0000591J0000000D01*
G01*
X0046006Y0070019D01*
G75*
G02*
X0046597Y0069429I0000000J-000591D01*
G01*
X0046597Y0068248D01*
G75*
G02*
X0046006Y0067657I-000591J0000000D01*
G01*
X0039510Y0067657D01*
G75*
G02*
X0038920Y0068248I0000000J0000591D01*
G01*
G37*
G36*
G01*
X0038920Y0063248D02*
X0038920Y0064429D01*
G75*
G02*
X0039510Y0065019I0000591J0000000D01*
G01*
X0046006Y0065019D01*
G75*
G02*
X0046597Y0064429I0000000J-000591D01*
G01*
X0046597Y0063248D01*
G75*
G02*
X0046006Y0062657I-000591J0000000D01*
G01*
X0039510Y0062657D01*
G75*
G02*
X0038920Y0063248I0000000J0000591D01*
G01*
G37*
G36*
G01*
X0038920Y0058248D02*
X0038920Y0059429D01*
G75*
G02*
X0039510Y0060019I0000591J0000000D01*
G01*
X0046006Y0060019D01*
G75*
G02*
X0046597Y0059429I0000000J-000591D01*
G01*
X0046597Y0058248D01*
G75*
G02*
X0046006Y0057657I-000591J0000000D01*
G01*
X0039510Y0057657D01*
G75*
G02*
X0038920Y0058248I0000000J0000591D01*
G01*
G37*
G36*
G01*
X0058408Y0058248D02*
X0058408Y0059429D01*
G75*
G02*
X0058998Y0060019I0000591J0000000D01*
G01*
X0065494Y0060019D01*
G75*
G02*
X0066085Y0059429I0000000J-000591D01*
G01*
X0066085Y0058248D01*
G75*
G02*
X0065494Y0057657I-000591J0000000D01*
G01*
X0058998Y0057657D01*
G75*
G02*
X0058408Y0058248I0000000J0000591D01*
G01*
G37*
G36*
G01*
X0058408Y0063248D02*
X0058408Y0064429D01*
G75*
G02*
X0058998Y0065019I0000591J0000000D01*
G01*
X0065494Y0065019D01*
G75*
G02*
X0066085Y0064429I0000000J-000591D01*
G01*
X0066085Y0063248D01*
G75*
G02*
X0065494Y0062657I-000591J0000000D01*
G01*
X0058998Y0062657D01*
G75*
G02*
X0058408Y0063248I0000000J0000591D01*
G01*
G37*
G36*
G01*
X0058408Y0068248D02*
X0058408Y0069429D01*
G75*
G02*
X0058998Y0070019I0000591J0000000D01*
G01*
X0065494Y0070019D01*
G75*
G02*
X0066085Y0069429I0000000J-000591D01*
G01*
X0066085Y0068248D01*
G75*
G02*
X0065494Y0067657I-000591J0000000D01*
G01*
X0058998Y0067657D01*
G75*
G02*
X0058408Y0068248I0000000J0000591D01*
G01*
G37*
G36*
G01*
X0058408Y0073248D02*
X0058408Y0074429D01*
G75*
G02*
X0058998Y0075019I0000591J0000000D01*
G01*
X0065494Y0075019D01*
G75*
G02*
X0066085Y0074429I0000000J-000591D01*
G01*
X0066085Y0073248D01*
G75*
G02*
X0065494Y0072657I-000591J0000000D01*
G01*
X0058998Y0072657D01*
G75*
G02*
X0058408Y0073248I0000000J0000591D01*
G01*
G37*
D27*
X0024400Y0073976D03*
X0024400Y0071417D03*
X0024400Y0068858D03*
X0031880Y0068858D03*
X0031880Y0071417D03*
X0031880Y0073976D03*
G36*
G01*
X0040561Y0054888D02*
X0042018Y0054888D01*
G75*
G02*
X0042549Y0054356I0000000J-000531D01*
G01*
X0042549Y0053293D01*
G75*
G02*
X0042018Y0052762I-000531J0000000D01*
G01*
X0040561Y0052762D01*
G75*
G02*
X0040030Y0053293I0000000J0000531D01*
G01*
X0040030Y0054356D01*
G75*
G02*
X0040561Y0054888I0000531J0000000D01*
G01*
G37*
G36*
G01*
X0040561Y0050872D02*
X0042018Y0050872D01*
G75*
G02*
X0042549Y0050341I0000000J-000531D01*
G01*
X0042549Y0049278D01*
G75*
G02*
X0042018Y0048746I-000531J0000000D01*
G01*
X0040561Y0048746D01*
G75*
G02*
X0040030Y0049278I0000000J0000531D01*
G01*
X0040030Y0050341D01*
G75*
G02*
X0040561Y0050872I0000531J0000000D01*
G01*
G37*
G36*
G01*
X0045896Y0048825D02*
X0044557Y0048825D01*
G75*
G02*
X0044006Y0049376I0000000J0000551D01*
G01*
X0044006Y0050478D01*
G75*
G02*
X0044557Y0051030I0000551J0000000D01*
G01*
X0045896Y0051030D01*
G75*
G02*
X0046447Y0050478I0000000J-000551D01*
G01*
X0046447Y0049376D01*
G75*
G02*
X0045896Y0048825I-000551J0000000D01*
G01*
G37*
G36*
G01*
X0045896Y0052604D02*
X0044557Y0052604D01*
G75*
G02*
X0044006Y0053156I0000000J0000551D01*
G01*
X0044006Y0054258D01*
G75*
G02*
X0044557Y0054809I0000551J0000000D01*
G01*
X0045896Y0054809D01*
G75*
G02*
X0046447Y0054258I0000000J-000551D01*
G01*
X0046447Y0053156D01*
G75*
G02*
X0045896Y0052604I-000551J0000000D01*
G01*
G37*
G36*
G01*
X0042018Y0040905D02*
X0040561Y0040905D01*
G75*
G02*
X0040030Y0041437I0000000J0000531D01*
G01*
X0040030Y0042500D01*
G75*
G02*
X0040561Y0043031I0000531J0000000D01*
G01*
X0042018Y0043031D01*
G75*
G02*
X0042549Y0042500I0000000J-000531D01*
G01*
X0042549Y0041437D01*
G75*
G02*
X0042018Y0040905I-000531J0000000D01*
G01*
G37*
G36*
G01*
X0042018Y0044921D02*
X0040561Y0044921D01*
G75*
G02*
X0040030Y0045452I0000000J0000531D01*
G01*
X0040030Y0046515D01*
G75*
G02*
X0040561Y0047047I0000531J0000000D01*
G01*
X0042018Y0047047D01*
G75*
G02*
X0042549Y0046515I0000000J-000531D01*
G01*
X0042549Y0045452D01*
G75*
G02*
X0042018Y0044921I-000531J0000000D01*
G01*
G37*
G36*
G01*
X0053612Y0046968D02*
X0054951Y0046968D01*
G75*
G02*
X0055502Y0046417I0000000J-000551D01*
G01*
X0055502Y0045315D01*
G75*
G02*
X0054951Y0044763I-000551J0000000D01*
G01*
X0053612Y0044763D01*
G75*
G02*
X0053061Y0045315I0000000J0000551D01*
G01*
X0053061Y0046417D01*
G75*
G02*
X0053612Y0046968I0000551J0000000D01*
G01*
G37*
G36*
G01*
X0053612Y0043189D02*
X0054951Y0043189D01*
G75*
G02*
X0055502Y0042637I0000000J-000551D01*
G01*
X0055502Y0041535D01*
G75*
G02*
X0054951Y0040984I-000551J0000000D01*
G01*
X0053612Y0040984D01*
G75*
G02*
X0053061Y0041535I0000000J0000551D01*
G01*
X0053061Y0042637D01*
G75*
G02*
X0053612Y0043189I0000551J0000000D01*
G01*
G37*
G36*
G01*
X0030483Y0050826D02*
X0031821Y0050826D01*
G75*
G02*
X0032372Y0050275I0000000J-000551D01*
G01*
X0032372Y0049173D01*
G75*
G02*
X0031821Y0048622I-000551J0000000D01*
G01*
X0030483Y0048622D01*
G75*
G02*
X0029931Y0049173I0000000J0000551D01*
G01*
X0029931Y0050275D01*
G75*
G02*
X0030483Y0050826I0000551J0000000D01*
G01*
G37*
G36*
G01*
X0030483Y0047047D02*
X0031821Y0047047D01*
G75*
G02*
X0032372Y0046496I0000000J-000551D01*
G01*
X0032372Y0045393D01*
G75*
G02*
X0031821Y0044842I-000551J0000000D01*
G01*
X0030483Y0044842D01*
G75*
G02*
X0029931Y0045393I0000000J0000551D01*
G01*
X0029931Y0046496D01*
G75*
G02*
X0030483Y0047047I0000551J0000000D01*
G01*
G37*
G36*
G01*
X0036250Y0054074D02*
X0036250Y0052618D01*
G75*
G02*
X0035719Y0052086I-000531J0000000D01*
G01*
X0034656Y0052086D01*
G75*
G02*
X0034124Y0052618I0000000J0000531D01*
G01*
X0034124Y0054074D01*
G75*
G02*
X0034656Y0054606I0000531J0000000D01*
G01*
X0035719Y0054606D01*
G75*
G02*
X0036250Y0054074I0000000J-000531D01*
G01*
G37*
G36*
G01*
X0032234Y0054074D02*
X0032234Y0052618D01*
G75*
G02*
X0031703Y0052086I-000531J0000000D01*
G01*
X0030640Y0052086D01*
G75*
G02*
X0030109Y0052618I0000000J0000531D01*
G01*
X0030109Y0054074D01*
G75*
G02*
X0030640Y0054606I0000531J0000000D01*
G01*
X0031703Y0054606D01*
G75*
G02*
X0032234Y0054074I0000000J-000531D01*
G01*
G37*
G36*
G01*
X0067077Y0054803D02*
X0067077Y0053464D01*
G75*
G02*
X0066526Y0052913I-000551J0000000D01*
G01*
X0065423Y0052913D01*
G75*
G02*
X0064872Y0053464I0000000J0000551D01*
G01*
X0064872Y0054803D01*
G75*
G02*
X0065423Y0055354I0000551J0000000D01*
G01*
X0066526Y0055354D01*
G75*
G02*
X0067077Y0054803I0000000J-000551D01*
G01*
G37*
G36*
G01*
X0063297Y0054803D02*
X0063297Y0053464D01*
G75*
G02*
X0062746Y0052913I-000551J0000000D01*
G01*
X0061644Y0052913D01*
G75*
G02*
X0061093Y0053464I0000000J0000551D01*
G01*
X0061093Y0054803D01*
G75*
G02*
X0061644Y0055354I0000551J0000000D01*
G01*
X0062746Y0055354D01*
G75*
G02*
X0063297Y0054803I0000000J-000551D01*
G01*
G37*
G36*
G01*
X0018022Y0060566D02*
X0018022Y0062583D01*
G75*
G02*
X0018883Y0063445I0000861J0000000D01*
G01*
X0020606Y0063445D01*
G75*
G02*
X0021467Y0062583I0000000J-000861D01*
G01*
X0021467Y0060566D01*
G75*
G02*
X0020606Y0059704I-000861J0000000D01*
G01*
X0018883Y0059704D01*
G75*
G02*
X0018022Y0060566I0000000J0000861D01*
G01*
G37*
G36*
G01*
X0011821Y0060566D02*
X0011821Y0062583D01*
G75*
G02*
X0012682Y0063445I0000861J0000000D01*
G01*
X0014405Y0063445D01*
G75*
G02*
X0015266Y0062583I0000000J-000861D01*
G01*
X0015266Y0060566D01*
G75*
G02*
X0014405Y0059704I-000861J0000000D01*
G01*
X0012682Y0059704D01*
G75*
G02*
X0011821Y0060566I0000000J0000861D01*
G01*
G37*
G36*
G01*
X0036801Y0065787D02*
X0035463Y0065787D01*
G75*
G02*
X0034912Y0066338I0000000J0000551D01*
G01*
X0034912Y0067441D01*
G75*
G02*
X0035463Y0067992I0000551J0000000D01*
G01*
X0036801Y0067992D01*
G75*
G02*
X0037353Y0067441I0000000J-000551D01*
G01*
X0037353Y0066338D01*
G75*
G02*
X0036801Y0065787I-000551J0000000D01*
G01*
G37*
G36*
G01*
X0036801Y0069567D02*
X0035463Y0069567D01*
G75*
G02*
X0034912Y0070118I0000000J0000551D01*
G01*
X0034912Y0071220D01*
G75*
G02*
X0035463Y0071771I0000551J0000000D01*
G01*
X0036801Y0071771D01*
G75*
G02*
X0037353Y0071220I0000000J-000551D01*
G01*
X0037353Y0070118D01*
G75*
G02*
X0036801Y0069567I-000551J0000000D01*
G01*
G37*
G36*
G01*
X0019164Y0068641D02*
X0019164Y0067185D01*
G75*
G02*
X0018632Y0066653I-000531J0000000D01*
G01*
X0017569Y0066653D01*
G75*
G02*
X0017038Y0067185I0000000J0000531D01*
G01*
X0017038Y0068641D01*
G75*
G02*
X0017569Y0069173I0000531J0000000D01*
G01*
X0018632Y0069173D01*
G75*
G02*
X0019164Y0068641I0000000J-000531D01*
G01*
G37*
G36*
G01*
X0015148Y0068641D02*
X0015148Y0067185D01*
G75*
G02*
X0014616Y0066653I-000531J0000000D01*
G01*
X0013553Y0066653D01*
G75*
G02*
X0013022Y0067185I0000000J0000531D01*
G01*
X0013022Y0068641D01*
G75*
G02*
X0013553Y0069173I0000531J0000000D01*
G01*
X0014616Y0069173D01*
G75*
G02*
X0015148Y0068641I0000000J-000531D01*
G01*
G37*
G36*
G01*
X0030109Y0056555D02*
X0030109Y0058011D01*
G75*
G02*
X0030640Y0058543I0000531J0000000D01*
G01*
X0031703Y0058543D01*
G75*
G02*
X0032234Y0058011I0000000J-000531D01*
G01*
X0032234Y0056555D01*
G75*
G02*
X0031703Y0056023I-000531J0000000D01*
G01*
X0030640Y0056023D01*
G75*
G02*
X0030109Y0056555I0000000J0000531D01*
G01*
G37*
G36*
G01*
X0034124Y0056555D02*
X0034124Y0058011D01*
G75*
G02*
X0034656Y0058543I0000531J0000000D01*
G01*
X0035719Y0058543D01*
G75*
G02*
X0036250Y0058011I0000000J-000531D01*
G01*
X0036250Y0056555D01*
G75*
G02*
X0035719Y0056023I-000531J0000000D01*
G01*
X0034656Y0056023D01*
G75*
G02*
X0034124Y0056555I0000000J0000531D01*
G01*
G37*
G36*
G01*
X0035246Y0050764D02*
X0036703Y0050764D01*
G75*
G02*
X0037234Y0050233I0000000J-000531D01*
G01*
X0037234Y0049170D01*
G75*
G02*
X0036703Y0048638I-000531J0000000D01*
G01*
X0035246Y0048638D01*
G75*
G02*
X0034715Y0049170I0000000J0000531D01*
G01*
X0034715Y0050233D01*
G75*
G02*
X0035246Y0050764I0000531J0000000D01*
G01*
G37*
G36*
G01*
X0035246Y0046748D02*
X0036703Y0046748D01*
G75*
G02*
X0037234Y0046217I0000000J-000531D01*
G01*
X0037234Y0045154D01*
G75*
G02*
X0036703Y0044623I-000531J0000000D01*
G01*
X0035246Y0044623D01*
G75*
G02*
X0034715Y0045154I0000000J0000531D01*
G01*
X0034715Y0046217D01*
G75*
G02*
X0035246Y0046748I0000531J0000000D01*
G01*
G37*
G36*
G01*
X0017904Y0057362D02*
X0017904Y0056023D01*
G75*
G02*
X0017353Y0055472I-000551J0000000D01*
G01*
X0016250Y0055472D01*
G75*
G02*
X0015699Y0056023I0000000J0000551D01*
G01*
X0015699Y0057362D01*
G75*
G02*
X0016250Y0057913I0000551J0000000D01*
G01*
X0017353Y0057913D01*
G75*
G02*
X0017904Y0057362I0000000J-000551D01*
G01*
G37*
G36*
G01*
X0014124Y0057362D02*
X0014124Y0056023D01*
G75*
G02*
X0013573Y0055472I-000551J0000000D01*
G01*
X0012471Y0055472D01*
G75*
G02*
X0011920Y0056023I0000000J0000551D01*
G01*
X0011920Y0057362D01*
G75*
G02*
X0012471Y0057913I0000551J0000000D01*
G01*
X0013573Y0057913D01*
G75*
G02*
X0014124Y0057362I0000000J-000551D01*
G01*
G37*
G36*
G01*
X0054951Y0048825D02*
X0053612Y0048825D01*
G75*
G02*
X0053061Y0049376I0000000J0000551D01*
G01*
X0053061Y0050478D01*
G75*
G02*
X0053612Y0051030I0000551J0000000D01*
G01*
X0054951Y0051030D01*
G75*
G02*
X0055502Y0050478I0000000J-000551D01*
G01*
X0055502Y0049376D01*
G75*
G02*
X0054951Y0048825I-000551J0000000D01*
G01*
G37*
G36*
G01*
X0054951Y0052604D02*
X0053612Y0052604D01*
G75*
G02*
X0053061Y0053156I0000000J0000551D01*
G01*
X0053061Y0054258D01*
G75*
G02*
X0053612Y0054809I0000551J0000000D01*
G01*
X0054951Y0054809D01*
G75*
G02*
X0055502Y0054258I0000000J-000551D01*
G01*
X0055502Y0053156D01*
G75*
G02*
X0054951Y0052604I-000551J0000000D01*
G01*
G37*
G36*
G01*
X0029931Y0041299D02*
X0029931Y0042756D01*
G75*
G02*
X0030463Y0043287I0000531J0000000D01*
G01*
X0031526Y0043287D01*
G75*
G02*
X0032057Y0042756I0000000J-000531D01*
G01*
X0032057Y0041299D01*
G75*
G02*
X0031526Y0040767I-000531J0000000D01*
G01*
X0030463Y0040767D01*
G75*
G02*
X0029931Y0041299I0000000J0000531D01*
G01*
G37*
G36*
G01*
X0033947Y0041299D02*
X0033947Y0042756D01*
G75*
G02*
X0034479Y0043287I0000531J0000000D01*
G01*
X0035542Y0043287D01*
G75*
G02*
X0036073Y0042756I0000000J-000531D01*
G01*
X0036073Y0041299D01*
G75*
G02*
X0035542Y0040767I-000531J0000000D01*
G01*
X0034479Y0040767D01*
G75*
G02*
X0033947Y0041299I0000000J0000531D01*
G01*
G37*
D28*
X0059190Y0042519D03*
X0061749Y0042519D03*
X0064308Y0042519D03*
X0064308Y0050000D03*
X0061749Y0050000D03*
X0059190Y0050000D03*
G36*
G01*
X0013241Y0051305D02*
X0013241Y0052486D01*
G75*
G02*
X0013832Y0053077I0000591J0000000D01*
G01*
X0017867Y0053077D01*
G75*
G02*
X0018458Y0052486I0000000J-000591D01*
G01*
X0018458Y0051305D01*
G75*
G02*
X0017867Y0050715I-000591J0000000D01*
G01*
X0013832Y0050715D01*
G75*
G02*
X0013241Y0051305I0000000J0000591D01*
G01*
G37*
G36*
G01*
X0013241Y0047565D02*
X0013241Y0048746D01*
G75*
G02*
X0013832Y0049337I0000591J0000000D01*
G01*
X0017867Y0049337D01*
G75*
G02*
X0018458Y0048746I0000000J-000591D01*
G01*
X0018458Y0047565D01*
G75*
G02*
X0017867Y0046974I-000591J0000000D01*
G01*
X0013832Y0046974D01*
G75*
G02*
X0013241Y0047565I0000000J0000591D01*
G01*
G37*
G36*
G01*
X0013241Y0043825D02*
X0013241Y0045006D01*
G75*
G02*
X0013832Y0045596I0000591J0000000D01*
G01*
X0017867Y0045596D01*
G75*
G02*
X0018458Y0045006I0000000J-000591D01*
G01*
X0018458Y0043825D01*
G75*
G02*
X0017867Y0043234I-000591J0000000D01*
G01*
X0013832Y0043234D01*
G75*
G02*
X0013241Y0043825I0000000J0000591D01*
G01*
G37*
G36*
G01*
X0022198Y0043825D02*
X0022198Y0045006D01*
G75*
G02*
X0022788Y0045596I0000591J0000000D01*
G01*
X0026824Y0045596D01*
G75*
G02*
X0027414Y0045006I0000000J-000591D01*
G01*
X0027414Y0043825D01*
G75*
G02*
X0026824Y0043234I-000591J0000000D01*
G01*
X0022788Y0043234D01*
G75*
G02*
X0022198Y0043825I0000000J0000591D01*
G01*
G37*
G36*
G01*
X0022198Y0047565D02*
X0022198Y0048746D01*
G75*
G02*
X0022788Y0049337I0000591J0000000D01*
G01*
X0026824Y0049337D01*
G75*
G02*
X0027414Y0048746I0000000J-000591D01*
G01*
X0027414Y0047565D01*
G75*
G02*
X0026824Y0046974I-000591J0000000D01*
G01*
X0022788Y0046974D01*
G75*
G02*
X0022198Y0047565I0000000J0000591D01*
G01*
G37*
G36*
G01*
X0022198Y0051305D02*
X0022198Y0052486D01*
G75*
G02*
X0022788Y0053077I0000591J0000000D01*
G01*
X0026824Y0053077D01*
G75*
G02*
X0027414Y0052486I0000000J-000591D01*
G01*
X0027414Y0051305D01*
G75*
G02*
X0026824Y0050715I-000591J0000000D01*
G01*
X0022788Y0050715D01*
G75*
G02*
X0022198Y0051305I0000000J0000591D01*
G01*
G37*
G36*
G01*
X0024360Y0063189D02*
X0024360Y0064527D01*
G75*
G02*
X0024912Y0065078I0000551J0000000D01*
G01*
X0026014Y0065078D01*
G75*
G02*
X0026565Y0064527I0000000J-000551D01*
G01*
X0026565Y0063189D01*
G75*
G02*
X0026014Y0062637I-000551J0000000D01*
G01*
X0024912Y0062637D01*
G75*
G02*
X0024360Y0063189I0000000J0000551D01*
G01*
G37*
G36*
G01*
X0028140Y0063189D02*
X0028140Y0064527D01*
G75*
G02*
X0028691Y0065078I0000551J0000000D01*
G01*
X0029794Y0065078D01*
G75*
G02*
X0030345Y0064527I0000000J-000551D01*
G01*
X0030345Y0063189D01*
G75*
G02*
X0029794Y0062637I-000551J0000000D01*
G01*
X0028691Y0062637D01*
G75*
G02*
X0028140Y0063189I0000000J0000551D01*
G01*
G37*
G36*
G01*
X0045896Y0040984D02*
X0044557Y0040984D01*
G75*
G02*
X0044006Y0041535I0000000J0000551D01*
G01*
X0044006Y0042637D01*
G75*
G02*
X0044557Y0043189I0000551J0000000D01*
G01*
X0045896Y0043189D01*
G75*
G02*
X0046447Y0042637I0000000J-000551D01*
G01*
X0046447Y0041535D01*
G75*
G02*
X0045896Y0040984I-000551J0000000D01*
G01*
G37*
G36*
G01*
X0045896Y0044763D02*
X0044557Y0044763D01*
G75*
G02*
X0044006Y0045315I0000000J0000551D01*
G01*
X0044006Y0046417D01*
G75*
G02*
X0044557Y0046968I0000551J0000000D01*
G01*
X0045896Y0046968D01*
G75*
G02*
X0046447Y0046417I0000000J-000551D01*
G01*
X0046447Y0045315D01*
G75*
G02*
X0045896Y0044763I-000551J0000000D01*
G01*
G37*
G36*
G01*
X0049892Y0048746D02*
X0048435Y0048746D01*
G75*
G02*
X0047904Y0049278I0000000J0000531D01*
G01*
X0047904Y0050341D01*
G75*
G02*
X0048435Y0050872I0000531J0000000D01*
G01*
X0049892Y0050872D01*
G75*
G02*
X0050423Y0050341I0000000J-000531D01*
G01*
X0050423Y0049278D01*
G75*
G02*
X0049892Y0048746I-000531J0000000D01*
G01*
G37*
G36*
G01*
X0049892Y0052762D02*
X0048435Y0052762D01*
G75*
G02*
X0047904Y0053293I0000000J0000531D01*
G01*
X0047904Y0054356D01*
G75*
G02*
X0048435Y0054888I0000531J0000000D01*
G01*
X0049892Y0054888D01*
G75*
G02*
X0050423Y0054356I0000000J-000531D01*
G01*
X0050423Y0053293D01*
G75*
G02*
X0049892Y0052762I-000531J0000000D01*
G01*
G37*
D10*
X0020860Y0057913D03*
X0027087Y0075883D03*
X0067628Y0040354D03*
X0010857Y0074133D03*
X0011073Y0065846D03*
X0044439Y0040551D03*
X0036092Y0064831D03*
X0018387Y0048177D03*
X0030728Y0061058D03*
X0026526Y0040551D03*
X0018296Y0040606D03*
X0048278Y0060531D03*
X0050448Y0052635D03*
X0010581Y0057677D03*
X0037943Y0060039D03*
X0067471Y0049311D03*
X0045128Y0056299D03*
X0056924Y0075674D03*
X0067372Y0045177D03*
X0023772Y0055034D03*
X0023476Y0041888D03*
X0041352Y0055828D03*
X0027968Y0047956D03*
X0018641Y0055967D03*
X0019124Y0074252D03*
X0064950Y0046861D03*
X0029503Y0071166D03*
X0027850Y0060415D03*
X0038738Y0045745D03*
X0060188Y0046950D03*
X0054969Y0073385D03*
X0022603Y0073972D03*
X0052018Y0073980D03*
X0051326Y0060235D03*
X0050661Y0067270D03*
X0039142Y0049249D03*
X0019147Y0064941D03*
X0033671Y0060822D03*
X0037416Y0056780D03*
X0038042Y0052854D03*
X0049459Y0057677D03*
X0056807Y0060687D03*
X0051095Y0042147D03*
X0038238Y0042027D03*
D29*
X0035187Y0057283D02*
X0036913Y0057283D01*
X0035010Y0057106D02*
X0035187Y0057283D01*
X0036913Y0057283D02*
X0037416Y0056780D01*
X0035010Y0053346D02*
X0035010Y0057106D01*
X0033671Y0059783D02*
X0033671Y0060822D01*
X0031172Y0057283D02*
X0033671Y0059783D01*
X0031152Y0053326D02*
X0031172Y0053346D01*
X0031152Y0051771D02*
X0031152Y0053326D01*
X0025266Y0059763D02*
X0027707Y0057322D01*
X0022575Y0059763D02*
X0025266Y0059763D01*
X0020860Y0057913D02*
X0020860Y0058049D01*
X0020860Y0058049D02*
X0022575Y0059763D01*
X0025463Y0068149D02*
X0024754Y0068858D01*
X0025463Y0063858D02*
X0025463Y0068149D01*
X0025463Y0062802D02*
X0025463Y0063858D01*
X0027850Y0060415D02*
X0025463Y0062802D01*
X0023772Y0057242D02*
X0023691Y0057322D01*
X0023772Y0055034D02*
X0023772Y0057242D01*
X0025001Y0053805D02*
X0025001Y0051969D01*
X0023772Y0055034D02*
X0025001Y0053805D01*
X0019147Y0062172D02*
X0019744Y0061574D01*
X0019147Y0064941D02*
X0019147Y0062172D01*
X0014085Y0062116D02*
X0013544Y0061574D01*
X0014085Y0067913D02*
X0014085Y0062116D01*
X0019744Y0061574D02*
X0020138Y0061574D01*
X0016801Y0056693D02*
X0017916Y0056693D01*
X0017916Y0056693D02*
X0018641Y0055967D01*
X0035281Y0060822D02*
X0033671Y0060822D01*
X0038238Y0063779D02*
X0035281Y0060822D01*
X0042699Y0063779D02*
X0038238Y0063779D01*
X0025197Y0051771D02*
X0015847Y0051771D01*
X0031152Y0049724D02*
X0031152Y0051771D01*
X0026920Y0051771D02*
X0031152Y0051771D01*
X0023476Y0041888D02*
X0023327Y0042037D01*
X0029500Y0045945D02*
X0031152Y0045945D01*
X0023327Y0042037D02*
X0023327Y0044291D01*
X0031152Y0045945D02*
X0031152Y0042480D01*
X0027847Y0044291D02*
X0029500Y0045945D01*
X0024803Y0044291D02*
X0027847Y0044291D01*
X0024803Y0044291D02*
X0015847Y0044291D01*
X0041352Y0055828D02*
X0041352Y0053966D01*
X0029754Y0071417D02*
X0032234Y0071417D01*
X0065719Y0073838D02*
X0067471Y0075590D01*
X0027893Y0048031D02*
X0024951Y0048031D01*
X0027968Y0047956D02*
X0027893Y0048031D01*
X0041352Y0053966D02*
X0041290Y0053904D01*
X0062246Y0073838D02*
X0065719Y0073838D01*
X0064764Y0047047D02*
X0063573Y0047047D01*
X0064950Y0046861D02*
X0064764Y0047047D01*
X0061749Y0048871D02*
X0061749Y0050000D01*
X0063573Y0047047D02*
X0061749Y0048871D01*
X0029503Y0071166D02*
X0029754Y0071417D01*
X0064247Y0043617D02*
X0064247Y0043543D01*
X0038691Y0045905D02*
X0045187Y0045905D01*
X0054282Y0049903D02*
X0054282Y0049927D01*
X0060914Y0046950D02*
X0064247Y0043617D01*
X0056999Y0047186D02*
X0054282Y0049903D01*
X0035975Y0045686D02*
X0038679Y0045686D01*
X0060188Y0046950D02*
X0059952Y0047186D01*
X0060188Y0046950D02*
X0060914Y0046950D01*
X0059952Y0047186D02*
X0056999Y0047186D01*
X0022603Y0073972D02*
X0022607Y0073976D01*
X0022607Y0073976D02*
X0024754Y0073976D01*
X0040908Y0073976D02*
X0041144Y0074212D01*
X0032234Y0073976D02*
X0040908Y0073976D01*
X0051982Y0074015D02*
X0042778Y0074015D01*
X0052018Y0073980D02*
X0051982Y0074015D01*
X0052092Y0068700D02*
X0061912Y0068700D01*
X0059190Y0050000D02*
X0059190Y0051599D01*
X0056683Y0054106D02*
X0056683Y0054878D01*
X0059190Y0051599D02*
X0056683Y0054106D01*
X0050661Y0067270D02*
X0052092Y0068700D01*
X0056683Y0054878D02*
X0051326Y0060235D01*
X0049360Y0045866D02*
X0049164Y0046063D01*
X0059129Y0043543D02*
X0057060Y0045611D01*
X0054282Y0045866D02*
X0049360Y0045866D01*
X0057060Y0045611D02*
X0054536Y0045611D01*
X0045478Y0049700D02*
X0045660Y0049882D01*
X0039142Y0049249D02*
X0039780Y0049888D01*
X0039780Y0049888D02*
X0049164Y0049888D01*
X0065049Y0063838D02*
X0067471Y0061417D01*
X0042758Y0064035D02*
X0062246Y0064035D01*
X0062246Y0063838D02*
X0065049Y0063838D01*
X0033514Y0047241D02*
X0035975Y0049701D01*
X0035010Y0042027D02*
X0033514Y0043523D01*
X0033514Y0043523D02*
X0033514Y0047241D01*
X0038042Y0051768D02*
X0035975Y0049701D01*
X0038042Y0052854D02*
X0038042Y0051768D01*
X0038297Y0041968D02*
X0041211Y0041968D01*
X0038238Y0042027D02*
X0038297Y0041968D01*
X0041211Y0041968D02*
X0041290Y0041889D01*
X0036132Y0070669D02*
X0035993Y0070669D01*
X0039833Y0069094D02*
X0042699Y0069094D01*
X0035993Y0070669D02*
X0034182Y0068858D01*
X0034182Y0068858D02*
X0031880Y0068858D01*
X0038258Y0070669D02*
X0039833Y0069094D01*
X0036132Y0070669D02*
X0038258Y0070669D01*
X0064321Y0051496D02*
X0062156Y0053661D01*
X0062156Y0053661D02*
X0062156Y0058681D01*
X0064321Y0050393D02*
X0064321Y0051496D01*
G36*
X0068648Y0059692D02*
G01*
X0068748Y0059473D01*
X0068750Y0059428D01*
X0068750Y0039466D01*
X0068676Y0039237D01*
X0068481Y0039095D01*
X0068360Y0039076D01*
X0009693Y0039076D01*
X0009464Y0039151D01*
X0009322Y0039346D01*
X0009303Y0039466D01*
X0009303Y0043221D01*
X0009378Y0043450D01*
X0009573Y0043592D01*
X0009786Y0043600D01*
X0010345Y0043462D01*
X0010345Y0043462D01*
X0011014Y0043462D01*
X0011014Y0043462D01*
X0011665Y0043622D01*
X0012095Y0043849D01*
X0012333Y0043889D01*
X0012549Y0043782D01*
X0012661Y0043569D01*
X0012663Y0043550D01*
X0012663Y0043550D01*
X0012841Y0043146D01*
X0012841Y0043146D01*
X0012841Y0043146D01*
X0013153Y0042835D01*
X0013153Y0042835D01*
X0013153Y0042835D01*
X0013466Y0042696D01*
X0013557Y0042656D01*
X0013656Y0042645D01*
X0018043Y0042645D01*
X0018142Y0042656D01*
X0018202Y0042683D01*
X0018546Y0042835D01*
X0018546Y0042835D01*
X0018546Y0042835D01*
X0018728Y0043017D01*
X0018806Y0043095D01*
X0019021Y0043205D01*
X0019082Y0043209D01*
X0021527Y0043209D01*
X0021756Y0043135D01*
X0021898Y0042940D01*
X0021898Y0042699D01*
X0021881Y0042658D01*
X0021760Y0042392D01*
X0021760Y0042392D01*
X0021688Y0041888D01*
X0021688Y0041888D01*
X0021760Y0041384D01*
X0021760Y0041384D01*
X0021760Y0041384D01*
X0021760Y0041384D01*
X0021971Y0040921D01*
X0022305Y0040536D01*
X0022733Y0040261D01*
X0023222Y0040117D01*
X0023222Y0040117D01*
X0023731Y0040117D01*
X0023731Y0040117D01*
X0024219Y0040261D01*
X0024648Y0040536D01*
X0024981Y0040921D01*
X0025192Y0041384D01*
X0025192Y0041384D01*
X0025265Y0041888D01*
X0025265Y0041888D01*
X0025220Y0042200D01*
X0025261Y0042437D01*
X0025434Y0042605D01*
X0025606Y0042645D01*
X0027000Y0042645D01*
X0027000Y0042645D01*
X0027099Y0042656D01*
X0027159Y0042683D01*
X0027502Y0042835D01*
X0027502Y0042835D01*
X0027502Y0042835D01*
X0027775Y0043107D01*
X0027974Y0043214D01*
X0028269Y0043272D01*
X0028429Y0043379D01*
X0028627Y0043511D01*
X0028666Y0043570D01*
X0028714Y0043629D01*
X0028867Y0043782D01*
X0029082Y0043891D01*
X0029320Y0043854D01*
X0029490Y0043683D01*
X0029528Y0043445D01*
X0029500Y0043349D01*
X0029410Y0043146D01*
X0029353Y0043017D01*
X0029342Y0042923D01*
X0029342Y0041131D01*
X0029353Y0041038D01*
X0029353Y0041038D01*
X0029353Y0041038D01*
X0029522Y0040654D01*
X0029818Y0040358D01*
X0030202Y0040189D01*
X0030295Y0040178D01*
X0030295Y0040178D01*
X0030295Y0040178D01*
X0031693Y0040178D01*
X0031693Y0040178D01*
X0031787Y0040189D01*
X0032170Y0040358D01*
X0032467Y0040654D01*
X0032636Y0041038D01*
X0032636Y0041038D01*
X0032646Y0041060D01*
X0032806Y0041240D01*
X0033042Y0041290D01*
X0033262Y0041193D01*
X0033359Y0041060D01*
X0033369Y0041038D01*
X0033369Y0041038D01*
X0033538Y0040654D01*
X0033834Y0040358D01*
X0034218Y0040189D01*
X0034311Y0040178D01*
X0034311Y0040178D01*
X0034311Y0040178D01*
X0035709Y0040178D01*
X0035709Y0040178D01*
X0035803Y0040189D01*
X0036186Y0040358D01*
X0036482Y0040654D01*
X0036482Y0040654D01*
X0036508Y0040680D01*
X0036519Y0040669D01*
X0036653Y0040773D01*
X0036894Y0040780D01*
X0037040Y0040687D01*
X0037046Y0040694D01*
X0037067Y0040675D01*
X0037067Y0040675D01*
X0037495Y0040400D01*
X0037984Y0040257D01*
X0037984Y0040257D01*
X0038493Y0040257D01*
X0038493Y0040257D01*
X0038981Y0040400D01*
X0039345Y0040634D01*
X0039578Y0040695D01*
X0039802Y0040608D01*
X0039831Y0040582D01*
X0039917Y0040496D01*
X0040300Y0040327D01*
X0040394Y0040316D01*
X0040394Y0040316D01*
X0040394Y0040316D01*
X0042185Y0040316D01*
X0042185Y0040316D01*
X0042279Y0040327D01*
X0042662Y0040496D01*
X0042907Y0040741D01*
X0043122Y0040850D01*
X0043360Y0040813D01*
X0043459Y0040741D01*
X0043778Y0040422D01*
X0044206Y0040222D01*
X0044206Y0040222D01*
X0044227Y0040219D01*
X0044227Y0040219D01*
X0044227Y0042696D01*
X0044301Y0042926D01*
X0044496Y0043067D01*
X0044616Y0043086D01*
X0045837Y0043086D01*
X0046066Y0043012D01*
X0046208Y0042817D01*
X0046227Y0042696D01*
X0046227Y0040219D01*
X0046227Y0040219D01*
X0046248Y0040222D01*
X0046676Y0040422D01*
X0046995Y0040741D01*
X0047209Y0040850D01*
X0047447Y0040813D01*
X0047546Y0040741D01*
X0047791Y0040496D01*
X0048174Y0040327D01*
X0048268Y0040316D01*
X0048268Y0040316D01*
X0048268Y0040316D01*
X0050059Y0040316D01*
X0050059Y0040316D01*
X0050153Y0040327D01*
X0050366Y0040420D01*
X0050605Y0040445D01*
X0050633Y0040438D01*
X0050840Y0040377D01*
X0050840Y0040377D01*
X0051349Y0040377D01*
X0051349Y0040377D01*
X0051838Y0040520D01*
X0052119Y0040701D01*
X0052352Y0040762D01*
X0052577Y0040675D01*
X0052605Y0040649D01*
X0052833Y0040422D01*
X0053261Y0040222D01*
X0053261Y0040222D01*
X0053282Y0040219D01*
X0053282Y0040219D01*
X0055282Y0040219D01*
X0055282Y0040219D01*
X0055303Y0040222D01*
X0055731Y0040422D01*
X0056064Y0040755D01*
X0056219Y0041086D01*
X0056219Y0041086D01*
X0055282Y0041086D01*
X0055282Y0041086D01*
X0055282Y0040219D01*
X0053282Y0040219D01*
X0053282Y0042696D01*
X0053356Y0042926D01*
X0053551Y0043067D01*
X0053672Y0043086D01*
X0056219Y0043086D01*
X0056219Y0043086D01*
X0056064Y0043417D01*
X0055731Y0043751D01*
X0055703Y0043770D01*
X0055707Y0043776D01*
X0055561Y0043912D01*
X0055515Y0044149D01*
X0055617Y0044367D01*
X0055626Y0044377D01*
X0055665Y0044416D01*
X0055880Y0044525D01*
X0055941Y0044530D01*
X0056450Y0044530D01*
X0056679Y0044455D01*
X0056726Y0044416D01*
X0057699Y0043442D01*
X0057809Y0043228D01*
X0057814Y0043167D01*
X0057814Y0041182D01*
X0057848Y0041010D01*
X0057848Y0041010D01*
X0057954Y0040850D01*
X0057978Y0040815D01*
X0057978Y0040815D01*
X0058173Y0040685D01*
X0058219Y0040675D01*
X0058345Y0040650D01*
X0058345Y0040650D01*
X0060036Y0040650D01*
X0060036Y0040650D01*
X0060179Y0040679D01*
X0060418Y0040651D01*
X0060471Y0040621D01*
X0060655Y0040498D01*
X0060884Y0040452D01*
X0060884Y0040452D01*
X0060962Y0040452D01*
X0060962Y0040452D01*
X0060962Y0042917D01*
X0061036Y0043146D01*
X0061231Y0043288D01*
X0061352Y0043307D01*
X0062147Y0043307D01*
X0062376Y0043232D01*
X0062518Y0043037D01*
X0062537Y0042917D01*
X0062537Y0040452D01*
X0062537Y0040452D01*
X0062614Y0040452D01*
X0062614Y0040452D01*
X0062844Y0040498D01*
X0063028Y0040621D01*
X0063259Y0040686D01*
X0063320Y0040679D01*
X0063463Y0040650D01*
X0063463Y0040650D01*
X0065154Y0040650D01*
X0065154Y0040650D01*
X0065326Y0040685D01*
X0065521Y0040815D01*
X0065651Y0041010D01*
X0065685Y0041182D01*
X0065685Y0043857D01*
X0065651Y0044029D01*
X0065651Y0044029D01*
X0065521Y0044224D01*
X0065521Y0044224D01*
X0065521Y0044224D01*
X0065326Y0044354D01*
X0065326Y0044354D01*
X0065313Y0044357D01*
X0065294Y0044367D01*
X0065290Y0044369D01*
X0065291Y0044369D01*
X0065103Y0044474D01*
X0065002Y0044693D01*
X0065049Y0044929D01*
X0065226Y0045093D01*
X0065279Y0045113D01*
X0065693Y0045234D01*
X0066121Y0045509D01*
X0066454Y0045894D01*
X0066666Y0046357D01*
X0066671Y0046396D01*
X0066738Y0046861D01*
X0066738Y0046861D01*
X0066666Y0047365D01*
X0066666Y0047365D01*
X0066666Y0047365D01*
X0066454Y0047828D01*
X0066121Y0048213D01*
X0066117Y0048216D01*
X0065864Y0048378D01*
X0065712Y0048564D01*
X0065685Y0048706D01*
X0065685Y0051337D01*
X0065685Y0051337D01*
X0065651Y0051509D01*
X0065651Y0051509D01*
X0065521Y0051704D01*
X0065521Y0051704D01*
X0065491Y0051724D01*
X0065348Y0051899D01*
X0065340Y0051918D01*
X0065340Y0051918D01*
X0065267Y0052026D01*
X0065154Y0052197D01*
X0066975Y0052197D01*
X0066975Y0052197D01*
X0067305Y0052351D01*
X0067639Y0052685D01*
X0067839Y0053112D01*
X0067842Y0053133D01*
X0067842Y0053133D01*
X0066975Y0053133D01*
X0066975Y0053133D01*
X0066975Y0052197D01*
X0065154Y0052197D01*
X0065101Y0052275D01*
X0065101Y0052275D01*
X0065089Y0052287D01*
X0064979Y0052502D01*
X0064975Y0052563D01*
X0064975Y0056070D01*
X0066975Y0056070D01*
X0066975Y0055133D01*
X0066975Y0055133D01*
X0067842Y0055133D01*
X0067842Y0055133D01*
X0067839Y0055155D01*
X0067639Y0055582D01*
X0067305Y0055916D01*
X0066975Y0056070D01*
X0064975Y0056070D01*
X0064644Y0055916D01*
X0064310Y0055582D01*
X0064290Y0055554D01*
X0064285Y0055558D01*
X0064149Y0055413D01*
X0063912Y0055367D01*
X0063694Y0055468D01*
X0063684Y0055478D01*
X0063402Y0055760D01*
X0063402Y0055760D01*
X0063377Y0055786D01*
X0063381Y0055790D01*
X0063260Y0055948D01*
X0063237Y0056078D01*
X0063237Y0056678D01*
X0063312Y0056907D01*
X0063507Y0057049D01*
X0063627Y0057068D01*
X0065671Y0057068D01*
X0065671Y0057068D01*
X0065769Y0057079D01*
X0065841Y0057111D01*
X0065927Y0057149D01*
X0066173Y0057257D01*
X0066485Y0057569D01*
X0066663Y0057973D01*
X0066674Y0058071D01*
X0066674Y0059285D01*
X0066749Y0059514D01*
X0066944Y0059656D01*
X0067174Y0059659D01*
X0067216Y0059646D01*
X0067216Y0059646D01*
X0067725Y0059646D01*
X0067725Y0059646D01*
X0068214Y0059790D01*
X0068214Y0059790D01*
X0068241Y0059798D01*
X0068243Y0059788D01*
X0068438Y0059810D01*
X0068648Y0059692D01*
G37*
G36*
X0021803Y0050615D02*
G01*
X0021849Y0050576D01*
X0022124Y0050301D01*
X0022233Y0050087D01*
X0022195Y0049849D01*
X0022124Y0049750D01*
X0021798Y0049424D01*
X0021620Y0049021D01*
X0021620Y0049021D01*
X0021609Y0048922D01*
X0021609Y0047389D01*
X0021609Y0047389D01*
X0021609Y0047389D01*
X0021611Y0047365D01*
X0021620Y0047290D01*
X0021620Y0047290D01*
X0021798Y0046887D01*
X0021798Y0046887D01*
X0021798Y0046887D01*
X0022110Y0046575D01*
X0022110Y0046575D01*
X0022124Y0046561D01*
X0022233Y0046346D01*
X0022195Y0046108D01*
X0022124Y0046010D01*
X0022110Y0045996D01*
X0022110Y0045996D01*
X0021850Y0045736D01*
X0021798Y0045684D01*
X0021763Y0045605D01*
X0021602Y0045425D01*
X0021407Y0045372D01*
X0019249Y0045372D01*
X0019020Y0045447D01*
X0018893Y0045605D01*
X0018857Y0045684D01*
X0018857Y0045684D01*
X0018857Y0045684D01*
X0018672Y0045870D01*
X0018563Y0046084D01*
X0018600Y0046322D01*
X0018672Y0046421D01*
X0019004Y0046753D01*
X0019201Y0047156D01*
X0015239Y0047156D01*
X0015010Y0047230D01*
X0014869Y0047425D01*
X0014849Y0047545D01*
X0014849Y0048766D01*
X0014924Y0048995D01*
X0015119Y0049136D01*
X0015239Y0049156D01*
X0019201Y0049156D01*
X0019004Y0049558D01*
X0018672Y0049890D01*
X0018563Y0050105D01*
X0018600Y0050343D01*
X0018672Y0050441D01*
X0018806Y0050576D01*
X0019021Y0050685D01*
X0019082Y0050690D01*
X0021574Y0050690D01*
X0021803Y0050615D01*
G37*
G36*
X0051890Y0058142D02*
G01*
X0053770Y0056262D01*
X0053879Y0056047D01*
X0053841Y0055809D01*
X0053671Y0055639D01*
X0053494Y0055596D01*
X0053456Y0055596D01*
X0053261Y0055571D01*
X0053261Y0055571D01*
X0052833Y0055371D01*
X0052499Y0055037D01*
X0052345Y0054707D01*
X0052345Y0054707D01*
X0054892Y0054707D01*
X0055121Y0054632D01*
X0055263Y0054437D01*
X0055282Y0054317D01*
X0055282Y0053096D01*
X0055207Y0052867D01*
X0055012Y0052726D01*
X0054892Y0052707D01*
X0052345Y0052707D01*
X0052345Y0052707D01*
X0052499Y0052376D01*
X0052833Y0052042D01*
X0052861Y0052023D01*
X0052857Y0052017D01*
X0053003Y0051881D01*
X0053049Y0051644D01*
X0052947Y0051426D01*
X0052937Y0051416D01*
X0052655Y0051134D01*
X0052483Y0050744D01*
X0052472Y0050649D01*
X0052472Y0049206D01*
X0052483Y0049110D01*
X0052483Y0049110D01*
X0052483Y0049110D01*
X0052655Y0048720D01*
X0052957Y0048419D01*
X0053332Y0048253D01*
X0053512Y0048092D01*
X0053562Y0047857D01*
X0053465Y0047637D01*
X0053332Y0047540D01*
X0052957Y0047374D01*
X0052957Y0047374D01*
X0052957Y0047374D01*
X0052655Y0047073D01*
X0052655Y0047073D01*
X0052644Y0047061D01*
X0052429Y0046952D01*
X0052368Y0046947D01*
X0051181Y0046947D01*
X0050951Y0047022D01*
X0050860Y0047135D01*
X0050853Y0047130D01*
X0050833Y0047160D01*
X0050833Y0047160D01*
X0050833Y0047160D01*
X0050536Y0047456D01*
X0050347Y0047540D01*
X0050167Y0047701D01*
X0050116Y0047936D01*
X0050214Y0048156D01*
X0050347Y0048253D01*
X0050536Y0048337D01*
X0050833Y0048633D01*
X0051002Y0049016D01*
X0051013Y0049110D01*
X0051013Y0050508D01*
X0051002Y0050602D01*
X0050833Y0050985D01*
X0050536Y0051281D01*
X0050378Y0051351D01*
X0050198Y0051512D01*
X0050147Y0051747D01*
X0050245Y0051968D01*
X0050370Y0052061D01*
X0050660Y0052196D01*
X0050989Y0052525D01*
X0051129Y0052825D01*
X0051129Y0052825D01*
X0047392Y0052825D01*
X0047388Y0052821D01*
X0047173Y0052711D01*
X0047112Y0052707D01*
X0044616Y0052707D01*
X0044387Y0052781D01*
X0044246Y0052976D01*
X0044227Y0053096D01*
X0044227Y0055574D01*
X0044227Y0055574D01*
X0044206Y0055571D01*
X0043778Y0055371D01*
X0043750Y0055352D01*
X0043745Y0055358D01*
X0043570Y0055269D01*
X0043333Y0055307D01*
X0043162Y0055477D01*
X0043124Y0055710D01*
X0043141Y0055828D01*
X0043139Y0055843D01*
X0043068Y0056332D01*
X0043060Y0056359D01*
X0043070Y0056361D01*
X0043047Y0056557D01*
X0043166Y0056767D01*
X0043385Y0056867D01*
X0043429Y0056870D01*
X0046137Y0056870D01*
X0046137Y0056870D01*
X0046405Y0056909D01*
X0046818Y0057111D01*
X0046818Y0057111D01*
X0047084Y0057376D01*
X0047298Y0057486D01*
X0047536Y0057448D01*
X0047707Y0057278D01*
X0047732Y0057199D01*
X0047735Y0057200D01*
X0047743Y0057173D01*
X0047743Y0057173D01*
X0047743Y0057173D01*
X0047954Y0056710D01*
X0048288Y0056325D01*
X0048288Y0056325D01*
X0048306Y0056304D01*
X0048301Y0056299D01*
X0048407Y0056123D01*
X0048386Y0055883D01*
X0048228Y0055701D01*
X0048116Y0055662D01*
X0048117Y0055658D01*
X0048089Y0055650D01*
X0047667Y0055453D01*
X0047406Y0055192D01*
X0047191Y0055083D01*
X0046953Y0055120D01*
X0046855Y0055192D01*
X0046676Y0055371D01*
X0046248Y0055571D01*
X0046248Y0055571D01*
X0046227Y0055574D01*
X0046227Y0054707D01*
X0046227Y0054707D01*
X0046959Y0054707D01*
X0046963Y0054711D01*
X0047177Y0054820D01*
X0047238Y0054825D01*
X0051129Y0054825D01*
X0051129Y0054825D01*
X0050989Y0055124D01*
X0050660Y0055453D01*
X0050498Y0055529D01*
X0050321Y0055693D01*
X0050276Y0055930D01*
X0050377Y0056148D01*
X0050452Y0056210D01*
X0050630Y0056325D01*
X0050964Y0056710D01*
X0051175Y0057173D01*
X0051179Y0057199D01*
X0051248Y0057677D01*
X0051248Y0057677D01*
X0051228Y0057811D01*
X0051269Y0058048D01*
X0051442Y0058216D01*
X0051681Y0058250D01*
X0051890Y0058142D01*
G37*
G36*
X0055960Y0062879D02*
G01*
X0056102Y0062684D01*
X0056102Y0062443D01*
X0055960Y0062248D01*
X0055942Y0062236D01*
X0055635Y0062039D01*
X0055635Y0062039D01*
X0055635Y0062039D01*
X0055533Y0061921D01*
X0055302Y0061654D01*
X0055090Y0061191D01*
X0055090Y0061191D01*
X0055018Y0060687D01*
X0055018Y0060687D01*
X0055090Y0060183D01*
X0055090Y0060183D01*
X0055090Y0060183D01*
X0055090Y0060183D01*
X0055302Y0059720D01*
X0055635Y0059335D01*
X0056064Y0059060D01*
X0056552Y0058917D01*
X0056552Y0058917D01*
X0057061Y0058917D01*
X0057061Y0058917D01*
X0057061Y0058917D01*
X0057061Y0058917D01*
X0057201Y0058958D01*
X0057319Y0058992D01*
X0057560Y0058985D01*
X0057750Y0058838D01*
X0057818Y0058618D01*
X0057818Y0058072D01*
X0057818Y0058071D01*
X0057830Y0057973D01*
X0057830Y0057973D01*
X0058008Y0057569D01*
X0058008Y0057569D01*
X0058008Y0057569D01*
X0058320Y0057257D01*
X0058724Y0057079D01*
X0058822Y0057068D01*
X0060684Y0057068D01*
X0060914Y0056993D01*
X0061055Y0056798D01*
X0061074Y0056678D01*
X0061074Y0056008D01*
X0061000Y0055778D01*
X0060960Y0055732D01*
X0060818Y0055590D01*
X0060687Y0055459D01*
X0060514Y0055068D01*
X0060503Y0054973D01*
X0060503Y0053294D01*
X0060514Y0053199D01*
X0060514Y0053199D01*
X0060514Y0053199D01*
X0060687Y0052808D01*
X0060988Y0052507D01*
X0060988Y0052507D01*
X0060991Y0052504D01*
X0061100Y0052289D01*
X0061063Y0052051D01*
X0060892Y0051881D01*
X0060792Y0051846D01*
X0060732Y0051834D01*
X0060712Y0051826D01*
X0060472Y0051807D01*
X0060266Y0051933D01*
X0060231Y0051990D01*
X0060230Y0051989D01*
X0060206Y0052026D01*
X0060101Y0052183D01*
X0059970Y0052379D01*
X0059956Y0052388D01*
X0059912Y0052418D01*
X0059853Y0052466D01*
X0057879Y0054440D01*
X0057770Y0054655D01*
X0057765Y0054716D01*
X0057765Y0054733D01*
X0057772Y0054809D01*
X0057775Y0054825D01*
X0057786Y0054878D01*
X0057702Y0055300D01*
X0057697Y0055307D01*
X0057686Y0055324D01*
X0057463Y0055657D01*
X0057463Y0055657D01*
X0057405Y0055696D01*
X0057346Y0055745D01*
X0053220Y0059870D01*
X0053111Y0060085D01*
X0053110Y0060201D01*
X0053115Y0060235D01*
X0053056Y0060642D01*
X0053043Y0060739D01*
X0053043Y0060739D01*
X0053043Y0060739D01*
X0052831Y0061202D01*
X0052498Y0061586D01*
X0052392Y0061654D01*
X0052069Y0061862D01*
X0051581Y0062005D01*
X0051581Y0062005D01*
X0051072Y0062005D01*
X0051072Y0062005D01*
X0050583Y0061862D01*
X0050583Y0061862D01*
X0050155Y0061586D01*
X0050155Y0061586D01*
X0050155Y0061586D01*
X0049978Y0061382D01*
X0049822Y0061202D01*
X0049610Y0060739D01*
X0049610Y0060739D01*
X0049538Y0060235D01*
X0049538Y0060235D01*
X0049587Y0059892D01*
X0049546Y0059655D01*
X0049373Y0059487D01*
X0049231Y0059454D01*
X0049232Y0059451D01*
X0049204Y0059447D01*
X0048716Y0059304D01*
X0048716Y0059304D01*
X0048288Y0059029D01*
X0048288Y0059029D01*
X0048288Y0059029D01*
X0047965Y0058656D01*
X0047954Y0058644D01*
X0047743Y0058181D01*
X0047743Y0058181D01*
X0047741Y0058172D01*
X0047738Y0058166D01*
X0047735Y0058154D01*
X0047733Y0058155D01*
X0047635Y0057956D01*
X0047422Y0057844D01*
X0047356Y0057838D01*
X0039020Y0057838D01*
X0038791Y0057913D01*
X0038725Y0057973D01*
X0038587Y0058132D01*
X0038159Y0058407D01*
X0037671Y0058551D01*
X0037671Y0058551D01*
X0037161Y0058551D01*
X0037161Y0058551D01*
X0037075Y0058525D01*
X0036834Y0058532D01*
X0036695Y0058640D01*
X0036685Y0058630D01*
X0036363Y0058952D01*
X0036363Y0058952D01*
X0035980Y0059121D01*
X0035980Y0059121D01*
X0035980Y0059121D01*
X0035928Y0059127D01*
X0035709Y0059228D01*
X0035591Y0059438D01*
X0035619Y0059677D01*
X0035756Y0059838D01*
X0038177Y0059838D01*
X0041758Y0059838D01*
X0041758Y0059838D01*
X0043758Y0059838D01*
X0043758Y0059838D01*
X0047340Y0059838D01*
X0047143Y0060241D01*
X0046818Y0060566D01*
X0046405Y0060768D01*
X0046137Y0060807D01*
X0043758Y0060807D01*
X0043758Y0060807D01*
X0043758Y0059838D01*
X0041758Y0059838D01*
X0041758Y0060807D01*
X0041758Y0060807D01*
X0039379Y0060807D01*
X0039379Y0060807D01*
X0039112Y0060768D01*
X0038698Y0060566D01*
X0038373Y0060241D01*
X0038177Y0059838D01*
X0035756Y0059838D01*
X0035756Y0059839D01*
X0035780Y0059855D01*
X0036061Y0060042D01*
X0036100Y0060100D01*
X0036148Y0060159D01*
X0038263Y0062275D01*
X0038478Y0062384D01*
X0038716Y0062346D01*
X0038815Y0062275D01*
X0038832Y0062257D01*
X0038832Y0062257D01*
X0038832Y0062257D01*
X0038994Y0062186D01*
X0039235Y0062079D01*
X0039334Y0062068D01*
X0046182Y0062068D01*
X0046281Y0062079D01*
X0046685Y0062257D01*
X0046997Y0062569D01*
X0047047Y0062684D01*
X0047064Y0062721D01*
X0047224Y0062901D01*
X0047420Y0062954D01*
X0055731Y0062954D01*
X0055960Y0062879D01*
G37*
G36*
X0065954Y0077189D02*
G01*
X0066095Y0076994D01*
X0066095Y0076753D01*
X0066019Y0076618D01*
X0065966Y0076557D01*
X0065754Y0076094D01*
X0065754Y0076094D01*
X0065733Y0075943D01*
X0065626Y0075727D01*
X0065413Y0075614D01*
X0065347Y0075609D01*
X0058822Y0075609D01*
X0058822Y0075609D01*
X0058724Y0075597D01*
X0058724Y0075597D01*
X0058320Y0075419D01*
X0058008Y0075107D01*
X0057830Y0074704D01*
X0057830Y0074704D01*
X0057818Y0074605D01*
X0057818Y0073072D01*
X0057818Y0073071D01*
X0057830Y0072973D01*
X0057830Y0072973D01*
X0058008Y0072569D01*
X0058008Y0072569D01*
X0058008Y0072569D01*
X0058320Y0072257D01*
X0058320Y0072257D01*
X0058320Y0072257D01*
X0058602Y0072133D01*
X0058724Y0072079D01*
X0058822Y0072068D01*
X0065467Y0072068D01*
X0065696Y0071993D01*
X0065837Y0071798D01*
X0065837Y0071558D01*
X0065821Y0071516D01*
X0065754Y0071370D01*
X0065754Y0071370D01*
X0065693Y0070943D01*
X0065587Y0070727D01*
X0065374Y0070614D01*
X0065307Y0070609D01*
X0058822Y0070609D01*
X0058822Y0070609D01*
X0058724Y0070597D01*
X0058724Y0070597D01*
X0058320Y0070419D01*
X0058008Y0070107D01*
X0057967Y0070014D01*
X0057806Y0069835D01*
X0057611Y0069782D01*
X0052236Y0069782D01*
X0052160Y0069789D01*
X0052092Y0069803D01*
X0051985Y0069782D01*
X0051670Y0069719D01*
X0051312Y0069480D01*
X0051312Y0069480D01*
X0051273Y0069422D01*
X0051224Y0069363D01*
X0051016Y0069155D01*
X0050802Y0069045D01*
X0050741Y0069041D01*
X0050407Y0069041D01*
X0049918Y0068897D01*
X0049918Y0068897D01*
X0049490Y0068622D01*
X0049157Y0068237D01*
X0048945Y0067774D01*
X0048945Y0067774D01*
X0048873Y0067270D01*
X0048873Y0067270D01*
X0048945Y0066766D01*
X0048945Y0066766D01*
X0048945Y0066766D01*
X0048945Y0066766D01*
X0049157Y0066303D01*
X0049490Y0065918D01*
X0049535Y0065889D01*
X0049621Y0065834D01*
X0049773Y0065648D01*
X0049787Y0065407D01*
X0049657Y0065205D01*
X0049432Y0065117D01*
X0049410Y0065117D01*
X0047149Y0065117D01*
X0046920Y0065191D01*
X0046873Y0065231D01*
X0046685Y0065419D01*
X0046685Y0065419D01*
X0046281Y0065597D01*
X0046182Y0065609D01*
X0039334Y0065609D01*
X0039334Y0065609D01*
X0039235Y0065597D01*
X0039235Y0065597D01*
X0038832Y0065419D01*
X0038555Y0065142D01*
X0038340Y0065033D01*
X0038102Y0065070D01*
X0037932Y0065241D01*
X0037894Y0065479D01*
X0037926Y0065582D01*
X0038069Y0065889D01*
X0037132Y0065889D01*
X0037132Y0065889D01*
X0037132Y0065023D01*
X0037256Y0064914D01*
X0037379Y0064707D01*
X0037357Y0064467D01*
X0037275Y0064345D01*
X0035224Y0062294D01*
X0035009Y0062184D01*
X0034771Y0062222D01*
X0034737Y0062241D01*
X0034415Y0062449D01*
X0034128Y0062533D01*
X0033926Y0062592D01*
X0033926Y0062592D01*
X0033417Y0062592D01*
X0033417Y0062592D01*
X0032928Y0062449D01*
X0032928Y0062449D01*
X0032500Y0062174D01*
X0032500Y0062174D01*
X0032500Y0062174D01*
X0032317Y0061962D01*
X0032167Y0061789D01*
X0031955Y0061326D01*
X0031955Y0061326D01*
X0031883Y0060822D01*
X0031883Y0060822D01*
X0031955Y0060318D01*
X0031955Y0060318D01*
X0031955Y0060318D01*
X0031955Y0060318D01*
X0032069Y0060069D01*
X0032096Y0059829D01*
X0031990Y0059631D01*
X0031605Y0059246D01*
X0031391Y0059137D01*
X0031330Y0059132D01*
X0030473Y0059132D01*
X0030379Y0059121D01*
X0029996Y0058952D01*
X0029735Y0058691D01*
X0029520Y0058582D01*
X0029282Y0058619D01*
X0029183Y0058691D01*
X0029180Y0058694D01*
X0029071Y0058909D01*
X0029108Y0059146D01*
X0029161Y0059225D01*
X0029355Y0059448D01*
X0029566Y0059911D01*
X0029585Y0060042D01*
X0029639Y0060415D01*
X0029639Y0060415D01*
X0029566Y0060919D01*
X0029566Y0060919D01*
X0029566Y0060919D01*
X0029393Y0061298D01*
X0029366Y0061538D01*
X0029484Y0061747D01*
X0029703Y0061847D01*
X0029748Y0061850D01*
X0029950Y0061850D01*
X0030145Y0061876D01*
X0030145Y0061876D01*
X0030573Y0062075D01*
X0030907Y0062409D01*
X0031106Y0062837D01*
X0031109Y0062858D01*
X0031109Y0062858D01*
X0028632Y0062858D01*
X0028403Y0062932D01*
X0028261Y0063127D01*
X0028242Y0063248D01*
X0028242Y0065795D01*
X0030242Y0065795D01*
X0030242Y0064858D01*
X0030242Y0064858D01*
X0031109Y0064858D01*
X0031109Y0064858D01*
X0031106Y0064879D01*
X0030907Y0065307D01*
X0030573Y0065641D01*
X0030242Y0065795D01*
X0028242Y0065795D01*
X0027912Y0065641D01*
X0027578Y0065307D01*
X0027558Y0065279D01*
X0027552Y0065283D01*
X0027416Y0065137D01*
X0027180Y0065091D01*
X0026962Y0065193D01*
X0026952Y0065202D01*
X0026670Y0065484D01*
X0026670Y0065484D01*
X0026658Y0065496D01*
X0026549Y0065710D01*
X0026544Y0065771D01*
X0026544Y0065889D01*
X0034195Y0065889D01*
X0034349Y0065559D01*
X0034683Y0065225D01*
X0035111Y0065025D01*
X0035111Y0065025D01*
X0035132Y0065023D01*
X0035132Y0065023D01*
X0035132Y0065889D01*
X0035132Y0065889D01*
X0034195Y0065889D01*
X0034195Y0065889D01*
X0026544Y0065889D01*
X0026544Y0068004D01*
X0026552Y0068080D01*
X0026566Y0068149D01*
X0026482Y0068571D01*
X0026334Y0068791D01*
X0026269Y0069008D01*
X0026269Y0069703D01*
X0026269Y0069703D01*
X0026240Y0069846D01*
X0026269Y0070086D01*
X0026299Y0070139D01*
X0026421Y0070322D01*
X0026467Y0070552D01*
X0026467Y0070552D01*
X0026467Y0070630D01*
X0026467Y0070630D01*
X0022333Y0070630D01*
X0022333Y0070630D01*
X0022333Y0070552D01*
X0022379Y0070322D01*
X0022501Y0070139D01*
X0022567Y0069907D01*
X0022559Y0069846D01*
X0022531Y0069703D01*
X0022531Y0068012D01*
X0022565Y0067841D01*
X0022565Y0067841D01*
X0022695Y0067646D01*
X0022695Y0067646D01*
X0022695Y0067646D01*
X0022890Y0067515D01*
X0023058Y0067482D01*
X0023062Y0067481D01*
X0023992Y0067481D01*
X0024221Y0067407D01*
X0024362Y0067212D01*
X0024381Y0067091D01*
X0024381Y0065771D01*
X0024307Y0065542D01*
X0024267Y0065496D01*
X0024256Y0065484D01*
X0024256Y0065484D01*
X0024078Y0065307D01*
X0023954Y0065183D01*
X0023782Y0064793D01*
X0023771Y0064697D01*
X0023771Y0063018D01*
X0023782Y0062923D01*
X0023782Y0062923D01*
X0023782Y0062923D01*
X0023954Y0062533D01*
X0024256Y0062231D01*
X0024581Y0062088D01*
X0024649Y0062041D01*
X0024651Y0062044D01*
X0024742Y0061984D01*
X0024801Y0061935D01*
X0025226Y0061510D01*
X0025335Y0061296D01*
X0025297Y0061058D01*
X0025127Y0060887D01*
X0024950Y0060845D01*
X0022720Y0060845D01*
X0022644Y0060852D01*
X0022575Y0060866D01*
X0022575Y0060866D01*
X0022522Y0060856D01*
X0022283Y0060884D01*
X0022106Y0061047D01*
X0022056Y0061238D01*
X0022056Y0062721D01*
X0022056Y0062721D01*
X0022015Y0063003D01*
X0021802Y0063438D01*
X0021460Y0063780D01*
X0021460Y0063780D01*
X0021460Y0063780D01*
X0021251Y0063882D01*
X0021065Y0063973D01*
X0020892Y0064141D01*
X0020850Y0064378D01*
X0020862Y0064433D01*
X0020863Y0064437D01*
X0020936Y0064941D01*
X0020936Y0064941D01*
X0020863Y0065445D01*
X0020863Y0065445D01*
X0020863Y0065445D01*
X0020652Y0065908D01*
X0020319Y0066293D01*
X0020098Y0066434D01*
X0019946Y0066621D01*
X0019922Y0066813D01*
X0019936Y0066913D01*
X0017490Y0066913D01*
X0017261Y0066987D01*
X0017120Y0067182D01*
X0017101Y0067303D01*
X0017101Y0069878D01*
X0019101Y0069878D01*
X0019101Y0068913D01*
X0019101Y0068913D01*
X0019936Y0068913D01*
X0019926Y0068988D01*
X0019926Y0068988D01*
X0019729Y0069410D01*
X0019400Y0069738D01*
X0019101Y0069878D01*
X0019101Y0069878D01*
X0017101Y0069878D01*
X0017101Y0069878D01*
X0016801Y0069738D01*
X0016472Y0069410D01*
X0016337Y0069120D01*
X0016173Y0068944D01*
X0015936Y0068898D01*
X0015718Y0068999D01*
X0015627Y0069127D01*
X0015615Y0069155D01*
X0015557Y0069286D01*
X0015261Y0069582D01*
X0014877Y0069751D01*
X0014877Y0069751D01*
X0014877Y0069751D01*
X0014784Y0069762D01*
X0014784Y0069762D01*
X0013386Y0069762D01*
X0013386Y0069762D01*
X0013292Y0069751D01*
X0012909Y0069582D01*
X0012613Y0069286D01*
X0012443Y0068902D01*
X0012433Y0068809D01*
X0012433Y0067017D01*
X0012443Y0066924D01*
X0012443Y0066924D01*
X0012443Y0066924D01*
X0012613Y0066540D01*
X0012889Y0066264D01*
X0012999Y0066049D01*
X0013003Y0065988D01*
X0013003Y0064424D01*
X0012929Y0064195D01*
X0012734Y0064053D01*
X0012614Y0064034D01*
X0012545Y0064034D01*
X0012263Y0063993D01*
X0011828Y0063780D01*
X0011485Y0063438D01*
X0011280Y0063018D01*
X0011273Y0063003D01*
X0011232Y0062721D01*
X0011232Y0060428D01*
X0011273Y0060146D01*
X0011324Y0060042D01*
X0011485Y0059711D01*
X0011485Y0059711D01*
X0011485Y0059711D01*
X0011828Y0059369D01*
X0011828Y0059369D01*
X0011828Y0059369D01*
X0011963Y0059302D01*
X0012136Y0059135D01*
X0012178Y0058898D01*
X0012072Y0058681D01*
X0011957Y0058599D01*
X0011691Y0058475D01*
X0011357Y0058141D01*
X0011158Y0057714D01*
X0011155Y0057693D01*
X0011155Y0057693D01*
X0013632Y0057693D01*
X0013861Y0057618D01*
X0014003Y0057423D01*
X0014022Y0057303D01*
X0014022Y0054756D01*
X0014022Y0054756D01*
X0014353Y0054910D01*
X0014687Y0055244D01*
X0014706Y0055272D01*
X0014712Y0055268D01*
X0014848Y0055413D01*
X0015084Y0055459D01*
X0015303Y0055358D01*
X0015312Y0055348D01*
X0015595Y0055066D01*
X0015985Y0054894D01*
X0016080Y0054883D01*
X0017060Y0054883D01*
X0017289Y0054808D01*
X0017355Y0054748D01*
X0017470Y0054615D01*
X0017830Y0054384D01*
X0017983Y0054197D01*
X0017996Y0053957D01*
X0017866Y0053754D01*
X0017642Y0053667D01*
X0017619Y0053666D01*
X0013656Y0053666D01*
X0013656Y0053666D01*
X0013557Y0053655D01*
X0013557Y0053655D01*
X0013153Y0053477D01*
X0012841Y0053165D01*
X0012651Y0052734D01*
X0012646Y0052737D01*
X0012532Y0052564D01*
X0012307Y0052478D01*
X0012107Y0052522D01*
X0011665Y0052755D01*
X0011014Y0052915D01*
X0011014Y0052915D01*
X0010345Y0052915D01*
X0010345Y0052915D01*
X0009786Y0052777D01*
X0009546Y0052795D01*
X0009362Y0052950D01*
X0009303Y0053156D01*
X0009303Y0055693D01*
X0011155Y0055693D01*
X0011158Y0055671D01*
X0011357Y0055244D01*
X0011691Y0054910D01*
X0012022Y0054756D01*
X0012022Y0054756D01*
X0012022Y0055693D01*
X0012022Y0055693D01*
X0011155Y0055693D01*
X0011155Y0055693D01*
X0009303Y0055693D01*
X0009303Y0071166D01*
X0027715Y0071166D01*
X0027787Y0070662D01*
X0027787Y0070662D01*
X0027787Y0070662D01*
X0027787Y0070662D01*
X0027998Y0070199D01*
X0028332Y0069814D01*
X0028760Y0069539D01*
X0029249Y0069395D01*
X0029249Y0069395D01*
X0029622Y0069395D01*
X0029851Y0069321D01*
X0029992Y0069126D01*
X0030011Y0069006D01*
X0030011Y0068012D01*
X0030045Y0067841D01*
X0030045Y0067841D01*
X0030176Y0067646D01*
X0030176Y0067646D01*
X0030176Y0067646D01*
X0030371Y0067515D01*
X0030538Y0067482D01*
X0030543Y0067481D01*
X0030543Y0067481D01*
X0033218Y0067481D01*
X0033218Y0067481D01*
X0033390Y0067515D01*
X0033585Y0067646D01*
X0033585Y0067646D01*
X0033601Y0067662D01*
X0033816Y0067772D01*
X0033877Y0067776D01*
X0034037Y0067776D01*
X0034113Y0067769D01*
X0034126Y0067766D01*
X0034182Y0067755D01*
X0034604Y0067839D01*
X0034604Y0067839D01*
X0034639Y0067854D01*
X0034644Y0067843D01*
X0034797Y0067889D01*
X0038125Y0067889D01*
X0038354Y0067815D01*
X0038481Y0067657D01*
X0038520Y0067569D01*
X0038832Y0067257D01*
X0038832Y0067257D01*
X0038832Y0067257D01*
X0039169Y0067108D01*
X0039235Y0067079D01*
X0039334Y0067068D01*
X0046182Y0067068D01*
X0046281Y0067079D01*
X0046685Y0067257D01*
X0046997Y0067569D01*
X0047175Y0067973D01*
X0047186Y0068071D01*
X0047186Y0069605D01*
X0047175Y0069704D01*
X0047175Y0069704D01*
X0047175Y0069704D01*
X0046997Y0070107D01*
X0046997Y0070107D01*
X0046997Y0070107D01*
X0046685Y0070419D01*
X0046685Y0070419D01*
X0046685Y0070419D01*
X0046281Y0070597D01*
X0046182Y0070609D01*
X0046182Y0070609D01*
X0040009Y0070609D01*
X0039780Y0070683D01*
X0039734Y0070723D01*
X0039125Y0071331D01*
X0039077Y0071390D01*
X0039029Y0071461D01*
X0038964Y0071693D01*
X0039047Y0071919D01*
X0039248Y0072053D01*
X0039353Y0072068D01*
X0046182Y0072068D01*
X0046281Y0072079D01*
X0046685Y0072257D01*
X0046997Y0072569D01*
X0047040Y0072668D01*
X0047055Y0072702D01*
X0047216Y0072881D01*
X0047412Y0072934D01*
X0050403Y0072934D01*
X0050632Y0072859D01*
X0050698Y0072799D01*
X0050847Y0072628D01*
X0051275Y0072353D01*
X0051763Y0072209D01*
X0051763Y0072209D01*
X0052273Y0072209D01*
X0052273Y0072209D01*
X0052761Y0072353D01*
X0052965Y0072483D01*
X0053198Y0072545D01*
X0053422Y0072457D01*
X0053470Y0072411D01*
X0053798Y0072033D01*
X0054226Y0071758D01*
X0054714Y0071614D01*
X0054714Y0071614D01*
X0055223Y0071614D01*
X0055223Y0071614D01*
X0055712Y0071758D01*
X0056140Y0072033D01*
X0056474Y0072418D01*
X0056685Y0072881D01*
X0056685Y0072881D01*
X0056758Y0073385D01*
X0056758Y0073385D01*
X0056685Y0073889D01*
X0056685Y0073889D01*
X0056685Y0073889D01*
X0056474Y0074352D01*
X0056140Y0074737D01*
X0056011Y0074820D01*
X0055712Y0075012D01*
X0055223Y0075155D01*
X0055223Y0075155D01*
X0054714Y0075155D01*
X0054714Y0075155D01*
X0054226Y0075012D01*
X0054022Y0074881D01*
X0053789Y0074820D01*
X0053565Y0074907D01*
X0053517Y0074953D01*
X0053482Y0074993D01*
X0053189Y0075331D01*
X0052761Y0075607D01*
X0052734Y0075614D01*
X0052273Y0075750D01*
X0052273Y0075750D01*
X0051763Y0075750D01*
X0051763Y0075750D01*
X0051275Y0075607D01*
X0051275Y0075607D01*
X0050847Y0075331D01*
X0050847Y0075331D01*
X0050847Y0075331D01*
X0050760Y0075231D01*
X0050554Y0075107D01*
X0050465Y0075097D01*
X0047168Y0075097D01*
X0046939Y0075171D01*
X0046893Y0075211D01*
X0046685Y0075419D01*
X0046685Y0075419D01*
X0046281Y0075597D01*
X0046182Y0075609D01*
X0039334Y0075609D01*
X0039334Y0075609D01*
X0039235Y0075597D01*
X0039235Y0075597D01*
X0038832Y0075419D01*
X0038832Y0075419D01*
X0038832Y0075419D01*
X0038584Y0075172D01*
X0038370Y0075062D01*
X0038309Y0075057D01*
X0033877Y0075057D01*
X0033648Y0075132D01*
X0033601Y0075172D01*
X0033585Y0075188D01*
X0033585Y0075188D01*
X0033520Y0075231D01*
X0033390Y0075319D01*
X0033218Y0075353D01*
X0033218Y0075353D01*
X0030543Y0075353D01*
X0030543Y0075353D01*
X0030371Y0075319D01*
X0030371Y0075319D01*
X0030176Y0075188D01*
X0030176Y0075188D01*
X0030045Y0074993D01*
X0030045Y0074993D01*
X0030011Y0074821D01*
X0030011Y0073326D01*
X0029937Y0073097D01*
X0029742Y0072955D01*
X0029622Y0072936D01*
X0029249Y0072936D01*
X0028760Y0072793D01*
X0028760Y0072793D01*
X0028332Y0072518D01*
X0028332Y0072518D01*
X0028332Y0072518D01*
X0028059Y0072202D01*
X0027998Y0072133D01*
X0027787Y0071670D01*
X0027787Y0071670D01*
X0027715Y0071166D01*
X0027715Y0071166D01*
X0009303Y0071166D01*
X0009303Y0074252D01*
X0017336Y0074252D01*
X0017408Y0073748D01*
X0017408Y0073748D01*
X0017408Y0073748D01*
X0017408Y0073748D01*
X0017620Y0073285D01*
X0017953Y0072900D01*
X0018381Y0072625D01*
X0018870Y0072481D01*
X0018870Y0072481D01*
X0019379Y0072481D01*
X0019379Y0072481D01*
X0019867Y0072625D01*
X0020296Y0072900D01*
X0020455Y0073084D01*
X0020662Y0073209D01*
X0020902Y0073188D01*
X0021084Y0073030D01*
X0021093Y0073013D01*
X0021098Y0073005D01*
X0021098Y0073005D01*
X0021098Y0073005D01*
X0021432Y0072620D01*
X0021860Y0072345D01*
X0022236Y0072234D01*
X0022286Y0072204D01*
X0022298Y0072204D01*
X0022343Y0072201D01*
X0022348Y0072201D01*
X0022863Y0072201D01*
X0022908Y0072204D01*
X0026467Y0072204D01*
X0026467Y0072204D01*
X0026467Y0072282D01*
X0026467Y0072282D01*
X0026421Y0072512D01*
X0026299Y0072695D01*
X0026233Y0072927D01*
X0026240Y0072988D01*
X0026269Y0073131D01*
X0026269Y0074821D01*
X0026235Y0074993D01*
X0026235Y0074993D01*
X0026104Y0075188D01*
X0026104Y0075188D01*
X0026097Y0075193D01*
X0025909Y0075319D01*
X0025737Y0075353D01*
X0025737Y0075353D01*
X0023843Y0075353D01*
X0023632Y0075415D01*
X0023346Y0075599D01*
X0023312Y0075609D01*
X0022857Y0075742D01*
X0022857Y0075742D01*
X0022348Y0075742D01*
X0022348Y0075742D01*
X0021860Y0075599D01*
X0021860Y0075599D01*
X0021432Y0075323D01*
X0021432Y0075323D01*
X0021432Y0075323D01*
X0021427Y0075319D01*
X0021272Y0075139D01*
X0021066Y0075015D01*
X0020826Y0075035D01*
X0020643Y0075193D01*
X0020634Y0075210D01*
X0020629Y0075219D01*
X0020629Y0075219D01*
X0020629Y0075219D01*
X0020296Y0075603D01*
X0020290Y0075607D01*
X0019867Y0075879D01*
X0019379Y0076022D01*
X0019379Y0076022D01*
X0018870Y0076022D01*
X0018870Y0076022D01*
X0018381Y0075879D01*
X0018381Y0075879D01*
X0017953Y0075603D01*
X0017953Y0075603D01*
X0017953Y0075603D01*
X0017717Y0075331D01*
X0017620Y0075219D01*
X0017408Y0074756D01*
X0017408Y0074756D01*
X0017336Y0074252D01*
X0017336Y0074252D01*
X0009303Y0074252D01*
X0009303Y0076874D01*
X0009378Y0077103D01*
X0009573Y0077244D01*
X0009693Y0077263D01*
X0065724Y0077263D01*
X0065954Y0077189D01*
G37*
X0086024Y0058268D02*
G01*
G75*
G36*
X0121244Y0070670D02*
X0120612Y0070544D01*
X0120117Y0070213D01*
X0119598Y0069940D01*
X0119331Y0070119D01*
X0119016Y0070181D01*
X0113741Y0070181D01*
X0113426Y0070119D01*
X0113159Y0069940D01*
X0112538Y0070074D01*
X0112375Y0070182D01*
X0111684Y0070320D01*
X0110993Y0070182D01*
X0110882Y0070108D01*
X0110867Y0070119D01*
X0110552Y0070181D01*
X0105276Y0070181D01*
X0104961Y0070119D01*
X0104694Y0069940D01*
X0104649Y0069873D01*
X0104631Y0069866D01*
X0104011Y0069866D01*
X0103993Y0069873D01*
X0103948Y0069940D01*
X0103682Y0070119D01*
X0103367Y0070181D01*
X0098091Y0070181D01*
X0097776Y0070119D01*
X0097509Y0069940D01*
X0097331Y0069673D01*
X0097268Y0069358D01*
X0097268Y0067626D01*
X0097331Y0067311D01*
X0097509Y0067044D01*
X0097776Y0066866D01*
X0098091Y0066803D01*
X0100236Y0066803D01*
X0100611Y0066347D01*
X0100591Y0066246D01*
X0100728Y0065555D01*
X0101120Y0064969D01*
X0101706Y0064577D01*
X0102397Y0064440D01*
X0103088Y0064577D01*
X0103461Y0064826D01*
X0104052Y0064552D01*
X0104052Y0063886D01*
X0104145Y0063417D01*
X0104389Y0063052D01*
X0104295Y0062812D01*
X0104254Y0062737D01*
X0103790Y0062566D01*
X0103682Y0062638D01*
X0103367Y0062701D01*
X0098091Y0062701D01*
X0097802Y0062644D01*
X0097581Y0062791D01*
X0096890Y0062929D01*
X0096344Y0062820D01*
X0096003Y0063197D01*
X0095954Y0063299D01*
X0096033Y0063417D01*
X0096126Y0063886D01*
X0096126Y0063965D01*
X0092264Y0063965D01*
X0092264Y0065539D01*
X0096126Y0065539D01*
X0096126Y0065618D01*
X0096033Y0066087D01*
X0095768Y0066484D01*
X0095738Y0066504D01*
X0095690Y0066606D01*
X0095625Y0067255D01*
X0095662Y0067311D01*
X0095725Y0067626D01*
X0095725Y0069358D01*
X0095662Y0069673D01*
X0095484Y0069940D01*
X0095217Y0070119D01*
X0094902Y0070181D01*
X0089626Y0070181D01*
X0089312Y0070119D01*
X0088766Y0070065D01*
X0088050Y0070544D01*
X0087418Y0070670D01*
X0087477Y0071260D01*
X0121186Y0071260D01*
X0121244Y0070670D01*
D02*
G37*
G36*
X0120127Y0066789D02*
X0120612Y0066464D01*
X0121457Y0066296D01*
X0121457Y0063232D01*
X0120612Y0063064D01*
X0120123Y0062737D01*
X0119598Y0062460D01*
X0119331Y0062638D01*
X0119016Y0062701D01*
X0113741Y0062701D01*
X0113426Y0062638D01*
X0113159Y0062460D01*
X0112980Y0062193D01*
X0112945Y0062016D01*
X0111768Y0062016D01*
X0111420Y0062451D01*
X0111417Y0063020D01*
X0111683Y0063417D01*
X0111776Y0063886D01*
X0111776Y0063965D01*
X0107914Y0063965D01*
X0107914Y0065539D01*
X0111776Y0065539D01*
X0111776Y0065618D01*
X0111683Y0066087D01*
X0111645Y0066143D01*
X0111648Y0066190D01*
X0111944Y0066759D01*
X0112375Y0066845D01*
X0112518Y0066940D01*
X0113159Y0067044D01*
X0113426Y0066866D01*
X0113741Y0066803D01*
X0119016Y0066803D01*
X0119331Y0066866D01*
X0119598Y0067044D01*
X0120127Y0066789D01*
D02*
G37*
G36*
X0087072Y0062573D02*
X0086975Y0062086D01*
X0087113Y0061395D01*
X0087504Y0060809D01*
X0088090Y0060417D01*
X0088781Y0060280D01*
X0088803Y0060262D01*
X0088803Y0060146D01*
X0088866Y0059831D01*
X0089045Y0059564D01*
X0089311Y0059386D01*
X0089626Y0059323D01*
X0094902Y0059323D01*
X0095217Y0059386D01*
X0095484Y0059564D01*
X0095907Y0059648D01*
X0096199Y0059453D01*
X0096890Y0059316D01*
X0097581Y0059453D01*
X0097628Y0059484D01*
X0097776Y0059386D01*
X0098091Y0059323D01*
X0103367Y0059323D01*
X0103682Y0059386D01*
X0103948Y0059564D01*
X0103993Y0059631D01*
X0104011Y0059638D01*
X0104631Y0059638D01*
X0104649Y0059631D01*
X0104694Y0059564D01*
X0104961Y0059386D01*
X0105276Y0059323D01*
X0110552Y0059323D01*
X0110867Y0059386D01*
X0111133Y0059564D01*
X0111312Y0059831D01*
X0111347Y0060008D01*
X0112945Y0060008D01*
X0112980Y0059831D01*
X0113159Y0059564D01*
X0113426Y0059386D01*
X0113741Y0059323D01*
X0119016Y0059323D01*
X0119331Y0059386D01*
X0119598Y0059564D01*
X0120134Y0059304D01*
X0120612Y0058984D01*
X0121244Y0058859D01*
X0121186Y0058268D01*
X0086024Y0058268D01*
X0086024Y0062490D01*
X0086517Y0062807D01*
X0087072Y0062573D01*
D02*
G37*
D24*
X0096890Y0061122D02*
X0096945Y0061067D01*
X0100579Y0061067D01*
X0100635Y0061012D01*
X0110264Y0068358D02*
X0110264Y0068393D01*
X0111673Y0068503D02*
X0111684Y0068514D01*
X0110264Y0068393D02*
X0110374Y0068503D01*
X0111673Y0068503D01*
X0088781Y0062086D02*
X0089208Y0062086D01*
X0089593Y0061701D01*
X0091481Y0061701D01*
X0092170Y0061012D01*
X0107914Y0061012D02*
X0114607Y0061012D01*
X0116763Y0061397D02*
X0120617Y0061397D01*
X0116378Y0061012D02*
X0116763Y0061397D01*
X0120617Y0061397D02*
X0121031Y0061811D01*
X0121457Y0061811D01*
X0091859Y0068898D02*
X0092264Y0068492D01*
X0087205Y0068898D02*
X0091859Y0068898D01*
D32*
X0100729Y0068492D02*
D03*
X0100729Y0061012D02*
D03*
X0092264Y0061012D02*
D03*
X0092264Y0064752D02*
D03*
X0116378Y0068492D02*
D03*
X0116378Y0061012D02*
D03*
X0107914Y0061012D02*
D03*
X0107914Y0064752D02*
D03*
D32*
X0092264Y0068492D02*
D03*
X0107914Y0068492D02*
D03*
D12*
X0104331Y0070866D02*
D03*
X0104331Y0058662D02*
D03*
D11*
X0086418Y0060729D02*
D03*
D29*
X0103925Y0063888D02*
X0104198Y0064162D01*
X0107323Y0064162D01*
X0107914Y0064752D01*
X0100194Y0063888D02*
X0103925Y0063888D01*
X0099966Y0064115D02*
X0100194Y0063888D01*
X0092602Y0064308D02*
X0093255Y0064961D01*
X0092229Y0064308D02*
X0092602Y0064308D01*
D33*
X0102356Y0066287D02*
X0102356Y0068184D01*
X0102356Y0066287D02*
X0102397Y0066246D01*
D34*
X0116384Y0068498D02*
X0121451Y0068498D01*
X0121457Y0068504D01*
X0116378Y0068492D02*
X0116384Y0068498D01*
D10*
X0121457Y0068504D02*
D03*
X0121457Y0064764D02*
D03*
X0121457Y0061024D02*
D03*
X0087205Y0064961D02*
D03*
X0087205Y0068504D02*
D03*
X0096890Y0061122D02*
D03*
X0111684Y0068514D02*
D03*
X0102397Y0066246D02*
D03*
X0088781Y0062086D02*
D03*
X0087264Y0059553D02*
D03*
X0099966Y0064115D02*
D03*
X0097227Y0065171D02*
D03*
X0048228Y0002559D02*
G01*
G75*
G36*
X0124159Y0033722D02*
X0124159Y0033062D01*
X0123659Y0032662D01*
X0123425Y0032708D01*
X0120275Y0032708D01*
X0119661Y0032586D01*
X0119140Y0032238D01*
X0118792Y0031717D01*
X0118670Y0031102D01*
X0118670Y0026181D01*
X0118792Y0025567D01*
X0119105Y0025098D01*
X0118792Y0024630D01*
X0118670Y0024016D01*
X0118670Y0019094D01*
X0118792Y0018480D01*
X0119105Y0018012D01*
X0118792Y0017544D01*
X0118670Y0016929D01*
X0118670Y0012008D01*
X0118792Y0011393D01*
X0119072Y0010974D01*
X0118792Y0010555D01*
X0118670Y0009941D01*
X0118670Y0005020D01*
X0118792Y0004405D01*
X0119140Y0003884D01*
X0119491Y0003650D01*
X0119340Y0003150D01*
X0064404Y0003150D01*
X0064255Y0003612D01*
X0064263Y0003650D01*
X0064800Y0004009D01*
X0065173Y0004567D01*
X0065205Y0004726D01*
X0060728Y0004726D01*
X0056251Y0004726D01*
X0056283Y0004567D01*
X0056656Y0004009D01*
X0057193Y0003650D01*
X0057201Y0003612D01*
X0057052Y0003150D01*
X0050326Y0003150D01*
X0049311Y0004035D01*
X0049311Y0008118D01*
X0049688Y0008446D01*
X0050173Y0008394D01*
X0050173Y0007972D01*
X0050265Y0007512D01*
X0050526Y0007121D01*
X0050917Y0006860D01*
X0051378Y0006768D01*
X0054921Y0006768D01*
X0055382Y0006860D01*
X0055772Y0007121D01*
X0055932Y0007359D01*
X0056458Y0007277D01*
X0056483Y0007150D01*
X0056585Y0006998D01*
X0056656Y0006444D01*
X0056283Y0005885D01*
X0056251Y0005726D01*
X0060728Y0005726D01*
X0065205Y0005726D01*
X0065173Y0005885D01*
X0064800Y0006444D01*
X0064871Y0006998D01*
X0064973Y0007150D01*
X0065088Y0007726D01*
X0064973Y0008302D01*
X0064871Y0008455D01*
X0064800Y0009009D01*
X0065173Y0009567D01*
X0065205Y0009726D01*
X0060728Y0009726D01*
X0060728Y0010726D01*
X0065205Y0010726D01*
X0065173Y0010885D01*
X0064800Y0011444D01*
X0064871Y0011998D01*
X0064973Y0012150D01*
X0065088Y0012726D01*
X0064973Y0013302D01*
X0064753Y0013632D01*
X0064684Y0013976D01*
X0064753Y0014321D01*
X0064973Y0014650D01*
X0065088Y0015226D01*
X0064973Y0015802D01*
X0064871Y0015955D01*
X0064800Y0016509D01*
X0065173Y0017067D01*
X0065205Y0017226D01*
X0060728Y0017226D01*
X0060728Y0018226D01*
X0065205Y0018226D01*
X0065173Y0018385D01*
X0064800Y0018944D01*
X0064871Y0019498D01*
X0064973Y0019650D01*
X0065088Y0020226D01*
X0064973Y0020802D01*
X0064871Y0020955D01*
X0064800Y0021509D01*
X0065173Y0022067D01*
X0065205Y0022226D01*
X0060728Y0022226D01*
X0060728Y0023226D01*
X0065205Y0023226D01*
X0065173Y0023385D01*
X0064800Y0023944D01*
X0064486Y0024154D01*
X0064603Y0024329D01*
X0064686Y0024744D01*
X0064686Y0027815D01*
X0064603Y0028230D01*
X0064368Y0028581D01*
X0064290Y0028634D01*
X0064505Y0028955D01*
X0064587Y0029370D01*
X0064587Y0032441D01*
X0064505Y0032856D01*
X0064270Y0033207D01*
X0063918Y0033442D01*
X0063504Y0033525D01*
X0061299Y0033525D01*
X0060884Y0033442D01*
X0060532Y0033207D01*
X0060298Y0032856D01*
X0060215Y0032441D01*
X0060215Y0032336D01*
X0055603Y0032336D01*
X0055541Y0032646D01*
X0055280Y0033037D01*
X0054890Y0033298D01*
X0054429Y0033389D01*
X0050940Y0033389D01*
X0050827Y0033523D01*
X0050679Y0033858D01*
X0050842Y0034055D01*
X0071073Y0034061D01*
X0071350Y0033757D01*
X0071292Y0033235D01*
X0071060Y0033067D01*
X0070602Y0033158D01*
X0070569Y0033207D01*
X0070218Y0033442D01*
X0069803Y0033525D01*
X0067598Y0033525D01*
X0067183Y0033442D01*
X0066832Y0033207D01*
X0066597Y0032856D01*
X0066514Y0032441D01*
X0066514Y0029370D01*
X0066597Y0028955D01*
X0066832Y0028604D01*
X0066910Y0028551D01*
X0066695Y0028230D01*
X0066613Y0027815D01*
X0066613Y0024744D01*
X0066695Y0024329D01*
X0066930Y0023978D01*
X0067282Y0023743D01*
X0067696Y0023660D01*
X0069901Y0023660D01*
X0070316Y0023743D01*
X0070668Y0023978D01*
X0070677Y0023992D01*
X0070786Y0024051D01*
X0070875Y0024076D01*
X0071324Y0024082D01*
X0071331Y0024078D01*
X0071400Y0024013D01*
X0071459Y0023945D01*
X0071511Y0023870D01*
X0071556Y0023785D01*
X0071596Y0023688D01*
X0071629Y0023576D01*
X0071654Y0023447D01*
X0071662Y0023382D01*
X0071662Y0022104D01*
X0071662Y0022104D01*
X0071784Y0021489D01*
X0072132Y0020968D01*
X0076415Y0016685D01*
X0076604Y0016559D01*
X0076765Y0015900D01*
X0076755Y0015885D01*
X0076723Y0015726D01*
X0081200Y0015726D01*
X0081200Y0014726D01*
X0076723Y0014726D01*
X0076755Y0014567D01*
X0076881Y0014380D01*
X0077110Y0013976D01*
X0076881Y0013573D01*
X0076755Y0013385D01*
X0076723Y0013226D01*
X0081200Y0013226D01*
X0081200Y0012226D01*
X0076723Y0012226D01*
X0076755Y0012067D01*
X0076881Y0011880D01*
X0077110Y0011476D01*
X0076881Y0011073D01*
X0076755Y0010885D01*
X0076723Y0010726D01*
X0081200Y0010726D01*
X0081200Y0009726D01*
X0076723Y0009726D01*
X0076755Y0009567D01*
X0077128Y0009009D01*
X0077057Y0008455D01*
X0076955Y0008302D01*
X0076841Y0007726D01*
X0076955Y0007150D01*
X0077175Y0006821D01*
X0077245Y0006476D01*
X0077175Y0006132D01*
X0076955Y0005802D01*
X0076841Y0005226D01*
X0076955Y0004650D01*
X0077282Y0004162D01*
X0077770Y0003836D01*
X0078346Y0003721D01*
X0084055Y0003721D01*
X0084440Y0003798D01*
X0084454Y0003797D01*
X0084472Y0003804D01*
X0084631Y0003836D01*
X0084734Y0003904D01*
X0084747Y0003909D01*
X0084836Y0003965D01*
X0084905Y0004004D01*
X0084975Y0004038D01*
X0085043Y0004066D01*
X0085112Y0004089D01*
X0085180Y0004108D01*
X0085250Y0004123D01*
X0085321Y0004134D01*
X0085335Y0004135D01*
X0086104Y0004135D01*
X0086266Y0004119D01*
X0086322Y0004110D01*
X0086371Y0004099D01*
X0086405Y0004090D01*
X0086423Y0004083D01*
X0086425Y0004082D01*
X0086451Y0004067D01*
X0086459Y0004064D01*
X0086547Y0004005D01*
X0086665Y0003982D01*
X0086678Y0003976D01*
X0086696Y0003976D01*
X0086731Y0003969D01*
X0086746Y0003964D01*
X0086755Y0003964D01*
X0087008Y0003914D01*
X0091929Y0003914D01*
X0092390Y0004005D01*
X0092412Y0004021D01*
X0092815Y0004247D01*
X0093217Y0004021D01*
X0093240Y0004005D01*
X0093700Y0003914D01*
X0098622Y0003914D01*
X0099083Y0004005D01*
X0099542Y0004168D01*
X0099933Y0003907D01*
X0100393Y0003815D01*
X0103543Y0003815D01*
X0104004Y0003907D01*
X0104394Y0004168D01*
X0104656Y0004559D01*
X0104747Y0005020D01*
X0104747Y0009941D01*
X0104656Y0010402D01*
X0104504Y0010628D01*
X0104432Y0010974D01*
X0104504Y0011320D01*
X0104656Y0011547D01*
X0104747Y0012008D01*
X0104747Y0016929D01*
X0104656Y0017390D01*
X0104394Y0017781D01*
X0104296Y0018243D01*
X0104370Y0018353D01*
X0104557Y0018634D01*
X0104649Y0019094D01*
X0104649Y0024016D01*
X0104557Y0024477D01*
X0104296Y0024867D01*
X0104296Y0025330D01*
X0104557Y0025720D01*
X0104649Y0026181D01*
X0104649Y0031102D01*
X0104557Y0031563D01*
X0104296Y0031954D01*
X0103905Y0032215D01*
X0103444Y0032307D01*
X0100295Y0032307D01*
X0099834Y0032215D01*
X0099443Y0031954D01*
X0099182Y0031563D01*
X0099091Y0031102D01*
X0099091Y0029943D01*
X0098591Y0029537D01*
X0098523Y0029551D01*
X0093602Y0029551D01*
X0093141Y0029459D01*
X0093119Y0029444D01*
X0092716Y0029217D01*
X0092314Y0029444D01*
X0092291Y0029459D01*
X0091830Y0029551D01*
X0086909Y0029551D01*
X0086448Y0029459D01*
X0086058Y0029198D01*
X0085797Y0028807D01*
X0085705Y0028346D01*
X0085705Y0026164D01*
X0085669Y0026110D01*
X0085315Y0025690D01*
X0084015Y0024390D01*
X0083898Y0024281D01*
X0083836Y0024232D01*
X0082448Y0024232D01*
X0082126Y0024732D01*
X0082187Y0025039D01*
X0082187Y0025878D01*
X0076788Y0025878D01*
X0076788Y0025039D01*
X0076892Y0024519D01*
X0077071Y0024251D01*
X0077282Y0023791D01*
X0076955Y0023302D01*
X0076841Y0022726D01*
X0076955Y0022150D01*
X0077175Y0021821D01*
X0077214Y0021628D01*
X0076987Y0021242D01*
X0076461Y0021180D01*
X0074873Y0022769D01*
X0074873Y0023382D01*
X0074880Y0023447D01*
X0074906Y0023576D01*
X0074939Y0023688D01*
X0074978Y0023785D01*
X0075024Y0023870D01*
X0075075Y0023945D01*
X0075135Y0024013D01*
X0075204Y0024078D01*
X0075318Y0024163D01*
X0075325Y0024170D01*
X0075415Y0024230D01*
X0075517Y0024383D01*
X0075528Y0024395D01*
X0075531Y0024405D01*
X0075663Y0024601D01*
X0075750Y0025039D01*
X0075750Y0027716D01*
X0075663Y0028154D01*
X0075415Y0028525D01*
X0075564Y0028932D01*
X0075652Y0029370D01*
X0075652Y0032047D01*
X0075564Y0032485D01*
X0075316Y0032856D01*
X0074945Y0033104D01*
X0074508Y0033191D01*
X0074139Y0033191D01*
X0074139Y0033957D01*
X0074225Y0034062D01*
X0123805Y0034076D01*
X0124159Y0033722D01*
D02*
G37*
G36*
X0073232Y0033012D02*
X0073244Y0032876D01*
X0073259Y0032785D01*
X0073287Y0032785D01*
X0073275Y0032761D01*
X0073269Y0032735D01*
X0073291Y0032652D01*
X0073326Y0032564D01*
X0073370Y0032492D01*
X0073421Y0032436D01*
X0073480Y0032396D01*
X0073547Y0032372D01*
X0073622Y0032364D01*
X0073237Y0032364D01*
X0073230Y0032197D01*
X0073228Y0031910D01*
X0072441Y0031910D01*
X0072440Y0032061D01*
X0072420Y0032364D01*
X0072047Y0032364D01*
X0072122Y0032372D01*
X0072189Y0032396D01*
X0072248Y0032436D01*
X0072299Y0032492D01*
X0072342Y0032564D01*
X0072378Y0032652D01*
X0072396Y0032721D01*
X0072393Y0032761D01*
X0072382Y0032785D01*
X0072410Y0032785D01*
X0072425Y0032876D01*
X0072437Y0033012D01*
X0072441Y0033164D01*
X0073228Y0033164D01*
X0073232Y0033012D01*
D02*
G37*
G36*
X0071513Y0029921D02*
X0071505Y0029996D01*
X0071481Y0030063D01*
X0071441Y0030122D01*
X0071385Y0030173D01*
X0071314Y0030216D01*
X0071226Y0030252D01*
X0071122Y0030279D01*
X0071002Y0030299D01*
X0070866Y0030311D01*
X0070786Y0030313D01*
X0070707Y0030311D01*
X0070571Y0030299D01*
X0070451Y0030279D01*
X0070347Y0030252D01*
X0070259Y0030216D01*
X0070187Y0030173D01*
X0070131Y0030122D01*
X0070091Y0030063D01*
X0070067Y0029996D01*
X0070060Y0029921D01*
X0070060Y0031496D01*
X0070067Y0031421D01*
X0070091Y0031354D01*
X0070131Y0031295D01*
X0070187Y0031244D01*
X0070259Y0031201D01*
X0070347Y0031165D01*
X0070451Y0031138D01*
X0070571Y0031118D01*
X0070707Y0031106D01*
X0070786Y0031104D01*
X0070866Y0031106D01*
X0071002Y0031118D01*
X0071122Y0031138D01*
X0071226Y0031165D01*
X0071314Y0031201D01*
X0071385Y0031244D01*
X0071441Y0031295D01*
X0071481Y0031354D01*
X0071505Y0031421D01*
X0071513Y0031496D01*
X0071513Y0029921D01*
D02*
G37*
G36*
X0061042Y0030345D02*
X0061034Y0030419D01*
X0061010Y0030486D01*
X0060970Y0030545D01*
X0060914Y0030597D01*
X0060842Y0030640D01*
X0060754Y0030675D01*
X0060650Y0030703D01*
X0060531Y0030722D01*
X0060395Y0030734D01*
X0060243Y0030738D01*
X0060243Y0031526D01*
X0060395Y0031530D01*
X0060531Y0031541D01*
X0060650Y0031561D01*
X0060754Y0031589D01*
X0060842Y0031624D01*
X0060914Y0031667D01*
X0060970Y0031719D01*
X0061010Y0031778D01*
X0061034Y0031844D01*
X0061042Y0031919D01*
X0061042Y0030345D01*
D02*
G37*
G36*
X0054814Y0031844D02*
X0054838Y0031778D01*
X0054878Y0031719D01*
X0054934Y0031667D01*
X0055006Y0031624D01*
X0055094Y0031589D01*
X0055198Y0031561D01*
X0055318Y0031541D01*
X0055454Y0031530D01*
X0055605Y0031526D01*
X0055605Y0030738D01*
X0055454Y0030734D01*
X0055318Y0030722D01*
X0055198Y0030703D01*
X0055094Y0030675D01*
X0055006Y0030640D01*
X0054934Y0030597D01*
X0054878Y0030545D01*
X0054838Y0030486D01*
X0054814Y0030419D01*
X0054806Y0030345D01*
X0054806Y0031919D01*
X0054814Y0031844D01*
D02*
G37*
G36*
X0069462Y0029105D02*
X0069395Y0029081D01*
X0069336Y0029041D01*
X0069285Y0028985D01*
X0069242Y0028913D01*
X0069206Y0028826D01*
X0069179Y0028722D01*
X0069159Y0028602D01*
X0069158Y0028592D01*
X0069159Y0028583D01*
X0069179Y0028463D01*
X0069206Y0028359D01*
X0069242Y0028271D01*
X0069285Y0028200D01*
X0069336Y0028144D01*
X0069395Y0028104D01*
X0069462Y0028080D01*
X0069537Y0028072D01*
X0067962Y0028072D01*
X0068037Y0028080D01*
X0068104Y0028104D01*
X0068163Y0028144D01*
X0068214Y0028200D01*
X0068258Y0028271D01*
X0068293Y0028359D01*
X0068320Y0028463D01*
X0068340Y0028583D01*
X0068341Y0028592D01*
X0068340Y0028602D01*
X0068320Y0028722D01*
X0068293Y0028826D01*
X0068258Y0028913D01*
X0068214Y0028985D01*
X0068163Y0029041D01*
X0068104Y0029081D01*
X0068037Y0029105D01*
X0067962Y0029113D01*
X0069537Y0029113D01*
X0069462Y0029105D01*
D02*
G37*
G36*
X0074013Y0029306D02*
X0074028Y0029133D01*
X0074740Y0029137D01*
X0074601Y0029032D01*
X0074476Y0028914D01*
X0074366Y0028781D01*
X0074270Y0028634D01*
X0074189Y0028474D01*
X0074177Y0028442D01*
X0074201Y0028380D01*
X0074287Y0028231D01*
X0074388Y0028116D01*
X0074505Y0028034D01*
X0074638Y0027985D01*
X0074786Y0027970D01*
X0074045Y0027965D01*
X0074035Y0027911D01*
X0074013Y0027695D01*
X0074006Y0027466D01*
X0072431Y0027466D01*
X0072423Y0027781D01*
X0072409Y0027954D01*
X0071696Y0027949D01*
X0071836Y0028054D01*
X0071961Y0028173D01*
X0072071Y0028306D01*
X0072166Y0028452D01*
X0072247Y0028612D01*
X0072260Y0028645D01*
X0072236Y0028707D01*
X0072150Y0028855D01*
X0072048Y0028971D01*
X0071931Y0029052D01*
X0071798Y0029101D01*
X0071650Y0029117D01*
X0072392Y0029122D01*
X0072401Y0029176D01*
X0072423Y0029391D01*
X0072431Y0029620D01*
X0074006Y0029620D01*
X0074013Y0029306D01*
D02*
G37*
G36*
X0099947Y0026036D02*
X0099937Y0026110D01*
X0099911Y0026177D01*
X0099869Y0026235D01*
X0099811Y0026286D01*
X0099736Y0026329D01*
X0099645Y0026365D01*
X0099538Y0026392D01*
X0099414Y0026412D01*
X0099414Y0026412D01*
X0099412Y0026411D01*
X0099292Y0026392D01*
X0099188Y0026364D01*
X0099100Y0026329D01*
X0099028Y0026286D01*
X0098972Y0026234D01*
X0098932Y0026175D01*
X0098909Y0026108D01*
X0098901Y0026033D01*
X0098901Y0027608D01*
X0098909Y0027533D01*
X0098932Y0027467D01*
X0098972Y0027407D01*
X0099028Y0027356D01*
X0099100Y0027313D01*
X0099188Y0027278D01*
X0099292Y0027250D01*
X0099410Y0027231D01*
X0099529Y0027250D01*
X0099634Y0027278D01*
X0099722Y0027313D01*
X0099793Y0027356D01*
X0099849Y0027407D01*
X0099888Y0027467D01*
X0099911Y0027533D01*
X0099918Y0027608D01*
X0099947Y0026036D01*
D02*
G37*
G36*
X0123810Y0028370D02*
X0123834Y0028303D01*
X0123874Y0028244D01*
X0123930Y0028193D01*
X0124002Y0028150D01*
X0124090Y0028114D01*
X0124117Y0028107D01*
X0124123Y0028110D01*
X0124123Y0028105D01*
X0124194Y0028087D01*
X0124314Y0028067D01*
X0124450Y0028055D01*
X0124601Y0028051D01*
X0124601Y0027264D01*
X0124450Y0027260D01*
X0124314Y0027248D01*
X0124194Y0027228D01*
X0124123Y0027210D01*
X0124123Y0027205D01*
X0124117Y0027208D01*
X0124090Y0027201D01*
X0124002Y0027165D01*
X0123930Y0027122D01*
X0123874Y0027071D01*
X0123834Y0027012D01*
X0123810Y0026945D01*
X0123802Y0026870D01*
X0123802Y0027251D01*
X0123535Y0027261D01*
X0123248Y0027264D01*
X0123248Y0028051D01*
X0123399Y0028052D01*
X0123802Y0028079D01*
X0123802Y0028445D01*
X0123810Y0028370D01*
D02*
G37*
G36*
X0093225Y0025984D02*
X0093217Y0026059D01*
X0093193Y0026126D01*
X0093153Y0026185D01*
X0093097Y0026236D01*
X0093025Y0026280D01*
X0092937Y0026315D01*
X0092833Y0026343D01*
X0092716Y0026362D01*
X0092599Y0026343D01*
X0092495Y0026315D01*
X0092407Y0026280D01*
X0092335Y0026236D01*
X0092280Y0026185D01*
X0092240Y0026126D01*
X0092216Y0026059D01*
X0092208Y0025984D01*
X0092208Y0027559D01*
X0092216Y0027484D01*
X0092240Y0027417D01*
X0092280Y0027358D01*
X0092335Y0027307D01*
X0092407Y0027264D01*
X0092495Y0027228D01*
X0092599Y0027201D01*
X0092716Y0027182D01*
X0092833Y0027201D01*
X0092937Y0027228D01*
X0093025Y0027264D01*
X0093097Y0027307D01*
X0093153Y0027358D01*
X0093193Y0027417D01*
X0093217Y0027484D01*
X0093225Y0027559D01*
X0093225Y0025984D01*
D02*
G37*
G36*
X0061140Y0025492D02*
X0061132Y0025567D01*
X0061108Y0025634D01*
X0061069Y0025693D01*
X0061013Y0025744D01*
X0060941Y0025787D01*
X0060853Y0025823D01*
X0060749Y0025850D01*
X0060629Y0025870D01*
X0060493Y0025882D01*
X0060341Y0025886D01*
X0060341Y0026673D01*
X0060493Y0026677D01*
X0060629Y0026689D01*
X0060749Y0026709D01*
X0060853Y0026736D01*
X0060941Y0026772D01*
X0061013Y0026815D01*
X0061069Y0026866D01*
X0061108Y0026925D01*
X0061132Y0026992D01*
X0061140Y0027067D01*
X0061140Y0025492D01*
D02*
G37*
G36*
X0087250Y0024820D02*
X0087207Y0024881D01*
X0087150Y0024916D01*
X0087079Y0024927D01*
X0086993Y0024912D01*
X0086894Y0024872D01*
X0086780Y0024807D01*
X0086651Y0024717D01*
X0086509Y0024602D01*
X0086181Y0024296D01*
X0085686Y0024914D01*
X0085878Y0025112D01*
X0086313Y0025628D01*
X0086409Y0025774D01*
X0086482Y0025906D01*
X0086530Y0026026D01*
X0086555Y0026132D01*
X0086555Y0026225D01*
X0086532Y0026305D01*
X0087250Y0024820D01*
D02*
G37*
G36*
X0050900Y0024457D02*
X0050939Y0024447D01*
X0050992Y0024438D01*
X0051139Y0024424D01*
X0051464Y0024412D01*
X0051751Y0024409D01*
X0051751Y0023622D01*
X0051601Y0023621D01*
X0050900Y0023574D01*
X0050876Y0023563D01*
X0050876Y0024468D01*
X0050900Y0024457D01*
D02*
G37*
G36*
X0085280Y0023394D02*
X0085183Y0023295D01*
X0085016Y0023100D01*
X0084945Y0023005D01*
X0084827Y0022818D01*
X0084781Y0022727D01*
X0084743Y0022637D01*
X0084714Y0022549D01*
X0084692Y0022462D01*
X0083631Y0023405D01*
X0083694Y0023364D01*
X0083767Y0023344D01*
X0083851Y0023346D01*
X0083945Y0023369D01*
X0084048Y0023413D01*
X0084163Y0023478D01*
X0084287Y0023565D01*
X0084422Y0023672D01*
X0084723Y0023951D01*
X0085280Y0023394D01*
D02*
G37*
G36*
X0074690Y0024696D02*
X0074556Y0024572D01*
X0074439Y0024436D01*
X0074337Y0024288D01*
X0074251Y0024127D01*
X0074180Y0023954D01*
X0074125Y0023768D01*
X0074086Y0023570D01*
X0074063Y0023359D01*
X0074055Y0023136D01*
X0072480Y0023136D01*
X0072472Y0023359D01*
X0072449Y0023570D01*
X0072409Y0023768D01*
X0072354Y0023954D01*
X0072284Y0024127D01*
X0072198Y0024288D01*
X0072096Y0024436D01*
X0071978Y0024572D01*
X0071845Y0024696D01*
X0071696Y0024807D01*
X0074839Y0024807D01*
X0074690Y0024696D01*
D02*
G37*
G36*
X0052460Y0021959D02*
X0052422Y0021940D01*
X0052390Y0021909D01*
X0052361Y0021865D01*
X0052337Y0021809D01*
X0052317Y0021740D01*
X0052302Y0021659D01*
X0052291Y0021565D01*
X0052284Y0021459D01*
X0052282Y0021340D01*
X0051495Y0021340D01*
X0051492Y0021459D01*
X0051475Y0021659D01*
X0051460Y0021740D01*
X0051440Y0021809D01*
X0051416Y0021865D01*
X0051387Y0021909D01*
X0051354Y0021940D01*
X0051317Y0021959D01*
X0051275Y0021965D01*
X0052501Y0021965D01*
X0052460Y0021959D01*
D02*
G37*
G36*
X0123810Y0021579D02*
X0123834Y0021512D01*
X0123874Y0021453D01*
X0123930Y0021402D01*
X0124002Y0021358D01*
X0124090Y0021323D01*
X0124117Y0021315D01*
X0124123Y0021318D01*
X0124123Y0021314D01*
X0124194Y0021295D01*
X0124314Y0021276D01*
X0124450Y0021264D01*
X0124601Y0021260D01*
X0124601Y0020472D01*
X0124450Y0020468D01*
X0124314Y0020457D01*
X0124194Y0020437D01*
X0124123Y0020418D01*
X0124123Y0020414D01*
X0124117Y0020417D01*
X0124090Y0020409D01*
X0124002Y0020374D01*
X0123930Y0020331D01*
X0123874Y0020279D01*
X0123834Y0020220D01*
X0123810Y0020153D01*
X0123802Y0020079D01*
X0123802Y0020460D01*
X0123535Y0020470D01*
X0123248Y0020472D01*
X0123248Y0021260D01*
X0123399Y0021260D01*
X0123802Y0021287D01*
X0123802Y0021653D01*
X0123810Y0021579D01*
D02*
G37*
G36*
X0093225Y0018504D02*
X0093217Y0018579D01*
X0093193Y0018646D01*
X0093153Y0018705D01*
X0093097Y0018756D01*
X0093025Y0018799D01*
X0092937Y0018835D01*
X0092833Y0018862D01*
X0092716Y0018881D01*
X0092599Y0018862D01*
X0092495Y0018835D01*
X0092407Y0018799D01*
X0092335Y0018756D01*
X0092280Y0018705D01*
X0092240Y0018646D01*
X0092216Y0018579D01*
X0092208Y0018504D01*
X0092208Y0020079D01*
X0092216Y0020004D01*
X0092240Y0019937D01*
X0092280Y0019878D01*
X0092335Y0019827D01*
X0092407Y0019783D01*
X0092495Y0019748D01*
X0092599Y0019720D01*
X0092716Y0019701D01*
X0092833Y0019720D01*
X0092937Y0019748D01*
X0093025Y0019783D01*
X0093097Y0019827D01*
X0093153Y0019878D01*
X0093193Y0019937D01*
X0093217Y0020004D01*
X0093225Y0020079D01*
X0093225Y0018504D01*
D02*
G37*
G36*
X0100146Y0018735D02*
X0100092Y0018766D01*
X0100030Y0018794D01*
X0099957Y0018818D01*
X0099875Y0018839D01*
X0099783Y0018857D01*
X0099570Y0018883D01*
X0099489Y0018889D01*
X0099412Y0018882D01*
X0099292Y0018862D01*
X0099188Y0018835D01*
X0099100Y0018799D01*
X0099028Y0018756D01*
X0098972Y0018705D01*
X0098932Y0018646D01*
X0098909Y0018579D01*
X0098901Y0018504D01*
X0098901Y0020079D01*
X0098909Y0020004D01*
X0098932Y0019937D01*
X0098972Y0019878D01*
X0099028Y0019827D01*
X0099100Y0019783D01*
X0099188Y0019748D01*
X0099292Y0019720D01*
X0099412Y0019701D01*
X0099420Y0019700D01*
X0099428Y0019701D01*
X0099554Y0019720D01*
X0099662Y0019748D01*
X0099751Y0019783D01*
X0099822Y0019827D01*
X0099874Y0019878D01*
X0099907Y0019937D01*
X0099922Y0020004D01*
X0099918Y0020079D01*
X0100146Y0018735D01*
D02*
G37*
G36*
X0084395Y0020818D02*
X0084479Y0020776D01*
X0084569Y0020740D01*
X0084666Y0020708D01*
X0084770Y0020681D01*
X0084881Y0020659D01*
X0085123Y0020630D01*
X0085255Y0020623D01*
X0085393Y0020620D01*
X0085393Y0019833D01*
X0085255Y0019830D01*
X0084999Y0019811D01*
X0084881Y0019794D01*
X0084666Y0019745D01*
X0084569Y0019713D01*
X0084479Y0019677D01*
X0084395Y0019635D01*
X0084319Y0019589D01*
X0084319Y0020864D01*
X0084395Y0020818D01*
D02*
G37*
G36*
X0086532Y0019439D02*
X0086525Y0019514D01*
X0086502Y0019581D01*
X0086463Y0019640D01*
X0086407Y0019691D01*
X0086336Y0019734D01*
X0086248Y0019770D01*
X0086143Y0019797D01*
X0086023Y0019817D01*
X0085886Y0019829D01*
X0085733Y0019833D01*
X0085733Y0020620D01*
X0085889Y0020624D01*
X0086028Y0020636D01*
X0086152Y0020655D01*
X0086259Y0020683D01*
X0086350Y0020718D01*
X0086425Y0020761D01*
X0086484Y0020812D01*
X0086526Y0020871D01*
X0086552Y0020937D01*
X0086561Y0021011D01*
X0086532Y0019439D01*
D02*
G37*
G36*
X0055867Y0018303D02*
X0055705Y0018136D01*
X0055452Y0017839D01*
X0055360Y0017709D01*
X0055292Y0017591D01*
X0055247Y0017486D01*
X0055225Y0017393D01*
X0055226Y0017313D01*
X0055250Y0017245D01*
X0055298Y0017189D01*
X0054098Y0018192D01*
X0054163Y0018153D01*
X0054238Y0018135D01*
X0054323Y0018139D01*
X0054419Y0018164D01*
X0054525Y0018210D01*
X0054641Y0018278D01*
X0054768Y0018367D01*
X0054906Y0018477D01*
X0055212Y0018761D01*
X0055867Y0018303D01*
D02*
G37*
G36*
X0100016Y0013386D02*
X0100008Y0013461D01*
X0099984Y0013528D01*
X0099944Y0013587D01*
X0099888Y0013638D01*
X0099816Y0013681D01*
X0099728Y0013717D01*
X0099625Y0013744D01*
X0099507Y0013763D01*
X0099391Y0013744D01*
X0099287Y0013717D01*
X0099199Y0013681D01*
X0099127Y0013638D01*
X0099071Y0013587D01*
X0099031Y0013528D01*
X0099007Y0013461D01*
X0098999Y0013386D01*
X0098999Y0014961D01*
X0099007Y0014886D01*
X0099031Y0014819D01*
X0099071Y0014760D01*
X0099127Y0014709D01*
X0099199Y0014665D01*
X0099287Y0014630D01*
X0099391Y0014602D01*
X0099507Y0014583D01*
X0099625Y0014602D01*
X0099728Y0014630D01*
X0099816Y0014665D01*
X0099888Y0014709D01*
X0099944Y0014760D01*
X0099984Y0014819D01*
X0100008Y0014886D01*
X0100016Y0014961D01*
X0100016Y0013386D01*
D02*
G37*
G36*
X0093323Y0013386D02*
X0093315Y0013461D01*
X0093291Y0013528D01*
X0093251Y0013587D01*
X0093195Y0013638D01*
X0093123Y0013681D01*
X0093035Y0013717D01*
X0092932Y0013744D01*
X0092815Y0013763D01*
X0092698Y0013744D01*
X0092594Y0013717D01*
X0092506Y0013681D01*
X0092434Y0013638D01*
X0092378Y0013587D01*
X0092338Y0013528D01*
X0092314Y0013461D01*
X0092306Y0013386D01*
X0092306Y0014961D01*
X0092314Y0014886D01*
X0092338Y0014819D01*
X0092378Y0014760D01*
X0092434Y0014709D01*
X0092506Y0014665D01*
X0092594Y0014630D01*
X0092698Y0014602D01*
X0092815Y0014583D01*
X0092932Y0014602D01*
X0093035Y0014630D01*
X0093123Y0014665D01*
X0093195Y0014709D01*
X0093251Y0014760D01*
X0093291Y0014819D01*
X0093315Y0014886D01*
X0093323Y0014961D01*
X0093323Y0013386D01*
D02*
G37*
G36*
X0058152Y0014548D02*
X0058093Y0014593D01*
X0058024Y0014616D01*
X0057943Y0014617D01*
X0057853Y0014597D01*
X0057751Y0014556D01*
X0057639Y0014493D01*
X0057517Y0014408D01*
X0057383Y0014302D01*
X0057239Y0014174D01*
X0057085Y0014026D01*
X0056629Y0014684D01*
X0056736Y0014792D01*
X0057060Y0015164D01*
X0057115Y0015241D01*
X0057161Y0015313D01*
X0057196Y0015378D01*
X0057221Y0015437D01*
X0057236Y0015491D01*
X0058152Y0014548D01*
D02*
G37*
G36*
X0123810Y0014787D02*
X0123834Y0014720D01*
X0123874Y0014661D01*
X0123930Y0014610D01*
X0124002Y0014567D01*
X0124090Y0014531D01*
X0124117Y0014524D01*
X0124123Y0014527D01*
X0124123Y0014523D01*
X0124194Y0014504D01*
X0124314Y0014484D01*
X0124450Y0014472D01*
X0124601Y0014468D01*
X0124601Y0013681D01*
X0124450Y0013677D01*
X0124314Y0013665D01*
X0124194Y0013646D01*
X0124123Y0013627D01*
X0124123Y0013622D01*
X0124117Y0013625D01*
X0124090Y0013618D01*
X0124002Y0013583D01*
X0123930Y0013539D01*
X0123874Y0013488D01*
X0123834Y0013429D01*
X0123810Y0013362D01*
X0123802Y0013287D01*
X0123802Y0013669D01*
X0123535Y0013679D01*
X0123248Y0013681D01*
X0123248Y0014468D01*
X0123399Y0014469D01*
X0123802Y0014496D01*
X0123802Y0014862D01*
X0123810Y0014787D01*
D02*
G37*
G36*
X0058137Y0012048D02*
X0058079Y0012093D01*
X0058009Y0012116D01*
X0057930Y0012118D01*
X0057839Y0012098D01*
X0057738Y0012057D01*
X0057626Y0011995D01*
X0057503Y0011910D01*
X0057370Y0011804D01*
X0057227Y0011677D01*
X0057072Y0011528D01*
X0056633Y0012202D01*
X0056740Y0012311D01*
X0057062Y0012678D01*
X0057117Y0012753D01*
X0057162Y0012822D01*
X0057197Y0012885D01*
X0057222Y0012941D01*
X0057236Y0012990D01*
X0058137Y0012048D01*
D02*
G37*
G36*
X0088189Y0012221D02*
X0088114Y0012218D01*
X0088047Y0012198D01*
X0087988Y0012161D01*
X0087937Y0012107D01*
X0087893Y0012035D01*
X0087858Y0011947D01*
X0087830Y0011841D01*
X0087811Y0011719D01*
X0087799Y0011579D01*
X0087795Y0011422D01*
X0087008Y0011422D01*
X0087005Y0011560D01*
X0086983Y0011804D01*
X0086963Y0011911D01*
X0086939Y0012006D01*
X0086908Y0012091D01*
X0086873Y0012165D01*
X0086831Y0012228D01*
X0086785Y0012281D01*
X0086732Y0012323D01*
X0088189Y0012221D01*
D02*
G37*
G36*
X0055300Y0011130D02*
X0055313Y0011128D01*
X0055334Y0011127D01*
X0055636Y0011122D01*
X0055716Y0011122D01*
X0055716Y0010335D01*
X0055298Y0010323D01*
X0055296Y0011132D01*
X0055300Y0011130D01*
D02*
G37*
G36*
X0051000Y0010178D02*
X0051115Y0010167D01*
X0051441Y0010154D01*
X0051728Y0010152D01*
X0051728Y0009364D01*
X0051577Y0009364D01*
X0051000Y0009325D01*
X0051000Y0008971D01*
X0050992Y0009046D01*
X0050968Y0009113D01*
X0050929Y0009172D01*
X0050872Y0009223D01*
X0050801Y0009266D01*
X0050713Y0009301D01*
X0050609Y0009329D01*
X0050489Y0009349D01*
X0050353Y0009361D01*
X0050201Y0009364D01*
X0050201Y0010152D01*
X0050353Y0010156D01*
X0050489Y0010168D01*
X0050609Y0010187D01*
X0050713Y0010215D01*
X0050801Y0010250D01*
X0050872Y0010294D01*
X0050929Y0010345D01*
X0050968Y0010404D01*
X0050992Y0010471D01*
X0051000Y0010546D01*
X0051000Y0010178D01*
D02*
G37*
G36*
X0085299Y0008269D02*
X0085193Y0008161D01*
X0084869Y0007789D01*
X0084813Y0007711D01*
X0084768Y0007640D01*
X0084733Y0007574D01*
X0084707Y0007515D01*
X0084692Y0007462D01*
X0083776Y0008405D01*
X0083835Y0008360D01*
X0083905Y0008337D01*
X0083985Y0008336D01*
X0084076Y0008356D01*
X0084177Y0008397D01*
X0084289Y0008460D01*
X0084412Y0008545D01*
X0084545Y0008651D01*
X0084689Y0008778D01*
X0084843Y0008927D01*
X0085299Y0008269D01*
D02*
G37*
G36*
X0100016Y0005906D02*
X0100008Y0005980D01*
X0099984Y0006047D01*
X0099944Y0006106D01*
X0099888Y0006158D01*
X0099816Y0006201D01*
X0099728Y0006236D01*
X0099625Y0006264D01*
X0099507Y0006283D01*
X0099391Y0006264D01*
X0099287Y0006236D01*
X0099199Y0006201D01*
X0099127Y0006158D01*
X0099071Y0006106D01*
X0099031Y0006047D01*
X0099007Y0005980D01*
X0098999Y0005906D01*
X0098999Y0007480D01*
X0099007Y0007405D01*
X0099031Y0007339D01*
X0099071Y0007280D01*
X0099127Y0007228D01*
X0099199Y0007185D01*
X0099287Y0007150D01*
X0099391Y0007122D01*
X0099507Y0007103D01*
X0099625Y0007122D01*
X0099728Y0007150D01*
X0099816Y0007185D01*
X0099888Y0007228D01*
X0099944Y0007280D01*
X0099984Y0007339D01*
X0100008Y0007405D01*
X0100016Y0007480D01*
X0100016Y0005906D01*
D02*
G37*
G36*
X0093323Y0005906D02*
X0093315Y0005980D01*
X0093291Y0006047D01*
X0093251Y0006106D01*
X0093195Y0006158D01*
X0093123Y0006201D01*
X0093035Y0006236D01*
X0092932Y0006264D01*
X0092815Y0006283D01*
X0092698Y0006264D01*
X0092594Y0006236D01*
X0092506Y0006201D01*
X0092434Y0006158D01*
X0092378Y0006106D01*
X0092338Y0006047D01*
X0092314Y0005980D01*
X0092306Y0005906D01*
X0092306Y0007480D01*
X0092314Y0007405D01*
X0092338Y0007339D01*
X0092378Y0007280D01*
X0092434Y0007228D01*
X0092506Y0007185D01*
X0092594Y0007150D01*
X0092698Y0007122D01*
X0092815Y0007103D01*
X0092932Y0007122D01*
X0093035Y0007150D01*
X0093123Y0007185D01*
X0093195Y0007228D01*
X0093251Y0007280D01*
X0093291Y0007339D01*
X0093315Y0007405D01*
X0093323Y0007480D01*
X0093323Y0005906D01*
D02*
G37*
G36*
X0123810Y0008094D02*
X0123834Y0008028D01*
X0123874Y0007968D01*
X0123930Y0007917D01*
X0124002Y0007874D01*
X0124090Y0007839D01*
X0124117Y0007831D01*
X0124123Y0007834D01*
X0124123Y0007830D01*
X0124194Y0007811D01*
X0124314Y0007791D01*
X0124450Y0007780D01*
X0124601Y0007776D01*
X0124601Y0006988D01*
X0124450Y0006984D01*
X0124314Y0006972D01*
X0124194Y0006953D01*
X0124123Y0006934D01*
X0124123Y0006930D01*
X0124117Y0006932D01*
X0124090Y0006925D01*
X0124002Y0006890D01*
X0123930Y0006846D01*
X0123874Y0006795D01*
X0123834Y0006736D01*
X0123810Y0006669D01*
X0123802Y0006594D01*
X0123802Y0006976D01*
X0123535Y0006986D01*
X0123248Y0006988D01*
X0123248Y0007776D01*
X0123399Y0007776D01*
X0123802Y0007803D01*
X0123802Y0008169D01*
X0123810Y0008094D01*
D02*
G37*
G36*
X0086859Y0004759D02*
X0086798Y0004794D01*
X0086730Y0004826D01*
X0086653Y0004854D01*
X0086567Y0004878D01*
X0086473Y0004899D01*
X0086371Y0004916D01*
X0086140Y0004938D01*
X0086013Y0004944D01*
X0085876Y0004946D01*
X0085831Y0005733D01*
X0085995Y0005737D01*
X0086140Y0005749D01*
X0086266Y0005768D01*
X0086374Y0005796D01*
X0086463Y0005831D01*
X0086534Y0005875D01*
X0086586Y0005926D01*
X0086619Y0005985D01*
X0086634Y0006052D01*
X0086630Y0006127D01*
X0086859Y0004759D01*
D02*
G37*
G36*
X0084364Y0005839D02*
X0084421Y0005817D01*
X0084490Y0005797D01*
X0084570Y0005780D01*
X0084663Y0005766D01*
X0084883Y0005745D01*
X0085151Y0005734D01*
X0085302Y0005733D01*
X0085469Y0004946D01*
X0085347Y0004942D01*
X0085226Y0004931D01*
X0085107Y0004914D01*
X0084989Y0004889D01*
X0084873Y0004856D01*
X0084759Y0004817D01*
X0084647Y0004771D01*
X0084536Y0004717D01*
X0084427Y0004656D01*
X0084319Y0004589D01*
X0084319Y0005864D01*
X0084364Y0005839D01*
D02*
G37*
%LPC*%
G36*
X0115944Y0032307D02*
X0112795Y0032307D01*
X0112334Y0032215D01*
X0111943Y0031954D01*
X0111776Y0031954D01*
X0111386Y0032215D01*
X0110925Y0032307D01*
X0107775Y0032307D01*
X0107315Y0032215D01*
X0106924Y0031954D01*
X0106663Y0031563D01*
X0106571Y0031102D01*
X0106571Y0026181D01*
X0106663Y0025720D01*
X0106924Y0025330D01*
X0106924Y0024867D01*
X0106663Y0024477D01*
X0106571Y0024016D01*
X0106571Y0019094D01*
X0106663Y0018634D01*
X0106924Y0018243D01*
X0107022Y0017781D01*
X0106949Y0017671D01*
X0106761Y0017390D01*
X0106670Y0016929D01*
X0106670Y0012008D01*
X0106761Y0011547D01*
X0106913Y0011320D01*
X0106984Y0010974D01*
X0106913Y0010628D01*
X0106761Y0010402D01*
X0106670Y0009941D01*
X0106670Y0005020D01*
X0106761Y0004559D01*
X0107022Y0004168D01*
X0107413Y0003907D01*
X0107874Y0003815D01*
X0111023Y0003815D01*
X0111484Y0003907D01*
X0111875Y0004168D01*
X0111943Y0004168D01*
X0112334Y0003907D01*
X0112795Y0003815D01*
X0115944Y0003815D01*
X0116405Y0003907D01*
X0116796Y0004168D01*
X0117057Y0004559D01*
X0117149Y0005020D01*
X0117149Y0009941D01*
X0117057Y0010402D01*
X0116906Y0010628D01*
X0116834Y0010974D01*
X0116906Y0011320D01*
X0117057Y0011547D01*
X0117149Y0012008D01*
X0117149Y0016929D01*
X0117057Y0017390D01*
X0116796Y0017781D01*
X0116796Y0018243D01*
X0117057Y0018634D01*
X0117149Y0019094D01*
X0117149Y0024016D01*
X0117057Y0024477D01*
X0116796Y0024867D01*
X0116796Y0025330D01*
X0117057Y0025720D01*
X0117149Y0026181D01*
X0117149Y0031102D01*
X0117057Y0031563D01*
X0116796Y0031954D01*
X0116405Y0032215D01*
X0115944Y0032307D01*
D02*
G37*
G36*
X0080728Y0033408D02*
X0079889Y0033408D01*
X0079889Y0031209D01*
X0082089Y0031209D01*
X0082089Y0032047D01*
X0081985Y0032568D01*
X0081690Y0033009D01*
X0081249Y0033304D01*
X0080728Y0033408D01*
D02*
G37*
G36*
X0078889Y0033408D02*
X0078051Y0033408D01*
X0077530Y0033304D01*
X0077089Y0033009D01*
X0076794Y0032568D01*
X0076690Y0032047D01*
X0076690Y0031209D01*
X0078889Y0031209D01*
X0078889Y0033408D01*
D02*
G37*
G36*
X0082089Y0030209D02*
X0076690Y0030209D01*
X0076690Y0029370D01*
X0076794Y0028849D01*
X0077047Y0028470D01*
X0076892Y0028237D01*
X0076788Y0027716D01*
X0076788Y0026878D01*
X0082187Y0026878D01*
X0082187Y0027716D01*
X0082084Y0028237D01*
X0081830Y0028617D01*
X0081985Y0028849D01*
X0082089Y0029370D01*
X0082089Y0030209D01*
D02*
G37*
%LPD*%
G36*
X0112418Y0026968D02*
X0112410Y0027043D01*
X0112386Y0027110D01*
X0112346Y0027169D01*
X0112290Y0027220D01*
X0112218Y0027264D01*
X0112130Y0027299D01*
X0112026Y0027327D01*
X0111906Y0027347D01*
X0111860Y0027350D01*
X0111814Y0027347D01*
X0111694Y0027327D01*
X0111590Y0027299D01*
X0111502Y0027264D01*
X0111430Y0027220D01*
X0111374Y0027169D01*
X0111334Y0027110D01*
X0111310Y0027043D01*
X0111302Y0026968D01*
X0111302Y0028543D01*
X0111310Y0028469D01*
X0111334Y0028402D01*
X0111374Y0028343D01*
X0111430Y0028291D01*
X0111502Y0028248D01*
X0111590Y0028213D01*
X0111694Y0028185D01*
X0111814Y0028165D01*
X0111860Y0028161D01*
X0111906Y0028165D01*
X0112026Y0028185D01*
X0112130Y0028213D01*
X0112218Y0028248D01*
X0112290Y0028291D01*
X0112346Y0028343D01*
X0112386Y0028402D01*
X0112410Y0028469D01*
X0112418Y0028543D01*
X0112418Y0026968D01*
D02*
G37*
G36*
X0112418Y0020177D02*
X0112410Y0020252D01*
X0112386Y0020319D01*
X0112346Y0020378D01*
X0112290Y0020429D01*
X0112218Y0020472D01*
X0112130Y0020508D01*
X0112026Y0020535D01*
X0111906Y0020555D01*
X0111860Y0020559D01*
X0111814Y0020555D01*
X0111694Y0020535D01*
X0111590Y0020508D01*
X0111502Y0020472D01*
X0111430Y0020429D01*
X0111374Y0020378D01*
X0111334Y0020319D01*
X0111310Y0020252D01*
X0111302Y0020177D01*
X0111302Y0021752D01*
X0111310Y0021677D01*
X0111334Y0021610D01*
X0111374Y0021551D01*
X0111430Y0021500D01*
X0111502Y0021457D01*
X0111590Y0021421D01*
X0111694Y0021394D01*
X0111814Y0021374D01*
X0111860Y0021370D01*
X0111906Y0021374D01*
X0112026Y0021394D01*
X0112130Y0021421D01*
X0112218Y0021457D01*
X0112290Y0021500D01*
X0112346Y0021551D01*
X0112386Y0021610D01*
X0112410Y0021677D01*
X0112418Y0021752D01*
X0112418Y0020177D01*
D02*
G37*
G36*
X0112418Y0013386D02*
X0112410Y0013461D01*
X0112386Y0013528D01*
X0112346Y0013587D01*
X0112290Y0013638D01*
X0112218Y0013681D01*
X0112130Y0013716D01*
X0112026Y0013744D01*
X0111909Y0013763D01*
X0111792Y0013744D01*
X0111688Y0013716D01*
X0111600Y0013681D01*
X0111529Y0013638D01*
X0111472Y0013587D01*
X0111432Y0013528D01*
X0111409Y0013461D01*
X0111401Y0013386D01*
X0111401Y0014961D01*
X0111409Y0014886D01*
X0111432Y0014819D01*
X0111472Y0014760D01*
X0111529Y0014709D01*
X0111600Y0014665D01*
X0111688Y0014630D01*
X0111792Y0014602D01*
X0111909Y0014583D01*
X0112026Y0014602D01*
X0112130Y0014630D01*
X0112218Y0014665D01*
X0112290Y0014709D01*
X0112346Y0014760D01*
X0112386Y0014819D01*
X0112410Y0014886D01*
X0112418Y0014961D01*
X0112418Y0013386D01*
D02*
G37*
G36*
X0112418Y0006693D02*
X0112410Y0006768D01*
X0112386Y0006835D01*
X0112346Y0006894D01*
X0112290Y0006945D01*
X0112218Y0006988D01*
X0112130Y0007024D01*
X0112026Y0007051D01*
X0111909Y0007070D01*
X0111792Y0007051D01*
X0111688Y0007024D01*
X0111600Y0006988D01*
X0111529Y0006945D01*
X0111472Y0006894D01*
X0111432Y0006835D01*
X0111409Y0006768D01*
X0111401Y0006693D01*
X0111401Y0008268D01*
X0111409Y0008193D01*
X0111432Y0008126D01*
X0111472Y0008067D01*
X0111529Y0008016D01*
X0111600Y0007972D01*
X0111688Y0007937D01*
X0111792Y0007909D01*
X0111909Y0007890D01*
X0112026Y0007909D01*
X0112130Y0007937D01*
X0112218Y0007972D01*
X0112290Y0008016D01*
X0112346Y0008067D01*
X0112386Y0008126D01*
X0112410Y0008193D01*
X0112418Y0008268D01*
X0112418Y0006693D01*
D02*
G37*
D24*
X0121949Y0007382D02*
X0124803Y0007382D01*
X0121850Y0007480D02*
X0121949Y0007382D01*
X0121949Y0014075D02*
X0124803Y0014075D01*
X0121850Y0014173D02*
X0121949Y0014075D01*
X0121949Y0020866D02*
X0124803Y0020866D01*
X0121850Y0020965D02*
X0121949Y0020866D01*
X0121949Y0027657D02*
X0124803Y0027657D01*
X0121850Y0027756D02*
X0121949Y0027657D01*
X0073169Y0030709D02*
X0073218Y0030659D01*
X0072834Y0031043D02*
X0073169Y0030709D01*
X0072834Y0031043D02*
X0072834Y0033465D01*
X0051968Y0024016D02*
X0052559Y0024016D01*
X0050197Y0024016D02*
X0051968Y0024016D01*
X0052657Y0024705D01*
X0051888Y0023936D02*
X0051968Y0024016D01*
X0051888Y0021340D02*
X0051888Y0023936D01*
X0052559Y0024016D02*
X0052657Y0023917D01*
X0050173Y0009758D02*
X0052938Y0009758D01*
X0053149Y0009547D01*
X0049803Y0019255D02*
X0051888Y0021340D01*
X0109449Y0007480D02*
X0114370Y0007480D01*
X0109449Y0014173D02*
X0114370Y0014173D01*
X0109350Y0020965D02*
X0114370Y0020965D01*
X0109350Y0027756D02*
X0114370Y0027756D01*
X0056004Y0018996D02*
X0056004Y0023524D01*
X0053149Y0016240D02*
X0053346Y0016240D01*
X0054921Y0017815D01*
X0054921Y0017913D01*
X0056004Y0018996D01*
X0055593Y0013091D02*
X0057729Y0015226D01*
X0050218Y0013091D02*
X0055593Y0013091D01*
X0049803Y0013506D02*
X0050218Y0013091D01*
X0049803Y0013506D02*
X0049803Y0019255D01*
X0053149Y0009547D02*
X0054330Y0010728D01*
X0055716Y0010728D02*
X0057714Y0012726D01*
X0054330Y0010728D02*
X0055716Y0010728D01*
X0062175Y0031132D02*
X0062401Y0030905D01*
X0052923Y0031132D02*
X0062175Y0031132D01*
X0052657Y0031398D02*
X0052923Y0031132D01*
X0096161Y0006693D02*
X0101181Y0006693D01*
X0101968Y0007480D01*
X0089468Y0006693D02*
X0096161Y0006693D01*
X0081200Y0005226D02*
X0081313Y0005339D01*
X0088115Y0005339D01*
X0089468Y0006693D01*
X0096161Y0014173D02*
X0101968Y0014173D01*
X0089468Y0014173D02*
X0096161Y0014173D01*
X0101968Y0014173D02*
X0101968Y0014173D01*
X0096063Y0026772D02*
X0096112Y0026821D01*
X0100935Y0026821D01*
X0101870Y0027756D01*
X0089370Y0026772D02*
X0096063Y0026772D01*
X0081200Y0022726D02*
X0084055Y0022726D01*
X0086525Y0025197D01*
X0087795Y0025197D01*
X0089370Y0026772D01*
X0096063Y0019291D02*
X0100295Y0019291D01*
X0101870Y0020866D01*
X0101870Y0020965D01*
X0089370Y0019291D02*
X0096063Y0019291D01*
X0081200Y0020226D02*
X0088435Y0020226D01*
X0089370Y0019291D01*
X0068750Y0030856D02*
X0068897Y0030709D01*
X0068700Y0030905D02*
X0068750Y0030856D01*
X0068750Y0026329D02*
X0068750Y0030856D01*
X0068750Y0026329D02*
X0068799Y0026279D01*
X0068897Y0030709D02*
X0073169Y0030709D01*
X0081200Y0007726D02*
X0084199Y0007726D01*
X0087401Y0010928D01*
X0087401Y0012599D01*
X0088976Y0014173D01*
X0089468Y0014173D01*
X0057714Y0012726D02*
X0060728Y0012726D01*
X0057729Y0015226D02*
X0060728Y0015226D01*
X0056004Y0023524D02*
X0058759Y0026279D01*
X0062500Y0026279D01*
D46*
X0124803Y0007382D02*
D03*
X0124803Y0014075D02*
D03*
X0124803Y0020866D02*
D03*
X0124803Y0027657D02*
D03*
X0050197Y0024016D02*
D03*
X0050173Y0009758D02*
D03*
D47*
X0072834Y0033465D02*
D03*
D48*
X0081200Y0005226D02*
D03*
X0081200Y0007726D02*
D03*
X0081200Y0010226D02*
D03*
X0081200Y0012726D02*
D03*
X0081200Y0015226D02*
D03*
X0081200Y0017726D02*
D03*
X0081200Y0020226D02*
D03*
X0081200Y0022726D02*
D03*
X0060728Y0005226D02*
D03*
X0060728Y0007726D02*
D03*
X0060728Y0010226D02*
D03*
X0060728Y0012726D02*
D03*
X0060728Y0015226D02*
D03*
X0060728Y0017726D02*
D03*
X0060728Y0020226D02*
D03*
X0060728Y0022726D02*
D03*
D49*
X0068799Y0026279D02*
D03*
X0062500Y0026279D02*
D03*
X0068700Y0030905D02*
D03*
X0062401Y0030905D02*
D03*
D50*
X0101870Y0021555D02*
D03*
X0109350Y0021555D02*
D03*
X0114370Y0021555D02*
D03*
X0121850Y0021555D02*
D03*
X0114370Y0028642D02*
D03*
X0121850Y0028642D02*
D03*
X0101968Y0007480D02*
D03*
X0109449Y0007480D02*
D03*
X0114370Y0007480D02*
D03*
X0121850Y0007480D02*
D03*
X0101968Y0014468D02*
D03*
X0109449Y0014468D02*
D03*
X0114370Y0014468D02*
D03*
X0121850Y0014468D02*
D03*
X0101870Y0028642D02*
D03*
X0109350Y0028642D02*
D03*
D51*
X0096063Y0019291D02*
D03*
X0096063Y0026772D02*
D03*
X0089370Y0019291D02*
D03*
X0089370Y0026772D02*
D03*
X0089468Y0006693D02*
D03*
X0089468Y0014173D02*
D03*
X0096161Y0006693D02*
D03*
X0096161Y0014173D02*
D03*
D52*
X0053149Y0016240D02*
D03*
X0053149Y0009547D02*
D03*
X0052657Y0030610D02*
D03*
X0052657Y0023917D02*
D03*
D53*
X0073267Y0026378D02*
D03*
X0079488Y0026378D02*
D03*
X0073169Y0030709D02*
D03*
X0079389Y0030709D02*
D03*
D15*
X0061041Y0033931D02*
D03*
D17*
X0099409Y0033957D02*
D03*
D16*
X0084162Y0003333D02*
D03*
D14*
X0049873Y0005173D02*
D03*
D34*
X0073267Y0022104D02*
X0077550Y0017821D01*
X0073218Y0026427D02*
X0073267Y0026378D01*
X0073218Y0026427D02*
X0073218Y0030659D01*
X0073267Y0022104D02*
X0073267Y0026378D01*
D54*
X0081163Y0017764D02*
X0081200Y0017726D01*
X0077550Y0017821D02*
X0078113Y0017821D01*
X0078169Y0017764D02*
X0081163Y0017764D01*
X0078113Y0017821D02*
X0078169Y0017764D01*
M02*
