G75*
G70*
%OFA0B0*%
%FSLAX25Y25*%
%IPPOS*%
%LPD*%
%AMOC8*
5,1,8,0,0,1.08239X$1,22.5*
%
%ADD10C,0.02362*%
%ADD11C,0.00787*%
X0000000Y0000000D02*
%LPD*%
G01*
G36*
G01*
X0061319Y0051811D02*
X0061319Y0052992D01*
G75*
G02*
X0061909Y0053583I0000591J0000000D01*
G01*
X0068406Y0053583D01*
G75*
G02*
X0068996Y0052992I0000000J-000591D01*
G01*
X0068996Y0051811D01*
G75*
G02*
X0068406Y0051220I-000591J0000000D01*
G01*
X0061909Y0051220D01*
G75*
G02*
X0061319Y0051811I0000000J0000591D01*
G01*
G37*
G36*
G01*
X0061319Y0046811D02*
X0061319Y0047992D01*
G75*
G02*
X0061909Y0048583I0000591J0000000D01*
G01*
X0068406Y0048583D01*
G75*
G02*
X0068996Y0047992I0000000J-000591D01*
G01*
X0068996Y0046811D01*
G75*
G02*
X0068406Y0046220I-000591J0000000D01*
G01*
X0061909Y0046220D01*
G75*
G02*
X0061319Y0046811I0000000J0000591D01*
G01*
G37*
G36*
G01*
X0061319Y0041811D02*
X0061319Y0042992D01*
G75*
G02*
X0061909Y0043583I0000591J0000000D01*
G01*
X0068406Y0043583D01*
G75*
G02*
X0068996Y0042992I0000000J-000591D01*
G01*
X0068996Y0041811D01*
G75*
G02*
X0068406Y0041220I-000591J0000000D01*
G01*
X0061909Y0041220D01*
G75*
G02*
X0061319Y0041811I0000000J0000591D01*
G01*
G37*
G36*
G01*
X0061319Y0036811D02*
X0061319Y0037992D01*
G75*
G02*
X0061909Y0038583I0000591J0000000D01*
G01*
X0068406Y0038583D01*
G75*
G02*
X0068996Y0037992I0000000J-000591D01*
G01*
X0068996Y0036811D01*
G75*
G02*
X0068406Y0036220I-000591J0000000D01*
G01*
X0061909Y0036220D01*
G75*
G02*
X0061319Y0036811I0000000J0000591D01*
G01*
G37*
G36*
G01*
X0080807Y0036811D02*
X0080807Y0037992D01*
G75*
G02*
X0081398Y0038583I0000591J0000000D01*
G01*
X0087894Y0038583D01*
G75*
G02*
X0088484Y0037992I0000000J-000591D01*
G01*
X0088484Y0036811D01*
G75*
G02*
X0087894Y0036220I-000591J0000000D01*
G01*
X0081398Y0036220D01*
G75*
G02*
X0080807Y0036811I0000000J0000591D01*
G01*
G37*
G36*
G01*
X0080807Y0041811D02*
X0080807Y0042992D01*
G75*
G02*
X0081398Y0043583I0000591J0000000D01*
G01*
X0087894Y0043583D01*
G75*
G02*
X0088484Y0042992I0000000J-000591D01*
G01*
X0088484Y0041811D01*
G75*
G02*
X0087894Y0041220I-000591J0000000D01*
G01*
X0081398Y0041220D01*
G75*
G02*
X0080807Y0041811I0000000J0000591D01*
G01*
G37*
G36*
G01*
X0080807Y0046811D02*
X0080807Y0047992D01*
G75*
G02*
X0081398Y0048583I0000591J0000000D01*
G01*
X0087894Y0048583D01*
G75*
G02*
X0088484Y0047992I0000000J-000591D01*
G01*
X0088484Y0046811D01*
G75*
G02*
X0087894Y0046220I-000591J0000000D01*
G01*
X0081398Y0046220D01*
G75*
G02*
X0080807Y0046811I0000000J0000591D01*
G01*
G37*
G36*
G01*
X0080807Y0051811D02*
X0080807Y0052992D01*
G75*
G02*
X0081398Y0053583I0000591J0000000D01*
G01*
X0087894Y0053583D01*
G75*
G02*
X0088484Y0052992I0000000J-000591D01*
G01*
X0088484Y0051811D01*
G75*
G02*
X0087894Y0051220I-000591J0000000D01*
G01*
X0081398Y0051220D01*
G75*
G02*
X0080807Y0051811I0000000J0000591D01*
G01*
G37*
D10*
X0003937Y0076772D03*
X0000000Y0080709D03*
X0005906Y0005905D03*
X0129921Y0005905D03*
X0129921Y0074803D03*
D11*
X0065157Y0047401D02*
X0068996Y0047401D01*
X0092520Y0053149D02*
X0091772Y0052401D01*
X0080650Y0059055D02*
X0092520Y0059055D01*
X0092520Y0059055D02*
X0092520Y0053149D01*
X0068996Y0047401D02*
X0080650Y0059055D01*
X0091772Y0052401D02*
X0084646Y0052401D01*
M02*
