G75*
G70*
%OFA0B0*%
%FSLAX25Y25*%
%IPPOS*%
%LPD*%
%AMOC8*
5,1,8,0,0,1.08239X$1,22.5*
%
%AMM3*
21,1,0.023620,0.018900,0.000000,0.000000,180.000000*
21,1,0.018900,0.023620,0.000000,0.000000,180.000000*
1,1,0.004720,-0.009450,0.009450*
1,1,0.004720,0.009450,0.009450*
1,1,0.004720,0.009450,-0.009450*
1,1,0.004720,-0.009450,-0.009450*
%
%AMM4*
21,1,0.019680,0.019680,0.000000,0.000000,270.000000*
21,1,0.015750,0.023620,0.000000,0.000000,270.000000*
1,1,0.003940,-0.009840,-0.007870*
1,1,0.003940,-0.009840,0.007870*
1,1,0.003940,0.009840,0.007870*
1,1,0.003940,0.009840,-0.007870*
%
%AMM5*
21,1,0.033470,0.026770,0.000000,0.000000,270.000000*
21,1,0.026770,0.033470,0.000000,0.000000,270.000000*
1,1,0.006690,-0.013390,-0.013390*
1,1,0.006690,-0.013390,0.013390*
1,1,0.006690,0.013390,0.013390*
1,1,0.006690,0.013390,-0.013390*
%
%AMM6*
21,1,0.019680,0.019680,0.000000,0.000000,0.000000*
21,1,0.015750,0.023620,0.000000,0.000000,0.000000*
1,1,0.003940,0.007870,-0.009840*
1,1,0.003940,-0.007870,-0.009840*
1,1,0.003940,-0.007870,0.009840*
1,1,0.003940,0.007870,0.009840*
%
%ADD10C,0.02362*%
%ADD11O,0.00787X0.04823*%
%ADD12O,0.36614X0.00787*%
%ADD19R,0.00984X0.24350*%
%ADD20R,0.00984X0.04390*%
%ADD21R,0.56201X0.00984*%
%ADD22R,0.59449X0.00984*%
%ADD23R,0.00984X0.20374*%
%ADD24C,0.00787*%
%ADD29C,0.00984*%
%ADD34C,0.01575*%
%ADD37M3*%
%ADD38M4*%
%ADD39M5*%
%ADD40M6*%
X0000000Y0000000D02*
%LPD*%
G01*
D10*
X0121457Y0068504D03*
D11*
X0086417Y0060728D03*
D12*
X0104331Y0070866D03*
X0104331Y0058661D03*
D10*
X0121457Y0064764D03*
X0121457Y0061024D03*
X0087205Y0064961D03*
X0087205Y0068504D03*
X0067470Y0066142D03*
X0067470Y0061417D03*
X0067470Y0070866D03*
X0067470Y0075591D03*
D19*
X0009793Y0065089D03*
D20*
X0009793Y0041270D03*
D21*
X0037402Y0076772D03*
D22*
X0039026Y0039567D03*
D23*
X0068258Y0049262D03*
D10*
X0010679Y0050157D03*
X0010679Y0046220D03*
D10*
X0003937Y0076772D03*
X0000000Y0080709D03*
X0005906Y0005906D03*
X0129921Y0005906D03*
X0129921Y0074803D03*
X0009203Y0038976D02*
%LPD*%
G01*
D10*
X0067471Y0066141D03*
X0067471Y0061417D03*
X0067471Y0070866D03*
X0067471Y0075590D03*
D19*
X0009794Y0065088D03*
D20*
X0009794Y0041269D03*
D21*
X0037402Y0076771D03*
D22*
X0039026Y0039567D03*
D23*
X0068258Y0049261D03*
D10*
X0010679Y0050157D03*
X0010679Y0046220D03*
G36*
G01*
X0026132Y0069570D02*
X0026132Y0068389D01*
G75*
G02*
X0025542Y0067798I-000591J0000000D01*
G01*
X0021506Y0067798D01*
G75*
G02*
X0020916Y0068389I0000000J0000591D01*
G01*
X0020916Y0069570D01*
G75*
G02*
X0021506Y0070160I0000591J0000000D01*
G01*
X0025542Y0070160D01*
G75*
G02*
X0026132Y0069570I0000000J-000591D01*
G01*
G37*
G36*
G01*
X0026132Y0065829D02*
X0026132Y0064648D01*
G75*
G02*
X0025542Y0064058I-000591J0000000D01*
G01*
X0021506Y0064058D01*
G75*
G02*
X0020916Y0064648I0000000J0000591D01*
G01*
X0020916Y0065829D01*
G75*
G02*
X0021506Y0066420I0000591J0000000D01*
G01*
X0025542Y0066420D01*
G75*
G02*
X0026132Y0065829I0000000J-000591D01*
G01*
G37*
G36*
G01*
X0026132Y0062089D02*
X0026132Y0060908D01*
G75*
G02*
X0025542Y0060318I-000591J0000000D01*
G01*
X0021506Y0060318D01*
G75*
G02*
X0020916Y0060908I0000000J0000591D01*
G01*
X0020916Y0062089D01*
G75*
G02*
X0021506Y0062680I0000591J0000000D01*
G01*
X0025542Y0062680D01*
G75*
G02*
X0026132Y0062089I0000000J-000591D01*
G01*
G37*
G36*
G01*
X0017175Y0062089D02*
X0017175Y0060908D01*
G75*
G02*
X0016585Y0060318I-000591J0000000D01*
G01*
X0012549Y0060318D01*
G75*
G02*
X0011959Y0060908I0000000J0000591D01*
G01*
X0011959Y0062089D01*
G75*
G02*
X0012549Y0062680I0000591J0000000D01*
G01*
X0016585Y0062680D01*
G75*
G02*
X0017175Y0062089I0000000J-000591D01*
G01*
G37*
G36*
G01*
X0017175Y0069570D02*
X0017175Y0068389D01*
G75*
G02*
X0016585Y0067798I-000591J0000000D01*
G01*
X0012549Y0067798D01*
G75*
G02*
X0011959Y0068389I0000000J0000591D01*
G01*
X0011959Y0069570D01*
G75*
G02*
X0012549Y0070160I0000591J0000000D01*
G01*
X0016585Y0070160D01*
G75*
G02*
X0017175Y0069570I0000000J-000591D01*
G01*
G37*
G36*
G01*
X0025857Y0047283D02*
X0027195Y0047283D01*
G75*
G02*
X0027746Y0046732I0000000J-000551D01*
G01*
X0027746Y0045630D01*
G75*
G02*
X0027195Y0045078I-000551J0000000D01*
G01*
X0025857Y0045078D01*
G75*
G02*
X0025305Y0045630I0000000J0000551D01*
G01*
X0025305Y0046732D01*
G75*
G02*
X0025857Y0047283I0000551J0000000D01*
G01*
G37*
G36*
G01*
X0025857Y0043504D02*
X0027195Y0043504D01*
G75*
G02*
X0027746Y0042952I0000000J-000551D01*
G01*
X0027746Y0041850D01*
G75*
G02*
X0027195Y0041299I-000551J0000000D01*
G01*
X0025857Y0041299D01*
G75*
G02*
X0025305Y0041850I0000000J0000551D01*
G01*
X0025305Y0042952D01*
G75*
G02*
X0025857Y0043504I0000551J0000000D01*
G01*
G37*
G36*
G01*
X0052372Y0070000D02*
X0052372Y0071338D01*
G75*
G02*
X0052923Y0071889I0000551J0000000D01*
G01*
X0054026Y0071889D01*
G75*
G02*
X0054577Y0071338I0000000J-000551D01*
G01*
X0054577Y0070000D01*
G75*
G02*
X0054026Y0069448I-000551J0000000D01*
G01*
X0052923Y0069448D01*
G75*
G02*
X0052372Y0070000I0000000J0000551D01*
G01*
G37*
G36*
G01*
X0056152Y0070000D02*
X0056152Y0071338D01*
G75*
G02*
X0056703Y0071889I0000551J0000000D01*
G01*
X0057805Y0071889D01*
G75*
G02*
X0058357Y0071338I0000000J-000551D01*
G01*
X0058357Y0070000D01*
G75*
G02*
X0057805Y0069448I-000551J0000000D01*
G01*
X0056703Y0069448D01*
G75*
G02*
X0056152Y0070000I0000000J0000551D01*
G01*
G37*
G36*
G01*
X0065719Y0075000D02*
X0065719Y0073661D01*
G75*
G02*
X0065168Y0073110I-000551J0000000D01*
G01*
X0064065Y0073110D01*
G75*
G02*
X0063514Y0073661I0000000J0000551D01*
G01*
X0063514Y0075000D01*
G75*
G02*
X0064065Y0075551I0000551J0000000D01*
G01*
X0065168Y0075551D01*
G75*
G02*
X0065719Y0075000I0000000J-000551D01*
G01*
G37*
G36*
G01*
X0061939Y0075000D02*
X0061939Y0073661D01*
G75*
G02*
X0061388Y0073110I-000551J0000000D01*
G01*
X0060286Y0073110D01*
G75*
G02*
X0059734Y0073661I0000000J0000551D01*
G01*
X0059734Y0075000D01*
G75*
G02*
X0060286Y0075551I0000551J0000000D01*
G01*
X0061388Y0075551D01*
G75*
G02*
X0061939Y0075000I0000000J-000551D01*
G01*
G37*
G36*
G01*
X0043967Y0066259D02*
X0043967Y0067598D01*
G75*
G02*
X0044518Y0068149I0000551J0000000D01*
G01*
X0045620Y0068149D01*
G75*
G02*
X0046172Y0067598I0000000J-000551D01*
G01*
X0046172Y0066259D01*
G75*
G02*
X0045620Y0065708I-000551J0000000D01*
G01*
X0044518Y0065708D01*
G75*
G02*
X0043967Y0066259I0000000J0000551D01*
G01*
G37*
G36*
G01*
X0047746Y0066259D02*
X0047746Y0067598D01*
G75*
G02*
X0048297Y0068149I0000551J0000000D01*
G01*
X0049400Y0068149D01*
G75*
G02*
X0049951Y0067598I0000000J-000551D01*
G01*
X0049951Y0066259D01*
G75*
G02*
X0049400Y0065708I-000551J0000000D01*
G01*
X0048297Y0065708D01*
G75*
G02*
X0047746Y0066259I0000000J0000551D01*
G01*
G37*
G36*
G01*
X0065522Y0071338D02*
X0065522Y0070000D01*
G75*
G02*
X0064971Y0069448I-000551J0000000D01*
G01*
X0063868Y0069448D01*
G75*
G02*
X0063317Y0070000I0000000J0000551D01*
G01*
X0063317Y0071338D01*
G75*
G02*
X0063868Y0071889I0000551J0000000D01*
G01*
X0064971Y0071889D01*
G75*
G02*
X0065522Y0071338I0000000J-000551D01*
G01*
G37*
G36*
G01*
X0061742Y0071338D02*
X0061742Y0070000D01*
G75*
G02*
X0061191Y0069448I-000551J0000000D01*
G01*
X0060089Y0069448D01*
G75*
G02*
X0059538Y0070000I0000000J0000551D01*
G01*
X0059538Y0071338D01*
G75*
G02*
X0060089Y0071889I0000551J0000000D01*
G01*
X0061191Y0071889D01*
G75*
G02*
X0061742Y0071338I0000000J-000551D01*
G01*
G37*
G36*
G01*
X0060246Y0049822D02*
X0060246Y0051161D01*
G75*
G02*
X0060797Y0051712I0000551J0000000D01*
G01*
X0061900Y0051712D01*
G75*
G02*
X0062451Y0051161I0000000J-000551D01*
G01*
X0062451Y0049822D01*
G75*
G02*
X0061900Y0049271I-000551J0000000D01*
G01*
X0060797Y0049271D01*
G75*
G02*
X0060246Y0049822I0000000J0000551D01*
G01*
G37*
G36*
G01*
X0064026Y0049822D02*
X0064026Y0051161D01*
G75*
G02*
X0064577Y0051712I0000551J0000000D01*
G01*
X0065679Y0051712D01*
G75*
G02*
X0066231Y0051161I0000000J-000551D01*
G01*
X0066231Y0049822D01*
G75*
G02*
X0065679Y0049271I-000551J0000000D01*
G01*
X0064577Y0049271D01*
G75*
G02*
X0064026Y0049822I0000000J0000551D01*
G01*
G37*
G36*
G01*
X0029737Y0042322D02*
X0029737Y0043110D01*
G75*
G02*
X0030131Y0043504I0000394J0000000D01*
G01*
X0035151Y0043504D01*
G75*
G02*
X0035544Y0043110I0000000J-000394D01*
G01*
X0035544Y0042322D01*
G75*
G02*
X0035151Y0041929I-000394J0000000D01*
G01*
X0030131Y0041929D01*
G75*
G02*
X0029737Y0042322I0000000J0000394D01*
G01*
G37*
G36*
G01*
X0029737Y0044882D02*
X0029737Y0045669D01*
G75*
G02*
X0030131Y0046063I0000394J0000000D01*
G01*
X0035151Y0046063D01*
G75*
G02*
X0035544Y0045669I0000000J-000394D01*
G01*
X0035544Y0044882D01*
G75*
G02*
X0035151Y0044488I-000394J0000000D01*
G01*
X0030131Y0044488D01*
G75*
G02*
X0029737Y0044882I0000000J0000394D01*
G01*
G37*
G36*
G01*
X0029737Y0047441D02*
X0029737Y0048228D01*
G75*
G02*
X0030131Y0048622I0000394J0000000D01*
G01*
X0035151Y0048622D01*
G75*
G02*
X0035544Y0048228I0000000J-000394D01*
G01*
X0035544Y0047441D01*
G75*
G02*
X0035151Y0047047I-000394J0000000D01*
G01*
X0030131Y0047047D01*
G75*
G02*
X0029737Y0047441I0000000J0000394D01*
G01*
G37*
G36*
G01*
X0029737Y0050000D02*
X0029737Y0050787D01*
G75*
G02*
X0030131Y0051181I0000394J0000000D01*
G01*
X0035151Y0051181D01*
G75*
G02*
X0035544Y0050787I0000000J-000394D01*
G01*
X0035544Y0050000D01*
G75*
G02*
X0035151Y0049606I-000394J0000000D01*
G01*
X0030131Y0049606D01*
G75*
G02*
X0029737Y0050000I0000000J0000394D01*
G01*
G37*
G36*
G01*
X0029737Y0052559D02*
X0029737Y0053346D01*
G75*
G02*
X0030131Y0053740I0000394J0000000D01*
G01*
X0035151Y0053740D01*
G75*
G02*
X0035544Y0053346I0000000J-000394D01*
G01*
X0035544Y0052559D01*
G75*
G02*
X0035151Y0052165I-000394J0000000D01*
G01*
X0030131Y0052165D01*
G75*
G02*
X0029737Y0052559I0000000J0000394D01*
G01*
G37*
G36*
G01*
X0029737Y0055118D02*
X0029737Y0055905D01*
G75*
G02*
X0030131Y0056299I0000394J0000000D01*
G01*
X0035151Y0056299D01*
G75*
G02*
X0035544Y0055905I0000000J-000394D01*
G01*
X0035544Y0055118D01*
G75*
G02*
X0035151Y0054724I-000394J0000000D01*
G01*
X0030131Y0054724D01*
G75*
G02*
X0029737Y0055118I0000000J0000394D01*
G01*
G37*
G36*
G01*
X0029737Y0057677D02*
X0029737Y0058464D01*
G75*
G02*
X0030131Y0058858I0000394J0000000D01*
G01*
X0035151Y0058858D01*
G75*
G02*
X0035544Y0058464I0000000J-000394D01*
G01*
X0035544Y0057677D01*
G75*
G02*
X0035151Y0057283I-000394J0000000D01*
G01*
X0030131Y0057283D01*
G75*
G02*
X0029737Y0057677I0000000J0000394D01*
G01*
G37*
G36*
G01*
X0052277Y0057677D02*
X0052277Y0058464D01*
G75*
G02*
X0052670Y0058858I0000394J0000000D01*
G01*
X0057690Y0058858D01*
G75*
G02*
X0058084Y0058464I0000000J-000394D01*
G01*
X0058084Y0057677D01*
G75*
G02*
X0057690Y0057283I-000394J0000000D01*
G01*
X0052670Y0057283D01*
G75*
G02*
X0052277Y0057677I0000000J0000394D01*
G01*
G37*
G36*
G01*
X0052277Y0055118D02*
X0052277Y0055905D01*
G75*
G02*
X0052670Y0056299I0000394J0000000D01*
G01*
X0057690Y0056299D01*
G75*
G02*
X0058084Y0055905I0000000J-000394D01*
G01*
X0058084Y0055118D01*
G75*
G02*
X0057690Y0054724I-000394J0000000D01*
G01*
X0052670Y0054724D01*
G75*
G02*
X0052277Y0055118I0000000J0000394D01*
G01*
G37*
G36*
G01*
X0052277Y0052559D02*
X0052277Y0053346D01*
G75*
G02*
X0052670Y0053740I0000394J0000000D01*
G01*
X0057690Y0053740D01*
G75*
G02*
X0058084Y0053346I0000000J-000394D01*
G01*
X0058084Y0052559D01*
G75*
G02*
X0057690Y0052165I-000394J0000000D01*
G01*
X0052670Y0052165D01*
G75*
G02*
X0052277Y0052559I0000000J0000394D01*
G01*
G37*
G36*
G01*
X0052277Y0050000D02*
X0052277Y0050787D01*
G75*
G02*
X0052670Y0051181I0000394J0000000D01*
G01*
X0057690Y0051181D01*
G75*
G02*
X0058084Y0050787I0000000J-000394D01*
G01*
X0058084Y0050000D01*
G75*
G02*
X0057690Y0049606I-000394J0000000D01*
G01*
X0052670Y0049606D01*
G75*
G02*
X0052277Y0050000I0000000J0000394D01*
G01*
G37*
G36*
G01*
X0052277Y0047441D02*
X0052277Y0048228D01*
G75*
G02*
X0052670Y0048622I0000394J0000000D01*
G01*
X0057690Y0048622D01*
G75*
G02*
X0058084Y0048228I0000000J-000394D01*
G01*
X0058084Y0047441D01*
G75*
G02*
X0057690Y0047047I-000394J0000000D01*
G01*
X0052670Y0047047D01*
G75*
G02*
X0052277Y0047441I0000000J0000394D01*
G01*
G37*
G36*
G01*
X0052277Y0044882D02*
X0052277Y0045669D01*
G75*
G02*
X0052670Y0046063I0000394J0000000D01*
G01*
X0057690Y0046063D01*
G75*
G02*
X0058084Y0045669I0000000J-000394D01*
G01*
X0058084Y0044882D01*
G75*
G02*
X0057690Y0044488I-000394J0000000D01*
G01*
X0052670Y0044488D01*
G75*
G02*
X0052277Y0044882I0000000J0000394D01*
G01*
G37*
G36*
G01*
X0052277Y0042322D02*
X0052277Y0043110D01*
G75*
G02*
X0052670Y0043504I0000394J0000000D01*
G01*
X0057690Y0043504D01*
G75*
G02*
X0058084Y0043110I0000000J-000394D01*
G01*
X0058084Y0042322D01*
G75*
G02*
X0057690Y0041929I-000394J0000000D01*
G01*
X0052670Y0041929D01*
G75*
G02*
X0052277Y0042322I0000000J0000394D01*
G01*
G37*
G36*
G01*
X0012094Y0050193D02*
X0012094Y0053736D01*
G75*
G02*
X0013078Y0054720I0000984J0000000D01*
G01*
X0015145Y0054720D01*
G75*
G02*
X0016129Y0053736I0000000J-000984D01*
G01*
X0016129Y0050193D01*
G75*
G02*
X0015145Y0049208I-000984J0000000D01*
G01*
X0013078Y0049208D01*
G75*
G02*
X0012094Y0050193I0000000J0000984D01*
G01*
G37*
G36*
G01*
X0019279Y0050193D02*
X0019279Y0053736D01*
G75*
G02*
X0020263Y0054720I0000984J0000000D01*
G01*
X0022330Y0054720D01*
G75*
G02*
X0023314Y0053736I0000000J-000984D01*
G01*
X0023314Y0050193D01*
G75*
G02*
X0022330Y0049208I-000984J0000000D01*
G01*
X0020263Y0049208D01*
G75*
G02*
X0019279Y0050193I0000000J0000984D01*
G01*
G37*
G36*
G01*
X0058337Y0063917D02*
X0058337Y0062460D01*
G75*
G02*
X0057805Y0061929I-000531J0000000D01*
G01*
X0056742Y0061929D01*
G75*
G02*
X0056211Y0062460I0000000J0000531D01*
G01*
X0056211Y0063917D01*
G75*
G02*
X0056742Y0064448I0000531J0000000D01*
G01*
X0057805Y0064448D01*
G75*
G02*
X0058337Y0063917I0000000J-000531D01*
G01*
G37*
G36*
G01*
X0054321Y0063917D02*
X0054321Y0062460D01*
G75*
G02*
X0053790Y0061929I-000531J0000000D01*
G01*
X0052727Y0061929D01*
G75*
G02*
X0052195Y0062460I0000000J0000531D01*
G01*
X0052195Y0063917D01*
G75*
G02*
X0052727Y0064448I0000531J0000000D01*
G01*
X0053790Y0064448D01*
G75*
G02*
X0054321Y0063917I0000000J-000531D01*
G01*
G37*
G36*
G01*
X0017904Y0074842D02*
X0017904Y0073504D01*
G75*
G02*
X0017353Y0072952I-000551J0000000D01*
G01*
X0016250Y0072952D01*
G75*
G02*
X0015699Y0073504I0000000J0000551D01*
G01*
X0015699Y0074842D01*
G75*
G02*
X0016250Y0075393I0000551J0000000D01*
G01*
X0017353Y0075393D01*
G75*
G02*
X0017904Y0074842I0000000J-000551D01*
G01*
G37*
G36*
G01*
X0014124Y0074842D02*
X0014124Y0073504D01*
G75*
G02*
X0013573Y0072952I-000551J0000000D01*
G01*
X0012471Y0072952D01*
G75*
G02*
X0011920Y0073504I0000000J0000551D01*
G01*
X0011920Y0074842D01*
G75*
G02*
X0012471Y0075393I0000551J0000000D01*
G01*
X0013573Y0075393D01*
G75*
G02*
X0014124Y0074842I0000000J-000551D01*
G01*
G37*
G36*
G01*
X0066014Y0067657D02*
X0066014Y0066200D01*
G75*
G02*
X0065483Y0065669I-000531J0000000D01*
G01*
X0064420Y0065669D01*
G75*
G02*
X0063888Y0066200I0000000J0000531D01*
G01*
X0063888Y0067657D01*
G75*
G02*
X0064420Y0068189I0000531J0000000D01*
G01*
X0065483Y0068189D01*
G75*
G02*
X0066014Y0067657I0000000J-000531D01*
G01*
G37*
G36*
G01*
X0061998Y0067657D02*
X0061998Y0066200D01*
G75*
G02*
X0061467Y0065669I-000531J0000000D01*
G01*
X0060404Y0065669D01*
G75*
G02*
X0059872Y0066200I0000000J0000531D01*
G01*
X0059872Y0067657D01*
G75*
G02*
X0060404Y0068189I0000531J0000000D01*
G01*
X0061467Y0068189D01*
G75*
G02*
X0061998Y0067657I0000000J-000531D01*
G01*
G37*
G36*
G01*
X0050081Y0063917D02*
X0050081Y0062461D01*
G75*
G02*
X0049549Y0061929I-000531J0000000D01*
G01*
X0048486Y0061929D01*
G75*
G02*
X0047955Y0062461I0000000J0000531D01*
G01*
X0047955Y0063917D01*
G75*
G02*
X0048486Y0064449I0000531J0000000D01*
G01*
X0049549Y0064449D01*
G75*
G02*
X0050081Y0063917I0000000J-000531D01*
G01*
G37*
G36*
G01*
X0046065Y0063917D02*
X0046065Y0062461D01*
G75*
G02*
X0045533Y0061929I-000531J0000000D01*
G01*
X0044470Y0061929D01*
G75*
G02*
X0043939Y0062461I0000000J0000531D01*
G01*
X0043939Y0063917D01*
G75*
G02*
X0044470Y0064449I0000531J0000000D01*
G01*
X0045533Y0064449D01*
G75*
G02*
X0046065Y0063917I0000000J-000531D01*
G01*
G37*
G36*
G01*
X0023314Y0046161D02*
X0023314Y0042618D01*
G75*
G02*
X0022330Y0041633I-000984J0000000D01*
G01*
X0020263Y0041633D01*
G75*
G02*
X0019279Y0042618I0000000J0000984D01*
G01*
X0019279Y0046161D01*
G75*
G02*
X0020263Y0047145I0000984J0000000D01*
G01*
X0022330Y0047145D01*
G75*
G02*
X0023314Y0046161I0000000J-000984D01*
G01*
G37*
G36*
G01*
X0016129Y0046161D02*
X0016129Y0042618D01*
G75*
G02*
X0015145Y0041633I-000984J0000000D01*
G01*
X0013078Y0041633D01*
G75*
G02*
X0012094Y0042618I0000000J0000984D01*
G01*
X0012094Y0046161D01*
G75*
G02*
X0013078Y0047145I0000984J0000000D01*
G01*
X0015145Y0047145D01*
G75*
G02*
X0016129Y0046161I0000000J-000984D01*
G01*
G37*
G36*
G01*
X0050030Y0075059D02*
X0050030Y0073602D01*
G75*
G02*
X0049498Y0073070I-000531J0000000D01*
G01*
X0048435Y0073070D01*
G75*
G02*
X0047904Y0073602I0000000J0000531D01*
G01*
X0047904Y0075059D01*
G75*
G02*
X0048435Y0075590I0000531J0000000D01*
G01*
X0049498Y0075590D01*
G75*
G02*
X0050030Y0075059I0000000J-000531D01*
G01*
G37*
G36*
G01*
X0046014Y0075059D02*
X0046014Y0073602D01*
G75*
G02*
X0045483Y0073070I-000531J0000000D01*
G01*
X0044420Y0073070D01*
G75*
G02*
X0043888Y0073602I0000000J0000531D01*
G01*
X0043888Y0075059D01*
G75*
G02*
X0044420Y0075590I0000531J0000000D01*
G01*
X0045483Y0075590D01*
G75*
G02*
X0046014Y0075059I0000000J-000531D01*
G01*
G37*
G36*
G01*
X0059715Y0041555D02*
X0059715Y0043011D01*
G75*
G02*
X0060246Y0043543I0000531J0000000D01*
G01*
X0061309Y0043543D01*
G75*
G02*
X0061841Y0043011I0000000J-000531D01*
G01*
X0061841Y0041555D01*
G75*
G02*
X0061309Y0041023I-000531J0000000D01*
G01*
X0060246Y0041023D01*
G75*
G02*
X0059715Y0041555I0000000J0000531D01*
G01*
G37*
G36*
G01*
X0063731Y0041555D02*
X0063731Y0043011D01*
G75*
G02*
X0064262Y0043543I0000531J0000000D01*
G01*
X0065325Y0043543D01*
G75*
G02*
X0065857Y0043011I0000000J-000531D01*
G01*
X0065857Y0041555D01*
G75*
G02*
X0065325Y0041023I-000531J0000000D01*
G01*
X0064262Y0041023D01*
G75*
G02*
X0063731Y0041555I0000000J0000531D01*
G01*
G37*
G36*
G01*
X0060168Y0053504D02*
X0060168Y0054960D01*
G75*
G02*
X0060699Y0055492I0000531J0000000D01*
G01*
X0061762Y0055492D01*
G75*
G02*
X0062294Y0054960I0000000J-000531D01*
G01*
X0062294Y0053504D01*
G75*
G02*
X0061762Y0052972I-000531J0000000D01*
G01*
X0060699Y0052972D01*
G75*
G02*
X0060168Y0053504I0000000J0000531D01*
G01*
G37*
G36*
G01*
X0064183Y0053504D02*
X0064183Y0054960D01*
G75*
G02*
X0064715Y0055492I0000531J0000000D01*
G01*
X0065778Y0055492D01*
G75*
G02*
X0066309Y0054960I0000000J-000531D01*
G01*
X0066309Y0053504D01*
G75*
G02*
X0065778Y0052972I-000531J0000000D01*
G01*
X0064715Y0052972D01*
G75*
G02*
X0064183Y0053504I0000000J0000531D01*
G01*
G37*
G36*
G01*
X0058632Y0067657D02*
X0058632Y0066200D01*
G75*
G02*
X0058101Y0065669I-000531J0000000D01*
G01*
X0057038Y0065669D01*
G75*
G02*
X0056506Y0066200I0000000J0000531D01*
G01*
X0056506Y0067657D01*
G75*
G02*
X0057038Y0068189I0000531J0000000D01*
G01*
X0058101Y0068189D01*
G75*
G02*
X0058632Y0067657I0000000J-000531D01*
G01*
G37*
G36*
G01*
X0054616Y0067657D02*
X0054616Y0066200D01*
G75*
G02*
X0054085Y0065669I-000531J0000000D01*
G01*
X0053022Y0065669D01*
G75*
G02*
X0052490Y0066200I0000000J0000531D01*
G01*
X0052490Y0067657D01*
G75*
G02*
X0053022Y0068189I0000531J0000000D01*
G01*
X0054085Y0068189D01*
G75*
G02*
X0054616Y0067657I0000000J-000531D01*
G01*
G37*
G36*
G01*
X0066329Y0058740D02*
X0066329Y0057401D01*
G75*
G02*
X0065778Y0056850I-000551J0000000D01*
G01*
X0064675Y0056850D01*
G75*
G02*
X0064124Y0057401I0000000J0000551D01*
G01*
X0064124Y0058740D01*
G75*
G02*
X0064675Y0059291I0000551J0000000D01*
G01*
X0065778Y0059291D01*
G75*
G02*
X0066329Y0058740I0000000J-000551D01*
G01*
G37*
G36*
G01*
X0062549Y0058740D02*
X0062549Y0057401D01*
G75*
G02*
X0061998Y0056850I-000551J0000000D01*
G01*
X0060896Y0056850D01*
G75*
G02*
X0060345Y0057401I0000000J0000551D01*
G01*
X0060345Y0058740D01*
G75*
G02*
X0060896Y0059291I0000551J0000000D01*
G01*
X0061998Y0059291D01*
G75*
G02*
X0062549Y0058740I0000000J-000551D01*
G01*
G37*
G36*
G01*
X0027181Y0048525D02*
X0025843Y0048525D01*
G75*
G02*
X0025291Y0049076I0000000J0000551D01*
G01*
X0025291Y0050178D01*
G75*
G02*
X0025843Y0050730I0000551J0000000D01*
G01*
X0027181Y0050730D01*
G75*
G02*
X0027732Y0050178I0000000J-000551D01*
G01*
X0027732Y0049076D01*
G75*
G02*
X0027181Y0048525I-000551J0000000D01*
G01*
G37*
G36*
G01*
X0027181Y0052304D02*
X0025843Y0052304D01*
G75*
G02*
X0025291Y0052855I0000000J0000551D01*
G01*
X0025291Y0053958D01*
G75*
G02*
X0025843Y0054509I0000551J0000000D01*
G01*
X0027181Y0054509D01*
G75*
G02*
X0027732Y0053958I0000000J-000551D01*
G01*
X0027732Y0052855D01*
G75*
G02*
X0027181Y0052304I-000551J0000000D01*
G01*
G37*
G36*
G01*
X0059675Y0062460D02*
X0059675Y0063917D01*
G75*
G02*
X0060207Y0064448I0000531J0000000D01*
G01*
X0061270Y0064448D01*
G75*
G02*
X0061801Y0063917I0000000J-000531D01*
G01*
X0061801Y0062460D01*
G75*
G02*
X0061270Y0061929I-000531J0000000D01*
G01*
X0060207Y0061929D01*
G75*
G02*
X0059675Y0062460I0000000J0000531D01*
G01*
G37*
G36*
G01*
X0063691Y0062460D02*
X0063691Y0063917D01*
G75*
G02*
X0064223Y0064448I0000531J0000000D01*
G01*
X0065286Y0064448D01*
G75*
G02*
X0065817Y0063917I0000000J-000531D01*
G01*
X0065817Y0062460D01*
G75*
G02*
X0065286Y0061929I-000531J0000000D01*
G01*
X0064223Y0061929D01*
G75*
G02*
X0063691Y0062460I0000000J0000531D01*
G01*
G37*
G36*
G01*
X0042274Y0073819D02*
X0042274Y0072637D01*
G75*
G02*
X0041683Y0072047I-000591J0000000D01*
G01*
X0037648Y0072047D01*
G75*
G02*
X0037057Y0072637I0000000J0000591D01*
G01*
X0037057Y0073819D01*
G75*
G02*
X0037648Y0074409I0000591J0000000D01*
G01*
X0041683Y0074409D01*
G75*
G02*
X0042274Y0073819I0000000J-000591D01*
G01*
G37*
G36*
G01*
X0042274Y0070078D02*
X0042274Y0068897D01*
G75*
G02*
X0041683Y0068307I-000591J0000000D01*
G01*
X0037648Y0068307D01*
G75*
G02*
X0037057Y0068897I0000000J0000591D01*
G01*
X0037057Y0070078D01*
G75*
G02*
X0037648Y0070669I0000591J0000000D01*
G01*
X0041683Y0070669D01*
G75*
G02*
X0042274Y0070078I0000000J-000591D01*
G01*
G37*
G36*
G01*
X0042274Y0066338D02*
X0042274Y0065157D01*
G75*
G02*
X0041683Y0064567I-000591J0000000D01*
G01*
X0037648Y0064567D01*
G75*
G02*
X0037057Y0065157I0000000J0000591D01*
G01*
X0037057Y0066338D01*
G75*
G02*
X0037648Y0066929I0000591J0000000D01*
G01*
X0041683Y0066929D01*
G75*
G02*
X0042274Y0066338I0000000J-000591D01*
G01*
G37*
G36*
G01*
X0033317Y0066338D02*
X0033317Y0065157D01*
G75*
G02*
X0032727Y0064567I-000591J0000000D01*
G01*
X0028691Y0064567D01*
G75*
G02*
X0028101Y0065157I0000000J0000591D01*
G01*
X0028101Y0066338D01*
G75*
G02*
X0028691Y0066929I0000591J0000000D01*
G01*
X0032727Y0066929D01*
G75*
G02*
X0033317Y0066338I0000000J-000591D01*
G01*
G37*
G36*
G01*
X0033317Y0073819D02*
X0033317Y0072637D01*
G75*
G02*
X0032727Y0072047I-000591J0000000D01*
G01*
X0028691Y0072047D01*
G75*
G02*
X0028101Y0072637I0000000J0000591D01*
G01*
X0028101Y0073819D01*
G75*
G02*
X0028691Y0074409I0000591J0000000D01*
G01*
X0032727Y0074409D01*
G75*
G02*
X0033317Y0073819I0000000J-000591D01*
G01*
G37*
G36*
G01*
X0043967Y0070000D02*
X0043967Y0071338D01*
G75*
G02*
X0044518Y0071889I0000551J0000000D01*
G01*
X0045620Y0071889D01*
G75*
G02*
X0046172Y0071338I0000000J-000551D01*
G01*
X0046172Y0070000D01*
G75*
G02*
X0045620Y0069448I-000551J0000000D01*
G01*
X0044518Y0069448D01*
G75*
G02*
X0043967Y0070000I0000000J0000551D01*
G01*
G37*
G36*
G01*
X0047746Y0070000D02*
X0047746Y0071338D01*
G75*
G02*
X0048297Y0071889I0000551J0000000D01*
G01*
X0049400Y0071889D01*
G75*
G02*
X0049951Y0071338I0000000J-000551D01*
G01*
X0049951Y0070000D01*
G75*
G02*
X0049400Y0069448I-000551J0000000D01*
G01*
X0048297Y0069448D01*
G75*
G02*
X0047746Y0070000I0000000J0000551D01*
G01*
G37*
D10*
X0020860Y0057913D03*
X0027087Y0075883D03*
X0067628Y0040354D03*
X0010857Y0074133D03*
X0011073Y0065846D03*
X0044439Y0040551D03*
X0036092Y0064831D03*
X0018387Y0048177D03*
X0030728Y0061058D03*
X0026526Y0040551D03*
X0018296Y0040606D03*
X0048278Y0060531D03*
X0050448Y0052635D03*
X0010581Y0057677D03*
X0037943Y0060039D03*
X0067471Y0049311D03*
X0045128Y0056299D03*
X0056924Y0075674D03*
X0067372Y0045177D03*
X0023772Y0055034D03*
X0023476Y0041888D03*
X0041352Y0055828D03*
X0027968Y0047956D03*
X0018641Y0055967D03*
X0019124Y0074252D03*
X0064950Y0046861D03*
X0029503Y0071166D03*
X0027850Y0060415D03*
X0038738Y0045745D03*
X0060188Y0046950D03*
X0054969Y0073385D03*
X0022603Y0073972D03*
X0052018Y0073980D03*
X0051326Y0060235D03*
X0050661Y0067270D03*
X0039142Y0049249D03*
X0019147Y0064941D03*
X0033671Y0060822D03*
X0037416Y0056780D03*
X0038042Y0052854D03*
X0049459Y0057677D03*
X0056807Y0060687D03*
X0051095Y0042147D03*
X0038238Y0042027D03*
D29*
X0026512Y0053407D02*
X0024397Y0051292D01*
X0021297Y0052559D02*
X0021297Y0051968D01*
X0023772Y0055034D02*
X0021297Y0052559D01*
X0019147Y0066079D02*
X0022047Y0068979D01*
X0019147Y0064941D02*
X0019147Y0066079D01*
X0044695Y0062303D02*
X0045384Y0062992D01*
X0035392Y0062303D02*
X0044695Y0062303D01*
X0034368Y0063326D02*
X0035392Y0062303D01*
X0026132Y0065239D02*
X0028045Y0063326D01*
X0023524Y0065239D02*
X0026132Y0065239D01*
X0033671Y0059101D02*
X0033671Y0060822D01*
X0028045Y0063326D02*
X0034368Y0063326D01*
X0032641Y0058070D02*
X0033671Y0059101D01*
X0061447Y0058031D02*
X0065246Y0054232D01*
X0026034Y0053885D02*
X0026034Y0055572D01*
X0026512Y0053407D02*
X0026034Y0053885D01*
X0023476Y0041888D02*
X0021270Y0044094D01*
X0065109Y0062657D02*
X0060837Y0066929D01*
X0065109Y0058189D02*
X0065109Y0062657D01*
X0059203Y0057018D02*
X0059203Y0059645D01*
X0061231Y0054232D02*
X0061231Y0050610D01*
X0059203Y0056784D02*
X0059203Y0057017D01*
X0061231Y0054232D02*
X0061231Y0054756D01*
D24*
X0059203Y0057017D02*
X0059203Y0057018D01*
D29*
X0055180Y0052952D02*
X0060896Y0052952D01*
X0059203Y0059645D02*
X0059203Y0059811D01*
X0060837Y0061445D02*
X0060837Y0063189D01*
X0059203Y0059811D02*
X0060837Y0061445D01*
X0061231Y0054756D02*
X0059203Y0056784D01*
X0027278Y0050393D02*
X0032641Y0050393D01*
X0064616Y0074330D02*
X0066211Y0074330D01*
X0064616Y0070866D02*
X0064420Y0070669D01*
X0026512Y0049627D02*
X0026512Y0046195D01*
X0029503Y0071166D02*
X0029503Y0072022D01*
X0026512Y0046195D02*
X0026526Y0046181D01*
X0019124Y0074252D02*
X0016880Y0074252D01*
X0016743Y0074114D02*
X0016743Y0068979D01*
X0029503Y0072022D02*
X0030118Y0072637D01*
X0016880Y0074252D02*
X0016801Y0074173D01*
X0016743Y0068979D02*
X0014567Y0068979D01*
X0026512Y0049627D02*
X0027278Y0050393D01*
X0066211Y0074330D02*
X0067471Y0075590D01*
X0026512Y0049412D02*
X0026512Y0049627D01*
X0064616Y0074330D02*
X0064616Y0070866D01*
X0016801Y0074173D02*
X0016743Y0074114D01*
X0027968Y0047956D02*
X0026512Y0049412D01*
X0059238Y0047834D02*
X0055180Y0047834D01*
X0054969Y0073385D02*
X0053747Y0072163D01*
X0053649Y0070646D02*
X0053649Y0067024D01*
X0053747Y0072163D02*
X0053747Y0070646D01*
X0045069Y0074291D02*
X0045030Y0074330D01*
X0040453Y0073228D02*
X0045187Y0073228D01*
X0045069Y0070669D02*
X0045069Y0074291D01*
X0052018Y0073980D02*
X0052018Y0073560D01*
X0052018Y0073560D02*
X0049126Y0070669D01*
X0049126Y0070669D02*
X0048849Y0070669D01*
X0045030Y0063189D02*
X0045030Y0066929D01*
D24*
X0051014Y0060546D02*
X0051132Y0060664D01*
D29*
X0050359Y0066968D02*
X0049164Y0066968D01*
X0051014Y0066917D02*
X0050661Y0067270D01*
X0051211Y0060350D02*
X0051014Y0060546D01*
D24*
X0051132Y0066799D02*
X0051014Y0066917D01*
X0051132Y0060664D02*
X0051132Y0066799D01*
D29*
X0050661Y0067270D02*
X0050359Y0066968D01*
X0037727Y0047834D02*
X0032641Y0047834D01*
X0039142Y0049249D02*
X0037727Y0047834D01*
X0022205Y0068979D02*
X0023524Y0068979D01*
D24*
X0022047Y0068979D02*
X0023524Y0068979D01*
D29*
X0023524Y0068979D02*
X0024758Y0068979D01*
X0027281Y0066456D02*
X0030000Y0066456D01*
X0024758Y0068979D02*
X0027281Y0066456D01*
X0030000Y0066456D02*
X0030709Y0065748D01*
X0067471Y0066141D02*
X0065640Y0066141D01*
X0065640Y0066141D02*
X0064853Y0066929D01*
X0010679Y0050157D02*
X0014754Y0050157D01*
X0010679Y0046220D02*
X0012300Y0046220D01*
X0012300Y0046220D02*
X0014111Y0044409D01*
X0037416Y0056780D02*
X0036296Y0055661D01*
X0036296Y0055661D02*
X0032790Y0055661D01*
X0037943Y0052952D02*
X0032641Y0052952D01*
X0038042Y0052854D02*
X0037943Y0052952D01*
X0055180Y0058070D02*
X0055180Y0055511D01*
X0054483Y0060363D02*
X0054483Y0058767D01*
X0054483Y0058767D02*
X0055180Y0058070D01*
X0057180Y0066929D02*
X0053652Y0063400D01*
X0053652Y0063400D02*
X0053652Y0063189D01*
X0053553Y0063189D02*
X0053553Y0061293D01*
X0057587Y0066929D02*
X0057180Y0066929D01*
X0053553Y0061293D02*
X0054483Y0060363D01*
X0062451Y0044626D02*
X0059317Y0044626D01*
X0056807Y0060687D02*
X0056807Y0062426D01*
X0049459Y0057677D02*
X0047987Y0056205D01*
X0051526Y0045275D02*
X0055180Y0045275D01*
X0047987Y0056205D02*
X0047987Y0048814D01*
X0064794Y0042283D02*
X0062451Y0044626D01*
X0058668Y0045275D02*
X0055180Y0045275D01*
X0056807Y0062426D02*
X0057569Y0063189D01*
X0047987Y0048814D02*
X0051526Y0045275D01*
X0059317Y0044626D02*
X0058668Y0045275D01*
X0055180Y0042716D02*
X0051663Y0042716D01*
X0055180Y0042716D02*
X0060246Y0042716D01*
X0051663Y0042716D02*
X0051095Y0042147D01*
X0038238Y0042027D02*
X0037549Y0042716D01*
X0032641Y0045275D02*
X0032641Y0042716D01*
X0037549Y0042716D02*
X0032641Y0042716D01*
X0016093Y0065446D02*
X0016093Y0065391D01*
X0029164Y0068307D02*
X0027215Y0070256D01*
X0027215Y0070263D02*
X0026175Y0071302D01*
D24*
X0016093Y0065391D02*
X0016093Y0065354D01*
D29*
X0020073Y0071302D02*
X0018318Y0069547D01*
X0040453Y0069488D02*
X0034673Y0069488D01*
X0026175Y0071302D02*
X0020073Y0071302D01*
X0016093Y0063024D02*
X0014567Y0061499D01*
X0018318Y0067671D02*
X0016093Y0065446D01*
X0018318Y0069547D02*
X0018318Y0067671D01*
X0033492Y0068307D02*
X0029164Y0068307D01*
X0027215Y0070256D02*
X0027215Y0070263D01*
X0016093Y0065354D02*
X0016093Y0063024D01*
X0034673Y0069488D02*
X0033492Y0068307D01*
G36*
X0049857Y0064114D02*
G01*
X0049999Y0063920D01*
X0050018Y0063799D01*
X0050018Y0061573D01*
X0049943Y0061344D01*
X0049922Y0061318D01*
X0049822Y0061202D01*
X0049610Y0060739D01*
X0049610Y0060739D01*
X0049538Y0060235D01*
X0049538Y0060235D01*
X0049587Y0059892D01*
X0049546Y0059655D01*
X0049373Y0059487D01*
X0049231Y0059454D01*
X0049232Y0059451D01*
X0049204Y0059447D01*
X0048716Y0059304D01*
X0048716Y0059304D01*
X0048288Y0059029D01*
X0047954Y0058644D01*
X0047743Y0058181D01*
X0047743Y0058181D01*
X0047670Y0057677D01*
X0047670Y0057677D01*
X0047675Y0057643D01*
X0047634Y0057406D01*
X0047565Y0057312D01*
X0047325Y0057072D01*
X0047266Y0057024D01*
X0047207Y0056985D01*
X0046973Y0056634D01*
X0046968Y0056627D01*
X0046968Y0056627D01*
X0046896Y0056264D01*
X0046884Y0056205D01*
X0046897Y0056142D01*
X0046898Y0056136D01*
X0046905Y0056060D01*
X0046905Y0048959D01*
X0046898Y0048883D01*
X0046884Y0048814D01*
X0046905Y0048709D01*
X0046905Y0048708D01*
X0046968Y0048392D01*
X0047112Y0048177D01*
X0047207Y0048034D01*
X0047266Y0047995D01*
X0047325Y0047947D01*
X0050659Y0044613D01*
X0050707Y0044554D01*
X0050744Y0044498D01*
X0050746Y0044495D01*
X0050746Y0044495D01*
X0050749Y0044492D01*
X0050753Y0044485D01*
X0050767Y0044464D01*
X0050765Y0044462D01*
X0050859Y0044278D01*
X0050821Y0044040D01*
X0050651Y0043869D01*
X0050584Y0043843D01*
X0050352Y0043774D01*
X0050352Y0043774D01*
X0049923Y0043499D01*
X0049923Y0043499D01*
X0049923Y0043499D01*
X0049888Y0043458D01*
X0049590Y0043114D01*
X0049379Y0042651D01*
X0049379Y0042651D01*
X0049306Y0042147D01*
X0049306Y0042147D01*
X0049379Y0041644D01*
X0049379Y0041644D01*
X0049379Y0041644D01*
X0049379Y0041644D01*
X0049590Y0041180D01*
X0049923Y0040796D01*
X0050352Y0040520D01*
X0050840Y0040377D01*
X0050840Y0040377D01*
X0051349Y0040377D01*
X0051349Y0040377D01*
X0051838Y0040520D01*
X0052266Y0040796D01*
X0052599Y0041180D01*
X0052599Y0041180D01*
X0052618Y0041201D01*
X0052627Y0041193D01*
X0052773Y0041313D01*
X0052914Y0041339D01*
X0057787Y0041339D01*
X0057787Y0041339D01*
X0058074Y0041396D01*
X0058332Y0041569D01*
X0058548Y0041635D01*
X0058750Y0041635D01*
X0058979Y0041560D01*
X0059120Y0041365D01*
X0059134Y0041301D01*
X0059136Y0041294D01*
X0059136Y0041294D01*
X0059136Y0041294D01*
X0059306Y0040910D01*
X0059602Y0040614D01*
X0059985Y0040445D01*
X0060079Y0040434D01*
X0060079Y0040434D01*
X0060079Y0040434D01*
X0061477Y0040434D01*
X0061477Y0040434D01*
X0061570Y0040445D01*
X0061954Y0040614D01*
X0062250Y0040910D01*
X0062419Y0041294D01*
X0062419Y0041294D01*
X0062429Y0041316D01*
X0062590Y0041495D01*
X0062825Y0041546D01*
X0063046Y0041449D01*
X0063142Y0041316D01*
X0063152Y0041294D01*
X0063152Y0041294D01*
X0063321Y0040910D01*
X0063618Y0040614D01*
X0064001Y0040445D01*
X0064095Y0040434D01*
X0064095Y0040434D01*
X0064095Y0040434D01*
X0065492Y0040434D01*
X0065492Y0040434D01*
X0065586Y0040445D01*
X0065969Y0040614D01*
X0066266Y0040910D01*
X0066435Y0041294D01*
X0066446Y0041387D01*
X0066446Y0043179D01*
X0066435Y0043272D01*
X0066266Y0043656D01*
X0065969Y0043952D01*
X0065586Y0044121D01*
X0065586Y0044121D01*
X0065586Y0044121D01*
X0065492Y0044132D01*
X0065492Y0044132D01*
X0064635Y0044132D01*
X0064406Y0044207D01*
X0064360Y0044246D01*
X0064105Y0044501D01*
X0063995Y0044716D01*
X0064033Y0044954D01*
X0064203Y0045124D01*
X0064441Y0045162D01*
X0064490Y0045151D01*
X0064695Y0045091D01*
X0064695Y0045091D01*
X0064695Y0045091D01*
X0064695Y0045091D01*
X0065204Y0045091D01*
X0065204Y0045091D01*
X0065693Y0045234D01*
X0066121Y0045509D01*
X0066454Y0045894D01*
X0066666Y0046357D01*
X0066668Y0046372D01*
X0066738Y0046861D01*
X0066738Y0046861D01*
X0066666Y0047365D01*
X0066666Y0047365D01*
X0066666Y0047365D01*
X0066454Y0047828D01*
X0066250Y0048064D01*
X0066156Y0048286D01*
X0066211Y0048520D01*
X0066380Y0048672D01*
X0066459Y0048709D01*
X0066793Y0049043D01*
X0066992Y0049471D01*
X0066995Y0049492D01*
X0066995Y0049492D01*
X0064518Y0049492D01*
X0064289Y0049566D01*
X0064147Y0049761D01*
X0064128Y0049882D01*
X0064128Y0051492D01*
X0066128Y0051492D01*
X0066128Y0051492D01*
X0066995Y0051492D01*
X0066995Y0051492D01*
X0066992Y0051513D01*
X0066793Y0051941D01*
X0066712Y0052021D01*
X0066603Y0052236D01*
X0066640Y0052474D01*
X0066712Y0052573D01*
X0066875Y0052735D01*
X0066875Y0052735D01*
X0067071Y0053157D01*
X0067071Y0053157D01*
X0067081Y0053232D01*
X0066246Y0053232D01*
X0066246Y0053232D01*
X0066246Y0052307D01*
X0066172Y0052078D01*
X0066132Y0052031D01*
X0066128Y0052027D01*
X0066128Y0051492D01*
X0064128Y0051492D01*
X0064128Y0052378D01*
X0064203Y0052607D01*
X0064242Y0052653D01*
X0064246Y0052657D01*
X0064246Y0054842D01*
X0064321Y0055071D01*
X0064516Y0055213D01*
X0064636Y0055232D01*
X0067081Y0055232D01*
X0067071Y0055307D01*
X0067071Y0055307D01*
X0066875Y0055728D01*
X0066572Y0056031D01*
X0066463Y0056246D01*
X0066500Y0056484D01*
X0066572Y0056582D01*
X0066735Y0056745D01*
X0066907Y0057136D01*
X0066918Y0057231D01*
X0066918Y0058910D01*
X0066907Y0059005D01*
X0066897Y0059029D01*
X0066866Y0059099D01*
X0066841Y0059339D01*
X0066963Y0059547D01*
X0067183Y0059644D01*
X0067222Y0059646D01*
X0067725Y0059646D01*
X0067725Y0059646D01*
X0068214Y0059790D01*
X0068214Y0059790D01*
X0068241Y0059798D01*
X0068243Y0059788D01*
X0068438Y0059810D01*
X0068648Y0059692D01*
X0068748Y0059473D01*
X0068750Y0059428D01*
X0068750Y0039466D01*
X0068676Y0039237D01*
X0068481Y0039095D01*
X0068360Y0039076D01*
X0009693Y0039076D01*
X0009464Y0039151D01*
X0009322Y0039346D01*
X0009303Y0039466D01*
X0009303Y0043221D01*
X0009378Y0043450D01*
X0009573Y0043592D01*
X0009786Y0043600D01*
X0010221Y0043493D01*
X0010425Y0043366D01*
X0010516Y0043143D01*
X0010517Y0043114D01*
X0010517Y0042359D01*
X0010528Y0042214D01*
X0010528Y0042214D01*
X0010528Y0042214D01*
X0010709Y0041593D01*
X0011038Y0041036D01*
X0011496Y0040578D01*
X0012053Y0040249D01*
X0012674Y0040068D01*
X0012819Y0040057D01*
X0012819Y0040057D01*
X0015404Y0040057D01*
X0015404Y0040057D01*
X0015549Y0040068D01*
X0016170Y0040249D01*
X0016727Y0040578D01*
X0017185Y0041036D01*
X0017514Y0041593D01*
X0017695Y0042214D01*
X0017706Y0042359D01*
X0017706Y0046420D01*
X0017695Y0046565D01*
X0017514Y0047186D01*
X0017185Y0047743D01*
X0017027Y0047901D01*
X0016917Y0048116D01*
X0016955Y0048354D01*
X0017027Y0048452D01*
X0017185Y0048610D01*
X0017514Y0049167D01*
X0017695Y0049789D01*
X0017706Y0049934D01*
X0017706Y0053876D01*
X0017780Y0054105D01*
X0017975Y0054246D01*
X0018206Y0054250D01*
X0018387Y0054197D01*
X0018387Y0054197D01*
X0018409Y0054190D01*
X0018608Y0054054D01*
X0018689Y0053827D01*
X0018689Y0053816D01*
X0018689Y0050069D01*
X0018748Y0049700D01*
X0018974Y0049257D01*
X0018974Y0049256D01*
X0019327Y0048904D01*
X0019771Y0048677D01*
X0020038Y0048635D01*
X0020139Y0048619D01*
X0020139Y0048619D01*
X0022454Y0048619D01*
X0022542Y0048633D01*
X0022822Y0048677D01*
X0023266Y0048904D01*
X0023619Y0049256D01*
X0023845Y0049700D01*
X0023904Y0050069D01*
X0023904Y0052088D01*
X0023978Y0052317D01*
X0024173Y0052459D01*
X0024414Y0052459D01*
X0024609Y0052317D01*
X0024647Y0052253D01*
X0024729Y0052076D01*
X0025063Y0051742D01*
X0025091Y0051723D01*
X0025087Y0051717D01*
X0025233Y0051581D01*
X0025279Y0051344D01*
X0025177Y0051126D01*
X0025167Y0051116D01*
X0024885Y0050834D01*
X0024713Y0050444D01*
X0024702Y0050349D01*
X0024702Y0048906D01*
X0024713Y0048810D01*
X0024713Y0048810D01*
X0024713Y0048810D01*
X0024885Y0048420D01*
X0025133Y0048173D01*
X0025242Y0047958D01*
X0025205Y0047720D01*
X0025133Y0047621D01*
X0024991Y0047479D01*
X0024899Y0047388D01*
X0024727Y0046998D01*
X0024716Y0046902D01*
X0024716Y0045459D01*
X0024727Y0045364D01*
X0024727Y0045364D01*
X0024727Y0045364D01*
X0024899Y0044974D01*
X0025181Y0044692D01*
X0025291Y0044477D01*
X0025253Y0044239D01*
X0025103Y0044089D01*
X0025105Y0044085D01*
X0025086Y0044072D01*
X0025083Y0044069D01*
X0025078Y0044066D01*
X0025077Y0044066D01*
X0024743Y0043732D01*
X0024731Y0043706D01*
X0024567Y0043530D01*
X0024330Y0043484D01*
X0024246Y0043508D01*
X0024246Y0043507D01*
X0024184Y0043525D01*
X0023985Y0043661D01*
X0023904Y0043888D01*
X0023904Y0043899D01*
X0023904Y0046285D01*
X0023861Y0046555D01*
X0023845Y0046653D01*
X0023619Y0047098D01*
X0023266Y0047450D01*
X0023266Y0047450D01*
X0022822Y0047676D01*
X0022454Y0047735D01*
X0022454Y0047735D01*
X0020139Y0047735D01*
X0020139Y0047735D01*
X0019771Y0047676D01*
X0019327Y0047450D01*
X0018974Y0047098D01*
X0018748Y0046653D01*
X0018689Y0046285D01*
X0018689Y0042494D01*
X0018748Y0042125D01*
X0018962Y0041706D01*
X0018974Y0041681D01*
X0019327Y0041329D01*
X0019771Y0041102D01*
X0020038Y0041060D01*
X0020139Y0041044D01*
X0020139Y0041044D01*
X0021687Y0041044D01*
X0021916Y0040970D01*
X0021981Y0040910D01*
X0022305Y0040536D01*
X0022733Y0040261D01*
X0023222Y0040117D01*
X0023222Y0040117D01*
X0023731Y0040117D01*
X0023731Y0040117D01*
X0024219Y0040261D01*
X0024648Y0040536D01*
X0024702Y0040599D01*
X0024909Y0040724D01*
X0025149Y0040703D01*
X0025162Y0040697D01*
X0025505Y0040537D01*
X0025505Y0040537D01*
X0025526Y0040534D01*
X0025526Y0040534D01*
X0025526Y0043011D01*
X0025600Y0043241D01*
X0025795Y0043382D01*
X0025916Y0043401D01*
X0027136Y0043401D01*
X0027365Y0043327D01*
X0027507Y0043132D01*
X0027526Y0043011D01*
X0027526Y0040534D01*
X0027526Y0040534D01*
X0027547Y0040537D01*
X0027975Y0040737D01*
X0028309Y0041070D01*
X0028508Y0041498D01*
X0028508Y0041498D01*
X0028535Y0041706D01*
X0028541Y0041705D01*
X0028622Y0041910D01*
X0028826Y0042038D01*
X0029067Y0042023D01*
X0029246Y0041877D01*
X0029361Y0041706D01*
X0029422Y0041614D01*
X0029422Y0041614D01*
X0029599Y0041495D01*
X0029747Y0041396D01*
X0029965Y0041353D01*
X0030034Y0041339D01*
X0030034Y0041339D01*
X0030034Y0041339D01*
X0035248Y0041339D01*
X0035534Y0041396D01*
X0035793Y0041569D01*
X0036009Y0041635D01*
X0036221Y0041635D01*
X0036450Y0041560D01*
X0036575Y0041407D01*
X0036734Y0041060D01*
X0036734Y0041060D01*
X0036734Y0041060D01*
X0037067Y0040675D01*
X0037495Y0040400D01*
X0037984Y0040257D01*
X0037984Y0040257D01*
X0038493Y0040257D01*
X0038493Y0040257D01*
X0038981Y0040400D01*
X0039410Y0040675D01*
X0039743Y0041060D01*
X0039955Y0041523D01*
X0039961Y0041569D01*
X0040027Y0042027D01*
X0040027Y0042027D01*
X0039955Y0042531D01*
X0039955Y0042531D01*
X0039955Y0042531D01*
X0039743Y0042994D01*
X0039410Y0043379D01*
X0039361Y0043410D01*
X0039208Y0043597D01*
X0039195Y0043837D01*
X0039325Y0044040D01*
X0039462Y0044112D01*
X0039481Y0044118D01*
X0039910Y0044393D01*
X0040243Y0044778D01*
X0040454Y0045241D01*
X0040493Y0045509D01*
X0040527Y0045745D01*
X0040527Y0045745D01*
X0040454Y0046249D01*
X0040454Y0046249D01*
X0040454Y0046249D01*
X0040243Y0046712D01*
X0039910Y0047097D01*
X0039910Y0047097D01*
X0039903Y0047105D01*
X0039809Y0047327D01*
X0039864Y0047561D01*
X0039987Y0047688D01*
X0040313Y0047898D01*
X0040646Y0048282D01*
X0040858Y0048746D01*
X0040858Y0048746D01*
X0040930Y0049249D01*
X0040930Y0049249D01*
X0040858Y0049753D01*
X0040858Y0049753D01*
X0040858Y0049753D01*
X0040646Y0050216D01*
X0040313Y0050601D01*
X0039885Y0050876D01*
X0039540Y0050978D01*
X0039499Y0050990D01*
X0039300Y0051126D01*
X0039219Y0051353D01*
X0039287Y0051584D01*
X0039314Y0051619D01*
X0039546Y0051887D01*
X0039758Y0052350D01*
X0039758Y0052350D01*
X0039830Y0052854D01*
X0039830Y0052854D01*
X0039758Y0053358D01*
X0039758Y0053358D01*
X0039758Y0053358D01*
X0039546Y0053821D01*
X0039213Y0054206D01*
X0039196Y0054217D01*
X0038785Y0054481D01*
X0038785Y0054481D01*
X0038456Y0054577D01*
X0038257Y0054713D01*
X0038176Y0054940D01*
X0038244Y0055171D01*
X0038355Y0055279D01*
X0038587Y0055428D01*
X0038915Y0055806D01*
X0039121Y0055931D01*
X0039361Y0055910D01*
X0039543Y0055752D01*
X0039595Y0055607D01*
X0039636Y0055324D01*
X0039636Y0055324D01*
X0039636Y0055324D01*
X0039636Y0055324D01*
X0039847Y0054861D01*
X0040181Y0054476D01*
X0040609Y0054201D01*
X0041097Y0054057D01*
X0041097Y0054057D01*
X0041607Y0054057D01*
X0041607Y0054057D01*
X0042095Y0054201D01*
X0042523Y0054476D01*
X0042857Y0054861D01*
X0043068Y0055324D01*
X0043068Y0055324D01*
X0043141Y0055828D01*
X0043141Y0055828D01*
X0043068Y0056332D01*
X0043068Y0056332D01*
X0043068Y0056332D01*
X0042857Y0056795D01*
X0042523Y0057180D01*
X0042443Y0057231D01*
X0042095Y0057455D01*
X0041607Y0057598D01*
X0041607Y0057598D01*
X0041097Y0057598D01*
X0041097Y0057598D01*
X0040609Y0057455D01*
X0040609Y0057455D01*
X0040181Y0057180D01*
X0040181Y0057180D01*
X0039853Y0056802D01*
X0039647Y0056677D01*
X0039407Y0056698D01*
X0039225Y0056856D01*
X0039173Y0057002D01*
X0039132Y0057284D01*
X0039132Y0057284D01*
X0039132Y0057284D01*
X0038921Y0057747D01*
X0038587Y0058132D01*
X0038512Y0058181D01*
X0038159Y0058407D01*
X0037671Y0058551D01*
X0037671Y0058551D01*
X0037161Y0058551D01*
X0037161Y0058551D01*
X0036673Y0058407D01*
X0036655Y0058399D01*
X0036415Y0058372D01*
X0036206Y0058490D01*
X0036111Y0058678D01*
X0036089Y0058788D01*
X0036077Y0058848D01*
X0036077Y0058848D01*
X0035859Y0059173D01*
X0035859Y0059173D01*
X0035534Y0059390D01*
X0035534Y0059390D01*
X0035495Y0059398D01*
X0035285Y0059516D01*
X0035184Y0059735D01*
X0035216Y0059942D01*
X0035388Y0060318D01*
X0035392Y0060348D01*
X0035460Y0060822D01*
X0035460Y0060832D01*
X0035463Y0060839D01*
X0035464Y0060849D01*
X0035466Y0060849D01*
X0035535Y0061061D01*
X0035729Y0061202D01*
X0035850Y0061221D01*
X0044550Y0061221D01*
X0044626Y0061214D01*
X0044639Y0061211D01*
X0044695Y0061200D01*
X0045117Y0061284D01*
X0045153Y0061299D01*
X0045156Y0061290D01*
X0045319Y0061340D01*
X0045701Y0061340D01*
X0045701Y0061340D01*
X0045794Y0061351D01*
X0046178Y0061520D01*
X0046474Y0061816D01*
X0046544Y0061975D01*
X0046705Y0062154D01*
X0046940Y0062205D01*
X0047161Y0062108D01*
X0047254Y0061982D01*
X0047389Y0061692D01*
X0047718Y0061364D01*
X0048018Y0061224D01*
X0048018Y0063799D01*
X0048092Y0064028D01*
X0048287Y0064170D01*
X0048407Y0064189D01*
X0049628Y0064189D01*
X0049857Y0064114D01*
G37*
G36*
X0051767Y0057240D02*
G01*
X0051827Y0057169D01*
X0051925Y0057024D01*
X0051935Y0057008D01*
X0052001Y0056776D01*
X0051935Y0056574D01*
X0051744Y0056289D01*
X0051744Y0056289D01*
X0051687Y0056002D01*
X0051687Y0056002D01*
X0051687Y0055021D01*
X0051687Y0055021D01*
X0051744Y0054734D01*
X0051744Y0054734D01*
X0051744Y0054734D01*
X0051881Y0054530D01*
X0051935Y0054448D01*
X0052001Y0054217D01*
X0051935Y0054015D01*
X0051744Y0053730D01*
X0051744Y0053730D01*
X0051687Y0053443D01*
X0051687Y0053443D01*
X0051687Y0052462D01*
X0051687Y0052462D01*
X0051744Y0052175D01*
X0051744Y0052175D01*
X0051825Y0052055D01*
X0051890Y0051823D01*
X0051807Y0051597D01*
X0051776Y0051563D01*
X0051679Y0051466D01*
X0051679Y0051466D01*
X0051553Y0051181D01*
X0051553Y0051181D01*
X0058807Y0051181D01*
X0058744Y0051324D01*
X0058720Y0051563D01*
X0058841Y0051772D01*
X0059061Y0051869D01*
X0059101Y0051871D01*
X0059282Y0051871D01*
X0059511Y0051796D01*
X0059653Y0051602D01*
X0059669Y0051436D01*
X0059657Y0051331D01*
X0059657Y0049652D01*
X0059668Y0049557D01*
X0059709Y0049463D01*
X0059734Y0049223D01*
X0059613Y0049015D01*
X0059392Y0048918D01*
X0059353Y0048916D01*
X0059101Y0048916D01*
X0058872Y0048990D01*
X0058730Y0049185D01*
X0058730Y0049426D01*
X0058744Y0049463D01*
X0058807Y0049606D01*
X0051553Y0049606D01*
X0051679Y0049321D01*
X0051776Y0049224D01*
X0051885Y0049009D01*
X0051848Y0048771D01*
X0051825Y0048732D01*
X0051744Y0048612D01*
X0051744Y0048612D01*
X0051687Y0048325D01*
X0051687Y0048325D01*
X0051687Y0047584D01*
X0051613Y0047355D01*
X0051418Y0047213D01*
X0051177Y0047213D01*
X0051022Y0047309D01*
X0049183Y0049148D01*
X0049073Y0049363D01*
X0049068Y0049424D01*
X0049068Y0055517D01*
X0049143Y0055746D01*
X0049338Y0055887D01*
X0049458Y0055906D01*
X0049713Y0055906D01*
X0049713Y0055906D01*
X0050202Y0056050D01*
X0050630Y0056325D01*
X0050964Y0056710D01*
X0051149Y0057115D01*
X0051311Y0057292D01*
X0051548Y0057340D01*
X0051767Y0057240D01*
G37*
G36*
X0065954Y0077189D02*
G01*
X0066095Y0076994D01*
X0066095Y0076753D01*
X0066019Y0076618D01*
X0065974Y0076566D01*
X0065966Y0076557D01*
X0065871Y0076349D01*
X0065708Y0076171D01*
X0065472Y0076123D01*
X0065453Y0076127D01*
X0065338Y0076140D01*
X0065338Y0076140D01*
X0063895Y0076140D01*
X0063895Y0076140D01*
X0063800Y0076129D01*
X0063800Y0076129D01*
X0063443Y0075972D01*
X0063409Y0075957D01*
X0063127Y0075675D01*
X0062913Y0075565D01*
X0062675Y0075603D01*
X0062524Y0075754D01*
X0062521Y0075751D01*
X0062508Y0075770D01*
X0062504Y0075773D01*
X0062502Y0075779D01*
X0062501Y0075779D01*
X0062168Y0076113D01*
X0061837Y0076267D01*
X0061837Y0072523D01*
X0061762Y0072294D01*
X0061723Y0072248D01*
X0061640Y0072165D01*
X0061640Y0070059D01*
X0061566Y0069830D01*
X0061371Y0069688D01*
X0061250Y0069669D01*
X0056644Y0069669D01*
X0056415Y0069743D01*
X0056273Y0069938D01*
X0056254Y0070059D01*
X0056254Y0071669D01*
X0058254Y0071669D01*
X0058254Y0071669D01*
X0059640Y0071669D01*
X0059640Y0071669D01*
X0059640Y0072476D01*
X0059714Y0072705D01*
X0059754Y0072752D01*
X0059837Y0072834D01*
X0059837Y0073330D01*
X0059837Y0073330D01*
X0058970Y0073330D01*
X0058970Y0073330D01*
X0058973Y0073309D01*
X0059140Y0072951D01*
X0059169Y0072712D01*
X0059052Y0072501D01*
X0058834Y0072399D01*
X0058618Y0072441D01*
X0058616Y0072437D01*
X0058599Y0072445D01*
X0058598Y0072445D01*
X0058595Y0072447D01*
X0058254Y0072606D01*
X0058254Y0071669D01*
X0056254Y0071669D01*
X0056254Y0072019D01*
X0056329Y0072248D01*
X0056349Y0072274D01*
X0056474Y0072418D01*
X0056685Y0072881D01*
X0056685Y0072881D01*
X0056758Y0073385D01*
X0056758Y0073385D01*
X0056685Y0073889D01*
X0056685Y0073889D01*
X0056685Y0073889D01*
X0056474Y0074352D01*
X0056140Y0074737D01*
X0056028Y0074809D01*
X0055712Y0075012D01*
X0055223Y0075155D01*
X0055223Y0075155D01*
X0054714Y0075155D01*
X0054714Y0075155D01*
X0054226Y0075012D01*
X0054022Y0074881D01*
X0053789Y0074820D01*
X0053565Y0074907D01*
X0053517Y0074953D01*
X0053488Y0074987D01*
X0053190Y0075330D01*
X0058970Y0075330D01*
X0058970Y0075330D01*
X0059837Y0075330D01*
X0059837Y0075330D01*
X0059837Y0076267D01*
X0059506Y0076113D01*
X0059172Y0075779D01*
X0058973Y0075351D01*
X0058970Y0075330D01*
X0053190Y0075330D01*
X0053189Y0075331D01*
X0052761Y0075607D01*
X0052709Y0075622D01*
X0052273Y0075750D01*
X0052273Y0075750D01*
X0051763Y0075750D01*
X0051763Y0075750D01*
X0051275Y0075607D01*
X0051275Y0075607D01*
X0051206Y0075563D01*
X0050973Y0075501D01*
X0050749Y0075589D01*
X0050642Y0075726D01*
X0050595Y0075827D01*
X0050266Y0076156D01*
X0049967Y0076295D01*
X0049967Y0076295D01*
X0049967Y0073720D01*
X0049892Y0073491D01*
X0049697Y0073349D01*
X0049577Y0073330D01*
X0048357Y0073330D01*
X0048127Y0073405D01*
X0047986Y0073600D01*
X0047967Y0073720D01*
X0047967Y0076295D01*
X0047967Y0076295D01*
X0047667Y0076156D01*
X0047338Y0075827D01*
X0047203Y0075537D01*
X0047039Y0075361D01*
X0046802Y0075315D01*
X0046584Y0075417D01*
X0046493Y0075544D01*
X0046423Y0075703D01*
X0046127Y0075999D01*
X0045744Y0076169D01*
X0045744Y0076169D01*
X0045744Y0076169D01*
X0045650Y0076180D01*
X0045650Y0076180D01*
X0044252Y0076180D01*
X0044252Y0076180D01*
X0044158Y0076169D01*
X0043775Y0075999D01*
X0043479Y0075703D01*
X0043310Y0075320D01*
X0043299Y0075226D01*
X0043299Y0074813D01*
X0043224Y0074584D01*
X0043029Y0074442D01*
X0042788Y0074442D01*
X0042633Y0074537D01*
X0042362Y0074809D01*
X0042362Y0074809D01*
X0042362Y0074809D01*
X0041958Y0074987D01*
X0041859Y0074998D01*
X0037472Y0074998D01*
X0037472Y0074998D01*
X0037373Y0074987D01*
X0037373Y0074987D01*
X0036970Y0074809D01*
X0036658Y0074497D01*
X0036479Y0074093D01*
X0036479Y0074093D01*
X0036468Y0073995D01*
X0036468Y0072461D01*
X0036468Y0072461D01*
X0036468Y0072461D01*
X0036477Y0072379D01*
X0036479Y0072363D01*
X0036479Y0072363D01*
X0036658Y0071959D01*
X0036658Y0071959D01*
X0036658Y0071959D01*
X0036970Y0071647D01*
X0036970Y0071647D01*
X0036983Y0071633D01*
X0037093Y0071419D01*
X0037055Y0071181D01*
X0036983Y0071082D01*
X0036970Y0071069D01*
X0036970Y0071069D01*
X0036811Y0070910D01*
X0036658Y0070757D01*
X0036645Y0070739D01*
X0036454Y0070592D01*
X0036324Y0070569D01*
X0034818Y0070569D01*
X0034742Y0070577D01*
X0034673Y0070590D01*
X0034405Y0070537D01*
X0034374Y0070531D01*
X0034251Y0070507D01*
X0034251Y0070507D01*
X0033893Y0070268D01*
X0033893Y0070268D01*
X0033854Y0070209D01*
X0033805Y0070150D01*
X0033158Y0069502D01*
X0032943Y0069393D01*
X0032882Y0069388D01*
X0031159Y0069388D01*
X0030930Y0069463D01*
X0030788Y0069658D01*
X0030788Y0069898D01*
X0030864Y0070033D01*
X0031008Y0070199D01*
X0031219Y0070662D01*
X0031230Y0070738D01*
X0031286Y0071123D01*
X0031392Y0071339D01*
X0031605Y0071452D01*
X0031672Y0071458D01*
X0032903Y0071458D01*
X0032903Y0071458D01*
X0033001Y0071469D01*
X0033405Y0071647D01*
X0033717Y0071959D01*
X0033895Y0072363D01*
X0033907Y0072461D01*
X0033907Y0073995D01*
X0033895Y0074093D01*
X0033895Y0074093D01*
X0033895Y0074093D01*
X0033717Y0074497D01*
X0033717Y0074497D01*
X0033717Y0074497D01*
X0033405Y0074809D01*
X0033405Y0074809D01*
X0033405Y0074809D01*
X0033001Y0074987D01*
X0032903Y0074998D01*
X0028515Y0074998D01*
X0028515Y0074998D01*
X0028416Y0074987D01*
X0028416Y0074987D01*
X0028013Y0074809D01*
X0027701Y0074497D01*
X0027523Y0074093D01*
X0027523Y0074093D01*
X0027511Y0073995D01*
X0027511Y0073995D01*
X0027511Y0072450D01*
X0027508Y0072450D01*
X0027450Y0072228D01*
X0027264Y0072076D01*
X0027023Y0072062D01*
X0026906Y0072115D01*
X0026902Y0072117D01*
X0026597Y0072321D01*
X0026597Y0072321D01*
X0026597Y0072321D01*
X0026478Y0072345D01*
X0026439Y0072353D01*
X0026175Y0072405D01*
X0026175Y0072405D01*
X0026106Y0072391D01*
X0026030Y0072384D01*
X0024423Y0072384D01*
X0024193Y0072458D01*
X0024052Y0072653D01*
X0024052Y0072894D01*
X0024095Y0072984D01*
X0024108Y0073005D01*
X0024108Y0073005D01*
X0024319Y0073468D01*
X0024320Y0073476D01*
X0024392Y0073972D01*
X0024392Y0073972D01*
X0024319Y0074476D01*
X0024319Y0074476D01*
X0024319Y0074476D01*
X0024108Y0074939D01*
X0023774Y0075323D01*
X0023763Y0075330D01*
X0023346Y0075599D01*
X0022857Y0075742D01*
X0022857Y0075742D01*
X0022348Y0075742D01*
X0022348Y0075742D01*
X0021860Y0075599D01*
X0021860Y0075599D01*
X0021432Y0075323D01*
X0021272Y0075139D01*
X0021066Y0075015D01*
X0020826Y0075035D01*
X0020643Y0075193D01*
X0020634Y0075210D01*
X0020629Y0075219D01*
X0020629Y0075219D01*
X0020629Y0075219D01*
X0020296Y0075603D01*
X0019867Y0075879D01*
X0019601Y0075957D01*
X0019379Y0076022D01*
X0019379Y0076022D01*
X0018870Y0076022D01*
X0018870Y0076022D01*
X0018381Y0075879D01*
X0018333Y0075847D01*
X0018100Y0075786D01*
X0017965Y0075819D01*
X0017618Y0075972D01*
X0017618Y0075972D01*
X0017618Y0075972D01*
X0017523Y0075983D01*
X0017523Y0075983D01*
X0016080Y0075983D01*
X0016080Y0075983D01*
X0015985Y0075972D01*
X0015595Y0075799D01*
X0015312Y0075517D01*
X0015098Y0075408D01*
X0014860Y0075446D01*
X0014709Y0075596D01*
X0014706Y0075594D01*
X0014693Y0075612D01*
X0014689Y0075616D01*
X0014687Y0075621D01*
X0014687Y0075622D01*
X0014353Y0075956D01*
X0014022Y0076110D01*
X0014022Y0072236D01*
X0014022Y0072236D01*
X0014353Y0072390D01*
X0014687Y0072724D01*
X0014706Y0072752D01*
X0014712Y0072748D01*
X0014848Y0072894D01*
X0015084Y0072940D01*
X0015303Y0072838D01*
X0015312Y0072829D01*
X0015547Y0072594D01*
X0015656Y0072379D01*
X0015661Y0072318D01*
X0015661Y0071139D01*
X0015587Y0070910D01*
X0015392Y0070769D01*
X0015272Y0070750D01*
X0012373Y0070750D01*
X0012373Y0070750D01*
X0012275Y0070738D01*
X0012275Y0070738D01*
X0011871Y0070560D01*
X0011559Y0070248D01*
X0011381Y0069844D01*
X0011381Y0069844D01*
X0011370Y0069746D01*
X0011370Y0068212D01*
X0011370Y0068212D01*
X0011381Y0068114D01*
X0011381Y0068114D01*
X0011559Y0067710D01*
X0011559Y0067710D01*
X0011559Y0067710D01*
X0011871Y0067398D01*
X0011871Y0067398D01*
X0011871Y0067398D01*
X0012029Y0067328D01*
X0012275Y0067220D01*
X0012373Y0067209D01*
X0015385Y0067209D01*
X0015614Y0067134D01*
X0015756Y0066939D01*
X0015756Y0066698D01*
X0015661Y0066543D01*
X0015430Y0066313D01*
X0015371Y0066265D01*
X0015313Y0066226D01*
X0015110Y0065922D01*
X0015074Y0065868D01*
X0014990Y0065446D01*
X0015004Y0065377D01*
X0015011Y0065301D01*
X0015011Y0063659D01*
X0014937Y0063430D01*
X0014742Y0063288D01*
X0014622Y0063269D01*
X0012373Y0063269D01*
X0012373Y0063269D01*
X0012275Y0063258D01*
X0012275Y0063258D01*
X0011871Y0063080D01*
X0011559Y0062768D01*
X0011381Y0062364D01*
X0011381Y0062364D01*
X0011370Y0062266D01*
X0011370Y0060732D01*
X0011370Y0060732D01*
X0011381Y0060633D01*
X0011381Y0060633D01*
X0011559Y0060230D01*
X0011559Y0060230D01*
X0011559Y0060230D01*
X0011871Y0059918D01*
X0011871Y0059918D01*
X0011871Y0059918D01*
X0012014Y0059855D01*
X0012275Y0059740D01*
X0012373Y0059728D01*
X0016761Y0059728D01*
X0016860Y0059740D01*
X0016905Y0059760D01*
X0017020Y0059810D01*
X0017263Y0059918D01*
X0017575Y0060230D01*
X0017753Y0060633D01*
X0017765Y0060732D01*
X0017765Y0062265D01*
X0017753Y0062364D01*
X0017753Y0062364D01*
X0017753Y0062364D01*
X0017575Y0062768D01*
X0017575Y0062768D01*
X0017575Y0062768D01*
X0017288Y0063054D01*
X0017179Y0063269D01*
X0017174Y0063330D01*
X0017174Y0063469D01*
X0017249Y0063698D01*
X0017444Y0063840D01*
X0017684Y0063840D01*
X0017859Y0063724D01*
X0017976Y0063589D01*
X0018404Y0063314D01*
X0018893Y0063170D01*
X0018893Y0063170D01*
X0019402Y0063170D01*
X0019402Y0063170D01*
X0019402Y0063170D01*
X0019402Y0063170D01*
X0019589Y0063225D01*
X0019837Y0063298D01*
X0020078Y0063291D01*
X0020268Y0063144D01*
X0020336Y0062913D01*
X0020297Y0062753D01*
X0020173Y0062499D01*
X0020173Y0062499D01*
X0024134Y0062499D01*
X0024363Y0062424D01*
X0024505Y0062229D01*
X0024524Y0062109D01*
X0024524Y0059530D01*
X0024524Y0059530D01*
X0025672Y0059530D01*
X0025672Y0059530D01*
X0025970Y0059574D01*
X0025971Y0059567D01*
X0026175Y0059564D01*
X0026344Y0059450D01*
X0026345Y0059448D01*
X0026345Y0059448D01*
X0026679Y0059064D01*
X0027107Y0058788D01*
X0027595Y0058645D01*
X0027595Y0058645D01*
X0028105Y0058645D01*
X0028105Y0058645D01*
X0028593Y0058788D01*
X0028593Y0058788D01*
X0028596Y0058790D01*
X0028599Y0058790D01*
X0028620Y0058796D01*
X0028621Y0058793D01*
X0028836Y0058817D01*
X0029045Y0058699D01*
X0029145Y0058480D01*
X0029148Y0058435D01*
X0029148Y0057580D01*
X0029148Y0057580D01*
X0029205Y0057293D01*
X0029205Y0057293D01*
X0029205Y0057293D01*
X0029396Y0057008D01*
X0029461Y0056776D01*
X0029396Y0056574D01*
X0029205Y0056289D01*
X0029205Y0056289D01*
X0029148Y0056002D01*
X0029148Y0056002D01*
X0029148Y0055021D01*
X0029148Y0055021D01*
X0029205Y0054734D01*
X0029205Y0054734D01*
X0029205Y0054734D01*
X0029341Y0054530D01*
X0029396Y0054448D01*
X0029461Y0054217D01*
X0029396Y0054015D01*
X0029234Y0053772D01*
X0029044Y0053623D01*
X0028804Y0053614D01*
X0028603Y0053748D01*
X0028520Y0053974D01*
X0028520Y0053989D01*
X0028520Y0054115D01*
X0028494Y0054310D01*
X0028494Y0054310D01*
X0028295Y0054737D01*
X0027961Y0055071D01*
X0027533Y0055271D01*
X0027533Y0055271D01*
X0027512Y0055274D01*
X0027512Y0052796D01*
X0027437Y0052567D01*
X0027242Y0052426D01*
X0027122Y0052407D01*
X0025902Y0052407D01*
X0025672Y0052481D01*
X0025531Y0052676D01*
X0025512Y0052796D01*
X0025512Y0054667D01*
X0025516Y0054723D01*
X0025561Y0055034D01*
X0025561Y0055034D01*
X0025488Y0055538D01*
X0025488Y0055538D01*
X0025488Y0055538D01*
X0025277Y0056001D01*
X0024943Y0056386D01*
X0024853Y0056444D01*
X0024515Y0056661D01*
X0024026Y0056805D01*
X0024026Y0056805D01*
X0023517Y0056805D01*
X0023517Y0056805D01*
X0023029Y0056661D01*
X0023029Y0056661D01*
X0023022Y0056657D01*
X0023015Y0056655D01*
X0023003Y0056650D01*
X0023003Y0056652D01*
X0022789Y0056595D01*
X0022564Y0056683D01*
X0022434Y0056885D01*
X0022448Y0057126D01*
X0022456Y0057146D01*
X0022576Y0057409D01*
X0022576Y0057409D01*
X0022649Y0057913D01*
X0022649Y0057913D01*
X0022576Y0058416D01*
X0022576Y0058416D01*
X0022576Y0058416D01*
X0022365Y0058880D01*
X0022360Y0058885D01*
X0022357Y0058891D01*
X0022350Y0058903D01*
X0022352Y0058904D01*
X0022266Y0059107D01*
X0022321Y0059342D01*
X0022431Y0059438D01*
X0022524Y0059530D01*
X0022524Y0060499D01*
X0022524Y0060499D01*
X0020173Y0060499D01*
X0020373Y0060089D01*
X0020406Y0059851D01*
X0020294Y0059638D01*
X0020132Y0059544D01*
X0020117Y0059540D01*
X0020117Y0059540D01*
X0019689Y0059264D01*
X0019689Y0059264D01*
X0019689Y0059264D01*
X0019484Y0059029D01*
X0019355Y0058880D01*
X0019144Y0058416D01*
X0019144Y0058416D01*
X0019094Y0058072D01*
X0018988Y0057856D01*
X0018775Y0057743D01*
X0018708Y0057737D01*
X0018387Y0057737D01*
X0017898Y0057594D01*
X0017898Y0057594D01*
X0017470Y0057319D01*
X0017470Y0057319D01*
X0017470Y0057319D01*
X0017180Y0056985D01*
X0017137Y0056934D01*
X0016925Y0056471D01*
X0016925Y0056471D01*
X0016900Y0056299D01*
X0016794Y0056082D01*
X0016581Y0055970D01*
X0016343Y0056004D01*
X0016316Y0056018D01*
X0016170Y0056105D01*
X0015549Y0056285D01*
X0015549Y0056285D01*
X0015549Y0056285D01*
X0015449Y0056293D01*
X0015404Y0056297D01*
X0012819Y0056297D01*
X0012777Y0056294D01*
X0012674Y0056285D01*
X0012674Y0056285D01*
X0012053Y0056105D01*
X0011496Y0055776D01*
X0011038Y0055318D01*
X0010709Y0054761D01*
X0010528Y0054140D01*
X0010528Y0054140D01*
X0010517Y0053994D01*
X0010517Y0053263D01*
X0010443Y0053034D01*
X0010248Y0052892D01*
X0010221Y0052884D01*
X0009786Y0052777D01*
X0009546Y0052795D01*
X0009362Y0052950D01*
X0009303Y0053156D01*
X0009303Y0073173D01*
X0011155Y0073173D01*
X0011158Y0073152D01*
X0011357Y0072724D01*
X0011691Y0072390D01*
X0012022Y0072236D01*
X0012022Y0072236D01*
X0012022Y0073173D01*
X0012022Y0073173D01*
X0011155Y0073173D01*
X0011155Y0073173D01*
X0009303Y0073173D01*
X0009303Y0075173D01*
X0011155Y0075173D01*
X0011155Y0075173D01*
X0012022Y0075173D01*
X0012022Y0075173D01*
X0012022Y0076110D01*
X0011691Y0075956D01*
X0011357Y0075622D01*
X0011158Y0075194D01*
X0011155Y0075173D01*
X0009303Y0075173D01*
X0009303Y0076874D01*
X0009378Y0077103D01*
X0009573Y0077244D01*
X0009693Y0077263D01*
X0065724Y0077263D01*
X0065954Y0077189D01*
G37*
G36*
X0063728Y0056736D02*
G01*
X0063737Y0056726D01*
X0063901Y0056563D01*
X0064010Y0056348D01*
X0063973Y0056110D01*
X0063901Y0056012D01*
X0063618Y0055728D01*
X0063483Y0055439D01*
X0063318Y0055263D01*
X0063082Y0055217D01*
X0062864Y0055318D01*
X0062773Y0055446D01*
X0062765Y0055463D01*
X0062703Y0055605D01*
X0062654Y0055653D01*
X0062545Y0055868D01*
X0062583Y0056106D01*
X0062753Y0056276D01*
X0062765Y0056282D01*
X0062778Y0056288D01*
X0063112Y0056622D01*
X0063131Y0056650D01*
X0063137Y0056646D01*
X0063273Y0056791D01*
X0063509Y0056837D01*
X0063728Y0056736D01*
G37*
G36*
X0031998Y0062170D02*
G01*
X0032139Y0061976D01*
X0032139Y0061735D01*
X0032123Y0061693D01*
X0031955Y0061326D01*
X0031955Y0061326D01*
X0031883Y0060822D01*
X0031883Y0060822D01*
X0031955Y0060318D01*
X0031955Y0060318D01*
X0031955Y0060318D01*
X0031955Y0060318D01*
X0032031Y0060153D01*
X0032101Y0059999D01*
X0032128Y0059760D01*
X0032010Y0059550D01*
X0031791Y0059450D01*
X0031746Y0059447D01*
X0030034Y0059447D01*
X0030034Y0059447D01*
X0030024Y0059445D01*
X0030019Y0059446D01*
X0030015Y0059445D01*
X0030015Y0059446D01*
X0029785Y0059474D01*
X0029608Y0059637D01*
X0029561Y0059873D01*
X0029563Y0059884D01*
X0029562Y0059884D01*
X0029639Y0060415D01*
X0029639Y0060415D01*
X0029566Y0060919D01*
X0029566Y0060919D01*
X0029566Y0060919D01*
X0029355Y0061382D01*
X0029166Y0061600D01*
X0029072Y0061822D01*
X0029127Y0062056D01*
X0029309Y0062214D01*
X0029461Y0062245D01*
X0031769Y0062245D01*
X0031998Y0062170D01*
G37*
G36*
X0036553Y0068332D02*
G01*
X0036645Y0068237D01*
X0036658Y0068219D01*
X0036658Y0068219D01*
X0036658Y0068219D01*
X0036843Y0068033D01*
X0036952Y0067819D01*
X0036915Y0067581D01*
X0036843Y0067482D01*
X0036511Y0067150D01*
X0036314Y0066748D01*
X0040276Y0066748D01*
X0040505Y0066673D01*
X0040647Y0066478D01*
X0040666Y0066358D01*
X0040666Y0065137D01*
X0040591Y0064908D01*
X0040396Y0064767D01*
X0040276Y0064748D01*
X0036314Y0064748D01*
X0036511Y0064345D01*
X0036807Y0064050D01*
X0036916Y0063835D01*
X0036878Y0063597D01*
X0036708Y0063427D01*
X0036531Y0063384D01*
X0036001Y0063384D01*
X0035772Y0063459D01*
X0035726Y0063498D01*
X0035235Y0063989D01*
X0035187Y0064048D01*
X0035148Y0064106D01*
X0035148Y0064106D01*
X0035053Y0064170D01*
X0034790Y0064345D01*
X0034475Y0064408D01*
X0034423Y0064418D01*
X0034368Y0064429D01*
X0034368Y0064429D01*
X0034368Y0064429D01*
X0034355Y0064426D01*
X0034333Y0064429D01*
X0034330Y0064429D01*
X0034330Y0064429D01*
X0034116Y0064455D01*
X0033939Y0064618D01*
X0033892Y0064854D01*
X0033895Y0064882D01*
X0033895Y0064882D01*
X0033907Y0064981D01*
X0033907Y0066514D01*
X0033895Y0066613D01*
X0033881Y0066645D01*
X0033801Y0066825D01*
X0033777Y0067065D01*
X0033898Y0067273D01*
X0033941Y0067307D01*
X0033974Y0067328D01*
X0034271Y0067527D01*
X0034310Y0067585D01*
X0034359Y0067644D01*
X0035006Y0068292D01*
X0035221Y0068402D01*
X0035282Y0068406D01*
X0036324Y0068406D01*
X0036553Y0068332D01*
G37*
X0086024Y0058268D02*
G01*
G75*
G36*
X0116849Y0070670D02*
X0116492Y0070599D01*
X0116089Y0070329D01*
X0116063Y0070291D01*
X0115551Y0070060D01*
X0115328Y0070172D01*
X0115244Y0070228D01*
X0114921Y0070292D01*
X0113032Y0070292D01*
X0112709Y0070228D01*
X0112508Y0070094D01*
X0112375Y0070182D01*
X0111684Y0070320D01*
X0110993Y0070182D01*
X0110407Y0069791D01*
X0110015Y0069205D01*
X0109981Y0069035D01*
X0109391Y0069075D01*
X0109288Y0069590D01*
X0108997Y0070026D01*
X0108561Y0070317D01*
X0108046Y0070420D01*
X0107495Y0070420D01*
X0107495Y0067737D01*
X0107495Y0065053D01*
X0108046Y0065053D01*
X0108215Y0065087D01*
X0108711Y0064730D01*
X0108755Y0064114D01*
X0108699Y0064052D01*
X0108222Y0063763D01*
X0108046Y0063798D01*
X0105369Y0063798D01*
X0105008Y0063726D01*
X0104702Y0063522D01*
X0104497Y0063216D01*
X0104426Y0062855D01*
X0104426Y0062727D01*
X0103835Y0062548D01*
X0103816Y0062576D01*
X0103556Y0062750D01*
X0103248Y0062811D01*
X0101674Y0062811D01*
X0101366Y0062750D01*
X0101106Y0062576D01*
X0101017Y0062443D01*
X0100813Y0062397D01*
X0100566Y0062397D01*
X0100361Y0062443D01*
X0100273Y0062576D01*
X0100012Y0062750D01*
X0099705Y0062811D01*
X0098130Y0062811D01*
X0097823Y0062750D01*
X0097733Y0062690D01*
X0097581Y0062791D01*
X0096890Y0062929D01*
X0096199Y0062791D01*
X0095663Y0063075D01*
X0095578Y0063206D01*
X0095624Y0063276D01*
X0095685Y0063583D01*
X0095685Y0065551D01*
X0095624Y0065859D01*
X0095450Y0066119D01*
X0095437Y0066127D01*
X0095436Y0066355D01*
X0095576Y0066745D01*
X0095756Y0066780D01*
X0096029Y0066963D01*
X0096195Y0067212D01*
X0096307Y0067228D01*
X0096803Y0067182D01*
X0096823Y0067083D01*
X0097093Y0066679D01*
X0097496Y0066410D01*
X0097973Y0066315D01*
X0098130Y0066315D01*
X0098130Y0068504D01*
X0099705Y0068504D01*
X0099705Y0066315D01*
X0099862Y0066315D01*
X0100015Y0066345D01*
X0100426Y0066274D01*
X0100656Y0065917D01*
X0100728Y0065555D01*
X0101120Y0064969D01*
X0101706Y0064577D01*
X0102397Y0064440D01*
X0103088Y0064577D01*
X0103674Y0064969D01*
X0103851Y0065233D01*
X0103985Y0065283D01*
X0104579Y0065339D01*
X0104854Y0065156D01*
X0105369Y0065053D01*
X0105920Y0065053D01*
X0105920Y0067737D01*
X0105920Y0070420D01*
X0105369Y0070420D01*
X0104854Y0070317D01*
X0104395Y0070045D01*
X0104122Y0070228D01*
X0103799Y0070292D01*
X0101910Y0070292D01*
X0101587Y0070228D01*
X0101503Y0070172D01*
X0101281Y0070060D01*
X0100768Y0070291D01*
X0100742Y0070329D01*
X0100339Y0070599D01*
X0099983Y0070670D01*
X0100041Y0071260D01*
X0116790Y0071260D01*
X0116849Y0070670D01*
D02*
G37*
G36*
X0097852Y0070670D02*
X0097496Y0070599D01*
X0097093Y0070329D01*
X0096823Y0069925D01*
X0096803Y0069826D01*
X0096307Y0069781D01*
X0096195Y0069797D01*
X0096029Y0070045D01*
X0095756Y0070228D01*
X0095433Y0070292D01*
X0093543Y0070292D01*
X0093221Y0070228D01*
X0092947Y0070045D01*
X0092848Y0069896D01*
X0092628Y0069849D01*
X0092411Y0069849D01*
X0092192Y0069896D01*
X0092092Y0070045D01*
X0091819Y0070228D01*
X0091496Y0070292D01*
X0089606Y0070292D01*
X0089284Y0070228D01*
X0089010Y0070045D01*
X0088453Y0070274D01*
X0088050Y0070544D01*
X0087418Y0070670D01*
X0087477Y0071260D01*
X0097794Y0071260D01*
X0097852Y0070670D01*
D02*
G37*
G36*
X0087072Y0062573D02*
X0086975Y0062086D01*
X0087113Y0061395D01*
X0087504Y0060809D01*
X0088090Y0060417D01*
X0088781Y0060280D01*
X0089022Y0059732D01*
X0089197Y0059472D01*
X0089457Y0059298D01*
X0089764Y0059237D01*
X0091339Y0059237D01*
X0091646Y0059298D01*
X0091907Y0059472D01*
X0091995Y0059604D01*
X0092200Y0059650D01*
X0092447Y0059650D01*
X0092651Y0059604D01*
X0092740Y0059472D01*
X0093000Y0059298D01*
X0093307Y0059237D01*
X0094882Y0059237D01*
X0095190Y0059298D01*
X0095450Y0059472D01*
X0096133Y0059497D01*
X0096199Y0059453D01*
X0096890Y0059316D01*
X0097581Y0059453D01*
X0097586Y0059456D01*
X0097823Y0059298D01*
X0098130Y0059237D01*
X0099705Y0059237D01*
X0100012Y0059298D01*
X0100273Y0059472D01*
X0100361Y0059604D01*
X0100566Y0059650D01*
X0100813Y0059650D01*
X0101017Y0059604D01*
X0101106Y0059472D01*
X0101366Y0059298D01*
X0101674Y0059237D01*
X0103248Y0059237D01*
X0103556Y0059298D01*
X0103816Y0059472D01*
X0103919Y0059627D01*
X0104624Y0059627D01*
X0104702Y0059510D01*
X0105008Y0059306D01*
X0105369Y0059234D01*
X0108046Y0059234D01*
X0108407Y0059306D01*
X0108713Y0059510D01*
X0109301Y0059495D01*
X0109608Y0059434D01*
X0111577Y0059434D01*
X0111884Y0059495D01*
X0112144Y0059669D01*
X0112709Y0059497D01*
X0113032Y0059433D01*
X0114922Y0059433D01*
X0115244Y0059497D01*
X0115518Y0059680D01*
X0115617Y0059829D01*
X0115837Y0059876D01*
X0116054Y0059876D01*
X0116273Y0059829D01*
X0116373Y0059680D01*
X0116646Y0059497D01*
X0116969Y0059433D01*
X0118859Y0059433D01*
X0119181Y0059497D01*
X0119455Y0059680D01*
X0119982Y0059405D01*
X0120612Y0058984D01*
X0121244Y0058859D01*
X0121186Y0058268D01*
X0086024Y0058268D01*
X0086024Y0062490D01*
X0086517Y0062807D01*
X0087072Y0062573D01*
D02*
G37*
D24*
X0096841Y0061073D02*
X0096890Y0061122D01*
X0096605Y0061073D02*
X0098770Y0061073D01*
X0094033Y0060765D02*
X0094341Y0061073D01*
X0098770Y0061073D02*
X0099078Y0060765D01*
X0094341Y0061073D02*
X0096841Y0061073D01*
X0096555Y0061122D02*
X0096605Y0061073D01*
X0114764Y0067585D02*
X0114764Y0067717D01*
X0116733Y0065412D02*
X0116733Y0065616D01*
X0113977Y0068504D02*
X0114764Y0067717D01*
X0117520Y0064625D02*
X0117724Y0064625D01*
X0114764Y0067585D02*
X0116733Y0065616D01*
X0116733Y0065412D02*
X0117520Y0064625D01*
X0113780Y0064625D02*
X0113977Y0064428D01*
X0113977Y0061221D02*
X0113977Y0064428D01*
X0111684Y0068504D02*
X0113977Y0068504D01*
X0110719Y0064596D02*
X0114152Y0064596D01*
X0110691Y0064567D02*
X0110719Y0064596D01*
X0102756Y0060630D02*
X0106103Y0060630D01*
X0107298Y0061024D02*
X0110691Y0061024D01*
X0106806Y0061516D02*
X0107298Y0061024D01*
X0117794Y0061016D02*
X0121457Y0061016D01*
X0111679Y0068509D02*
X0111684Y0068514D01*
X0088781Y0062086D02*
X0089083Y0061785D01*
X0089961Y0061785D01*
X0089961Y0061750D02*
X0089961Y0061785D01*
X0089961Y0061750D02*
X0090355Y0061356D01*
X0090552Y0061024D02*
X0090552Y0064567D01*
X0087506Y0065153D02*
X0089764Y0067410D01*
X0089764Y0067717D01*
X0087205Y0064567D02*
X0087369Y0064567D01*
X0087506Y0064704D02*
X0087506Y0065153D01*
X0087369Y0064567D02*
X0087506Y0064704D01*
X0089764Y0067717D02*
X0090552Y0068504D01*
X0094193Y0064862D02*
X0094193Y0068209D01*
X0093898Y0064567D02*
X0094193Y0064862D01*
X0094193Y0068209D02*
X0094489Y0068504D01*
D12*
X0104331Y0070866D02*
D03*
X0104331Y0058662D02*
D03*
D11*
X0086418Y0060729D02*
D03*
D34*
X0118307Y0067764D02*
X0121307Y0064764D01*
X0118307Y0067764D02*
X0118307Y0068111D01*
X0121307Y0064764D02*
X0121457Y0064764D01*
X0117914Y0068504D02*
X0118307Y0068111D01*
X0102756Y0068273D02*
X0102970Y0068487D01*
X0102397Y0066459D02*
X0102756Y0066818D01*
X0102756Y0068273D01*
X0102397Y0066246D02*
X0102397Y0066459D01*
D10*
X0121457Y0068504D02*
D03*
X0121457Y0064764D02*
D03*
X0121457Y0061024D02*
D03*
X0087205Y0064961D02*
D03*
X0087205Y0068504D02*
D03*
X0096890Y0061122D02*
D03*
X0111684Y0068514D02*
D03*
X0102397Y0066246D02*
D03*
X0088781Y0062086D02*
D03*
X0087264Y0059553D02*
D03*
X0099966Y0064115D02*
D03*
X0097227Y0065171D02*
D03*
D37*
X0113977Y0068504D02*
D03*
X0117914Y0068504D02*
D03*
X0102854Y0068504D02*
D03*
X0098917Y0068504D02*
D03*
X0094488Y0068504D02*
D03*
X0090551Y0068504D02*
D03*
X0113977Y0061221D02*
D03*
X0117914Y0061221D02*
D03*
D38*
X0110592Y0061024D02*
D03*
X0110592Y0064567D02*
D03*
D39*
X0106707Y0067737D02*
D03*
X0106707Y0061516D02*
D03*
D40*
X0094095Y0064567D02*
D03*
X0090552Y0064567D02*
D03*
X0102461Y0061024D02*
D03*
X0098918Y0061024D02*
D03*
X0117323Y0064625D02*
D03*
X0113780Y0064625D02*
D03*
X0090552Y0061024D02*
D03*
X0094095Y0061024D02*
D03*
X0048228Y0002559D02*
G01*
G75*
M02*
