M48
INCH,TZ
T01C0.033500
T02C0.039400
T03C0.047200
%
T01
X32707Y5130
X32707Y4146
X32707Y3161
X32707Y2177
X32707Y1193
X32707Y5139
X32707Y5139
X32707Y4155
X32707Y4155
X32707Y3171
X32707Y3171
X32707Y2186
X32707Y2186
X32707Y1202
X32707Y1202
T02
X1211Y4539
X2211Y4539
X3211Y4539
X4272Y30717
X4272Y29717
X4272Y27409
X4272Y26409
X4272Y24102
X4272Y23102
X4272Y20795
X4272Y19795
X4272Y14811
X4272Y13811
X4537Y35140
X4537Y34140
X5272Y30717
X5272Y29717
X5272Y27409
X5272Y26409
X5272Y24102
X5272Y23102
X5272Y20795
X5272Y19795
X5272Y14811
X5272Y13811
X5537Y35140
X5537Y34140
X7845Y35140
X7845Y34140
X8845Y35140
X8845Y34140
X9085Y4343
X11152Y35140
X11152Y34140
X12152Y35140
X12152Y34140
X14459Y35140
X14459Y34140
X15459Y35140
X15459Y34140
X24104Y35140
X24104Y34140
X24636Y2965
X24636Y996
X25104Y35140
X25104Y34140
X27411Y35140
X27411Y34140
X28411Y35140
X28411Y34140
X30719Y35140
X30719Y34140
X31719Y35140
X31719Y34140
X32785Y9461
X32785Y7610
X34026Y35140
X34026Y34140
X34173Y30874
X34173Y29874
X35026Y35140
X35026Y34140
X35173Y30874
X35173Y29874
X1211Y4549
X1211Y4549
X2211Y4549
X2211Y4549
X3211Y4549
X3211Y4549
X4272Y30726
X4272Y30726
X4272Y29726
X4272Y29726
X4272Y27419
X4272Y27419
X4272Y26419
X4272Y26419
X4272Y24112
X4272Y24112
X4272Y23112
X4272Y23112
X4272Y20804
X4272Y20804
X4272Y19804
X4272Y19804
X4272Y14820
X4272Y14820
X4272Y13820
X4272Y13820
X4538Y35149
X4538Y35149
X4538Y34149
X4538Y34149
X5272Y30726
X5272Y30726
X5272Y29726
X5272Y29726
X5272Y27419
X5272Y27419
X5272Y26419
X5272Y26419
X5272Y24112
X5272Y24112
X5272Y23112
X5272Y23112
X5272Y20804
X5272Y20804
X5272Y19804
X5272Y19804
X5272Y14820
X5272Y14820
X5272Y13820
X5272Y13820
X5538Y35149
X5538Y35149
X5538Y34149
X5538Y34149
X7845Y35149
X7845Y35149
X7845Y34149
X7845Y34149
X8845Y35149
X8845Y35149
X8845Y34149
X8845Y34149
X9085Y4352
X9085Y4352
X11152Y35149
X11152Y35149
X11152Y34149
X11152Y34149
X12152Y35149
X12152Y35149
X12152Y34149
X12152Y34149
X14459Y35149
X14459Y35149
X14459Y34149
X14459Y34149
X15459Y35149
X15459Y35149
X15459Y34149
X15459Y34149
X24105Y35149
X24105Y35149
X24105Y34149
X24105Y34149
X24636Y2974
X24636Y2974
X24636Y1005
X24636Y1005
X25105Y35149
X25105Y35149
X25105Y34149
X25105Y34149
X27412Y35149
X27412Y35149
X27412Y34149
X27412Y34149
X28412Y35149
X28412Y35149
X28412Y34149
X28412Y34149
X30719Y35149
X30719Y35149
X30719Y34149
X30719Y34149
X31719Y35149
X31719Y35149
X31719Y34149
X31719Y34149
X32786Y9470
X32786Y9470
X32786Y7619
X32786Y7619
X34026Y35149
X34026Y35149
X34026Y34149
X34026Y34149
X34174Y30883
X34174Y30883
X34174Y29883
X34174Y29883
X35026Y35149
X35026Y35149
X35026Y34149
X35026Y34149
X35174Y30883
X35174Y30883
X35174Y29883
X35174Y29883
T03
X3681Y31035
X3681Y29382
X3681Y27728
X3681Y26075
X3681Y24421
X3681Y22768
X3681Y21114
X3681Y19461
X3681Y17807
X3681Y15130
X3681Y13476
X3681Y11823
X3681Y10169
X4203Y35730
X4203Y33565
X5847Y31035
X5847Y29382
X5847Y27728
X5847Y26075
X5847Y24421
X5847Y22768
X5847Y21114
X5847Y19461
X5847Y17807
X5847Y15130
X5847Y13476
X5847Y11823
X5847Y10169
X5856Y35730
X5856Y33565
X7510Y35730
X7510Y33565
X9163Y35730
X9163Y33565
X10817Y35730
X10817Y33565
X12471Y35730
X12471Y33565
X14124Y35730
X14124Y33565
X15778Y35730
X15778Y33565
X17431Y35730
X17431Y33565
X19085Y35730
X19085Y33565
X23770Y35730
X23770Y33565
X25423Y35730
X25423Y33565
X27077Y35730
X27077Y33565
X28730Y35730
X28730Y33565
X30384Y35730
X30384Y33565
X32037Y35730
X32037Y33565
X33583Y31193
X33583Y29539
X33583Y27886
X33691Y35730
X33691Y33565
X35345Y35730
X35345Y33565
X35748Y31193
X35748Y29539
X35748Y27886
X3681Y31045
X3681Y31045
X3681Y29391
X3681Y29391
X3681Y27738
X3681Y27738
X3681Y26084
X3681Y26084
X3681Y24430
X3681Y24430
X3681Y22777
X3681Y22777
X3681Y21123
X3681Y21123
X3681Y19470
X3681Y19470
X3681Y17816
X3681Y17816
X3681Y15139
X3681Y15139
X3681Y13486
X3681Y13486
X3681Y11832
X3681Y11832
X3681Y10178
X3681Y10178
X4203Y35740
X4203Y35740
X4203Y33574
X4203Y33574
X5847Y31045
X5847Y31045
X5847Y29391
X5847Y29391
X5847Y27738
X5847Y27738
X5847Y26084
X5847Y26084
X5847Y24430
X5847Y24430
X5847Y22777
X5847Y22777
X5847Y21123
X5847Y21123
X5847Y19470
X5847Y19470
X5847Y17816
X5847Y17816
X5847Y15139
X5847Y15139
X5847Y13486
X5847Y13486
X5847Y11832
X5847Y11832
X5847Y10178
X5847Y10178
X5857Y35740
X5857Y35740
X5857Y33574
X5857Y33574
X7510Y35740
X7510Y35740
X7510Y33574
X7510Y33574
X9164Y35740
X9164Y35740
X9164Y33574
X9164Y33574
X10817Y35740
X10817Y35740
X10817Y33574
X10817Y33574
X12471Y35740
X12471Y35740
X12471Y33574
X12471Y33574
X14124Y35740
X14124Y35740
X14124Y33574
X14124Y33574
X15778Y35740
X15778Y35740
X15778Y33574
X15778Y33574
X17431Y35740
X17431Y35740
X17431Y33574
X17431Y33574
X19085Y35740
X19085Y35740
X19085Y33574
X19085Y33574
X23770Y35740
X23770Y35740
X23770Y33574
X23770Y33574
X25424Y35740
X25424Y35740
X25424Y33574
X25424Y33574
X27077Y35740
X27077Y35740
X27077Y33574
X27077Y33574
X28731Y35740
X28731Y35740
X28731Y33574
X28731Y33574
X30384Y35740
X30384Y35740
X30384Y33574
X30384Y33574
X32038Y35740
X32038Y35740
X32038Y33574
X32038Y33574
X33583Y31202
X33583Y31202
X33583Y29549
X33583Y29549
X33583Y27895
X33583Y27895
X33691Y35740
X33691Y35740
X33691Y33574
X33691Y33574
X35345Y35740
X35345Y35740
X35345Y33574
X35345Y33574
X35748Y31202
X35748Y31202
X35748Y29549
X35748Y29549
X35748Y27895
X35748Y27895
M30
