G75*
G70*
%OFA0B0*%
%FSLAX25Y25*%
%IPPOS*%
%LPD*%
%AMOC8*
5,1,8,0,0,1.08239X$1,22.5*
%
%AMM1*
21,1,0.021650,0.052760,0.000000,0.000000,270.000000*
21,1,0.017320,0.057090,0.000000,0.000000,270.000000*
1,1,0.004330,-0.026380,-0.008660*
1,1,0.004330,-0.026380,0.008660*
1,1,0.004330,0.026380,0.008660*
1,1,0.004330,0.026380,-0.008660*
%
%ADD10C,0.02362*%
%ADD11O,0.00787X0.04823*%
%ADD12O,0.36614X0.00787*%
%ADD13R,0.00984X0.24350*%
%ADD14R,0.00984X0.04390*%
%ADD15R,0.56201X0.00984*%
%ADD16R,0.59449X0.00984*%
%ADD17R,0.00984X0.20374*%
%ADD18C,0.00787*%
%ADD21R,0.02559X0.01575*%
%ADD22R,0.01575X0.02559*%
%ADD23C,0.00984*%
%ADD26M1*%
%ADD27C,0.01850*%
%ADD28C,0.01575*%
X0000000Y0000000D02*
%LPD*%
G01*
D10*
X0076772Y0062756D03*
D11*
X0041732Y0054980D03*
D12*
X0059646Y0065118D03*
X0059646Y0052913D03*
D10*
X0076772Y0059016D03*
X0076772Y0055276D03*
X0042520Y0059213D03*
X0042520Y0062756D03*
X0087894Y0035925D03*
X0087894Y0031201D03*
X0087894Y0040650D03*
X0087894Y0045374D03*
D13*
X0030217Y0034872D03*
D14*
X0030217Y0011053D03*
D15*
X0057825Y0046555D03*
D16*
X0059449Y0009350D03*
D17*
X0088681Y0019045D03*
D10*
X0031102Y0019941D03*
X0031102Y0016004D03*
D10*
X0003937Y0076772D03*
X0000000Y0080709D03*
X0005906Y0005906D03*
X0129921Y0005906D03*
X0129921Y0074803D03*
D18*
X0090354Y0055315D02*
X0072835Y0072835D01*
X0031496Y0072835D02*
X0031496Y0061024D01*
X0087894Y0040650D02*
X0090354Y0043110D01*
X0072835Y0072835D02*
X0031496Y0072835D01*
X0031496Y0061024D02*
X0029685Y0059213D01*
X0090354Y0043110D02*
X0090354Y0055315D01*
X0029685Y0059213D02*
X0042520Y0059213D01*
X0029626Y0008760D02*
%LPD*%
G01*
D10*
X0087894Y0035925D03*
X0087894Y0031201D03*
X0087894Y0040650D03*
X0087894Y0045374D03*
D13*
X0030217Y0034872D03*
D14*
X0030217Y0011053D03*
D15*
X0057825Y0046555D03*
D16*
X0059449Y0009351D03*
D17*
X0088681Y0019045D03*
D10*
X0031102Y0019941D03*
X0031102Y0016004D03*
G36*
G01*
X0047067Y0026378D02*
X0047067Y0027835D01*
G75*
G02*
X0047598Y0028366I0000531J0000000D01*
G01*
X0048661Y0028366D01*
G75*
G02*
X0049193Y0027835I0000000J-000531D01*
G01*
X0049193Y0026378D01*
G75*
G02*
X0048661Y0025847I-000531J0000000D01*
G01*
X0047598Y0025847D01*
G75*
G02*
X0047067Y0026378I0000000J0000531D01*
G01*
G37*
G36*
G01*
X0043051Y0026378D02*
X0043051Y0027835D01*
G75*
G02*
X0043583Y0028366I0000531J0000000D01*
G01*
X0044646Y0028366D01*
G75*
G02*
X0045177Y0027835I0000000J-000531D01*
G01*
X0045177Y0026378D01*
G75*
G02*
X0044646Y0025847I-000531J0000000D01*
G01*
X0043583Y0025847D01*
G75*
G02*
X0043051Y0026378I0000000J0000531D01*
G01*
G37*
G36*
G01*
X0070315Y0010689D02*
X0068858Y0010689D01*
G75*
G02*
X0068327Y0011221I0000000J0000531D01*
G01*
X0068327Y0012284D01*
G75*
G02*
X0068858Y0012815I0000531J0000000D01*
G01*
X0070315Y0012815D01*
G75*
G02*
X0070846Y0012284I0000000J-000531D01*
G01*
X0070846Y0011221D01*
G75*
G02*
X0070315Y0010689I-000531J0000000D01*
G01*
G37*
G36*
G01*
X0070315Y0014705D02*
X0068858Y0014705D01*
G75*
G02*
X0068327Y0015236I0000000J0000531D01*
G01*
X0068327Y0016299D01*
G75*
G02*
X0068858Y0016831I0000531J0000000D01*
G01*
X0070315Y0016831D01*
G75*
G02*
X0070846Y0016299I0000000J-000531D01*
G01*
X0070846Y0015236D01*
G75*
G02*
X0070315Y0014705I-000531J0000000D01*
G01*
G37*
G36*
G01*
X0059343Y0043032D02*
X0059343Y0044213D01*
G75*
G02*
X0059933Y0044803I0000591J0000000D01*
G01*
X0066429Y0044803D01*
G75*
G02*
X0067020Y0044213I0000000J-000591D01*
G01*
X0067020Y0043032D01*
G75*
G02*
X0066429Y0042441I-000591J0000000D01*
G01*
X0059933Y0042441D01*
G75*
G02*
X0059343Y0043032I0000000J0000591D01*
G01*
G37*
G36*
G01*
X0059343Y0038032D02*
X0059343Y0039213D01*
G75*
G02*
X0059933Y0039803I0000591J0000000D01*
G01*
X0066429Y0039803D01*
G75*
G02*
X0067020Y0039213I0000000J-000591D01*
G01*
X0067020Y0038032D01*
G75*
G02*
X0066429Y0037441I-000591J0000000D01*
G01*
X0059933Y0037441D01*
G75*
G02*
X0059343Y0038032I0000000J0000591D01*
G01*
G37*
G36*
G01*
X0059343Y0033032D02*
X0059343Y0034213D01*
G75*
G02*
X0059933Y0034803I0000591J0000000D01*
G01*
X0066429Y0034803D01*
G75*
G02*
X0067020Y0034213I0000000J-000591D01*
G01*
X0067020Y0033032D01*
G75*
G02*
X0066429Y0032441I-000591J0000000D01*
G01*
X0059933Y0032441D01*
G75*
G02*
X0059343Y0033032I0000000J0000591D01*
G01*
G37*
G36*
G01*
X0059343Y0028032D02*
X0059343Y0029213D01*
G75*
G02*
X0059933Y0029803I0000591J0000000D01*
G01*
X0066429Y0029803D01*
G75*
G02*
X0067020Y0029213I0000000J-000591D01*
G01*
X0067020Y0028032D01*
G75*
G02*
X0066429Y0027441I-000591J0000000D01*
G01*
X0059933Y0027441D01*
G75*
G02*
X0059343Y0028032I0000000J0000591D01*
G01*
G37*
G36*
G01*
X0078831Y0028032D02*
X0078831Y0029213D01*
G75*
G02*
X0079421Y0029803I0000591J0000000D01*
G01*
X0085917Y0029803D01*
G75*
G02*
X0086508Y0029213I0000000J-000591D01*
G01*
X0086508Y0028032D01*
G75*
G02*
X0085917Y0027441I-000591J0000000D01*
G01*
X0079421Y0027441D01*
G75*
G02*
X0078831Y0028032I0000000J0000591D01*
G01*
G37*
G36*
G01*
X0078831Y0033032D02*
X0078831Y0034213D01*
G75*
G02*
X0079421Y0034803I0000591J0000000D01*
G01*
X0085917Y0034803D01*
G75*
G02*
X0086508Y0034213I0000000J-000591D01*
G01*
X0086508Y0033032D01*
G75*
G02*
X0085917Y0032441I-000591J0000000D01*
G01*
X0079421Y0032441D01*
G75*
G02*
X0078831Y0033032I0000000J0000591D01*
G01*
G37*
G36*
G01*
X0078831Y0038032D02*
X0078831Y0039213D01*
G75*
G02*
X0079421Y0039803I0000591J0000000D01*
G01*
X0085917Y0039803D01*
G75*
G02*
X0086508Y0039213I0000000J-000591D01*
G01*
X0086508Y0038032D01*
G75*
G02*
X0085917Y0037441I-000591J0000000D01*
G01*
X0079421Y0037441D01*
G75*
G02*
X0078831Y0038032I0000000J0000591D01*
G01*
G37*
G36*
G01*
X0078831Y0043032D02*
X0078831Y0044213D01*
G75*
G02*
X0079421Y0044803I0000591J0000000D01*
G01*
X0085917Y0044803D01*
G75*
G02*
X0086508Y0044213I0000000J-000591D01*
G01*
X0086508Y0043032D01*
G75*
G02*
X0085917Y0042441I-000591J0000000D01*
G01*
X0079421Y0042441D01*
G75*
G02*
X0078831Y0043032I0000000J0000591D01*
G01*
G37*
D21*
X0044823Y0043760D03*
X0044823Y0041201D03*
X0044823Y0038642D03*
X0052303Y0038642D03*
X0052303Y0041201D03*
X0052303Y0043760D03*
G36*
G01*
X0060984Y0024672D02*
X0062441Y0024672D01*
G75*
G02*
X0062972Y0024140I0000000J-000531D01*
G01*
X0062972Y0023077D01*
G75*
G02*
X0062441Y0022546I-000531J0000000D01*
G01*
X0060984Y0022546D01*
G75*
G02*
X0060453Y0023077I0000000J0000531D01*
G01*
X0060453Y0024140D01*
G75*
G02*
X0060984Y0024672I0000531J0000000D01*
G01*
G37*
G36*
G01*
X0060984Y0020656D02*
X0062441Y0020656D01*
G75*
G02*
X0062972Y0020125I0000000J-000531D01*
G01*
X0062972Y0019062D01*
G75*
G02*
X0062441Y0018530I-000531J0000000D01*
G01*
X0060984Y0018530D01*
G75*
G02*
X0060453Y0019062I0000000J0000531D01*
G01*
X0060453Y0020125D01*
G75*
G02*
X0060984Y0020656I0000531J0000000D01*
G01*
G37*
G36*
G01*
X0066319Y0018609D02*
X0064980Y0018609D01*
G75*
G02*
X0064429Y0019160I0000000J0000551D01*
G01*
X0064429Y0020262D01*
G75*
G02*
X0064980Y0020814I0000551J0000000D01*
G01*
X0066319Y0020814D01*
G75*
G02*
X0066870Y0020262I0000000J-000551D01*
G01*
X0066870Y0019160D01*
G75*
G02*
X0066319Y0018609I-000551J0000000D01*
G01*
G37*
G36*
G01*
X0066319Y0022388D02*
X0064980Y0022388D01*
G75*
G02*
X0064429Y0022940I0000000J0000551D01*
G01*
X0064429Y0024042D01*
G75*
G02*
X0064980Y0024593I0000551J0000000D01*
G01*
X0066319Y0024593D01*
G75*
G02*
X0066870Y0024042I0000000J-000551D01*
G01*
X0066870Y0022940D01*
G75*
G02*
X0066319Y0022388I-000551J0000000D01*
G01*
G37*
G36*
G01*
X0062441Y0010689D02*
X0060984Y0010689D01*
G75*
G02*
X0060453Y0011221I0000000J0000531D01*
G01*
X0060453Y0012284D01*
G75*
G02*
X0060984Y0012815I0000531J0000000D01*
G01*
X0062441Y0012815D01*
G75*
G02*
X0062972Y0012284I0000000J-000531D01*
G01*
X0062972Y0011221D01*
G75*
G02*
X0062441Y0010689I-000531J0000000D01*
G01*
G37*
G36*
G01*
X0062441Y0014705D02*
X0060984Y0014705D01*
G75*
G02*
X0060453Y0015236I0000000J0000531D01*
G01*
X0060453Y0016299D01*
G75*
G02*
X0060984Y0016831I0000531J0000000D01*
G01*
X0062441Y0016831D01*
G75*
G02*
X0062972Y0016299I0000000J-000531D01*
G01*
X0062972Y0015236D01*
G75*
G02*
X0062441Y0014705I-000531J0000000D01*
G01*
G37*
G36*
G01*
X0074035Y0016752D02*
X0075374Y0016752D01*
G75*
G02*
X0075925Y0016201I0000000J-000551D01*
G01*
X0075925Y0015099D01*
G75*
G02*
X0075374Y0014547I-000551J0000000D01*
G01*
X0074035Y0014547D01*
G75*
G02*
X0073484Y0015099I0000000J0000551D01*
G01*
X0073484Y0016201D01*
G75*
G02*
X0074035Y0016752I0000551J0000000D01*
G01*
G37*
G36*
G01*
X0074035Y0012973D02*
X0075374Y0012973D01*
G75*
G02*
X0075925Y0012421I0000000J-000551D01*
G01*
X0075925Y0011319D01*
G75*
G02*
X0075374Y0010768I-000551J0000000D01*
G01*
X0074035Y0010768D01*
G75*
G02*
X0073484Y0011319I0000000J0000551D01*
G01*
X0073484Y0012421D01*
G75*
G02*
X0074035Y0012973I0000551J0000000D01*
G01*
G37*
G36*
G01*
X0050906Y0020610D02*
X0052244Y0020610D01*
G75*
G02*
X0052795Y0020059I0000000J-000551D01*
G01*
X0052795Y0018957D01*
G75*
G02*
X0052244Y0018406I-000551J0000000D01*
G01*
X0050906Y0018406D01*
G75*
G02*
X0050354Y0018957I0000000J0000551D01*
G01*
X0050354Y0020059D01*
G75*
G02*
X0050906Y0020610I0000551J0000000D01*
G01*
G37*
G36*
G01*
X0050906Y0016831D02*
X0052244Y0016831D01*
G75*
G02*
X0052795Y0016280I0000000J-000551D01*
G01*
X0052795Y0015177D01*
G75*
G02*
X0052244Y0014626I-000551J0000000D01*
G01*
X0050906Y0014626D01*
G75*
G02*
X0050354Y0015177I0000000J0000551D01*
G01*
X0050354Y0016280D01*
G75*
G02*
X0050906Y0016831I0000551J0000000D01*
G01*
G37*
G36*
G01*
X0056673Y0023858D02*
X0056673Y0022402D01*
G75*
G02*
X0056142Y0021870I-000531J0000000D01*
G01*
X0055079Y0021870D01*
G75*
G02*
X0054547Y0022402I0000000J0000531D01*
G01*
X0054547Y0023858D01*
G75*
G02*
X0055079Y0024390I0000531J0000000D01*
G01*
X0056142Y0024390D01*
G75*
G02*
X0056673Y0023858I0000000J-000531D01*
G01*
G37*
G36*
G01*
X0052657Y0023858D02*
X0052657Y0022402D01*
G75*
G02*
X0052126Y0021870I-000531J0000000D01*
G01*
X0051063Y0021870D01*
G75*
G02*
X0050532Y0022402I0000000J0000531D01*
G01*
X0050532Y0023858D01*
G75*
G02*
X0051063Y0024390I0000531J0000000D01*
G01*
X0052126Y0024390D01*
G75*
G02*
X0052657Y0023858I0000000J-000531D01*
G01*
G37*
G36*
G01*
X0087500Y0024587D02*
X0087500Y0023248D01*
G75*
G02*
X0086949Y0022697I-000551J0000000D01*
G01*
X0085846Y0022697D01*
G75*
G02*
X0085295Y0023248I0000000J0000551D01*
G01*
X0085295Y0024587D01*
G75*
G02*
X0085846Y0025138I0000551J0000000D01*
G01*
X0086949Y0025138D01*
G75*
G02*
X0087500Y0024587I0000000J-000551D01*
G01*
G37*
G36*
G01*
X0083720Y0024587D02*
X0083720Y0023248D01*
G75*
G02*
X0083169Y0022697I-000551J0000000D01*
G01*
X0082067Y0022697D01*
G75*
G02*
X0081516Y0023248I0000000J0000551D01*
G01*
X0081516Y0024587D01*
G75*
G02*
X0082067Y0025138I0000551J0000000D01*
G01*
X0083169Y0025138D01*
G75*
G02*
X0083720Y0024587I0000000J-000551D01*
G01*
G37*
G36*
G01*
X0038445Y0030350D02*
X0038445Y0032367D01*
G75*
G02*
X0039306Y0033229I0000861J0000000D01*
G01*
X0041029Y0033229D01*
G75*
G02*
X0041890Y0032367I0000000J-000861D01*
G01*
X0041890Y0030350D01*
G75*
G02*
X0041029Y0029488I-000861J0000000D01*
G01*
X0039306Y0029488D01*
G75*
G02*
X0038445Y0030350I0000000J0000861D01*
G01*
G37*
G36*
G01*
X0032244Y0030350D02*
X0032244Y0032367D01*
G75*
G02*
X0033105Y0033229I0000861J0000000D01*
G01*
X0034828Y0033229D01*
G75*
G02*
X0035689Y0032367I0000000J-000861D01*
G01*
X0035689Y0030350D01*
G75*
G02*
X0034828Y0029488I-000861J0000000D01*
G01*
X0033105Y0029488D01*
G75*
G02*
X0032244Y0030350I0000000J0000861D01*
G01*
G37*
G36*
G01*
X0057224Y0035571D02*
X0055886Y0035571D01*
G75*
G02*
X0055335Y0036122I0000000J0000551D01*
G01*
X0055335Y0037225D01*
G75*
G02*
X0055886Y0037776I0000551J0000000D01*
G01*
X0057224Y0037776D01*
G75*
G02*
X0057776Y0037225I0000000J-000551D01*
G01*
X0057776Y0036122D01*
G75*
G02*
X0057224Y0035571I-000551J0000000D01*
G01*
G37*
G36*
G01*
X0057224Y0039351D02*
X0055886Y0039351D01*
G75*
G02*
X0055335Y0039902I0000000J0000551D01*
G01*
X0055335Y0041004D01*
G75*
G02*
X0055886Y0041555I0000551J0000000D01*
G01*
X0057224Y0041555D01*
G75*
G02*
X0057776Y0041004I0000000J-000551D01*
G01*
X0057776Y0039902D01*
G75*
G02*
X0057224Y0039351I-000551J0000000D01*
G01*
G37*
G36*
G01*
X0039587Y0038425D02*
X0039587Y0036969D01*
G75*
G02*
X0039055Y0036437I-000531J0000000D01*
G01*
X0037992Y0036437D01*
G75*
G02*
X0037461Y0036969I0000000J0000531D01*
G01*
X0037461Y0038425D01*
G75*
G02*
X0037992Y0038957I0000531J0000000D01*
G01*
X0039055Y0038957D01*
G75*
G02*
X0039587Y0038425I0000000J-000531D01*
G01*
G37*
G36*
G01*
X0035571Y0038425D02*
X0035571Y0036969D01*
G75*
G02*
X0035039Y0036437I-000531J0000000D01*
G01*
X0033976Y0036437D01*
G75*
G02*
X0033445Y0036969I0000000J0000531D01*
G01*
X0033445Y0038425D01*
G75*
G02*
X0033976Y0038957I0000531J0000000D01*
G01*
X0035039Y0038957D01*
G75*
G02*
X0035571Y0038425I0000000J-000531D01*
G01*
G37*
G36*
G01*
X0050532Y0026339D02*
X0050532Y0027795D01*
G75*
G02*
X0051063Y0028327I0000531J0000000D01*
G01*
X0052126Y0028327D01*
G75*
G02*
X0052657Y0027795I0000000J-000531D01*
G01*
X0052657Y0026339D01*
G75*
G02*
X0052126Y0025807I-000531J0000000D01*
G01*
X0051063Y0025807D01*
G75*
G02*
X0050532Y0026339I0000000J0000531D01*
G01*
G37*
G36*
G01*
X0054547Y0026339D02*
X0054547Y0027795D01*
G75*
G02*
X0055079Y0028327I0000531J0000000D01*
G01*
X0056142Y0028327D01*
G75*
G02*
X0056673Y0027795I0000000J-000531D01*
G01*
X0056673Y0026339D01*
G75*
G02*
X0056142Y0025807I-000531J0000000D01*
G01*
X0055079Y0025807D01*
G75*
G02*
X0054547Y0026339I0000000J0000531D01*
G01*
G37*
G36*
G01*
X0055669Y0020548D02*
X0057126Y0020548D01*
G75*
G02*
X0057657Y0020017I0000000J-000531D01*
G01*
X0057657Y0018954D01*
G75*
G02*
X0057126Y0018422I-000531J0000000D01*
G01*
X0055669Y0018422D01*
G75*
G02*
X0055138Y0018954I0000000J0000531D01*
G01*
X0055138Y0020017D01*
G75*
G02*
X0055669Y0020548I0000531J0000000D01*
G01*
G37*
G36*
G01*
X0055669Y0016532D02*
X0057126Y0016532D01*
G75*
G02*
X0057657Y0016001I0000000J-000531D01*
G01*
X0057657Y0014938D01*
G75*
G02*
X0057126Y0014407I-000531J0000000D01*
G01*
X0055669Y0014407D01*
G75*
G02*
X0055138Y0014938I0000000J0000531D01*
G01*
X0055138Y0016001D01*
G75*
G02*
X0055669Y0016532I0000531J0000000D01*
G01*
G37*
G36*
G01*
X0038327Y0027146D02*
X0038327Y0025807D01*
G75*
G02*
X0037776Y0025256I-000551J0000000D01*
G01*
X0036673Y0025256D01*
G75*
G02*
X0036122Y0025807I0000000J0000551D01*
G01*
X0036122Y0027146D01*
G75*
G02*
X0036673Y0027697I0000551J0000000D01*
G01*
X0037776Y0027697D01*
G75*
G02*
X0038327Y0027146I0000000J-000551D01*
G01*
G37*
G36*
G01*
X0034547Y0027146D02*
X0034547Y0025807D01*
G75*
G02*
X0033996Y0025256I-000551J0000000D01*
G01*
X0032894Y0025256D01*
G75*
G02*
X0032343Y0025807I0000000J0000551D01*
G01*
X0032343Y0027146D01*
G75*
G02*
X0032894Y0027697I0000551J0000000D01*
G01*
X0033996Y0027697D01*
G75*
G02*
X0034547Y0027146I0000000J-000551D01*
G01*
G37*
G36*
G01*
X0075374Y0018609D02*
X0074035Y0018609D01*
G75*
G02*
X0073484Y0019160I0000000J0000551D01*
G01*
X0073484Y0020262D01*
G75*
G02*
X0074035Y0020814I0000551J0000000D01*
G01*
X0075374Y0020814D01*
G75*
G02*
X0075925Y0020262I0000000J-000551D01*
G01*
X0075925Y0019160D01*
G75*
G02*
X0075374Y0018609I-000551J0000000D01*
G01*
G37*
G36*
G01*
X0075374Y0022388D02*
X0074035Y0022388D01*
G75*
G02*
X0073484Y0022940I0000000J0000551D01*
G01*
X0073484Y0024042D01*
G75*
G02*
X0074035Y0024593I0000551J0000000D01*
G01*
X0075374Y0024593D01*
G75*
G02*
X0075925Y0024042I0000000J-000551D01*
G01*
X0075925Y0022940D01*
G75*
G02*
X0075374Y0022388I-000551J0000000D01*
G01*
G37*
G36*
G01*
X0050354Y0011083D02*
X0050354Y0012540D01*
G75*
G02*
X0050886Y0013071I0000531J0000000D01*
G01*
X0051949Y0013071D01*
G75*
G02*
X0052480Y0012540I0000000J-000531D01*
G01*
X0052480Y0011083D01*
G75*
G02*
X0051949Y0010551I-000531J0000000D01*
G01*
X0050886Y0010551D01*
G75*
G02*
X0050354Y0011083I0000000J0000531D01*
G01*
G37*
G36*
G01*
X0054370Y0011083D02*
X0054370Y0012540D01*
G75*
G02*
X0054902Y0013071I0000531J0000000D01*
G01*
X0055965Y0013071D01*
G75*
G02*
X0056496Y0012540I0000000J-000531D01*
G01*
X0056496Y0011083D01*
G75*
G02*
X0055965Y0010551I-000531J0000000D01*
G01*
X0054902Y0010551D01*
G75*
G02*
X0054370Y0011083I0000000J0000531D01*
G01*
G37*
D22*
X0079613Y0012303D03*
X0082172Y0012303D03*
X0084731Y0012303D03*
X0084731Y0019784D03*
X0082172Y0019784D03*
X0079613Y0019784D03*
G36*
G01*
X0033664Y0021089D02*
X0033664Y0022270D01*
G75*
G02*
X0034255Y0022861I0000591J0000000D01*
G01*
X0038290Y0022861D01*
G75*
G02*
X0038881Y0022270I0000000J-000591D01*
G01*
X0038881Y0021089D01*
G75*
G02*
X0038290Y0020499I-000591J0000000D01*
G01*
X0034255Y0020499D01*
G75*
G02*
X0033664Y0021089I0000000J0000591D01*
G01*
G37*
G36*
G01*
X0033664Y0017349D02*
X0033664Y0018530D01*
G75*
G02*
X0034255Y0019121I0000591J0000000D01*
G01*
X0038290Y0019121D01*
G75*
G02*
X0038881Y0018530I0000000J-000591D01*
G01*
X0038881Y0017349D01*
G75*
G02*
X0038290Y0016758I-000591J0000000D01*
G01*
X0034255Y0016758D01*
G75*
G02*
X0033664Y0017349I0000000J0000591D01*
G01*
G37*
G36*
G01*
X0033664Y0013609D02*
X0033664Y0014790D01*
G75*
G02*
X0034255Y0015380I0000591J0000000D01*
G01*
X0038290Y0015380D01*
G75*
G02*
X0038881Y0014790I0000000J-000591D01*
G01*
X0038881Y0013609D01*
G75*
G02*
X0038290Y0013018I-000591J0000000D01*
G01*
X0034255Y0013018D01*
G75*
G02*
X0033664Y0013609I0000000J0000591D01*
G01*
G37*
G36*
G01*
X0042621Y0013609D02*
X0042621Y0014790D01*
G75*
G02*
X0043211Y0015380I0000591J0000000D01*
G01*
X0047247Y0015380D01*
G75*
G02*
X0047837Y0014790I0000000J-000591D01*
G01*
X0047837Y0013609D01*
G75*
G02*
X0047247Y0013018I-000591J0000000D01*
G01*
X0043211Y0013018D01*
G75*
G02*
X0042621Y0013609I0000000J0000591D01*
G01*
G37*
G36*
G01*
X0042621Y0017349D02*
X0042621Y0018530D01*
G75*
G02*
X0043211Y0019121I0000591J0000000D01*
G01*
X0047247Y0019121D01*
G75*
G02*
X0047837Y0018530I0000000J-000591D01*
G01*
X0047837Y0017349D01*
G75*
G02*
X0047247Y0016758I-000591J0000000D01*
G01*
X0043211Y0016758D01*
G75*
G02*
X0042621Y0017349I0000000J0000591D01*
G01*
G37*
G36*
G01*
X0042621Y0021089D02*
X0042621Y0022270D01*
G75*
G02*
X0043211Y0022861I0000591J0000000D01*
G01*
X0047247Y0022861D01*
G75*
G02*
X0047837Y0022270I0000000J-000591D01*
G01*
X0047837Y0021089D01*
G75*
G02*
X0047247Y0020499I-000591J0000000D01*
G01*
X0043211Y0020499D01*
G75*
G02*
X0042621Y0021089I0000000J0000591D01*
G01*
G37*
G36*
G01*
X0044783Y0032973D02*
X0044783Y0034311D01*
G75*
G02*
X0045335Y0034862I0000551J0000000D01*
G01*
X0046437Y0034862D01*
G75*
G02*
X0046988Y0034311I0000000J-000551D01*
G01*
X0046988Y0032973D01*
G75*
G02*
X0046437Y0032421I-000551J0000000D01*
G01*
X0045335Y0032421D01*
G75*
G02*
X0044783Y0032973I0000000J0000551D01*
G01*
G37*
G36*
G01*
X0048563Y0032973D02*
X0048563Y0034311D01*
G75*
G02*
X0049114Y0034862I0000551J0000000D01*
G01*
X0050217Y0034862D01*
G75*
G02*
X0050768Y0034311I0000000J-000551D01*
G01*
X0050768Y0032973D01*
G75*
G02*
X0050217Y0032421I-000551J0000000D01*
G01*
X0049114Y0032421D01*
G75*
G02*
X0048563Y0032973I0000000J0000551D01*
G01*
G37*
G36*
G01*
X0066319Y0010768D02*
X0064980Y0010768D01*
G75*
G02*
X0064429Y0011319I0000000J0000551D01*
G01*
X0064429Y0012421D01*
G75*
G02*
X0064980Y0012973I0000551J0000000D01*
G01*
X0066319Y0012973D01*
G75*
G02*
X0066870Y0012421I0000000J-000551D01*
G01*
X0066870Y0011319D01*
G75*
G02*
X0066319Y0010768I-000551J0000000D01*
G01*
G37*
G36*
G01*
X0066319Y0014547D02*
X0064980Y0014547D01*
G75*
G02*
X0064429Y0015099I0000000J0000551D01*
G01*
X0064429Y0016201D01*
G75*
G02*
X0064980Y0016752I0000551J0000000D01*
G01*
X0066319Y0016752D01*
G75*
G02*
X0066870Y0016201I0000000J-000551D01*
G01*
X0066870Y0015099D01*
G75*
G02*
X0066319Y0014547I-000551J0000000D01*
G01*
G37*
G36*
G01*
X0070315Y0018530D02*
X0068858Y0018530D01*
G75*
G02*
X0068327Y0019062I0000000J0000531D01*
G01*
X0068327Y0020125D01*
G75*
G02*
X0068858Y0020656I0000531J0000000D01*
G01*
X0070315Y0020656D01*
G75*
G02*
X0070846Y0020125I0000000J-000531D01*
G01*
X0070846Y0019062D01*
G75*
G02*
X0070315Y0018530I-000531J0000000D01*
G01*
G37*
G36*
G01*
X0070315Y0022546D02*
X0068858Y0022546D01*
G75*
G02*
X0068327Y0023077I0000000J0000531D01*
G01*
X0068327Y0024140D01*
G75*
G02*
X0068858Y0024672I0000531J0000000D01*
G01*
X0070315Y0024672D01*
G75*
G02*
X0070846Y0024140I0000000J-000531D01*
G01*
X0070846Y0023077D01*
G75*
G02*
X0070315Y0022546I-000531J0000000D01*
G01*
G37*
D10*
X0041283Y0027697D03*
X0047510Y0045667D03*
X0088051Y0010138D03*
X0031280Y0043917D03*
X0031496Y0035630D03*
X0064862Y0010335D03*
X0056515Y0034615D03*
X0038810Y0017961D03*
X0051151Y0030842D03*
X0046949Y0010335D03*
X0038719Y0010390D03*
X0068701Y0030315D03*
X0070871Y0022419D03*
X0031004Y0027461D03*
X0058366Y0029823D03*
X0087894Y0019095D03*
X0065551Y0026083D03*
X0077347Y0045458D03*
X0087795Y0014961D03*
X0044195Y0024818D03*
X0043899Y0011672D03*
X0061775Y0025612D03*
X0048391Y0017740D03*
X0039064Y0025751D03*
X0039547Y0044036D03*
X0085373Y0016645D03*
X0049926Y0040950D03*
X0048273Y0030199D03*
X0059161Y0015529D03*
X0080611Y0016734D03*
X0075392Y0043169D03*
X0043026Y0043756D03*
X0072441Y0043764D03*
X0071749Y0030019D03*
X0071084Y0037054D03*
X0059565Y0019033D03*
X0039570Y0034725D03*
X0054094Y0030606D03*
X0057839Y0026564D03*
X0058465Y0022638D03*
X0069882Y0027461D03*
X0077230Y0030471D03*
X0071518Y0011931D03*
X0058661Y0011811D03*
D23*
X0055610Y0027067D02*
X0057336Y0027067D01*
X0055433Y0026890D02*
X0055610Y0027067D01*
X0057336Y0027067D02*
X0057839Y0026564D01*
X0055433Y0023130D02*
X0055433Y0026890D01*
X0054094Y0029567D02*
X0054094Y0030606D01*
X0051595Y0027067D02*
X0054094Y0029567D01*
X0051575Y0023110D02*
X0051595Y0023130D01*
X0051575Y0021555D02*
X0051575Y0023110D01*
X0045689Y0029547D02*
X0048130Y0027106D01*
X0042998Y0029547D02*
X0045689Y0029547D01*
X0041283Y0027697D02*
X0041283Y0027833D01*
X0041283Y0027833D02*
X0042998Y0029547D01*
X0045886Y0037933D02*
X0045177Y0038642D01*
X0045886Y0033642D02*
X0045886Y0037933D01*
X0045886Y0032586D02*
X0045886Y0033642D01*
X0048273Y0030199D02*
X0045886Y0032586D01*
X0044195Y0027026D02*
X0044114Y0027106D01*
X0044195Y0024818D02*
X0044195Y0027026D01*
X0045424Y0023589D02*
X0045424Y0021753D01*
X0044195Y0024818D02*
X0045424Y0023589D01*
X0039570Y0031956D02*
X0040167Y0031358D01*
X0039570Y0034725D02*
X0039570Y0031956D01*
X0034508Y0031900D02*
X0033967Y0031358D01*
X0034508Y0037697D02*
X0034508Y0031900D01*
X0040167Y0031358D02*
X0040561Y0031358D01*
X0037224Y0026477D02*
X0038339Y0026477D01*
X0038339Y0026477D02*
X0039064Y0025751D01*
X0055704Y0030606D02*
X0054094Y0030606D01*
X0058661Y0033563D02*
X0055704Y0030606D01*
X0063122Y0033563D02*
X0058661Y0033563D01*
X0045620Y0021555D02*
X0036270Y0021555D01*
X0051575Y0019508D02*
X0051575Y0021555D01*
X0047343Y0021555D02*
X0051575Y0021555D01*
X0043899Y0011672D02*
X0043750Y0011821D01*
X0049923Y0015729D02*
X0051575Y0015729D01*
X0043750Y0011821D02*
X0043750Y0014075D01*
X0051575Y0015729D02*
X0051575Y0012264D01*
X0048270Y0014075D02*
X0049923Y0015729D01*
X0045226Y0014075D02*
X0048270Y0014075D01*
X0045226Y0014075D02*
X0036270Y0014075D01*
X0061775Y0025612D02*
X0061775Y0023750D01*
X0050177Y0041201D02*
X0052657Y0041201D01*
X0086142Y0043622D02*
X0087894Y0045374D01*
X0048316Y0017815D02*
X0045374Y0017815D01*
X0048391Y0017740D02*
X0048316Y0017815D01*
X0061775Y0023750D02*
X0061713Y0023688D01*
X0082669Y0043622D02*
X0086142Y0043622D01*
X0085187Y0016831D02*
X0083996Y0016831D01*
X0085373Y0016645D02*
X0085187Y0016831D01*
X0082172Y0018655D02*
X0082172Y0019784D01*
X0083996Y0016831D02*
X0082172Y0018655D01*
X0049926Y0040950D02*
X0050177Y0041201D01*
X0084670Y0013401D02*
X0084670Y0013327D01*
X0059114Y0015689D02*
X0065610Y0015689D01*
X0074705Y0019687D02*
X0074705Y0019711D01*
X0081337Y0016734D02*
X0084670Y0013401D01*
X0077422Y0016970D02*
X0074705Y0019687D01*
X0056398Y0015470D02*
X0059102Y0015470D01*
X0080611Y0016734D02*
X0080375Y0016970D01*
X0080611Y0016734D02*
X0081337Y0016734D01*
X0080375Y0016970D02*
X0077422Y0016970D01*
X0043026Y0043756D02*
X0043030Y0043760D01*
X0043030Y0043760D02*
X0045177Y0043760D01*
X0061331Y0043760D02*
X0061567Y0043996D01*
X0052657Y0043760D02*
X0061331Y0043760D01*
X0072405Y0043799D02*
X0063201Y0043799D01*
X0072441Y0043764D02*
X0072405Y0043799D01*
X0072515Y0038484D02*
X0082335Y0038484D01*
X0079613Y0019784D02*
X0079613Y0021383D01*
X0077106Y0023890D02*
X0077106Y0024662D01*
X0079613Y0021383D02*
X0077106Y0023890D01*
X0071084Y0037054D02*
X0072515Y0038484D01*
X0077106Y0024662D02*
X0071749Y0030019D01*
X0069783Y0015650D02*
X0069587Y0015847D01*
X0079552Y0013327D02*
X0077483Y0015395D01*
X0074705Y0015650D02*
X0069783Y0015650D01*
X0077483Y0015395D02*
X0074959Y0015395D01*
X0065901Y0019484D02*
X0066083Y0019666D01*
X0059565Y0019033D02*
X0060203Y0019672D01*
X0060203Y0019672D02*
X0069587Y0019672D01*
X0085472Y0033622D02*
X0087894Y0031201D01*
X0063181Y0033819D02*
X0082669Y0033819D01*
X0082669Y0033622D02*
X0085472Y0033622D01*
X0053937Y0017025D02*
X0056398Y0019485D01*
X0055433Y0011811D02*
X0053937Y0013307D01*
X0053937Y0013307D02*
X0053937Y0017025D01*
X0058465Y0021552D02*
X0056398Y0019485D01*
X0058465Y0022638D02*
X0058465Y0021552D01*
X0058720Y0011752D02*
X0061634Y0011752D01*
X0058661Y0011811D02*
X0058720Y0011752D01*
X0061634Y0011752D02*
X0061713Y0011673D01*
X0056555Y0040453D02*
X0056416Y0040453D01*
X0060256Y0038878D02*
X0063122Y0038878D01*
X0056416Y0040453D02*
X0054605Y0038642D01*
X0054605Y0038642D02*
X0052303Y0038642D01*
X0058681Y0040453D02*
X0060256Y0038878D01*
X0056555Y0040453D02*
X0058681Y0040453D01*
X0084744Y0021280D02*
X0082579Y0023445D01*
X0082579Y0023445D02*
X0082579Y0028465D01*
X0084744Y0020177D02*
X0084744Y0021280D01*
G36*
X0089071Y0029476D02*
G01*
X0089171Y0029257D01*
X0089173Y0029212D01*
X0089173Y0009250D01*
X0089099Y0009021D01*
X0088904Y0008879D01*
X0088783Y0008860D01*
X0030116Y0008860D01*
X0029887Y0008935D01*
X0029745Y0009130D01*
X0029726Y0009250D01*
X0029726Y0013005D01*
X0029801Y0013234D01*
X0029996Y0013376D01*
X0030209Y0013384D01*
X0030768Y0013246D01*
X0030768Y0013246D01*
X0031437Y0013246D01*
X0031437Y0013246D01*
X0032088Y0013406D01*
X0032518Y0013633D01*
X0032756Y0013673D01*
X0032972Y0013566D01*
X0033084Y0013353D01*
X0033086Y0013334D01*
X0033086Y0013334D01*
X0033264Y0012930D01*
X0033264Y0012930D01*
X0033264Y0012930D01*
X0033576Y0012619D01*
X0033576Y0012619D01*
X0033576Y0012619D01*
X0033889Y0012480D01*
X0033980Y0012440D01*
X0034079Y0012429D01*
X0038466Y0012429D01*
X0038565Y0012440D01*
X0038625Y0012467D01*
X0038969Y0012619D01*
X0038969Y0012619D01*
X0038969Y0012619D01*
X0039151Y0012801D01*
X0039229Y0012879D01*
X0039444Y0012989D01*
X0039505Y0012993D01*
X0041950Y0012993D01*
X0042179Y0012919D01*
X0042321Y0012724D01*
X0042321Y0012483D01*
X0042304Y0012442D01*
X0042183Y0012176D01*
X0042183Y0012176D01*
X0042111Y0011672D01*
X0042111Y0011672D01*
X0042183Y0011168D01*
X0042183Y0011168D01*
X0042183Y0011168D01*
X0042183Y0011168D01*
X0042394Y0010705D01*
X0042728Y0010320D01*
X0043156Y0010045D01*
X0043645Y0009901D01*
X0043645Y0009901D01*
X0044154Y0009901D01*
X0044154Y0009901D01*
X0044642Y0010045D01*
X0045071Y0010320D01*
X0045404Y0010705D01*
X0045615Y0011168D01*
X0045615Y0011168D01*
X0045688Y0011672D01*
X0045688Y0011672D01*
X0045643Y0011984D01*
X0045684Y0012221D01*
X0045857Y0012389D01*
X0046029Y0012429D01*
X0047423Y0012429D01*
X0047423Y0012429D01*
X0047522Y0012440D01*
X0047582Y0012467D01*
X0047925Y0012619D01*
X0047925Y0012619D01*
X0047925Y0012619D01*
X0048198Y0012891D01*
X0048397Y0012998D01*
X0048692Y0013056D01*
X0048852Y0013163D01*
X0049050Y0013295D01*
X0049089Y0013354D01*
X0049137Y0013413D01*
X0049290Y0013566D01*
X0049505Y0013675D01*
X0049743Y0013638D01*
X0049913Y0013467D01*
X0049951Y0013229D01*
X0049923Y0013133D01*
X0049833Y0012930D01*
X0049776Y0012801D01*
X0049765Y0012707D01*
X0049765Y0010915D01*
X0049776Y0010822D01*
X0049776Y0010822D01*
X0049776Y0010822D01*
X0049945Y0010438D01*
X0050241Y0010142D01*
X0050625Y0009973D01*
X0050718Y0009962D01*
X0050718Y0009962D01*
X0050718Y0009962D01*
X0052116Y0009962D01*
X0052116Y0009962D01*
X0052210Y0009973D01*
X0052593Y0010142D01*
X0052890Y0010438D01*
X0053059Y0010822D01*
X0053059Y0010822D01*
X0053069Y0010844D01*
X0053229Y0011024D01*
X0053465Y0011074D01*
X0053685Y0010977D01*
X0053782Y0010844D01*
X0053792Y0010822D01*
X0053792Y0010822D01*
X0053961Y0010438D01*
X0054257Y0010142D01*
X0054641Y0009973D01*
X0054734Y0009962D01*
X0054734Y0009962D01*
X0054734Y0009962D01*
X0056132Y0009962D01*
X0056132Y0009962D01*
X0056226Y0009973D01*
X0056609Y0010142D01*
X0056905Y0010438D01*
X0056905Y0010438D01*
X0056931Y0010464D01*
X0056942Y0010453D01*
X0057076Y0010557D01*
X0057317Y0010564D01*
X0057463Y0010471D01*
X0057469Y0010478D01*
X0057490Y0010459D01*
X0057490Y0010459D01*
X0057918Y0010184D01*
X0058407Y0010041D01*
X0058407Y0010041D01*
X0058916Y0010041D01*
X0058916Y0010041D01*
X0059404Y0010184D01*
X0059768Y0010418D01*
X0060001Y0010479D01*
X0060225Y0010392D01*
X0060254Y0010366D01*
X0060340Y0010280D01*
X0060723Y0010111D01*
X0060817Y0010100D01*
X0060817Y0010100D01*
X0060817Y0010100D01*
X0062608Y0010100D01*
X0062608Y0010100D01*
X0062702Y0010111D01*
X0063085Y0010280D01*
X0063330Y0010525D01*
X0063545Y0010634D01*
X0063783Y0010597D01*
X0063882Y0010525D01*
X0064201Y0010206D01*
X0064629Y0010006D01*
X0064629Y0010006D01*
X0064650Y0010003D01*
X0064650Y0010003D01*
X0064650Y0012480D01*
X0064724Y0012710D01*
X0064919Y0012851D01*
X0065039Y0012870D01*
X0066260Y0012870D01*
X0066489Y0012796D01*
X0066631Y0012601D01*
X0066650Y0012480D01*
X0066650Y0010003D01*
X0066650Y0010003D01*
X0066671Y0010006D01*
X0067099Y0010206D01*
X0067418Y0010525D01*
X0067632Y0010634D01*
X0067870Y0010597D01*
X0067969Y0010525D01*
X0068214Y0010280D01*
X0068597Y0010111D01*
X0068691Y0010100D01*
X0068691Y0010100D01*
X0068691Y0010100D01*
X0070482Y0010100D01*
X0070482Y0010100D01*
X0070576Y0010111D01*
X0070789Y0010204D01*
X0071028Y0010229D01*
X0071056Y0010222D01*
X0071263Y0010161D01*
X0071263Y0010161D01*
X0071772Y0010161D01*
X0071772Y0010161D01*
X0072261Y0010304D01*
X0072542Y0010485D01*
X0072775Y0010546D01*
X0073000Y0010459D01*
X0073028Y0010433D01*
X0073256Y0010206D01*
X0073684Y0010006D01*
X0073684Y0010006D01*
X0073705Y0010003D01*
X0073705Y0010003D01*
X0075705Y0010003D01*
X0075705Y0010003D01*
X0075726Y0010006D01*
X0076154Y0010206D01*
X0076487Y0010539D01*
X0076642Y0010870D01*
X0076642Y0010870D01*
X0075705Y0010870D01*
X0075705Y0010870D01*
X0075705Y0010003D01*
X0073705Y0010003D01*
X0073705Y0012480D01*
X0073779Y0012710D01*
X0073974Y0012851D01*
X0074095Y0012870D01*
X0076642Y0012870D01*
X0076642Y0012870D01*
X0076487Y0013201D01*
X0076154Y0013535D01*
X0076126Y0013554D01*
X0076130Y0013560D01*
X0075984Y0013696D01*
X0075938Y0013933D01*
X0076040Y0014151D01*
X0076049Y0014161D01*
X0076088Y0014200D01*
X0076303Y0014309D01*
X0076364Y0014314D01*
X0076873Y0014314D01*
X0077102Y0014239D01*
X0077149Y0014200D01*
X0078122Y0013226D01*
X0078232Y0013012D01*
X0078237Y0012951D01*
X0078237Y0010966D01*
X0078271Y0010794D01*
X0078271Y0010794D01*
X0078377Y0010634D01*
X0078401Y0010599D01*
X0078401Y0010599D01*
X0078596Y0010469D01*
X0078642Y0010459D01*
X0078768Y0010434D01*
X0078768Y0010434D01*
X0080459Y0010434D01*
X0080459Y0010434D01*
X0080602Y0010463D01*
X0080841Y0010435D01*
X0080894Y0010405D01*
X0081078Y0010282D01*
X0081307Y0010236D01*
X0081307Y0010236D01*
X0081385Y0010236D01*
X0081385Y0010236D01*
X0081385Y0012701D01*
X0081459Y0012930D01*
X0081654Y0013072D01*
X0081775Y0013091D01*
X0082570Y0013091D01*
X0082799Y0013016D01*
X0082941Y0012821D01*
X0082960Y0012701D01*
X0082960Y0010236D01*
X0082960Y0010236D01*
X0083037Y0010236D01*
X0083037Y0010236D01*
X0083267Y0010282D01*
X0083451Y0010405D01*
X0083682Y0010470D01*
X0083743Y0010463D01*
X0083886Y0010434D01*
X0083886Y0010434D01*
X0085577Y0010434D01*
X0085577Y0010434D01*
X0085749Y0010469D01*
X0085944Y0010599D01*
X0086074Y0010794D01*
X0086108Y0010966D01*
X0086108Y0013641D01*
X0086074Y0013813D01*
X0086074Y0013813D01*
X0085944Y0014008D01*
X0085944Y0014008D01*
X0085944Y0014008D01*
X0085749Y0014138D01*
X0085749Y0014138D01*
X0085736Y0014141D01*
X0085717Y0014151D01*
X0085713Y0014153D01*
X0085714Y0014153D01*
X0085526Y0014258D01*
X0085425Y0014477D01*
X0085472Y0014713D01*
X0085649Y0014877D01*
X0085702Y0014897D01*
X0086116Y0015018D01*
X0086544Y0015293D01*
X0086877Y0015678D01*
X0087089Y0016141D01*
X0087094Y0016180D01*
X0087161Y0016645D01*
X0087161Y0016645D01*
X0087089Y0017149D01*
X0087089Y0017149D01*
X0087089Y0017149D01*
X0086877Y0017612D01*
X0086544Y0017997D01*
X0086540Y0018000D01*
X0086287Y0018162D01*
X0086135Y0018348D01*
X0086108Y0018490D01*
X0086108Y0021121D01*
X0086108Y0021121D01*
X0086074Y0021293D01*
X0086074Y0021293D01*
X0085944Y0021488D01*
X0085944Y0021488D01*
X0085914Y0021508D01*
X0085771Y0021683D01*
X0085763Y0021702D01*
X0085763Y0021702D01*
X0085690Y0021810D01*
X0085577Y0021981D01*
X0087398Y0021981D01*
X0087398Y0021981D01*
X0087728Y0022135D01*
X0088062Y0022469D01*
X0088262Y0022896D01*
X0088265Y0022917D01*
X0088265Y0022917D01*
X0087398Y0022917D01*
X0087398Y0022917D01*
X0087398Y0021981D01*
X0085577Y0021981D01*
X0085524Y0022059D01*
X0085524Y0022059D01*
X0085512Y0022071D01*
X0085402Y0022286D01*
X0085398Y0022347D01*
X0085398Y0025854D01*
X0087398Y0025854D01*
X0087398Y0024917D01*
X0087398Y0024917D01*
X0088265Y0024917D01*
X0088265Y0024917D01*
X0088262Y0024939D01*
X0088062Y0025366D01*
X0087728Y0025700D01*
X0087398Y0025854D01*
X0085398Y0025854D01*
X0085067Y0025700D01*
X0084733Y0025366D01*
X0084713Y0025338D01*
X0084708Y0025342D01*
X0084572Y0025197D01*
X0084335Y0025151D01*
X0084117Y0025252D01*
X0084107Y0025262D01*
X0083825Y0025544D01*
X0083825Y0025544D01*
X0083800Y0025570D01*
X0083804Y0025574D01*
X0083683Y0025732D01*
X0083660Y0025862D01*
X0083660Y0026462D01*
X0083735Y0026691D01*
X0083930Y0026833D01*
X0084050Y0026852D01*
X0086094Y0026852D01*
X0086094Y0026852D01*
X0086192Y0026863D01*
X0086264Y0026895D01*
X0086350Y0026933D01*
X0086596Y0027041D01*
X0086908Y0027353D01*
X0087086Y0027757D01*
X0087097Y0027855D01*
X0087097Y0029069D01*
X0087172Y0029298D01*
X0087367Y0029440D01*
X0087597Y0029443D01*
X0087639Y0029430D01*
X0087639Y0029430D01*
X0088148Y0029430D01*
X0088148Y0029430D01*
X0088637Y0029574D01*
X0088637Y0029574D01*
X0088664Y0029582D01*
X0088666Y0029572D01*
X0088861Y0029594D01*
X0089071Y0029476D01*
G37*
G36*
X0042226Y0020399D02*
G01*
X0042272Y0020360D01*
X0042547Y0020085D01*
X0042656Y0019871D01*
X0042618Y0019633D01*
X0042547Y0019534D01*
X0042221Y0019208D01*
X0042043Y0018805D01*
X0042043Y0018805D01*
X0042032Y0018706D01*
X0042032Y0017173D01*
X0042032Y0017173D01*
X0042032Y0017173D01*
X0042034Y0017149D01*
X0042043Y0017074D01*
X0042043Y0017074D01*
X0042221Y0016671D01*
X0042221Y0016671D01*
X0042221Y0016671D01*
X0042533Y0016359D01*
X0042533Y0016359D01*
X0042547Y0016345D01*
X0042656Y0016130D01*
X0042618Y0015892D01*
X0042547Y0015794D01*
X0042533Y0015780D01*
X0042533Y0015780D01*
X0042273Y0015520D01*
X0042221Y0015468D01*
X0042186Y0015389D01*
X0042025Y0015209D01*
X0041830Y0015156D01*
X0039672Y0015156D01*
X0039443Y0015231D01*
X0039316Y0015389D01*
X0039280Y0015468D01*
X0039280Y0015468D01*
X0039280Y0015468D01*
X0039095Y0015654D01*
X0038986Y0015868D01*
X0039023Y0016106D01*
X0039095Y0016205D01*
X0039427Y0016537D01*
X0039624Y0016940D01*
X0035662Y0016940D01*
X0035433Y0017014D01*
X0035292Y0017209D01*
X0035272Y0017329D01*
X0035272Y0018550D01*
X0035347Y0018779D01*
X0035542Y0018920D01*
X0035662Y0018940D01*
X0039624Y0018940D01*
X0039427Y0019342D01*
X0039095Y0019674D01*
X0038986Y0019889D01*
X0039023Y0020127D01*
X0039095Y0020225D01*
X0039229Y0020360D01*
X0039444Y0020469D01*
X0039505Y0020474D01*
X0041997Y0020474D01*
X0042226Y0020399D01*
G37*
G36*
X0072313Y0027926D02*
G01*
X0074193Y0026046D01*
X0074302Y0025831D01*
X0074264Y0025593D01*
X0074094Y0025423D01*
X0073917Y0025380D01*
X0073879Y0025380D01*
X0073684Y0025355D01*
X0073684Y0025355D01*
X0073256Y0025155D01*
X0072922Y0024821D01*
X0072768Y0024491D01*
X0072768Y0024491D01*
X0075315Y0024491D01*
X0075544Y0024416D01*
X0075686Y0024221D01*
X0075705Y0024101D01*
X0075705Y0022880D01*
X0075630Y0022651D01*
X0075435Y0022510D01*
X0075315Y0022491D01*
X0072768Y0022491D01*
X0072768Y0022491D01*
X0072922Y0022160D01*
X0073256Y0021826D01*
X0073284Y0021807D01*
X0073280Y0021801D01*
X0073426Y0021665D01*
X0073472Y0021428D01*
X0073370Y0021210D01*
X0073360Y0021200D01*
X0073078Y0020918D01*
X0072906Y0020528D01*
X0072895Y0020433D01*
X0072895Y0018990D01*
X0072906Y0018894D01*
X0072906Y0018894D01*
X0072906Y0018894D01*
X0073078Y0018504D01*
X0073380Y0018203D01*
X0073755Y0018037D01*
X0073935Y0017876D01*
X0073985Y0017641D01*
X0073888Y0017421D01*
X0073755Y0017324D01*
X0073380Y0017158D01*
X0073380Y0017158D01*
X0073380Y0017158D01*
X0073078Y0016857D01*
X0073078Y0016857D01*
X0073067Y0016845D01*
X0072852Y0016736D01*
X0072791Y0016731D01*
X0071604Y0016731D01*
X0071374Y0016806D01*
X0071283Y0016919D01*
X0071276Y0016914D01*
X0071256Y0016944D01*
X0071256Y0016944D01*
X0071256Y0016944D01*
X0070959Y0017240D01*
X0070770Y0017324D01*
X0070590Y0017485D01*
X0070539Y0017720D01*
X0070637Y0017940D01*
X0070770Y0018037D01*
X0070959Y0018121D01*
X0071256Y0018417D01*
X0071425Y0018800D01*
X0071436Y0018894D01*
X0071436Y0020292D01*
X0071425Y0020386D01*
X0071256Y0020769D01*
X0070959Y0021065D01*
X0070801Y0021135D01*
X0070621Y0021296D01*
X0070570Y0021531D01*
X0070668Y0021752D01*
X0070793Y0021845D01*
X0071083Y0021980D01*
X0071412Y0022309D01*
X0071552Y0022609D01*
X0071552Y0022609D01*
X0067815Y0022609D01*
X0067811Y0022605D01*
X0067596Y0022495D01*
X0067535Y0022491D01*
X0065039Y0022491D01*
X0064810Y0022565D01*
X0064669Y0022760D01*
X0064650Y0022880D01*
X0064650Y0025358D01*
X0064650Y0025358D01*
X0064629Y0025355D01*
X0064201Y0025155D01*
X0064173Y0025136D01*
X0064168Y0025142D01*
X0063993Y0025053D01*
X0063756Y0025091D01*
X0063585Y0025261D01*
X0063547Y0025494D01*
X0063564Y0025612D01*
X0063562Y0025627D01*
X0063491Y0026116D01*
X0063483Y0026143D01*
X0063493Y0026145D01*
X0063470Y0026341D01*
X0063589Y0026551D01*
X0063808Y0026651D01*
X0063852Y0026654D01*
X0066560Y0026654D01*
X0066560Y0026654D01*
X0066828Y0026693D01*
X0067241Y0026895D01*
X0067241Y0026895D01*
X0067507Y0027160D01*
X0067721Y0027270D01*
X0067959Y0027232D01*
X0068130Y0027062D01*
X0068155Y0026983D01*
X0068158Y0026984D01*
X0068166Y0026957D01*
X0068166Y0026957D01*
X0068166Y0026957D01*
X0068377Y0026494D01*
X0068711Y0026109D01*
X0068711Y0026109D01*
X0068729Y0026088D01*
X0068724Y0026083D01*
X0068830Y0025907D01*
X0068809Y0025667D01*
X0068651Y0025485D01*
X0068539Y0025446D01*
X0068540Y0025442D01*
X0068512Y0025434D01*
X0068090Y0025237D01*
X0067829Y0024976D01*
X0067614Y0024867D01*
X0067376Y0024904D01*
X0067278Y0024976D01*
X0067099Y0025155D01*
X0066671Y0025355D01*
X0066671Y0025355D01*
X0066650Y0025358D01*
X0066650Y0024491D01*
X0066650Y0024491D01*
X0067382Y0024491D01*
X0067386Y0024495D01*
X0067600Y0024604D01*
X0067661Y0024609D01*
X0071552Y0024609D01*
X0071552Y0024609D01*
X0071412Y0024908D01*
X0071083Y0025237D01*
X0070921Y0025313D01*
X0070744Y0025477D01*
X0070699Y0025714D01*
X0070800Y0025932D01*
X0070875Y0025994D01*
X0071053Y0026109D01*
X0071387Y0026494D01*
X0071598Y0026957D01*
X0071602Y0026983D01*
X0071671Y0027461D01*
X0071671Y0027461D01*
X0071651Y0027595D01*
X0071692Y0027832D01*
X0071865Y0028000D01*
X0072104Y0028034D01*
X0072313Y0027926D01*
G37*
G36*
X0076383Y0032663D02*
G01*
X0076525Y0032468D01*
X0076525Y0032227D01*
X0076383Y0032032D01*
X0076365Y0032020D01*
X0076058Y0031823D01*
X0076058Y0031823D01*
X0076058Y0031823D01*
X0075956Y0031705D01*
X0075725Y0031438D01*
X0075513Y0030975D01*
X0075513Y0030975D01*
X0075441Y0030471D01*
X0075441Y0030471D01*
X0075513Y0029967D01*
X0075513Y0029967D01*
X0075513Y0029967D01*
X0075513Y0029967D01*
X0075725Y0029504D01*
X0076058Y0029119D01*
X0076487Y0028844D01*
X0076975Y0028701D01*
X0076975Y0028701D01*
X0077484Y0028701D01*
X0077484Y0028701D01*
X0077484Y0028701D01*
X0077484Y0028701D01*
X0077624Y0028742D01*
X0077742Y0028776D01*
X0077983Y0028769D01*
X0078173Y0028622D01*
X0078241Y0028402D01*
X0078241Y0027856D01*
X0078241Y0027855D01*
X0078253Y0027757D01*
X0078253Y0027757D01*
X0078431Y0027353D01*
X0078431Y0027353D01*
X0078431Y0027353D01*
X0078743Y0027041D01*
X0079147Y0026863D01*
X0079245Y0026852D01*
X0081107Y0026852D01*
X0081337Y0026777D01*
X0081478Y0026582D01*
X0081497Y0026462D01*
X0081497Y0025792D01*
X0081423Y0025562D01*
X0081383Y0025516D01*
X0081241Y0025374D01*
X0081110Y0025243D01*
X0080937Y0024852D01*
X0080926Y0024757D01*
X0080926Y0023078D01*
X0080937Y0022983D01*
X0080937Y0022983D01*
X0080937Y0022983D01*
X0081110Y0022592D01*
X0081411Y0022291D01*
X0081411Y0022291D01*
X0081414Y0022288D01*
X0081523Y0022073D01*
X0081486Y0021835D01*
X0081315Y0021665D01*
X0081215Y0021630D01*
X0081155Y0021618D01*
X0081135Y0021610D01*
X0080895Y0021591D01*
X0080689Y0021717D01*
X0080654Y0021774D01*
X0080653Y0021773D01*
X0080629Y0021810D01*
X0080524Y0021967D01*
X0080393Y0022163D01*
X0080379Y0022172D01*
X0080335Y0022202D01*
X0080276Y0022250D01*
X0078302Y0024224D01*
X0078193Y0024439D01*
X0078188Y0024500D01*
X0078188Y0024517D01*
X0078195Y0024593D01*
X0078198Y0024609D01*
X0078209Y0024662D01*
X0078125Y0025084D01*
X0078120Y0025091D01*
X0078109Y0025108D01*
X0077886Y0025441D01*
X0077886Y0025441D01*
X0077828Y0025480D01*
X0077769Y0025529D01*
X0073643Y0029654D01*
X0073534Y0029869D01*
X0073533Y0029985D01*
X0073538Y0030019D01*
X0073479Y0030426D01*
X0073466Y0030523D01*
X0073466Y0030523D01*
X0073466Y0030523D01*
X0073254Y0030986D01*
X0072921Y0031370D01*
X0072815Y0031438D01*
X0072492Y0031646D01*
X0072004Y0031789D01*
X0072004Y0031789D01*
X0071495Y0031789D01*
X0071495Y0031789D01*
X0071006Y0031646D01*
X0071006Y0031646D01*
X0070578Y0031370D01*
X0070578Y0031370D01*
X0070578Y0031370D01*
X0070401Y0031166D01*
X0070245Y0030986D01*
X0070033Y0030523D01*
X0070033Y0030523D01*
X0069961Y0030019D01*
X0069961Y0030019D01*
X0070010Y0029676D01*
X0069969Y0029439D01*
X0069796Y0029271D01*
X0069654Y0029238D01*
X0069655Y0029235D01*
X0069627Y0029231D01*
X0069139Y0029088D01*
X0069139Y0029088D01*
X0068711Y0028813D01*
X0068711Y0028813D01*
X0068711Y0028813D01*
X0068388Y0028440D01*
X0068377Y0028428D01*
X0068166Y0027965D01*
X0068166Y0027965D01*
X0068164Y0027956D01*
X0068161Y0027950D01*
X0068158Y0027938D01*
X0068156Y0027939D01*
X0068058Y0027740D01*
X0067845Y0027628D01*
X0067779Y0027622D01*
X0059443Y0027622D01*
X0059214Y0027697D01*
X0059148Y0027757D01*
X0059010Y0027916D01*
X0058582Y0028191D01*
X0058094Y0028335D01*
X0058094Y0028335D01*
X0057584Y0028335D01*
X0057584Y0028335D01*
X0057498Y0028309D01*
X0057257Y0028316D01*
X0057118Y0028424D01*
X0057108Y0028414D01*
X0056786Y0028736D01*
X0056786Y0028736D01*
X0056403Y0028905D01*
X0056403Y0028905D01*
X0056403Y0028905D01*
X0056351Y0028911D01*
X0056132Y0029012D01*
X0056014Y0029222D01*
X0056042Y0029461D01*
X0056179Y0029622D01*
X0058600Y0029622D01*
X0062181Y0029622D01*
X0062181Y0029622D01*
X0064181Y0029622D01*
X0064181Y0029622D01*
X0067763Y0029622D01*
X0067566Y0030025D01*
X0067241Y0030350D01*
X0066828Y0030552D01*
X0066560Y0030591D01*
X0064181Y0030591D01*
X0064181Y0030591D01*
X0064181Y0029622D01*
X0062181Y0029622D01*
X0062181Y0030591D01*
X0062181Y0030591D01*
X0059802Y0030591D01*
X0059802Y0030591D01*
X0059535Y0030552D01*
X0059121Y0030350D01*
X0058796Y0030025D01*
X0058600Y0029622D01*
X0056179Y0029622D01*
X0056179Y0029623D01*
X0056203Y0029639D01*
X0056484Y0029826D01*
X0056523Y0029884D01*
X0056571Y0029943D01*
X0058686Y0032059D01*
X0058901Y0032168D01*
X0059139Y0032130D01*
X0059238Y0032059D01*
X0059255Y0032041D01*
X0059255Y0032041D01*
X0059255Y0032041D01*
X0059417Y0031970D01*
X0059658Y0031863D01*
X0059757Y0031852D01*
X0066605Y0031852D01*
X0066704Y0031863D01*
X0067108Y0032041D01*
X0067420Y0032353D01*
X0067470Y0032468D01*
X0067487Y0032505D01*
X0067647Y0032685D01*
X0067843Y0032738D01*
X0076154Y0032738D01*
X0076383Y0032663D01*
G37*
G36*
X0086377Y0046973D02*
G01*
X0086518Y0046778D01*
X0086518Y0046537D01*
X0086442Y0046402D01*
X0086389Y0046341D01*
X0086177Y0045878D01*
X0086177Y0045878D01*
X0086156Y0045727D01*
X0086049Y0045511D01*
X0085836Y0045398D01*
X0085770Y0045393D01*
X0079245Y0045393D01*
X0079245Y0045393D01*
X0079147Y0045381D01*
X0079147Y0045381D01*
X0078743Y0045203D01*
X0078431Y0044891D01*
X0078253Y0044488D01*
X0078253Y0044488D01*
X0078241Y0044389D01*
X0078241Y0042856D01*
X0078241Y0042855D01*
X0078253Y0042757D01*
X0078253Y0042757D01*
X0078431Y0042353D01*
X0078431Y0042353D01*
X0078431Y0042353D01*
X0078743Y0042041D01*
X0078743Y0042041D01*
X0078743Y0042041D01*
X0079025Y0041917D01*
X0079147Y0041863D01*
X0079245Y0041852D01*
X0085890Y0041852D01*
X0086119Y0041777D01*
X0086260Y0041582D01*
X0086260Y0041342D01*
X0086244Y0041300D01*
X0086177Y0041154D01*
X0086177Y0041154D01*
X0086116Y0040727D01*
X0086010Y0040511D01*
X0085797Y0040398D01*
X0085730Y0040393D01*
X0079245Y0040393D01*
X0079245Y0040393D01*
X0079147Y0040381D01*
X0079147Y0040381D01*
X0078743Y0040203D01*
X0078431Y0039891D01*
X0078390Y0039798D01*
X0078229Y0039619D01*
X0078034Y0039566D01*
X0072659Y0039566D01*
X0072583Y0039573D01*
X0072515Y0039587D01*
X0072408Y0039566D01*
X0072093Y0039503D01*
X0071735Y0039264D01*
X0071735Y0039264D01*
X0071696Y0039206D01*
X0071647Y0039147D01*
X0071439Y0038939D01*
X0071225Y0038829D01*
X0071164Y0038825D01*
X0070830Y0038825D01*
X0070341Y0038681D01*
X0070341Y0038681D01*
X0069913Y0038406D01*
X0069580Y0038021D01*
X0069368Y0037558D01*
X0069368Y0037558D01*
X0069296Y0037054D01*
X0069296Y0037054D01*
X0069368Y0036550D01*
X0069368Y0036550D01*
X0069368Y0036550D01*
X0069368Y0036550D01*
X0069580Y0036087D01*
X0069913Y0035702D01*
X0069958Y0035673D01*
X0070044Y0035618D01*
X0070196Y0035432D01*
X0070210Y0035191D01*
X0070080Y0034989D01*
X0069855Y0034901D01*
X0069833Y0034901D01*
X0067572Y0034901D01*
X0067343Y0034975D01*
X0067296Y0035015D01*
X0067108Y0035203D01*
X0067108Y0035203D01*
X0066704Y0035381D01*
X0066605Y0035393D01*
X0059757Y0035393D01*
X0059757Y0035393D01*
X0059658Y0035381D01*
X0059658Y0035381D01*
X0059255Y0035203D01*
X0058978Y0034926D01*
X0058763Y0034817D01*
X0058525Y0034854D01*
X0058355Y0035025D01*
X0058317Y0035263D01*
X0058349Y0035366D01*
X0058492Y0035673D01*
X0057555Y0035673D01*
X0057555Y0035673D01*
X0057555Y0034807D01*
X0057679Y0034698D01*
X0057802Y0034491D01*
X0057780Y0034251D01*
X0057698Y0034129D01*
X0055647Y0032078D01*
X0055432Y0031968D01*
X0055194Y0032006D01*
X0055160Y0032025D01*
X0054838Y0032233D01*
X0054551Y0032317D01*
X0054349Y0032376D01*
X0054349Y0032376D01*
X0053840Y0032376D01*
X0053840Y0032376D01*
X0053351Y0032233D01*
X0053351Y0032233D01*
X0052923Y0031958D01*
X0052923Y0031958D01*
X0052923Y0031958D01*
X0052740Y0031746D01*
X0052590Y0031573D01*
X0052378Y0031110D01*
X0052378Y0031110D01*
X0052306Y0030606D01*
X0052306Y0030606D01*
X0052378Y0030102D01*
X0052378Y0030102D01*
X0052378Y0030102D01*
X0052378Y0030102D01*
X0052492Y0029853D01*
X0052519Y0029613D01*
X0052413Y0029415D01*
X0052028Y0029030D01*
X0051814Y0028921D01*
X0051753Y0028916D01*
X0050896Y0028916D01*
X0050802Y0028905D01*
X0050419Y0028736D01*
X0050158Y0028475D01*
X0049943Y0028366D01*
X0049705Y0028403D01*
X0049606Y0028475D01*
X0049603Y0028478D01*
X0049494Y0028693D01*
X0049531Y0028930D01*
X0049584Y0029009D01*
X0049778Y0029232D01*
X0049989Y0029695D01*
X0050008Y0029826D01*
X0050062Y0030199D01*
X0050062Y0030199D01*
X0049989Y0030703D01*
X0049989Y0030703D01*
X0049989Y0030703D01*
X0049816Y0031082D01*
X0049789Y0031322D01*
X0049907Y0031531D01*
X0050126Y0031631D01*
X0050171Y0031634D01*
X0050373Y0031634D01*
X0050568Y0031660D01*
X0050568Y0031660D01*
X0050996Y0031859D01*
X0051330Y0032193D01*
X0051529Y0032621D01*
X0051532Y0032642D01*
X0051532Y0032642D01*
X0049055Y0032642D01*
X0048826Y0032716D01*
X0048684Y0032911D01*
X0048665Y0033032D01*
X0048665Y0035579D01*
X0050665Y0035579D01*
X0050665Y0034642D01*
X0050665Y0034642D01*
X0051532Y0034642D01*
X0051532Y0034642D01*
X0051529Y0034663D01*
X0051330Y0035091D01*
X0050996Y0035425D01*
X0050665Y0035579D01*
X0048665Y0035579D01*
X0048335Y0035425D01*
X0048001Y0035091D01*
X0047981Y0035063D01*
X0047975Y0035067D01*
X0047839Y0034921D01*
X0047603Y0034875D01*
X0047385Y0034977D01*
X0047375Y0034986D01*
X0047093Y0035268D01*
X0047093Y0035268D01*
X0047081Y0035280D01*
X0046972Y0035494D01*
X0046967Y0035555D01*
X0046967Y0035673D01*
X0054618Y0035673D01*
X0054772Y0035343D01*
X0055106Y0035009D01*
X0055534Y0034809D01*
X0055534Y0034809D01*
X0055555Y0034807D01*
X0055555Y0034807D01*
X0055555Y0035673D01*
X0055555Y0035673D01*
X0054618Y0035673D01*
X0054618Y0035673D01*
X0046967Y0035673D01*
X0046967Y0037788D01*
X0046975Y0037864D01*
X0046989Y0037933D01*
X0046905Y0038355D01*
X0046757Y0038575D01*
X0046692Y0038792D01*
X0046692Y0039487D01*
X0046692Y0039487D01*
X0046663Y0039630D01*
X0046692Y0039870D01*
X0046722Y0039923D01*
X0046844Y0040106D01*
X0046890Y0040336D01*
X0046890Y0040336D01*
X0046890Y0040414D01*
X0046890Y0040414D01*
X0042756Y0040414D01*
X0042756Y0040414D01*
X0042756Y0040336D01*
X0042802Y0040106D01*
X0042924Y0039923D01*
X0042990Y0039691D01*
X0042982Y0039630D01*
X0042954Y0039487D01*
X0042954Y0037796D01*
X0042988Y0037625D01*
X0042988Y0037625D01*
X0043118Y0037430D01*
X0043118Y0037430D01*
X0043118Y0037430D01*
X0043313Y0037299D01*
X0043481Y0037266D01*
X0043485Y0037265D01*
X0044415Y0037265D01*
X0044644Y0037191D01*
X0044785Y0036996D01*
X0044804Y0036875D01*
X0044804Y0035555D01*
X0044730Y0035326D01*
X0044690Y0035280D01*
X0044679Y0035268D01*
X0044679Y0035268D01*
X0044501Y0035091D01*
X0044377Y0034967D01*
X0044205Y0034577D01*
X0044194Y0034481D01*
X0044194Y0032802D01*
X0044205Y0032707D01*
X0044205Y0032707D01*
X0044205Y0032707D01*
X0044377Y0032317D01*
X0044679Y0032015D01*
X0045004Y0031872D01*
X0045072Y0031825D01*
X0045074Y0031828D01*
X0045165Y0031768D01*
X0045224Y0031719D01*
X0045649Y0031294D01*
X0045758Y0031080D01*
X0045720Y0030842D01*
X0045550Y0030671D01*
X0045373Y0030629D01*
X0043143Y0030629D01*
X0043067Y0030636D01*
X0042998Y0030650D01*
X0042998Y0030650D01*
X0042945Y0030640D01*
X0042706Y0030668D01*
X0042529Y0030831D01*
X0042479Y0031022D01*
X0042479Y0032505D01*
X0042479Y0032505D01*
X0042438Y0032787D01*
X0042225Y0033222D01*
X0041883Y0033564D01*
X0041883Y0033564D01*
X0041883Y0033564D01*
X0041674Y0033666D01*
X0041488Y0033757D01*
X0041315Y0033925D01*
X0041273Y0034162D01*
X0041285Y0034217D01*
X0041286Y0034221D01*
X0041359Y0034725D01*
X0041359Y0034725D01*
X0041286Y0035229D01*
X0041286Y0035229D01*
X0041286Y0035229D01*
X0041075Y0035692D01*
X0040742Y0036077D01*
X0040521Y0036218D01*
X0040369Y0036405D01*
X0040345Y0036597D01*
X0040359Y0036697D01*
X0037913Y0036697D01*
X0037684Y0036771D01*
X0037543Y0036966D01*
X0037524Y0037087D01*
X0037524Y0039662D01*
X0039524Y0039662D01*
X0039524Y0038697D01*
X0039524Y0038697D01*
X0040359Y0038697D01*
X0040349Y0038772D01*
X0040349Y0038772D01*
X0040152Y0039194D01*
X0039823Y0039522D01*
X0039524Y0039662D01*
X0039524Y0039662D01*
X0037524Y0039662D01*
X0037524Y0039662D01*
X0037224Y0039522D01*
X0036895Y0039194D01*
X0036760Y0038904D01*
X0036596Y0038728D01*
X0036359Y0038682D01*
X0036141Y0038783D01*
X0036050Y0038911D01*
X0036038Y0038939D01*
X0035980Y0039070D01*
X0035684Y0039366D01*
X0035300Y0039535D01*
X0035300Y0039535D01*
X0035300Y0039535D01*
X0035207Y0039546D01*
X0035207Y0039546D01*
X0033809Y0039546D01*
X0033809Y0039546D01*
X0033715Y0039535D01*
X0033332Y0039366D01*
X0033036Y0039070D01*
X0032866Y0038686D01*
X0032856Y0038593D01*
X0032856Y0036801D01*
X0032866Y0036708D01*
X0032866Y0036708D01*
X0032866Y0036708D01*
X0033036Y0036324D01*
X0033312Y0036048D01*
X0033422Y0035833D01*
X0033426Y0035772D01*
X0033426Y0034208D01*
X0033352Y0033979D01*
X0033157Y0033837D01*
X0033037Y0033818D01*
X0032968Y0033818D01*
X0032686Y0033777D01*
X0032251Y0033564D01*
X0031908Y0033222D01*
X0031703Y0032802D01*
X0031696Y0032787D01*
X0031655Y0032505D01*
X0031655Y0030212D01*
X0031696Y0029930D01*
X0031747Y0029826D01*
X0031908Y0029495D01*
X0031908Y0029495D01*
X0031908Y0029495D01*
X0032251Y0029153D01*
X0032251Y0029153D01*
X0032251Y0029153D01*
X0032386Y0029086D01*
X0032559Y0028919D01*
X0032601Y0028682D01*
X0032495Y0028465D01*
X0032380Y0028383D01*
X0032114Y0028259D01*
X0031780Y0027925D01*
X0031581Y0027498D01*
X0031578Y0027477D01*
X0031578Y0027477D01*
X0034055Y0027477D01*
X0034284Y0027402D01*
X0034426Y0027207D01*
X0034445Y0027087D01*
X0034445Y0024540D01*
X0034445Y0024540D01*
X0034776Y0024694D01*
X0035110Y0025028D01*
X0035129Y0025056D01*
X0035135Y0025052D01*
X0035271Y0025197D01*
X0035507Y0025243D01*
X0035726Y0025142D01*
X0035735Y0025132D01*
X0036018Y0024850D01*
X0036408Y0024678D01*
X0036503Y0024667D01*
X0037483Y0024667D01*
X0037712Y0024592D01*
X0037778Y0024532D01*
X0037893Y0024399D01*
X0038253Y0024168D01*
X0038406Y0023981D01*
X0038419Y0023741D01*
X0038289Y0023538D01*
X0038065Y0023451D01*
X0038042Y0023450D01*
X0034079Y0023450D01*
X0034079Y0023450D01*
X0033980Y0023439D01*
X0033980Y0023439D01*
X0033576Y0023261D01*
X0033264Y0022949D01*
X0033074Y0022518D01*
X0033069Y0022521D01*
X0032955Y0022348D01*
X0032730Y0022262D01*
X0032530Y0022306D01*
X0032088Y0022539D01*
X0031437Y0022699D01*
X0031437Y0022699D01*
X0030768Y0022699D01*
X0030768Y0022699D01*
X0030209Y0022561D01*
X0029969Y0022579D01*
X0029785Y0022734D01*
X0029726Y0022940D01*
X0029726Y0025477D01*
X0031578Y0025477D01*
X0031581Y0025455D01*
X0031780Y0025028D01*
X0032114Y0024694D01*
X0032445Y0024540D01*
X0032445Y0024540D01*
X0032445Y0025477D01*
X0032445Y0025477D01*
X0031578Y0025477D01*
X0031578Y0025477D01*
X0029726Y0025477D01*
X0029726Y0040950D01*
X0048138Y0040950D01*
X0048210Y0040446D01*
X0048210Y0040446D01*
X0048210Y0040446D01*
X0048210Y0040446D01*
X0048421Y0039983D01*
X0048755Y0039598D01*
X0049183Y0039323D01*
X0049672Y0039179D01*
X0049672Y0039179D01*
X0050045Y0039179D01*
X0050274Y0039105D01*
X0050415Y0038910D01*
X0050434Y0038790D01*
X0050434Y0037796D01*
X0050468Y0037625D01*
X0050468Y0037625D01*
X0050599Y0037430D01*
X0050599Y0037430D01*
X0050599Y0037430D01*
X0050794Y0037299D01*
X0050961Y0037266D01*
X0050966Y0037265D01*
X0050966Y0037265D01*
X0053641Y0037265D01*
X0053641Y0037265D01*
X0053813Y0037299D01*
X0054008Y0037430D01*
X0054008Y0037430D01*
X0054024Y0037446D01*
X0054239Y0037556D01*
X0054300Y0037560D01*
X0054460Y0037560D01*
X0054536Y0037553D01*
X0054549Y0037550D01*
X0054605Y0037539D01*
X0055027Y0037623D01*
X0055027Y0037623D01*
X0055062Y0037638D01*
X0055067Y0037627D01*
X0055220Y0037673D01*
X0058548Y0037673D01*
X0058777Y0037599D01*
X0058904Y0037441D01*
X0058943Y0037353D01*
X0059255Y0037041D01*
X0059255Y0037041D01*
X0059255Y0037041D01*
X0059592Y0036892D01*
X0059658Y0036863D01*
X0059757Y0036852D01*
X0066605Y0036852D01*
X0066704Y0036863D01*
X0067108Y0037041D01*
X0067420Y0037353D01*
X0067598Y0037757D01*
X0067609Y0037855D01*
X0067609Y0039389D01*
X0067598Y0039488D01*
X0067598Y0039488D01*
X0067598Y0039488D01*
X0067420Y0039891D01*
X0067420Y0039891D01*
X0067420Y0039891D01*
X0067108Y0040203D01*
X0067108Y0040203D01*
X0067108Y0040203D01*
X0066704Y0040381D01*
X0066605Y0040393D01*
X0066605Y0040393D01*
X0060432Y0040393D01*
X0060203Y0040467D01*
X0060157Y0040507D01*
X0059548Y0041115D01*
X0059500Y0041174D01*
X0059452Y0041245D01*
X0059387Y0041477D01*
X0059470Y0041703D01*
X0059671Y0041837D01*
X0059776Y0041852D01*
X0066605Y0041852D01*
X0066704Y0041863D01*
X0067108Y0042041D01*
X0067420Y0042353D01*
X0067463Y0042452D01*
X0067478Y0042486D01*
X0067639Y0042665D01*
X0067835Y0042718D01*
X0070826Y0042718D01*
X0071055Y0042643D01*
X0071121Y0042583D01*
X0071270Y0042412D01*
X0071698Y0042137D01*
X0072186Y0041993D01*
X0072186Y0041993D01*
X0072696Y0041993D01*
X0072696Y0041993D01*
X0073184Y0042137D01*
X0073388Y0042267D01*
X0073621Y0042329D01*
X0073845Y0042241D01*
X0073893Y0042195D01*
X0074221Y0041817D01*
X0074649Y0041542D01*
X0075137Y0041398D01*
X0075137Y0041398D01*
X0075646Y0041398D01*
X0075646Y0041398D01*
X0076135Y0041542D01*
X0076563Y0041817D01*
X0076897Y0042202D01*
X0077108Y0042665D01*
X0077108Y0042665D01*
X0077181Y0043169D01*
X0077181Y0043169D01*
X0077108Y0043673D01*
X0077108Y0043673D01*
X0077108Y0043673D01*
X0076897Y0044136D01*
X0076563Y0044521D01*
X0076434Y0044604D01*
X0076135Y0044796D01*
X0075646Y0044939D01*
X0075646Y0044939D01*
X0075137Y0044939D01*
X0075137Y0044939D01*
X0074649Y0044796D01*
X0074445Y0044665D01*
X0074212Y0044604D01*
X0073988Y0044691D01*
X0073940Y0044737D01*
X0073905Y0044777D01*
X0073612Y0045115D01*
X0073184Y0045391D01*
X0073157Y0045398D01*
X0072696Y0045534D01*
X0072696Y0045534D01*
X0072186Y0045534D01*
X0072186Y0045534D01*
X0071698Y0045391D01*
X0071698Y0045391D01*
X0071270Y0045115D01*
X0071270Y0045115D01*
X0071270Y0045115D01*
X0071183Y0045015D01*
X0070977Y0044891D01*
X0070888Y0044881D01*
X0067591Y0044881D01*
X0067362Y0044955D01*
X0067316Y0044995D01*
X0067108Y0045203D01*
X0067108Y0045203D01*
X0066704Y0045381D01*
X0066605Y0045393D01*
X0059757Y0045393D01*
X0059757Y0045393D01*
X0059658Y0045381D01*
X0059658Y0045381D01*
X0059255Y0045203D01*
X0059255Y0045203D01*
X0059255Y0045203D01*
X0059007Y0044956D01*
X0058793Y0044846D01*
X0058732Y0044841D01*
X0054300Y0044841D01*
X0054071Y0044916D01*
X0054024Y0044956D01*
X0054008Y0044972D01*
X0054008Y0044972D01*
X0053943Y0045015D01*
X0053813Y0045103D01*
X0053641Y0045137D01*
X0053641Y0045137D01*
X0050966Y0045137D01*
X0050966Y0045137D01*
X0050794Y0045103D01*
X0050794Y0045103D01*
X0050599Y0044972D01*
X0050599Y0044972D01*
X0050468Y0044777D01*
X0050468Y0044777D01*
X0050434Y0044605D01*
X0050434Y0043110D01*
X0050360Y0042881D01*
X0050165Y0042739D01*
X0050045Y0042720D01*
X0049672Y0042720D01*
X0049183Y0042577D01*
X0049183Y0042577D01*
X0048755Y0042302D01*
X0048755Y0042302D01*
X0048755Y0042302D01*
X0048482Y0041986D01*
X0048421Y0041917D01*
X0048210Y0041454D01*
X0048210Y0041454D01*
X0048138Y0040950D01*
X0048138Y0040950D01*
X0029726Y0040950D01*
X0029726Y0044036D01*
X0037759Y0044036D01*
X0037831Y0043532D01*
X0037831Y0043532D01*
X0037831Y0043532D01*
X0037831Y0043532D01*
X0038043Y0043069D01*
X0038376Y0042684D01*
X0038804Y0042409D01*
X0039293Y0042265D01*
X0039293Y0042265D01*
X0039802Y0042265D01*
X0039802Y0042265D01*
X0040290Y0042409D01*
X0040719Y0042684D01*
X0040878Y0042868D01*
X0041085Y0042993D01*
X0041325Y0042972D01*
X0041507Y0042814D01*
X0041516Y0042797D01*
X0041521Y0042789D01*
X0041521Y0042789D01*
X0041521Y0042789D01*
X0041855Y0042404D01*
X0042283Y0042129D01*
X0042659Y0042018D01*
X0042709Y0041988D01*
X0042721Y0041988D01*
X0042766Y0041985D01*
X0042771Y0041985D01*
X0043286Y0041985D01*
X0043331Y0041988D01*
X0046890Y0041988D01*
X0046890Y0041988D01*
X0046890Y0042066D01*
X0046890Y0042066D01*
X0046844Y0042296D01*
X0046722Y0042479D01*
X0046656Y0042711D01*
X0046663Y0042772D01*
X0046692Y0042915D01*
X0046692Y0044605D01*
X0046658Y0044777D01*
X0046658Y0044777D01*
X0046527Y0044972D01*
X0046527Y0044972D01*
X0046520Y0044977D01*
X0046332Y0045103D01*
X0046160Y0045137D01*
X0046160Y0045137D01*
X0044266Y0045137D01*
X0044055Y0045199D01*
X0043769Y0045383D01*
X0043735Y0045393D01*
X0043280Y0045526D01*
X0043280Y0045526D01*
X0042771Y0045526D01*
X0042771Y0045526D01*
X0042283Y0045383D01*
X0042283Y0045383D01*
X0041855Y0045107D01*
X0041855Y0045107D01*
X0041855Y0045107D01*
X0041850Y0045103D01*
X0041695Y0044923D01*
X0041489Y0044799D01*
X0041249Y0044819D01*
X0041066Y0044977D01*
X0041057Y0044994D01*
X0041052Y0045003D01*
X0041052Y0045003D01*
X0041052Y0045003D01*
X0040719Y0045387D01*
X0040713Y0045391D01*
X0040290Y0045663D01*
X0039802Y0045806D01*
X0039802Y0045806D01*
X0039293Y0045806D01*
X0039293Y0045806D01*
X0038804Y0045663D01*
X0038804Y0045663D01*
X0038376Y0045387D01*
X0038376Y0045387D01*
X0038376Y0045387D01*
X0038140Y0045115D01*
X0038043Y0045003D01*
X0037831Y0044540D01*
X0037831Y0044540D01*
X0037759Y0044036D01*
X0037759Y0044036D01*
X0029726Y0044036D01*
X0029726Y0046658D01*
X0029801Y0046887D01*
X0029996Y0047028D01*
X0030116Y0047047D01*
X0086147Y0047047D01*
X0086377Y0046973D01*
G37*
X0041339Y0052520D02*
G01*
G75*
G36*
X0076559Y0064922D02*
X0075927Y0064796D01*
X0075432Y0064465D01*
X0074913Y0064192D01*
X0074646Y0064371D01*
X0074331Y0064433D01*
X0069056Y0064433D01*
X0068741Y0064371D01*
X0068474Y0064192D01*
X0067853Y0064326D01*
X0067690Y0064434D01*
X0066999Y0064572D01*
X0066308Y0064434D01*
X0066197Y0064360D01*
X0066182Y0064371D01*
X0065867Y0064433D01*
X0060591Y0064433D01*
X0060276Y0064371D01*
X0060009Y0064192D01*
X0059964Y0064125D01*
X0059946Y0064118D01*
X0059326Y0064118D01*
X0059308Y0064125D01*
X0059263Y0064192D01*
X0058997Y0064371D01*
X0058682Y0064433D01*
X0053406Y0064433D01*
X0053091Y0064371D01*
X0052824Y0064192D01*
X0052646Y0063925D01*
X0052583Y0063610D01*
X0052583Y0061878D01*
X0052646Y0061563D01*
X0052824Y0061296D01*
X0053091Y0061118D01*
X0053406Y0061055D01*
X0055551Y0061055D01*
X0055926Y0060599D01*
X0055906Y0060498D01*
X0056043Y0059807D01*
X0056435Y0059221D01*
X0057021Y0058829D01*
X0057712Y0058692D01*
X0058403Y0058829D01*
X0058776Y0059078D01*
X0059367Y0058804D01*
X0059367Y0058138D01*
X0059460Y0057669D01*
X0059704Y0057304D01*
X0059610Y0057064D01*
X0059569Y0056989D01*
X0059105Y0056818D01*
X0058997Y0056890D01*
X0058682Y0056953D01*
X0053406Y0056953D01*
X0053117Y0056896D01*
X0052896Y0057043D01*
X0052205Y0057181D01*
X0051659Y0057072D01*
X0051318Y0057449D01*
X0051269Y0057551D01*
X0051348Y0057669D01*
X0051441Y0058138D01*
X0051441Y0058217D01*
X0047579Y0058217D01*
X0047579Y0059791D01*
X0051441Y0059791D01*
X0051441Y0059870D01*
X0051348Y0060339D01*
X0051083Y0060736D01*
X0051053Y0060756D01*
X0051005Y0060858D01*
X0050940Y0061507D01*
X0050977Y0061563D01*
X0051040Y0061878D01*
X0051040Y0063610D01*
X0050977Y0063925D01*
X0050799Y0064192D01*
X0050532Y0064371D01*
X0050217Y0064433D01*
X0044941Y0064433D01*
X0044627Y0064371D01*
X0044081Y0064317D01*
X0043365Y0064796D01*
X0042733Y0064922D01*
X0042792Y0065512D01*
X0076501Y0065512D01*
X0076559Y0064922D01*
D02*
G37*
G36*
X0075442Y0061041D02*
X0075927Y0060716D01*
X0076772Y0060548D01*
X0076772Y0057484D01*
X0075927Y0057316D01*
X0075438Y0056989D01*
X0074913Y0056712D01*
X0074646Y0056890D01*
X0074331Y0056953D01*
X0069056Y0056953D01*
X0068741Y0056890D01*
X0068474Y0056712D01*
X0068295Y0056445D01*
X0068260Y0056268D01*
X0067083Y0056268D01*
X0066735Y0056703D01*
X0066732Y0057272D01*
X0066998Y0057669D01*
X0067091Y0058138D01*
X0067091Y0058217D01*
X0063229Y0058217D01*
X0063229Y0059791D01*
X0067091Y0059791D01*
X0067091Y0059870D01*
X0066998Y0060339D01*
X0066960Y0060395D01*
X0066963Y0060442D01*
X0067259Y0061011D01*
X0067690Y0061097D01*
X0067833Y0061192D01*
X0068474Y0061296D01*
X0068741Y0061118D01*
X0069056Y0061055D01*
X0074331Y0061055D01*
X0074646Y0061118D01*
X0074913Y0061296D01*
X0075442Y0061041D01*
D02*
G37*
G36*
X0042387Y0056825D02*
X0042290Y0056338D01*
X0042428Y0055647D01*
X0042819Y0055061D01*
X0043405Y0054669D01*
X0044096Y0054532D01*
X0044118Y0054514D01*
X0044118Y0054398D01*
X0044181Y0054083D01*
X0044360Y0053816D01*
X0044626Y0053638D01*
X0044941Y0053575D01*
X0050217Y0053575D01*
X0050532Y0053638D01*
X0050799Y0053816D01*
X0051222Y0053900D01*
X0051514Y0053705D01*
X0052205Y0053568D01*
X0052896Y0053705D01*
X0052943Y0053736D01*
X0053091Y0053638D01*
X0053406Y0053575D01*
X0058682Y0053575D01*
X0058997Y0053638D01*
X0059263Y0053816D01*
X0059308Y0053883D01*
X0059326Y0053890D01*
X0059946Y0053890D01*
X0059964Y0053883D01*
X0060009Y0053816D01*
X0060276Y0053638D01*
X0060591Y0053575D01*
X0065867Y0053575D01*
X0066182Y0053638D01*
X0066448Y0053816D01*
X0066627Y0054083D01*
X0066662Y0054260D01*
X0068260Y0054260D01*
X0068295Y0054083D01*
X0068474Y0053816D01*
X0068741Y0053638D01*
X0069056Y0053575D01*
X0074331Y0053575D01*
X0074646Y0053638D01*
X0074913Y0053816D01*
X0075449Y0053556D01*
X0075927Y0053236D01*
X0076559Y0053111D01*
X0076501Y0052520D01*
X0041339Y0052520D01*
X0041339Y0056742D01*
X0041832Y0057059D01*
X0042387Y0056825D01*
D02*
G37*
D18*
X0052205Y0055374D02*
X0052260Y0055319D01*
X0055894Y0055319D01*
X0055950Y0055264D01*
X0065579Y0062610D02*
X0065579Y0062645D01*
X0066988Y0062755D02*
X0066999Y0062766D01*
X0065579Y0062645D02*
X0065689Y0062755D01*
X0066988Y0062755D01*
X0044096Y0056338D02*
X0044523Y0056338D01*
X0044908Y0055953D01*
X0046796Y0055953D01*
X0047485Y0055264D01*
X0063229Y0055264D02*
X0069922Y0055264D01*
X0072078Y0055649D02*
X0075932Y0055649D01*
X0071693Y0055264D02*
X0072078Y0055649D01*
X0075932Y0055649D02*
X0076346Y0056063D01*
X0076772Y0056063D01*
X0047174Y0063150D02*
X0047579Y0062744D01*
X0042520Y0063150D02*
X0047174Y0063150D01*
D26*
X0056044Y0062744D02*
D03*
X0056044Y0055264D02*
D03*
X0047579Y0055264D02*
D03*
X0047579Y0059004D02*
D03*
X0071693Y0062744D02*
D03*
X0071693Y0055264D02*
D03*
X0063229Y0055264D02*
D03*
X0063229Y0059004D02*
D03*
D26*
X0047579Y0062744D02*
D03*
X0063229Y0062744D02*
D03*
D12*
X0059646Y0065118D02*
D03*
X0059646Y0052914D02*
D03*
D11*
X0041733Y0054981D02*
D03*
D23*
X0059240Y0058140D02*
X0059513Y0058414D01*
X0062638Y0058414D01*
X0063229Y0059004D01*
X0055509Y0058140D02*
X0059240Y0058140D01*
X0055281Y0058367D02*
X0055509Y0058140D01*
X0047917Y0058560D02*
X0048570Y0059213D01*
X0047544Y0058560D02*
X0047917Y0058560D01*
D27*
X0057671Y0060539D02*
X0057671Y0062436D01*
X0057671Y0060539D02*
X0057712Y0060498D01*
D28*
X0071699Y0062750D02*
X0076766Y0062750D01*
X0076772Y0062756D01*
X0071693Y0062744D02*
X0071699Y0062750D01*
D10*
X0076772Y0062756D02*
D03*
X0076772Y0059016D02*
D03*
X0076772Y0055276D02*
D03*
X0042520Y0059213D02*
D03*
X0042520Y0062756D02*
D03*
X0052205Y0055374D02*
D03*
X0066999Y0062766D02*
D03*
X0057712Y0060498D02*
D03*
X0044096Y0056338D02*
D03*
X0042579Y0053805D02*
D03*
X0055281Y0058367D02*
D03*
X0052542Y0059423D02*
D03*
M02*
