M48
INCH,TZ
T01C0.011800
%
T01
X394Y7677
X591Y591
X12992Y7480
X12992Y591
X3110Y1994
X3110Y1600
X4252Y6276
X4252Y5921
X7677Y6276
X7677Y5902
X7677Y5528
X8789Y4537
X8789Y4065
X8789Y3593
X8789Y3120
X3101Y2746
X3128Y4392
X3150Y3563
X3872Y1039
X3881Y1796
X3907Y2575
X3955Y4404
X3957Y3472
X4129Y2770
X4303Y4376
X4390Y1167
X4420Y2482
X4695Y1033
X4751Y4567
X4828Y3020
X4839Y1774
X4993Y4095
X5116Y3084
X5410Y3061
X5652Y3462
X5784Y2656
X5837Y2982
X5847Y2264
X5867Y1181
X5917Y1553
X5957Y1903
X6178Y2561
X6487Y1033
X6556Y2608
X6870Y3032
X6989Y2746
X7087Y2242
X7109Y3705
X7152Y1193
X7175Y3002
X7244Y4376
X7540Y4317
X7723Y3047
X7735Y4546
X8062Y1673
X8538Y1665
X8780Y1496
X8790Y1909
X8806Y1014
X3111Y1994
X3111Y1600
X8790Y4537
X8790Y4065
X8790Y3593
X8790Y3120
X4258Y5381
X4410Y5634
X4252Y5921
X4252Y6276
X5254Y5942
X5528Y5837
X5771Y6050
X5221Y5537
X6700Y6277
X7677Y6276
X7677Y5902
X7677Y5528
M30
