G75*
G70*
%OFA0B0*%
%FSLAX25Y25*%
%IPPOS*%
%LPD*%
%AMOC8*
5,1,8,0,0,1.08239X$1,22.5*
%
%AMM3*
21,1,0.023620,0.018900,0.000000,0.000000,180.000000*
21,1,0.018900,0.023620,0.000000,0.000000,180.000000*
1,1,0.004720,-0.009450,0.009450*
1,1,0.004720,0.009450,0.009450*
1,1,0.004720,0.009450,-0.009450*
1,1,0.004720,-0.009450,-0.009450*
%
%AMM4*
21,1,0.019680,0.019680,0.000000,0.000000,270.000000*
21,1,0.015750,0.023620,0.000000,0.000000,270.000000*
1,1,0.003940,-0.009840,-0.007870*
1,1,0.003940,-0.009840,0.007870*
1,1,0.003940,0.009840,0.007870*
1,1,0.003940,0.009840,-0.007870*
%
%AMM5*
21,1,0.033470,0.026770,0.000000,0.000000,270.000000*
21,1,0.026770,0.033470,0.000000,0.000000,270.000000*
1,1,0.006690,-0.013390,-0.013390*
1,1,0.006690,-0.013390,0.013390*
1,1,0.006690,0.013390,0.013390*
1,1,0.006690,0.013390,-0.013390*
%
%AMM6*
21,1,0.019680,0.019680,0.000000,0.000000,0.000000*
21,1,0.015750,0.023620,0.000000,0.000000,0.000000*
1,1,0.003940,0.007870,-0.009840*
1,1,0.003940,-0.007870,-0.009840*
1,1,0.003940,-0.007870,0.009840*
1,1,0.003940,0.007870,0.009840*
%
%ADD10C,0.02362*%
%ADD11O,0.00787X0.04823*%
%ADD12O,0.36614X0.00787*%
%ADD13R,0.00984X0.24350*%
%ADD14R,0.00984X0.04390*%
%ADD15R,0.56201X0.00984*%
%ADD16R,0.59449X0.00984*%
%ADD17R,0.00984X0.20374*%
%ADD18C,0.00787*%
%ADD23C,0.00984*%
%ADD28C,0.01575*%
%ADD31M3*%
%ADD32M4*%
%ADD33M5*%
%ADD34M6*%
X0000000Y0000000D02*
%LPD*%
G01*
D10*
X0076772Y0062756D03*
D11*
X0041732Y0054980D03*
D12*
X0059646Y0065118D03*
X0059646Y0052913D03*
D10*
X0076772Y0059016D03*
X0076772Y0055276D03*
X0042520Y0059213D03*
X0042520Y0062756D03*
X0087894Y0035925D03*
X0087894Y0031201D03*
X0087894Y0040650D03*
X0087894Y0045374D03*
D13*
X0030217Y0034872D03*
D14*
X0030217Y0011053D03*
D15*
X0057825Y0046555D03*
D16*
X0059449Y0009350D03*
D17*
X0088681Y0019045D03*
D10*
X0031102Y0019941D03*
X0031102Y0016004D03*
D10*
X0003937Y0076772D03*
X0000000Y0080709D03*
X0005906Y0005906D03*
X0129921Y0005906D03*
X0129921Y0074803D03*
X0029626Y0008760D02*
%LPD*%
G01*
D10*
X0087894Y0035925D03*
X0087894Y0031201D03*
X0087894Y0040650D03*
X0087894Y0045374D03*
D13*
X0030217Y0034872D03*
D14*
X0030217Y0011053D03*
D15*
X0057825Y0046555D03*
D16*
X0059449Y0009351D03*
D17*
X0088681Y0019045D03*
D10*
X0031102Y0019941D03*
X0031102Y0016004D03*
G36*
G01*
X0046555Y0039354D02*
X0046555Y0038173D01*
G75*
G02*
X0045965Y0037582I-000591J0000000D01*
G01*
X0041929Y0037582D01*
G75*
G02*
X0041339Y0038173I0000000J0000591D01*
G01*
X0041339Y0039354D01*
G75*
G02*
X0041929Y0039944I0000591J0000000D01*
G01*
X0045965Y0039944D01*
G75*
G02*
X0046555Y0039354I0000000J-000591D01*
G01*
G37*
G36*
G01*
X0046555Y0035613D02*
X0046555Y0034432D01*
G75*
G02*
X0045965Y0033842I-000591J0000000D01*
G01*
X0041929Y0033842D01*
G75*
G02*
X0041339Y0034432I0000000J0000591D01*
G01*
X0041339Y0035613D01*
G75*
G02*
X0041929Y0036204I0000591J0000000D01*
G01*
X0045965Y0036204D01*
G75*
G02*
X0046555Y0035613I0000000J-000591D01*
G01*
G37*
G36*
G01*
X0046555Y0031873D02*
X0046555Y0030692D01*
G75*
G02*
X0045965Y0030102I-000591J0000000D01*
G01*
X0041929Y0030102D01*
G75*
G02*
X0041339Y0030692I0000000J0000591D01*
G01*
X0041339Y0031873D01*
G75*
G02*
X0041929Y0032464I0000591J0000000D01*
G01*
X0045965Y0032464D01*
G75*
G02*
X0046555Y0031873I0000000J-000591D01*
G01*
G37*
G36*
G01*
X0037598Y0031873D02*
X0037598Y0030692D01*
G75*
G02*
X0037008Y0030102I-000591J0000000D01*
G01*
X0032972Y0030102D01*
G75*
G02*
X0032382Y0030692I0000000J0000591D01*
G01*
X0032382Y0031873D01*
G75*
G02*
X0032972Y0032464I0000591J0000000D01*
G01*
X0037008Y0032464D01*
G75*
G02*
X0037598Y0031873I0000000J-000591D01*
G01*
G37*
G36*
G01*
X0037598Y0039354D02*
X0037598Y0038173D01*
G75*
G02*
X0037008Y0037582I-000591J0000000D01*
G01*
X0032972Y0037582D01*
G75*
G02*
X0032382Y0038173I0000000J0000591D01*
G01*
X0032382Y0039354D01*
G75*
G02*
X0032972Y0039944I0000591J0000000D01*
G01*
X0037008Y0039944D01*
G75*
G02*
X0037598Y0039354I0000000J-000591D01*
G01*
G37*
G36*
G01*
X0046280Y0017067D02*
X0047618Y0017067D01*
G75*
G02*
X0048169Y0016516I0000000J-000551D01*
G01*
X0048169Y0015414D01*
G75*
G02*
X0047618Y0014862I-000551J0000000D01*
G01*
X0046280Y0014862D01*
G75*
G02*
X0045728Y0015414I0000000J0000551D01*
G01*
X0045728Y0016516D01*
G75*
G02*
X0046280Y0017067I0000551J0000000D01*
G01*
G37*
G36*
G01*
X0046280Y0013288D02*
X0047618Y0013288D01*
G75*
G02*
X0048169Y0012736I0000000J-000551D01*
G01*
X0048169Y0011634D01*
G75*
G02*
X0047618Y0011083I-000551J0000000D01*
G01*
X0046280Y0011083D01*
G75*
G02*
X0045728Y0011634I0000000J0000551D01*
G01*
X0045728Y0012736D01*
G75*
G02*
X0046280Y0013288I0000551J0000000D01*
G01*
G37*
G36*
G01*
X0072795Y0039784D02*
X0072795Y0041122D01*
G75*
G02*
X0073346Y0041673I0000551J0000000D01*
G01*
X0074449Y0041673D01*
G75*
G02*
X0075000Y0041122I0000000J-000551D01*
G01*
X0075000Y0039784D01*
G75*
G02*
X0074449Y0039232I-000551J0000000D01*
G01*
X0073346Y0039232D01*
G75*
G02*
X0072795Y0039784I0000000J0000551D01*
G01*
G37*
G36*
G01*
X0076575Y0039784D02*
X0076575Y0041122D01*
G75*
G02*
X0077126Y0041673I0000551J0000000D01*
G01*
X0078228Y0041673D01*
G75*
G02*
X0078780Y0041122I0000000J-000551D01*
G01*
X0078780Y0039784D01*
G75*
G02*
X0078228Y0039232I-000551J0000000D01*
G01*
X0077126Y0039232D01*
G75*
G02*
X0076575Y0039784I0000000J0000551D01*
G01*
G37*
G36*
G01*
X0086142Y0044784D02*
X0086142Y0043445D01*
G75*
G02*
X0085591Y0042894I-000551J0000000D01*
G01*
X0084488Y0042894D01*
G75*
G02*
X0083937Y0043445I0000000J0000551D01*
G01*
X0083937Y0044784D01*
G75*
G02*
X0084488Y0045335I0000551J0000000D01*
G01*
X0085591Y0045335D01*
G75*
G02*
X0086142Y0044784I0000000J-000551D01*
G01*
G37*
G36*
G01*
X0082362Y0044784D02*
X0082362Y0043445D01*
G75*
G02*
X0081811Y0042894I-000551J0000000D01*
G01*
X0080709Y0042894D01*
G75*
G02*
X0080157Y0043445I0000000J0000551D01*
G01*
X0080157Y0044784D01*
G75*
G02*
X0080709Y0045335I0000551J0000000D01*
G01*
X0081811Y0045335D01*
G75*
G02*
X0082362Y0044784I0000000J-000551D01*
G01*
G37*
G36*
G01*
X0064390Y0036043D02*
X0064390Y0037382D01*
G75*
G02*
X0064941Y0037933I0000551J0000000D01*
G01*
X0066043Y0037933D01*
G75*
G02*
X0066595Y0037382I0000000J-000551D01*
G01*
X0066595Y0036043D01*
G75*
G02*
X0066043Y0035492I-000551J0000000D01*
G01*
X0064941Y0035492D01*
G75*
G02*
X0064390Y0036043I0000000J0000551D01*
G01*
G37*
G36*
G01*
X0068169Y0036043D02*
X0068169Y0037382D01*
G75*
G02*
X0068720Y0037933I0000551J0000000D01*
G01*
X0069823Y0037933D01*
G75*
G02*
X0070374Y0037382I0000000J-000551D01*
G01*
X0070374Y0036043D01*
G75*
G02*
X0069823Y0035492I-000551J0000000D01*
G01*
X0068720Y0035492D01*
G75*
G02*
X0068169Y0036043I0000000J0000551D01*
G01*
G37*
G36*
G01*
X0085945Y0041122D02*
X0085945Y0039784D01*
G75*
G02*
X0085394Y0039232I-000551J0000000D01*
G01*
X0084291Y0039232D01*
G75*
G02*
X0083740Y0039784I0000000J0000551D01*
G01*
X0083740Y0041122D01*
G75*
G02*
X0084291Y0041673I0000551J0000000D01*
G01*
X0085394Y0041673D01*
G75*
G02*
X0085945Y0041122I0000000J-000551D01*
G01*
G37*
G36*
G01*
X0082165Y0041122D02*
X0082165Y0039784D01*
G75*
G02*
X0081614Y0039232I-000551J0000000D01*
G01*
X0080512Y0039232D01*
G75*
G02*
X0079961Y0039784I0000000J0000551D01*
G01*
X0079961Y0041122D01*
G75*
G02*
X0080512Y0041673I0000551J0000000D01*
G01*
X0081614Y0041673D01*
G75*
G02*
X0082165Y0041122I0000000J-000551D01*
G01*
G37*
G36*
G01*
X0080669Y0019606D02*
X0080669Y0020945D01*
G75*
G02*
X0081220Y0021496I0000551J0000000D01*
G01*
X0082323Y0021496D01*
G75*
G02*
X0082874Y0020945I0000000J-000551D01*
G01*
X0082874Y0019606D01*
G75*
G02*
X0082323Y0019055I-000551J0000000D01*
G01*
X0081220Y0019055D01*
G75*
G02*
X0080669Y0019606I0000000J0000551D01*
G01*
G37*
G36*
G01*
X0084449Y0019606D02*
X0084449Y0020945D01*
G75*
G02*
X0085000Y0021496I0000551J0000000D01*
G01*
X0086102Y0021496D01*
G75*
G02*
X0086654Y0020945I0000000J-000551D01*
G01*
X0086654Y0019606D01*
G75*
G02*
X0086102Y0019055I-000551J0000000D01*
G01*
X0085000Y0019055D01*
G75*
G02*
X0084449Y0019606I0000000J0000551D01*
G01*
G37*
G36*
G01*
X0050160Y0012106D02*
X0050160Y0012894D01*
G75*
G02*
X0050554Y0013288I0000394J0000000D01*
G01*
X0055574Y0013288D01*
G75*
G02*
X0055967Y0012894I0000000J-000394D01*
G01*
X0055967Y0012106D01*
G75*
G02*
X0055574Y0011713I-000394J0000000D01*
G01*
X0050554Y0011713D01*
G75*
G02*
X0050160Y0012106I0000000J0000394D01*
G01*
G37*
G36*
G01*
X0050160Y0014666D02*
X0050160Y0015453D01*
G75*
G02*
X0050554Y0015847I0000394J0000000D01*
G01*
X0055574Y0015847D01*
G75*
G02*
X0055967Y0015453I0000000J-000394D01*
G01*
X0055967Y0014666D01*
G75*
G02*
X0055574Y0014272I-000394J0000000D01*
G01*
X0050554Y0014272D01*
G75*
G02*
X0050160Y0014666I0000000J0000394D01*
G01*
G37*
G36*
G01*
X0050160Y0017225D02*
X0050160Y0018012D01*
G75*
G02*
X0050554Y0018406I0000394J0000000D01*
G01*
X0055574Y0018406D01*
G75*
G02*
X0055967Y0018012I0000000J-000394D01*
G01*
X0055967Y0017225D01*
G75*
G02*
X0055574Y0016831I-000394J0000000D01*
G01*
X0050554Y0016831D01*
G75*
G02*
X0050160Y0017225I0000000J0000394D01*
G01*
G37*
G36*
G01*
X0050160Y0019784D02*
X0050160Y0020571D01*
G75*
G02*
X0050554Y0020965I0000394J0000000D01*
G01*
X0055574Y0020965D01*
G75*
G02*
X0055967Y0020571I0000000J-000394D01*
G01*
X0055967Y0019784D01*
G75*
G02*
X0055574Y0019390I-000394J0000000D01*
G01*
X0050554Y0019390D01*
G75*
G02*
X0050160Y0019784I0000000J0000394D01*
G01*
G37*
G36*
G01*
X0050160Y0022343D02*
X0050160Y0023130D01*
G75*
G02*
X0050554Y0023524I0000394J0000000D01*
G01*
X0055574Y0023524D01*
G75*
G02*
X0055967Y0023130I0000000J-000394D01*
G01*
X0055967Y0022343D01*
G75*
G02*
X0055574Y0021949I-000394J0000000D01*
G01*
X0050554Y0021949D01*
G75*
G02*
X0050160Y0022343I0000000J0000394D01*
G01*
G37*
G36*
G01*
X0050160Y0024902D02*
X0050160Y0025689D01*
G75*
G02*
X0050554Y0026083I0000394J0000000D01*
G01*
X0055574Y0026083D01*
G75*
G02*
X0055967Y0025689I0000000J-000394D01*
G01*
X0055967Y0024902D01*
G75*
G02*
X0055574Y0024508I-000394J0000000D01*
G01*
X0050554Y0024508D01*
G75*
G02*
X0050160Y0024902I0000000J0000394D01*
G01*
G37*
G36*
G01*
X0050160Y0027461D02*
X0050160Y0028248D01*
G75*
G02*
X0050554Y0028642I0000394J0000000D01*
G01*
X0055574Y0028642D01*
G75*
G02*
X0055967Y0028248I0000000J-000394D01*
G01*
X0055967Y0027461D01*
G75*
G02*
X0055574Y0027067I-000394J0000000D01*
G01*
X0050554Y0027067D01*
G75*
G02*
X0050160Y0027461I0000000J0000394D01*
G01*
G37*
G36*
G01*
X0072700Y0027461D02*
X0072700Y0028248D01*
G75*
G02*
X0073093Y0028642I0000394J0000000D01*
G01*
X0078113Y0028642D01*
G75*
G02*
X0078507Y0028248I0000000J-000394D01*
G01*
X0078507Y0027461D01*
G75*
G02*
X0078113Y0027067I-000394J0000000D01*
G01*
X0073093Y0027067D01*
G75*
G02*
X0072700Y0027461I0000000J0000394D01*
G01*
G37*
G36*
G01*
X0072700Y0024902D02*
X0072700Y0025689D01*
G75*
G02*
X0073093Y0026083I0000394J0000000D01*
G01*
X0078113Y0026083D01*
G75*
G02*
X0078507Y0025689I0000000J-000394D01*
G01*
X0078507Y0024902D01*
G75*
G02*
X0078113Y0024508I-000394J0000000D01*
G01*
X0073093Y0024508D01*
G75*
G02*
X0072700Y0024902I0000000J0000394D01*
G01*
G37*
G36*
G01*
X0072700Y0022343D02*
X0072700Y0023130D01*
G75*
G02*
X0073093Y0023524I0000394J0000000D01*
G01*
X0078113Y0023524D01*
G75*
G02*
X0078507Y0023130I0000000J-000394D01*
G01*
X0078507Y0022343D01*
G75*
G02*
X0078113Y0021949I-000394J0000000D01*
G01*
X0073093Y0021949D01*
G75*
G02*
X0072700Y0022343I0000000J0000394D01*
G01*
G37*
G36*
G01*
X0072700Y0019784D02*
X0072700Y0020571D01*
G75*
G02*
X0073093Y0020965I0000394J0000000D01*
G01*
X0078113Y0020965D01*
G75*
G02*
X0078507Y0020571I0000000J-000394D01*
G01*
X0078507Y0019784D01*
G75*
G02*
X0078113Y0019390I-000394J0000000D01*
G01*
X0073093Y0019390D01*
G75*
G02*
X0072700Y0019784I0000000J0000394D01*
G01*
G37*
G36*
G01*
X0072700Y0017225D02*
X0072700Y0018012D01*
G75*
G02*
X0073093Y0018406I0000394J0000000D01*
G01*
X0078113Y0018406D01*
G75*
G02*
X0078507Y0018012I0000000J-000394D01*
G01*
X0078507Y0017225D01*
G75*
G02*
X0078113Y0016831I-000394J0000000D01*
G01*
X0073093Y0016831D01*
G75*
G02*
X0072700Y0017225I0000000J0000394D01*
G01*
G37*
G36*
G01*
X0072700Y0014666D02*
X0072700Y0015453D01*
G75*
G02*
X0073093Y0015847I0000394J0000000D01*
G01*
X0078113Y0015847D01*
G75*
G02*
X0078507Y0015453I0000000J-000394D01*
G01*
X0078507Y0014666D01*
G75*
G02*
X0078113Y0014272I-000394J0000000D01*
G01*
X0073093Y0014272D01*
G75*
G02*
X0072700Y0014666I0000000J0000394D01*
G01*
G37*
G36*
G01*
X0072700Y0012106D02*
X0072700Y0012894D01*
G75*
G02*
X0073093Y0013288I0000394J0000000D01*
G01*
X0078113Y0013288D01*
G75*
G02*
X0078507Y0012894I0000000J-000394D01*
G01*
X0078507Y0012106D01*
G75*
G02*
X0078113Y0011713I-000394J0000000D01*
G01*
X0073093Y0011713D01*
G75*
G02*
X0072700Y0012106I0000000J0000394D01*
G01*
G37*
G36*
G01*
X0032517Y0019977D02*
X0032517Y0023520D01*
G75*
G02*
X0033501Y0024504I0000984J0000000D01*
G01*
X0035568Y0024504D01*
G75*
G02*
X0036552Y0023520I0000000J-000984D01*
G01*
X0036552Y0019977D01*
G75*
G02*
X0035568Y0018992I-000984J0000000D01*
G01*
X0033501Y0018992D01*
G75*
G02*
X0032517Y0019977I0000000J0000984D01*
G01*
G37*
G36*
G01*
X0039702Y0019977D02*
X0039702Y0023520D01*
G75*
G02*
X0040686Y0024504I0000984J0000000D01*
G01*
X0042753Y0024504D01*
G75*
G02*
X0043737Y0023520I0000000J-000984D01*
G01*
X0043737Y0019977D01*
G75*
G02*
X0042753Y0018992I-000984J0000000D01*
G01*
X0040686Y0018992D01*
G75*
G02*
X0039702Y0019977I0000000J0000984D01*
G01*
G37*
G36*
G01*
X0078760Y0033701D02*
X0078760Y0032244D01*
G75*
G02*
X0078228Y0031713I-000531J0000000D01*
G01*
X0077165Y0031713D01*
G75*
G02*
X0076634Y0032244I0000000J0000531D01*
G01*
X0076634Y0033701D01*
G75*
G02*
X0077165Y0034232I0000531J0000000D01*
G01*
X0078228Y0034232D01*
G75*
G02*
X0078760Y0033701I0000000J-000531D01*
G01*
G37*
G36*
G01*
X0074744Y0033701D02*
X0074744Y0032244D01*
G75*
G02*
X0074213Y0031713I-000531J0000000D01*
G01*
X0073150Y0031713D01*
G75*
G02*
X0072618Y0032244I0000000J0000531D01*
G01*
X0072618Y0033701D01*
G75*
G02*
X0073150Y0034232I0000531J0000000D01*
G01*
X0074213Y0034232D01*
G75*
G02*
X0074744Y0033701I0000000J-000531D01*
G01*
G37*
G36*
G01*
X0038327Y0044626D02*
X0038327Y0043288D01*
G75*
G02*
X0037776Y0042736I-000551J0000000D01*
G01*
X0036673Y0042736D01*
G75*
G02*
X0036122Y0043288I0000000J0000551D01*
G01*
X0036122Y0044626D01*
G75*
G02*
X0036673Y0045177I0000551J0000000D01*
G01*
X0037776Y0045177D01*
G75*
G02*
X0038327Y0044626I0000000J-000551D01*
G01*
G37*
G36*
G01*
X0034547Y0044626D02*
X0034547Y0043288D01*
G75*
G02*
X0033996Y0042736I-000551J0000000D01*
G01*
X0032894Y0042736D01*
G75*
G02*
X0032343Y0043288I0000000J0000551D01*
G01*
X0032343Y0044626D01*
G75*
G02*
X0032894Y0045177I0000551J0000000D01*
G01*
X0033996Y0045177D01*
G75*
G02*
X0034547Y0044626I0000000J-000551D01*
G01*
G37*
G36*
G01*
X0086437Y0037441D02*
X0086437Y0035984D01*
G75*
G02*
X0085906Y0035453I-000531J0000000D01*
G01*
X0084843Y0035453D01*
G75*
G02*
X0084311Y0035984I0000000J0000531D01*
G01*
X0084311Y0037441D01*
G75*
G02*
X0084843Y0037973I0000531J0000000D01*
G01*
X0085906Y0037973D01*
G75*
G02*
X0086437Y0037441I0000000J-000531D01*
G01*
G37*
G36*
G01*
X0082421Y0037441D02*
X0082421Y0035984D01*
G75*
G02*
X0081890Y0035453I-000531J0000000D01*
G01*
X0080827Y0035453D01*
G75*
G02*
X0080295Y0035984I0000000J0000531D01*
G01*
X0080295Y0037441D01*
G75*
G02*
X0080827Y0037973I0000531J0000000D01*
G01*
X0081890Y0037973D01*
G75*
G02*
X0082421Y0037441I0000000J-000531D01*
G01*
G37*
G36*
G01*
X0070504Y0033701D02*
X0070504Y0032245D01*
G75*
G02*
X0069972Y0031713I-000531J0000000D01*
G01*
X0068909Y0031713D01*
G75*
G02*
X0068378Y0032245I0000000J0000531D01*
G01*
X0068378Y0033701D01*
G75*
G02*
X0068909Y0034233I0000531J0000000D01*
G01*
X0069972Y0034233D01*
G75*
G02*
X0070504Y0033701I0000000J-000531D01*
G01*
G37*
G36*
G01*
X0066488Y0033701D02*
X0066488Y0032245D01*
G75*
G02*
X0065956Y0031713I-000531J0000000D01*
G01*
X0064893Y0031713D01*
G75*
G02*
X0064362Y0032245I0000000J0000531D01*
G01*
X0064362Y0033701D01*
G75*
G02*
X0064893Y0034233I0000531J0000000D01*
G01*
X0065956Y0034233D01*
G75*
G02*
X0066488Y0033701I0000000J-000531D01*
G01*
G37*
G36*
G01*
X0043737Y0015945D02*
X0043737Y0012402D01*
G75*
G02*
X0042753Y0011417I-000984J0000000D01*
G01*
X0040686Y0011417D01*
G75*
G02*
X0039702Y0012402I0000000J0000984D01*
G01*
X0039702Y0015945D01*
G75*
G02*
X0040686Y0016929I0000984J0000000D01*
G01*
X0042753Y0016929D01*
G75*
G02*
X0043737Y0015945I0000000J-000984D01*
G01*
G37*
G36*
G01*
X0036552Y0015945D02*
X0036552Y0012402D01*
G75*
G02*
X0035568Y0011417I-000984J0000000D01*
G01*
X0033501Y0011417D01*
G75*
G02*
X0032517Y0012402I0000000J0000984D01*
G01*
X0032517Y0015945D01*
G75*
G02*
X0033501Y0016929I0000984J0000000D01*
G01*
X0035568Y0016929D01*
G75*
G02*
X0036552Y0015945I0000000J-000984D01*
G01*
G37*
G36*
G01*
X0070453Y0044843D02*
X0070453Y0043386D01*
G75*
G02*
X0069921Y0042854I-000531J0000000D01*
G01*
X0068858Y0042854D01*
G75*
G02*
X0068327Y0043386I0000000J0000531D01*
G01*
X0068327Y0044843D01*
G75*
G02*
X0068858Y0045374I0000531J0000000D01*
G01*
X0069921Y0045374D01*
G75*
G02*
X0070453Y0044843I0000000J-000531D01*
G01*
G37*
G36*
G01*
X0066437Y0044843D02*
X0066437Y0043386D01*
G75*
G02*
X0065906Y0042854I-000531J0000000D01*
G01*
X0064843Y0042854D01*
G75*
G02*
X0064311Y0043386I0000000J0000531D01*
G01*
X0064311Y0044843D01*
G75*
G02*
X0064843Y0045374I0000531J0000000D01*
G01*
X0065906Y0045374D01*
G75*
G02*
X0066437Y0044843I0000000J-000531D01*
G01*
G37*
G36*
G01*
X0080138Y0011339D02*
X0080138Y0012795D01*
G75*
G02*
X0080669Y0013327I0000531J0000000D01*
G01*
X0081732Y0013327D01*
G75*
G02*
X0082264Y0012795I0000000J-000531D01*
G01*
X0082264Y0011339D01*
G75*
G02*
X0081732Y0010807I-000531J0000000D01*
G01*
X0080669Y0010807D01*
G75*
G02*
X0080138Y0011339I0000000J0000531D01*
G01*
G37*
G36*
G01*
X0084154Y0011339D02*
X0084154Y0012795D01*
G75*
G02*
X0084685Y0013327I0000531J0000000D01*
G01*
X0085748Y0013327D01*
G75*
G02*
X0086280Y0012795I0000000J-000531D01*
G01*
X0086280Y0011339D01*
G75*
G02*
X0085748Y0010807I-000531J0000000D01*
G01*
X0084685Y0010807D01*
G75*
G02*
X0084154Y0011339I0000000J0000531D01*
G01*
G37*
G36*
G01*
X0080591Y0023288D02*
X0080591Y0024744D01*
G75*
G02*
X0081122Y0025276I0000531J0000000D01*
G01*
X0082185Y0025276D01*
G75*
G02*
X0082717Y0024744I0000000J-000531D01*
G01*
X0082717Y0023288D01*
G75*
G02*
X0082185Y0022756I-000531J0000000D01*
G01*
X0081122Y0022756D01*
G75*
G02*
X0080591Y0023288I0000000J0000531D01*
G01*
G37*
G36*
G01*
X0084606Y0023288D02*
X0084606Y0024744D01*
G75*
G02*
X0085138Y0025276I0000531J0000000D01*
G01*
X0086201Y0025276D01*
G75*
G02*
X0086732Y0024744I0000000J-000531D01*
G01*
X0086732Y0023288D01*
G75*
G02*
X0086201Y0022756I-000531J0000000D01*
G01*
X0085138Y0022756D01*
G75*
G02*
X0084606Y0023288I0000000J0000531D01*
G01*
G37*
G36*
G01*
X0079055Y0037441D02*
X0079055Y0035984D01*
G75*
G02*
X0078524Y0035453I-000531J0000000D01*
G01*
X0077461Y0035453D01*
G75*
G02*
X0076929Y0035984I0000000J0000531D01*
G01*
X0076929Y0037441D01*
G75*
G02*
X0077461Y0037973I0000531J0000000D01*
G01*
X0078524Y0037973D01*
G75*
G02*
X0079055Y0037441I0000000J-000531D01*
G01*
G37*
G36*
G01*
X0075039Y0037441D02*
X0075039Y0035984D01*
G75*
G02*
X0074508Y0035453I-000531J0000000D01*
G01*
X0073445Y0035453D01*
G75*
G02*
X0072913Y0035984I0000000J0000531D01*
G01*
X0072913Y0037441D01*
G75*
G02*
X0073445Y0037973I0000531J0000000D01*
G01*
X0074508Y0037973D01*
G75*
G02*
X0075039Y0037441I0000000J-000531D01*
G01*
G37*
G36*
G01*
X0086752Y0028524D02*
X0086752Y0027185D01*
G75*
G02*
X0086201Y0026634I-000551J0000000D01*
G01*
X0085098Y0026634D01*
G75*
G02*
X0084547Y0027185I0000000J0000551D01*
G01*
X0084547Y0028524D01*
G75*
G02*
X0085098Y0029075I0000551J0000000D01*
G01*
X0086201Y0029075D01*
G75*
G02*
X0086752Y0028524I0000000J-000551D01*
G01*
G37*
G36*
G01*
X0082972Y0028524D02*
X0082972Y0027185D01*
G75*
G02*
X0082421Y0026634I-000551J0000000D01*
G01*
X0081319Y0026634D01*
G75*
G02*
X0080768Y0027185I0000000J0000551D01*
G01*
X0080768Y0028524D01*
G75*
G02*
X0081319Y0029075I0000551J0000000D01*
G01*
X0082421Y0029075D01*
G75*
G02*
X0082972Y0028524I0000000J-000551D01*
G01*
G37*
G36*
G01*
X0047604Y0018309D02*
X0046266Y0018309D01*
G75*
G02*
X0045714Y0018860I0000000J0000551D01*
G01*
X0045714Y0019962D01*
G75*
G02*
X0046266Y0020514I0000551J0000000D01*
G01*
X0047604Y0020514D01*
G75*
G02*
X0048155Y0019962I0000000J-000551D01*
G01*
X0048155Y0018860D01*
G75*
G02*
X0047604Y0018309I-000551J0000000D01*
G01*
G37*
G36*
G01*
X0047604Y0022088D02*
X0046266Y0022088D01*
G75*
G02*
X0045714Y0022639I0000000J0000551D01*
G01*
X0045714Y0023742D01*
G75*
G02*
X0046266Y0024293I0000551J0000000D01*
G01*
X0047604Y0024293D01*
G75*
G02*
X0048155Y0023742I0000000J-000551D01*
G01*
X0048155Y0022639D01*
G75*
G02*
X0047604Y0022088I-000551J0000000D01*
G01*
G37*
G36*
G01*
X0080098Y0032244D02*
X0080098Y0033701D01*
G75*
G02*
X0080630Y0034232I0000531J0000000D01*
G01*
X0081693Y0034232D01*
G75*
G02*
X0082224Y0033701I0000000J-000531D01*
G01*
X0082224Y0032244D01*
G75*
G02*
X0081693Y0031713I-000531J0000000D01*
G01*
X0080630Y0031713D01*
G75*
G02*
X0080098Y0032244I0000000J0000531D01*
G01*
G37*
G36*
G01*
X0084114Y0032244D02*
X0084114Y0033701D01*
G75*
G02*
X0084646Y0034232I0000531J0000000D01*
G01*
X0085709Y0034232D01*
G75*
G02*
X0086240Y0033701I0000000J-000531D01*
G01*
X0086240Y0032244D01*
G75*
G02*
X0085709Y0031713I-000531J0000000D01*
G01*
X0084646Y0031713D01*
G75*
G02*
X0084114Y0032244I0000000J0000531D01*
G01*
G37*
G36*
G01*
X0062697Y0043603D02*
X0062697Y0042421D01*
G75*
G02*
X0062106Y0041831I-000591J0000000D01*
G01*
X0058071Y0041831D01*
G75*
G02*
X0057480Y0042421I0000000J0000591D01*
G01*
X0057480Y0043603D01*
G75*
G02*
X0058071Y0044193I0000591J0000000D01*
G01*
X0062106Y0044193D01*
G75*
G02*
X0062697Y0043603I0000000J-000591D01*
G01*
G37*
G36*
G01*
X0062697Y0039862D02*
X0062697Y0038681D01*
G75*
G02*
X0062106Y0038091I-000591J0000000D01*
G01*
X0058071Y0038091D01*
G75*
G02*
X0057480Y0038681I0000000J0000591D01*
G01*
X0057480Y0039862D01*
G75*
G02*
X0058071Y0040453I0000591J0000000D01*
G01*
X0062106Y0040453D01*
G75*
G02*
X0062697Y0039862I0000000J-000591D01*
G01*
G37*
G36*
G01*
X0062697Y0036122D02*
X0062697Y0034941D01*
G75*
G02*
X0062106Y0034351I-000591J0000000D01*
G01*
X0058071Y0034351D01*
G75*
G02*
X0057480Y0034941I0000000J0000591D01*
G01*
X0057480Y0036122D01*
G75*
G02*
X0058071Y0036713I0000591J0000000D01*
G01*
X0062106Y0036713D01*
G75*
G02*
X0062697Y0036122I0000000J-000591D01*
G01*
G37*
G36*
G01*
X0053740Y0036122D02*
X0053740Y0034941D01*
G75*
G02*
X0053150Y0034351I-000591J0000000D01*
G01*
X0049114Y0034351D01*
G75*
G02*
X0048524Y0034941I0000000J0000591D01*
G01*
X0048524Y0036122D01*
G75*
G02*
X0049114Y0036713I0000591J0000000D01*
G01*
X0053150Y0036713D01*
G75*
G02*
X0053740Y0036122I0000000J-000591D01*
G01*
G37*
G36*
G01*
X0053740Y0043603D02*
X0053740Y0042421D01*
G75*
G02*
X0053150Y0041831I-000591J0000000D01*
G01*
X0049114Y0041831D01*
G75*
G02*
X0048524Y0042421I0000000J0000591D01*
G01*
X0048524Y0043603D01*
G75*
G02*
X0049114Y0044193I0000591J0000000D01*
G01*
X0053150Y0044193D01*
G75*
G02*
X0053740Y0043603I0000000J-000591D01*
G01*
G37*
G36*
G01*
X0064390Y0039784D02*
X0064390Y0041122D01*
G75*
G02*
X0064941Y0041673I0000551J0000000D01*
G01*
X0066043Y0041673D01*
G75*
G02*
X0066595Y0041122I0000000J-000551D01*
G01*
X0066595Y0039784D01*
G75*
G02*
X0066043Y0039232I-000551J0000000D01*
G01*
X0064941Y0039232D01*
G75*
G02*
X0064390Y0039784I0000000J0000551D01*
G01*
G37*
G36*
G01*
X0068169Y0039784D02*
X0068169Y0041122D01*
G75*
G02*
X0068720Y0041673I0000551J0000000D01*
G01*
X0069823Y0041673D01*
G75*
G02*
X0070374Y0041122I0000000J-000551D01*
G01*
X0070374Y0039784D01*
G75*
G02*
X0069823Y0039232I-000551J0000000D01*
G01*
X0068720Y0039232D01*
G75*
G02*
X0068169Y0039784I0000000J0000551D01*
G01*
G37*
D10*
X0041283Y0027697D03*
X0047510Y0045667D03*
X0088051Y0010138D03*
X0031280Y0043917D03*
X0031496Y0035630D03*
X0064862Y0010335D03*
X0056515Y0034615D03*
X0038810Y0017961D03*
X0051151Y0030842D03*
X0046949Y0010335D03*
X0038719Y0010390D03*
X0068701Y0030315D03*
X0070871Y0022419D03*
X0031004Y0027461D03*
X0058366Y0029823D03*
X0087894Y0019095D03*
X0065551Y0026083D03*
X0077347Y0045458D03*
X0087795Y0014961D03*
X0044195Y0024818D03*
X0043899Y0011672D03*
X0061775Y0025612D03*
X0048391Y0017740D03*
X0039064Y0025751D03*
X0039547Y0044036D03*
X0085373Y0016645D03*
X0049926Y0040950D03*
X0048273Y0030199D03*
X0059161Y0015529D03*
X0080611Y0016734D03*
X0075392Y0043169D03*
X0043026Y0043756D03*
X0072441Y0043764D03*
X0071749Y0030019D03*
X0071084Y0037054D03*
X0059565Y0019033D03*
X0039570Y0034725D03*
X0054094Y0030606D03*
X0057839Y0026564D03*
X0058465Y0022638D03*
X0069882Y0027461D03*
X0077230Y0030471D03*
X0071518Y0011931D03*
X0058661Y0011811D03*
D23*
X0046935Y0023191D02*
X0044820Y0021076D01*
X0041720Y0022343D02*
X0041720Y0021752D01*
X0044195Y0024818D02*
X0041720Y0022343D01*
X0039570Y0035863D02*
X0042470Y0038763D01*
X0039570Y0034725D02*
X0039570Y0035863D01*
X0065118Y0032087D02*
X0065807Y0032776D01*
X0055815Y0032087D02*
X0065118Y0032087D01*
X0054791Y0033110D02*
X0055815Y0032087D01*
X0046555Y0035023D02*
X0048468Y0033110D01*
X0043947Y0035023D02*
X0046555Y0035023D01*
X0054094Y0028885D02*
X0054094Y0030606D01*
X0048468Y0033110D02*
X0054791Y0033110D01*
X0053064Y0027854D02*
X0054094Y0028885D01*
X0081870Y0027815D02*
X0085669Y0024016D01*
X0046457Y0023669D02*
X0046457Y0025356D01*
X0046935Y0023191D02*
X0046457Y0023669D01*
X0043899Y0011672D02*
X0041693Y0013878D01*
X0085532Y0032441D02*
X0081260Y0036713D01*
X0085532Y0027973D02*
X0085532Y0032441D01*
X0079626Y0026802D02*
X0079626Y0029429D01*
X0081654Y0024016D02*
X0081654Y0020394D01*
X0079626Y0026568D02*
X0079626Y0026801D01*
X0081654Y0024016D02*
X0081654Y0024540D01*
D18*
X0079626Y0026801D02*
X0079626Y0026802D01*
D23*
X0075603Y0022736D02*
X0081319Y0022736D01*
X0079626Y0029429D02*
X0079626Y0029595D01*
X0081260Y0031229D02*
X0081260Y0032973D01*
X0079626Y0029595D02*
X0081260Y0031229D01*
X0081654Y0024540D02*
X0079626Y0026568D01*
X0047701Y0020177D02*
X0053064Y0020177D01*
X0085039Y0044114D02*
X0086634Y0044114D01*
X0085039Y0040650D02*
X0084843Y0040453D01*
X0046935Y0019411D02*
X0046935Y0015979D01*
X0049926Y0040950D02*
X0049926Y0041806D01*
X0046935Y0015979D02*
X0046949Y0015965D01*
X0039547Y0044036D02*
X0037303Y0044036D01*
X0037166Y0043898D02*
X0037166Y0038763D01*
X0049926Y0041806D02*
X0050541Y0042421D01*
X0037303Y0044036D02*
X0037224Y0043957D01*
X0037166Y0038763D02*
X0034990Y0038763D01*
X0046935Y0019411D02*
X0047701Y0020177D01*
X0086634Y0044114D02*
X0087894Y0045374D01*
X0046935Y0019196D02*
X0046935Y0019411D01*
X0085039Y0044114D02*
X0085039Y0040650D01*
X0037224Y0043957D02*
X0037166Y0043898D01*
X0048391Y0017740D02*
X0046935Y0019196D01*
X0079661Y0017618D02*
X0075603Y0017618D01*
X0075392Y0043169D02*
X0074170Y0041947D01*
X0074072Y0040430D02*
X0074072Y0036808D01*
X0074170Y0041947D02*
X0074170Y0040430D01*
X0065492Y0044075D02*
X0065453Y0044114D01*
X0060876Y0043012D02*
X0065610Y0043012D01*
X0065492Y0040453D02*
X0065492Y0044075D01*
X0072441Y0043764D02*
X0072441Y0043344D01*
X0072441Y0043344D02*
X0069549Y0040453D01*
X0069549Y0040453D02*
X0069272Y0040453D01*
X0065453Y0032973D02*
X0065453Y0036713D01*
D18*
X0071437Y0030330D02*
X0071555Y0030448D01*
D23*
X0070782Y0036752D02*
X0069587Y0036752D01*
X0071437Y0036701D02*
X0071084Y0037054D01*
X0071634Y0030134D02*
X0071437Y0030330D01*
D18*
X0071555Y0036583D02*
X0071437Y0036701D01*
X0071555Y0030448D02*
X0071555Y0036583D01*
D23*
X0071084Y0037054D02*
X0070782Y0036752D01*
X0058150Y0017618D02*
X0053064Y0017618D01*
X0059565Y0019033D02*
X0058150Y0017618D01*
X0042628Y0038763D02*
X0043947Y0038763D01*
D18*
X0042470Y0038763D02*
X0043947Y0038763D01*
D23*
X0043947Y0038763D02*
X0045181Y0038763D01*
X0047704Y0036240D02*
X0050423Y0036240D01*
X0045181Y0038763D02*
X0047704Y0036240D01*
X0050423Y0036240D02*
X0051132Y0035532D01*
X0087894Y0035925D02*
X0086063Y0035925D01*
X0086063Y0035925D02*
X0085276Y0036713D01*
X0031102Y0019941D02*
X0035177Y0019941D01*
X0031102Y0016004D02*
X0032723Y0016004D01*
X0032723Y0016004D02*
X0034534Y0014193D01*
X0057839Y0026564D02*
X0056719Y0025445D01*
X0056719Y0025445D02*
X0053213Y0025445D01*
X0058366Y0022736D02*
X0053064Y0022736D01*
X0058465Y0022638D02*
X0058366Y0022736D01*
X0075603Y0027854D02*
X0075603Y0025295D01*
X0074906Y0030147D02*
X0074906Y0028551D01*
X0074906Y0028551D02*
X0075603Y0027854D01*
X0077603Y0036713D02*
X0074075Y0033184D01*
X0074075Y0033184D02*
X0074075Y0032973D01*
X0073976Y0032973D02*
X0073976Y0031077D01*
X0078010Y0036713D02*
X0077603Y0036713D01*
X0073976Y0031077D02*
X0074906Y0030147D01*
X0082874Y0014410D02*
X0079740Y0014410D01*
X0077230Y0030471D02*
X0077230Y0032210D01*
X0069882Y0027461D02*
X0068410Y0025989D01*
X0071949Y0015059D02*
X0075603Y0015059D01*
X0068410Y0025989D02*
X0068410Y0018598D01*
X0085217Y0012067D02*
X0082874Y0014410D01*
X0079091Y0015059D02*
X0075603Y0015059D01*
X0077230Y0032210D02*
X0077992Y0032973D01*
X0068410Y0018598D02*
X0071949Y0015059D01*
X0079740Y0014410D02*
X0079091Y0015059D01*
X0075603Y0012500D02*
X0072086Y0012500D01*
X0075603Y0012500D02*
X0080669Y0012500D01*
X0072086Y0012500D02*
X0071518Y0011931D01*
X0058661Y0011811D02*
X0057972Y0012500D01*
X0053064Y0015059D02*
X0053064Y0012500D01*
X0057972Y0012500D02*
X0053064Y0012500D01*
X0036516Y0035230D02*
X0036516Y0035175D01*
X0049587Y0038091D02*
X0047638Y0040040D01*
X0047638Y0040047D02*
X0046598Y0041086D01*
D18*
X0036516Y0035175D02*
X0036516Y0035138D01*
D23*
X0040496Y0041086D02*
X0038741Y0039331D01*
X0060876Y0039272D02*
X0055096Y0039272D01*
X0046598Y0041086D02*
X0040496Y0041086D01*
X0036516Y0032808D02*
X0034990Y0031283D01*
X0038741Y0037455D02*
X0036516Y0035230D01*
X0038741Y0039331D02*
X0038741Y0037455D01*
X0053915Y0038091D02*
X0049587Y0038091D01*
X0047638Y0040040D02*
X0047638Y0040047D01*
X0036516Y0035138D02*
X0036516Y0032808D01*
X0055096Y0039272D02*
X0053915Y0038091D01*
G36*
X0070280Y0033898D02*
G01*
X0070422Y0033704D01*
X0070441Y0033583D01*
X0070441Y0031357D01*
X0070366Y0031128D01*
X0070345Y0031102D01*
X0070245Y0030986D01*
X0070033Y0030523D01*
X0070033Y0030523D01*
X0069961Y0030019D01*
X0069961Y0030019D01*
X0070010Y0029676D01*
X0069969Y0029439D01*
X0069796Y0029271D01*
X0069654Y0029238D01*
X0069655Y0029235D01*
X0069627Y0029231D01*
X0069139Y0029088D01*
X0069139Y0029088D01*
X0068711Y0028813D01*
X0068377Y0028428D01*
X0068166Y0027965D01*
X0068166Y0027965D01*
X0068093Y0027461D01*
X0068093Y0027461D01*
X0068098Y0027427D01*
X0068057Y0027190D01*
X0067988Y0027096D01*
X0067748Y0026856D01*
X0067689Y0026808D01*
X0067630Y0026769D01*
X0067396Y0026418D01*
X0067391Y0026411D01*
X0067391Y0026411D01*
X0067319Y0026048D01*
X0067307Y0025989D01*
X0067320Y0025926D01*
X0067321Y0025920D01*
X0067328Y0025844D01*
X0067328Y0018743D01*
X0067321Y0018667D01*
X0067307Y0018598D01*
X0067328Y0018493D01*
X0067328Y0018492D01*
X0067391Y0018176D01*
X0067535Y0017961D01*
X0067630Y0017818D01*
X0067689Y0017779D01*
X0067748Y0017731D01*
X0071082Y0014397D01*
X0071130Y0014338D01*
X0071167Y0014282D01*
X0071169Y0014279D01*
X0071169Y0014279D01*
X0071172Y0014276D01*
X0071176Y0014269D01*
X0071190Y0014248D01*
X0071188Y0014246D01*
X0071282Y0014062D01*
X0071244Y0013824D01*
X0071074Y0013653D01*
X0071007Y0013627D01*
X0070775Y0013558D01*
X0070775Y0013558D01*
X0070346Y0013283D01*
X0070346Y0013283D01*
X0070346Y0013283D01*
X0070311Y0013242D01*
X0070013Y0012898D01*
X0069802Y0012435D01*
X0069802Y0012435D01*
X0069729Y0011931D01*
X0069729Y0011931D01*
X0069802Y0011428D01*
X0069802Y0011428D01*
X0069802Y0011428D01*
X0069802Y0011428D01*
X0070013Y0010964D01*
X0070346Y0010580D01*
X0070775Y0010304D01*
X0071263Y0010161D01*
X0071263Y0010161D01*
X0071772Y0010161D01*
X0071772Y0010161D01*
X0072261Y0010304D01*
X0072689Y0010580D01*
X0073022Y0010964D01*
X0073022Y0010964D01*
X0073041Y0010985D01*
X0073050Y0010977D01*
X0073196Y0011097D01*
X0073337Y0011123D01*
X0078210Y0011123D01*
X0078210Y0011123D01*
X0078497Y0011180D01*
X0078755Y0011353D01*
X0078971Y0011419D01*
X0079173Y0011419D01*
X0079402Y0011344D01*
X0079543Y0011149D01*
X0079557Y0011085D01*
X0079559Y0011078D01*
X0079559Y0011078D01*
X0079559Y0011078D01*
X0079729Y0010694D01*
X0080025Y0010398D01*
X0080408Y0010229D01*
X0080502Y0010218D01*
X0080502Y0010218D01*
X0080502Y0010218D01*
X0081900Y0010218D01*
X0081900Y0010218D01*
X0081993Y0010229D01*
X0082377Y0010398D01*
X0082673Y0010694D01*
X0082842Y0011078D01*
X0082842Y0011078D01*
X0082852Y0011100D01*
X0083013Y0011279D01*
X0083248Y0011330D01*
X0083469Y0011233D01*
X0083565Y0011100D01*
X0083575Y0011078D01*
X0083575Y0011078D01*
X0083744Y0010694D01*
X0084041Y0010398D01*
X0084424Y0010229D01*
X0084518Y0010218D01*
X0084518Y0010218D01*
X0084518Y0010218D01*
X0085915Y0010218D01*
X0085915Y0010218D01*
X0086009Y0010229D01*
X0086392Y0010398D01*
X0086689Y0010694D01*
X0086858Y0011078D01*
X0086869Y0011171D01*
X0086869Y0012963D01*
X0086858Y0013056D01*
X0086689Y0013440D01*
X0086392Y0013736D01*
X0086009Y0013905D01*
X0086009Y0013905D01*
X0086009Y0013905D01*
X0085915Y0013916D01*
X0085915Y0013916D01*
X0085058Y0013916D01*
X0084829Y0013991D01*
X0084783Y0014030D01*
X0084528Y0014285D01*
X0084418Y0014500D01*
X0084456Y0014738D01*
X0084626Y0014908D01*
X0084864Y0014946D01*
X0084913Y0014935D01*
X0085118Y0014875D01*
X0085118Y0014875D01*
X0085118Y0014875D01*
X0085118Y0014875D01*
X0085627Y0014875D01*
X0085627Y0014875D01*
X0086116Y0015018D01*
X0086544Y0015293D01*
X0086877Y0015678D01*
X0087089Y0016141D01*
X0087091Y0016156D01*
X0087161Y0016645D01*
X0087161Y0016645D01*
X0087089Y0017149D01*
X0087089Y0017149D01*
X0087089Y0017149D01*
X0086877Y0017612D01*
X0086673Y0017848D01*
X0086579Y0018070D01*
X0086634Y0018304D01*
X0086803Y0018456D01*
X0086882Y0018493D01*
X0087216Y0018827D01*
X0087415Y0019255D01*
X0087418Y0019276D01*
X0087418Y0019276D01*
X0084941Y0019276D01*
X0084712Y0019350D01*
X0084570Y0019545D01*
X0084551Y0019666D01*
X0084551Y0021276D01*
X0086551Y0021276D01*
X0086551Y0021276D01*
X0087418Y0021276D01*
X0087418Y0021276D01*
X0087415Y0021297D01*
X0087216Y0021725D01*
X0087135Y0021805D01*
X0087026Y0022020D01*
X0087063Y0022258D01*
X0087135Y0022357D01*
X0087298Y0022519D01*
X0087298Y0022519D01*
X0087494Y0022941D01*
X0087494Y0022941D01*
X0087504Y0023016D01*
X0086669Y0023016D01*
X0086669Y0023016D01*
X0086669Y0022091D01*
X0086595Y0021862D01*
X0086555Y0021815D01*
X0086551Y0021811D01*
X0086551Y0021276D01*
X0084551Y0021276D01*
X0084551Y0022162D01*
X0084626Y0022391D01*
X0084665Y0022437D01*
X0084669Y0022441D01*
X0084669Y0024626D01*
X0084744Y0024855D01*
X0084939Y0024997D01*
X0085059Y0025016D01*
X0087504Y0025016D01*
X0087494Y0025091D01*
X0087494Y0025091D01*
X0087298Y0025512D01*
X0086995Y0025815D01*
X0086886Y0026030D01*
X0086923Y0026268D01*
X0086995Y0026366D01*
X0087158Y0026529D01*
X0087330Y0026920D01*
X0087341Y0027015D01*
X0087341Y0028694D01*
X0087330Y0028789D01*
X0087320Y0028813D01*
X0087289Y0028883D01*
X0087264Y0029123D01*
X0087386Y0029331D01*
X0087606Y0029428D01*
X0087645Y0029430D01*
X0088148Y0029430D01*
X0088148Y0029430D01*
X0088637Y0029574D01*
X0088637Y0029574D01*
X0088664Y0029582D01*
X0088666Y0029572D01*
X0088861Y0029594D01*
X0089071Y0029476D01*
X0089171Y0029257D01*
X0089173Y0029212D01*
X0089173Y0009250D01*
X0089099Y0009021D01*
X0088904Y0008879D01*
X0088783Y0008860D01*
X0030116Y0008860D01*
X0029887Y0008935D01*
X0029745Y0009130D01*
X0029726Y0009250D01*
X0029726Y0013005D01*
X0029801Y0013234D01*
X0029996Y0013376D01*
X0030209Y0013384D01*
X0030644Y0013277D01*
X0030848Y0013150D01*
X0030939Y0012927D01*
X0030940Y0012898D01*
X0030940Y0012143D01*
X0030951Y0011998D01*
X0030951Y0011998D01*
X0030951Y0011998D01*
X0031132Y0011377D01*
X0031461Y0010820D01*
X0031919Y0010362D01*
X0032476Y0010033D01*
X0033097Y0009852D01*
X0033242Y0009841D01*
X0033242Y0009841D01*
X0035827Y0009841D01*
X0035827Y0009841D01*
X0035972Y0009852D01*
X0036593Y0010033D01*
X0037150Y0010362D01*
X0037608Y0010820D01*
X0037937Y0011377D01*
X0038118Y0011998D01*
X0038129Y0012143D01*
X0038129Y0016204D01*
X0038118Y0016349D01*
X0037937Y0016970D01*
X0037608Y0017527D01*
X0037450Y0017685D01*
X0037340Y0017900D01*
X0037378Y0018138D01*
X0037450Y0018236D01*
X0037608Y0018394D01*
X0037937Y0018951D01*
X0038118Y0019573D01*
X0038129Y0019718D01*
X0038129Y0023660D01*
X0038203Y0023889D01*
X0038398Y0024030D01*
X0038629Y0024034D01*
X0038810Y0023981D01*
X0038810Y0023981D01*
X0038832Y0023974D01*
X0039031Y0023838D01*
X0039112Y0023611D01*
X0039112Y0023600D01*
X0039112Y0019853D01*
X0039171Y0019484D01*
X0039397Y0019041D01*
X0039397Y0019040D01*
X0039750Y0018688D01*
X0040194Y0018461D01*
X0040461Y0018419D01*
X0040562Y0018403D01*
X0040562Y0018403D01*
X0042877Y0018403D01*
X0042965Y0018417D01*
X0043245Y0018461D01*
X0043689Y0018688D01*
X0044042Y0019040D01*
X0044268Y0019484D01*
X0044327Y0019853D01*
X0044327Y0021872D01*
X0044401Y0022101D01*
X0044596Y0022243D01*
X0044837Y0022243D01*
X0045032Y0022101D01*
X0045070Y0022037D01*
X0045152Y0021860D01*
X0045486Y0021526D01*
X0045514Y0021507D01*
X0045510Y0021501D01*
X0045656Y0021365D01*
X0045702Y0021128D01*
X0045600Y0020910D01*
X0045590Y0020900D01*
X0045308Y0020618D01*
X0045136Y0020228D01*
X0045125Y0020133D01*
X0045125Y0018690D01*
X0045136Y0018594D01*
X0045136Y0018594D01*
X0045136Y0018594D01*
X0045308Y0018204D01*
X0045556Y0017957D01*
X0045665Y0017742D01*
X0045628Y0017504D01*
X0045556Y0017405D01*
X0045414Y0017263D01*
X0045322Y0017172D01*
X0045150Y0016782D01*
X0045139Y0016686D01*
X0045139Y0015243D01*
X0045150Y0015148D01*
X0045150Y0015148D01*
X0045150Y0015148D01*
X0045322Y0014758D01*
X0045604Y0014476D01*
X0045714Y0014261D01*
X0045676Y0014023D01*
X0045526Y0013873D01*
X0045528Y0013869D01*
X0045509Y0013856D01*
X0045506Y0013853D01*
X0045501Y0013850D01*
X0045500Y0013850D01*
X0045166Y0013516D01*
X0045154Y0013490D01*
X0044990Y0013314D01*
X0044753Y0013268D01*
X0044669Y0013292D01*
X0044669Y0013291D01*
X0044607Y0013309D01*
X0044408Y0013445D01*
X0044327Y0013672D01*
X0044327Y0013683D01*
X0044327Y0016069D01*
X0044284Y0016339D01*
X0044268Y0016437D01*
X0044042Y0016882D01*
X0043689Y0017234D01*
X0043689Y0017234D01*
X0043245Y0017460D01*
X0042877Y0017519D01*
X0042877Y0017519D01*
X0040562Y0017519D01*
X0040562Y0017519D01*
X0040194Y0017460D01*
X0039750Y0017234D01*
X0039397Y0016882D01*
X0039171Y0016437D01*
X0039112Y0016069D01*
X0039112Y0012278D01*
X0039171Y0011909D01*
X0039385Y0011490D01*
X0039397Y0011465D01*
X0039750Y0011113D01*
X0040194Y0010886D01*
X0040461Y0010844D01*
X0040562Y0010828D01*
X0040562Y0010828D01*
X0042110Y0010828D01*
X0042339Y0010754D01*
X0042404Y0010694D01*
X0042728Y0010320D01*
X0043156Y0010045D01*
X0043645Y0009901D01*
X0043645Y0009901D01*
X0044154Y0009901D01*
X0044154Y0009901D01*
X0044642Y0010045D01*
X0045071Y0010320D01*
X0045125Y0010383D01*
X0045332Y0010508D01*
X0045572Y0010487D01*
X0045585Y0010481D01*
X0045928Y0010321D01*
X0045928Y0010321D01*
X0045949Y0010318D01*
X0045949Y0010318D01*
X0045949Y0012795D01*
X0046023Y0013025D01*
X0046218Y0013166D01*
X0046339Y0013185D01*
X0047559Y0013185D01*
X0047788Y0013111D01*
X0047930Y0012916D01*
X0047949Y0012795D01*
X0047949Y0010318D01*
X0047949Y0010318D01*
X0047970Y0010321D01*
X0048398Y0010521D01*
X0048732Y0010854D01*
X0048931Y0011282D01*
X0048931Y0011282D01*
X0048958Y0011490D01*
X0048964Y0011489D01*
X0049045Y0011694D01*
X0049249Y0011822D01*
X0049490Y0011807D01*
X0049669Y0011661D01*
X0049784Y0011490D01*
X0049845Y0011398D01*
X0049845Y0011398D01*
X0050022Y0011279D01*
X0050170Y0011180D01*
X0050388Y0011137D01*
X0050457Y0011123D01*
X0050457Y0011123D01*
X0050457Y0011123D01*
X0055671Y0011123D01*
X0055957Y0011180D01*
X0056216Y0011353D01*
X0056432Y0011419D01*
X0056644Y0011419D01*
X0056873Y0011344D01*
X0056998Y0011191D01*
X0057157Y0010844D01*
X0057157Y0010844D01*
X0057157Y0010844D01*
X0057490Y0010459D01*
X0057918Y0010184D01*
X0058407Y0010041D01*
X0058407Y0010041D01*
X0058916Y0010041D01*
X0058916Y0010041D01*
X0059404Y0010184D01*
X0059833Y0010459D01*
X0060166Y0010844D01*
X0060378Y0011307D01*
X0060384Y0011353D01*
X0060450Y0011811D01*
X0060450Y0011811D01*
X0060378Y0012315D01*
X0060378Y0012315D01*
X0060378Y0012315D01*
X0060166Y0012778D01*
X0059833Y0013163D01*
X0059784Y0013194D01*
X0059631Y0013381D01*
X0059618Y0013621D01*
X0059748Y0013824D01*
X0059885Y0013896D01*
X0059904Y0013902D01*
X0060333Y0014177D01*
X0060666Y0014562D01*
X0060877Y0015025D01*
X0060916Y0015293D01*
X0060950Y0015529D01*
X0060950Y0015529D01*
X0060877Y0016033D01*
X0060877Y0016033D01*
X0060877Y0016033D01*
X0060666Y0016496D01*
X0060333Y0016881D01*
X0060333Y0016881D01*
X0060326Y0016889D01*
X0060232Y0017111D01*
X0060287Y0017345D01*
X0060410Y0017472D01*
X0060736Y0017682D01*
X0061069Y0018066D01*
X0061281Y0018530D01*
X0061281Y0018530D01*
X0061353Y0019033D01*
X0061353Y0019033D01*
X0061281Y0019537D01*
X0061281Y0019537D01*
X0061281Y0019537D01*
X0061069Y0020000D01*
X0060736Y0020385D01*
X0060308Y0020660D01*
X0059963Y0020762D01*
X0059922Y0020774D01*
X0059723Y0020910D01*
X0059642Y0021137D01*
X0059710Y0021368D01*
X0059737Y0021403D01*
X0059969Y0021671D01*
X0060181Y0022134D01*
X0060181Y0022134D01*
X0060253Y0022638D01*
X0060253Y0022638D01*
X0060181Y0023142D01*
X0060181Y0023142D01*
X0060181Y0023142D01*
X0059969Y0023605D01*
X0059636Y0023990D01*
X0059619Y0024001D01*
X0059208Y0024265D01*
X0059208Y0024265D01*
X0058879Y0024361D01*
X0058680Y0024497D01*
X0058599Y0024724D01*
X0058667Y0024955D01*
X0058778Y0025063D01*
X0059010Y0025212D01*
X0059338Y0025590D01*
X0059544Y0025715D01*
X0059784Y0025694D01*
X0059966Y0025536D01*
X0060018Y0025391D01*
X0060059Y0025108D01*
X0060059Y0025108D01*
X0060059Y0025108D01*
X0060059Y0025108D01*
X0060270Y0024645D01*
X0060604Y0024260D01*
X0061032Y0023985D01*
X0061520Y0023841D01*
X0061520Y0023841D01*
X0062030Y0023841D01*
X0062030Y0023841D01*
X0062518Y0023985D01*
X0062946Y0024260D01*
X0063280Y0024645D01*
X0063491Y0025108D01*
X0063491Y0025108D01*
X0063564Y0025612D01*
X0063564Y0025612D01*
X0063491Y0026116D01*
X0063491Y0026116D01*
X0063491Y0026116D01*
X0063280Y0026579D01*
X0062946Y0026964D01*
X0062866Y0027015D01*
X0062518Y0027239D01*
X0062030Y0027382D01*
X0062030Y0027382D01*
X0061520Y0027382D01*
X0061520Y0027382D01*
X0061032Y0027239D01*
X0061032Y0027239D01*
X0060604Y0026964D01*
X0060604Y0026964D01*
X0060276Y0026586D01*
X0060070Y0026461D01*
X0059830Y0026482D01*
X0059648Y0026640D01*
X0059596Y0026786D01*
X0059555Y0027068D01*
X0059555Y0027068D01*
X0059555Y0027068D01*
X0059344Y0027531D01*
X0059010Y0027916D01*
X0058935Y0027965D01*
X0058582Y0028191D01*
X0058094Y0028335D01*
X0058094Y0028335D01*
X0057584Y0028335D01*
X0057584Y0028335D01*
X0057096Y0028191D01*
X0057078Y0028183D01*
X0056838Y0028156D01*
X0056629Y0028274D01*
X0056534Y0028462D01*
X0056512Y0028572D01*
X0056500Y0028632D01*
X0056500Y0028632D01*
X0056282Y0028957D01*
X0056282Y0028957D01*
X0055957Y0029174D01*
X0055957Y0029174D01*
X0055918Y0029182D01*
X0055708Y0029300D01*
X0055607Y0029519D01*
X0055639Y0029726D01*
X0055811Y0030102D01*
X0055815Y0030132D01*
X0055883Y0030606D01*
X0055883Y0030616D01*
X0055886Y0030623D01*
X0055887Y0030633D01*
X0055889Y0030633D01*
X0055958Y0030845D01*
X0056152Y0030986D01*
X0056273Y0031005D01*
X0064973Y0031005D01*
X0065049Y0030998D01*
X0065062Y0030995D01*
X0065118Y0030984D01*
X0065540Y0031068D01*
X0065576Y0031083D01*
X0065579Y0031074D01*
X0065742Y0031124D01*
X0066124Y0031124D01*
X0066124Y0031124D01*
X0066217Y0031135D01*
X0066601Y0031304D01*
X0066897Y0031600D01*
X0066967Y0031759D01*
X0067128Y0031938D01*
X0067363Y0031989D01*
X0067584Y0031892D01*
X0067677Y0031766D01*
X0067812Y0031476D01*
X0068141Y0031148D01*
X0068441Y0031008D01*
X0068441Y0033583D01*
X0068515Y0033812D01*
X0068710Y0033954D01*
X0068830Y0033973D01*
X0070051Y0033973D01*
X0070280Y0033898D01*
G37*
G36*
X0072190Y0027024D02*
G01*
X0072250Y0026953D01*
X0072348Y0026808D01*
X0072358Y0026792D01*
X0072424Y0026560D01*
X0072358Y0026358D01*
X0072167Y0026073D01*
X0072167Y0026073D01*
X0072110Y0025786D01*
X0072110Y0025786D01*
X0072110Y0024805D01*
X0072110Y0024805D01*
X0072167Y0024518D01*
X0072167Y0024518D01*
X0072167Y0024518D01*
X0072304Y0024314D01*
X0072358Y0024232D01*
X0072424Y0024001D01*
X0072358Y0023799D01*
X0072167Y0023514D01*
X0072167Y0023514D01*
X0072110Y0023227D01*
X0072110Y0023227D01*
X0072110Y0022246D01*
X0072110Y0022246D01*
X0072167Y0021959D01*
X0072167Y0021959D01*
X0072248Y0021839D01*
X0072313Y0021607D01*
X0072230Y0021381D01*
X0072199Y0021347D01*
X0072102Y0021250D01*
X0072102Y0021250D01*
X0071976Y0020965D01*
X0071976Y0020965D01*
X0079230Y0020965D01*
X0079167Y0021108D01*
X0079143Y0021347D01*
X0079264Y0021556D01*
X0079484Y0021653D01*
X0079524Y0021655D01*
X0079705Y0021655D01*
X0079934Y0021580D01*
X0080076Y0021386D01*
X0080092Y0021220D01*
X0080080Y0021115D01*
X0080080Y0019436D01*
X0080091Y0019341D01*
X0080132Y0019247D01*
X0080157Y0019007D01*
X0080036Y0018799D01*
X0079815Y0018702D01*
X0079776Y0018700D01*
X0079524Y0018700D01*
X0079295Y0018774D01*
X0079153Y0018969D01*
X0079153Y0019210D01*
X0079167Y0019247D01*
X0079230Y0019390D01*
X0071976Y0019390D01*
X0072102Y0019105D01*
X0072199Y0019008D01*
X0072308Y0018793D01*
X0072271Y0018555D01*
X0072248Y0018516D01*
X0072167Y0018396D01*
X0072167Y0018396D01*
X0072110Y0018109D01*
X0072110Y0018109D01*
X0072110Y0017368D01*
X0072036Y0017139D01*
X0071841Y0016997D01*
X0071600Y0016997D01*
X0071445Y0017093D01*
X0069606Y0018932D01*
X0069496Y0019147D01*
X0069491Y0019208D01*
X0069491Y0025301D01*
X0069566Y0025530D01*
X0069761Y0025671D01*
X0069881Y0025690D01*
X0070136Y0025690D01*
X0070136Y0025690D01*
X0070625Y0025834D01*
X0071053Y0026109D01*
X0071387Y0026494D01*
X0071572Y0026899D01*
X0071734Y0027076D01*
X0071971Y0027124D01*
X0072190Y0027024D01*
G37*
G36*
X0086377Y0046973D02*
G01*
X0086518Y0046778D01*
X0086518Y0046537D01*
X0086442Y0046402D01*
X0086397Y0046350D01*
X0086389Y0046341D01*
X0086294Y0046133D01*
X0086131Y0045955D01*
X0085895Y0045907D01*
X0085876Y0045911D01*
X0085761Y0045924D01*
X0085761Y0045924D01*
X0084318Y0045924D01*
X0084318Y0045924D01*
X0084223Y0045913D01*
X0084223Y0045913D01*
X0083866Y0045756D01*
X0083832Y0045741D01*
X0083550Y0045459D01*
X0083336Y0045349D01*
X0083098Y0045387D01*
X0082947Y0045538D01*
X0082944Y0045535D01*
X0082931Y0045554D01*
X0082927Y0045557D01*
X0082925Y0045563D01*
X0082924Y0045563D01*
X0082591Y0045897D01*
X0082260Y0046051D01*
X0082260Y0042307D01*
X0082185Y0042078D01*
X0082146Y0042032D01*
X0082063Y0041949D01*
X0082063Y0039843D01*
X0081989Y0039614D01*
X0081794Y0039472D01*
X0081673Y0039453D01*
X0077067Y0039453D01*
X0076838Y0039527D01*
X0076696Y0039722D01*
X0076677Y0039843D01*
X0076677Y0041453D01*
X0078677Y0041453D01*
X0078677Y0041453D01*
X0080063Y0041453D01*
X0080063Y0041453D01*
X0080063Y0042260D01*
X0080137Y0042489D01*
X0080177Y0042536D01*
X0080260Y0042618D01*
X0080260Y0043114D01*
X0080260Y0043114D01*
X0079393Y0043114D01*
X0079393Y0043114D01*
X0079396Y0043093D01*
X0079563Y0042735D01*
X0079592Y0042496D01*
X0079475Y0042285D01*
X0079257Y0042183D01*
X0079041Y0042225D01*
X0079039Y0042221D01*
X0079022Y0042229D01*
X0079021Y0042229D01*
X0079018Y0042231D01*
X0078677Y0042390D01*
X0078677Y0041453D01*
X0076677Y0041453D01*
X0076677Y0041803D01*
X0076752Y0042032D01*
X0076772Y0042058D01*
X0076897Y0042202D01*
X0077108Y0042665D01*
X0077108Y0042665D01*
X0077181Y0043169D01*
X0077181Y0043169D01*
X0077108Y0043673D01*
X0077108Y0043673D01*
X0077108Y0043673D01*
X0076897Y0044136D01*
X0076563Y0044521D01*
X0076451Y0044593D01*
X0076135Y0044796D01*
X0075646Y0044939D01*
X0075646Y0044939D01*
X0075137Y0044939D01*
X0075137Y0044939D01*
X0074649Y0044796D01*
X0074445Y0044665D01*
X0074212Y0044604D01*
X0073988Y0044691D01*
X0073940Y0044737D01*
X0073911Y0044771D01*
X0073613Y0045114D01*
X0079393Y0045114D01*
X0079393Y0045114D01*
X0080260Y0045114D01*
X0080260Y0045114D01*
X0080260Y0046051D01*
X0079929Y0045897D01*
X0079595Y0045563D01*
X0079396Y0045135D01*
X0079393Y0045114D01*
X0073613Y0045114D01*
X0073612Y0045115D01*
X0073184Y0045391D01*
X0073132Y0045406D01*
X0072696Y0045534D01*
X0072696Y0045534D01*
X0072186Y0045534D01*
X0072186Y0045534D01*
X0071698Y0045391D01*
X0071698Y0045391D01*
X0071629Y0045347D01*
X0071396Y0045285D01*
X0071172Y0045373D01*
X0071065Y0045510D01*
X0071018Y0045611D01*
X0070689Y0045940D01*
X0070390Y0046079D01*
X0070390Y0046079D01*
X0070390Y0043504D01*
X0070315Y0043275D01*
X0070120Y0043133D01*
X0070000Y0043114D01*
X0068780Y0043114D01*
X0068550Y0043189D01*
X0068409Y0043384D01*
X0068390Y0043504D01*
X0068390Y0046079D01*
X0068390Y0046079D01*
X0068090Y0045940D01*
X0067761Y0045611D01*
X0067626Y0045321D01*
X0067462Y0045145D01*
X0067225Y0045099D01*
X0067007Y0045201D01*
X0066916Y0045328D01*
X0066846Y0045487D01*
X0066550Y0045783D01*
X0066167Y0045953D01*
X0066167Y0045953D01*
X0066167Y0045953D01*
X0066073Y0045964D01*
X0066073Y0045964D01*
X0064675Y0045964D01*
X0064675Y0045964D01*
X0064581Y0045953D01*
X0064198Y0045783D01*
X0063902Y0045487D01*
X0063733Y0045104D01*
X0063722Y0045010D01*
X0063722Y0044597D01*
X0063647Y0044368D01*
X0063452Y0044226D01*
X0063211Y0044226D01*
X0063056Y0044321D01*
X0062785Y0044593D01*
X0062785Y0044593D01*
X0062785Y0044593D01*
X0062381Y0044771D01*
X0062282Y0044782D01*
X0057895Y0044782D01*
X0057895Y0044782D01*
X0057796Y0044771D01*
X0057796Y0044771D01*
X0057393Y0044593D01*
X0057081Y0044281D01*
X0056902Y0043877D01*
X0056902Y0043877D01*
X0056891Y0043779D01*
X0056891Y0042245D01*
X0056891Y0042245D01*
X0056891Y0042245D01*
X0056900Y0042163D01*
X0056902Y0042147D01*
X0056902Y0042147D01*
X0057081Y0041743D01*
X0057081Y0041743D01*
X0057081Y0041743D01*
X0057393Y0041431D01*
X0057393Y0041431D01*
X0057406Y0041417D01*
X0057516Y0041203D01*
X0057478Y0040965D01*
X0057406Y0040866D01*
X0057393Y0040853D01*
X0057393Y0040853D01*
X0057234Y0040694D01*
X0057081Y0040541D01*
X0057068Y0040523D01*
X0056877Y0040376D01*
X0056747Y0040353D01*
X0055241Y0040353D01*
X0055165Y0040361D01*
X0055096Y0040374D01*
X0054828Y0040321D01*
X0054797Y0040315D01*
X0054674Y0040291D01*
X0054674Y0040291D01*
X0054316Y0040052D01*
X0054316Y0040052D01*
X0054277Y0039993D01*
X0054228Y0039934D01*
X0053581Y0039286D01*
X0053366Y0039177D01*
X0053305Y0039172D01*
X0051582Y0039172D01*
X0051353Y0039247D01*
X0051211Y0039442D01*
X0051211Y0039682D01*
X0051287Y0039817D01*
X0051431Y0039983D01*
X0051642Y0040446D01*
X0051653Y0040522D01*
X0051709Y0040907D01*
X0051815Y0041123D01*
X0052028Y0041236D01*
X0052095Y0041242D01*
X0053326Y0041242D01*
X0053326Y0041242D01*
X0053424Y0041253D01*
X0053828Y0041431D01*
X0054140Y0041743D01*
X0054318Y0042147D01*
X0054330Y0042245D01*
X0054330Y0043779D01*
X0054318Y0043877D01*
X0054318Y0043877D01*
X0054318Y0043877D01*
X0054140Y0044281D01*
X0054140Y0044281D01*
X0054140Y0044281D01*
X0053828Y0044593D01*
X0053828Y0044593D01*
X0053828Y0044593D01*
X0053424Y0044771D01*
X0053326Y0044782D01*
X0048938Y0044782D01*
X0048938Y0044782D01*
X0048839Y0044771D01*
X0048839Y0044771D01*
X0048436Y0044593D01*
X0048124Y0044281D01*
X0047946Y0043877D01*
X0047946Y0043877D01*
X0047934Y0043779D01*
X0047934Y0043779D01*
X0047934Y0042234D01*
X0047931Y0042234D01*
X0047873Y0042012D01*
X0047687Y0041860D01*
X0047446Y0041846D01*
X0047329Y0041899D01*
X0047325Y0041901D01*
X0047020Y0042105D01*
X0047020Y0042105D01*
X0047020Y0042105D01*
X0046901Y0042129D01*
X0046862Y0042137D01*
X0046598Y0042189D01*
X0046598Y0042189D01*
X0046529Y0042175D01*
X0046453Y0042168D01*
X0044846Y0042168D01*
X0044616Y0042242D01*
X0044475Y0042437D01*
X0044475Y0042678D01*
X0044518Y0042768D01*
X0044531Y0042789D01*
X0044531Y0042789D01*
X0044742Y0043252D01*
X0044743Y0043260D01*
X0044815Y0043756D01*
X0044815Y0043756D01*
X0044742Y0044260D01*
X0044742Y0044260D01*
X0044742Y0044260D01*
X0044531Y0044723D01*
X0044197Y0045107D01*
X0044186Y0045114D01*
X0043769Y0045383D01*
X0043280Y0045526D01*
X0043280Y0045526D01*
X0042771Y0045526D01*
X0042771Y0045526D01*
X0042283Y0045383D01*
X0042283Y0045383D01*
X0041855Y0045107D01*
X0041695Y0044923D01*
X0041489Y0044799D01*
X0041249Y0044819D01*
X0041066Y0044977D01*
X0041057Y0044994D01*
X0041052Y0045003D01*
X0041052Y0045003D01*
X0041052Y0045003D01*
X0040719Y0045387D01*
X0040290Y0045663D01*
X0040024Y0045741D01*
X0039802Y0045806D01*
X0039802Y0045806D01*
X0039293Y0045806D01*
X0039293Y0045806D01*
X0038804Y0045663D01*
X0038756Y0045631D01*
X0038523Y0045570D01*
X0038388Y0045603D01*
X0038041Y0045756D01*
X0038041Y0045756D01*
X0038041Y0045756D01*
X0037946Y0045767D01*
X0037946Y0045767D01*
X0036503Y0045767D01*
X0036503Y0045767D01*
X0036408Y0045756D01*
X0036018Y0045583D01*
X0035735Y0045301D01*
X0035521Y0045192D01*
X0035283Y0045230D01*
X0035132Y0045380D01*
X0035129Y0045378D01*
X0035116Y0045396D01*
X0035112Y0045400D01*
X0035110Y0045405D01*
X0035110Y0045406D01*
X0034776Y0045740D01*
X0034445Y0045894D01*
X0034445Y0042020D01*
X0034445Y0042020D01*
X0034776Y0042174D01*
X0035110Y0042508D01*
X0035129Y0042536D01*
X0035135Y0042532D01*
X0035271Y0042678D01*
X0035507Y0042724D01*
X0035726Y0042622D01*
X0035735Y0042613D01*
X0035970Y0042378D01*
X0036079Y0042163D01*
X0036084Y0042102D01*
X0036084Y0040923D01*
X0036010Y0040694D01*
X0035815Y0040553D01*
X0035695Y0040534D01*
X0032796Y0040534D01*
X0032796Y0040534D01*
X0032698Y0040522D01*
X0032698Y0040522D01*
X0032294Y0040344D01*
X0031982Y0040032D01*
X0031804Y0039628D01*
X0031804Y0039628D01*
X0031793Y0039530D01*
X0031793Y0037996D01*
X0031793Y0037996D01*
X0031804Y0037898D01*
X0031804Y0037898D01*
X0031982Y0037494D01*
X0031982Y0037494D01*
X0031982Y0037494D01*
X0032294Y0037182D01*
X0032294Y0037182D01*
X0032294Y0037182D01*
X0032452Y0037112D01*
X0032698Y0037004D01*
X0032796Y0036993D01*
X0035808Y0036993D01*
X0036037Y0036918D01*
X0036179Y0036723D01*
X0036179Y0036482D01*
X0036084Y0036327D01*
X0035853Y0036097D01*
X0035794Y0036049D01*
X0035736Y0036010D01*
X0035533Y0035706D01*
X0035497Y0035652D01*
X0035413Y0035230D01*
X0035427Y0035161D01*
X0035434Y0035085D01*
X0035434Y0033443D01*
X0035360Y0033214D01*
X0035165Y0033072D01*
X0035045Y0033053D01*
X0032796Y0033053D01*
X0032796Y0033053D01*
X0032698Y0033042D01*
X0032698Y0033042D01*
X0032294Y0032864D01*
X0031982Y0032552D01*
X0031804Y0032148D01*
X0031804Y0032148D01*
X0031793Y0032050D01*
X0031793Y0030516D01*
X0031793Y0030516D01*
X0031804Y0030417D01*
X0031804Y0030417D01*
X0031982Y0030014D01*
X0031982Y0030014D01*
X0031982Y0030014D01*
X0032294Y0029702D01*
X0032294Y0029702D01*
X0032294Y0029702D01*
X0032437Y0029639D01*
X0032698Y0029524D01*
X0032796Y0029512D01*
X0037184Y0029512D01*
X0037283Y0029524D01*
X0037328Y0029544D01*
X0037443Y0029594D01*
X0037686Y0029702D01*
X0037998Y0030014D01*
X0038176Y0030417D01*
X0038188Y0030516D01*
X0038188Y0032049D01*
X0038176Y0032148D01*
X0038176Y0032148D01*
X0038176Y0032148D01*
X0037998Y0032552D01*
X0037998Y0032552D01*
X0037998Y0032552D01*
X0037711Y0032838D01*
X0037602Y0033053D01*
X0037597Y0033114D01*
X0037597Y0033253D01*
X0037672Y0033482D01*
X0037867Y0033624D01*
X0038107Y0033624D01*
X0038282Y0033508D01*
X0038399Y0033373D01*
X0038827Y0033098D01*
X0039316Y0032954D01*
X0039316Y0032954D01*
X0039825Y0032954D01*
X0039825Y0032954D01*
X0039825Y0032954D01*
X0039825Y0032954D01*
X0040012Y0033009D01*
X0040260Y0033082D01*
X0040501Y0033075D01*
X0040691Y0032928D01*
X0040759Y0032697D01*
X0040720Y0032537D01*
X0040596Y0032283D01*
X0040596Y0032283D01*
X0044557Y0032283D01*
X0044786Y0032208D01*
X0044928Y0032013D01*
X0044947Y0031893D01*
X0044947Y0029314D01*
X0044947Y0029314D01*
X0046095Y0029314D01*
X0046095Y0029314D01*
X0046393Y0029358D01*
X0046394Y0029351D01*
X0046598Y0029348D01*
X0046767Y0029234D01*
X0046768Y0029232D01*
X0046768Y0029232D01*
X0047102Y0028848D01*
X0047530Y0028572D01*
X0048018Y0028429D01*
X0048018Y0028429D01*
X0048528Y0028429D01*
X0048528Y0028429D01*
X0049016Y0028572D01*
X0049016Y0028572D01*
X0049019Y0028574D01*
X0049022Y0028574D01*
X0049043Y0028580D01*
X0049044Y0028577D01*
X0049259Y0028601D01*
X0049468Y0028483D01*
X0049568Y0028264D01*
X0049571Y0028219D01*
X0049571Y0027364D01*
X0049571Y0027364D01*
X0049628Y0027077D01*
X0049628Y0027077D01*
X0049628Y0027077D01*
X0049819Y0026792D01*
X0049884Y0026560D01*
X0049819Y0026358D01*
X0049628Y0026073D01*
X0049628Y0026073D01*
X0049571Y0025786D01*
X0049571Y0025786D01*
X0049571Y0024805D01*
X0049571Y0024805D01*
X0049628Y0024518D01*
X0049628Y0024518D01*
X0049628Y0024518D01*
X0049764Y0024314D01*
X0049819Y0024232D01*
X0049884Y0024001D01*
X0049819Y0023799D01*
X0049657Y0023556D01*
X0049467Y0023407D01*
X0049227Y0023398D01*
X0049026Y0023532D01*
X0048943Y0023758D01*
X0048943Y0023773D01*
X0048943Y0023899D01*
X0048917Y0024094D01*
X0048917Y0024094D01*
X0048718Y0024521D01*
X0048384Y0024855D01*
X0047956Y0025055D01*
X0047956Y0025055D01*
X0047935Y0025058D01*
X0047935Y0022580D01*
X0047860Y0022351D01*
X0047665Y0022210D01*
X0047545Y0022191D01*
X0046325Y0022191D01*
X0046095Y0022265D01*
X0045954Y0022460D01*
X0045935Y0022580D01*
X0045935Y0024451D01*
X0045939Y0024507D01*
X0045984Y0024818D01*
X0045984Y0024818D01*
X0045911Y0025322D01*
X0045911Y0025322D01*
X0045911Y0025322D01*
X0045700Y0025785D01*
X0045366Y0026170D01*
X0045276Y0026228D01*
X0044938Y0026445D01*
X0044449Y0026589D01*
X0044449Y0026589D01*
X0043940Y0026589D01*
X0043940Y0026589D01*
X0043452Y0026445D01*
X0043452Y0026445D01*
X0043445Y0026441D01*
X0043438Y0026439D01*
X0043426Y0026434D01*
X0043426Y0026436D01*
X0043212Y0026379D01*
X0042987Y0026467D01*
X0042857Y0026669D01*
X0042871Y0026910D01*
X0042879Y0026930D01*
X0042999Y0027193D01*
X0042999Y0027193D01*
X0043072Y0027697D01*
X0043072Y0027697D01*
X0042999Y0028200D01*
X0042999Y0028200D01*
X0042999Y0028200D01*
X0042788Y0028664D01*
X0042783Y0028669D01*
X0042780Y0028675D01*
X0042773Y0028687D01*
X0042775Y0028688D01*
X0042689Y0028891D01*
X0042744Y0029126D01*
X0042854Y0029222D01*
X0042947Y0029314D01*
X0042947Y0030283D01*
X0042947Y0030283D01*
X0040596Y0030283D01*
X0040796Y0029873D01*
X0040829Y0029635D01*
X0040717Y0029422D01*
X0040555Y0029328D01*
X0040540Y0029324D01*
X0040540Y0029324D01*
X0040112Y0029048D01*
X0040112Y0029048D01*
X0040112Y0029048D01*
X0039907Y0028813D01*
X0039778Y0028664D01*
X0039567Y0028200D01*
X0039567Y0028200D01*
X0039517Y0027856D01*
X0039411Y0027640D01*
X0039198Y0027527D01*
X0039131Y0027521D01*
X0038810Y0027521D01*
X0038321Y0027378D01*
X0038321Y0027378D01*
X0037893Y0027103D01*
X0037893Y0027103D01*
X0037893Y0027103D01*
X0037603Y0026769D01*
X0037560Y0026718D01*
X0037348Y0026255D01*
X0037348Y0026255D01*
X0037323Y0026083D01*
X0037217Y0025866D01*
X0037004Y0025754D01*
X0036766Y0025788D01*
X0036739Y0025802D01*
X0036593Y0025889D01*
X0035972Y0026069D01*
X0035972Y0026069D01*
X0035972Y0026069D01*
X0035872Y0026077D01*
X0035827Y0026081D01*
X0033242Y0026081D01*
X0033200Y0026078D01*
X0033097Y0026069D01*
X0033097Y0026069D01*
X0032476Y0025889D01*
X0031919Y0025560D01*
X0031461Y0025102D01*
X0031132Y0024545D01*
X0030951Y0023924D01*
X0030951Y0023924D01*
X0030940Y0023778D01*
X0030940Y0023047D01*
X0030866Y0022818D01*
X0030671Y0022676D01*
X0030644Y0022668D01*
X0030209Y0022561D01*
X0029969Y0022579D01*
X0029785Y0022734D01*
X0029726Y0022940D01*
X0029726Y0042957D01*
X0031578Y0042957D01*
X0031581Y0042936D01*
X0031780Y0042508D01*
X0032114Y0042174D01*
X0032445Y0042020D01*
X0032445Y0042020D01*
X0032445Y0042957D01*
X0032445Y0042957D01*
X0031578Y0042957D01*
X0031578Y0042957D01*
X0029726Y0042957D01*
X0029726Y0044957D01*
X0031578Y0044957D01*
X0031578Y0044957D01*
X0032445Y0044957D01*
X0032445Y0044957D01*
X0032445Y0045894D01*
X0032114Y0045740D01*
X0031780Y0045406D01*
X0031581Y0044978D01*
X0031578Y0044957D01*
X0029726Y0044957D01*
X0029726Y0046658D01*
X0029801Y0046887D01*
X0029996Y0047028D01*
X0030116Y0047047D01*
X0086147Y0047047D01*
X0086377Y0046973D01*
G37*
G36*
X0084151Y0026520D02*
G01*
X0084160Y0026510D01*
X0084324Y0026347D01*
X0084433Y0026132D01*
X0084396Y0025894D01*
X0084324Y0025796D01*
X0084041Y0025512D01*
X0083906Y0025223D01*
X0083741Y0025047D01*
X0083505Y0025001D01*
X0083287Y0025102D01*
X0083196Y0025230D01*
X0083188Y0025247D01*
X0083126Y0025389D01*
X0083077Y0025437D01*
X0082968Y0025652D01*
X0083006Y0025890D01*
X0083176Y0026060D01*
X0083188Y0026066D01*
X0083201Y0026072D01*
X0083535Y0026406D01*
X0083554Y0026434D01*
X0083560Y0026430D01*
X0083696Y0026575D01*
X0083932Y0026621D01*
X0084151Y0026520D01*
G37*
G36*
X0052421Y0031954D02*
G01*
X0052562Y0031760D01*
X0052562Y0031519D01*
X0052546Y0031477D01*
X0052378Y0031110D01*
X0052378Y0031110D01*
X0052306Y0030606D01*
X0052306Y0030606D01*
X0052378Y0030102D01*
X0052378Y0030102D01*
X0052378Y0030102D01*
X0052378Y0030102D01*
X0052454Y0029937D01*
X0052524Y0029783D01*
X0052551Y0029544D01*
X0052433Y0029334D01*
X0052214Y0029234D01*
X0052169Y0029231D01*
X0050457Y0029231D01*
X0050457Y0029231D01*
X0050447Y0029229D01*
X0050442Y0029230D01*
X0050438Y0029229D01*
X0050438Y0029230D01*
X0050208Y0029258D01*
X0050031Y0029421D01*
X0049984Y0029657D01*
X0049986Y0029668D01*
X0049985Y0029668D01*
X0050062Y0030199D01*
X0050062Y0030199D01*
X0049989Y0030703D01*
X0049989Y0030703D01*
X0049989Y0030703D01*
X0049778Y0031166D01*
X0049589Y0031384D01*
X0049495Y0031606D01*
X0049550Y0031840D01*
X0049732Y0031998D01*
X0049884Y0032029D01*
X0052192Y0032029D01*
X0052421Y0031954D01*
G37*
G36*
X0056976Y0038116D02*
G01*
X0057068Y0038021D01*
X0057081Y0038003D01*
X0057081Y0038003D01*
X0057081Y0038003D01*
X0057266Y0037817D01*
X0057375Y0037603D01*
X0057338Y0037365D01*
X0057266Y0037266D01*
X0056934Y0036934D01*
X0056737Y0036532D01*
X0060699Y0036532D01*
X0060928Y0036457D01*
X0061070Y0036262D01*
X0061089Y0036142D01*
X0061089Y0034921D01*
X0061014Y0034692D01*
X0060819Y0034551D01*
X0060699Y0034532D01*
X0056737Y0034532D01*
X0056934Y0034129D01*
X0057230Y0033834D01*
X0057339Y0033619D01*
X0057301Y0033381D01*
X0057131Y0033211D01*
X0056954Y0033168D01*
X0056424Y0033168D01*
X0056195Y0033243D01*
X0056149Y0033282D01*
X0055658Y0033773D01*
X0055610Y0033832D01*
X0055571Y0033890D01*
X0055571Y0033890D01*
X0055476Y0033954D01*
X0055213Y0034129D01*
X0054898Y0034192D01*
X0054846Y0034202D01*
X0054791Y0034213D01*
X0054791Y0034213D01*
X0054791Y0034213D01*
X0054778Y0034210D01*
X0054756Y0034213D01*
X0054753Y0034213D01*
X0054753Y0034213D01*
X0054539Y0034239D01*
X0054362Y0034402D01*
X0054315Y0034638D01*
X0054318Y0034666D01*
X0054318Y0034666D01*
X0054330Y0034765D01*
X0054330Y0036298D01*
X0054318Y0036397D01*
X0054304Y0036429D01*
X0054224Y0036609D01*
X0054200Y0036849D01*
X0054321Y0037057D01*
X0054364Y0037091D01*
X0054397Y0037112D01*
X0054694Y0037311D01*
X0054733Y0037369D01*
X0054782Y0037428D01*
X0055429Y0038076D01*
X0055644Y0038186D01*
X0055705Y0038190D01*
X0056747Y0038190D01*
X0056976Y0038116D01*
G37*
X0041339Y0052520D02*
G01*
G75*
G36*
X0072164Y0064922D02*
X0071807Y0064851D01*
X0071404Y0064581D01*
X0071378Y0064543D01*
X0070866Y0064312D01*
X0070643Y0064424D01*
X0070559Y0064480D01*
X0070236Y0064544D01*
X0068347Y0064544D01*
X0068024Y0064480D01*
X0067823Y0064346D01*
X0067690Y0064434D01*
X0066999Y0064572D01*
X0066308Y0064434D01*
X0065722Y0064043D01*
X0065330Y0063457D01*
X0065296Y0063287D01*
X0064706Y0063327D01*
X0064603Y0063842D01*
X0064312Y0064278D01*
X0063876Y0064569D01*
X0063361Y0064672D01*
X0062810Y0064672D01*
X0062810Y0061989D01*
X0062810Y0059305D01*
X0063361Y0059305D01*
X0063530Y0059339D01*
X0064026Y0058982D01*
X0064070Y0058366D01*
X0064014Y0058304D01*
X0063537Y0058015D01*
X0063361Y0058050D01*
X0060684Y0058050D01*
X0060323Y0057978D01*
X0060017Y0057774D01*
X0059812Y0057468D01*
X0059741Y0057107D01*
X0059741Y0056979D01*
X0059150Y0056800D01*
X0059131Y0056828D01*
X0058871Y0057002D01*
X0058563Y0057063D01*
X0056989Y0057063D01*
X0056681Y0057002D01*
X0056421Y0056828D01*
X0056332Y0056695D01*
X0056128Y0056649D01*
X0055881Y0056649D01*
X0055676Y0056695D01*
X0055588Y0056828D01*
X0055327Y0057002D01*
X0055020Y0057063D01*
X0053445Y0057063D01*
X0053138Y0057002D01*
X0053048Y0056942D01*
X0052896Y0057043D01*
X0052205Y0057181D01*
X0051514Y0057043D01*
X0050978Y0057327D01*
X0050893Y0057458D01*
X0050939Y0057528D01*
X0051000Y0057835D01*
X0051000Y0059803D01*
X0050939Y0060111D01*
X0050765Y0060371D01*
X0050752Y0060379D01*
X0050751Y0060607D01*
X0050891Y0060997D01*
X0051071Y0061032D01*
X0051344Y0061215D01*
X0051510Y0061464D01*
X0051622Y0061480D01*
X0052118Y0061434D01*
X0052138Y0061335D01*
X0052408Y0060931D01*
X0052811Y0060662D01*
X0053288Y0060567D01*
X0053445Y0060567D01*
X0053445Y0062756D01*
X0055020Y0062756D01*
X0055020Y0060567D01*
X0055177Y0060567D01*
X0055330Y0060597D01*
X0055741Y0060526D01*
X0055971Y0060169D01*
X0056043Y0059807D01*
X0056435Y0059221D01*
X0057021Y0058829D01*
X0057712Y0058692D01*
X0058403Y0058829D01*
X0058989Y0059221D01*
X0059166Y0059485D01*
X0059300Y0059535D01*
X0059894Y0059591D01*
X0060169Y0059408D01*
X0060684Y0059305D01*
X0061235Y0059305D01*
X0061235Y0061989D01*
X0061235Y0064672D01*
X0060684Y0064672D01*
X0060169Y0064569D01*
X0059710Y0064297D01*
X0059437Y0064480D01*
X0059114Y0064544D01*
X0057225Y0064544D01*
X0056902Y0064480D01*
X0056818Y0064424D01*
X0056596Y0064312D01*
X0056083Y0064543D01*
X0056057Y0064581D01*
X0055654Y0064851D01*
X0055298Y0064922D01*
X0055356Y0065512D01*
X0072105Y0065512D01*
X0072164Y0064922D01*
D02*
G37*
G36*
X0053167Y0064922D02*
X0052811Y0064851D01*
X0052408Y0064581D01*
X0052138Y0064177D01*
X0052118Y0064078D01*
X0051622Y0064033D01*
X0051510Y0064049D01*
X0051344Y0064297D01*
X0051071Y0064480D01*
X0050748Y0064544D01*
X0048858Y0064544D01*
X0048536Y0064480D01*
X0048262Y0064297D01*
X0048163Y0064148D01*
X0047943Y0064101D01*
X0047726Y0064101D01*
X0047507Y0064148D01*
X0047407Y0064297D01*
X0047134Y0064480D01*
X0046811Y0064544D01*
X0044921Y0064544D01*
X0044599Y0064480D01*
X0044325Y0064297D01*
X0043768Y0064526D01*
X0043365Y0064796D01*
X0042733Y0064922D01*
X0042792Y0065512D01*
X0053109Y0065512D01*
X0053167Y0064922D01*
D02*
G37*
G36*
X0042387Y0056825D02*
X0042290Y0056338D01*
X0042428Y0055647D01*
X0042819Y0055061D01*
X0043405Y0054669D01*
X0044096Y0054532D01*
X0044337Y0053984D01*
X0044512Y0053724D01*
X0044772Y0053550D01*
X0045079Y0053489D01*
X0046654Y0053489D01*
X0046961Y0053550D01*
X0047222Y0053724D01*
X0047310Y0053856D01*
X0047515Y0053902D01*
X0047762Y0053902D01*
X0047966Y0053856D01*
X0048055Y0053724D01*
X0048315Y0053550D01*
X0048622Y0053489D01*
X0050197Y0053489D01*
X0050505Y0053550D01*
X0050765Y0053724D01*
X0051448Y0053749D01*
X0051514Y0053705D01*
X0052205Y0053568D01*
X0052896Y0053705D01*
X0052901Y0053708D01*
X0053138Y0053550D01*
X0053445Y0053489D01*
X0055020Y0053489D01*
X0055327Y0053550D01*
X0055588Y0053724D01*
X0055676Y0053856D01*
X0055881Y0053902D01*
X0056128Y0053902D01*
X0056332Y0053856D01*
X0056421Y0053724D01*
X0056681Y0053550D01*
X0056989Y0053489D01*
X0058563Y0053489D01*
X0058871Y0053550D01*
X0059131Y0053724D01*
X0059234Y0053879D01*
X0059939Y0053879D01*
X0060017Y0053762D01*
X0060323Y0053558D01*
X0060684Y0053486D01*
X0063361Y0053486D01*
X0063722Y0053558D01*
X0064028Y0053762D01*
X0064616Y0053747D01*
X0064923Y0053686D01*
X0066892Y0053686D01*
X0067199Y0053747D01*
X0067459Y0053921D01*
X0068024Y0053749D01*
X0068347Y0053685D01*
X0070237Y0053685D01*
X0070559Y0053749D01*
X0070833Y0053932D01*
X0070932Y0054081D01*
X0071152Y0054128D01*
X0071369Y0054128D01*
X0071588Y0054081D01*
X0071688Y0053932D01*
X0071961Y0053749D01*
X0072284Y0053685D01*
X0074174Y0053685D01*
X0074496Y0053749D01*
X0074770Y0053932D01*
X0075297Y0053657D01*
X0075927Y0053236D01*
X0076559Y0053111D01*
X0076501Y0052520D01*
X0041339Y0052520D01*
X0041339Y0056742D01*
X0041832Y0057059D01*
X0042387Y0056825D01*
D02*
G37*
D18*
X0052156Y0055325D02*
X0052205Y0055374D01*
X0051920Y0055325D02*
X0054085Y0055325D01*
X0049348Y0055017D02*
X0049656Y0055325D01*
X0054085Y0055325D02*
X0054393Y0055017D01*
X0049656Y0055325D02*
X0052156Y0055325D01*
X0051870Y0055374D02*
X0051920Y0055325D01*
X0070079Y0061837D02*
X0070079Y0061969D01*
X0072048Y0059664D02*
X0072048Y0059868D01*
X0069292Y0062756D02*
X0070079Y0061969D01*
X0072835Y0058877D02*
X0073039Y0058877D01*
X0070079Y0061837D02*
X0072048Y0059868D01*
X0072048Y0059664D02*
X0072835Y0058877D01*
X0069095Y0058877D02*
X0069292Y0058680D01*
X0069292Y0055473D02*
X0069292Y0058680D01*
X0066999Y0062756D02*
X0069292Y0062756D01*
X0066034Y0058848D02*
X0069467Y0058848D01*
X0066006Y0058819D02*
X0066034Y0058848D01*
X0058071Y0054882D02*
X0061418Y0054882D01*
X0062613Y0055276D02*
X0066006Y0055276D01*
X0062121Y0055768D02*
X0062613Y0055276D01*
X0073109Y0055268D02*
X0076772Y0055268D01*
X0066994Y0062761D02*
X0066999Y0062766D01*
X0044096Y0056338D02*
X0044398Y0056037D01*
X0045276Y0056037D01*
X0045276Y0056002D02*
X0045276Y0056037D01*
X0045276Y0056002D02*
X0045670Y0055608D01*
X0045867Y0055276D02*
X0045867Y0058819D01*
X0042821Y0059405D02*
X0045079Y0061662D01*
X0045079Y0061969D01*
X0042520Y0058819D02*
X0042684Y0058819D01*
X0042821Y0058956D02*
X0042821Y0059405D01*
X0042684Y0058819D02*
X0042821Y0058956D01*
X0045079Y0061969D02*
X0045867Y0062756D01*
X0049508Y0059114D02*
X0049508Y0062461D01*
X0049213Y0058819D02*
X0049508Y0059114D01*
X0049508Y0062461D02*
X0049804Y0062756D01*
D12*
X0059646Y0065118D02*
D03*
X0059646Y0052914D02*
D03*
D11*
X0041733Y0054981D02*
D03*
D28*
X0073622Y0062016D02*
X0076622Y0059016D01*
X0073622Y0062016D02*
X0073622Y0062363D01*
X0076622Y0059016D02*
X0076772Y0059016D01*
X0073229Y0062756D02*
X0073622Y0062363D01*
X0058071Y0062525D02*
X0058285Y0062739D01*
X0057712Y0060711D02*
X0058071Y0061070D01*
X0058071Y0062525D01*
X0057712Y0060498D02*
X0057712Y0060711D01*
D10*
X0076772Y0062756D02*
D03*
X0076772Y0059016D02*
D03*
X0076772Y0055276D02*
D03*
X0042520Y0059213D02*
D03*
X0042520Y0062756D02*
D03*
X0052205Y0055374D02*
D03*
X0066999Y0062766D02*
D03*
X0057712Y0060498D02*
D03*
X0044096Y0056338D02*
D03*
X0042579Y0053805D02*
D03*
X0055281Y0058367D02*
D03*
X0052542Y0059423D02*
D03*
D31*
X0069292Y0062756D02*
D03*
X0073229Y0062756D02*
D03*
X0058169Y0062756D02*
D03*
X0054232Y0062756D02*
D03*
X0049803Y0062756D02*
D03*
X0045866Y0062756D02*
D03*
X0069292Y0055473D02*
D03*
X0073229Y0055473D02*
D03*
D32*
X0065907Y0055276D02*
D03*
X0065907Y0058819D02*
D03*
D33*
X0062022Y0061989D02*
D03*
X0062022Y0055768D02*
D03*
D34*
X0049410Y0058819D02*
D03*
X0045867Y0058819D02*
D03*
X0057776Y0055276D02*
D03*
X0054233Y0055276D02*
D03*
X0072638Y0058877D02*
D03*
X0069095Y0058877D02*
D03*
X0045867Y0055276D02*
D03*
X0049410Y0055276D02*
D03*
M02*
