G75*
G70*
%OFA0B0*%
%FSLAX25Y25*%
%IPPOS*%
%LPD*%
%AMOC8*
5,1,8,0,0,1.08239X$1,22.5*
%
%ADD10C,0.02362*%
%ADD11O,0.00787X0.04823*%
%ADD12O,0.36614X0.00787*%
%ADD13R,0.00984X0.24350*%
%ADD14R,0.00984X0.04390*%
%ADD15R,0.56201X0.00984*%
%ADD16R,0.59449X0.00984*%
%ADD17R,0.00984X0.20374*%
X0029626Y0008760D02*
%LPD*%
G01*
D10*
X0087894Y0035925D03*
X0087894Y0031201D03*
X0087894Y0040650D03*
X0087894Y0045374D03*
D13*
X0030217Y0034872D03*
D14*
X0030217Y0011053D03*
D15*
X0057825Y0046555D03*
D16*
X0059449Y0009351D03*
D17*
X0088681Y0019045D03*
D10*
X0031102Y0019941D03*
X0031102Y0016004D03*
D10*
X0041283Y0027697D03*
X0047510Y0045667D03*
X0088051Y0010138D03*
X0031280Y0043917D03*
X0031496Y0035630D03*
X0064862Y0010335D03*
X0056515Y0034615D03*
X0038810Y0017961D03*
X0051151Y0030842D03*
X0046949Y0010335D03*
X0038719Y0010390D03*
X0068701Y0030315D03*
X0070871Y0022419D03*
X0031004Y0027461D03*
X0058366Y0029823D03*
X0087894Y0019095D03*
X0065551Y0026083D03*
X0077347Y0045458D03*
X0087795Y0014961D03*
X0044195Y0024818D03*
X0043899Y0011672D03*
X0061775Y0025612D03*
X0048391Y0017740D03*
X0039064Y0025751D03*
X0039547Y0044036D03*
X0085373Y0016645D03*
X0049926Y0040950D03*
X0048273Y0030199D03*
X0059161Y0015529D03*
X0080611Y0016734D03*
X0075392Y0043169D03*
X0043026Y0043756D03*
X0072441Y0043764D03*
X0071749Y0030019D03*
X0071084Y0037054D03*
X0059565Y0019033D03*
X0039570Y0034725D03*
X0054094Y0030606D03*
X0057839Y0026564D03*
X0058465Y0022638D03*
X0069882Y0027461D03*
X0077230Y0030471D03*
X0071518Y0011931D03*
X0058661Y0011811D03*
G36*
X0086377Y0046973D02*
G01*
X0086518Y0046778D01*
X0086518Y0046537D01*
X0086442Y0046402D01*
X0086389Y0046341D01*
X0086177Y0045878D01*
X0086177Y0045878D01*
X0086105Y0045374D01*
X0086105Y0045374D01*
X0086177Y0044870D01*
X0086177Y0044870D01*
X0086177Y0044870D01*
X0086177Y0044870D01*
X0086389Y0044407D01*
X0086617Y0044144D01*
X0086711Y0043922D01*
X0086713Y0043888D01*
X0086713Y0042136D01*
X0086638Y0041907D01*
X0086617Y0041880D01*
X0086389Y0041617D01*
X0086177Y0041154D01*
X0086177Y0041154D01*
X0086105Y0040650D01*
X0086105Y0040650D01*
X0086177Y0040146D01*
X0086177Y0040146D01*
X0086177Y0040146D01*
X0086177Y0040146D01*
X0086389Y0039683D01*
X0086617Y0039419D01*
X0086711Y0039197D01*
X0086713Y0039164D01*
X0086713Y0037411D01*
X0086638Y0037182D01*
X0086617Y0037156D01*
X0086389Y0036892D01*
X0086177Y0036429D01*
X0086177Y0036429D01*
X0086105Y0035925D01*
X0086105Y0035925D01*
X0086177Y0035421D01*
X0086177Y0035421D01*
X0086177Y0035421D01*
X0086177Y0035421D01*
X0086389Y0034958D01*
X0086617Y0034695D01*
X0086711Y0034473D01*
X0086713Y0034439D01*
X0086713Y0032687D01*
X0086638Y0032458D01*
X0086617Y0032432D01*
X0086389Y0032168D01*
X0086177Y0031705D01*
X0086177Y0031705D01*
X0086105Y0031201D01*
X0086105Y0031201D01*
X0086177Y0030697D01*
X0086177Y0030697D01*
X0086177Y0030697D01*
X0086177Y0030697D01*
X0086389Y0030234D01*
X0086722Y0029849D01*
X0087151Y0029574D01*
X0087639Y0029430D01*
X0087639Y0029430D01*
X0088148Y0029430D01*
X0088148Y0029430D01*
X0088637Y0029574D01*
X0088637Y0029574D01*
X0088664Y0029582D01*
X0088666Y0029572D01*
X0088861Y0029594D01*
X0089071Y0029476D01*
X0089171Y0029257D01*
X0089173Y0029212D01*
X0089173Y0009250D01*
X0089099Y0009021D01*
X0088904Y0008879D01*
X0088783Y0008860D01*
X0030116Y0008860D01*
X0029887Y0008935D01*
X0029745Y0009130D01*
X0029726Y0009250D01*
X0029726Y0011672D01*
X0042111Y0011672D01*
X0042183Y0011168D01*
X0042183Y0011168D01*
X0042183Y0011168D01*
X0042183Y0011168D01*
X0042394Y0010705D01*
X0042728Y0010320D01*
X0043156Y0010045D01*
X0043645Y0009901D01*
X0043645Y0009901D01*
X0044154Y0009901D01*
X0044154Y0009901D01*
X0044642Y0010045D01*
X0045071Y0010320D01*
X0045404Y0010705D01*
X0045615Y0011168D01*
X0045615Y0011168D01*
X0045688Y0011672D01*
X0045688Y0011672D01*
X0045615Y0012176D01*
X0045615Y0012176D01*
X0045615Y0012176D01*
X0045404Y0012639D01*
X0045071Y0013024D01*
X0044642Y0013299D01*
X0044154Y0013442D01*
X0044154Y0013442D01*
X0043645Y0013442D01*
X0043645Y0013442D01*
X0043156Y0013299D01*
X0043156Y0013299D01*
X0042728Y0013024D01*
X0042394Y0012639D01*
X0042183Y0012176D01*
X0042183Y0012176D01*
X0042111Y0011672D01*
X0042111Y0011672D01*
X0029726Y0011672D01*
X0029726Y0013005D01*
X0029801Y0013234D01*
X0029996Y0013376D01*
X0030209Y0013384D01*
X0030768Y0013246D01*
X0030768Y0013246D01*
X0031437Y0013246D01*
X0031437Y0013246D01*
X0032088Y0013406D01*
X0032681Y0013718D01*
X0033182Y0014162D01*
X0033562Y0014713D01*
X0033800Y0015339D01*
X0033881Y0016004D01*
X0033800Y0016669D01*
X0033562Y0017295D01*
X0033255Y0017740D01*
X0046602Y0017740D01*
X0046674Y0017236D01*
X0046674Y0017236D01*
X0046674Y0017236D01*
X0046674Y0017236D01*
X0046886Y0016773D01*
X0047219Y0016388D01*
X0047648Y0016113D01*
X0048136Y0015970D01*
X0048136Y0015970D01*
X0048645Y0015970D01*
X0048645Y0015970D01*
X0049134Y0016113D01*
X0049562Y0016388D01*
X0049895Y0016773D01*
X0050107Y0017236D01*
X0050107Y0017238D01*
X0050179Y0017740D01*
X0050179Y0017740D01*
X0050107Y0018244D01*
X0050107Y0018244D01*
X0050107Y0018244D01*
X0049895Y0018707D01*
X0049562Y0019092D01*
X0049134Y0019367D01*
X0048645Y0019511D01*
X0048645Y0019511D01*
X0048136Y0019511D01*
X0048136Y0019511D01*
X0047648Y0019367D01*
X0047648Y0019367D01*
X0047219Y0019092D01*
X0047219Y0019092D01*
X0047219Y0019092D01*
X0047169Y0019033D01*
X0046886Y0018707D01*
X0046674Y0018244D01*
X0046674Y0018244D01*
X0046602Y0017740D01*
X0046602Y0017740D01*
X0033255Y0017740D01*
X0033248Y0017751D01*
X0033179Y0017982D01*
X0033248Y0018194D01*
X0033562Y0018650D01*
X0033800Y0019276D01*
X0033881Y0019941D01*
X0033800Y0020606D01*
X0033562Y0021232D01*
X0033182Y0021783D01*
X0032681Y0022227D01*
X0032088Y0022539D01*
X0032088Y0022539D01*
X0032088Y0022539D01*
X0031437Y0022699D01*
X0031437Y0022699D01*
X0030768Y0022699D01*
X0030768Y0022699D01*
X0030209Y0022561D01*
X0029969Y0022579D01*
X0029785Y0022734D01*
X0029726Y0022940D01*
X0029726Y0025751D01*
X0037276Y0025751D01*
X0037348Y0025247D01*
X0037348Y0025247D01*
X0037348Y0025247D01*
X0037348Y0025247D01*
X0037560Y0024784D01*
X0037893Y0024399D01*
X0038321Y0024124D01*
X0038810Y0023981D01*
X0038810Y0023981D01*
X0039319Y0023981D01*
X0039319Y0023981D01*
X0039807Y0024124D01*
X0040236Y0024399D01*
X0040569Y0024784D01*
X0040781Y0025247D01*
X0040791Y0025322D01*
X0040830Y0025592D01*
X0040937Y0025808D01*
X0041150Y0025920D01*
X0041216Y0025926D01*
X0041538Y0025926D01*
X0041538Y0025926D01*
X0042026Y0026070D01*
X0042033Y0026074D01*
X0042040Y0026076D01*
X0042051Y0026081D01*
X0042052Y0026079D01*
X0042266Y0026135D01*
X0042491Y0026048D01*
X0042621Y0025845D01*
X0042607Y0025605D01*
X0042598Y0025584D01*
X0042479Y0025322D01*
X0042479Y0025322D01*
X0042406Y0024818D01*
X0042406Y0024818D01*
X0042479Y0024314D01*
X0042479Y0024314D01*
X0042479Y0024314D01*
X0042479Y0024314D01*
X0042690Y0023851D01*
X0043024Y0023466D01*
X0043452Y0023191D01*
X0043940Y0023048D01*
X0043940Y0023048D01*
X0044449Y0023048D01*
X0044449Y0023048D01*
X0044938Y0023191D01*
X0045366Y0023466D01*
X0045700Y0023851D01*
X0045911Y0024314D01*
X0045911Y0024314D01*
X0045984Y0024818D01*
X0045984Y0024818D01*
X0045911Y0025322D01*
X0045911Y0025322D01*
X0045911Y0025322D01*
X0045700Y0025785D01*
X0045366Y0026170D01*
X0044938Y0026445D01*
X0044812Y0026482D01*
X0044532Y0026564D01*
X0056050Y0026564D01*
X0056123Y0026060D01*
X0056123Y0026060D01*
X0056123Y0026060D01*
X0056123Y0026060D01*
X0056334Y0025597D01*
X0056668Y0025212D01*
X0057096Y0024937D01*
X0057424Y0024841D01*
X0057623Y0024705D01*
X0057704Y0024478D01*
X0057636Y0024247D01*
X0057525Y0024139D01*
X0057293Y0023990D01*
X0057293Y0023990D01*
X0057293Y0023990D01*
X0057165Y0023841D01*
X0056960Y0023605D01*
X0056748Y0023142D01*
X0056748Y0023142D01*
X0056676Y0022638D01*
X0056676Y0022638D01*
X0056748Y0022134D01*
X0056748Y0022134D01*
X0056748Y0022134D01*
X0056748Y0022134D01*
X0056960Y0021671D01*
X0057293Y0021286D01*
X0057722Y0021011D01*
X0058107Y0020898D01*
X0058306Y0020762D01*
X0058387Y0020535D01*
X0058319Y0020304D01*
X0058292Y0020268D01*
X0058060Y0020000D01*
X0057848Y0019537D01*
X0057848Y0019537D01*
X0057776Y0019033D01*
X0057776Y0019033D01*
X0057848Y0018530D01*
X0057848Y0018530D01*
X0057848Y0018530D01*
X0057848Y0018530D01*
X0058060Y0018066D01*
X0058393Y0017682D01*
X0058393Y0017682D01*
X0058400Y0017674D01*
X0058494Y0017452D01*
X0058439Y0017217D01*
X0058316Y0017091D01*
X0057990Y0016881D01*
X0057990Y0016881D01*
X0057990Y0016881D01*
X0057990Y0016881D01*
X0057657Y0016496D01*
X0057445Y0016033D01*
X0057445Y0016033D01*
X0057373Y0015529D01*
X0057373Y0015529D01*
X0057445Y0015025D01*
X0057445Y0015025D01*
X0057445Y0015025D01*
X0057445Y0015025D01*
X0057657Y0014562D01*
X0057990Y0014177D01*
X0058039Y0014146D01*
X0058191Y0013959D01*
X0058205Y0013719D01*
X0058075Y0013516D01*
X0057938Y0013444D01*
X0057918Y0013438D01*
X0057918Y0013438D01*
X0057490Y0013163D01*
X0057490Y0013163D01*
X0057490Y0013163D01*
X0057354Y0013005D01*
X0057157Y0012778D01*
X0056945Y0012315D01*
X0056945Y0012315D01*
X0056873Y0011811D01*
X0056873Y0011811D01*
X0056945Y0011307D01*
X0056945Y0011307D01*
X0056945Y0011307D01*
X0056945Y0011307D01*
X0057157Y0010844D01*
X0057490Y0010459D01*
X0057918Y0010184D01*
X0058407Y0010041D01*
X0058407Y0010041D01*
X0058916Y0010041D01*
X0058916Y0010041D01*
X0059404Y0010184D01*
X0059833Y0010459D01*
X0060166Y0010844D01*
X0060378Y0011307D01*
X0060395Y0011428D01*
X0060450Y0011811D01*
X0060450Y0011811D01*
X0060433Y0011931D01*
X0069729Y0011931D01*
X0069802Y0011428D01*
X0069802Y0011428D01*
X0069802Y0011428D01*
X0069802Y0011428D01*
X0070013Y0010964D01*
X0070346Y0010580D01*
X0070775Y0010304D01*
X0071263Y0010161D01*
X0071263Y0010161D01*
X0071772Y0010161D01*
X0071772Y0010161D01*
X0072261Y0010304D01*
X0072689Y0010580D01*
X0073022Y0010964D01*
X0073234Y0011428D01*
X0073234Y0011428D01*
X0073306Y0011931D01*
X0073306Y0011931D01*
X0073234Y0012435D01*
X0073234Y0012435D01*
X0073234Y0012435D01*
X0073022Y0012898D01*
X0072689Y0013283D01*
X0072439Y0013444D01*
X0072261Y0013558D01*
X0071772Y0013702D01*
X0071772Y0013702D01*
X0071263Y0013702D01*
X0071263Y0013702D01*
X0070775Y0013558D01*
X0070775Y0013558D01*
X0070346Y0013283D01*
X0070013Y0012898D01*
X0069802Y0012435D01*
X0069802Y0012435D01*
X0069729Y0011931D01*
X0069729Y0011931D01*
X0060433Y0011931D01*
X0060378Y0012315D01*
X0060378Y0012315D01*
X0060378Y0012315D01*
X0060166Y0012778D01*
X0059833Y0013163D01*
X0059784Y0013194D01*
X0059631Y0013381D01*
X0059618Y0013621D01*
X0059748Y0013824D01*
X0059885Y0013896D01*
X0059904Y0013902D01*
X0060333Y0014177D01*
X0060666Y0014562D01*
X0060877Y0015025D01*
X0060916Y0015293D01*
X0060950Y0015529D01*
X0060950Y0015529D01*
X0060877Y0016033D01*
X0060877Y0016033D01*
X0060877Y0016033D01*
X0060666Y0016496D01*
X0060460Y0016734D01*
X0078823Y0016734D01*
X0078895Y0016230D01*
X0078895Y0016230D01*
X0078895Y0016230D01*
X0078895Y0016230D01*
X0079106Y0015767D01*
X0079440Y0015382D01*
X0079868Y0015107D01*
X0080357Y0014963D01*
X0080357Y0014963D01*
X0080866Y0014963D01*
X0080866Y0014963D01*
X0081354Y0015107D01*
X0081783Y0015382D01*
X0082116Y0015767D01*
X0082327Y0016230D01*
X0082350Y0016388D01*
X0082387Y0016645D01*
X0083584Y0016645D01*
X0083656Y0016141D01*
X0083656Y0016141D01*
X0083656Y0016141D01*
X0083656Y0016141D01*
X0083868Y0015678D01*
X0084201Y0015293D01*
X0084629Y0015018D01*
X0085118Y0014875D01*
X0085118Y0014875D01*
X0085627Y0014875D01*
X0085627Y0014875D01*
X0086116Y0015018D01*
X0086544Y0015293D01*
X0086877Y0015678D01*
X0087089Y0016141D01*
X0087101Y0016230D01*
X0087161Y0016645D01*
X0087161Y0016645D01*
X0087089Y0017149D01*
X0087089Y0017149D01*
X0087089Y0017149D01*
X0086877Y0017612D01*
X0086544Y0017997D01*
X0086116Y0018272D01*
X0085627Y0018416D01*
X0085627Y0018416D01*
X0085118Y0018416D01*
X0085118Y0018416D01*
X0084629Y0018272D01*
X0084629Y0018272D01*
X0084201Y0017997D01*
X0084201Y0017997D01*
X0084201Y0017997D01*
X0083979Y0017740D01*
X0083868Y0017612D01*
X0083656Y0017149D01*
X0083656Y0017149D01*
X0083584Y0016645D01*
X0083584Y0016645D01*
X0082387Y0016645D01*
X0082400Y0016734D01*
X0082400Y0016734D01*
X0082327Y0017238D01*
X0082327Y0017238D01*
X0082327Y0017238D01*
X0082116Y0017701D01*
X0081783Y0018086D01*
X0081762Y0018099D01*
X0081354Y0018361D01*
X0080866Y0018504D01*
X0080866Y0018504D01*
X0080357Y0018504D01*
X0080357Y0018504D01*
X0079868Y0018361D01*
X0079868Y0018361D01*
X0079440Y0018086D01*
X0079440Y0018086D01*
X0079440Y0018086D01*
X0079342Y0017973D01*
X0079106Y0017701D01*
X0078895Y0017238D01*
X0078895Y0017238D01*
X0078823Y0016734D01*
X0078823Y0016734D01*
X0060460Y0016734D01*
X0060333Y0016881D01*
X0060333Y0016881D01*
X0060326Y0016889D01*
X0060232Y0017111D01*
X0060287Y0017345D01*
X0060410Y0017472D01*
X0060736Y0017682D01*
X0061069Y0018066D01*
X0061281Y0018530D01*
X0061298Y0018650D01*
X0061353Y0019033D01*
X0061353Y0019033D01*
X0061281Y0019537D01*
X0061281Y0019537D01*
X0061281Y0019537D01*
X0061069Y0020000D01*
X0060736Y0020385D01*
X0060308Y0020660D01*
X0059963Y0020762D01*
X0059922Y0020774D01*
X0059723Y0020910D01*
X0059642Y0021137D01*
X0059710Y0021368D01*
X0059737Y0021403D01*
X0059969Y0021671D01*
X0060181Y0022134D01*
X0060209Y0022334D01*
X0060253Y0022638D01*
X0060253Y0022638D01*
X0060181Y0023142D01*
X0060181Y0023142D01*
X0060181Y0023142D01*
X0059969Y0023605D01*
X0059636Y0023990D01*
X0059208Y0024265D01*
X0059208Y0024265D01*
X0058879Y0024361D01*
X0058680Y0024497D01*
X0058599Y0024724D01*
X0058667Y0024955D01*
X0058778Y0025063D01*
X0059010Y0025212D01*
X0059338Y0025590D01*
X0059544Y0025715D01*
X0059784Y0025694D01*
X0059966Y0025536D01*
X0060018Y0025391D01*
X0060059Y0025108D01*
X0060059Y0025108D01*
X0060059Y0025108D01*
X0060059Y0025108D01*
X0060270Y0024645D01*
X0060604Y0024260D01*
X0061032Y0023985D01*
X0061520Y0023841D01*
X0061520Y0023841D01*
X0062030Y0023841D01*
X0062030Y0023841D01*
X0062518Y0023985D01*
X0062946Y0024260D01*
X0063280Y0024645D01*
X0063491Y0025108D01*
X0063511Y0025247D01*
X0063564Y0025612D01*
X0063564Y0025612D01*
X0063491Y0026116D01*
X0063491Y0026116D01*
X0063491Y0026116D01*
X0063280Y0026579D01*
X0062946Y0026964D01*
X0062518Y0027239D01*
X0062030Y0027382D01*
X0062030Y0027382D01*
X0061520Y0027382D01*
X0061520Y0027382D01*
X0061032Y0027239D01*
X0061032Y0027239D01*
X0060604Y0026964D01*
X0060604Y0026964D01*
X0060276Y0026586D01*
X0060070Y0026461D01*
X0059830Y0026482D01*
X0059648Y0026640D01*
X0059596Y0026786D01*
X0059555Y0027068D01*
X0059555Y0027068D01*
X0059555Y0027068D01*
X0059376Y0027461D01*
X0068093Y0027461D01*
X0068166Y0026957D01*
X0068166Y0026957D01*
X0068166Y0026957D01*
X0068166Y0026957D01*
X0068377Y0026494D01*
X0068711Y0026109D01*
X0069139Y0025834D01*
X0069627Y0025690D01*
X0069627Y0025690D01*
X0070136Y0025690D01*
X0070136Y0025690D01*
X0070625Y0025834D01*
X0071053Y0026109D01*
X0071387Y0026494D01*
X0071598Y0026957D01*
X0071599Y0026964D01*
X0071671Y0027461D01*
X0071671Y0027461D01*
X0071621Y0027803D01*
X0071662Y0028040D01*
X0071835Y0028208D01*
X0071977Y0028241D01*
X0071976Y0028244D01*
X0072004Y0028248D01*
X0072004Y0028248D01*
X0072492Y0028392D01*
X0072921Y0028667D01*
X0073254Y0029052D01*
X0073466Y0029515D01*
X0073474Y0029574D01*
X0073538Y0030019D01*
X0073538Y0030019D01*
X0073473Y0030471D01*
X0075441Y0030471D01*
X0075513Y0029967D01*
X0075513Y0029967D01*
X0075513Y0029967D01*
X0075513Y0029967D01*
X0075725Y0029504D01*
X0076058Y0029119D01*
X0076487Y0028844D01*
X0076975Y0028701D01*
X0076975Y0028701D01*
X0077484Y0028701D01*
X0077484Y0028701D01*
X0077973Y0028844D01*
X0078401Y0029119D01*
X0078734Y0029504D01*
X0078946Y0029967D01*
X0078946Y0029967D01*
X0079018Y0030471D01*
X0079018Y0030471D01*
X0078946Y0030975D01*
X0078946Y0030975D01*
X0078946Y0030975D01*
X0078734Y0031438D01*
X0078401Y0031823D01*
X0078191Y0031958D01*
X0077973Y0032098D01*
X0077484Y0032241D01*
X0077484Y0032241D01*
X0076975Y0032241D01*
X0076975Y0032241D01*
X0076487Y0032098D01*
X0076487Y0032098D01*
X0076058Y0031823D01*
X0076058Y0031823D01*
X0076058Y0031823D01*
X0075956Y0031705D01*
X0075725Y0031438D01*
X0075513Y0030975D01*
X0075513Y0030975D01*
X0075441Y0030471D01*
X0075441Y0030471D01*
X0073473Y0030471D01*
X0073466Y0030523D01*
X0073466Y0030523D01*
X0073466Y0030523D01*
X0073254Y0030986D01*
X0072921Y0031370D01*
X0072815Y0031438D01*
X0072492Y0031646D01*
X0072004Y0031789D01*
X0072004Y0031789D01*
X0071495Y0031789D01*
X0071495Y0031789D01*
X0071006Y0031646D01*
X0071006Y0031646D01*
X0070578Y0031370D01*
X0070245Y0030986D01*
X0070033Y0030523D01*
X0070033Y0030523D01*
X0069961Y0030019D01*
X0069961Y0030019D01*
X0070010Y0029676D01*
X0069969Y0029439D01*
X0069796Y0029271D01*
X0069654Y0029238D01*
X0069655Y0029235D01*
X0069627Y0029231D01*
X0069139Y0029088D01*
X0069139Y0029088D01*
X0068711Y0028813D01*
X0068711Y0028813D01*
X0068711Y0028813D01*
X0068614Y0028701D01*
X0068377Y0028428D01*
X0068166Y0027965D01*
X0068166Y0027965D01*
X0068093Y0027461D01*
X0068093Y0027461D01*
X0059376Y0027461D01*
X0059344Y0027531D01*
X0059010Y0027916D01*
X0058935Y0027965D01*
X0058582Y0028191D01*
X0058094Y0028335D01*
X0058094Y0028335D01*
X0057584Y0028335D01*
X0057584Y0028335D01*
X0057096Y0028191D01*
X0057096Y0028191D01*
X0056668Y0027916D01*
X0056668Y0027916D01*
X0056668Y0027916D01*
X0056477Y0027697D01*
X0056334Y0027531D01*
X0056123Y0027068D01*
X0056123Y0027068D01*
X0056050Y0026564D01*
X0056050Y0026564D01*
X0044532Y0026564D01*
X0044449Y0026589D01*
X0044449Y0026589D01*
X0043940Y0026589D01*
X0043940Y0026589D01*
X0043452Y0026445D01*
X0043452Y0026445D01*
X0043445Y0026441D01*
X0043438Y0026439D01*
X0043426Y0026434D01*
X0043426Y0026436D01*
X0043212Y0026379D01*
X0042987Y0026467D01*
X0042857Y0026669D01*
X0042871Y0026910D01*
X0042879Y0026930D01*
X0042999Y0027193D01*
X0042999Y0027193D01*
X0043072Y0027697D01*
X0043072Y0027697D01*
X0042999Y0028200D01*
X0042999Y0028200D01*
X0042999Y0028200D01*
X0042788Y0028664D01*
X0042454Y0029048D01*
X0042026Y0029324D01*
X0041662Y0029430D01*
X0041538Y0029467D01*
X0041538Y0029467D01*
X0041028Y0029467D01*
X0041028Y0029467D01*
X0040540Y0029324D01*
X0040540Y0029324D01*
X0040112Y0029048D01*
X0040112Y0029048D01*
X0040112Y0029048D01*
X0039907Y0028813D01*
X0039778Y0028664D01*
X0039567Y0028200D01*
X0039567Y0028200D01*
X0039517Y0027856D01*
X0039411Y0027640D01*
X0039198Y0027527D01*
X0039131Y0027521D01*
X0038810Y0027521D01*
X0038321Y0027378D01*
X0038321Y0027378D01*
X0037893Y0027103D01*
X0037893Y0027103D01*
X0037893Y0027103D01*
X0037570Y0026730D01*
X0037560Y0026718D01*
X0037348Y0026255D01*
X0037348Y0026255D01*
X0037276Y0025751D01*
X0037276Y0025751D01*
X0029726Y0025751D01*
X0029726Y0030199D01*
X0046484Y0030199D01*
X0046557Y0029695D01*
X0046557Y0029695D01*
X0046557Y0029695D01*
X0046557Y0029695D01*
X0046768Y0029232D01*
X0047102Y0028848D01*
X0047530Y0028572D01*
X0048018Y0028429D01*
X0048018Y0028429D01*
X0048528Y0028429D01*
X0048528Y0028429D01*
X0049016Y0028572D01*
X0049444Y0028848D01*
X0049778Y0029232D01*
X0049989Y0029695D01*
X0049989Y0029695D01*
X0050062Y0030199D01*
X0050062Y0030199D01*
X0050003Y0030606D01*
X0052306Y0030606D01*
X0052378Y0030102D01*
X0052378Y0030102D01*
X0052378Y0030102D01*
X0052378Y0030102D01*
X0052590Y0029639D01*
X0052923Y0029254D01*
X0053351Y0028979D01*
X0053840Y0028835D01*
X0053840Y0028835D01*
X0054349Y0028835D01*
X0054349Y0028835D01*
X0054838Y0028979D01*
X0055266Y0029254D01*
X0055599Y0029639D01*
X0055811Y0030102D01*
X0055811Y0030102D01*
X0055883Y0030606D01*
X0055883Y0030606D01*
X0055811Y0031110D01*
X0055811Y0031110D01*
X0055811Y0031110D01*
X0055599Y0031573D01*
X0055266Y0031958D01*
X0054838Y0032233D01*
X0054808Y0032241D01*
X0054349Y0032376D01*
X0054349Y0032376D01*
X0053840Y0032376D01*
X0053840Y0032376D01*
X0053351Y0032233D01*
X0053351Y0032233D01*
X0052923Y0031958D01*
X0052923Y0031958D01*
X0052923Y0031958D01*
X0052653Y0031646D01*
X0052590Y0031573D01*
X0052378Y0031110D01*
X0052378Y0031110D01*
X0052306Y0030606D01*
X0052306Y0030606D01*
X0050003Y0030606D01*
X0049989Y0030703D01*
X0049989Y0030703D01*
X0049989Y0030703D01*
X0049778Y0031166D01*
X0049444Y0031551D01*
X0049016Y0031826D01*
X0048528Y0031970D01*
X0048528Y0031970D01*
X0048018Y0031970D01*
X0048018Y0031970D01*
X0047530Y0031826D01*
X0047530Y0031826D01*
X0047102Y0031551D01*
X0047102Y0031551D01*
X0047102Y0031551D01*
X0046945Y0031370D01*
X0046768Y0031166D01*
X0046557Y0030703D01*
X0046557Y0030703D01*
X0046484Y0030199D01*
X0046484Y0030199D01*
X0029726Y0030199D01*
X0029726Y0034725D01*
X0037782Y0034725D01*
X0037854Y0034221D01*
X0037854Y0034221D01*
X0037854Y0034221D01*
X0037854Y0034221D01*
X0038066Y0033758D01*
X0038399Y0033373D01*
X0038827Y0033098D01*
X0039316Y0032954D01*
X0039316Y0032954D01*
X0039825Y0032954D01*
X0039825Y0032954D01*
X0040313Y0033098D01*
X0040742Y0033373D01*
X0041075Y0033758D01*
X0041286Y0034221D01*
X0041359Y0034725D01*
X0041325Y0034958D01*
X0041286Y0035229D01*
X0041286Y0035229D01*
X0041286Y0035229D01*
X0041075Y0035692D01*
X0040742Y0036077D01*
X0040313Y0036352D01*
X0039825Y0036495D01*
X0039825Y0036495D01*
X0039316Y0036495D01*
X0039316Y0036495D01*
X0038827Y0036352D01*
X0038827Y0036352D01*
X0038399Y0036077D01*
X0038066Y0035692D01*
X0037854Y0035229D01*
X0037854Y0035229D01*
X0037782Y0034725D01*
X0037782Y0034725D01*
X0029726Y0034725D01*
X0029726Y0037054D01*
X0069296Y0037054D01*
X0069368Y0036550D01*
X0069368Y0036550D01*
X0069368Y0036550D01*
X0069368Y0036550D01*
X0069580Y0036087D01*
X0069913Y0035702D01*
X0070341Y0035427D01*
X0070830Y0035284D01*
X0070830Y0035284D01*
X0071339Y0035284D01*
X0071339Y0035284D01*
X0071827Y0035427D01*
X0072256Y0035702D01*
X0072589Y0036087D01*
X0072800Y0036550D01*
X0072850Y0036892D01*
X0072873Y0037054D01*
X0072873Y0037054D01*
X0072800Y0037558D01*
X0072800Y0037558D01*
X0072800Y0037558D01*
X0072589Y0038021D01*
X0072256Y0038406D01*
X0071827Y0038681D01*
X0071339Y0038825D01*
X0071339Y0038825D01*
X0070830Y0038825D01*
X0070830Y0038825D01*
X0070341Y0038681D01*
X0070341Y0038681D01*
X0069913Y0038406D01*
X0069580Y0038021D01*
X0069368Y0037558D01*
X0069368Y0037558D01*
X0069296Y0037054D01*
X0069296Y0037054D01*
X0029726Y0037054D01*
X0029726Y0040950D01*
X0048138Y0040950D01*
X0048210Y0040446D01*
X0048210Y0040446D01*
X0048210Y0040446D01*
X0048210Y0040446D01*
X0048421Y0039983D01*
X0048755Y0039598D01*
X0049183Y0039323D01*
X0049672Y0039179D01*
X0049672Y0039179D01*
X0050181Y0039179D01*
X0050181Y0039179D01*
X0050669Y0039323D01*
X0051098Y0039598D01*
X0051431Y0039983D01*
X0051642Y0040446D01*
X0051672Y0040650D01*
X0051715Y0040950D01*
X0051715Y0040950D01*
X0051642Y0041454D01*
X0051642Y0041454D01*
X0051642Y0041454D01*
X0051431Y0041917D01*
X0051098Y0042302D01*
X0050669Y0042577D01*
X0050370Y0042665D01*
X0050181Y0042720D01*
X0050181Y0042720D01*
X0049672Y0042720D01*
X0049672Y0042720D01*
X0049183Y0042577D01*
X0049183Y0042577D01*
X0048755Y0042302D01*
X0048755Y0042302D01*
X0048755Y0042302D01*
X0048481Y0041985D01*
X0048421Y0041917D01*
X0048210Y0041454D01*
X0048210Y0041454D01*
X0048138Y0040950D01*
X0048138Y0040950D01*
X0029726Y0040950D01*
X0029726Y0044036D01*
X0037759Y0044036D01*
X0037831Y0043532D01*
X0037831Y0043532D01*
X0037831Y0043532D01*
X0037831Y0043532D01*
X0038043Y0043069D01*
X0038376Y0042684D01*
X0038804Y0042409D01*
X0039293Y0042265D01*
X0039293Y0042265D01*
X0039802Y0042265D01*
X0039802Y0042265D01*
X0040290Y0042409D01*
X0040719Y0042684D01*
X0040878Y0042868D01*
X0041085Y0042993D01*
X0041325Y0042972D01*
X0041507Y0042814D01*
X0041516Y0042797D01*
X0041521Y0042789D01*
X0041521Y0042789D01*
X0041521Y0042789D01*
X0041855Y0042404D01*
X0042283Y0042129D01*
X0042771Y0041985D01*
X0042771Y0041985D01*
X0043280Y0041985D01*
X0043280Y0041985D01*
X0043769Y0042129D01*
X0044197Y0042404D01*
X0044531Y0042789D01*
X0044742Y0043252D01*
X0044743Y0043260D01*
X0044815Y0043756D01*
X0044815Y0043756D01*
X0044813Y0043764D01*
X0070652Y0043764D01*
X0070725Y0043260D01*
X0070725Y0043260D01*
X0070725Y0043260D01*
X0070725Y0043260D01*
X0070936Y0042797D01*
X0071270Y0042412D01*
X0071698Y0042137D01*
X0072186Y0041993D01*
X0072186Y0041993D01*
X0072696Y0041993D01*
X0072696Y0041993D01*
X0073184Y0042137D01*
X0073388Y0042267D01*
X0073621Y0042329D01*
X0073845Y0042241D01*
X0073893Y0042195D01*
X0074221Y0041817D01*
X0074649Y0041542D01*
X0075137Y0041398D01*
X0075137Y0041398D01*
X0075646Y0041398D01*
X0075646Y0041398D01*
X0076135Y0041542D01*
X0076563Y0041817D01*
X0076897Y0042202D01*
X0077108Y0042665D01*
X0077111Y0042684D01*
X0077181Y0043169D01*
X0077181Y0043169D01*
X0077108Y0043673D01*
X0077108Y0043673D01*
X0077108Y0043673D01*
X0076897Y0044136D01*
X0076563Y0044521D01*
X0076434Y0044604D01*
X0076135Y0044796D01*
X0075646Y0044939D01*
X0075646Y0044939D01*
X0075137Y0044939D01*
X0075137Y0044939D01*
X0074649Y0044796D01*
X0074445Y0044665D01*
X0074212Y0044604D01*
X0073988Y0044691D01*
X0073940Y0044737D01*
X0073612Y0045115D01*
X0073184Y0045391D01*
X0072696Y0045534D01*
X0072696Y0045534D01*
X0072186Y0045534D01*
X0072186Y0045534D01*
X0071698Y0045391D01*
X0071698Y0045391D01*
X0071270Y0045115D01*
X0071270Y0045115D01*
X0071270Y0045115D01*
X0070993Y0044796D01*
X0070936Y0044731D01*
X0070725Y0044267D01*
X0070725Y0044267D01*
X0070652Y0043764D01*
X0070652Y0043764D01*
X0044813Y0043764D01*
X0044742Y0044260D01*
X0044742Y0044260D01*
X0044742Y0044260D01*
X0044531Y0044723D01*
X0044197Y0045107D01*
X0043769Y0045383D01*
X0043742Y0045391D01*
X0043280Y0045526D01*
X0043280Y0045526D01*
X0042771Y0045526D01*
X0042771Y0045526D01*
X0042283Y0045383D01*
X0042283Y0045383D01*
X0041855Y0045107D01*
X0041695Y0044923D01*
X0041489Y0044799D01*
X0041249Y0044819D01*
X0041066Y0044977D01*
X0041057Y0044994D01*
X0041052Y0045003D01*
X0041052Y0045003D01*
X0041052Y0045003D01*
X0040719Y0045387D01*
X0040290Y0045663D01*
X0039802Y0045806D01*
X0039802Y0045806D01*
X0039293Y0045806D01*
X0039293Y0045806D01*
X0038804Y0045663D01*
X0038804Y0045663D01*
X0038376Y0045387D01*
X0038376Y0045387D01*
X0038376Y0045387D01*
X0038364Y0045374D01*
X0038043Y0045003D01*
X0037831Y0044540D01*
X0037831Y0044540D01*
X0037759Y0044036D01*
X0037759Y0044036D01*
X0029726Y0044036D01*
X0029726Y0046658D01*
X0029801Y0046887D01*
X0029996Y0047028D01*
X0030116Y0047047D01*
X0086147Y0047047D01*
X0086377Y0046973D01*
G37*
X0041339Y0052520D02*
G01*
G75*
G36*
X0076559Y0064922D02*
X0075927Y0064796D01*
X0075211Y0064317D01*
X0074732Y0063601D01*
X0074564Y0062756D01*
X0074732Y0061911D01*
X0075211Y0061195D01*
X0075927Y0060716D01*
X0076772Y0060548D01*
X0076772Y0057484D01*
X0075927Y0057316D01*
X0075211Y0056837D01*
X0074732Y0056121D01*
X0074564Y0055276D01*
X0074732Y0054431D01*
X0075211Y0053715D01*
X0075927Y0053236D01*
X0076559Y0053111D01*
X0076501Y0052520D01*
X0041339Y0052520D01*
X0041339Y0056742D01*
X0041832Y0057059D01*
X0042387Y0056825D01*
X0042290Y0056338D01*
X0042428Y0055647D01*
X0042819Y0055061D01*
X0043405Y0054669D01*
X0044096Y0054532D01*
X0044788Y0054669D01*
X0045374Y0055061D01*
X0045765Y0055647D01*
X0045903Y0056338D01*
X0045765Y0057029D01*
X0045374Y0057615D01*
X0044954Y0057896D01*
X0044752Y0058138D01*
X0044615Y0058644D01*
X0044728Y0059213D01*
X0044560Y0060058D01*
X0044215Y0060574D01*
X0044127Y0060985D01*
X0044215Y0061395D01*
X0044560Y0061911D01*
X0044728Y0062756D01*
X0044560Y0063601D01*
X0044081Y0064317D01*
X0043365Y0064796D01*
X0042733Y0064922D01*
X0042792Y0065512D01*
X0076501Y0065512D01*
X0076559Y0064922D01*
D02*
G37*
%LPC*%
G36*
X0066999Y0064572D02*
X0066308Y0064434D01*
X0065722Y0064043D01*
X0065330Y0063457D01*
X0065193Y0062766D01*
X0065330Y0062074D01*
X0065722Y0061488D01*
X0066308Y0061097D01*
X0066999Y0060959D01*
X0067690Y0061097D01*
X0068276Y0061488D01*
X0068668Y0062074D01*
X0068805Y0062766D01*
X0068668Y0063457D01*
X0068276Y0064043D01*
X0067690Y0064434D01*
X0066999Y0064572D01*
D02*
G37*
G36*
X0057712Y0062304D02*
X0057021Y0062167D01*
X0056435Y0061775D01*
X0056043Y0061189D01*
X0055906Y0060498D01*
X0056043Y0059807D01*
X0056435Y0059221D01*
X0057021Y0058829D01*
X0057712Y0058692D01*
X0058403Y0058829D01*
X0058989Y0059221D01*
X0059381Y0059807D01*
X0059518Y0060498D01*
X0059381Y0061189D01*
X0058989Y0061775D01*
X0058403Y0062167D01*
X0057712Y0062304D01*
D02*
G37*
G36*
X0052205Y0057181D02*
X0051514Y0057043D01*
X0050928Y0056652D01*
X0050536Y0056066D01*
X0050399Y0055374D01*
X0050536Y0054683D01*
X0050928Y0054097D01*
X0051514Y0053705D01*
X0052205Y0053568D01*
X0052896Y0053705D01*
X0053482Y0054097D01*
X0053874Y0054683D01*
X0054012Y0055374D01*
X0053874Y0056066D01*
X0053482Y0056652D01*
X0052896Y0057043D01*
X0052205Y0057181D01*
D02*
G37*
%LPD*%
D12*
X0059646Y0065118D02*
D03*
X0059646Y0052914D02*
D03*
D11*
X0041733Y0054981D02*
D03*
D10*
X0076772Y0059016D02*
D03*
X0042579Y0053805D02*
D03*
X0055281Y0058367D02*
D03*
X0052542Y0059423D02*
D03*
M02*
