G75*
G70*
%OFA0B0*%
%FSLAX25Y25*%
%IPPOS*%
%LPD*%
%AMOC8*
5,1,8,0,0,1.08239X$1,22.5*
%
%ADD10C,0.02362*%
%ADD11O,0.00787X0.04823*%
%ADD12O,0.36614X0.00787*%
X0041339Y0052520D02*
G01*
G75*
G36*
X0076559Y0064922D02*
X0075927Y0064796D01*
X0075211Y0064317D01*
X0074732Y0063601D01*
X0074564Y0062756D01*
X0074732Y0061911D01*
X0075211Y0061195D01*
X0075927Y0060716D01*
X0076772Y0060548D01*
X0076772Y0057484D01*
X0075927Y0057316D01*
X0075211Y0056837D01*
X0074732Y0056121D01*
X0074564Y0055276D01*
X0074732Y0054431D01*
X0075211Y0053715D01*
X0075927Y0053236D01*
X0076559Y0053111D01*
X0076501Y0052520D01*
X0041339Y0052520D01*
X0041339Y0056742D01*
X0041832Y0057059D01*
X0042387Y0056825D01*
X0042290Y0056338D01*
X0042428Y0055647D01*
X0042819Y0055061D01*
X0043405Y0054669D01*
X0044096Y0054532D01*
X0044788Y0054669D01*
X0045374Y0055061D01*
X0045765Y0055647D01*
X0045903Y0056338D01*
X0045765Y0057029D01*
X0045374Y0057615D01*
X0044954Y0057896D01*
X0044752Y0058138D01*
X0044615Y0058644D01*
X0044728Y0059213D01*
X0044560Y0060058D01*
X0044215Y0060574D01*
X0044127Y0060985D01*
X0044215Y0061395D01*
X0044560Y0061911D01*
X0044728Y0062756D01*
X0044560Y0063601D01*
X0044081Y0064317D01*
X0043365Y0064796D01*
X0042733Y0064922D01*
X0042792Y0065512D01*
X0076501Y0065512D01*
X0076559Y0064922D01*
D02*
G37*
%LPC*%
G36*
X0066999Y0064572D02*
X0066308Y0064434D01*
X0065722Y0064043D01*
X0065330Y0063457D01*
X0065193Y0062766D01*
X0065330Y0062074D01*
X0065722Y0061488D01*
X0066308Y0061097D01*
X0066999Y0060959D01*
X0067690Y0061097D01*
X0068276Y0061488D01*
X0068668Y0062074D01*
X0068805Y0062766D01*
X0068668Y0063457D01*
X0068276Y0064043D01*
X0067690Y0064434D01*
X0066999Y0064572D01*
D02*
G37*
G36*
X0057712Y0062304D02*
X0057021Y0062167D01*
X0056435Y0061775D01*
X0056043Y0061189D01*
X0055906Y0060498D01*
X0056043Y0059807D01*
X0056435Y0059221D01*
X0057021Y0058829D01*
X0057712Y0058692D01*
X0058403Y0058829D01*
X0058989Y0059221D01*
X0059381Y0059807D01*
X0059518Y0060498D01*
X0059381Y0061189D01*
X0058989Y0061775D01*
X0058403Y0062167D01*
X0057712Y0062304D01*
D02*
G37*
G36*
X0052205Y0057181D02*
X0051514Y0057043D01*
X0050928Y0056652D01*
X0050536Y0056066D01*
X0050399Y0055374D01*
X0050536Y0054683D01*
X0050928Y0054097D01*
X0051514Y0053705D01*
X0052205Y0053568D01*
X0052896Y0053705D01*
X0053482Y0054097D01*
X0053874Y0054683D01*
X0054012Y0055374D01*
X0053874Y0056066D01*
X0053482Y0056652D01*
X0052896Y0057043D01*
X0052205Y0057181D01*
D02*
G37*
%LPD*%
D12*
X0059646Y0065118D02*
D03*
X0059646Y0052914D02*
D03*
D11*
X0041733Y0054981D02*
D03*
D10*
X0076772Y0059016D02*
D03*
X0042579Y0053805D02*
D03*
X0055281Y0058367D02*
D03*
X0052542Y0059423D02*
D03*
M02*
