G75*
G70*
%OFA0B0*%
%FSLAX25Y25*%
%IPPOS*%
%LPD*%
%AMOC8*
5,1,8,0,0,1.08239X$1,22.5*
%
%AMM1*
21,1,0.021650,0.052760,0.000000,0.000000,270.000000*
21,1,0.017320,0.057090,0.000000,0.000000,270.000000*
1,1,0.004330,-0.026380,-0.008660*
1,1,0.004330,-0.026380,0.008660*
1,1,0.004330,0.026380,0.008660*
1,1,0.004330,0.026380,-0.008660*
%
%AMM11*
21,1,0.027560,0.030710,0.000000,0.000000,180.000000*
21,1,0.022050,0.036220,0.000000,0.000000,180.000000*
1,1,0.005510,-0.011020,0.015350*
1,1,0.005510,0.011020,0.015350*
1,1,0.005510,0.011020,-0.015350*
1,1,0.005510,-0.011020,-0.015350*
%
%AMM12*
21,1,0.039370,0.049210,0.000000,0.000000,0.000000*
21,1,0.031500,0.057090,0.000000,0.000000,0.000000*
1,1,0.007870,0.015750,-0.024610*
1,1,0.007870,-0.015750,-0.024610*
1,1,0.007870,-0.015750,0.024610*
1,1,0.007870,0.015750,0.024610*
%
%AMM13*
21,1,0.039370,0.049210,0.000000,0.000000,90.000000*
21,1,0.031500,0.057090,0.000000,0.000000,90.000000*
1,1,0.007870,0.024610,0.015750*
1,1,0.007870,0.024610,-0.015750*
1,1,0.007870,-0.024610,-0.015750*
1,1,0.007870,-0.024610,0.015750*
%
%AMM14*
21,1,0.039370,0.035430,0.000000,0.000000,270.000000*
21,1,0.031500,0.043310,0.000000,0.000000,270.000000*
1,1,0.007870,-0.017720,-0.015750*
1,1,0.007870,-0.017720,0.015750*
1,1,0.007870,0.017720,0.015750*
1,1,0.007870,0.017720,-0.015750*
%
%AMM15*
21,1,0.033470,0.026770,0.000000,0.000000,0.000000*
21,1,0.026770,0.033470,0.000000,0.000000,0.000000*
1,1,0.006690,0.013390,-0.013390*
1,1,0.006690,-0.013390,-0.013390*
1,1,0.006690,-0.013390,0.013390*
1,1,0.006690,0.013390,0.013390*
%
%ADD13O,0.01969X0.00984*%
%ADD18O,0.00984X0.01969*%
%ADD27R,0.02559X0.01575*%
%ADD28R,0.01575X0.02559*%
%ADD32M1*%
%ADD46O,0.01968X0.00984*%
%ADD47O,0.00984X0.01968*%
%ADD48O,0.07087X0.01378*%
%ADD49M11*%
%ADD50M12*%
%ADD51M13*%
%ADD52M14*%
%ADD53M15*%
X0000000Y0000000D02*
%LPD*%
G01*
D13*
X0124803Y0027657D03*
X0124803Y0020866D03*
X0124803Y0014075D03*
X0124803Y0007382D03*
D18*
X0072835Y0033465D03*
D13*
X0050174Y0009758D03*
X0050197Y0024016D03*
X0009203Y0038976D02*
%LPD*%
G01*
G36*
G01*
X0026644Y0056594D02*
X0026644Y0058051D01*
G75*
G02*
X0027175Y0058582I0000531J0000000D01*
G01*
X0028238Y0058582D01*
G75*
G02*
X0028770Y0058051I0000000J-000531D01*
G01*
X0028770Y0056594D01*
G75*
G02*
X0028238Y0056063I-000531J0000000D01*
G01*
X0027175Y0056063D01*
G75*
G02*
X0026644Y0056594I0000000J0000531D01*
G01*
G37*
G36*
G01*
X0022628Y0056594D02*
X0022628Y0058051D01*
G75*
G02*
X0023160Y0058582I0000531J0000000D01*
G01*
X0024223Y0058582D01*
G75*
G02*
X0024754Y0058051I0000000J-000531D01*
G01*
X0024754Y0056594D01*
G75*
G02*
X0024223Y0056063I-000531J0000000D01*
G01*
X0023160Y0056063D01*
G75*
G02*
X0022628Y0056594I0000000J0000531D01*
G01*
G37*
G36*
G01*
X0049892Y0040905D02*
X0048435Y0040905D01*
G75*
G02*
X0047904Y0041437I0000000J0000531D01*
G01*
X0047904Y0042500D01*
G75*
G02*
X0048435Y0043031I0000531J0000000D01*
G01*
X0049892Y0043031D01*
G75*
G02*
X0050423Y0042500I0000000J-000531D01*
G01*
X0050423Y0041437D01*
G75*
G02*
X0049892Y0040905I-000531J0000000D01*
G01*
G37*
G36*
G01*
X0049892Y0044921D02*
X0048435Y0044921D01*
G75*
G02*
X0047904Y0045452I0000000J0000531D01*
G01*
X0047904Y0046515D01*
G75*
G02*
X0048435Y0047047I0000531J0000000D01*
G01*
X0049892Y0047047D01*
G75*
G02*
X0050423Y0046515I0000000J-000531D01*
G01*
X0050423Y0045452D01*
G75*
G02*
X0049892Y0044921I-000531J0000000D01*
G01*
G37*
G36*
G01*
X0038920Y0073248D02*
X0038920Y0074429D01*
G75*
G02*
X0039510Y0075019I0000591J0000000D01*
G01*
X0046006Y0075019D01*
G75*
G02*
X0046597Y0074429I0000000J-000591D01*
G01*
X0046597Y0073248D01*
G75*
G02*
X0046006Y0072657I-000591J0000000D01*
G01*
X0039510Y0072657D01*
G75*
G02*
X0038920Y0073248I0000000J0000591D01*
G01*
G37*
G36*
G01*
X0038920Y0068248D02*
X0038920Y0069429D01*
G75*
G02*
X0039510Y0070019I0000591J0000000D01*
G01*
X0046006Y0070019D01*
G75*
G02*
X0046597Y0069429I0000000J-000591D01*
G01*
X0046597Y0068248D01*
G75*
G02*
X0046006Y0067657I-000591J0000000D01*
G01*
X0039510Y0067657D01*
G75*
G02*
X0038920Y0068248I0000000J0000591D01*
G01*
G37*
G36*
G01*
X0038920Y0063248D02*
X0038920Y0064429D01*
G75*
G02*
X0039510Y0065019I0000591J0000000D01*
G01*
X0046006Y0065019D01*
G75*
G02*
X0046597Y0064429I0000000J-000591D01*
G01*
X0046597Y0063248D01*
G75*
G02*
X0046006Y0062657I-000591J0000000D01*
G01*
X0039510Y0062657D01*
G75*
G02*
X0038920Y0063248I0000000J0000591D01*
G01*
G37*
G36*
G01*
X0038920Y0058248D02*
X0038920Y0059429D01*
G75*
G02*
X0039510Y0060019I0000591J0000000D01*
G01*
X0046006Y0060019D01*
G75*
G02*
X0046597Y0059429I0000000J-000591D01*
G01*
X0046597Y0058248D01*
G75*
G02*
X0046006Y0057657I-000591J0000000D01*
G01*
X0039510Y0057657D01*
G75*
G02*
X0038920Y0058248I0000000J0000591D01*
G01*
G37*
G36*
G01*
X0058408Y0058248D02*
X0058408Y0059429D01*
G75*
G02*
X0058998Y0060019I0000591J0000000D01*
G01*
X0065494Y0060019D01*
G75*
G02*
X0066085Y0059429I0000000J-000591D01*
G01*
X0066085Y0058248D01*
G75*
G02*
X0065494Y0057657I-000591J0000000D01*
G01*
X0058998Y0057657D01*
G75*
G02*
X0058408Y0058248I0000000J0000591D01*
G01*
G37*
G36*
G01*
X0058408Y0063248D02*
X0058408Y0064429D01*
G75*
G02*
X0058998Y0065019I0000591J0000000D01*
G01*
X0065494Y0065019D01*
G75*
G02*
X0066085Y0064429I0000000J-000591D01*
G01*
X0066085Y0063248D01*
G75*
G02*
X0065494Y0062657I-000591J0000000D01*
G01*
X0058998Y0062657D01*
G75*
G02*
X0058408Y0063248I0000000J0000591D01*
G01*
G37*
G36*
G01*
X0058408Y0068248D02*
X0058408Y0069429D01*
G75*
G02*
X0058998Y0070019I0000591J0000000D01*
G01*
X0065494Y0070019D01*
G75*
G02*
X0066085Y0069429I0000000J-000591D01*
G01*
X0066085Y0068248D01*
G75*
G02*
X0065494Y0067657I-000591J0000000D01*
G01*
X0058998Y0067657D01*
G75*
G02*
X0058408Y0068248I0000000J0000591D01*
G01*
G37*
G36*
G01*
X0058408Y0073248D02*
X0058408Y0074429D01*
G75*
G02*
X0058998Y0075019I0000591J0000000D01*
G01*
X0065494Y0075019D01*
G75*
G02*
X0066085Y0074429I0000000J-000591D01*
G01*
X0066085Y0073248D01*
G75*
G02*
X0065494Y0072657I-000591J0000000D01*
G01*
X0058998Y0072657D01*
G75*
G02*
X0058408Y0073248I0000000J0000591D01*
G01*
G37*
D27*
X0024400Y0073976D03*
X0024400Y0071417D03*
X0024400Y0068858D03*
X0031880Y0068858D03*
X0031880Y0071417D03*
X0031880Y0073976D03*
G36*
G01*
X0040561Y0054888D02*
X0042018Y0054888D01*
G75*
G02*
X0042549Y0054356I0000000J-000531D01*
G01*
X0042549Y0053293D01*
G75*
G02*
X0042018Y0052762I-000531J0000000D01*
G01*
X0040561Y0052762D01*
G75*
G02*
X0040030Y0053293I0000000J0000531D01*
G01*
X0040030Y0054356D01*
G75*
G02*
X0040561Y0054888I0000531J0000000D01*
G01*
G37*
G36*
G01*
X0040561Y0050872D02*
X0042018Y0050872D01*
G75*
G02*
X0042549Y0050341I0000000J-000531D01*
G01*
X0042549Y0049278D01*
G75*
G02*
X0042018Y0048746I-000531J0000000D01*
G01*
X0040561Y0048746D01*
G75*
G02*
X0040030Y0049278I0000000J0000531D01*
G01*
X0040030Y0050341D01*
G75*
G02*
X0040561Y0050872I0000531J0000000D01*
G01*
G37*
G36*
G01*
X0045896Y0048825D02*
X0044557Y0048825D01*
G75*
G02*
X0044006Y0049376I0000000J0000551D01*
G01*
X0044006Y0050478D01*
G75*
G02*
X0044557Y0051030I0000551J0000000D01*
G01*
X0045896Y0051030D01*
G75*
G02*
X0046447Y0050478I0000000J-000551D01*
G01*
X0046447Y0049376D01*
G75*
G02*
X0045896Y0048825I-000551J0000000D01*
G01*
G37*
G36*
G01*
X0045896Y0052604D02*
X0044557Y0052604D01*
G75*
G02*
X0044006Y0053156I0000000J0000551D01*
G01*
X0044006Y0054258D01*
G75*
G02*
X0044557Y0054809I0000551J0000000D01*
G01*
X0045896Y0054809D01*
G75*
G02*
X0046447Y0054258I0000000J-000551D01*
G01*
X0046447Y0053156D01*
G75*
G02*
X0045896Y0052604I-000551J0000000D01*
G01*
G37*
G36*
G01*
X0042018Y0040905D02*
X0040561Y0040905D01*
G75*
G02*
X0040030Y0041437I0000000J0000531D01*
G01*
X0040030Y0042500D01*
G75*
G02*
X0040561Y0043031I0000531J0000000D01*
G01*
X0042018Y0043031D01*
G75*
G02*
X0042549Y0042500I0000000J-000531D01*
G01*
X0042549Y0041437D01*
G75*
G02*
X0042018Y0040905I-000531J0000000D01*
G01*
G37*
G36*
G01*
X0042018Y0044921D02*
X0040561Y0044921D01*
G75*
G02*
X0040030Y0045452I0000000J0000531D01*
G01*
X0040030Y0046515D01*
G75*
G02*
X0040561Y0047047I0000531J0000000D01*
G01*
X0042018Y0047047D01*
G75*
G02*
X0042549Y0046515I0000000J-000531D01*
G01*
X0042549Y0045452D01*
G75*
G02*
X0042018Y0044921I-000531J0000000D01*
G01*
G37*
G36*
G01*
X0053612Y0046968D02*
X0054951Y0046968D01*
G75*
G02*
X0055502Y0046417I0000000J-000551D01*
G01*
X0055502Y0045315D01*
G75*
G02*
X0054951Y0044763I-000551J0000000D01*
G01*
X0053612Y0044763D01*
G75*
G02*
X0053061Y0045315I0000000J0000551D01*
G01*
X0053061Y0046417D01*
G75*
G02*
X0053612Y0046968I0000551J0000000D01*
G01*
G37*
G36*
G01*
X0053612Y0043189D02*
X0054951Y0043189D01*
G75*
G02*
X0055502Y0042637I0000000J-000551D01*
G01*
X0055502Y0041535D01*
G75*
G02*
X0054951Y0040984I-000551J0000000D01*
G01*
X0053612Y0040984D01*
G75*
G02*
X0053061Y0041535I0000000J0000551D01*
G01*
X0053061Y0042637D01*
G75*
G02*
X0053612Y0043189I0000551J0000000D01*
G01*
G37*
G36*
G01*
X0030483Y0050826D02*
X0031821Y0050826D01*
G75*
G02*
X0032372Y0050275I0000000J-000551D01*
G01*
X0032372Y0049173D01*
G75*
G02*
X0031821Y0048622I-000551J0000000D01*
G01*
X0030483Y0048622D01*
G75*
G02*
X0029931Y0049173I0000000J0000551D01*
G01*
X0029931Y0050275D01*
G75*
G02*
X0030483Y0050826I0000551J0000000D01*
G01*
G37*
G36*
G01*
X0030483Y0047047D02*
X0031821Y0047047D01*
G75*
G02*
X0032372Y0046496I0000000J-000551D01*
G01*
X0032372Y0045393D01*
G75*
G02*
X0031821Y0044842I-000551J0000000D01*
G01*
X0030483Y0044842D01*
G75*
G02*
X0029931Y0045393I0000000J0000551D01*
G01*
X0029931Y0046496D01*
G75*
G02*
X0030483Y0047047I0000551J0000000D01*
G01*
G37*
G36*
G01*
X0036250Y0054074D02*
X0036250Y0052618D01*
G75*
G02*
X0035719Y0052086I-000531J0000000D01*
G01*
X0034656Y0052086D01*
G75*
G02*
X0034124Y0052618I0000000J0000531D01*
G01*
X0034124Y0054074D01*
G75*
G02*
X0034656Y0054606I0000531J0000000D01*
G01*
X0035719Y0054606D01*
G75*
G02*
X0036250Y0054074I0000000J-000531D01*
G01*
G37*
G36*
G01*
X0032234Y0054074D02*
X0032234Y0052618D01*
G75*
G02*
X0031703Y0052086I-000531J0000000D01*
G01*
X0030640Y0052086D01*
G75*
G02*
X0030109Y0052618I0000000J0000531D01*
G01*
X0030109Y0054074D01*
G75*
G02*
X0030640Y0054606I0000531J0000000D01*
G01*
X0031703Y0054606D01*
G75*
G02*
X0032234Y0054074I0000000J-000531D01*
G01*
G37*
G36*
G01*
X0067077Y0054803D02*
X0067077Y0053464D01*
G75*
G02*
X0066526Y0052913I-000551J0000000D01*
G01*
X0065423Y0052913D01*
G75*
G02*
X0064872Y0053464I0000000J0000551D01*
G01*
X0064872Y0054803D01*
G75*
G02*
X0065423Y0055354I0000551J0000000D01*
G01*
X0066526Y0055354D01*
G75*
G02*
X0067077Y0054803I0000000J-000551D01*
G01*
G37*
G36*
G01*
X0063297Y0054803D02*
X0063297Y0053464D01*
G75*
G02*
X0062746Y0052913I-000551J0000000D01*
G01*
X0061644Y0052913D01*
G75*
G02*
X0061093Y0053464I0000000J0000551D01*
G01*
X0061093Y0054803D01*
G75*
G02*
X0061644Y0055354I0000551J0000000D01*
G01*
X0062746Y0055354D01*
G75*
G02*
X0063297Y0054803I0000000J-000551D01*
G01*
G37*
G36*
G01*
X0018022Y0060566D02*
X0018022Y0062583D01*
G75*
G02*
X0018883Y0063445I0000861J0000000D01*
G01*
X0020606Y0063445D01*
G75*
G02*
X0021467Y0062583I0000000J-000861D01*
G01*
X0021467Y0060566D01*
G75*
G02*
X0020606Y0059704I-000861J0000000D01*
G01*
X0018883Y0059704D01*
G75*
G02*
X0018022Y0060566I0000000J0000861D01*
G01*
G37*
G36*
G01*
X0011821Y0060566D02*
X0011821Y0062583D01*
G75*
G02*
X0012682Y0063445I0000861J0000000D01*
G01*
X0014405Y0063445D01*
G75*
G02*
X0015266Y0062583I0000000J-000861D01*
G01*
X0015266Y0060566D01*
G75*
G02*
X0014405Y0059704I-000861J0000000D01*
G01*
X0012682Y0059704D01*
G75*
G02*
X0011821Y0060566I0000000J0000861D01*
G01*
G37*
G36*
G01*
X0036801Y0065787D02*
X0035463Y0065787D01*
G75*
G02*
X0034912Y0066338I0000000J0000551D01*
G01*
X0034912Y0067441D01*
G75*
G02*
X0035463Y0067992I0000551J0000000D01*
G01*
X0036801Y0067992D01*
G75*
G02*
X0037353Y0067441I0000000J-000551D01*
G01*
X0037353Y0066338D01*
G75*
G02*
X0036801Y0065787I-000551J0000000D01*
G01*
G37*
G36*
G01*
X0036801Y0069567D02*
X0035463Y0069567D01*
G75*
G02*
X0034912Y0070118I0000000J0000551D01*
G01*
X0034912Y0071220D01*
G75*
G02*
X0035463Y0071771I0000551J0000000D01*
G01*
X0036801Y0071771D01*
G75*
G02*
X0037353Y0071220I0000000J-000551D01*
G01*
X0037353Y0070118D01*
G75*
G02*
X0036801Y0069567I-000551J0000000D01*
G01*
G37*
G36*
G01*
X0019164Y0068641D02*
X0019164Y0067185D01*
G75*
G02*
X0018632Y0066653I-000531J0000000D01*
G01*
X0017569Y0066653D01*
G75*
G02*
X0017038Y0067185I0000000J0000531D01*
G01*
X0017038Y0068641D01*
G75*
G02*
X0017569Y0069173I0000531J0000000D01*
G01*
X0018632Y0069173D01*
G75*
G02*
X0019164Y0068641I0000000J-000531D01*
G01*
G37*
G36*
G01*
X0015148Y0068641D02*
X0015148Y0067185D01*
G75*
G02*
X0014616Y0066653I-000531J0000000D01*
G01*
X0013553Y0066653D01*
G75*
G02*
X0013022Y0067185I0000000J0000531D01*
G01*
X0013022Y0068641D01*
G75*
G02*
X0013553Y0069173I0000531J0000000D01*
G01*
X0014616Y0069173D01*
G75*
G02*
X0015148Y0068641I0000000J-000531D01*
G01*
G37*
G36*
G01*
X0030109Y0056555D02*
X0030109Y0058011D01*
G75*
G02*
X0030640Y0058543I0000531J0000000D01*
G01*
X0031703Y0058543D01*
G75*
G02*
X0032234Y0058011I0000000J-000531D01*
G01*
X0032234Y0056555D01*
G75*
G02*
X0031703Y0056023I-000531J0000000D01*
G01*
X0030640Y0056023D01*
G75*
G02*
X0030109Y0056555I0000000J0000531D01*
G01*
G37*
G36*
G01*
X0034124Y0056555D02*
X0034124Y0058011D01*
G75*
G02*
X0034656Y0058543I0000531J0000000D01*
G01*
X0035719Y0058543D01*
G75*
G02*
X0036250Y0058011I0000000J-000531D01*
G01*
X0036250Y0056555D01*
G75*
G02*
X0035719Y0056023I-000531J0000000D01*
G01*
X0034656Y0056023D01*
G75*
G02*
X0034124Y0056555I0000000J0000531D01*
G01*
G37*
G36*
G01*
X0035246Y0050764D02*
X0036703Y0050764D01*
G75*
G02*
X0037234Y0050233I0000000J-000531D01*
G01*
X0037234Y0049170D01*
G75*
G02*
X0036703Y0048638I-000531J0000000D01*
G01*
X0035246Y0048638D01*
G75*
G02*
X0034715Y0049170I0000000J0000531D01*
G01*
X0034715Y0050233D01*
G75*
G02*
X0035246Y0050764I0000531J0000000D01*
G01*
G37*
G36*
G01*
X0035246Y0046748D02*
X0036703Y0046748D01*
G75*
G02*
X0037234Y0046217I0000000J-000531D01*
G01*
X0037234Y0045154D01*
G75*
G02*
X0036703Y0044623I-000531J0000000D01*
G01*
X0035246Y0044623D01*
G75*
G02*
X0034715Y0045154I0000000J0000531D01*
G01*
X0034715Y0046217D01*
G75*
G02*
X0035246Y0046748I0000531J0000000D01*
G01*
G37*
G36*
G01*
X0017904Y0057362D02*
X0017904Y0056023D01*
G75*
G02*
X0017353Y0055472I-000551J0000000D01*
G01*
X0016250Y0055472D01*
G75*
G02*
X0015699Y0056023I0000000J0000551D01*
G01*
X0015699Y0057362D01*
G75*
G02*
X0016250Y0057913I0000551J0000000D01*
G01*
X0017353Y0057913D01*
G75*
G02*
X0017904Y0057362I0000000J-000551D01*
G01*
G37*
G36*
G01*
X0014124Y0057362D02*
X0014124Y0056023D01*
G75*
G02*
X0013573Y0055472I-000551J0000000D01*
G01*
X0012471Y0055472D01*
G75*
G02*
X0011920Y0056023I0000000J0000551D01*
G01*
X0011920Y0057362D01*
G75*
G02*
X0012471Y0057913I0000551J0000000D01*
G01*
X0013573Y0057913D01*
G75*
G02*
X0014124Y0057362I0000000J-000551D01*
G01*
G37*
G36*
G01*
X0054951Y0048825D02*
X0053612Y0048825D01*
G75*
G02*
X0053061Y0049376I0000000J0000551D01*
G01*
X0053061Y0050478D01*
G75*
G02*
X0053612Y0051030I0000551J0000000D01*
G01*
X0054951Y0051030D01*
G75*
G02*
X0055502Y0050478I0000000J-000551D01*
G01*
X0055502Y0049376D01*
G75*
G02*
X0054951Y0048825I-000551J0000000D01*
G01*
G37*
G36*
G01*
X0054951Y0052604D02*
X0053612Y0052604D01*
G75*
G02*
X0053061Y0053156I0000000J0000551D01*
G01*
X0053061Y0054258D01*
G75*
G02*
X0053612Y0054809I0000551J0000000D01*
G01*
X0054951Y0054809D01*
G75*
G02*
X0055502Y0054258I0000000J-000551D01*
G01*
X0055502Y0053156D01*
G75*
G02*
X0054951Y0052604I-000551J0000000D01*
G01*
G37*
G36*
G01*
X0029931Y0041299D02*
X0029931Y0042756D01*
G75*
G02*
X0030463Y0043287I0000531J0000000D01*
G01*
X0031526Y0043287D01*
G75*
G02*
X0032057Y0042756I0000000J-000531D01*
G01*
X0032057Y0041299D01*
G75*
G02*
X0031526Y0040767I-000531J0000000D01*
G01*
X0030463Y0040767D01*
G75*
G02*
X0029931Y0041299I0000000J0000531D01*
G01*
G37*
G36*
G01*
X0033947Y0041299D02*
X0033947Y0042756D01*
G75*
G02*
X0034479Y0043287I0000531J0000000D01*
G01*
X0035542Y0043287D01*
G75*
G02*
X0036073Y0042756I0000000J-000531D01*
G01*
X0036073Y0041299D01*
G75*
G02*
X0035542Y0040767I-000531J0000000D01*
G01*
X0034479Y0040767D01*
G75*
G02*
X0033947Y0041299I0000000J0000531D01*
G01*
G37*
D28*
X0059190Y0042519D03*
X0061749Y0042519D03*
X0064308Y0042519D03*
X0064308Y0050000D03*
X0061749Y0050000D03*
X0059190Y0050000D03*
G36*
G01*
X0013241Y0051305D02*
X0013241Y0052486D01*
G75*
G02*
X0013832Y0053077I0000591J0000000D01*
G01*
X0017867Y0053077D01*
G75*
G02*
X0018458Y0052486I0000000J-000591D01*
G01*
X0018458Y0051305D01*
G75*
G02*
X0017867Y0050715I-000591J0000000D01*
G01*
X0013832Y0050715D01*
G75*
G02*
X0013241Y0051305I0000000J0000591D01*
G01*
G37*
G36*
G01*
X0013241Y0047565D02*
X0013241Y0048746D01*
G75*
G02*
X0013832Y0049337I0000591J0000000D01*
G01*
X0017867Y0049337D01*
G75*
G02*
X0018458Y0048746I0000000J-000591D01*
G01*
X0018458Y0047565D01*
G75*
G02*
X0017867Y0046974I-000591J0000000D01*
G01*
X0013832Y0046974D01*
G75*
G02*
X0013241Y0047565I0000000J0000591D01*
G01*
G37*
G36*
G01*
X0013241Y0043825D02*
X0013241Y0045006D01*
G75*
G02*
X0013832Y0045596I0000591J0000000D01*
G01*
X0017867Y0045596D01*
G75*
G02*
X0018458Y0045006I0000000J-000591D01*
G01*
X0018458Y0043825D01*
G75*
G02*
X0017867Y0043234I-000591J0000000D01*
G01*
X0013832Y0043234D01*
G75*
G02*
X0013241Y0043825I0000000J0000591D01*
G01*
G37*
G36*
G01*
X0022198Y0043825D02*
X0022198Y0045006D01*
G75*
G02*
X0022788Y0045596I0000591J0000000D01*
G01*
X0026824Y0045596D01*
G75*
G02*
X0027414Y0045006I0000000J-000591D01*
G01*
X0027414Y0043825D01*
G75*
G02*
X0026824Y0043234I-000591J0000000D01*
G01*
X0022788Y0043234D01*
G75*
G02*
X0022198Y0043825I0000000J0000591D01*
G01*
G37*
G36*
G01*
X0022198Y0047565D02*
X0022198Y0048746D01*
G75*
G02*
X0022788Y0049337I0000591J0000000D01*
G01*
X0026824Y0049337D01*
G75*
G02*
X0027414Y0048746I0000000J-000591D01*
G01*
X0027414Y0047565D01*
G75*
G02*
X0026824Y0046974I-000591J0000000D01*
G01*
X0022788Y0046974D01*
G75*
G02*
X0022198Y0047565I0000000J0000591D01*
G01*
G37*
G36*
G01*
X0022198Y0051305D02*
X0022198Y0052486D01*
G75*
G02*
X0022788Y0053077I0000591J0000000D01*
G01*
X0026824Y0053077D01*
G75*
G02*
X0027414Y0052486I0000000J-000591D01*
G01*
X0027414Y0051305D01*
G75*
G02*
X0026824Y0050715I-000591J0000000D01*
G01*
X0022788Y0050715D01*
G75*
G02*
X0022198Y0051305I0000000J0000591D01*
G01*
G37*
G36*
G01*
X0024360Y0063189D02*
X0024360Y0064527D01*
G75*
G02*
X0024912Y0065078I0000551J0000000D01*
G01*
X0026014Y0065078D01*
G75*
G02*
X0026565Y0064527I0000000J-000551D01*
G01*
X0026565Y0063189D01*
G75*
G02*
X0026014Y0062637I-000551J0000000D01*
G01*
X0024912Y0062637D01*
G75*
G02*
X0024360Y0063189I0000000J0000551D01*
G01*
G37*
G36*
G01*
X0028140Y0063189D02*
X0028140Y0064527D01*
G75*
G02*
X0028691Y0065078I0000551J0000000D01*
G01*
X0029794Y0065078D01*
G75*
G02*
X0030345Y0064527I0000000J-000551D01*
G01*
X0030345Y0063189D01*
G75*
G02*
X0029794Y0062637I-000551J0000000D01*
G01*
X0028691Y0062637D01*
G75*
G02*
X0028140Y0063189I0000000J0000551D01*
G01*
G37*
G36*
G01*
X0045896Y0040984D02*
X0044557Y0040984D01*
G75*
G02*
X0044006Y0041535I0000000J0000551D01*
G01*
X0044006Y0042637D01*
G75*
G02*
X0044557Y0043189I0000551J0000000D01*
G01*
X0045896Y0043189D01*
G75*
G02*
X0046447Y0042637I0000000J-000551D01*
G01*
X0046447Y0041535D01*
G75*
G02*
X0045896Y0040984I-000551J0000000D01*
G01*
G37*
G36*
G01*
X0045896Y0044763D02*
X0044557Y0044763D01*
G75*
G02*
X0044006Y0045315I0000000J0000551D01*
G01*
X0044006Y0046417D01*
G75*
G02*
X0044557Y0046968I0000551J0000000D01*
G01*
X0045896Y0046968D01*
G75*
G02*
X0046447Y0046417I0000000J-000551D01*
G01*
X0046447Y0045315D01*
G75*
G02*
X0045896Y0044763I-000551J0000000D01*
G01*
G37*
G36*
G01*
X0049892Y0048746D02*
X0048435Y0048746D01*
G75*
G02*
X0047904Y0049278I0000000J0000531D01*
G01*
X0047904Y0050341D01*
G75*
G02*
X0048435Y0050872I0000531J0000000D01*
G01*
X0049892Y0050872D01*
G75*
G02*
X0050423Y0050341I0000000J-000531D01*
G01*
X0050423Y0049278D01*
G75*
G02*
X0049892Y0048746I-000531J0000000D01*
G01*
G37*
G36*
G01*
X0049892Y0052762D02*
X0048435Y0052762D01*
G75*
G02*
X0047904Y0053293I0000000J0000531D01*
G01*
X0047904Y0054356D01*
G75*
G02*
X0048435Y0054888I0000531J0000000D01*
G01*
X0049892Y0054888D01*
G75*
G02*
X0050423Y0054356I0000000J-000531D01*
G01*
X0050423Y0053293D01*
G75*
G02*
X0049892Y0052762I-000531J0000000D01*
G01*
G37*
X0086024Y0058268D02*
G01*
G75*
D32*
X0100729Y0068492D02*
D03*
X0100729Y0061012D02*
D03*
X0092264Y0061012D02*
D03*
X0092264Y0064752D02*
D03*
X0116378Y0068492D02*
D03*
X0116378Y0061012D02*
D03*
X0107914Y0061012D02*
D03*
X0107914Y0064752D02*
D03*
D32*
X0092264Y0068492D02*
D03*
X0107914Y0068492D02*
D03*
X0048228Y0002559D02*
G01*
G75*
D46*
X0124803Y0007382D02*
D03*
X0124803Y0014075D02*
D03*
X0124803Y0020866D02*
D03*
X0124803Y0027657D02*
D03*
X0050197Y0024016D02*
D03*
X0050173Y0009758D02*
D03*
D47*
X0072834Y0033465D02*
D03*
D48*
X0081200Y0005226D02*
D03*
X0081200Y0007726D02*
D03*
X0081200Y0010226D02*
D03*
X0081200Y0012726D02*
D03*
X0081200Y0015226D02*
D03*
X0081200Y0017726D02*
D03*
X0081200Y0020226D02*
D03*
X0081200Y0022726D02*
D03*
X0060728Y0005226D02*
D03*
X0060728Y0007726D02*
D03*
X0060728Y0010226D02*
D03*
X0060728Y0012726D02*
D03*
X0060728Y0015226D02*
D03*
X0060728Y0017726D02*
D03*
X0060728Y0020226D02*
D03*
X0060728Y0022726D02*
D03*
D49*
X0068799Y0026279D02*
D03*
X0062500Y0026279D02*
D03*
X0068700Y0030905D02*
D03*
X0062401Y0030905D02*
D03*
D50*
X0101870Y0021555D02*
D03*
X0109350Y0021555D02*
D03*
X0114370Y0021555D02*
D03*
X0121850Y0021555D02*
D03*
X0114370Y0028642D02*
D03*
X0121850Y0028642D02*
D03*
X0101968Y0007480D02*
D03*
X0109449Y0007480D02*
D03*
X0114370Y0007480D02*
D03*
X0121850Y0007480D02*
D03*
X0101968Y0014468D02*
D03*
X0109449Y0014468D02*
D03*
X0114370Y0014468D02*
D03*
X0121850Y0014468D02*
D03*
X0101870Y0028642D02*
D03*
X0109350Y0028642D02*
D03*
D51*
X0096063Y0019291D02*
D03*
X0096063Y0026772D02*
D03*
X0089370Y0019291D02*
D03*
X0089370Y0026772D02*
D03*
X0089468Y0006693D02*
D03*
X0089468Y0014173D02*
D03*
X0096161Y0006693D02*
D03*
X0096161Y0014173D02*
D03*
D52*
X0053149Y0016240D02*
D03*
X0053149Y0009547D02*
D03*
X0052657Y0030610D02*
D03*
X0052657Y0023917D02*
D03*
D53*
X0073267Y0026378D02*
D03*
X0079488Y0026378D02*
D03*
X0073169Y0030709D02*
D03*
X0079389Y0030709D02*
D03*
M02*
