M48
INCH,TZ
T01C0.011800
T02C0.027600
%
T01
X12992Y7480
X12992Y591
X1068Y5016
X1068Y4622
X4077Y13581
X4077Y13266
X4077Y12951
X4077Y12636
X4077Y12321
X4077Y12006
X4077Y11691
X4392Y13581
X6747Y7559
X6747Y7087
X6747Y6614
X6747Y6142
X8720Y6850
X8720Y6496
X12146Y6850
X12146Y6476
X12146Y6102
X1058Y5768
X1085Y7414
X1107Y6585
X1829Y4061
X1838Y4818
X1864Y5597
X1912Y7426
X1914Y6494
X2086Y5792
X2260Y7398
X2347Y4189
X2377Y5504
X2652Y4055
X2708Y7589
X2785Y6042
X2796Y4796
X2950Y7117
X3073Y6106
X3367Y6083
X3609Y6484
X3741Y5678
X3794Y6004
X3804Y5286
X3824Y4203
X3874Y4575
X3914Y4925
X4135Y5583
X4444Y4055
X4513Y5630
X4827Y6054
X4946Y5768
X5044Y5264
X5066Y6727
X5109Y4215
X5132Y6024
X5201Y7398
X5497Y7339
X5680Y6069
X5692Y7568
X6019Y4695
X6495Y4687
X6737Y4518
X6747Y4931
X6763Y4036
X1068Y5016
X1068Y4622
X6747Y7559
X6747Y7087
X6747Y6615
X6747Y6142
X8726Y5956
X8878Y6209
X8720Y6496
X8720Y6851
X9722Y6517
X9996Y6412
X10239Y6625
X9689Y6112
X11168Y6852
X12145Y6851
X12145Y6477
X12145Y6103
X4218Y13439
X5675Y13281
X7702Y12376
X4668Y12359
X6226Y11982
X5562Y11944
X7683Y11588
X4179Y11588
X6935Y11549
X4809Y11549
X7702Y10840
X6935Y10840
X6226Y10840
X5517Y10840
X4809Y10840
X6226Y10132
X4179Y10092
X5517Y9699
X4809Y9699
X7295Y9268
X7604Y9266
X7132Y8951
X7683Y8636
X4572Y8596
X6069Y8498
X4218Y8478
X7171Y8439
X7801Y13557
X7486Y13557
X7171Y13557
X6856Y13557
X6541Y13557
X6226Y13557
X5911Y13557
X7801Y13242
T02
X4707Y9959
X5179Y9959
X7541Y13502
X8407Y9959
X4179Y12927
X4179Y12455
X7722Y10092
X4179Y9226
M30
