G75*
G70*
%OFA0B0*%
%FSLAX25Y25*%
%IPPOS*%
%LPD*%
%AMOC8*
5,1,8,0,0,1.08239X$1,22.5*
%
%ADD13C,0.00394*%
%ADD14C,0.00472*%
X0000000Y0000000D02*
%LPD*%
G01*
D13*
X0006309Y0160763D02*
X0002372Y0160763D01*
X0003685Y0164325D02*
X0006872Y0164325D01*
X0006872Y0164325D02*
X0007247Y0164138D01*
X0007247Y0164138D02*
X0007434Y0163950D01*
X0007434Y0163950D02*
X0007622Y0163575D01*
X0007622Y0163575D02*
X0007622Y0163013D01*
X0007622Y0163013D02*
X0007434Y0162638D01*
X0006122Y0164325D02*
X0006309Y0163950D01*
X0006309Y0163950D02*
X0006309Y0163201D01*
X0006309Y0163201D02*
X0006122Y0162826D01*
X0006122Y0162826D02*
X0005934Y0162638D01*
X0005934Y0162638D02*
X0005559Y0162451D01*
X0005559Y0162451D02*
X0004434Y0162451D01*
X0004434Y0162451D02*
X0004059Y0162638D01*
X0004059Y0162638D02*
X0003872Y0162826D01*
X0003872Y0162826D02*
X0003685Y0163201D01*
X0003685Y0163201D02*
X0003685Y0163950D01*
X0003685Y0163950D02*
X0003872Y0164325D01*
X0003685Y0166200D02*
X0006309Y0166200D01*
X0004059Y0166200D02*
X0003872Y0166388D01*
X0003872Y0166388D02*
X0003685Y0166763D01*
X0003685Y0166763D02*
X0003685Y0167325D01*
X0003685Y0167325D02*
X0003872Y0167700D01*
X0003872Y0167700D02*
X0004247Y0167887D01*
X0004247Y0167887D02*
X0006309Y0167887D01*
X0006309Y0169762D02*
X0003685Y0169762D01*
X0002372Y0169762D02*
X0002560Y0169575D01*
X0002560Y0169575D02*
X0002747Y0169762D01*
X0002747Y0169762D02*
X0002560Y0169950D01*
X0002560Y0169950D02*
X0002372Y0169762D01*
X0002372Y0169762D02*
X0002747Y0169762D01*
X0003685Y0171075D02*
X0003685Y0172574D01*
X0002372Y0171637D02*
X0005747Y0171637D01*
X0005747Y0171637D02*
X0006122Y0171824D01*
X0006122Y0171824D02*
X0006309Y0172199D01*
X0006309Y0172199D02*
X0006309Y0172574D01*
X0006309Y0173887D02*
X0003685Y0173887D01*
X0002372Y0173887D02*
X0002560Y0173699D01*
X0002560Y0173699D02*
X0002747Y0173887D01*
X0002747Y0173887D02*
X0002560Y0174074D01*
X0002560Y0174074D02*
X0002372Y0173887D01*
X0002372Y0173887D02*
X0002747Y0173887D01*
X0006309Y0176324D02*
X0006122Y0175949D01*
X0006122Y0175949D02*
X0005934Y0175761D01*
X0005934Y0175761D02*
X0005559Y0175574D01*
X0005559Y0175574D02*
X0004434Y0175574D01*
X0004434Y0175574D02*
X0004059Y0175761D01*
X0004059Y0175761D02*
X0003872Y0175949D01*
X0003872Y0175949D02*
X0003685Y0176324D01*
X0003685Y0176324D02*
X0003685Y0176886D01*
X0003685Y0176886D02*
X0003872Y0177261D01*
X0003872Y0177261D02*
X0004059Y0177449D01*
X0004059Y0177449D02*
X0004434Y0177636D01*
X0004434Y0177636D02*
X0005559Y0177636D01*
X0005559Y0177636D02*
X0005934Y0177449D01*
X0005934Y0177449D02*
X0006122Y0177261D01*
X0006122Y0177261D02*
X0006309Y0176886D01*
X0006309Y0176886D02*
X0006309Y0176324D01*
X0003685Y0179324D02*
X0006309Y0179324D01*
X0004059Y0179324D02*
X0003872Y0179511D01*
X0003872Y0179511D02*
X0003685Y0179886D01*
X0003685Y0179886D02*
X0003685Y0180448D01*
X0003685Y0180448D02*
X0003872Y0180823D01*
X0003872Y0180823D02*
X0004247Y0181011D01*
X0004247Y0181011D02*
X0006309Y0181011D01*
X0006309Y0186448D02*
X0006122Y0186073D01*
X0006122Y0186073D02*
X0005747Y0185885D01*
X0005747Y0185885D02*
X0002372Y0185885D01*
X0006309Y0188510D02*
X0006122Y0188135D01*
X0006122Y0188135D02*
X0005934Y0187947D01*
X0005934Y0187947D02*
X0005559Y0187760D01*
X0005559Y0187760D02*
X0004434Y0187760D01*
X0004434Y0187760D02*
X0004059Y0187947D01*
X0004059Y0187947D02*
X0003872Y0188135D01*
X0003872Y0188135D02*
X0003685Y0188510D01*
X0003685Y0188510D02*
X0003685Y0189072D01*
X0003685Y0189072D02*
X0003872Y0189447D01*
X0003872Y0189447D02*
X0004059Y0189635D01*
X0004059Y0189635D02*
X0004434Y0189822D01*
X0004434Y0189822D02*
X0005559Y0189822D01*
X0005559Y0189822D02*
X0005934Y0189635D01*
X0005934Y0189635D02*
X0006122Y0189447D01*
X0006122Y0189447D02*
X0006309Y0189072D01*
X0006309Y0189072D02*
X0006309Y0188510D01*
X0003685Y0193197D02*
X0006872Y0193197D01*
X0006872Y0193197D02*
X0007247Y0193009D01*
X0007247Y0193009D02*
X0007434Y0192822D01*
X0007434Y0192822D02*
X0007622Y0192447D01*
X0007622Y0192447D02*
X0007622Y0191884D01*
X0007622Y0191884D02*
X0007434Y0191509D01*
X0006122Y0193197D02*
X0006309Y0192822D01*
X0006309Y0192822D02*
X0006309Y0192072D01*
X0006309Y0192072D02*
X0006122Y0191697D01*
X0006122Y0191697D02*
X0005934Y0191509D01*
X0005934Y0191509D02*
X0005559Y0191322D01*
X0005559Y0191322D02*
X0004434Y0191322D01*
X0004434Y0191322D02*
X0004059Y0191509D01*
X0004059Y0191509D02*
X0003872Y0191697D01*
X0003872Y0191697D02*
X0003685Y0192072D01*
X0003685Y0192072D02*
X0003685Y0192822D01*
X0003685Y0192822D02*
X0003872Y0193197D01*
X0006309Y0195072D02*
X0003685Y0195072D01*
X0002372Y0195072D02*
X0002560Y0194884D01*
X0002560Y0194884D02*
X0002747Y0195072D01*
X0002747Y0195072D02*
X0002560Y0195259D01*
X0002560Y0195259D02*
X0002372Y0195072D01*
X0002372Y0195072D02*
X0002747Y0195072D01*
X0006122Y0198634D02*
X0006309Y0198259D01*
X0006309Y0198259D02*
X0006309Y0197509D01*
X0006309Y0197509D02*
X0006122Y0197134D01*
X0006122Y0197134D02*
X0005934Y0196946D01*
X0005934Y0196946D02*
X0005559Y0196759D01*
X0005559Y0196759D02*
X0004434Y0196759D01*
X0004434Y0196759D02*
X0004059Y0196946D01*
X0004059Y0196946D02*
X0003872Y0197134D01*
X0003872Y0197134D02*
X0003685Y0197509D01*
X0003685Y0197509D02*
X0003685Y0198259D01*
X0003685Y0198259D02*
X0003872Y0198634D01*
X0006309Y0203883D02*
X0006122Y0203508D01*
X0006122Y0203508D02*
X0005747Y0203321D01*
X0005747Y0203321D02*
X0002372Y0203321D01*
X0006122Y0206883D02*
X0006309Y0206508D01*
X0006309Y0206508D02*
X0006309Y0205758D01*
X0006309Y0205758D02*
X0006122Y0205383D01*
X0006122Y0205383D02*
X0005747Y0205195D01*
X0005747Y0205195D02*
X0004247Y0205195D01*
X0004247Y0205195D02*
X0003872Y0205383D01*
X0003872Y0205383D02*
X0003685Y0205758D01*
X0003685Y0205758D02*
X0003685Y0206508D01*
X0003685Y0206508D02*
X0003872Y0206883D01*
X0003872Y0206883D02*
X0004247Y0207070D01*
X0004247Y0207070D02*
X0004622Y0207070D01*
X0004622Y0207070D02*
X0004997Y0205195D01*
X0003685Y0208382D02*
X0006309Y0209320D01*
X0006309Y0209320D02*
X0003685Y0210257D01*
X0006122Y0213257D02*
X0006309Y0212882D01*
X0006309Y0212882D02*
X0006309Y0212132D01*
X0006309Y0212132D02*
X0006122Y0211757D01*
X0006122Y0211757D02*
X0005747Y0211569D01*
X0005747Y0211569D02*
X0004247Y0211569D01*
X0004247Y0211569D02*
X0003872Y0211757D01*
X0003872Y0211757D02*
X0003685Y0212132D01*
X0003685Y0212132D02*
X0003685Y0212882D01*
X0003685Y0212882D02*
X0003872Y0213257D01*
X0003872Y0213257D02*
X0004247Y0213444D01*
X0004247Y0213444D02*
X0004622Y0213444D01*
X0004622Y0213444D02*
X0004997Y0211569D01*
X0006309Y0215694D02*
X0006122Y0215319D01*
X0006122Y0215319D02*
X0005747Y0215132D01*
X0005747Y0215132D02*
X0002372Y0215132D01*
X0006309Y0220756D02*
X0006122Y0220381D01*
X0006122Y0220381D02*
X0005934Y0220193D01*
X0005934Y0220193D02*
X0005559Y0220006D01*
X0005559Y0220006D02*
X0004434Y0220006D01*
X0004434Y0220006D02*
X0004059Y0220193D01*
X0004059Y0220193D02*
X0003872Y0220381D01*
X0003872Y0220381D02*
X0003685Y0220756D01*
X0003685Y0220756D02*
X0003685Y0221318D01*
X0003685Y0221318D02*
X0003872Y0221693D01*
X0003872Y0221693D02*
X0004059Y0221881D01*
X0004059Y0221881D02*
X0004434Y0222068D01*
X0004434Y0222068D02*
X0005559Y0222068D01*
X0005559Y0222068D02*
X0005934Y0221881D01*
X0005934Y0221881D02*
X0006122Y0221693D01*
X0006122Y0221693D02*
X0006309Y0221318D01*
X0006309Y0221318D02*
X0006309Y0220756D01*
X0003685Y0225443D02*
X0006309Y0225443D01*
X0003685Y0223755D02*
X0005747Y0223755D01*
X0005747Y0223755D02*
X0006122Y0223943D01*
X0006122Y0223943D02*
X0006309Y0224318D01*
X0006309Y0224318D02*
X0006309Y0224880D01*
X0006309Y0224880D02*
X0006122Y0225255D01*
X0006122Y0225255D02*
X0005934Y0225443D01*
X0003685Y0226755D02*
X0003685Y0228255D01*
X0002372Y0227318D02*
X0005747Y0227318D01*
X0005747Y0227318D02*
X0006122Y0227505D01*
X0006122Y0227505D02*
X0006309Y0227880D01*
X0006309Y0227880D02*
X0006309Y0228255D01*
X0003685Y0229567D02*
X0007622Y0229567D01*
X0003872Y0229567D02*
X0003685Y0229942D01*
X0003685Y0229942D02*
X0003685Y0230692D01*
X0003685Y0230692D02*
X0003872Y0231067D01*
X0003872Y0231067D02*
X0004059Y0231255D01*
X0004059Y0231255D02*
X0004434Y0231442D01*
X0004434Y0231442D02*
X0005559Y0231442D01*
X0005559Y0231442D02*
X0005934Y0231255D01*
X0005934Y0231255D02*
X0006122Y0231067D01*
X0006122Y0231067D02*
X0006309Y0230692D01*
X0006309Y0230692D02*
X0006309Y0229942D01*
X0006309Y0229942D02*
X0006122Y0229567D01*
X0003685Y0234817D02*
X0006309Y0234817D01*
X0003685Y0233129D02*
X0005747Y0233129D01*
X0005747Y0233129D02*
X0006122Y0233317D01*
X0006122Y0233317D02*
X0006309Y0233692D01*
X0006309Y0233692D02*
X0006309Y0234254D01*
X0006309Y0234254D02*
X0006122Y0234629D01*
X0006122Y0234629D02*
X0005934Y0234817D01*
X0003685Y0236129D02*
X0003685Y0237629D01*
X0002372Y0236691D02*
X0005747Y0236691D01*
X0005747Y0236691D02*
X0006122Y0236879D01*
X0006122Y0236879D02*
X0006309Y0237254D01*
X0006309Y0237254D02*
X0006309Y0237629D01*
X0006122Y0238754D02*
X0006309Y0239129D01*
X0006309Y0239129D02*
X0006309Y0239878D01*
X0006309Y0239878D02*
X0006122Y0240253D01*
X0006122Y0240253D02*
X0005747Y0240441D01*
X0005747Y0240441D02*
X0005559Y0240441D01*
X0005559Y0240441D02*
X0005184Y0240253D01*
X0005184Y0240253D02*
X0004997Y0239878D01*
X0004997Y0239878D02*
X0004997Y0239316D01*
X0004997Y0239316D02*
X0004809Y0238941D01*
X0004809Y0238941D02*
X0004434Y0238754D01*
X0004434Y0238754D02*
X0004247Y0238754D01*
X0004247Y0238754D02*
X0003872Y0238941D01*
X0003872Y0238941D02*
X0003685Y0239316D01*
X0003685Y0239316D02*
X0003685Y0239878D01*
X0003685Y0239878D02*
X0003872Y0240253D01*
X0006309Y0245128D02*
X0002372Y0245128D01*
X0003872Y0245128D02*
X0003685Y0245503D01*
X0003685Y0245503D02*
X0003685Y0246253D01*
X0003685Y0246253D02*
X0003872Y0246628D01*
X0003872Y0246628D02*
X0004059Y0246815D01*
X0004059Y0246815D02*
X0004434Y0247003D01*
X0004434Y0247003D02*
X0005559Y0247003D01*
X0005559Y0247003D02*
X0005934Y0246815D01*
X0005934Y0246815D02*
X0006122Y0246628D01*
X0006122Y0246628D02*
X0006309Y0246253D01*
X0006309Y0246253D02*
X0006309Y0245503D01*
X0006309Y0245503D02*
X0006122Y0245128D01*
X0003685Y0248315D02*
X0006309Y0249252D01*
X0003685Y0250190D02*
X0006309Y0249252D01*
X0006309Y0249252D02*
X0007247Y0248877D01*
X0007247Y0248877D02*
X0007434Y0248690D01*
X0007434Y0248690D02*
X0007622Y0248315D01*
X0006309Y0256376D02*
X0002372Y0256376D01*
X0006122Y0256376D02*
X0006309Y0256001D01*
X0006309Y0256001D02*
X0006309Y0255252D01*
X0006309Y0255252D02*
X0006122Y0254877D01*
X0006122Y0254877D02*
X0005934Y0254689D01*
X0005934Y0254689D02*
X0005559Y0254502D01*
X0005559Y0254502D02*
X0004434Y0254502D01*
X0004434Y0254502D02*
X0004059Y0254689D01*
X0004059Y0254689D02*
X0003872Y0254877D01*
X0003872Y0254877D02*
X0003685Y0255252D01*
X0003685Y0255252D02*
X0003685Y0256001D01*
X0003685Y0256001D02*
X0003872Y0256376D01*
X0006122Y0259751D02*
X0006309Y0259376D01*
X0006309Y0259376D02*
X0006309Y0258626D01*
X0006309Y0258626D02*
X0006122Y0258251D01*
X0006122Y0258251D02*
X0005747Y0258064D01*
X0005747Y0258064D02*
X0004247Y0258064D01*
X0004247Y0258064D02*
X0003872Y0258251D01*
X0003872Y0258251D02*
X0003685Y0258626D01*
X0003685Y0258626D02*
X0003685Y0259376D01*
X0003685Y0259376D02*
X0003872Y0259751D01*
X0003872Y0259751D02*
X0004247Y0259938D01*
X0004247Y0259938D02*
X0004622Y0259938D01*
X0004622Y0259938D02*
X0004997Y0258064D01*
X0003685Y0261063D02*
X0003685Y0262563D01*
X0006309Y0261626D02*
X0002935Y0261626D01*
X0002935Y0261626D02*
X0002560Y0261813D01*
X0002560Y0261813D02*
X0002372Y0262188D01*
X0002372Y0262188D02*
X0002372Y0262563D01*
X0006309Y0265563D02*
X0004247Y0265563D01*
X0004247Y0265563D02*
X0003872Y0265375D01*
X0003872Y0265375D02*
X0003685Y0265000D01*
X0003685Y0265000D02*
X0003685Y0264250D01*
X0003685Y0264250D02*
X0003872Y0263875D01*
X0006122Y0265563D02*
X0006309Y0265188D01*
X0006309Y0265188D02*
X0006309Y0264250D01*
X0006309Y0264250D02*
X0006122Y0263875D01*
X0006122Y0263875D02*
X0005747Y0263688D01*
X0005747Y0263688D02*
X0005372Y0263688D01*
X0005372Y0263688D02*
X0004997Y0263875D01*
X0004997Y0263875D02*
X0004809Y0264250D01*
X0004809Y0264250D02*
X0004809Y0265188D01*
X0004809Y0265188D02*
X0004622Y0265563D01*
X0003685Y0269125D02*
X0006309Y0269125D01*
X0003685Y0267438D02*
X0005747Y0267438D01*
X0005747Y0267438D02*
X0006122Y0267625D01*
X0006122Y0267625D02*
X0006309Y0268000D01*
X0006309Y0268000D02*
X0006309Y0268562D01*
X0006309Y0268562D02*
X0006122Y0268937D01*
X0006122Y0268937D02*
X0005934Y0269125D01*
X0006309Y0271562D02*
X0006122Y0271187D01*
X0006122Y0271187D02*
X0005747Y0271000D01*
X0005747Y0271000D02*
X0002372Y0271000D01*
X0003685Y0272499D02*
X0003685Y0273999D01*
X0002372Y0273062D02*
X0005747Y0273062D01*
X0005747Y0273062D02*
X0006122Y0273249D01*
X0006122Y0273249D02*
X0006309Y0273624D01*
X0006309Y0273624D02*
X0006309Y0273999D01*
X0010023Y0160201D02*
X0010023Y0161701D01*
X0008711Y0160763D02*
X0012085Y0160763D01*
X0012085Y0160763D02*
X0012460Y0160951D01*
X0012460Y0160951D02*
X0012648Y0161326D01*
X0012648Y0161326D02*
X0012648Y0161701D01*
X0012648Y0163575D02*
X0012460Y0163201D01*
X0012460Y0163201D02*
X0012273Y0163013D01*
X0012273Y0163013D02*
X0011898Y0162826D01*
X0011898Y0162826D02*
X0010773Y0162826D01*
X0010773Y0162826D02*
X0010398Y0163013D01*
X0010398Y0163013D02*
X0010210Y0163201D01*
X0010210Y0163201D02*
X0010023Y0163575D01*
X0010023Y0163575D02*
X0010023Y0164138D01*
X0010023Y0164138D02*
X0010210Y0164513D01*
X0010210Y0164513D02*
X0010398Y0164700D01*
X0010398Y0164700D02*
X0010773Y0164888D01*
X0010773Y0164888D02*
X0011898Y0164888D01*
X0011898Y0164888D02*
X0012273Y0164700D01*
X0012273Y0164700D02*
X0012460Y0164513D01*
X0012460Y0164513D02*
X0012648Y0164138D01*
X0012648Y0164138D02*
X0012648Y0163575D01*
X0012460Y0171262D02*
X0012648Y0170887D01*
X0012648Y0170887D02*
X0012648Y0170137D01*
X0012648Y0170137D02*
X0012460Y0169762D01*
X0012460Y0169762D02*
X0012273Y0169575D01*
X0012273Y0169575D02*
X0011898Y0169387D01*
X0011898Y0169387D02*
X0010773Y0169387D01*
X0010773Y0169387D02*
X0010398Y0169575D01*
X0010398Y0169575D02*
X0010210Y0169762D01*
X0010210Y0169762D02*
X0010023Y0170137D01*
X0010023Y0170137D02*
X0010023Y0170887D01*
X0010023Y0170887D02*
X0010210Y0171262D01*
X0012648Y0173512D02*
X0012460Y0173137D01*
X0012460Y0173137D02*
X0012273Y0172949D01*
X0012273Y0172949D02*
X0011898Y0172762D01*
X0011898Y0172762D02*
X0010773Y0172762D01*
X0010773Y0172762D02*
X0010398Y0172949D01*
X0010398Y0172949D02*
X0010210Y0173137D01*
X0010210Y0173137D02*
X0010023Y0173512D01*
X0010023Y0173512D02*
X0010023Y0174074D01*
X0010023Y0174074D02*
X0010210Y0174449D01*
X0010210Y0174449D02*
X0010398Y0174637D01*
X0010398Y0174637D02*
X0010773Y0174824D01*
X0010773Y0174824D02*
X0011898Y0174824D01*
X0011898Y0174824D02*
X0012273Y0174637D01*
X0012273Y0174637D02*
X0012460Y0174449D01*
X0012460Y0174449D02*
X0012648Y0174074D01*
X0012648Y0174074D02*
X0012648Y0173512D01*
X0010023Y0176511D02*
X0012648Y0176511D01*
X0010398Y0176511D02*
X0010210Y0176699D01*
X0010210Y0176699D02*
X0010023Y0177074D01*
X0010023Y0177074D02*
X0010023Y0177636D01*
X0010023Y0177636D02*
X0010210Y0178011D01*
X0010210Y0178011D02*
X0010585Y0178199D01*
X0010585Y0178199D02*
X0012648Y0178199D01*
X0010023Y0179511D02*
X0010023Y0181011D01*
X0008711Y0180073D02*
X0012085Y0180073D01*
X0012085Y0180073D02*
X0012460Y0180261D01*
X0012460Y0180261D02*
X0012648Y0180636D01*
X0012648Y0180636D02*
X0012648Y0181011D01*
X0012648Y0182323D02*
X0010023Y0182323D01*
X0010773Y0182323D02*
X0010398Y0182511D01*
X0010398Y0182511D02*
X0010210Y0182698D01*
X0010210Y0182698D02*
X0010023Y0183073D01*
X0010023Y0183073D02*
X0010023Y0183448D01*
X0012648Y0185323D02*
X0012460Y0184948D01*
X0012460Y0184948D02*
X0012273Y0184760D01*
X0012273Y0184760D02*
X0011898Y0184573D01*
X0011898Y0184573D02*
X0010773Y0184573D01*
X0010773Y0184573D02*
X0010398Y0184760D01*
X0010398Y0184760D02*
X0010210Y0184948D01*
X0010210Y0184948D02*
X0010023Y0185323D01*
X0010023Y0185323D02*
X0010023Y0185885D01*
X0010023Y0185885D02*
X0010210Y0186260D01*
X0010210Y0186260D02*
X0010398Y0186448D01*
X0010398Y0186448D02*
X0010773Y0186635D01*
X0010773Y0186635D02*
X0011898Y0186635D01*
X0011898Y0186635D02*
X0012273Y0186448D01*
X0012273Y0186448D02*
X0012460Y0186260D01*
X0012460Y0186260D02*
X0012648Y0185885D01*
X0012648Y0185885D02*
X0012648Y0185323D01*
X0012648Y0188885D02*
X0012460Y0188510D01*
X0012460Y0188510D02*
X0012085Y0188322D01*
X0012085Y0188322D02*
X0008711Y0188322D01*
X0012648Y0195072D02*
X0008711Y0195072D01*
X0012460Y0195072D02*
X0012648Y0194697D01*
X0012648Y0194697D02*
X0012648Y0193947D01*
X0012648Y0193947D02*
X0012460Y0193572D01*
X0012460Y0193572D02*
X0012273Y0193384D01*
X0012273Y0193384D02*
X0011898Y0193197D01*
X0011898Y0193197D02*
X0010773Y0193197D01*
X0010773Y0193197D02*
X0010398Y0193384D01*
X0010398Y0193384D02*
X0010210Y0193572D01*
X0010210Y0193572D02*
X0010023Y0193947D01*
X0010023Y0193947D02*
X0010023Y0194697D01*
X0010023Y0194697D02*
X0010210Y0195072D01*
X0010023Y0198634D02*
X0012648Y0198634D01*
X0010023Y0196946D02*
X0012085Y0196946D01*
X0012085Y0196946D02*
X0012460Y0197134D01*
X0012460Y0197134D02*
X0012648Y0197509D01*
X0012648Y0197509D02*
X0012648Y0198071D01*
X0012648Y0198071D02*
X0012460Y0198446D01*
X0012460Y0198446D02*
X0012273Y0198634D01*
X0012648Y0200508D02*
X0010023Y0200508D01*
X0010398Y0200508D02*
X0010210Y0200696D01*
X0010210Y0200696D02*
X0010023Y0201071D01*
X0010023Y0201071D02*
X0010023Y0201633D01*
X0010023Y0201633D02*
X0010210Y0202008D01*
X0010210Y0202008D02*
X0010585Y0202196D01*
X0010585Y0202196D02*
X0012648Y0202196D01*
X0010585Y0202196D02*
X0010210Y0202383D01*
X0010210Y0202383D02*
X0010023Y0202758D01*
X0010023Y0202758D02*
X0010023Y0203321D01*
X0010023Y0203321D02*
X0010210Y0203695D01*
X0010210Y0203695D02*
X0010585Y0203883D01*
X0010585Y0203883D02*
X0012648Y0203883D01*
X0012648Y0205758D02*
X0008711Y0205758D01*
X0010210Y0205758D02*
X0010023Y0206133D01*
X0010023Y0206133D02*
X0010023Y0206883D01*
X0010023Y0206883D02*
X0010210Y0207258D01*
X0010210Y0207258D02*
X0010398Y0207445D01*
X0010398Y0207445D02*
X0010773Y0207632D01*
X0010773Y0207632D02*
X0011898Y0207632D01*
X0011898Y0207632D02*
X0012273Y0207445D01*
X0012273Y0207445D02*
X0012460Y0207258D01*
X0012460Y0207258D02*
X0012648Y0206883D01*
X0012648Y0206883D02*
X0012648Y0206133D01*
X0012648Y0206133D02*
X0012460Y0205758D01*
X0012460Y0214007D02*
X0012648Y0213632D01*
X0012648Y0213632D02*
X0012648Y0212882D01*
X0012648Y0212882D02*
X0012460Y0212507D01*
X0012460Y0212507D02*
X0012273Y0212319D01*
X0012273Y0212319D02*
X0011898Y0212132D01*
X0011898Y0212132D02*
X0010773Y0212132D01*
X0010773Y0212132D02*
X0010398Y0212319D01*
X0010398Y0212319D02*
X0010210Y0212507D01*
X0010210Y0212507D02*
X0010023Y0212882D01*
X0010023Y0212882D02*
X0010023Y0213632D01*
X0010023Y0213632D02*
X0010210Y0214007D01*
X0012648Y0216256D02*
X0012460Y0215881D01*
X0012460Y0215881D02*
X0012273Y0215694D01*
X0012273Y0215694D02*
X0011898Y0215506D01*
X0011898Y0215506D02*
X0010773Y0215506D01*
X0010773Y0215506D02*
X0010398Y0215694D01*
X0010398Y0215694D02*
X0010210Y0215881D01*
X0010210Y0215881D02*
X0010023Y0216256D01*
X0010023Y0216256D02*
X0010023Y0216819D01*
X0010023Y0216819D02*
X0010210Y0217194D01*
X0010210Y0217194D02*
X0010398Y0217381D01*
X0010398Y0217381D02*
X0010773Y0217569D01*
X0010773Y0217569D02*
X0011898Y0217569D01*
X0011898Y0217569D02*
X0012273Y0217381D01*
X0012273Y0217381D02*
X0012460Y0217194D01*
X0012460Y0217194D02*
X0012648Y0216819D01*
X0012648Y0216819D02*
X0012648Y0216256D01*
X0012648Y0219256D02*
X0010023Y0219256D01*
X0008711Y0219256D02*
X0008898Y0219069D01*
X0008898Y0219069D02*
X0009085Y0219256D01*
X0009085Y0219256D02*
X0008898Y0219444D01*
X0008898Y0219444D02*
X0008711Y0219256D01*
X0008711Y0219256D02*
X0009085Y0219256D01*
X0012648Y0221693D02*
X0012460Y0221318D01*
X0012460Y0221318D02*
X0012085Y0221131D01*
X0012085Y0221131D02*
X0008711Y0221131D01*
X0012460Y0223006D02*
X0012648Y0223381D01*
X0012648Y0223381D02*
X0012648Y0224130D01*
X0012648Y0224130D02*
X0012460Y0224505D01*
X0012460Y0224505D02*
X0012085Y0224693D01*
X0012085Y0224693D02*
X0011898Y0224693D01*
X0011898Y0224693D02*
X0011523Y0224505D01*
X0011523Y0224505D02*
X0011335Y0224130D01*
X0011335Y0224130D02*
X0011335Y0223568D01*
X0011335Y0223568D02*
X0011148Y0223193D01*
X0011148Y0223193D02*
X0010773Y0223006D01*
X0010773Y0223006D02*
X0010585Y0223006D01*
X0010585Y0223006D02*
X0010210Y0223193D01*
X0010210Y0223193D02*
X0010023Y0223568D01*
X0010023Y0223568D02*
X0010023Y0224130D01*
X0010023Y0224130D02*
X0010210Y0224505D01*
X0012648Y0229380D02*
X0010023Y0229380D01*
X0010773Y0229380D02*
X0010398Y0229567D01*
X0010398Y0229567D02*
X0010210Y0229755D01*
X0010210Y0229755D02*
X0010023Y0230130D01*
X0010023Y0230130D02*
X0010023Y0230505D01*
X0012460Y0233317D02*
X0012648Y0232942D01*
X0012648Y0232942D02*
X0012648Y0232192D01*
X0012648Y0232192D02*
X0012460Y0231817D01*
X0012460Y0231817D02*
X0012085Y0231629D01*
X0012085Y0231629D02*
X0010585Y0231629D01*
X0010585Y0231629D02*
X0010210Y0231817D01*
X0010210Y0231817D02*
X0010023Y0232192D01*
X0010023Y0232192D02*
X0010023Y0232942D01*
X0010023Y0232942D02*
X0010210Y0233317D01*
X0010210Y0233317D02*
X0010585Y0233504D01*
X0010585Y0233504D02*
X0010960Y0233504D01*
X0010960Y0233504D02*
X0011335Y0231629D01*
X0012648Y0235192D02*
X0010023Y0235192D01*
X0010398Y0235192D02*
X0010210Y0235379D01*
X0010210Y0235379D02*
X0010023Y0235754D01*
X0010023Y0235754D02*
X0010023Y0236316D01*
X0010023Y0236316D02*
X0010210Y0236691D01*
X0010210Y0236691D02*
X0010585Y0236879D01*
X0010585Y0236879D02*
X0012648Y0236879D01*
X0010585Y0236879D02*
X0010210Y0237066D01*
X0010210Y0237066D02*
X0010023Y0237441D01*
X0010023Y0237441D02*
X0010023Y0238004D01*
X0010023Y0238004D02*
X0010210Y0238379D01*
X0010210Y0238379D02*
X0010585Y0238566D01*
X0010585Y0238566D02*
X0012648Y0238566D01*
X0012648Y0241003D02*
X0012460Y0240628D01*
X0012460Y0240628D02*
X0012273Y0240441D01*
X0012273Y0240441D02*
X0011898Y0240253D01*
X0011898Y0240253D02*
X0010773Y0240253D01*
X0010773Y0240253D02*
X0010398Y0240441D01*
X0010398Y0240441D02*
X0010210Y0240628D01*
X0010210Y0240628D02*
X0010023Y0241003D01*
X0010023Y0241003D02*
X0010023Y0241566D01*
X0010023Y0241566D02*
X0010210Y0241941D01*
X0010210Y0241941D02*
X0010398Y0242128D01*
X0010398Y0242128D02*
X0010773Y0242316D01*
X0010773Y0242316D02*
X0011898Y0242316D01*
X0011898Y0242316D02*
X0012273Y0242128D01*
X0012273Y0242128D02*
X0012460Y0241941D01*
X0012460Y0241941D02*
X0012648Y0241566D01*
X0012648Y0241566D02*
X0012648Y0241003D01*
X0010023Y0243628D02*
X0012648Y0244565D01*
X0012648Y0244565D02*
X0010023Y0245503D01*
X0012460Y0248502D02*
X0012648Y0248127D01*
X0012648Y0248127D02*
X0012648Y0247378D01*
X0012648Y0247378D02*
X0012460Y0247003D01*
X0012460Y0247003D02*
X0012085Y0246815D01*
X0012085Y0246815D02*
X0010585Y0246815D01*
X0010585Y0246815D02*
X0010210Y0247003D01*
X0010210Y0247003D02*
X0010023Y0247378D01*
X0010023Y0247378D02*
X0010023Y0248127D01*
X0010023Y0248127D02*
X0010210Y0248502D01*
X0010210Y0248502D02*
X0010585Y0248690D01*
X0010585Y0248690D02*
X0010960Y0248690D01*
X0010960Y0248690D02*
X0011335Y0246815D01*
X0012648Y0255626D02*
X0010773Y0254314D01*
X0012648Y0253377D02*
X0008711Y0253377D01*
X0008711Y0253377D02*
X0008711Y0254877D01*
X0008711Y0254877D02*
X0008898Y0255252D01*
X0008898Y0255252D02*
X0009085Y0255439D01*
X0009085Y0255439D02*
X0009460Y0255626D01*
X0009460Y0255626D02*
X0010023Y0255626D01*
X0010023Y0255626D02*
X0010398Y0255439D01*
X0010398Y0255439D02*
X0010585Y0255252D01*
X0010585Y0255252D02*
X0010773Y0254877D01*
X0010773Y0254877D02*
X0010773Y0253377D01*
X0009085Y0257126D02*
X0008898Y0257314D01*
X0008898Y0257314D02*
X0008711Y0257689D01*
X0008711Y0257689D02*
X0008711Y0258626D01*
X0008711Y0258626D02*
X0008898Y0259001D01*
X0008898Y0259001D02*
X0009085Y0259189D01*
X0009085Y0259189D02*
X0009460Y0259376D01*
X0009460Y0259376D02*
X0009835Y0259376D01*
X0009835Y0259376D02*
X0010398Y0259189D01*
X0010398Y0259189D02*
X0012648Y0256939D01*
X0012648Y0256939D02*
X0012648Y0259376D01*
X0008711Y0261813D02*
X0008711Y0262188D01*
X0008711Y0262188D02*
X0008898Y0262563D01*
X0008898Y0262563D02*
X0009085Y0262751D01*
X0009085Y0262751D02*
X0009460Y0262938D01*
X0009460Y0262938D02*
X0010210Y0263126D01*
X0010210Y0263126D02*
X0011148Y0263126D01*
X0011148Y0263126D02*
X0011898Y0262938D01*
X0011898Y0262938D02*
X0012273Y0262751D01*
X0012273Y0262751D02*
X0012460Y0262563D01*
X0012460Y0262563D02*
X0012648Y0262188D01*
X0012648Y0262188D02*
X0012648Y0261813D01*
X0012648Y0261813D02*
X0012460Y0261438D01*
X0012460Y0261438D02*
X0012273Y0261251D01*
X0012273Y0261251D02*
X0011898Y0261063D01*
X0011898Y0261063D02*
X0011148Y0260876D01*
X0011148Y0260876D02*
X0010210Y0260876D01*
X0010210Y0260876D02*
X0009460Y0261063D01*
X0009460Y0261063D02*
X0009085Y0261251D01*
X0009085Y0261251D02*
X0008898Y0261438D01*
X0008898Y0261438D02*
X0008711Y0261813D01*
X0011148Y0264813D02*
X0011148Y0267812D01*
X0012648Y0271937D02*
X0010773Y0270625D01*
X0012648Y0269687D02*
X0008711Y0269687D01*
X0008711Y0269687D02*
X0008711Y0271187D01*
X0008711Y0271187D02*
X0008898Y0271562D01*
X0008898Y0271562D02*
X0009085Y0271749D01*
X0009085Y0271749D02*
X0009460Y0271937D01*
X0009460Y0271937D02*
X0010023Y0271937D01*
X0010023Y0271937D02*
X0010398Y0271749D01*
X0010398Y0271749D02*
X0010585Y0271562D01*
X0010585Y0271562D02*
X0010773Y0271187D01*
X0010773Y0271187D02*
X0010773Y0269687D01*
X0009085Y0273437D02*
X0008898Y0273624D01*
X0008898Y0273624D02*
X0008711Y0273999D01*
X0008711Y0273999D02*
X0008711Y0274937D01*
X0008711Y0274937D02*
X0008898Y0275312D01*
X0008898Y0275312D02*
X0009085Y0275499D01*
X0009085Y0275499D02*
X0009460Y0275686D01*
X0009460Y0275686D02*
X0009835Y0275686D01*
X0009835Y0275686D02*
X0010398Y0275499D01*
X0010398Y0275499D02*
X0012648Y0273249D01*
X0012648Y0273249D02*
X0012648Y0275686D01*
X0009085Y0277186D02*
X0008898Y0277374D01*
X0008898Y0277374D02*
X0008711Y0277749D01*
X0008711Y0277749D02*
X0008711Y0278686D01*
X0008711Y0278686D02*
X0008898Y0279061D01*
X0008898Y0279061D02*
X0009085Y0279249D01*
X0009085Y0279249D02*
X0009460Y0279436D01*
X0009460Y0279436D02*
X0009835Y0279436D01*
X0009835Y0279436D02*
X0010398Y0279249D01*
X0010398Y0279249D02*
X0012648Y0276999D01*
X0012648Y0276999D02*
X0012648Y0279436D01*
X0012460Y0281311D02*
X0012648Y0281311D01*
X0012648Y0281311D02*
X0013022Y0281123D01*
X0013022Y0281123D02*
X0013210Y0280936D01*
X0018986Y0163013D02*
X0017111Y0161701D01*
X0018986Y0160763D02*
X0015049Y0160763D01*
X0015049Y0160763D02*
X0015049Y0162263D01*
X0015049Y0162263D02*
X0015236Y0162638D01*
X0015236Y0162638D02*
X0015424Y0162826D01*
X0015424Y0162826D02*
X0015799Y0163013D01*
X0015799Y0163013D02*
X0016361Y0163013D01*
X0016361Y0163013D02*
X0016736Y0162826D01*
X0016736Y0162826D02*
X0016924Y0162638D01*
X0016924Y0162638D02*
X0017111Y0162263D01*
X0017111Y0162263D02*
X0017111Y0160763D01*
X0015424Y0164513D02*
X0015236Y0164700D01*
X0015236Y0164700D02*
X0015049Y0165075D01*
X0015049Y0165075D02*
X0015049Y0166013D01*
X0015049Y0166013D02*
X0015236Y0166388D01*
X0015236Y0166388D02*
X0015424Y0166575D01*
X0015424Y0166575D02*
X0015799Y0166763D01*
X0015799Y0166763D02*
X0016174Y0166763D01*
X0016174Y0166763D02*
X0016736Y0166575D01*
X0016736Y0166575D02*
X0018986Y0164325D01*
X0018986Y0164325D02*
X0018986Y0166763D01*
X0015049Y0170137D02*
X0015049Y0169387D01*
X0015049Y0169387D02*
X0015236Y0169012D01*
X0015236Y0169012D02*
X0015424Y0168825D01*
X0015424Y0168825D02*
X0015986Y0168450D01*
X0015986Y0168450D02*
X0016736Y0168262D01*
X0016736Y0168262D02*
X0018236Y0168262D01*
X0018236Y0168262D02*
X0018611Y0168450D01*
X0018611Y0168450D02*
X0018798Y0168637D01*
X0018798Y0168637D02*
X0018986Y0169012D01*
X0018986Y0169012D02*
X0018986Y0169762D01*
X0018986Y0169762D02*
X0018798Y0170137D01*
X0018798Y0170137D02*
X0018611Y0170325D01*
X0018611Y0170325D02*
X0018236Y0170512D01*
X0018236Y0170512D02*
X0017299Y0170512D01*
X0017299Y0170512D02*
X0016924Y0170325D01*
X0016924Y0170325D02*
X0016736Y0170137D01*
X0016736Y0170137D02*
X0016549Y0169762D01*
X0016549Y0169762D02*
X0016549Y0169012D01*
X0016549Y0169012D02*
X0016736Y0168637D01*
X0016736Y0168637D02*
X0016924Y0168450D01*
X0016924Y0168450D02*
X0017299Y0168262D01*
X0017486Y0172199D02*
X0017486Y0175199D01*
X0018986Y0179324D02*
X0017111Y0178011D01*
X0018986Y0177074D02*
X0015049Y0177074D01*
X0015049Y0177074D02*
X0015049Y0178574D01*
X0015049Y0178574D02*
X0015236Y0178949D01*
X0015236Y0178949D02*
X0015424Y0179136D01*
X0015424Y0179136D02*
X0015799Y0179324D01*
X0015799Y0179324D02*
X0016361Y0179324D01*
X0016361Y0179324D02*
X0016736Y0179136D01*
X0016736Y0179136D02*
X0016924Y0178949D01*
X0016924Y0178949D02*
X0017111Y0178574D01*
X0017111Y0178574D02*
X0017111Y0177074D01*
X0015424Y0180823D02*
X0015236Y0181011D01*
X0015236Y0181011D02*
X0015049Y0181386D01*
X0015049Y0181386D02*
X0015049Y0182323D01*
X0015049Y0182323D02*
X0015236Y0182698D01*
X0015236Y0182698D02*
X0015424Y0182886D01*
X0015424Y0182886D02*
X0015799Y0183073D01*
X0015799Y0183073D02*
X0016174Y0183073D01*
X0016174Y0183073D02*
X0016736Y0182886D01*
X0016736Y0182886D02*
X0018986Y0180636D01*
X0018986Y0180636D02*
X0018986Y0183073D01*
X0016736Y0185323D02*
X0016549Y0184948D01*
X0016549Y0184948D02*
X0016361Y0184760D01*
X0016361Y0184760D02*
X0015986Y0184573D01*
X0015986Y0184573D02*
X0015799Y0184573D01*
X0015799Y0184573D02*
X0015424Y0184760D01*
X0015424Y0184760D02*
X0015236Y0184948D01*
X0015236Y0184948D02*
X0015049Y0185323D01*
X0015049Y0185323D02*
X0015049Y0186073D01*
X0015049Y0186073D02*
X0015236Y0186448D01*
X0015236Y0186448D02*
X0015424Y0186635D01*
X0015424Y0186635D02*
X0015799Y0186823D01*
X0015799Y0186823D02*
X0015986Y0186823D01*
X0015986Y0186823D02*
X0016361Y0186635D01*
X0016361Y0186635D02*
X0016549Y0186448D01*
X0016549Y0186448D02*
X0016736Y0186073D01*
X0016736Y0186073D02*
X0016736Y0185323D01*
X0016736Y0185323D02*
X0016924Y0184948D01*
X0016924Y0184948D02*
X0017111Y0184760D01*
X0017111Y0184760D02*
X0017486Y0184573D01*
X0017486Y0184573D02*
X0018236Y0184573D01*
X0018236Y0184573D02*
X0018611Y0184760D01*
X0018611Y0184760D02*
X0018798Y0184948D01*
X0018798Y0184948D02*
X0018986Y0185323D01*
X0018986Y0185323D02*
X0018986Y0186073D01*
X0018986Y0186073D02*
X0018798Y0186448D01*
X0018798Y0186448D02*
X0018611Y0186635D01*
X0018611Y0186635D02*
X0018236Y0186823D01*
X0018236Y0186823D02*
X0017486Y0186823D01*
X0017486Y0186823D02*
X0017111Y0186635D01*
X0017111Y0186635D02*
X0016924Y0186448D01*
X0016924Y0186448D02*
X0016736Y0186073D01*
X0018986Y0193197D02*
X0016924Y0193197D01*
X0016924Y0193197D02*
X0016549Y0193009D01*
X0016549Y0193009D02*
X0016361Y0192634D01*
X0016361Y0192634D02*
X0016361Y0191884D01*
X0016361Y0191884D02*
X0016549Y0191509D01*
X0018798Y0193197D02*
X0018986Y0192822D01*
X0018986Y0192822D02*
X0018986Y0191884D01*
X0018986Y0191884D02*
X0018798Y0191509D01*
X0018798Y0191509D02*
X0018423Y0191322D01*
X0018423Y0191322D02*
X0018049Y0191322D01*
X0018049Y0191322D02*
X0017674Y0191509D01*
X0017674Y0191509D02*
X0017486Y0191884D01*
X0017486Y0191884D02*
X0017486Y0192822D01*
X0017486Y0192822D02*
X0017299Y0193197D01*
X0016361Y0195072D02*
X0018986Y0195072D01*
X0016736Y0195072D02*
X0016549Y0195259D01*
X0016549Y0195259D02*
X0016361Y0195634D01*
X0016361Y0195634D02*
X0016361Y0196196D01*
X0016361Y0196196D02*
X0016549Y0196571D01*
X0016549Y0196571D02*
X0016924Y0196759D01*
X0016924Y0196759D02*
X0018986Y0196759D01*
X0018986Y0200321D02*
X0015049Y0200321D01*
X0018798Y0200321D02*
X0018986Y0199946D01*
X0018986Y0199946D02*
X0018986Y0199196D01*
X0018986Y0199196D02*
X0018798Y0198821D01*
X0018798Y0198821D02*
X0018611Y0198634D01*
X0018611Y0198634D02*
X0018236Y0198446D01*
X0018236Y0198446D02*
X0017111Y0198446D01*
X0017111Y0198446D02*
X0016736Y0198634D01*
X0016736Y0198634D02*
X0016549Y0198821D01*
X0016549Y0198821D02*
X0016361Y0199196D01*
X0016361Y0199196D02*
X0016361Y0199946D01*
X0016361Y0199946D02*
X0016549Y0200321D01*
X0016361Y0205195D02*
X0020298Y0205195D01*
X0016549Y0205195D02*
X0016361Y0205570D01*
X0016361Y0205570D02*
X0016361Y0206320D01*
X0016361Y0206320D02*
X0016549Y0206695D01*
X0016549Y0206695D02*
X0016736Y0206883D01*
X0016736Y0206883D02*
X0017111Y0207070D01*
X0017111Y0207070D02*
X0018236Y0207070D01*
X0018236Y0207070D02*
X0018611Y0206883D01*
X0018611Y0206883D02*
X0018798Y0206695D01*
X0018798Y0206695D02*
X0018986Y0206320D01*
X0018986Y0206320D02*
X0018986Y0205570D01*
X0018986Y0205570D02*
X0018798Y0205195D01*
X0018986Y0209320D02*
X0018798Y0208945D01*
X0018798Y0208945D02*
X0018611Y0208757D01*
X0018611Y0208757D02*
X0018236Y0208570D01*
X0018236Y0208570D02*
X0017111Y0208570D01*
X0017111Y0208570D02*
X0016736Y0208757D01*
X0016736Y0208757D02*
X0016549Y0208945D01*
X0016549Y0208945D02*
X0016361Y0209320D01*
X0016361Y0209320D02*
X0016361Y0209882D01*
X0016361Y0209882D02*
X0016549Y0210257D01*
X0016549Y0210257D02*
X0016736Y0210445D01*
X0016736Y0210445D02*
X0017111Y0210632D01*
X0017111Y0210632D02*
X0018236Y0210632D01*
X0018236Y0210632D02*
X0018611Y0210445D01*
X0018611Y0210445D02*
X0018798Y0210257D01*
X0018798Y0210257D02*
X0018986Y0209882D01*
X0018986Y0209882D02*
X0018986Y0209320D01*
X0016361Y0212319D02*
X0020298Y0212319D01*
X0016549Y0212319D02*
X0016361Y0212694D01*
X0016361Y0212694D02*
X0016361Y0213444D01*
X0016361Y0213444D02*
X0016549Y0213819D01*
X0016549Y0213819D02*
X0016736Y0214007D01*
X0016736Y0214007D02*
X0017111Y0214194D01*
X0017111Y0214194D02*
X0018236Y0214194D01*
X0018236Y0214194D02*
X0018611Y0214007D01*
X0018611Y0214007D02*
X0018798Y0213819D01*
X0018798Y0213819D02*
X0018986Y0213444D01*
X0018986Y0213444D02*
X0018986Y0212694D01*
X0018986Y0212694D02*
X0018798Y0212319D01*
X0016361Y0217569D02*
X0018986Y0217569D01*
X0016361Y0215881D02*
X0018423Y0215881D01*
X0018423Y0215881D02*
X0018798Y0216069D01*
X0018798Y0216069D02*
X0018986Y0216444D01*
X0018986Y0216444D02*
X0018986Y0217006D01*
X0018986Y0217006D02*
X0018798Y0217381D01*
X0018798Y0217381D02*
X0018611Y0217569D01*
X0018986Y0220006D02*
X0018798Y0219631D01*
X0018798Y0219631D02*
X0018423Y0219443D01*
X0018423Y0219443D02*
X0015049Y0219443D01*
X0018986Y0223193D02*
X0016924Y0223193D01*
X0016924Y0223193D02*
X0016549Y0223006D01*
X0016549Y0223006D02*
X0016361Y0222631D01*
X0016361Y0222631D02*
X0016361Y0221881D01*
X0016361Y0221881D02*
X0016549Y0221506D01*
X0018798Y0223193D02*
X0018986Y0222818D01*
X0018986Y0222818D02*
X0018986Y0221881D01*
X0018986Y0221881D02*
X0018798Y0221506D01*
X0018798Y0221506D02*
X0018423Y0221318D01*
X0018423Y0221318D02*
X0018049Y0221318D01*
X0018049Y0221318D02*
X0017674Y0221506D01*
X0017674Y0221506D02*
X0017486Y0221881D01*
X0017486Y0221881D02*
X0017486Y0222818D01*
X0017486Y0222818D02*
X0017299Y0223193D01*
X0016361Y0224505D02*
X0016361Y0226005D01*
X0015049Y0225068D02*
X0018423Y0225068D01*
X0018423Y0225068D02*
X0018798Y0225255D01*
X0018798Y0225255D02*
X0018986Y0225630D01*
X0018986Y0225630D02*
X0018986Y0226005D01*
X0018798Y0228817D02*
X0018986Y0228442D01*
X0018986Y0228442D02*
X0018986Y0227692D01*
X0018986Y0227692D02*
X0018798Y0227318D01*
X0018798Y0227318D02*
X0018423Y0227130D01*
X0018423Y0227130D02*
X0016924Y0227130D01*
X0016924Y0227130D02*
X0016549Y0227318D01*
X0016549Y0227318D02*
X0016361Y0227692D01*
X0016361Y0227692D02*
X0016361Y0228442D01*
X0016361Y0228442D02*
X0016549Y0228817D01*
X0016549Y0228817D02*
X0016924Y0229005D01*
X0016924Y0229005D02*
X0017299Y0229005D01*
X0017299Y0229005D02*
X0017674Y0227130D01*
X0019361Y0236316D02*
X0019173Y0235941D01*
X0019173Y0235941D02*
X0018798Y0235566D01*
X0018798Y0235566D02*
X0018236Y0235004D01*
X0018236Y0235004D02*
X0018049Y0234629D01*
X0018049Y0234629D02*
X0018049Y0234254D01*
X0018986Y0234442D02*
X0018798Y0234067D01*
X0018798Y0234067D02*
X0018423Y0233692D01*
X0018423Y0233692D02*
X0017674Y0233504D01*
X0017674Y0233504D02*
X0016361Y0233504D01*
X0016361Y0233504D02*
X0015611Y0233692D01*
X0015611Y0233692D02*
X0015236Y0234067D01*
X0015236Y0234067D02*
X0015049Y0234442D01*
X0015049Y0234442D02*
X0015049Y0235192D01*
X0015049Y0235192D02*
X0015236Y0235566D01*
X0015236Y0235566D02*
X0015611Y0235941D01*
X0015611Y0235941D02*
X0016361Y0236129D01*
X0016361Y0236129D02*
X0017674Y0236129D01*
X0017674Y0236129D02*
X0018423Y0235941D01*
X0018423Y0235941D02*
X0018798Y0235566D01*
X0018798Y0235566D02*
X0018986Y0235192D01*
X0018986Y0235192D02*
X0018986Y0234442D01*
X0015049Y0237441D02*
X0015049Y0240066D01*
X0015049Y0240066D02*
X0018986Y0238379D01*
X0017486Y0241566D02*
X0017486Y0244565D01*
X0019361Y0249065D02*
X0019173Y0248690D01*
X0019173Y0248690D02*
X0018798Y0248315D01*
X0018798Y0248315D02*
X0018236Y0247752D01*
X0018236Y0247752D02*
X0018049Y0247378D01*
X0018049Y0247378D02*
X0018049Y0247003D01*
X0018986Y0247190D02*
X0018798Y0246815D01*
X0018798Y0246815D02*
X0018423Y0246440D01*
X0018423Y0246440D02*
X0017674Y0246253D01*
X0017674Y0246253D02*
X0016361Y0246253D01*
X0016361Y0246253D02*
X0015611Y0246440D01*
X0015611Y0246440D02*
X0015236Y0246815D01*
X0015236Y0246815D02*
X0015049Y0247190D01*
X0015049Y0247190D02*
X0015049Y0247940D01*
X0015049Y0247940D02*
X0015236Y0248315D01*
X0015236Y0248315D02*
X0015611Y0248690D01*
X0015611Y0248690D02*
X0016361Y0248877D01*
X0016361Y0248877D02*
X0017674Y0248877D01*
X0017674Y0248877D02*
X0018423Y0248690D01*
X0018423Y0248690D02*
X0018798Y0248315D01*
X0018798Y0248315D02*
X0018986Y0247940D01*
X0018986Y0247940D02*
X0018986Y0247190D01*
X0018986Y0252627D02*
X0018986Y0250377D01*
X0018986Y0251502D02*
X0015049Y0251502D01*
X0015049Y0251502D02*
X0015611Y0251127D01*
X0015611Y0251127D02*
X0015986Y0250752D01*
X0015986Y0250752D02*
X0016174Y0250377D01*
X0015424Y0254127D02*
X0015236Y0254314D01*
X0015236Y0254314D02*
X0015049Y0254689D01*
X0015049Y0254689D02*
X0015049Y0255626D01*
X0015049Y0255626D02*
X0015236Y0256001D01*
X0015236Y0256001D02*
X0015424Y0256189D01*
X0015424Y0256189D02*
X0015799Y0256376D01*
X0015799Y0256376D02*
X0016174Y0256376D01*
X0016174Y0256376D02*
X0016736Y0256189D01*
X0016736Y0256189D02*
X0018986Y0253939D01*
X0018986Y0253939D02*
X0018986Y0256376D01*
X0018986Y0261626D02*
X0018798Y0261251D01*
X0018798Y0261251D02*
X0018611Y0261063D01*
X0018611Y0261063D02*
X0018236Y0260876D01*
X0018236Y0260876D02*
X0017111Y0260876D01*
X0017111Y0260876D02*
X0016736Y0261063D01*
X0016736Y0261063D02*
X0016549Y0261251D01*
X0016549Y0261251D02*
X0016361Y0261626D01*
X0016361Y0261626D02*
X0016361Y0262188D01*
X0016361Y0262188D02*
X0016549Y0262563D01*
X0016549Y0262563D02*
X0016736Y0262751D01*
X0016736Y0262751D02*
X0017111Y0262938D01*
X0017111Y0262938D02*
X0018236Y0262938D01*
X0018236Y0262938D02*
X0018611Y0262751D01*
X0018611Y0262751D02*
X0018798Y0262563D01*
X0018798Y0262563D02*
X0018986Y0262188D01*
X0018986Y0262188D02*
X0018986Y0261626D01*
X0016361Y0264625D02*
X0018986Y0264625D01*
X0016736Y0264625D02*
X0016549Y0264813D01*
X0016549Y0264813D02*
X0016361Y0265188D01*
X0016361Y0265188D02*
X0016361Y0265750D01*
X0016361Y0265750D02*
X0016549Y0266125D01*
X0016549Y0266125D02*
X0016924Y0266313D01*
X0016924Y0266313D02*
X0018986Y0266313D01*
X0016361Y0272874D02*
X0018986Y0272874D01*
X0016361Y0271187D02*
X0018423Y0271187D01*
X0018423Y0271187D02*
X0018798Y0271375D01*
X0018798Y0271375D02*
X0018986Y0271749D01*
X0018986Y0271749D02*
X0018986Y0272312D01*
X0018986Y0272312D02*
X0018798Y0272687D01*
X0018798Y0272687D02*
X0018611Y0272874D01*
X0018986Y0276436D02*
X0016924Y0276436D01*
X0016924Y0276436D02*
X0016549Y0276249D01*
X0016549Y0276249D02*
X0016361Y0275874D01*
X0016361Y0275874D02*
X0016361Y0275124D01*
X0016361Y0275124D02*
X0016549Y0274749D01*
X0018798Y0276436D02*
X0018986Y0276061D01*
X0018986Y0276061D02*
X0018986Y0275124D01*
X0018986Y0275124D02*
X0018798Y0274749D01*
X0018798Y0274749D02*
X0018423Y0274562D01*
X0018423Y0274562D02*
X0018049Y0274562D01*
X0018049Y0274562D02*
X0017674Y0274749D01*
X0017674Y0274749D02*
X0017486Y0275124D01*
X0017486Y0275124D02*
X0017486Y0276061D01*
X0017486Y0276061D02*
X0017299Y0276436D01*
X0018798Y0279811D02*
X0018986Y0279436D01*
X0018986Y0279436D02*
X0018986Y0278686D01*
X0018986Y0278686D02*
X0018798Y0278311D01*
X0018798Y0278311D02*
X0018423Y0278124D01*
X0018423Y0278124D02*
X0016924Y0278124D01*
X0016924Y0278124D02*
X0016549Y0278311D01*
X0016549Y0278311D02*
X0016361Y0278686D01*
X0016361Y0278686D02*
X0016361Y0279436D01*
X0016361Y0279436D02*
X0016549Y0279811D01*
X0016549Y0279811D02*
X0016924Y0279998D01*
X0016924Y0279998D02*
X0017299Y0279998D01*
X0017299Y0279998D02*
X0017674Y0278124D01*
X0016361Y0281123D02*
X0016361Y0282623D01*
X0018986Y0281686D02*
X0015611Y0281686D01*
X0015611Y0281686D02*
X0015236Y0281873D01*
X0015236Y0281873D02*
X0015049Y0282248D01*
X0015049Y0282248D02*
X0015049Y0282623D01*
X0018986Y0283935D02*
X0016361Y0283935D01*
X0015049Y0283935D02*
X0015236Y0283748D01*
X0015236Y0283748D02*
X0015424Y0283935D01*
X0015424Y0283935D02*
X0015236Y0284123D01*
X0015236Y0284123D02*
X0015049Y0283935D01*
X0015049Y0283935D02*
X0015424Y0283935D01*
X0018986Y0288810D02*
X0015049Y0288810D01*
X0016549Y0288810D02*
X0016361Y0289185D01*
X0016361Y0289185D02*
X0016361Y0289935D01*
X0016361Y0289935D02*
X0016549Y0290310D01*
X0016549Y0290310D02*
X0016736Y0290497D01*
X0016736Y0290497D02*
X0017111Y0290685D01*
X0017111Y0290685D02*
X0018236Y0290685D01*
X0018236Y0290685D02*
X0018611Y0290497D01*
X0018611Y0290497D02*
X0018798Y0290310D01*
X0018798Y0290310D02*
X0018986Y0289935D01*
X0018986Y0289935D02*
X0018986Y0289185D01*
X0018986Y0289185D02*
X0018798Y0288810D01*
X0018986Y0292934D02*
X0018798Y0292559D01*
X0018798Y0292559D02*
X0018611Y0292372D01*
X0018611Y0292372D02*
X0018236Y0292184D01*
X0018236Y0292184D02*
X0017111Y0292184D01*
X0017111Y0292184D02*
X0016736Y0292372D01*
X0016736Y0292372D02*
X0016549Y0292559D01*
X0016549Y0292559D02*
X0016361Y0292934D01*
X0016361Y0292934D02*
X0016361Y0293497D01*
X0016361Y0293497D02*
X0016549Y0293872D01*
X0016549Y0293872D02*
X0016736Y0294059D01*
X0016736Y0294059D02*
X0017111Y0294247D01*
X0017111Y0294247D02*
X0018236Y0294247D01*
X0018236Y0294247D02*
X0018611Y0294059D01*
X0018611Y0294059D02*
X0018798Y0293872D01*
X0018798Y0293872D02*
X0018986Y0293497D01*
X0018986Y0293497D02*
X0018986Y0292934D01*
X0018986Y0297621D02*
X0016924Y0297621D01*
X0016924Y0297621D02*
X0016549Y0297434D01*
X0016549Y0297434D02*
X0016361Y0297059D01*
X0016361Y0297059D02*
X0016361Y0296309D01*
X0016361Y0296309D02*
X0016549Y0295934D01*
X0018798Y0297621D02*
X0018986Y0297246D01*
X0018986Y0297246D02*
X0018986Y0296309D01*
X0018986Y0296309D02*
X0018798Y0295934D01*
X0018798Y0295934D02*
X0018423Y0295746D01*
X0018423Y0295746D02*
X0018049Y0295746D01*
X0018049Y0295746D02*
X0017674Y0295934D01*
X0017674Y0295934D02*
X0017486Y0296309D01*
X0017486Y0296309D02*
X0017486Y0297246D01*
X0017486Y0297246D02*
X0017299Y0297621D01*
X0018986Y0299496D02*
X0016361Y0299496D01*
X0017111Y0299496D02*
X0016736Y0299683D01*
X0016736Y0299683D02*
X0016549Y0299871D01*
X0016549Y0299871D02*
X0016361Y0300246D01*
X0016361Y0300246D02*
X0016361Y0300621D01*
X0018986Y0303620D02*
X0015049Y0303620D01*
X0018798Y0303620D02*
X0018986Y0303246D01*
X0018986Y0303246D02*
X0018986Y0302496D01*
X0018986Y0302496D02*
X0018798Y0302121D01*
X0018798Y0302121D02*
X0018611Y0301933D01*
X0018611Y0301933D02*
X0018236Y0301746D01*
X0018236Y0301746D02*
X0017111Y0301746D01*
X0017111Y0301746D02*
X0016736Y0301933D01*
X0016736Y0301933D02*
X0016549Y0302121D01*
X0016549Y0302121D02*
X0016361Y0302496D01*
X0016361Y0302496D02*
X0016361Y0303246D01*
X0016361Y0303246D02*
X0016549Y0303620D01*
D14*
X0031792Y0358484D02*
X0034154Y0357303D01*
X0031792Y0356122D02*
X0031792Y0358484D01*
X0032875Y0300157D02*
X0032875Y0304016D01*
X0032875Y0283622D02*
X0032875Y0287480D01*
X0032875Y0267087D02*
X0032875Y0270945D01*
X0032875Y0250551D02*
X0032875Y0254409D01*
X0032875Y0234016D02*
X0032875Y0237874D01*
X0032875Y0217480D02*
X0032875Y0221339D01*
X0032875Y0200945D02*
X0032875Y0204803D01*
X0032875Y0184409D02*
X0032875Y0188268D01*
X0032875Y0141102D02*
X0032875Y0144961D01*
X0032875Y0124567D02*
X0032875Y0128425D01*
X0032875Y0108031D02*
X0032875Y0111890D01*
X0032914Y0318228D02*
X0032914Y0321417D01*
X0032914Y0170197D02*
X0032914Y0167008D01*
X0032914Y0159173D02*
X0032914Y0162362D01*
X0032914Y0093819D02*
X0032914Y0090630D01*
X0034154Y0361201D02*
X0030965Y0361201D01*
X0034154Y0357303D02*
X0031792Y0356122D01*
X0034359Y0332111D02*
X0031170Y0332111D01*
X0035630Y0167835D02*
X0036812Y0170197D01*
X0035630Y0091457D02*
X0036812Y0093819D01*
X0036812Y0170197D02*
X0037993Y0167835D01*
X0036812Y0093819D02*
X0037993Y0091457D01*
X0037993Y0167835D02*
X0035630Y0167835D01*
X0037993Y0091457D02*
X0035630Y0091457D01*
X0048367Y0361240D02*
X0052225Y0361240D01*
X0048572Y0332150D02*
X0052430Y0332150D01*
X0061964Y0141313D02*
X0061964Y0145171D01*
X0061964Y0124778D02*
X0061964Y0128636D01*
X0061964Y0108242D02*
X0061964Y0112101D01*
X0061965Y0300260D02*
X0061965Y0304118D01*
X0061965Y0283725D02*
X0061965Y0287583D01*
X0061965Y0267189D02*
X0061965Y0271048D01*
X0061965Y0250654D02*
X0061965Y0254512D01*
X0061965Y0234118D02*
X0061965Y0237977D01*
X0061965Y0217583D02*
X0061965Y0221441D01*
X0061965Y0201048D02*
X0061965Y0204906D01*
X0061965Y0184512D02*
X0061965Y0188370D01*
X0062004Y0159384D02*
X0062004Y0162573D01*
X0062004Y0094030D02*
X0062004Y0090841D01*
X0062004Y0318331D02*
X0062004Y0321520D01*
X0062004Y0170299D02*
X0062004Y0167110D01*
X0064902Y0361240D02*
X0068760Y0361240D01*
X0065107Y0332150D02*
X0068966Y0332150D01*
X0081438Y0361240D02*
X0085296Y0361240D01*
X0081643Y0332150D02*
X0085501Y0332150D01*
X0097973Y0361240D02*
X0101831Y0361240D01*
X0098178Y0332150D02*
X0102037Y0332150D01*
X0114508Y0361240D02*
X0118367Y0361240D01*
X0114714Y0332150D02*
X0118572Y0332150D01*
X0131044Y0361240D02*
X0134902Y0361240D01*
X0131249Y0332150D02*
X0135107Y0332150D01*
X0147579Y0361240D02*
X0151438Y0361240D01*
X0147785Y0332150D02*
X0151643Y0332150D01*
X0164115Y0361240D02*
X0167973Y0361240D01*
X0164320Y0332150D02*
X0168178Y0332150D01*
X0180650Y0361240D02*
X0184508Y0361240D01*
X0180855Y0332150D02*
X0184714Y0332150D01*
X0198721Y0361201D02*
X0201910Y0361201D01*
X0198926Y0332111D02*
X0202115Y0332111D01*
X0227461Y0358484D02*
X0229823Y0357303D01*
X0227461Y0356122D02*
X0227461Y0358484D01*
X0229823Y0361201D02*
X0226634Y0361201D01*
X0229823Y0357303D02*
X0227461Y0356122D01*
X0229975Y0332198D02*
X0226786Y0332198D01*
X0241123Y0034882D02*
X0241123Y0024409D01*
X0241123Y0015197D02*
X0241123Y0004724D01*
X0242282Y0024409D02*
X0241123Y0024409D01*
X0242282Y0004724D02*
X0241123Y0004724D01*
X0242326Y0034882D02*
X0241123Y0034882D01*
X0242326Y0015197D02*
X0241123Y0015197D01*
X0244036Y0361240D02*
X0247894Y0361240D01*
X0244188Y0332237D02*
X0248046Y0332237D01*
X0250392Y0024409D02*
X0251595Y0024409D01*
X0250392Y0004724D02*
X0251595Y0004724D01*
X0250436Y0034882D02*
X0251595Y0034882D01*
X0250436Y0015197D02*
X0251595Y0015197D01*
X0251595Y0024409D02*
X0251595Y0034882D01*
X0251595Y0004724D02*
X0251595Y0015197D01*
X0260571Y0361240D02*
X0264430Y0361240D01*
X0260723Y0332237D02*
X0264581Y0332237D01*
X0277107Y0361240D02*
X0280965Y0361240D01*
X0277258Y0332237D02*
X0281117Y0332237D01*
X0293642Y0361240D02*
X0297500Y0361240D01*
X0293794Y0332237D02*
X0297652Y0332237D01*
X0310178Y0361240D02*
X0314036Y0361240D01*
X0310329Y0332237D02*
X0314188Y0332237D01*
X0314430Y0061378D02*
X0314430Y0001850D01*
X0314430Y0061378D02*
X0314430Y0001850D01*
X0314430Y0001850D02*
X0334587Y0001850D01*
X0314430Y0001850D02*
X0334587Y0001850D01*
X0322619Y0099843D02*
X0322619Y0089370D01*
X0322619Y0081339D02*
X0322619Y0070866D01*
X0323778Y0089370D02*
X0322619Y0089370D01*
X0323778Y0070866D02*
X0322619Y0070866D01*
X0323822Y0099843D02*
X0322619Y0099843D01*
X0323822Y0081339D02*
X0322619Y0081339D01*
X0326280Y0000669D02*
X0335768Y0000669D01*
X0326280Y0000669D02*
X0335768Y0000669D01*
X0326713Y0361240D02*
X0330571Y0361240D01*
X0326865Y0332237D02*
X0330723Y0332237D01*
X0330650Y0061378D02*
X0314430Y0061378D01*
X0330650Y0061378D02*
X0314430Y0061378D01*
X0331888Y0089370D02*
X0333091Y0089370D01*
X0331888Y0070866D02*
X0333091Y0070866D01*
X0331932Y0099843D02*
X0333091Y0099843D01*
X0331932Y0081339D02*
X0333091Y0081339D01*
X0332756Y0319677D02*
X0332756Y0322866D01*
X0332796Y0305465D02*
X0332796Y0301606D01*
X0332796Y0288929D02*
X0332796Y0285071D01*
X0332889Y0267835D02*
X0332889Y0271694D01*
X0333091Y0089370D02*
X0333091Y0099843D01*
X0333091Y0070866D02*
X0333091Y0081339D01*
X0334587Y0057441D02*
X0330650Y0061378D01*
X0334587Y0057441D02*
X0330650Y0061378D01*
X0334587Y0001850D02*
X0334587Y0057441D01*
X0334587Y0001850D02*
X0334587Y0057441D01*
X0335768Y0000669D02*
X0335768Y0010157D01*
X0335768Y0000669D02*
X0335768Y0010157D01*
X0343249Y0361240D02*
X0347107Y0361240D01*
X0343400Y0332237D02*
X0347258Y0332237D01*
X0356433Y0322164D02*
X0358795Y0322164D01*
X0357614Y0319802D02*
X0356433Y0322164D01*
X0358795Y0322164D02*
X0357614Y0319802D01*
X0359936Y0332237D02*
X0363794Y0332237D01*
X0361319Y0361201D02*
X0364508Y0361201D01*
X0361512Y0319802D02*
X0361512Y0322991D01*
X0361551Y0305589D02*
X0361551Y0301731D01*
X0361551Y0289054D02*
X0361551Y0285196D01*
X0361645Y0267960D02*
X0361645Y0271818D01*
X0000197Y0000118D02*
%LPD*%
G01*
D14*
X0031792Y0358583D02*
X0034154Y0357402D01*
X0031792Y0356221D02*
X0031792Y0358583D01*
X0032875Y0300256D02*
X0032875Y0304115D01*
X0032875Y0283721D02*
X0032875Y0287579D01*
X0032875Y0267186D02*
X0032875Y0271044D01*
X0032875Y0250650D02*
X0032875Y0254508D01*
X0032875Y0234115D02*
X0032875Y0237973D01*
X0032875Y0217579D02*
X0032875Y0221437D01*
X0032875Y0201044D02*
X0032875Y0204902D01*
X0032875Y0184508D02*
X0032875Y0188367D01*
X0032875Y0141201D02*
X0032875Y0145060D01*
X0032875Y0124666D02*
X0032875Y0128524D01*
X0032875Y0108130D02*
X0032875Y0111989D01*
X0032914Y0318327D02*
X0032914Y0321516D01*
X0032914Y0170296D02*
X0032914Y0167107D01*
X0032914Y0159272D02*
X0032914Y0162461D01*
X0032914Y0093918D02*
X0032914Y0090729D01*
X0034154Y0361300D02*
X0030965Y0361300D01*
X0034154Y0357402D02*
X0031792Y0356221D01*
X0034360Y0332210D02*
X0031171Y0332210D01*
X0035631Y0167934D02*
X0036812Y0170296D01*
X0035631Y0091556D02*
X0036812Y0093918D01*
X0036812Y0170296D02*
X0037993Y0167934D01*
X0036812Y0093918D02*
X0037993Y0091556D01*
X0037993Y0167934D02*
X0035631Y0167934D01*
X0037993Y0091556D02*
X0035631Y0091556D01*
X0048367Y0361339D02*
X0052225Y0361339D01*
X0048572Y0332249D02*
X0052430Y0332249D01*
X0061965Y0141412D02*
X0061965Y0145270D01*
X0061965Y0124877D02*
X0061965Y0128735D01*
X0061965Y0108341D02*
X0061965Y0112199D01*
X0061965Y0300359D02*
X0061965Y0304217D01*
X0061965Y0283824D02*
X0061965Y0287682D01*
X0061965Y0267288D02*
X0061965Y0271146D01*
X0061965Y0250753D02*
X0061965Y0254611D01*
X0061965Y0234217D02*
X0061965Y0238076D01*
X0061965Y0217682D02*
X0061965Y0221540D01*
X0061965Y0201146D02*
X0061965Y0205005D01*
X0061965Y0184611D02*
X0061965Y0188469D01*
X0062004Y0159483D02*
X0062004Y0162672D01*
X0062004Y0094129D02*
X0062004Y0090940D01*
X0062004Y0318430D02*
X0062004Y0321619D01*
X0062004Y0170398D02*
X0062004Y0167209D01*
X0064902Y0361339D02*
X0068760Y0361339D01*
X0065108Y0332249D02*
X0068966Y0332249D01*
X0081438Y0361339D02*
X0085296Y0361339D01*
X0081643Y0332249D02*
X0085501Y0332249D01*
X0097973Y0361339D02*
X0101831Y0361339D01*
X0098178Y0332249D02*
X0102037Y0332249D01*
X0114509Y0361339D02*
X0118367Y0361339D01*
X0114714Y0332249D02*
X0118572Y0332249D01*
X0131044Y0361339D02*
X0134902Y0361339D01*
X0131249Y0332249D02*
X0135108Y0332249D01*
X0147579Y0361339D02*
X0151438Y0361339D01*
X0147785Y0332249D02*
X0151643Y0332249D01*
X0164115Y0361339D02*
X0167973Y0361339D01*
X0164320Y0332249D02*
X0168178Y0332249D01*
X0180650Y0361339D02*
X0184509Y0361339D01*
X0180856Y0332249D02*
X0184714Y0332249D01*
X0198721Y0361300D02*
X0201910Y0361300D01*
X0198926Y0332210D02*
X0202115Y0332210D01*
X0227461Y0358583D02*
X0229823Y0357402D01*
X0227461Y0356221D02*
X0227461Y0358583D01*
X0229823Y0361300D02*
X0226635Y0361300D01*
X0229823Y0357402D02*
X0227461Y0356221D01*
X0229975Y0332297D02*
X0226786Y0332297D01*
X0241123Y0034981D02*
X0241123Y0024508D01*
X0241123Y0015296D02*
X0241123Y0004823D01*
X0242282Y0024508D02*
X0241123Y0024508D01*
X0242282Y0004823D02*
X0241123Y0004823D01*
X0242326Y0034981D02*
X0241123Y0034981D01*
X0242326Y0015296D02*
X0241123Y0015296D01*
X0244036Y0361339D02*
X0247894Y0361339D01*
X0244188Y0332336D02*
X0248046Y0332336D01*
X0250392Y0024508D02*
X0251595Y0024508D01*
X0250392Y0004823D02*
X0251595Y0004823D01*
X0250436Y0034981D02*
X0251595Y0034981D01*
X0250436Y0015296D02*
X0251595Y0015296D01*
X0251595Y0024508D02*
X0251595Y0034981D01*
X0251595Y0004823D02*
X0251595Y0015296D01*
X0260572Y0361339D02*
X0264430Y0361339D01*
X0260723Y0332336D02*
X0264581Y0332336D01*
X0277107Y0361339D02*
X0280965Y0361339D01*
X0277259Y0332336D02*
X0281117Y0332336D01*
X0293642Y0361339D02*
X0297501Y0361339D01*
X0293794Y0332336D02*
X0297652Y0332336D01*
X0310178Y0361339D02*
X0314036Y0361339D01*
X0310329Y0332336D02*
X0314188Y0332336D01*
X0314430Y0061477D02*
X0314430Y0001949D01*
X0314430Y0061477D02*
X0314430Y0001949D01*
X0314430Y0001949D02*
X0334587Y0001949D01*
X0314430Y0001949D02*
X0334587Y0001949D01*
X0322619Y0099941D02*
X0322619Y0089469D01*
X0322619Y0081437D02*
X0322619Y0070965D01*
X0323778Y0089469D02*
X0322619Y0089469D01*
X0323778Y0070965D02*
X0322619Y0070965D01*
X0323822Y0099941D02*
X0322619Y0099941D01*
X0323822Y0081437D02*
X0322619Y0081437D01*
X0326280Y0000768D02*
X0335768Y0000768D01*
X0326280Y0000768D02*
X0335768Y0000768D01*
X0326713Y0361339D02*
X0330572Y0361339D01*
X0326865Y0332336D02*
X0330723Y0332336D01*
X0330650Y0061477D02*
X0314430Y0061477D01*
X0330650Y0061477D02*
X0314430Y0061477D01*
X0331888Y0089469D02*
X0333091Y0089469D01*
X0331888Y0070965D02*
X0333091Y0070965D01*
X0331932Y0099941D02*
X0333091Y0099941D01*
X0331932Y0081437D02*
X0333091Y0081437D01*
X0332756Y0319776D02*
X0332756Y0322965D01*
X0332796Y0305563D02*
X0332796Y0301705D01*
X0332796Y0289028D02*
X0332796Y0285170D01*
X0332889Y0267934D02*
X0332889Y0271793D01*
X0333091Y0089469D02*
X0333091Y0099941D01*
X0333091Y0070965D02*
X0333091Y0081437D01*
X0334587Y0057540D02*
X0330650Y0061477D01*
X0334587Y0057540D02*
X0330650Y0061477D01*
X0334587Y0001949D02*
X0334587Y0057540D01*
X0334587Y0001949D02*
X0334587Y0057540D01*
X0335768Y0000768D02*
X0335768Y0010256D01*
X0335768Y0000768D02*
X0335768Y0010256D01*
X0343249Y0361339D02*
X0347107Y0361339D01*
X0343400Y0332336D02*
X0347259Y0332336D01*
X0356433Y0322263D02*
X0358795Y0322263D01*
X0357614Y0319901D02*
X0356433Y0322263D01*
X0358795Y0322263D02*
X0357614Y0319901D01*
X0359936Y0332336D02*
X0363794Y0332336D01*
X0361320Y0361300D02*
X0364509Y0361300D01*
X0361512Y0319901D02*
X0361512Y0323090D01*
X0361551Y0305688D02*
X0361551Y0301830D01*
X0361551Y0289153D02*
X0361551Y0285295D01*
X0361645Y0268059D02*
X0361645Y0271917D01*
X0326280Y0000768D02*
X0335768Y0000768D01*
X0335768Y0000768D02*
X0335768Y0010256D01*
X0314430Y0001949D02*
X0334587Y0001949D01*
X0334587Y0001949D02*
X0334587Y0057540D01*
X0334587Y0057540D02*
X0330650Y0061477D01*
X0314430Y0061477D02*
X0314430Y0001949D01*
X0330650Y0061477D02*
X0314430Y0061477D01*
M02*
