G75*
G70*
%OFA0B0*%
%FSLAX25Y25*%
%IPPOS*%
%LPD*%
%AMOC8*
5,1,8,0,0,1.08239X$1,22.5*
%
%ADD16C,0.02362*%
%ADD17C,0.03937*%
%ADD18O,0.00787X0.04823*%
%ADD19O,0.36614X0.00787*%
%ADD26R,0.00984X0.24350*%
%ADD27R,0.00984X0.04390*%
%ADD28R,0.56201X0.00984*%
%ADD29R,0.59449X0.00984*%
%ADD30R,0.00984X0.20374*%
%ADD31C,0.00787*%
%ADD37C,0.00984*%
%ADD42C,0.01575*%
%ADD74C,0.03150*%
%ADD76R,0.17323X0.00787*%
%ADD77R,0.00787X0.04724*%
%ADD78R,0.00787X0.26772*%
%ADD79R,0.00787X0.15748*%
%ADD80R,0.00787X0.07087*%
%ADD81R,0.39370X0.00787*%
X0009203Y0038976D02*
%LPD*%
G01*
D16*
X0067471Y0066141D03*
X0067471Y0061417D03*
X0067471Y0070866D03*
X0067471Y0075590D03*
D26*
X0009794Y0065088D03*
D27*
X0009794Y0041269D03*
D28*
X0037402Y0076771D03*
D29*
X0039026Y0039567D03*
D30*
X0068258Y0049261D03*
D16*
X0010679Y0050157D03*
X0010679Y0046220D03*
D16*
X0020860Y0057913D03*
X0027087Y0075883D03*
X0067628Y0040354D03*
X0010857Y0074133D03*
X0011073Y0065846D03*
X0044439Y0040551D03*
X0036092Y0064831D03*
X0018387Y0048177D03*
X0030728Y0061058D03*
X0026526Y0040551D03*
X0018296Y0040606D03*
X0048278Y0060531D03*
X0050448Y0052635D03*
X0010581Y0057677D03*
X0037943Y0060039D03*
X0067471Y0049311D03*
X0045128Y0056299D03*
X0056924Y0075674D03*
X0067372Y0045177D03*
X0023772Y0055034D03*
X0023476Y0041888D03*
X0041352Y0055828D03*
X0027968Y0047956D03*
X0018641Y0055967D03*
X0019124Y0074252D03*
X0064950Y0046861D03*
X0029503Y0071166D03*
X0027850Y0060415D03*
X0038738Y0045745D03*
X0060188Y0046950D03*
X0054969Y0073385D03*
X0022603Y0073972D03*
X0052018Y0073980D03*
X0051326Y0060235D03*
X0050661Y0067270D03*
X0039142Y0049249D03*
X0019147Y0064941D03*
X0033671Y0060822D03*
X0037416Y0056780D03*
X0038042Y0052854D03*
X0049459Y0057677D03*
X0056807Y0060687D03*
X0051095Y0042147D03*
X0038238Y0042027D03*
D37*
X0023061Y0062283D02*
X0016683Y0062283D01*
X0024754Y0063976D02*
X0023061Y0062283D01*
X0016683Y0062283D02*
X0016683Y0057925D01*
X0016683Y0065748D02*
X0016683Y0062283D01*
X0023476Y0042974D02*
X0023476Y0041888D01*
X0028731Y0045078D02*
X0025581Y0045078D01*
X0025581Y0045078D02*
X0023476Y0042974D01*
X0030542Y0046889D02*
X0028731Y0045078D01*
X0020860Y0057913D02*
X0024125Y0057913D01*
X0024125Y0057913D02*
X0030542Y0051496D01*
X0030542Y0051496D02*
X0030542Y0046889D01*
X0033748Y0063976D02*
X0024754Y0063976D01*
X0038901Y0062283D02*
X0038881Y0062303D01*
X0046828Y0062283D02*
X0038901Y0062283D01*
X0058850Y0062951D02*
X0047496Y0062951D01*
X0064828Y0047264D02*
X0064828Y0056973D01*
X0016683Y0057925D02*
X0018641Y0055967D01*
X0064828Y0056973D02*
X0058850Y0062951D01*
X0022195Y0071259D02*
X0016683Y0065748D01*
X0018641Y0053455D02*
X0018641Y0055967D01*
X0024140Y0047956D02*
X0018641Y0053455D01*
X0038881Y0062303D02*
X0035422Y0062303D01*
X0027968Y0047956D02*
X0024140Y0047956D01*
X0047496Y0062951D02*
X0046828Y0062283D01*
X0035422Y0062303D02*
X0033748Y0063976D01*
X0024995Y0068055D02*
X0035734Y0068055D01*
X0021880Y0064941D02*
X0024995Y0068055D01*
X0019147Y0064941D02*
X0021880Y0064941D01*
X0057297Y0045767D02*
X0059463Y0047933D01*
X0039420Y0045767D02*
X0057297Y0045767D01*
X0027850Y0057337D02*
X0039420Y0045767D01*
X0027850Y0060415D02*
X0027850Y0057337D01*
X0041352Y0055828D02*
X0041329Y0055851D01*
X0036959Y0071161D02*
X0038527Y0069593D01*
X0022215Y0071161D02*
X0036959Y0071161D01*
X0041329Y0055851D02*
X0041329Y0062204D01*
X0061474Y0069593D02*
X0067471Y0075590D01*
X0019124Y0074252D02*
X0022215Y0071161D01*
X0038527Y0069593D02*
X0061474Y0069593D01*
X0053040Y0071456D02*
X0054969Y0073385D01*
X0022603Y0073972D02*
X0022953Y0073622D01*
X0037943Y0073622D02*
X0040109Y0071456D01*
X0040109Y0071456D02*
X0053040Y0071456D01*
X0022953Y0073622D02*
X0037943Y0073622D01*
X0035734Y0068055D02*
X0036626Y0068055D01*
X0035734Y0068055D02*
X0036412Y0068055D01*
X0040037Y0064645D02*
X0061348Y0064645D01*
X0061348Y0064645D02*
X0067471Y0070767D01*
X0036626Y0068055D02*
X0040037Y0064645D01*
X0056807Y0060687D02*
X0053796Y0057677D01*
X0053796Y0057677D02*
X0049459Y0057677D01*
G36*
X0065954Y0077189D02*
G01*
X0066095Y0076994D01*
X0066095Y0076753D01*
X0066019Y0076618D01*
X0065966Y0076557D01*
X0065754Y0076094D01*
X0065754Y0076094D01*
X0065682Y0075590D01*
X0065682Y0075590D01*
X0065687Y0075557D01*
X0065646Y0075319D01*
X0065577Y0075226D01*
X0061140Y0070789D01*
X0060925Y0070680D01*
X0060864Y0070675D01*
X0054729Y0070675D01*
X0054500Y0070749D01*
X0054359Y0070944D01*
X0054359Y0071185D01*
X0054454Y0071340D01*
X0054614Y0071500D01*
X0054828Y0071609D01*
X0054889Y0071614D01*
X0055223Y0071614D01*
X0055223Y0071614D01*
X0055712Y0071758D01*
X0056140Y0072033D01*
X0056474Y0072418D01*
X0056685Y0072881D01*
X0056688Y0072900D01*
X0056758Y0073385D01*
X0056758Y0073385D01*
X0056685Y0073889D01*
X0056685Y0073889D01*
X0056685Y0073889D01*
X0056474Y0074352D01*
X0056140Y0074737D01*
X0056011Y0074820D01*
X0055712Y0075012D01*
X0055223Y0075155D01*
X0055223Y0075155D01*
X0054714Y0075155D01*
X0054714Y0075155D01*
X0054226Y0075012D01*
X0054022Y0074881D01*
X0053789Y0074820D01*
X0053565Y0074907D01*
X0053517Y0074953D01*
X0053189Y0075331D01*
X0052761Y0075607D01*
X0052273Y0075750D01*
X0052273Y0075750D01*
X0051763Y0075750D01*
X0051763Y0075750D01*
X0051275Y0075607D01*
X0051275Y0075607D01*
X0050847Y0075331D01*
X0050847Y0075331D01*
X0050847Y0075331D01*
X0050570Y0075012D01*
X0050513Y0074947D01*
X0050302Y0074483D01*
X0050302Y0074483D01*
X0050229Y0073980D01*
X0050229Y0073980D01*
X0050302Y0073476D01*
X0050302Y0073476D01*
X0050302Y0073476D01*
X0050302Y0073476D01*
X0050343Y0073385D01*
X0050478Y0073089D01*
X0050506Y0072850D01*
X0050387Y0072640D01*
X0050168Y0072540D01*
X0050124Y0072538D01*
X0040718Y0072538D01*
X0040489Y0072612D01*
X0040442Y0072652D01*
X0038810Y0074284D01*
X0038762Y0074343D01*
X0038723Y0074401D01*
X0038365Y0074640D01*
X0038365Y0074640D01*
X0038365Y0074640D01*
X0038254Y0074663D01*
X0038198Y0074674D01*
X0037943Y0074724D01*
X0037943Y0074724D01*
X0037874Y0074711D01*
X0037798Y0074703D01*
X0024466Y0074703D01*
X0024237Y0074778D01*
X0024124Y0074916D01*
X0024123Y0074915D01*
X0024118Y0074923D01*
X0024111Y0074931D01*
X0024108Y0074939D01*
X0024108Y0074939D01*
X0023774Y0075323D01*
X0023346Y0075599D01*
X0023319Y0075607D01*
X0022857Y0075742D01*
X0022857Y0075742D01*
X0022348Y0075742D01*
X0022348Y0075742D01*
X0021860Y0075599D01*
X0021860Y0075599D01*
X0021432Y0075323D01*
X0021272Y0075139D01*
X0021066Y0075015D01*
X0020826Y0075035D01*
X0020643Y0075193D01*
X0020634Y0075210D01*
X0020629Y0075219D01*
X0020629Y0075219D01*
X0020629Y0075219D01*
X0020296Y0075603D01*
X0019867Y0075879D01*
X0019379Y0076022D01*
X0019379Y0076022D01*
X0018870Y0076022D01*
X0018870Y0076022D01*
X0018381Y0075879D01*
X0018381Y0075879D01*
X0017953Y0075603D01*
X0017953Y0075603D01*
X0017953Y0075603D01*
X0017941Y0075590D01*
X0017620Y0075219D01*
X0017408Y0074756D01*
X0017408Y0074756D01*
X0017336Y0074252D01*
X0017336Y0074252D01*
X0017408Y0073748D01*
X0017408Y0073748D01*
X0017408Y0073748D01*
X0017408Y0073748D01*
X0017620Y0073285D01*
X0017953Y0072900D01*
X0018381Y0072625D01*
X0018870Y0072481D01*
X0019204Y0072481D01*
X0019433Y0072407D01*
X0019479Y0072367D01*
X0020351Y0071496D01*
X0020460Y0071281D01*
X0020422Y0071043D01*
X0020351Y0070944D01*
X0016021Y0066615D01*
X0015962Y0066566D01*
X0015904Y0066527D01*
X0015829Y0066415D01*
X0015754Y0066303D01*
X0015733Y0066272D01*
X0015665Y0066170D01*
X0015665Y0066170D01*
X0015581Y0065748D01*
X0015594Y0065679D01*
X0015602Y0065603D01*
X0015602Y0062428D01*
X0015594Y0062352D01*
X0015581Y0062283D01*
X0015594Y0062214D01*
X0015602Y0062138D01*
X0015602Y0058070D01*
X0015594Y0057994D01*
X0015581Y0057925D01*
X0015589Y0057885D01*
X0015602Y0057819D01*
X0015665Y0057503D01*
X0015867Y0057200D01*
X0015904Y0057145D01*
X0015962Y0057106D01*
X0016021Y0057058D01*
X0016747Y0056332D01*
X0016857Y0056117D01*
X0016858Y0056001D01*
X0016853Y0055967D01*
X0016853Y0055967D01*
X0016925Y0055463D01*
X0016925Y0055463D01*
X0016925Y0055463D01*
X0016925Y0055463D01*
X0017137Y0055000D01*
X0017465Y0054621D01*
X0017559Y0054399D01*
X0017560Y0054366D01*
X0017560Y0053600D01*
X0017552Y0053524D01*
X0017539Y0053455D01*
X0017560Y0053348D01*
X0017623Y0053033D01*
X0017782Y0052795D01*
X0017862Y0052675D01*
X0017920Y0052636D01*
X0017979Y0052588D01*
X0023273Y0047294D01*
X0023321Y0047235D01*
X0023360Y0047177D01*
X0023641Y0046989D01*
X0023718Y0046938D01*
X0024140Y0046854D01*
X0024198Y0046865D01*
X0024209Y0046867D01*
X0024285Y0046875D01*
X0025111Y0046875D01*
X0025340Y0046800D01*
X0025482Y0046605D01*
X0025482Y0046365D01*
X0025340Y0046170D01*
X0025187Y0046103D01*
X0025159Y0046097D01*
X0024801Y0045858D01*
X0024801Y0045858D01*
X0024762Y0045800D01*
X0024714Y0045741D01*
X0022814Y0043841D01*
X0022755Y0043792D01*
X0022697Y0043753D01*
X0022697Y0043753D01*
X0022589Y0043592D01*
X0022537Y0043515D01*
X0022457Y0043396D01*
X0022457Y0043396D01*
X0022436Y0043364D01*
X0022424Y0043372D01*
X0022322Y0043251D01*
X0022305Y0043240D01*
X0021971Y0042855D01*
X0021760Y0042392D01*
X0021760Y0042392D01*
X0021688Y0041888D01*
X0021688Y0041888D01*
X0021760Y0041384D01*
X0021760Y0041384D01*
X0021760Y0041384D01*
X0021760Y0041384D01*
X0021971Y0040921D01*
X0022305Y0040536D01*
X0022733Y0040261D01*
X0023222Y0040117D01*
X0023222Y0040117D01*
X0023731Y0040117D01*
X0023731Y0040117D01*
X0024219Y0040261D01*
X0024648Y0040536D01*
X0024981Y0040921D01*
X0025192Y0041384D01*
X0025192Y0041384D01*
X0025265Y0041888D01*
X0025265Y0041888D01*
X0025192Y0042392D01*
X0025192Y0042392D01*
X0025192Y0042392D01*
X0025064Y0042673D01*
X0025036Y0042913D01*
X0025143Y0043111D01*
X0025915Y0043883D01*
X0026129Y0043992D01*
X0026190Y0043997D01*
X0028586Y0043997D01*
X0028662Y0043989D01*
X0028675Y0043987D01*
X0028731Y0043976D01*
X0029153Y0044060D01*
X0029178Y0044076D01*
X0029510Y0044299D01*
X0029549Y0044357D01*
X0029598Y0044416D01*
X0031204Y0046022D01*
X0031263Y0046071D01*
X0031321Y0046110D01*
X0031560Y0046467D01*
X0031623Y0046783D01*
X0031644Y0046889D01*
X0031635Y0046938D01*
X0031631Y0046958D01*
X0031623Y0047034D01*
X0031623Y0051093D01*
X0031698Y0051322D01*
X0031892Y0051464D01*
X0032133Y0051464D01*
X0032288Y0051369D01*
X0036952Y0046706D01*
X0037061Y0046491D01*
X0037031Y0046268D01*
X0037022Y0046249D01*
X0037022Y0046249D01*
X0036950Y0045745D01*
X0036950Y0045745D01*
X0037022Y0045241D01*
X0037022Y0045241D01*
X0037022Y0045241D01*
X0037022Y0045241D01*
X0037234Y0044778D01*
X0037567Y0044393D01*
X0037616Y0044362D01*
X0037768Y0044175D01*
X0037782Y0043935D01*
X0037652Y0043732D01*
X0037515Y0043660D01*
X0037495Y0043654D01*
X0037495Y0043654D01*
X0037067Y0043379D01*
X0037067Y0043379D01*
X0037067Y0043379D01*
X0036931Y0043221D01*
X0036734Y0042994D01*
X0036522Y0042531D01*
X0036522Y0042531D01*
X0036450Y0042027D01*
X0036450Y0042027D01*
X0036522Y0041523D01*
X0036522Y0041523D01*
X0036522Y0041523D01*
X0036522Y0041523D01*
X0036734Y0041060D01*
X0037067Y0040675D01*
X0037495Y0040400D01*
X0037984Y0040257D01*
X0037984Y0040257D01*
X0038493Y0040257D01*
X0038493Y0040257D01*
X0038981Y0040400D01*
X0039410Y0040675D01*
X0039743Y0041060D01*
X0039955Y0041523D01*
X0039972Y0041644D01*
X0040027Y0042027D01*
X0040027Y0042027D01*
X0040010Y0042147D01*
X0049306Y0042147D01*
X0049379Y0041644D01*
X0049379Y0041644D01*
X0049379Y0041644D01*
X0049379Y0041644D01*
X0049590Y0041180D01*
X0049923Y0040796D01*
X0050352Y0040520D01*
X0050840Y0040377D01*
X0050840Y0040377D01*
X0051349Y0040377D01*
X0051349Y0040377D01*
X0051838Y0040520D01*
X0052266Y0040796D01*
X0052599Y0041180D01*
X0052811Y0041644D01*
X0052811Y0041644D01*
X0052883Y0042147D01*
X0052883Y0042147D01*
X0052811Y0042651D01*
X0052811Y0042651D01*
X0052811Y0042651D01*
X0052599Y0043114D01*
X0052266Y0043499D01*
X0052016Y0043660D01*
X0051838Y0043774D01*
X0051335Y0043922D01*
X0051136Y0044058D01*
X0051101Y0044156D01*
X0050974Y0043981D01*
X0050854Y0043922D01*
X0050352Y0043774D01*
X0050352Y0043774D01*
X0049923Y0043499D01*
X0049923Y0043499D01*
X0049923Y0043499D01*
X0049776Y0043329D01*
X0049590Y0043114D01*
X0049379Y0042651D01*
X0049379Y0042651D01*
X0049306Y0042147D01*
X0049306Y0042147D01*
X0040010Y0042147D01*
X0039955Y0042531D01*
X0039955Y0042531D01*
X0039955Y0042531D01*
X0039743Y0042994D01*
X0039410Y0043379D01*
X0039361Y0043410D01*
X0039208Y0043597D01*
X0039195Y0043837D01*
X0039325Y0044040D01*
X0039462Y0044112D01*
X0039481Y0044118D01*
X0039910Y0044393D01*
X0040047Y0044551D01*
X0040253Y0044676D01*
X0040341Y0044686D01*
X0050745Y0044686D01*
X0050974Y0044611D01*
X0051100Y0044438D01*
X0051123Y0044516D01*
X0051314Y0044663D01*
X0051445Y0044686D01*
X0057152Y0044686D01*
X0057228Y0044678D01*
X0057242Y0044676D01*
X0057297Y0044665D01*
X0057719Y0044749D01*
X0058077Y0044988D01*
X0058116Y0045046D01*
X0058165Y0045105D01*
X0058576Y0045517D01*
X0058791Y0045626D01*
X0059029Y0045588D01*
X0059062Y0045569D01*
X0059445Y0045323D01*
X0059445Y0045323D01*
X0059934Y0045179D01*
X0059934Y0045179D01*
X0060443Y0045179D01*
X0060443Y0045179D01*
X0060931Y0045323D01*
X0061360Y0045598D01*
X0061693Y0045983D01*
X0061904Y0046446D01*
X0061914Y0046514D01*
X0061977Y0046950D01*
X0061977Y0046950D01*
X0061904Y0047454D01*
X0061904Y0047454D01*
X0061904Y0047454D01*
X0061693Y0047917D01*
X0061360Y0048302D01*
X0061339Y0048315D01*
X0060931Y0048577D01*
X0060443Y0048720D01*
X0060443Y0048720D01*
X0060349Y0048720D01*
X0060132Y0048786D01*
X0059885Y0048951D01*
X0059885Y0048951D01*
X0059885Y0048951D01*
X0059463Y0049035D01*
X0059463Y0049035D01*
X0059041Y0048951D01*
X0059041Y0048951D01*
X0058773Y0048773D01*
X0056964Y0046963D01*
X0056749Y0046854D01*
X0056688Y0046849D01*
X0040302Y0046849D01*
X0040073Y0046923D01*
X0040008Y0046983D01*
X0039997Y0046996D01*
X0039910Y0047097D01*
X0039910Y0047097D01*
X0039903Y0047105D01*
X0039809Y0047327D01*
X0039864Y0047561D01*
X0039987Y0047688D01*
X0040313Y0047898D01*
X0040646Y0048282D01*
X0040858Y0048746D01*
X0040886Y0048937D01*
X0040930Y0049249D01*
X0040930Y0049249D01*
X0040858Y0049753D01*
X0040858Y0049753D01*
X0040858Y0049753D01*
X0040646Y0050216D01*
X0040313Y0050601D01*
X0039885Y0050876D01*
X0039540Y0050978D01*
X0039499Y0050990D01*
X0039300Y0051126D01*
X0039219Y0051353D01*
X0039287Y0051584D01*
X0039314Y0051619D01*
X0039546Y0051887D01*
X0039758Y0052350D01*
X0039805Y0052675D01*
X0039830Y0052854D01*
X0039830Y0052854D01*
X0039758Y0053358D01*
X0039758Y0053358D01*
X0039758Y0053358D01*
X0039546Y0053821D01*
X0039213Y0054206D01*
X0038785Y0054481D01*
X0038785Y0054481D01*
X0038456Y0054577D01*
X0038257Y0054713D01*
X0038176Y0054940D01*
X0038244Y0055171D01*
X0038355Y0055279D01*
X0038587Y0055428D01*
X0038915Y0055806D01*
X0039121Y0055931D01*
X0039361Y0055910D01*
X0039543Y0055752D01*
X0039595Y0055607D01*
X0039636Y0055324D01*
X0039636Y0055324D01*
X0039636Y0055324D01*
X0039636Y0055324D01*
X0039847Y0054861D01*
X0040181Y0054476D01*
X0040609Y0054201D01*
X0041097Y0054057D01*
X0041097Y0054057D01*
X0041607Y0054057D01*
X0041607Y0054057D01*
X0042095Y0054201D01*
X0042523Y0054476D01*
X0042857Y0054861D01*
X0043068Y0055324D01*
X0043088Y0055463D01*
X0043141Y0055828D01*
X0043141Y0055828D01*
X0043068Y0056332D01*
X0043068Y0056332D01*
X0043068Y0056332D01*
X0042857Y0056795D01*
X0042857Y0056795D01*
X0042857Y0056795D01*
X0042506Y0057200D01*
X0042412Y0057422D01*
X0042410Y0057455D01*
X0042410Y0060812D01*
X0042485Y0061041D01*
X0042680Y0061183D01*
X0042800Y0061202D01*
X0046683Y0061202D01*
X0046759Y0061194D01*
X0046773Y0061191D01*
X0046828Y0061180D01*
X0047250Y0061264D01*
X0047313Y0061306D01*
X0047330Y0061318D01*
X0047427Y0061382D01*
X0047608Y0061503D01*
X0047647Y0061562D01*
X0047696Y0061621D01*
X0047755Y0061681D01*
X0047830Y0061755D01*
X0048044Y0061865D01*
X0048105Y0061869D01*
X0049547Y0061869D01*
X0049776Y0061795D01*
X0049917Y0061600D01*
X0049917Y0061359D01*
X0049841Y0061224D01*
X0049823Y0061203D01*
X0049822Y0061202D01*
X0049610Y0060739D01*
X0049610Y0060739D01*
X0049538Y0060235D01*
X0049538Y0060235D01*
X0049587Y0059892D01*
X0049546Y0059655D01*
X0049373Y0059487D01*
X0049231Y0059454D01*
X0049232Y0059451D01*
X0049204Y0059447D01*
X0048716Y0059304D01*
X0048716Y0059304D01*
X0048288Y0059029D01*
X0048288Y0059029D01*
X0048288Y0059029D01*
X0048191Y0058917D01*
X0047954Y0058644D01*
X0047743Y0058181D01*
X0047743Y0058181D01*
X0047670Y0057677D01*
X0047670Y0057677D01*
X0047743Y0057173D01*
X0047743Y0057173D01*
X0047743Y0057173D01*
X0047743Y0057173D01*
X0047954Y0056710D01*
X0048288Y0056325D01*
X0048716Y0056050D01*
X0049204Y0055906D01*
X0049204Y0055906D01*
X0049713Y0055906D01*
X0049713Y0055906D01*
X0050202Y0056050D01*
X0050630Y0056325D01*
X0050748Y0056461D01*
X0050954Y0056585D01*
X0051042Y0056595D01*
X0053651Y0056595D01*
X0053727Y0056588D01*
X0053741Y0056585D01*
X0053796Y0056574D01*
X0054218Y0056658D01*
X0054220Y0056659D01*
X0054223Y0056661D01*
X0054364Y0056755D01*
X0054576Y0056897D01*
X0054615Y0056955D01*
X0054664Y0057015D01*
X0056451Y0058802D01*
X0056666Y0058912D01*
X0056727Y0058917D01*
X0057061Y0058917D01*
X0057061Y0058917D01*
X0057550Y0059060D01*
X0057978Y0059335D01*
X0058311Y0059720D01*
X0058523Y0060183D01*
X0058523Y0060183D01*
X0058595Y0060687D01*
X0058595Y0060715D01*
X0058601Y0060715D01*
X0058637Y0060921D01*
X0058810Y0061089D01*
X0059048Y0061123D01*
X0059257Y0061014D01*
X0063633Y0056639D01*
X0063742Y0056424D01*
X0063747Y0056363D01*
X0063747Y0048322D01*
X0063672Y0048093D01*
X0063652Y0048067D01*
X0063445Y0047828D01*
X0063233Y0047365D01*
X0063233Y0047365D01*
X0063161Y0046861D01*
X0063161Y0046861D01*
X0063233Y0046357D01*
X0063233Y0046357D01*
X0063233Y0046357D01*
X0063233Y0046357D01*
X0063445Y0045894D01*
X0063778Y0045509D01*
X0064206Y0045234D01*
X0064695Y0045091D01*
X0064695Y0045091D01*
X0065204Y0045091D01*
X0065204Y0045091D01*
X0065693Y0045234D01*
X0066121Y0045509D01*
X0066454Y0045894D01*
X0066666Y0046357D01*
X0066666Y0046357D01*
X0066738Y0046861D01*
X0066738Y0046861D01*
X0066666Y0047365D01*
X0066666Y0047365D01*
X0066666Y0047365D01*
X0066454Y0047828D01*
X0066121Y0048213D01*
X0066121Y0048213D01*
X0066089Y0048234D01*
X0065936Y0048420D01*
X0065910Y0048561D01*
X0065910Y0056828D01*
X0065917Y0056904D01*
X0065919Y0056915D01*
X0065931Y0056973D01*
X0065847Y0057395D01*
X0065829Y0057422D01*
X0065807Y0057455D01*
X0065617Y0057739D01*
X0065608Y0057752D01*
X0065550Y0057791D01*
X0065491Y0057840D01*
X0060433Y0062898D01*
X0060324Y0063112D01*
X0060361Y0063350D01*
X0060532Y0063521D01*
X0060708Y0063563D01*
X0061203Y0063563D01*
X0061279Y0063556D01*
X0061292Y0063553D01*
X0061348Y0063542D01*
X0061770Y0063626D01*
X0062128Y0063865D01*
X0062167Y0063923D01*
X0062215Y0063982D01*
X0065074Y0066841D01*
X0065288Y0066950D01*
X0065526Y0066912D01*
X0065696Y0066742D01*
X0065735Y0066510D01*
X0065682Y0066141D01*
X0065682Y0066141D01*
X0065754Y0065637D01*
X0065754Y0065637D01*
X0065754Y0065637D01*
X0065754Y0065637D01*
X0065966Y0065174D01*
X0066194Y0064911D01*
X0066288Y0064689D01*
X0066290Y0064655D01*
X0066290Y0062903D01*
X0066215Y0062674D01*
X0066194Y0062648D01*
X0065966Y0062384D01*
X0065754Y0061921D01*
X0065754Y0061921D01*
X0065682Y0061417D01*
X0065682Y0061417D01*
X0065754Y0060913D01*
X0065754Y0060913D01*
X0065754Y0060913D01*
X0065754Y0060913D01*
X0065966Y0060450D01*
X0066299Y0060065D01*
X0066728Y0059790D01*
X0067216Y0059646D01*
X0067216Y0059646D01*
X0067725Y0059646D01*
X0067725Y0059646D01*
X0068214Y0059790D01*
X0068214Y0059790D01*
X0068241Y0059798D01*
X0068243Y0059788D01*
X0068438Y0059810D01*
X0068648Y0059692D01*
X0068748Y0059473D01*
X0068750Y0059428D01*
X0068750Y0039466D01*
X0068676Y0039237D01*
X0068481Y0039095D01*
X0068360Y0039076D01*
X0009693Y0039076D01*
X0009464Y0039151D01*
X0009322Y0039346D01*
X0009303Y0039466D01*
X0009303Y0043221D01*
X0009378Y0043450D01*
X0009573Y0043592D01*
X0009786Y0043600D01*
X0010345Y0043462D01*
X0010345Y0043462D01*
X0011014Y0043462D01*
X0011014Y0043462D01*
X0011665Y0043622D01*
X0012258Y0043934D01*
X0012759Y0044378D01*
X0013139Y0044929D01*
X0013377Y0045555D01*
X0013458Y0046220D01*
X0013457Y0046222D01*
X0013430Y0046446D01*
X0013377Y0046885D01*
X0013139Y0047511D01*
X0012825Y0047967D01*
X0012756Y0048198D01*
X0012825Y0048410D01*
X0013139Y0048866D01*
X0013377Y0049492D01*
X0013458Y0050157D01*
X0013377Y0050822D01*
X0013139Y0051448D01*
X0012759Y0051999D01*
X0012258Y0052443D01*
X0011665Y0052755D01*
X0011665Y0052755D01*
X0011665Y0052755D01*
X0011014Y0052915D01*
X0011014Y0052915D01*
X0010345Y0052915D01*
X0010345Y0052915D01*
X0009786Y0052777D01*
X0009546Y0052795D01*
X0009362Y0052950D01*
X0009303Y0053156D01*
X0009303Y0076874D01*
X0009378Y0077103D01*
X0009573Y0077244D01*
X0009693Y0077263D01*
X0065724Y0077263D01*
X0065954Y0077189D01*
G37*
G36*
X0032524Y0062820D02*
G01*
X0032665Y0062625D01*
X0032665Y0062384D01*
X0032524Y0062189D01*
X0032505Y0062177D01*
X0032500Y0062174D01*
X0032500Y0062174D01*
X0032500Y0062174D01*
X0032237Y0061869D01*
X0032167Y0061789D01*
X0031955Y0061326D01*
X0031955Y0061326D01*
X0031883Y0060822D01*
X0031883Y0060822D01*
X0031955Y0060318D01*
X0031955Y0060318D01*
X0031955Y0060318D01*
X0031955Y0060318D01*
X0032167Y0059855D01*
X0032500Y0059470D01*
X0032928Y0059195D01*
X0033417Y0059051D01*
X0033417Y0059051D01*
X0033926Y0059051D01*
X0033926Y0059051D01*
X0034415Y0059195D01*
X0034843Y0059470D01*
X0035176Y0059855D01*
X0035388Y0060318D01*
X0035388Y0060322D01*
X0035460Y0060822D01*
X0035460Y0060832D01*
X0035463Y0060839D01*
X0035464Y0060849D01*
X0035466Y0060849D01*
X0035535Y0061061D01*
X0035729Y0061202D01*
X0035850Y0061221D01*
X0038657Y0061221D01*
X0038733Y0061214D01*
X0038901Y0061180D01*
X0038958Y0061192D01*
X0038969Y0061194D01*
X0039045Y0061202D01*
X0039858Y0061202D01*
X0040087Y0061127D01*
X0040228Y0060932D01*
X0040247Y0060812D01*
X0040247Y0057402D01*
X0040173Y0057173D01*
X0040152Y0057147D01*
X0039853Y0056802D01*
X0039647Y0056677D01*
X0039407Y0056698D01*
X0039225Y0056856D01*
X0039173Y0057002D01*
X0039132Y0057284D01*
X0039132Y0057284D01*
X0039132Y0057284D01*
X0038921Y0057747D01*
X0038587Y0058132D01*
X0038512Y0058181D01*
X0038159Y0058407D01*
X0037671Y0058551D01*
X0037671Y0058551D01*
X0037161Y0058551D01*
X0037161Y0058551D01*
X0036673Y0058407D01*
X0036673Y0058407D01*
X0036245Y0058132D01*
X0036245Y0058132D01*
X0036245Y0058132D01*
X0036065Y0057925D01*
X0035911Y0057747D01*
X0035700Y0057284D01*
X0035700Y0057284D01*
X0035627Y0056780D01*
X0035627Y0056780D01*
X0035700Y0056276D01*
X0035700Y0056276D01*
X0035700Y0056276D01*
X0035700Y0056276D01*
X0035911Y0055813D01*
X0036245Y0055428D01*
X0036673Y0055153D01*
X0037001Y0055057D01*
X0037200Y0054921D01*
X0037281Y0054694D01*
X0037213Y0054463D01*
X0037102Y0054355D01*
X0036870Y0054206D01*
X0036870Y0054206D01*
X0036870Y0054206D01*
X0036742Y0054057D01*
X0036537Y0053821D01*
X0036325Y0053358D01*
X0036325Y0053358D01*
X0036253Y0052854D01*
X0036253Y0052854D01*
X0036325Y0052350D01*
X0036325Y0052350D01*
X0036325Y0052350D01*
X0036325Y0052350D01*
X0036537Y0051887D01*
X0036870Y0051502D01*
X0037299Y0051227D01*
X0037684Y0051114D01*
X0037883Y0050978D01*
X0037964Y0050751D01*
X0037896Y0050520D01*
X0037869Y0050484D01*
X0037637Y0050216D01*
X0037514Y0049946D01*
X0037351Y0049769D01*
X0037115Y0049721D01*
X0036896Y0049821D01*
X0036884Y0049833D01*
X0029046Y0057671D01*
X0028936Y0057885D01*
X0028932Y0057946D01*
X0028932Y0058814D01*
X0029006Y0059044D01*
X0029027Y0059070D01*
X0029355Y0059448D01*
X0029566Y0059911D01*
X0029566Y0059911D01*
X0029639Y0060415D01*
X0029639Y0060415D01*
X0029566Y0060919D01*
X0029566Y0060919D01*
X0029566Y0060919D01*
X0029355Y0061382D01*
X0029021Y0061767D01*
X0028593Y0062042D01*
X0028292Y0062131D01*
X0028093Y0062267D01*
X0028012Y0062494D01*
X0028080Y0062725D01*
X0028271Y0062872D01*
X0028402Y0062895D01*
X0032295Y0062895D01*
X0032524Y0062820D01*
G37*
G36*
X0036246Y0066899D02*
G01*
X0036292Y0066859D01*
X0039087Y0064065D01*
X0039196Y0063850D01*
X0039159Y0063612D01*
X0038988Y0063442D01*
X0038887Y0063407D01*
X0038812Y0063392D01*
X0038736Y0063384D01*
X0036031Y0063384D01*
X0035802Y0063459D01*
X0035755Y0063498D01*
X0034616Y0064638D01*
X0034567Y0064697D01*
X0034528Y0064756D01*
X0034528Y0064756D01*
X0034526Y0064757D01*
X0034170Y0064995D01*
X0033855Y0065057D01*
X0033817Y0065065D01*
X0033748Y0065079D01*
X0033748Y0065079D01*
X0033680Y0065065D01*
X0033603Y0065057D01*
X0024899Y0065057D01*
X0024823Y0065065D01*
X0024754Y0065079D01*
X0024648Y0065057D01*
X0024508Y0065030D01*
X0024269Y0065058D01*
X0024092Y0065222D01*
X0024045Y0065458D01*
X0024146Y0065677D01*
X0024157Y0065688D01*
X0025328Y0066859D01*
X0025543Y0066969D01*
X0025604Y0066974D01*
X0035628Y0066974D01*
X0036017Y0066974D01*
X0036246Y0066899D01*
G37*
X0086024Y0058268D02*
G01*
G75*
G36*
X0121244Y0070670D02*
X0120612Y0070544D01*
X0119896Y0070065D01*
X0119792Y0069909D01*
X0115294Y0069909D01*
X0114756Y0069802D01*
X0114300Y0069498D01*
X0113925Y0069123D01*
X0113280Y0069313D01*
X0112961Y0069791D01*
X0112375Y0070182D01*
X0111684Y0070320D01*
X0110993Y0070182D01*
X0110407Y0069791D01*
X0110015Y0069205D01*
X0109878Y0068514D01*
X0110015Y0067822D01*
X0110199Y0067547D01*
X0109883Y0066956D01*
X0108452Y0066956D01*
X0108169Y0067239D01*
X0107713Y0067544D01*
X0107176Y0067651D01*
X0103483Y0067651D01*
X0103088Y0067915D01*
X0102397Y0068052D01*
X0101706Y0067915D01*
X0101120Y0067523D01*
X0100728Y0066937D01*
X0100591Y0066246D01*
X0100728Y0065555D01*
X0101120Y0064969D01*
X0101706Y0064577D01*
X0102397Y0064440D01*
X0103088Y0064577D01*
X0103483Y0064841D01*
X0106594Y0064841D01*
X0106877Y0064558D01*
X0107333Y0064253D01*
X0107870Y0064146D01*
X0112341Y0064146D01*
X0112879Y0064253D01*
X0113334Y0064558D01*
X0115875Y0067099D01*
X0119792Y0067099D01*
X0119896Y0066943D01*
X0120612Y0066464D01*
X0121457Y0066296D01*
X0121457Y0063232D01*
X0120612Y0063064D01*
X0119896Y0062585D01*
X0119417Y0061869D01*
X0119249Y0061024D01*
X0119417Y0060179D01*
X0119896Y0059463D01*
X0120612Y0058984D01*
X0121244Y0058859D01*
X0121185Y0058268D01*
X0086024Y0058268D01*
X0086024Y0062490D01*
X0086517Y0062807D01*
X0087072Y0062573D01*
X0086975Y0062086D01*
X0087113Y0061395D01*
X0087504Y0060809D01*
X0088090Y0060417D01*
X0088781Y0060280D01*
X0089473Y0060417D01*
X0090059Y0060809D01*
X0090450Y0061395D01*
X0090588Y0062086D01*
X0090450Y0062777D01*
X0090059Y0063363D01*
X0089639Y0063644D01*
X0089437Y0063886D01*
X0089300Y0064392D01*
X0089413Y0064961D01*
X0089245Y0065806D01*
X0088900Y0066322D01*
X0088812Y0066733D01*
X0088900Y0067143D01*
X0089245Y0067659D01*
X0089413Y0068504D01*
X0089245Y0069349D01*
X0088766Y0070065D01*
X0088050Y0070544D01*
X0087418Y0070670D01*
X0087477Y0071260D01*
X0121186Y0071260D01*
X0121244Y0070670D01*
D02*
G37*
%LPC*%
G36*
X0096890Y0062929D02*
X0096199Y0062791D01*
X0095613Y0062400D01*
X0095221Y0061814D01*
X0095084Y0061122D01*
X0095221Y0060431D01*
X0095613Y0059845D01*
X0096199Y0059453D01*
X0096890Y0059316D01*
X0097581Y0059453D01*
X0098167Y0059845D01*
X0098559Y0060431D01*
X0098697Y0061122D01*
X0098559Y0061814D01*
X0098167Y0062400D01*
X0097581Y0062791D01*
X0096890Y0062929D01*
D02*
G37*
%LPD*%
D19*
X0104331Y0070866D02*
D03*
X0104331Y0058662D02*
D03*
D18*
X0086418Y0060729D02*
D03*
D42*
X0115294Y0068504D02*
X0121457Y0068504D01*
X0107870Y0065551D02*
X0112341Y0065551D01*
X0115294Y0068504D01*
X0102397Y0066246D02*
X0107176Y0066246D01*
X0107870Y0065551D01*
D16*
X0121457Y0068504D02*
D03*
X0121457Y0064764D02*
D03*
X0102397Y0066246D02*
D03*
X0087264Y0059553D02*
D03*
X0099966Y0064115D02*
D03*
X0097227Y0065171D02*
D03*
X0039783Y0136791D02*
%LPD*%
G01*
D76*
X0048484Y0136358D03*
D77*
X0040216Y0134389D03*
D78*
X0078799Y0117067D03*
X0040216Y0108405D03*
D79*
X0078799Y0090295D03*
D80*
X0040216Y0085964D03*
D81*
X0059507Y0082815D03*
D16*
X0078011Y0132421D03*
D17*
X0077224Y0100925D03*
X0041791Y0129271D03*
X0041791Y0124547D03*
X0041791Y0092263D03*
D16*
X0078011Y0135571D03*
X0074862Y0135571D03*
X0071712Y0135571D03*
X0068563Y0135571D03*
X0065413Y0135571D03*
X0062263Y0135571D03*
X0059114Y0135571D03*
D16*
X0077027Y0108405D03*
X0046687Y0123588D03*
X0076830Y0086358D03*
X0048090Y0115492D03*
X0071712Y0084389D03*
X0062263Y0101319D03*
X0042185Y0084783D03*
X0077027Y0123760D03*
X0048090Y0108405D03*
X0042185Y0134389D03*
X0041791Y0115885D03*
X0076830Y0115885D03*
X0055177Y0108405D03*
X0069350Y0108405D03*
X0062263Y0108405D03*
X0041791Y0100925D03*
X0069350Y0115492D03*
X0055624Y0119442D03*
X0048090Y0096988D03*
X0055177Y0096988D03*
X0056752Y0132815D03*
X0062263Y0119822D03*
X0072955Y0092682D03*
X0071318Y0089508D03*
X0045728Y0085964D03*
X0060689Y0084978D03*
X0076043Y0092657D03*
D74*
X0062263Y0119822D02*
X0062263Y0127303D01*
X0048090Y0103287D02*
X0048090Y0096988D01*
X0058720Y0109980D02*
X0058720Y0100531D01*
X0051633Y0115452D02*
X0051633Y0106830D01*
X0058720Y0100531D02*
X0055177Y0096988D01*
X0055624Y0119442D02*
X0051633Y0115452D01*
X0062263Y0119822D02*
X0062263Y0113523D01*
X0062263Y0113523D02*
X0058720Y0109980D01*
X0051633Y0106830D02*
X0048090Y0103287D01*
X0062263Y0127303D02*
X0056752Y0132815D01*
D31*
X0071122Y0105039D02*
X0071122Y0094516D01*
X0078011Y0135570D02*
X0073287Y0130846D01*
X0073287Y0107204D02*
X0071122Y0105039D01*
X0073287Y0130846D02*
X0073287Y0107204D01*
X0071122Y0094516D02*
X0072955Y0092682D01*
X0069744Y0091082D02*
X0069744Y0105610D01*
X0069744Y0105610D02*
X0071909Y0107775D01*
X0071909Y0107775D02*
X0071909Y0132618D01*
X0071318Y0089508D02*
X0069744Y0091082D01*
X0071909Y0132618D02*
X0074862Y0135570D01*
X0058326Y0085964D02*
X0065413Y0093051D01*
X0065413Y0129271D02*
X0059114Y0135571D01*
X0065413Y0093051D02*
X0065413Y0129271D01*
X0045728Y0085964D02*
X0058326Y0085964D01*
X0066791Y0130649D02*
X0071712Y0135571D01*
X0066791Y0091080D02*
X0066791Y0130649D01*
X0060689Y0084978D02*
X0066791Y0091080D01*
X0072500Y0096200D02*
X0072500Y0104468D01*
X0074665Y0106634D02*
X0074665Y0129074D01*
X0076043Y0092657D02*
X0072500Y0096200D01*
X0074665Y0129074D02*
X0078011Y0132421D01*
X0072500Y0104468D02*
X0074665Y0106634D01*
G36*
X0064349Y0093398D02*
G01*
X0064284Y0093316D01*
X0058061Y0087093D01*
X0057819Y0086962D01*
X0057716Y0086950D01*
X0047467Y0086950D01*
X0047203Y0087028D01*
X0047098Y0087119D01*
X0047082Y0087138D01*
X0046697Y0087472D01*
X0046697Y0087472D01*
X0046233Y0087683D01*
X0045728Y0087756D01*
X0045223Y0087683D01*
X0044759Y0087472D01*
X0044759Y0087472D01*
X0044374Y0087138D01*
X0044098Y0086709D01*
X0043954Y0086219D01*
X0043954Y0086219D01*
X0043954Y0086219D01*
X0043954Y0085709D01*
X0043954Y0085709D01*
X0044098Y0085220D01*
X0044374Y0084791D01*
X0044759Y0084457D01*
X0045223Y0084245D01*
X0045728Y0084172D01*
X0046233Y0084245D01*
X0046697Y0084457D01*
X0047082Y0084791D01*
X0047082Y0084791D01*
X0047082Y0084791D01*
X0047098Y0084809D01*
X0047330Y0084958D01*
X0047467Y0084978D01*
X0058181Y0084978D01*
X0058276Y0084969D01*
X0058326Y0084959D01*
X0058379Y0084969D01*
X0058653Y0084945D01*
X0058870Y0084776D01*
X0058943Y0084628D01*
X0058984Y0084489D01*
X0059059Y0084234D01*
X0059334Y0083805D01*
X0059334Y0083805D01*
X0059488Y0083672D01*
X0059636Y0083440D01*
X0059636Y0083165D01*
X0059488Y0082934D01*
X0059237Y0082820D01*
X0059168Y0082815D01*
X0040704Y0082815D01*
X0040440Y0082892D01*
X0040260Y0083100D01*
X0040216Y0083303D01*
X0040216Y0089019D01*
X0040294Y0089283D01*
X0040501Y0089463D01*
X0040704Y0089508D01*
X0044547Y0089508D01*
X0044547Y0095019D01*
X0040704Y0095019D01*
X0040440Y0095097D01*
X0040260Y0095305D01*
X0040216Y0095508D01*
X0040216Y0121303D01*
X0040294Y0121567D01*
X0040501Y0121747D01*
X0040704Y0121791D01*
X0044547Y0121791D01*
X0044547Y0132027D01*
X0040704Y0132027D01*
X0040440Y0132105D01*
X0040260Y0132313D01*
X0040216Y0132515D01*
X0040216Y0135870D01*
X0040294Y0136134D01*
X0040501Y0136314D01*
X0040704Y0136358D01*
X0056657Y0136358D01*
X0056921Y0136280D01*
X0057101Y0136073D01*
X0057145Y0135870D01*
X0057145Y0135489D01*
X0057068Y0135225D01*
X0056860Y0135045D01*
X0056709Y0135009D01*
X0056710Y0135007D01*
X0056090Y0134900D01*
X0056090Y0134900D01*
X0055552Y0134644D01*
X0055552Y0134644D01*
X0055400Y0134512D01*
X0055103Y0134252D01*
X0054776Y0133754D01*
X0054596Y0133186D01*
X0054575Y0132591D01*
X0054716Y0132012D01*
X0055008Y0131493D01*
X0055400Y0131101D01*
X0055400Y0121619D01*
X0054821Y0121478D01*
X0054821Y0121478D01*
X0054302Y0121186D01*
X0054302Y0121186D01*
X0053603Y0120487D01*
X0050127Y0117011D01*
X0049936Y0116833D01*
X0049846Y0116684D01*
X0049832Y0116663D01*
X0049726Y0116524D01*
X0049701Y0116459D01*
X0049664Y0116384D01*
X0049627Y0116324D01*
X0049580Y0116156D01*
X0049572Y0116132D01*
X0049508Y0115970D01*
X0049501Y0115900D01*
X0049485Y0115818D01*
X0049466Y0115750D01*
X0049466Y0115576D01*
X0049465Y0115551D01*
X0049447Y0115378D01*
X0049459Y0115308D01*
X0049466Y0115225D01*
X0049466Y0107930D01*
X0049389Y0107666D01*
X0049323Y0107585D01*
X0046584Y0104846D01*
X0046393Y0104668D01*
X0046303Y0104519D01*
X0046288Y0104498D01*
X0046183Y0104359D01*
X0046157Y0104294D01*
X0046120Y0104219D01*
X0046084Y0104159D01*
X0046036Y0103991D01*
X0046029Y0103967D01*
X0045965Y0103805D01*
X0045957Y0103735D01*
X0045942Y0103653D01*
X0045923Y0103585D01*
X0045923Y0103411D01*
X0045921Y0103386D01*
X0045904Y0103212D01*
X0045916Y0103143D01*
X0045923Y0103060D01*
X0045923Y0096840D01*
X0045942Y0096701D01*
X0045984Y0096398D01*
X0046183Y0095938D01*
X0046221Y0095851D01*
X0046221Y0095851D01*
X0046221Y0095851D01*
X0046597Y0095389D01*
X0047084Y0095045D01*
X0047203Y0095003D01*
X0047645Y0094846D01*
X0047645Y0094846D01*
X0047645Y0094846D01*
X0048239Y0094805D01*
X0048239Y0094805D01*
X0048823Y0094926D01*
X0048823Y0094926D01*
X0048823Y0094926D01*
X0049352Y0095201D01*
X0049352Y0095201D01*
X0049352Y0095201D01*
X0049787Y0095607D01*
X0049975Y0095917D01*
X0050097Y0096116D01*
X0050257Y0096690D01*
X0050257Y0096690D01*
X0050257Y0102187D01*
X0050335Y0102451D01*
X0050400Y0102532D01*
X0053140Y0105272D01*
X0053270Y0105393D01*
X0053330Y0105450D01*
X0053360Y0105499D01*
X0053421Y0105599D01*
X0053435Y0105619D01*
X0053540Y0105758D01*
X0053540Y0105758D01*
X0053566Y0105824D01*
X0053603Y0105898D01*
X0053640Y0105959D01*
X0053687Y0106127D01*
X0053695Y0106150D01*
X0053759Y0106312D01*
X0053759Y0106312D01*
X0053766Y0106383D01*
X0053782Y0106464D01*
X0053801Y0106532D01*
X0053801Y0106532D01*
X0053801Y0106707D01*
X0053802Y0106732D01*
X0053813Y0106840D01*
X0053820Y0106905D01*
X0053820Y0106905D01*
X0053808Y0106975D01*
X0053801Y0107058D01*
X0053801Y0114352D01*
X0053878Y0114616D01*
X0053944Y0114697D01*
X0057261Y0118015D01*
X0057261Y0118015D01*
X0057531Y0118370D01*
X0057531Y0118370D01*
X0057749Y0118925D01*
X0057810Y0119517D01*
X0057810Y0119517D01*
X0057709Y0120104D01*
X0057709Y0120104D01*
X0057453Y0120642D01*
X0057453Y0120642D01*
X0057061Y0121091D01*
X0056563Y0121418D01*
X0055995Y0121598D01*
X0055995Y0121598D01*
X0055400Y0121619D01*
X0055400Y0121619D01*
X0055400Y0131101D01*
X0059953Y0126548D01*
X0060085Y0126307D01*
X0060096Y0126203D01*
X0060096Y0120120D01*
X0060096Y0114623D01*
X0060018Y0114359D01*
X0059953Y0114278D01*
X0057214Y0111539D01*
X0057023Y0111361D01*
X0056932Y0111212D01*
X0056918Y0111191D01*
X0056813Y0111052D01*
X0056787Y0110986D01*
X0056750Y0110912D01*
X0056713Y0110852D01*
X0056666Y0110684D01*
X0056658Y0110660D01*
X0056649Y0110637D01*
X0056595Y0110498D01*
X0056587Y0110428D01*
X0056572Y0110346D01*
X0056553Y0110278D01*
X0056553Y0110104D01*
X0056551Y0110079D01*
X0056534Y0109905D01*
X0056546Y0109836D01*
X0056553Y0109753D01*
X0056553Y0101631D01*
X0056475Y0101367D01*
X0056410Y0101286D01*
X0054821Y0099697D01*
X0053539Y0098416D01*
X0053270Y0098060D01*
X0053051Y0097506D01*
X0052990Y0096913D01*
X0053069Y0096457D01*
X0053091Y0096326D01*
X0053092Y0096326D01*
X0053092Y0096326D01*
X0053347Y0095788D01*
X0053739Y0095339D01*
X0054237Y0095012D01*
X0054805Y0094832D01*
X0055400Y0094812D01*
X0055552Y0094848D01*
X0055979Y0094953D01*
X0056499Y0095245D01*
X0060226Y0098972D01*
X0060417Y0099151D01*
X0060500Y0099286D01*
X0060508Y0099299D01*
X0060522Y0099320D01*
X0060627Y0099459D01*
X0060627Y0099459D01*
X0060653Y0099525D01*
X0060690Y0099599D01*
X0060727Y0099660D01*
X0060774Y0099827D01*
X0060782Y0099851D01*
X0060846Y0100013D01*
X0060846Y0100013D01*
X0060853Y0100083D01*
X0060868Y0100165D01*
X0060887Y0100233D01*
X0060887Y0100233D01*
X0060887Y0100408D01*
X0060889Y0100432D01*
X0060900Y0100541D01*
X0060906Y0100606D01*
X0060906Y0100606D01*
X0060894Y0100675D01*
X0060887Y0100758D01*
X0060887Y0108880D01*
X0060965Y0109144D01*
X0061030Y0109225D01*
X0063593Y0111788D01*
X0063835Y0111920D01*
X0064109Y0111900D01*
X0064329Y0111736D01*
X0064425Y0111478D01*
X0064427Y0111443D01*
X0064427Y0093662D01*
X0064349Y0093398D01*
G37*
G36*
X0078721Y0103905D02*
G01*
X0078513Y0103725D01*
X0078311Y0103681D01*
X0074468Y0103681D01*
X0074468Y0098169D01*
X0078311Y0098169D01*
X0078574Y0098091D01*
X0078755Y0097884D01*
X0078799Y0097681D01*
X0078799Y0083303D01*
X0078721Y0083039D01*
X0078513Y0082859D01*
X0078311Y0082815D01*
X0062209Y0082815D01*
X0061945Y0082892D01*
X0061765Y0083100D01*
X0061726Y0083372D01*
X0061840Y0083623D01*
X0061889Y0083672D01*
X0062043Y0083805D01*
X0062043Y0083805D01*
X0062043Y0083805D01*
X0062318Y0084234D01*
X0062318Y0084234D01*
X0062318Y0084234D01*
X0062462Y0084723D01*
X0062462Y0084723D01*
X0062462Y0085155D01*
X0062540Y0085419D01*
X0062605Y0085500D01*
X0067386Y0090280D01*
X0067460Y0090341D01*
X0067502Y0090369D01*
X0067641Y0090578D01*
X0067720Y0090696D01*
X0067720Y0090696D01*
X0067720Y0090696D01*
X0067789Y0091041D01*
X0067808Y0091078D01*
X0067788Y0091121D01*
X0067788Y0091122D01*
X0067787Y0091130D01*
X0067777Y0091226D01*
X0067777Y0105484D01*
X0067813Y0105606D01*
X0067779Y0105692D01*
X0067777Y0105735D01*
X0067777Y0130039D01*
X0067855Y0130302D01*
X0067920Y0130384D01*
X0070089Y0132553D01*
X0070331Y0132685D01*
X0070605Y0132665D01*
X0070825Y0132500D01*
X0070922Y0132243D01*
X0070923Y0132208D01*
X0070923Y0108386D01*
X0070845Y0108122D01*
X0070780Y0108041D01*
X0069149Y0106410D01*
X0069075Y0106349D01*
X0069033Y0106321D01*
X0069033Y0106321D01*
X0069033Y0106321D01*
X0068893Y0106112D01*
X0068815Y0105995D01*
X0068815Y0105995D01*
X0068815Y0105994D01*
X0068744Y0105640D01*
X0068734Y0105621D01*
X0068744Y0105580D01*
X0068748Y0105560D01*
X0068757Y0105464D01*
X0068757Y0091228D01*
X0068748Y0091132D01*
X0068747Y0091129D01*
X0068746Y0091122D01*
X0068727Y0091085D01*
X0068746Y0091041D01*
X0068815Y0090698D01*
X0068893Y0090580D01*
X0069033Y0090371D01*
X0069075Y0090343D01*
X0069149Y0090282D01*
X0069402Y0090029D01*
X0069534Y0089788D01*
X0069545Y0089684D01*
X0069545Y0089252D01*
X0069545Y0089252D01*
X0069689Y0088763D01*
X0069964Y0088334D01*
X0070350Y0088000D01*
X0070814Y0087788D01*
X0071318Y0087716D01*
X0071823Y0087788D01*
X0072287Y0088000D01*
X0072673Y0088334D01*
X0072948Y0088763D01*
X0072948Y0088763D01*
X0072948Y0088763D01*
X0073092Y0089252D01*
X0073092Y0089252D01*
X0073092Y0089763D01*
X0073092Y0089763D01*
X0072948Y0090252D01*
X0072946Y0090257D01*
X0072945Y0090262D01*
X0072939Y0090285D01*
X0072942Y0090286D01*
X0072907Y0090529D01*
X0073021Y0090779D01*
X0073253Y0090928D01*
X0073321Y0090943D01*
X0073460Y0090963D01*
X0073486Y0090975D01*
X0073924Y0091175D01*
X0073924Y0091175D01*
X0073924Y0091175D01*
X0074165Y0091383D01*
X0074415Y0091498D01*
X0074687Y0091459D01*
X0074804Y0091383D01*
X0075074Y0091150D01*
X0075074Y0091150D01*
X0075074Y0091150D01*
X0075538Y0090938D01*
X0076043Y0090865D01*
X0076548Y0090938D01*
X0077012Y0091150D01*
X0077397Y0091484D01*
X0077673Y0091913D01*
X0077673Y0091913D01*
X0077673Y0091913D01*
X0077816Y0092402D01*
X0077816Y0092402D01*
X0077816Y0092912D01*
X0077816Y0092912D01*
X0077673Y0093401D01*
X0077673Y0093402D01*
X0077673Y0093402D01*
X0077543Y0093603D01*
X0077397Y0093831D01*
X0077012Y0094165D01*
X0077012Y0094165D01*
X0076548Y0094376D01*
X0076043Y0094449D01*
X0076043Y0094449D01*
X0075937Y0094434D01*
X0075665Y0094473D01*
X0075523Y0094572D01*
X0073629Y0096466D01*
X0073497Y0096707D01*
X0073486Y0096811D01*
X0073486Y0103857D01*
X0073563Y0104121D01*
X0073629Y0104203D01*
X0073635Y0104209D01*
X0073840Y0104321D01*
X0073917Y0104489D01*
X0073940Y0104514D01*
X0075260Y0105833D01*
X0075334Y0105894D01*
X0075376Y0105922D01*
X0075538Y0106165D01*
X0075594Y0106249D01*
X0075594Y0106249D01*
X0075670Y0106634D01*
X0075670Y0106634D01*
X0075660Y0106683D01*
X0075651Y0106779D01*
X0075651Y0128464D01*
X0075729Y0128728D01*
X0075794Y0128809D01*
X0077295Y0130309D01*
X0077536Y0130441D01*
X0077640Y0130452D01*
X0078311Y0130452D01*
X0078574Y0130375D01*
X0078755Y0130167D01*
X0078799Y0129964D01*
X0078799Y0104169D01*
X0078721Y0103905D01*
G37*
M02*
