G75*
G70*
%OFA0B0*%
%FSLAX25Y25*%
%IPPOS*%
%LPD*%
%AMOC8*
5,1,8,0,0,1.08239X$1,22.5*
%
%ADD13C,0.00394*%
%ADD14C,0.00472*%
X0000000Y0000000D02*
%LPD*%
G01*
D13*
X0271436Y0361632D02*
X0269315Y0363753D01*
X0269315Y0361632D02*
X0271436Y0363753D01*
X0268387Y0368127D02*
X0269713Y0366802D01*
X0269713Y0366802D02*
X0268519Y0365344D01*
X0268519Y0365344D02*
X0268519Y0365609D01*
X0268519Y0365609D02*
X0268387Y0366006D01*
X0268387Y0366006D02*
X0267724Y0366669D01*
X0267724Y0366669D02*
X0267326Y0366802D01*
X0267326Y0366802D02*
X0267061Y0366802D01*
X0267061Y0366802D02*
X0266663Y0366669D01*
X0266663Y0366669D02*
X0266001Y0366006D01*
X0266001Y0366006D02*
X0265868Y0365609D01*
X0265868Y0365609D02*
X0265868Y0365344D01*
X0265868Y0365344D02*
X0266001Y0364946D01*
X0266001Y0364946D02*
X0266663Y0364283D01*
X0266663Y0364283D02*
X0267061Y0364151D01*
X0267061Y0364151D02*
X0267326Y0364151D01*
X0267459Y0369055D02*
X0263747Y0367200D01*
X0263747Y0367200D02*
X0265603Y0370911D01*
X0261891Y0369055D02*
X0264675Y0371839D01*
X0264675Y0371839D02*
X0263614Y0372900D01*
X0263614Y0372900D02*
X0263217Y0373032D01*
X0263217Y0373032D02*
X0262952Y0373032D01*
X0262952Y0373032D02*
X0262554Y0372900D01*
X0262554Y0372900D02*
X0262156Y0372502D01*
X0262156Y0372502D02*
X0262024Y0372104D01*
X0262024Y0372104D02*
X0262024Y0371839D01*
X0262024Y0371839D02*
X0262156Y0371442D01*
X0262156Y0371442D02*
X0263217Y0370381D01*
X0332383Y0328091D02*
X0335167Y0330875D01*
X0331986Y0330079D02*
X0330660Y0331405D01*
X0331455Y0329019D02*
X0333311Y0332731D01*
X0333311Y0332731D02*
X0329599Y0330875D01*
X0331853Y0334189D02*
X0330262Y0335780D01*
X0328274Y0332200D02*
X0331058Y0334984D01*
X0238266Y0362768D02*
X0236941Y0364093D01*
X0237736Y0361707D02*
X0239592Y0365419D01*
X0239592Y0365419D02*
X0235880Y0363563D01*
X0237736Y0367275D02*
X0235483Y0365021D01*
X0235483Y0365021D02*
X0235085Y0364889D01*
X0235085Y0364889D02*
X0234820Y0364889D01*
X0234820Y0364889D02*
X0234422Y0365021D01*
X0234422Y0365021D02*
X0233892Y0365552D01*
X0233892Y0365552D02*
X0233759Y0365949D01*
X0233759Y0365949D02*
X0233759Y0366214D01*
X0233759Y0366214D02*
X0233892Y0366612D01*
X0233892Y0366612D02*
X0236145Y0368866D01*
X0235085Y0369926D02*
X0230445Y0368998D01*
X0233229Y0371782D02*
X0232301Y0367142D01*
X0227926Y0371517D02*
X0229517Y0369926D01*
X0228722Y0370722D02*
X0231506Y0373506D01*
X0231506Y0373506D02*
X0231373Y0372843D01*
X0231373Y0372843D02*
X0231373Y0372313D01*
X0231373Y0372313D02*
X0231506Y0371915D01*
X0159357Y0326919D02*
X0155645Y0325063D01*
X0155645Y0325063D02*
X0157501Y0328775D01*
X0152198Y0328510D02*
X0154452Y0328907D01*
X0153789Y0326919D02*
X0156573Y0329703D01*
X0156573Y0329703D02*
X0155512Y0330763D01*
X0155512Y0330763D02*
X0155114Y0330896D01*
X0155114Y0330896D02*
X0154849Y0330896D01*
X0154849Y0330896D02*
X0154452Y0330763D01*
X0154452Y0330763D02*
X0154054Y0330366D01*
X0154054Y0330366D02*
X0153921Y0329968D01*
X0153921Y0329968D02*
X0153921Y0329703D01*
X0153921Y0329703D02*
X0154054Y0329305D01*
X0154054Y0329305D02*
X0155114Y0328245D01*
X0149547Y0331161D02*
X0151138Y0329570D01*
X0150342Y0330366D02*
X0153126Y0333150D01*
X0153126Y0333150D02*
X0152993Y0332487D01*
X0152993Y0332487D02*
X0152993Y0331956D01*
X0152993Y0331956D02*
X0153126Y0331559D01*
X0149414Y0333415D02*
X0147293Y0335536D01*
X0147293Y0333415D02*
X0149414Y0335536D01*
X0171752Y0363730D02*
X0171221Y0363995D01*
X0171221Y0363995D02*
X0170956Y0363995D01*
X0170956Y0363995D02*
X0170558Y0363862D01*
X0170558Y0363862D02*
X0170161Y0363465D01*
X0170161Y0363465D02*
X0170028Y0363067D01*
X0170028Y0363067D02*
X0170028Y0362802D01*
X0170028Y0362802D02*
X0170161Y0362404D01*
X0170161Y0362404D02*
X0171221Y0361344D01*
X0171221Y0361344D02*
X0174005Y0364128D01*
X0174005Y0364128D02*
X0173077Y0365056D01*
X0173077Y0365056D02*
X0172680Y0365188D01*
X0172680Y0365188D02*
X0172414Y0365188D01*
X0172414Y0365188D02*
X0172017Y0365056D01*
X0172017Y0365056D02*
X0171752Y0364790D01*
X0171752Y0364790D02*
X0171619Y0364393D01*
X0171619Y0364393D02*
X0171619Y0364128D01*
X0171619Y0364128D02*
X0171752Y0363730D01*
X0171752Y0363730D02*
X0172680Y0362802D01*
X0171619Y0366514D02*
X0170028Y0368105D01*
X0168040Y0364525D02*
X0170824Y0367309D01*
X0166316Y0366249D02*
X0169100Y0369033D01*
X0169100Y0369033D02*
X0164726Y0367839D01*
X0164726Y0367839D02*
X0167509Y0370623D01*
X0166449Y0371684D02*
X0164726Y0373407D01*
X0164726Y0373407D02*
X0164593Y0371419D01*
X0164593Y0371419D02*
X0164195Y0371816D01*
X0164195Y0371816D02*
X0163798Y0371949D01*
X0163798Y0371949D02*
X0163532Y0371949D01*
X0163532Y0371949D02*
X0163135Y0371816D01*
X0163135Y0371816D02*
X0162472Y0371154D01*
X0162472Y0371154D02*
X0162339Y0370756D01*
X0162339Y0370756D02*
X0162339Y0370491D01*
X0162339Y0370491D02*
X0162472Y0370093D01*
X0162472Y0370093D02*
X0163267Y0369298D01*
X0163267Y0369298D02*
X0163665Y0369165D01*
X0163665Y0369165D02*
X0163930Y0369165D01*
X0029234Y0192264D02*
X0032017Y0195048D01*
X0027908Y0193590D02*
X0030692Y0196374D01*
X0030692Y0196374D02*
X0026317Y0195181D01*
X0026317Y0195181D02*
X0029101Y0197964D01*
X0026980Y0200086D02*
X0024991Y0198097D01*
X0024991Y0198097D02*
X0024726Y0197567D01*
X0024726Y0197567D02*
X0024726Y0197037D01*
X0024726Y0197037D02*
X0024991Y0196506D01*
X0024991Y0196506D02*
X0025257Y0196241D01*
X0024329Y0202737D02*
X0025654Y0201411D01*
X0025654Y0201411D02*
X0024461Y0199953D01*
X0024461Y0199953D02*
X0024461Y0200218D01*
X0024461Y0200218D02*
X0024329Y0200616D01*
X0024329Y0200616D02*
X0023666Y0201279D01*
X0023666Y0201279D02*
X0023268Y0201411D01*
X0023268Y0201411D02*
X0023003Y0201411D01*
X0023003Y0201411D02*
X0022605Y0201279D01*
X0022605Y0201279D02*
X0021942Y0200616D01*
X0021942Y0200616D02*
X0021810Y0200218D01*
X0021810Y0200218D02*
X0021810Y0199953D01*
X0021810Y0199953D02*
X0021942Y0199555D01*
X0021942Y0199555D02*
X0022605Y0198892D01*
X0022605Y0198892D02*
X0023003Y0198760D01*
X0023003Y0198760D02*
X0023268Y0198760D01*
X0060388Y0265440D02*
X0061714Y0264115D01*
X0061714Y0264115D02*
X0064498Y0266898D01*
X0059725Y0266368D02*
X0059195Y0266633D01*
X0059195Y0266633D02*
X0058532Y0267296D01*
X0058532Y0267296D02*
X0058400Y0267694D01*
X0058400Y0267694D02*
X0058400Y0267959D01*
X0058400Y0267959D02*
X0058532Y0268357D01*
X0058532Y0268357D02*
X0058797Y0268622D01*
X0058797Y0268622D02*
X0059195Y0268754D01*
X0059195Y0268754D02*
X0059460Y0268754D01*
X0059460Y0268754D02*
X0059858Y0268622D01*
X0059858Y0268622D02*
X0060521Y0268224D01*
X0060521Y0268224D02*
X0060919Y0268092D01*
X0060919Y0268092D02*
X0061184Y0268092D01*
X0061184Y0268092D02*
X0061581Y0268224D01*
X0061581Y0268224D02*
X0061846Y0268489D01*
X0061846Y0268489D02*
X0061979Y0268887D01*
X0061979Y0268887D02*
X0061979Y0269152D01*
X0061979Y0269152D02*
X0061846Y0269550D01*
X0061846Y0269550D02*
X0061184Y0270213D01*
X0061184Y0270213D02*
X0060653Y0270478D01*
X0057472Y0272068D02*
X0055616Y0270213D01*
X0059195Y0272466D02*
X0057870Y0269815D01*
X0057870Y0269815D02*
X0056146Y0271538D01*
X0030386Y0117631D02*
X0033170Y0120415D01*
X0033170Y0120415D02*
X0032507Y0121078D01*
X0032507Y0121078D02*
X0031977Y0121343D01*
X0031977Y0121343D02*
X0031447Y0121343D01*
X0031447Y0121343D02*
X0031049Y0121211D01*
X0031049Y0121211D02*
X0030386Y0120813D01*
X0030386Y0120813D02*
X0029989Y0120415D01*
X0029989Y0120415D02*
X0029591Y0119752D01*
X0029591Y0119752D02*
X0029458Y0119355D01*
X0029458Y0119355D02*
X0029458Y0118824D01*
X0029458Y0118824D02*
X0029724Y0118294D01*
X0029724Y0118294D02*
X0030386Y0117631D01*
X0026277Y0122271D02*
X0026277Y0122006D01*
X0026277Y0122006D02*
X0026542Y0121476D01*
X0026542Y0121476D02*
X0026807Y0121211D01*
X0026807Y0121211D02*
X0027337Y0120946D01*
X0027337Y0120946D02*
X0027868Y0120946D01*
X0027868Y0120946D02*
X0028265Y0121078D01*
X0028265Y0121078D02*
X0028928Y0121476D01*
X0028928Y0121476D02*
X0029326Y0121874D01*
X0029326Y0121874D02*
X0029724Y0122536D01*
X0029724Y0122536D02*
X0029856Y0122934D01*
X0029856Y0122934D02*
X0029856Y0123464D01*
X0029856Y0123464D02*
X0029591Y0123995D01*
X0029591Y0123995D02*
X0029326Y0124260D01*
X0029326Y0124260D02*
X0028796Y0124525D01*
X0028796Y0124525D02*
X0028530Y0124525D01*
X0027470Y0125585D02*
X0027470Y0125850D01*
X0027470Y0125850D02*
X0027337Y0126248D01*
X0027337Y0126248D02*
X0026674Y0126911D01*
X0026674Y0126911D02*
X0026277Y0127044D01*
X0026277Y0127044D02*
X0026012Y0127044D01*
X0026012Y0127044D02*
X0025614Y0126911D01*
X0025614Y0126911D02*
X0025349Y0126646D01*
X0025349Y0126646D02*
X0025084Y0126116D01*
X0025084Y0126116D02*
X0025084Y0122934D01*
X0025084Y0122934D02*
X0023360Y0124657D01*
X0023228Y0126911D02*
X0021107Y0129032D01*
X0158325Y0366692D02*
X0158722Y0366559D01*
X0158722Y0366559D02*
X0159120Y0366161D01*
X0159120Y0366161D02*
X0159385Y0365631D01*
X0159385Y0365631D02*
X0159385Y0365101D01*
X0159385Y0365101D02*
X0159253Y0364703D01*
X0159253Y0364703D02*
X0158855Y0364040D01*
X0158855Y0364040D02*
X0158457Y0363643D01*
X0158457Y0363643D02*
X0157794Y0363245D01*
X0157794Y0363245D02*
X0157397Y0363112D01*
X0157397Y0363112D02*
X0156867Y0363112D01*
X0156867Y0363112D02*
X0156336Y0363377D01*
X0156336Y0363377D02*
X0156071Y0363643D01*
X0156071Y0363643D02*
X0155806Y0364173D01*
X0155806Y0364173D02*
X0155806Y0364438D01*
X0155806Y0364438D02*
X0156734Y0365366D01*
X0156734Y0365366D02*
X0157264Y0364836D01*
X0154348Y0365366D02*
X0157132Y0368150D01*
X0157132Y0368150D02*
X0152757Y0366957D01*
X0152757Y0366957D02*
X0155541Y0369741D01*
X0151431Y0368282D02*
X0154215Y0371066D01*
X0154215Y0371066D02*
X0153552Y0371729D01*
X0153552Y0371729D02*
X0153022Y0371994D01*
X0153022Y0371994D02*
X0152492Y0371994D01*
X0152492Y0371994D02*
X0152094Y0371862D01*
X0152094Y0371862D02*
X0151431Y0371464D01*
X0151431Y0371464D02*
X0151034Y0371066D01*
X0151034Y0371066D02*
X0150636Y0370403D01*
X0150636Y0370403D02*
X0150503Y0370006D01*
X0150503Y0370006D02*
X0150503Y0369475D01*
X0150503Y0369475D02*
X0150768Y0368945D01*
X0150768Y0368945D02*
X0151431Y0368282D01*
X0020384Y0050527D02*
X0024321Y0050527D01*
X0024321Y0050527D02*
X0024321Y0051464D01*
X0024321Y0051464D02*
X0024134Y0052027D01*
X0024134Y0052027D02*
X0023759Y0052402D01*
X0023759Y0052402D02*
X0023384Y0052589D01*
X0023384Y0052589D02*
X0022634Y0052777D01*
X0022634Y0052777D02*
X0022071Y0052777D01*
X0022071Y0052777D02*
X0021322Y0052589D01*
X0021322Y0052589D02*
X0020947Y0052402D01*
X0020947Y0052402D02*
X0020572Y0052027D01*
X0020572Y0052027D02*
X0020384Y0051464D01*
X0020384Y0051464D02*
X0020384Y0050527D01*
X0020759Y0056714D02*
X0020572Y0056526D01*
X0020572Y0056526D02*
X0020384Y0055964D01*
X0020384Y0055964D02*
X0020384Y0055589D01*
X0020384Y0055589D02*
X0020572Y0055027D01*
X0020572Y0055027D02*
X0020947Y0054652D01*
X0020947Y0054652D02*
X0021322Y0054464D01*
X0021322Y0054464D02*
X0022071Y0054277D01*
X0022071Y0054277D02*
X0022634Y0054277D01*
X0022634Y0054277D02*
X0023384Y0054464D01*
X0023384Y0054464D02*
X0023759Y0054652D01*
X0023759Y0054652D02*
X0024134Y0055027D01*
X0024134Y0055027D02*
X0024321Y0055589D01*
X0024321Y0055589D02*
X0024321Y0055964D01*
X0024321Y0055964D02*
X0024134Y0056526D01*
X0024134Y0056526D02*
X0023946Y0056714D01*
X0020384Y0060463D02*
X0020384Y0058214D01*
X0020384Y0059339D02*
X0024321Y0059339D01*
X0024321Y0059339D02*
X0023759Y0058964D01*
X0023759Y0058964D02*
X0023384Y0058589D01*
X0023384Y0058589D02*
X0023196Y0058214D01*
X0020009Y0061213D02*
X0020009Y0064213D01*
X0020384Y0065150D02*
X0024321Y0065150D01*
X0024321Y0065150D02*
X0024321Y0066088D01*
X0024321Y0066088D02*
X0024134Y0066650D01*
X0024134Y0066650D02*
X0023759Y0067025D01*
X0023759Y0067025D02*
X0023384Y0067213D01*
X0023384Y0067213D02*
X0022634Y0067400D01*
X0022634Y0067400D02*
X0022071Y0067400D01*
X0022071Y0067400D02*
X0021322Y0067213D01*
X0021322Y0067213D02*
X0020947Y0067025D01*
X0020947Y0067025D02*
X0020572Y0066650D01*
X0020572Y0066650D02*
X0020384Y0066088D01*
X0020384Y0066088D02*
X0020384Y0065150D01*
X0020384Y0069087D02*
X0024321Y0069087D01*
X0020384Y0073212D02*
X0022259Y0071899D01*
X0020384Y0070962D02*
X0024321Y0070962D01*
X0024321Y0070962D02*
X0024321Y0072462D01*
X0024321Y0072462D02*
X0024134Y0072837D01*
X0024134Y0072837D02*
X0023946Y0073024D01*
X0023946Y0073024D02*
X0023571Y0073212D01*
X0023571Y0073212D02*
X0023009Y0073212D01*
X0023009Y0073212D02*
X0022634Y0073024D01*
X0022634Y0073024D02*
X0022446Y0072837D01*
X0022446Y0072837D02*
X0022259Y0072462D01*
X0022259Y0072462D02*
X0022259Y0070962D01*
X0123901Y0361723D02*
X0126685Y0364506D01*
X0125360Y0363181D02*
X0123769Y0364772D01*
X0122311Y0363313D02*
X0125095Y0366097D01*
X0121913Y0365302D02*
X0120587Y0366627D01*
X0121383Y0364241D02*
X0123239Y0367953D01*
X0123239Y0367953D02*
X0119527Y0366097D01*
X0117273Y0368351D02*
X0118599Y0367025D01*
X0118599Y0367025D02*
X0121383Y0369809D01*
X0115020Y0370604D02*
X0116345Y0369279D01*
X0116345Y0369279D02*
X0119129Y0372063D01*
X0116743Y0373919D02*
X0116743Y0374184D01*
X0116743Y0374184D02*
X0116610Y0374581D01*
X0116610Y0374581D02*
X0115947Y0375244D01*
X0115947Y0375244D02*
X0115550Y0375377D01*
X0115550Y0375377D02*
X0115285Y0375377D01*
X0115285Y0375377D02*
X0114887Y0375244D01*
X0114887Y0375244D02*
X0114622Y0374979D01*
X0114622Y0374979D02*
X0114357Y0374449D01*
X0114357Y0374449D02*
X0114357Y0371267D01*
X0114357Y0371267D02*
X0112633Y0372991D01*
X0254173Y0363942D02*
X0253643Y0364207D01*
X0253643Y0364207D02*
X0253378Y0364207D01*
X0253378Y0364207D02*
X0252980Y0364074D01*
X0252980Y0364074D02*
X0252583Y0363677D01*
X0252583Y0363677D02*
X0252450Y0363279D01*
X0252450Y0363279D02*
X0252450Y0363014D01*
X0252450Y0363014D02*
X0252583Y0362616D01*
X0252583Y0362616D02*
X0253643Y0361555D01*
X0253643Y0361555D02*
X0256427Y0364339D01*
X0256427Y0364339D02*
X0255499Y0365267D01*
X0255499Y0365267D02*
X0255101Y0365400D01*
X0255101Y0365400D02*
X0254836Y0365400D01*
X0254836Y0365400D02*
X0254438Y0365267D01*
X0254438Y0365267D02*
X0254173Y0365002D01*
X0254173Y0365002D02*
X0254041Y0364604D01*
X0254041Y0364604D02*
X0254041Y0364339D01*
X0254041Y0364339D02*
X0254173Y0363942D01*
X0254173Y0363942D02*
X0255101Y0363014D01*
X0254041Y0366726D02*
X0252450Y0368316D01*
X0250461Y0364737D02*
X0253245Y0367521D01*
X0248738Y0366460D02*
X0251522Y0369244D01*
X0251522Y0369244D02*
X0247147Y0368051D01*
X0247147Y0368051D02*
X0249931Y0370835D01*
X0244363Y0370835D02*
X0245954Y0369244D01*
X0245159Y0370040D02*
X0247943Y0372824D01*
X0247943Y0372824D02*
X0247810Y0372161D01*
X0247810Y0372161D02*
X0247810Y0371630D01*
X0247810Y0371630D02*
X0247943Y0371233D01*
X0075583Y0362764D02*
X0074257Y0364090D01*
X0075053Y0361704D02*
X0076909Y0365416D01*
X0076909Y0365416D02*
X0073197Y0363560D01*
X0075053Y0367271D02*
X0072799Y0365018D01*
X0072799Y0365018D02*
X0072402Y0364885D01*
X0072402Y0364885D02*
X0072136Y0364885D01*
X0072136Y0364885D02*
X0071739Y0365018D01*
X0071739Y0365018D02*
X0071208Y0365548D01*
X0071208Y0365548D02*
X0071076Y0365946D01*
X0071076Y0365946D02*
X0071076Y0366211D01*
X0071076Y0366211D02*
X0071208Y0366609D01*
X0071208Y0366609D02*
X0073462Y0368862D01*
X0072402Y0369923D02*
X0067762Y0368995D01*
X0070546Y0371779D02*
X0069618Y0367139D01*
X0069352Y0372442D02*
X0069352Y0372707D01*
X0069352Y0372707D02*
X0069220Y0373104D01*
X0069220Y0373104D02*
X0068557Y0373767D01*
X0068557Y0373767D02*
X0068159Y0373900D01*
X0068159Y0373900D02*
X0067894Y0373900D01*
X0067894Y0373900D02*
X0067497Y0373767D01*
X0067497Y0373767D02*
X0067231Y0373502D01*
X0067231Y0373502D02*
X0066966Y0372972D01*
X0066966Y0372972D02*
X0066966Y0369790D01*
X0066966Y0369790D02*
X0065243Y0371514D01*
X0352341Y0014606D02*
X0351029Y0010669D01*
X0351029Y0010669D02*
X0349716Y0014606D01*
X0347092Y0012732D02*
X0346529Y0012544D01*
X0346529Y0012544D02*
X0346342Y0012357D01*
X0346342Y0012357D02*
X0346154Y0011982D01*
X0346154Y0011982D02*
X0346154Y0011419D01*
X0346154Y0011419D02*
X0346342Y0011044D01*
X0346342Y0011044D02*
X0346529Y0010857D01*
X0346529Y0010857D02*
X0346904Y0010669D01*
X0346904Y0010669D02*
X0348404Y0010669D01*
X0348404Y0010669D02*
X0348404Y0014606D01*
X0348404Y0014606D02*
X0347092Y0014606D01*
X0347092Y0014606D02*
X0346717Y0014419D01*
X0346717Y0014419D02*
X0346529Y0014231D01*
X0346529Y0014231D02*
X0346342Y0013856D01*
X0346342Y0013856D02*
X0346342Y0013481D01*
X0346342Y0013481D02*
X0346529Y0013107D01*
X0346529Y0013107D02*
X0346717Y0012919D01*
X0346717Y0012919D02*
X0347092Y0012732D01*
X0347092Y0012732D02*
X0348404Y0012732D01*
X0344467Y0014606D02*
X0344467Y0011419D01*
X0344467Y0011419D02*
X0344279Y0011044D01*
X0344279Y0011044D02*
X0344092Y0010857D01*
X0344092Y0010857D02*
X0343717Y0010669D01*
X0343717Y0010669D02*
X0342967Y0010669D01*
X0342967Y0010669D02*
X0342592Y0010857D01*
X0342592Y0010857D02*
X0342405Y0011044D01*
X0342405Y0011044D02*
X0342217Y0011419D01*
X0342217Y0011419D02*
X0342217Y0014606D01*
X0340530Y0010857D02*
X0339967Y0010669D01*
X0339967Y0010669D02*
X0339030Y0010669D01*
X0339030Y0010669D02*
X0338655Y0010857D01*
X0338655Y0010857D02*
X0338468Y0011044D01*
X0338468Y0011044D02*
X0338280Y0011419D01*
X0338280Y0011419D02*
X0338280Y0011794D01*
X0338280Y0011794D02*
X0338468Y0012169D01*
X0338468Y0012169D02*
X0338655Y0012357D01*
X0338655Y0012357D02*
X0339030Y0012544D01*
X0339030Y0012544D02*
X0339780Y0012732D01*
X0339780Y0012732D02*
X0340155Y0012919D01*
X0340155Y0012919D02*
X0340342Y0013107D01*
X0340342Y0013107D02*
X0340530Y0013481D01*
X0340530Y0013481D02*
X0340530Y0013856D01*
X0340530Y0013856D02*
X0340342Y0014231D01*
X0340342Y0014231D02*
X0340155Y0014419D01*
X0340155Y0014419D02*
X0339780Y0014606D01*
X0339780Y0014606D02*
X0338843Y0014606D01*
X0338843Y0014606D02*
X0338280Y0014419D01*
X0369178Y0283422D02*
X0371432Y0283820D01*
X0370769Y0281831D02*
X0373553Y0284615D01*
X0373553Y0284615D02*
X0372492Y0285675D01*
X0372492Y0285675D02*
X0372095Y0285808D01*
X0372095Y0285808D02*
X0371830Y0285808D01*
X0371830Y0285808D02*
X0371432Y0285675D01*
X0371432Y0285675D02*
X0371034Y0285278D01*
X0371034Y0285278D02*
X0370902Y0284880D01*
X0370902Y0284880D02*
X0370902Y0284615D01*
X0370902Y0284615D02*
X0371034Y0284217D01*
X0371034Y0284217D02*
X0372095Y0283157D01*
X0370239Y0286073D02*
X0369178Y0287134D01*
X0370769Y0287399D02*
X0368383Y0285013D01*
X0368383Y0285013D02*
X0367985Y0284880D01*
X0367985Y0284880D02*
X0367587Y0285013D01*
X0367587Y0285013D02*
X0367322Y0285278D01*
X0366394Y0286206D02*
X0368250Y0288062D01*
X0367720Y0287531D02*
X0367853Y0287929D01*
X0367853Y0287929D02*
X0367853Y0288194D01*
X0367853Y0288194D02*
X0367720Y0288592D01*
X0367720Y0288592D02*
X0367455Y0288857D01*
X0364671Y0287929D02*
X0366527Y0289785D01*
X0367455Y0290713D02*
X0367455Y0290448D01*
X0367455Y0290448D02*
X0367190Y0290448D01*
X0367190Y0290448D02*
X0367190Y0290713D01*
X0367190Y0290713D02*
X0367455Y0290713D01*
X0367455Y0290713D02*
X0367190Y0290448D01*
X0363345Y0289255D02*
X0365201Y0291111D01*
X0364936Y0290846D02*
X0364936Y0291111D01*
X0364936Y0291111D02*
X0364804Y0291508D01*
X0364804Y0291508D02*
X0364406Y0291906D01*
X0364406Y0291906D02*
X0364008Y0292039D01*
X0364008Y0292039D02*
X0363610Y0291906D01*
X0363610Y0291906D02*
X0362152Y0290448D01*
X0363610Y0291906D02*
X0363743Y0292304D01*
X0363743Y0292304D02*
X0363610Y0292701D01*
X0363610Y0292701D02*
X0363213Y0293099D01*
X0363213Y0293099D02*
X0362815Y0293232D01*
X0362815Y0293232D02*
X0362417Y0293099D01*
X0362417Y0293099D02*
X0360959Y0291641D01*
X0062698Y0179666D02*
X0065482Y0182450D01*
X0062566Y0185101D02*
X0062963Y0184968D01*
X0062963Y0184968D02*
X0063361Y0184571D01*
X0063361Y0184571D02*
X0063626Y0184040D01*
X0063626Y0184040D02*
X0063626Y0183510D01*
X0063626Y0183510D02*
X0063494Y0183112D01*
X0063494Y0183112D02*
X0063096Y0182450D01*
X0063096Y0182450D02*
X0062698Y0182052D01*
X0062698Y0182052D02*
X0062035Y0181654D01*
X0062035Y0181654D02*
X0061638Y0181522D01*
X0061638Y0181522D02*
X0061107Y0181522D01*
X0061107Y0181522D02*
X0060577Y0181787D01*
X0060577Y0181787D02*
X0060312Y0182052D01*
X0060312Y0182052D02*
X0060047Y0182582D01*
X0060047Y0182582D02*
X0060047Y0182847D01*
X0060047Y0182847D02*
X0060975Y0183775D01*
X0060975Y0183775D02*
X0061505Y0183245D01*
X0058589Y0183775D02*
X0061373Y0186559D01*
X0061373Y0186559D02*
X0056998Y0185366D01*
X0056998Y0185366D02*
X0059782Y0188150D01*
X0056335Y0189741D02*
X0054479Y0187885D01*
X0058058Y0190138D02*
X0056733Y0187487D01*
X0056733Y0187487D02*
X0055009Y0189210D01*
X0352031Y0024708D02*
X0352031Y0021521D01*
X0352031Y0021521D02*
X0351844Y0021146D01*
X0351844Y0021146D02*
X0351656Y0020959D01*
X0351656Y0020959D02*
X0351281Y0020771D01*
X0351281Y0020771D02*
X0350531Y0020771D01*
X0350531Y0020771D02*
X0350156Y0020959D01*
X0350156Y0020959D02*
X0349969Y0021146D01*
X0349969Y0021146D02*
X0349781Y0021521D01*
X0349781Y0021521D02*
X0349781Y0024708D01*
X0348094Y0020959D02*
X0347532Y0020771D01*
X0347532Y0020771D02*
X0346594Y0020771D01*
X0346594Y0020771D02*
X0346219Y0020959D01*
X0346219Y0020959D02*
X0346032Y0021146D01*
X0346032Y0021146D02*
X0345844Y0021521D01*
X0345844Y0021521D02*
X0345844Y0021896D01*
X0345844Y0021896D02*
X0346032Y0022271D01*
X0346032Y0022271D02*
X0346219Y0022458D01*
X0346219Y0022458D02*
X0346594Y0022646D01*
X0346594Y0022646D02*
X0347344Y0022833D01*
X0347344Y0022833D02*
X0347719Y0023021D01*
X0347719Y0023021D02*
X0347907Y0023208D01*
X0347907Y0023208D02*
X0348094Y0023583D01*
X0348094Y0023583D02*
X0348094Y0023958D01*
X0348094Y0023958D02*
X0347907Y0024333D01*
X0347907Y0024333D02*
X0347719Y0024521D01*
X0347719Y0024521D02*
X0347344Y0024708D01*
X0347344Y0024708D02*
X0346407Y0024708D01*
X0346407Y0024708D02*
X0345844Y0024521D01*
X0342845Y0022833D02*
X0342282Y0022646D01*
X0342282Y0022646D02*
X0342095Y0022458D01*
X0342095Y0022458D02*
X0341907Y0022083D01*
X0341907Y0022083D02*
X0341907Y0021521D01*
X0341907Y0021521D02*
X0342095Y0021146D01*
X0342095Y0021146D02*
X0342282Y0020959D01*
X0342282Y0020959D02*
X0342657Y0020771D01*
X0342657Y0020771D02*
X0344157Y0020771D01*
X0344157Y0020771D02*
X0344157Y0024708D01*
X0344157Y0024708D02*
X0342845Y0024708D01*
X0342845Y0024708D02*
X0342470Y0024521D01*
X0342470Y0024521D02*
X0342282Y0024333D01*
X0342282Y0024333D02*
X0342095Y0023958D01*
X0342095Y0023958D02*
X0342095Y0023583D01*
X0342095Y0023583D02*
X0342282Y0023208D01*
X0342282Y0023208D02*
X0342470Y0023021D01*
X0342470Y0023021D02*
X0342845Y0022833D01*
X0342845Y0022833D02*
X0344157Y0022833D01*
X0340220Y0022271D02*
X0337220Y0022271D01*
X0143636Y0326540D02*
X0139924Y0324684D01*
X0139924Y0324684D02*
X0141780Y0328396D01*
X0136477Y0328131D02*
X0138731Y0328529D01*
X0138068Y0326540D02*
X0140852Y0329324D01*
X0140852Y0329324D02*
X0139791Y0330385D01*
X0139791Y0330385D02*
X0139394Y0330517D01*
X0139394Y0330517D02*
X0139128Y0330517D01*
X0139128Y0330517D02*
X0138731Y0330385D01*
X0138731Y0330385D02*
X0138333Y0329987D01*
X0138333Y0329987D02*
X0138200Y0329589D01*
X0138200Y0329589D02*
X0138200Y0329324D01*
X0138200Y0329324D02*
X0138333Y0328926D01*
X0138333Y0328926D02*
X0139394Y0327866D01*
X0137935Y0331710D02*
X0137935Y0331975D01*
X0137935Y0331975D02*
X0137803Y0332373D01*
X0137803Y0332373D02*
X0137140Y0333036D01*
X0137140Y0333036D02*
X0136742Y0333168D01*
X0136742Y0333168D02*
X0136477Y0333168D01*
X0136477Y0333168D02*
X0136079Y0333036D01*
X0136079Y0333036D02*
X0135814Y0332771D01*
X0135814Y0332771D02*
X0135549Y0332240D01*
X0135549Y0332240D02*
X0135549Y0329059D01*
X0135549Y0329059D02*
X0133826Y0330782D01*
X0133693Y0333036D02*
X0131572Y0335157D01*
X0288168Y0361632D02*
X0286047Y0363753D01*
X0286047Y0361632D02*
X0288168Y0363753D01*
X0285119Y0368127D02*
X0286445Y0366802D01*
X0286445Y0366802D02*
X0285252Y0365344D01*
X0285252Y0365344D02*
X0285252Y0365609D01*
X0285252Y0365609D02*
X0285119Y0366006D01*
X0285119Y0366006D02*
X0284456Y0366669D01*
X0284456Y0366669D02*
X0284059Y0366802D01*
X0284059Y0366802D02*
X0283793Y0366802D01*
X0283793Y0366802D02*
X0283396Y0366669D01*
X0283396Y0366669D02*
X0282733Y0366006D01*
X0282733Y0366006D02*
X0282600Y0365609D01*
X0282600Y0365609D02*
X0282600Y0365344D01*
X0282600Y0365344D02*
X0282733Y0364946D01*
X0282733Y0364946D02*
X0283396Y0364283D01*
X0283396Y0364283D02*
X0283793Y0364151D01*
X0283793Y0364151D02*
X0284059Y0364151D01*
X0284191Y0369055D02*
X0280479Y0367200D01*
X0280479Y0367200D02*
X0282335Y0370911D01*
X0278623Y0369055D02*
X0281407Y0371839D01*
X0281407Y0371839D02*
X0280347Y0372900D01*
X0280347Y0372900D02*
X0279949Y0373032D01*
X0279949Y0373032D02*
X0279684Y0373032D01*
X0279684Y0373032D02*
X0279286Y0372900D01*
X0279286Y0372900D02*
X0278889Y0372502D01*
X0278889Y0372502D02*
X0278756Y0372104D01*
X0278756Y0372104D02*
X0278756Y0371839D01*
X0278756Y0371839D02*
X0278889Y0371442D01*
X0278889Y0371442D02*
X0279949Y0370381D01*
X0370742Y0265431D02*
X0373526Y0268215D01*
X0372200Y0266889D02*
X0370609Y0268480D01*
X0369151Y0267022D02*
X0371935Y0269806D01*
X0371007Y0270734D02*
X0369416Y0272324D01*
X0367427Y0268745D02*
X0370211Y0271529D01*
X0364113Y0272059D02*
X0366367Y0272457D01*
X0365704Y0270469D02*
X0368488Y0273252D01*
X0368488Y0273252D02*
X0367427Y0274313D01*
X0367427Y0274313D02*
X0367030Y0274445D01*
X0367030Y0274445D02*
X0366765Y0274445D01*
X0366765Y0274445D02*
X0366367Y0274313D01*
X0366367Y0274313D02*
X0365969Y0273915D01*
X0365969Y0273915D02*
X0365837Y0273518D01*
X0365837Y0273518D02*
X0365837Y0273252D01*
X0365837Y0273252D02*
X0365969Y0272855D01*
X0365969Y0272855D02*
X0367030Y0271794D01*
X0363981Y0274313D02*
X0361860Y0276434D01*
X0305053Y0328509D02*
X0303462Y0330099D01*
X0301474Y0326520D02*
X0304258Y0329304D01*
X0299750Y0328243D02*
X0302534Y0331027D01*
X0302534Y0331027D02*
X0301474Y0332088D01*
X0301474Y0332088D02*
X0301076Y0332220D01*
X0301076Y0332220D02*
X0300811Y0332220D01*
X0300811Y0332220D02*
X0300413Y0332088D01*
X0300413Y0332088D02*
X0300015Y0331690D01*
X0300015Y0331690D02*
X0299883Y0331292D01*
X0299883Y0331292D02*
X0299883Y0331027D01*
X0299883Y0331027D02*
X0300015Y0330630D01*
X0300015Y0330630D02*
X0301076Y0329569D01*
X0297232Y0331027D02*
X0296701Y0331292D01*
X0296701Y0331292D02*
X0296038Y0331955D01*
X0296038Y0331955D02*
X0295906Y0332353D01*
X0295906Y0332353D02*
X0295906Y0332618D01*
X0295906Y0332618D02*
X0296038Y0333016D01*
X0296038Y0333016D02*
X0296304Y0333281D01*
X0296304Y0333281D02*
X0296701Y0333414D01*
X0296701Y0333414D02*
X0296966Y0333414D01*
X0296966Y0333414D02*
X0297364Y0333281D01*
X0297364Y0333281D02*
X0298027Y0332883D01*
X0298027Y0332883D02*
X0298425Y0332751D01*
X0298425Y0332751D02*
X0298690Y0332751D01*
X0298690Y0332751D02*
X0299088Y0332883D01*
X0299088Y0332883D02*
X0299353Y0333148D01*
X0299353Y0333148D02*
X0299485Y0333546D01*
X0299485Y0333546D02*
X0299485Y0333811D01*
X0299485Y0333811D02*
X0299353Y0334209D01*
X0299353Y0334209D02*
X0298690Y0334872D01*
X0298690Y0334872D02*
X0298160Y0335137D01*
X0292857Y0335137D02*
X0294448Y0333546D01*
X0293652Y0334341D02*
X0296436Y0337125D01*
X0296436Y0337125D02*
X0296304Y0336463D01*
X0296304Y0336463D02*
X0296304Y0335932D01*
X0296304Y0335932D02*
X0296436Y0335535D01*
X0014951Y0160763D02*
X0018888Y0160763D01*
X0017575Y0164325D02*
X0014388Y0164325D01*
X0014388Y0164325D02*
X0014013Y0164138D01*
X0014013Y0164138D02*
X0013826Y0163950D01*
X0013826Y0163950D02*
X0013638Y0163575D01*
X0013638Y0163575D02*
X0013638Y0163013D01*
X0013638Y0163013D02*
X0013826Y0162638D01*
X0015138Y0164325D02*
X0014951Y0163950D01*
X0014951Y0163950D02*
X0014951Y0163201D01*
X0014951Y0163201D02*
X0015138Y0162826D01*
X0015138Y0162826D02*
X0015326Y0162638D01*
X0015326Y0162638D02*
X0015701Y0162451D01*
X0015701Y0162451D02*
X0016825Y0162451D01*
X0016825Y0162451D02*
X0017200Y0162638D01*
X0017200Y0162638D02*
X0017388Y0162826D01*
X0017388Y0162826D02*
X0017575Y0163201D01*
X0017575Y0163201D02*
X0017575Y0163950D01*
X0017575Y0163950D02*
X0017388Y0164325D01*
X0017575Y0166200D02*
X0014951Y0166200D01*
X0017200Y0166200D02*
X0017388Y0166388D01*
X0017388Y0166388D02*
X0017575Y0166763D01*
X0017575Y0166763D02*
X0017575Y0167325D01*
X0017575Y0167325D02*
X0017388Y0167700D01*
X0017388Y0167700D02*
X0017013Y0167887D01*
X0017013Y0167887D02*
X0014951Y0167887D01*
X0014951Y0169762D02*
X0017575Y0169762D01*
X0018888Y0169762D02*
X0018700Y0169575D01*
X0018700Y0169575D02*
X0018513Y0169762D01*
X0018513Y0169762D02*
X0018700Y0169950D01*
X0018700Y0169950D02*
X0018888Y0169762D01*
X0018888Y0169762D02*
X0018513Y0169762D01*
X0017575Y0171075D02*
X0017575Y0172574D01*
X0018888Y0171637D02*
X0015513Y0171637D01*
X0015513Y0171637D02*
X0015138Y0171824D01*
X0015138Y0171824D02*
X0014951Y0172199D01*
X0014951Y0172199D02*
X0014951Y0172574D01*
X0014951Y0173887D02*
X0017575Y0173887D01*
X0018888Y0173887D02*
X0018700Y0173699D01*
X0018700Y0173699D02*
X0018513Y0173887D01*
X0018513Y0173887D02*
X0018700Y0174074D01*
X0018700Y0174074D02*
X0018888Y0173887D01*
X0018888Y0173887D02*
X0018513Y0173887D01*
X0014951Y0176324D02*
X0015138Y0175949D01*
X0015138Y0175949D02*
X0015326Y0175761D01*
X0015326Y0175761D02*
X0015701Y0175574D01*
X0015701Y0175574D02*
X0016825Y0175574D01*
X0016825Y0175574D02*
X0017200Y0175761D01*
X0017200Y0175761D02*
X0017388Y0175949D01*
X0017388Y0175949D02*
X0017575Y0176324D01*
X0017575Y0176324D02*
X0017575Y0176886D01*
X0017575Y0176886D02*
X0017388Y0177261D01*
X0017388Y0177261D02*
X0017200Y0177449D01*
X0017200Y0177449D02*
X0016825Y0177636D01*
X0016825Y0177636D02*
X0015701Y0177636D01*
X0015701Y0177636D02*
X0015326Y0177449D01*
X0015326Y0177449D02*
X0015138Y0177261D01*
X0015138Y0177261D02*
X0014951Y0176886D01*
X0014951Y0176886D02*
X0014951Y0176324D01*
X0017575Y0179324D02*
X0014951Y0179324D01*
X0017200Y0179324D02*
X0017388Y0179511D01*
X0017388Y0179511D02*
X0017575Y0179886D01*
X0017575Y0179886D02*
X0017575Y0180448D01*
X0017575Y0180448D02*
X0017388Y0180823D01*
X0017388Y0180823D02*
X0017013Y0181011D01*
X0017013Y0181011D02*
X0014951Y0181011D01*
X0014951Y0186448D02*
X0015138Y0186073D01*
X0015138Y0186073D02*
X0015513Y0185885D01*
X0015513Y0185885D02*
X0018888Y0185885D01*
X0014951Y0188510D02*
X0015138Y0188135D01*
X0015138Y0188135D02*
X0015326Y0187947D01*
X0015326Y0187947D02*
X0015701Y0187760D01*
X0015701Y0187760D02*
X0016825Y0187760D01*
X0016825Y0187760D02*
X0017200Y0187947D01*
X0017200Y0187947D02*
X0017388Y0188135D01*
X0017388Y0188135D02*
X0017575Y0188510D01*
X0017575Y0188510D02*
X0017575Y0189072D01*
X0017575Y0189072D02*
X0017388Y0189447D01*
X0017388Y0189447D02*
X0017200Y0189635D01*
X0017200Y0189635D02*
X0016825Y0189822D01*
X0016825Y0189822D02*
X0015701Y0189822D01*
X0015701Y0189822D02*
X0015326Y0189635D01*
X0015326Y0189635D02*
X0015138Y0189447D01*
X0015138Y0189447D02*
X0014951Y0189072D01*
X0014951Y0189072D02*
X0014951Y0188510D01*
X0017575Y0193197D02*
X0014388Y0193197D01*
X0014388Y0193197D02*
X0014013Y0193009D01*
X0014013Y0193009D02*
X0013826Y0192822D01*
X0013826Y0192822D02*
X0013638Y0192447D01*
X0013638Y0192447D02*
X0013638Y0191884D01*
X0013638Y0191884D02*
X0013826Y0191509D01*
X0015138Y0193197D02*
X0014951Y0192822D01*
X0014951Y0192822D02*
X0014951Y0192072D01*
X0014951Y0192072D02*
X0015138Y0191697D01*
X0015138Y0191697D02*
X0015326Y0191509D01*
X0015326Y0191509D02*
X0015701Y0191322D01*
X0015701Y0191322D02*
X0016825Y0191322D01*
X0016825Y0191322D02*
X0017200Y0191509D01*
X0017200Y0191509D02*
X0017388Y0191697D01*
X0017388Y0191697D02*
X0017575Y0192072D01*
X0017575Y0192072D02*
X0017575Y0192822D01*
X0017575Y0192822D02*
X0017388Y0193197D01*
X0014951Y0195072D02*
X0017575Y0195072D01*
X0018888Y0195072D02*
X0018700Y0194884D01*
X0018700Y0194884D02*
X0018513Y0195072D01*
X0018513Y0195072D02*
X0018700Y0195259D01*
X0018700Y0195259D02*
X0018888Y0195072D01*
X0018888Y0195072D02*
X0018513Y0195072D01*
X0015138Y0198634D02*
X0014951Y0198259D01*
X0014951Y0198259D02*
X0014951Y0197509D01*
X0014951Y0197509D02*
X0015138Y0197134D01*
X0015138Y0197134D02*
X0015326Y0196946D01*
X0015326Y0196946D02*
X0015701Y0196759D01*
X0015701Y0196759D02*
X0016825Y0196759D01*
X0016825Y0196759D02*
X0017200Y0196946D01*
X0017200Y0196946D02*
X0017388Y0197134D01*
X0017388Y0197134D02*
X0017575Y0197509D01*
X0017575Y0197509D02*
X0017575Y0198259D01*
X0017575Y0198259D02*
X0017388Y0198634D01*
X0014951Y0203883D02*
X0015138Y0203508D01*
X0015138Y0203508D02*
X0015513Y0203321D01*
X0015513Y0203321D02*
X0018888Y0203321D01*
X0015138Y0206883D02*
X0014951Y0206508D01*
X0014951Y0206508D02*
X0014951Y0205758D01*
X0014951Y0205758D02*
X0015138Y0205383D01*
X0015138Y0205383D02*
X0015513Y0205195D01*
X0015513Y0205195D02*
X0017013Y0205195D01*
X0017013Y0205195D02*
X0017388Y0205383D01*
X0017388Y0205383D02*
X0017575Y0205758D01*
X0017575Y0205758D02*
X0017575Y0206508D01*
X0017575Y0206508D02*
X0017388Y0206883D01*
X0017388Y0206883D02*
X0017013Y0207070D01*
X0017013Y0207070D02*
X0016638Y0207070D01*
X0016638Y0207070D02*
X0016263Y0205195D01*
X0017575Y0208382D02*
X0014951Y0209320D01*
X0014951Y0209320D02*
X0017575Y0210257D01*
X0015138Y0213257D02*
X0014951Y0212882D01*
X0014951Y0212882D02*
X0014951Y0212132D01*
X0014951Y0212132D02*
X0015138Y0211757D01*
X0015138Y0211757D02*
X0015513Y0211569D01*
X0015513Y0211569D02*
X0017013Y0211569D01*
X0017013Y0211569D02*
X0017388Y0211757D01*
X0017388Y0211757D02*
X0017575Y0212132D01*
X0017575Y0212132D02*
X0017575Y0212882D01*
X0017575Y0212882D02*
X0017388Y0213257D01*
X0017388Y0213257D02*
X0017013Y0213444D01*
X0017013Y0213444D02*
X0016638Y0213444D01*
X0016638Y0213444D02*
X0016263Y0211569D01*
X0014951Y0215694D02*
X0015138Y0215319D01*
X0015138Y0215319D02*
X0015513Y0215132D01*
X0015513Y0215132D02*
X0018888Y0215132D01*
X0014951Y0220756D02*
X0015138Y0220381D01*
X0015138Y0220381D02*
X0015326Y0220193D01*
X0015326Y0220193D02*
X0015701Y0220006D01*
X0015701Y0220006D02*
X0016825Y0220006D01*
X0016825Y0220006D02*
X0017200Y0220193D01*
X0017200Y0220193D02*
X0017388Y0220381D01*
X0017388Y0220381D02*
X0017575Y0220756D01*
X0017575Y0220756D02*
X0017575Y0221318D01*
X0017575Y0221318D02*
X0017388Y0221693D01*
X0017388Y0221693D02*
X0017200Y0221881D01*
X0017200Y0221881D02*
X0016825Y0222068D01*
X0016825Y0222068D02*
X0015701Y0222068D01*
X0015701Y0222068D02*
X0015326Y0221881D01*
X0015326Y0221881D02*
X0015138Y0221693D01*
X0015138Y0221693D02*
X0014951Y0221318D01*
X0014951Y0221318D02*
X0014951Y0220756D01*
X0017575Y0225443D02*
X0014951Y0225443D01*
X0017575Y0223755D02*
X0015513Y0223755D01*
X0015513Y0223755D02*
X0015138Y0223943D01*
X0015138Y0223943D02*
X0014951Y0224318D01*
X0014951Y0224318D02*
X0014951Y0224880D01*
X0014951Y0224880D02*
X0015138Y0225255D01*
X0015138Y0225255D02*
X0015326Y0225443D01*
X0017575Y0226755D02*
X0017575Y0228255D01*
X0018888Y0227318D02*
X0015513Y0227318D01*
X0015513Y0227318D02*
X0015138Y0227505D01*
X0015138Y0227505D02*
X0014951Y0227880D01*
X0014951Y0227880D02*
X0014951Y0228255D01*
X0017575Y0229567D02*
X0013638Y0229567D01*
X0017388Y0229567D02*
X0017575Y0229942D01*
X0017575Y0229942D02*
X0017575Y0230692D01*
X0017575Y0230692D02*
X0017388Y0231067D01*
X0017388Y0231067D02*
X0017200Y0231255D01*
X0017200Y0231255D02*
X0016825Y0231442D01*
X0016825Y0231442D02*
X0015701Y0231442D01*
X0015701Y0231442D02*
X0015326Y0231255D01*
X0015326Y0231255D02*
X0015138Y0231067D01*
X0015138Y0231067D02*
X0014951Y0230692D01*
X0014951Y0230692D02*
X0014951Y0229942D01*
X0014951Y0229942D02*
X0015138Y0229567D01*
X0017575Y0234817D02*
X0014951Y0234817D01*
X0017575Y0233129D02*
X0015513Y0233129D01*
X0015513Y0233129D02*
X0015138Y0233317D01*
X0015138Y0233317D02*
X0014951Y0233692D01*
X0014951Y0233692D02*
X0014951Y0234254D01*
X0014951Y0234254D02*
X0015138Y0234629D01*
X0015138Y0234629D02*
X0015326Y0234817D01*
X0017575Y0236129D02*
X0017575Y0237629D01*
X0018888Y0236691D02*
X0015513Y0236691D01*
X0015513Y0236691D02*
X0015138Y0236879D01*
X0015138Y0236879D02*
X0014951Y0237254D01*
X0014951Y0237254D02*
X0014951Y0237629D01*
X0015138Y0238754D02*
X0014951Y0239129D01*
X0014951Y0239129D02*
X0014951Y0239878D01*
X0014951Y0239878D02*
X0015138Y0240253D01*
X0015138Y0240253D02*
X0015513Y0240441D01*
X0015513Y0240441D02*
X0015701Y0240441D01*
X0015701Y0240441D02*
X0016076Y0240253D01*
X0016076Y0240253D02*
X0016263Y0239878D01*
X0016263Y0239878D02*
X0016263Y0239316D01*
X0016263Y0239316D02*
X0016450Y0238941D01*
X0016450Y0238941D02*
X0016825Y0238754D01*
X0016825Y0238754D02*
X0017013Y0238754D01*
X0017013Y0238754D02*
X0017388Y0238941D01*
X0017388Y0238941D02*
X0017575Y0239316D01*
X0017575Y0239316D02*
X0017575Y0239878D01*
X0017575Y0239878D02*
X0017388Y0240253D01*
X0014951Y0245128D02*
X0018888Y0245128D01*
X0017388Y0245128D02*
X0017575Y0245503D01*
X0017575Y0245503D02*
X0017575Y0246253D01*
X0017575Y0246253D02*
X0017388Y0246628D01*
X0017388Y0246628D02*
X0017200Y0246815D01*
X0017200Y0246815D02*
X0016825Y0247003D01*
X0016825Y0247003D02*
X0015701Y0247003D01*
X0015701Y0247003D02*
X0015326Y0246815D01*
X0015326Y0246815D02*
X0015138Y0246628D01*
X0015138Y0246628D02*
X0014951Y0246253D01*
X0014951Y0246253D02*
X0014951Y0245503D01*
X0014951Y0245503D02*
X0015138Y0245128D01*
X0017575Y0248315D02*
X0014951Y0249252D01*
X0017575Y0250190D02*
X0014951Y0249252D01*
X0014951Y0249252D02*
X0014013Y0248877D01*
X0014013Y0248877D02*
X0013826Y0248690D01*
X0013826Y0248690D02*
X0013638Y0248315D01*
X0014951Y0256376D02*
X0018888Y0256376D01*
X0015138Y0256376D02*
X0014951Y0256001D01*
X0014951Y0256001D02*
X0014951Y0255252D01*
X0014951Y0255252D02*
X0015138Y0254877D01*
X0015138Y0254877D02*
X0015326Y0254689D01*
X0015326Y0254689D02*
X0015701Y0254502D01*
X0015701Y0254502D02*
X0016825Y0254502D01*
X0016825Y0254502D02*
X0017200Y0254689D01*
X0017200Y0254689D02*
X0017388Y0254877D01*
X0017388Y0254877D02*
X0017575Y0255252D01*
X0017575Y0255252D02*
X0017575Y0256001D01*
X0017575Y0256001D02*
X0017388Y0256376D01*
X0015138Y0259751D02*
X0014951Y0259376D01*
X0014951Y0259376D02*
X0014951Y0258626D01*
X0014951Y0258626D02*
X0015138Y0258251D01*
X0015138Y0258251D02*
X0015513Y0258064D01*
X0015513Y0258064D02*
X0017013Y0258064D01*
X0017013Y0258064D02*
X0017388Y0258251D01*
X0017388Y0258251D02*
X0017575Y0258626D01*
X0017575Y0258626D02*
X0017575Y0259376D01*
X0017575Y0259376D02*
X0017388Y0259751D01*
X0017388Y0259751D02*
X0017013Y0259938D01*
X0017013Y0259938D02*
X0016638Y0259938D01*
X0016638Y0259938D02*
X0016263Y0258064D01*
X0017575Y0261063D02*
X0017575Y0262563D01*
X0014951Y0261626D02*
X0018325Y0261626D01*
X0018325Y0261626D02*
X0018700Y0261813D01*
X0018700Y0261813D02*
X0018888Y0262188D01*
X0018888Y0262188D02*
X0018888Y0262563D01*
X0014951Y0265563D02*
X0017013Y0265563D01*
X0017013Y0265563D02*
X0017388Y0265375D01*
X0017388Y0265375D02*
X0017575Y0265000D01*
X0017575Y0265000D02*
X0017575Y0264250D01*
X0017575Y0264250D02*
X0017388Y0263875D01*
X0015138Y0265563D02*
X0014951Y0265188D01*
X0014951Y0265188D02*
X0014951Y0264250D01*
X0014951Y0264250D02*
X0015138Y0263875D01*
X0015138Y0263875D02*
X0015513Y0263688D01*
X0015513Y0263688D02*
X0015888Y0263688D01*
X0015888Y0263688D02*
X0016263Y0263875D01*
X0016263Y0263875D02*
X0016450Y0264250D01*
X0016450Y0264250D02*
X0016450Y0265188D01*
X0016450Y0265188D02*
X0016638Y0265563D01*
X0017575Y0269125D02*
X0014951Y0269125D01*
X0017575Y0267438D02*
X0015513Y0267438D01*
X0015513Y0267438D02*
X0015138Y0267625D01*
X0015138Y0267625D02*
X0014951Y0268000D01*
X0014951Y0268000D02*
X0014951Y0268562D01*
X0014951Y0268562D02*
X0015138Y0268937D01*
X0015138Y0268937D02*
X0015326Y0269125D01*
X0014951Y0271562D02*
X0015138Y0271187D01*
X0015138Y0271187D02*
X0015513Y0271000D01*
X0015513Y0271000D02*
X0018888Y0271000D01*
X0017575Y0272499D02*
X0017575Y0273999D01*
X0018888Y0273062D02*
X0015513Y0273062D01*
X0015513Y0273062D02*
X0015138Y0273249D01*
X0015138Y0273249D02*
X0014951Y0273624D01*
X0014951Y0273624D02*
X0014951Y0273999D01*
X0011237Y0160201D02*
X0011237Y0161701D01*
X0012549Y0160763D02*
X0009175Y0160763D01*
X0009175Y0160763D02*
X0008800Y0160951D01*
X0008800Y0160951D02*
X0008612Y0161326D01*
X0008612Y0161326D02*
X0008612Y0161701D01*
X0008612Y0163575D02*
X0008800Y0163201D01*
X0008800Y0163201D02*
X0008987Y0163013D01*
X0008987Y0163013D02*
X0009362Y0162826D01*
X0009362Y0162826D02*
X0010487Y0162826D01*
X0010487Y0162826D02*
X0010862Y0163013D01*
X0010862Y0163013D02*
X0011049Y0163201D01*
X0011049Y0163201D02*
X0011237Y0163575D01*
X0011237Y0163575D02*
X0011237Y0164138D01*
X0011237Y0164138D02*
X0011049Y0164513D01*
X0011049Y0164513D02*
X0010862Y0164700D01*
X0010862Y0164700D02*
X0010487Y0164888D01*
X0010487Y0164888D02*
X0009362Y0164888D01*
X0009362Y0164888D02*
X0008987Y0164700D01*
X0008987Y0164700D02*
X0008800Y0164513D01*
X0008800Y0164513D02*
X0008612Y0164138D01*
X0008612Y0164138D02*
X0008612Y0163575D01*
X0008800Y0171262D02*
X0008612Y0170887D01*
X0008612Y0170887D02*
X0008612Y0170137D01*
X0008612Y0170137D02*
X0008800Y0169762D01*
X0008800Y0169762D02*
X0008987Y0169575D01*
X0008987Y0169575D02*
X0009362Y0169387D01*
X0009362Y0169387D02*
X0010487Y0169387D01*
X0010487Y0169387D02*
X0010862Y0169575D01*
X0010862Y0169575D02*
X0011049Y0169762D01*
X0011049Y0169762D02*
X0011237Y0170137D01*
X0011237Y0170137D02*
X0011237Y0170887D01*
X0011237Y0170887D02*
X0011049Y0171262D01*
X0008612Y0173512D02*
X0008800Y0173137D01*
X0008800Y0173137D02*
X0008987Y0172949D01*
X0008987Y0172949D02*
X0009362Y0172762D01*
X0009362Y0172762D02*
X0010487Y0172762D01*
X0010487Y0172762D02*
X0010862Y0172949D01*
X0010862Y0172949D02*
X0011049Y0173137D01*
X0011049Y0173137D02*
X0011237Y0173512D01*
X0011237Y0173512D02*
X0011237Y0174074D01*
X0011237Y0174074D02*
X0011049Y0174449D01*
X0011049Y0174449D02*
X0010862Y0174637D01*
X0010862Y0174637D02*
X0010487Y0174824D01*
X0010487Y0174824D02*
X0009362Y0174824D01*
X0009362Y0174824D02*
X0008987Y0174637D01*
X0008987Y0174637D02*
X0008800Y0174449D01*
X0008800Y0174449D02*
X0008612Y0174074D01*
X0008612Y0174074D02*
X0008612Y0173512D01*
X0011237Y0176511D02*
X0008612Y0176511D01*
X0010862Y0176511D02*
X0011049Y0176699D01*
X0011049Y0176699D02*
X0011237Y0177074D01*
X0011237Y0177074D02*
X0011237Y0177636D01*
X0011237Y0177636D02*
X0011049Y0178011D01*
X0011049Y0178011D02*
X0010675Y0178199D01*
X0010675Y0178199D02*
X0008612Y0178199D01*
X0011237Y0179511D02*
X0011237Y0181011D01*
X0012549Y0180073D02*
X0009175Y0180073D01*
X0009175Y0180073D02*
X0008800Y0180261D01*
X0008800Y0180261D02*
X0008612Y0180636D01*
X0008612Y0180636D02*
X0008612Y0181011D01*
X0008612Y0182323D02*
X0011237Y0182323D01*
X0010487Y0182323D02*
X0010862Y0182511D01*
X0010862Y0182511D02*
X0011049Y0182698D01*
X0011049Y0182698D02*
X0011237Y0183073D01*
X0011237Y0183073D02*
X0011237Y0183448D01*
X0008612Y0185323D02*
X0008800Y0184948D01*
X0008800Y0184948D02*
X0008987Y0184760D01*
X0008987Y0184760D02*
X0009362Y0184573D01*
X0009362Y0184573D02*
X0010487Y0184573D01*
X0010487Y0184573D02*
X0010862Y0184760D01*
X0010862Y0184760D02*
X0011049Y0184948D01*
X0011049Y0184948D02*
X0011237Y0185323D01*
X0011237Y0185323D02*
X0011237Y0185885D01*
X0011237Y0185885D02*
X0011049Y0186260D01*
X0011049Y0186260D02*
X0010862Y0186448D01*
X0010862Y0186448D02*
X0010487Y0186635D01*
X0010487Y0186635D02*
X0009362Y0186635D01*
X0009362Y0186635D02*
X0008987Y0186448D01*
X0008987Y0186448D02*
X0008800Y0186260D01*
X0008800Y0186260D02*
X0008612Y0185885D01*
X0008612Y0185885D02*
X0008612Y0185323D01*
X0008612Y0188885D02*
X0008800Y0188510D01*
X0008800Y0188510D02*
X0009175Y0188322D01*
X0009175Y0188322D02*
X0012549Y0188322D01*
X0008612Y0195072D02*
X0012549Y0195072D01*
X0008800Y0195072D02*
X0008612Y0194697D01*
X0008612Y0194697D02*
X0008612Y0193947D01*
X0008612Y0193947D02*
X0008800Y0193572D01*
X0008800Y0193572D02*
X0008987Y0193384D01*
X0008987Y0193384D02*
X0009362Y0193197D01*
X0009362Y0193197D02*
X0010487Y0193197D01*
X0010487Y0193197D02*
X0010862Y0193384D01*
X0010862Y0193384D02*
X0011049Y0193572D01*
X0011049Y0193572D02*
X0011237Y0193947D01*
X0011237Y0193947D02*
X0011237Y0194697D01*
X0011237Y0194697D02*
X0011049Y0195072D01*
X0011237Y0198634D02*
X0008612Y0198634D01*
X0011237Y0196946D02*
X0009175Y0196946D01*
X0009175Y0196946D02*
X0008800Y0197134D01*
X0008800Y0197134D02*
X0008612Y0197509D01*
X0008612Y0197509D02*
X0008612Y0198071D01*
X0008612Y0198071D02*
X0008800Y0198446D01*
X0008800Y0198446D02*
X0008987Y0198634D01*
X0008612Y0200508D02*
X0011237Y0200508D01*
X0010862Y0200508D02*
X0011049Y0200696D01*
X0011049Y0200696D02*
X0011237Y0201071D01*
X0011237Y0201071D02*
X0011237Y0201633D01*
X0011237Y0201633D02*
X0011049Y0202008D01*
X0011049Y0202008D02*
X0010675Y0202196D01*
X0010675Y0202196D02*
X0008612Y0202196D01*
X0010675Y0202196D02*
X0011049Y0202383D01*
X0011049Y0202383D02*
X0011237Y0202758D01*
X0011237Y0202758D02*
X0011237Y0203321D01*
X0011237Y0203321D02*
X0011049Y0203695D01*
X0011049Y0203695D02*
X0010675Y0203883D01*
X0010675Y0203883D02*
X0008612Y0203883D01*
X0008612Y0205758D02*
X0012549Y0205758D01*
X0011049Y0205758D02*
X0011237Y0206133D01*
X0011237Y0206133D02*
X0011237Y0206883D01*
X0011237Y0206883D02*
X0011049Y0207258D01*
X0011049Y0207258D02*
X0010862Y0207445D01*
X0010862Y0207445D02*
X0010487Y0207632D01*
X0010487Y0207632D02*
X0009362Y0207632D01*
X0009362Y0207632D02*
X0008987Y0207445D01*
X0008987Y0207445D02*
X0008800Y0207258D01*
X0008800Y0207258D02*
X0008612Y0206883D01*
X0008612Y0206883D02*
X0008612Y0206133D01*
X0008612Y0206133D02*
X0008800Y0205758D01*
X0008800Y0214007D02*
X0008612Y0213632D01*
X0008612Y0213632D02*
X0008612Y0212882D01*
X0008612Y0212882D02*
X0008800Y0212507D01*
X0008800Y0212507D02*
X0008987Y0212319D01*
X0008987Y0212319D02*
X0009362Y0212132D01*
X0009362Y0212132D02*
X0010487Y0212132D01*
X0010487Y0212132D02*
X0010862Y0212319D01*
X0010862Y0212319D02*
X0011049Y0212507D01*
X0011049Y0212507D02*
X0011237Y0212882D01*
X0011237Y0212882D02*
X0011237Y0213632D01*
X0011237Y0213632D02*
X0011049Y0214007D01*
X0008612Y0216256D02*
X0008800Y0215881D01*
X0008800Y0215881D02*
X0008987Y0215694D01*
X0008987Y0215694D02*
X0009362Y0215506D01*
X0009362Y0215506D02*
X0010487Y0215506D01*
X0010487Y0215506D02*
X0010862Y0215694D01*
X0010862Y0215694D02*
X0011049Y0215881D01*
X0011049Y0215881D02*
X0011237Y0216256D01*
X0011237Y0216256D02*
X0011237Y0216819D01*
X0011237Y0216819D02*
X0011049Y0217194D01*
X0011049Y0217194D02*
X0010862Y0217381D01*
X0010862Y0217381D02*
X0010487Y0217569D01*
X0010487Y0217569D02*
X0009362Y0217569D01*
X0009362Y0217569D02*
X0008987Y0217381D01*
X0008987Y0217381D02*
X0008800Y0217194D01*
X0008800Y0217194D02*
X0008612Y0216819D01*
X0008612Y0216819D02*
X0008612Y0216256D01*
X0008612Y0219256D02*
X0011237Y0219256D01*
X0012549Y0219256D02*
X0012362Y0219069D01*
X0012362Y0219069D02*
X0012174Y0219256D01*
X0012174Y0219256D02*
X0012362Y0219444D01*
X0012362Y0219444D02*
X0012549Y0219256D01*
X0012549Y0219256D02*
X0012174Y0219256D01*
X0008612Y0221693D02*
X0008800Y0221318D01*
X0008800Y0221318D02*
X0009175Y0221131D01*
X0009175Y0221131D02*
X0012549Y0221131D01*
X0008800Y0223006D02*
X0008612Y0223381D01*
X0008612Y0223381D02*
X0008612Y0224130D01*
X0008612Y0224130D02*
X0008800Y0224505D01*
X0008800Y0224505D02*
X0009175Y0224693D01*
X0009175Y0224693D02*
X0009362Y0224693D01*
X0009362Y0224693D02*
X0009737Y0224505D01*
X0009737Y0224505D02*
X0009925Y0224130D01*
X0009925Y0224130D02*
X0009925Y0223568D01*
X0009925Y0223568D02*
X0010112Y0223193D01*
X0010112Y0223193D02*
X0010487Y0223006D01*
X0010487Y0223006D02*
X0010675Y0223006D01*
X0010675Y0223006D02*
X0011049Y0223193D01*
X0011049Y0223193D02*
X0011237Y0223568D01*
X0011237Y0223568D02*
X0011237Y0224130D01*
X0011237Y0224130D02*
X0011049Y0224505D01*
X0008612Y0229380D02*
X0011237Y0229380D01*
X0010487Y0229380D02*
X0010862Y0229567D01*
X0010862Y0229567D02*
X0011049Y0229755D01*
X0011049Y0229755D02*
X0011237Y0230130D01*
X0011237Y0230130D02*
X0011237Y0230505D01*
X0008800Y0233317D02*
X0008612Y0232942D01*
X0008612Y0232942D02*
X0008612Y0232192D01*
X0008612Y0232192D02*
X0008800Y0231817D01*
X0008800Y0231817D02*
X0009175Y0231629D01*
X0009175Y0231629D02*
X0010675Y0231629D01*
X0010675Y0231629D02*
X0011049Y0231817D01*
X0011049Y0231817D02*
X0011237Y0232192D01*
X0011237Y0232192D02*
X0011237Y0232942D01*
X0011237Y0232942D02*
X0011049Y0233317D01*
X0011049Y0233317D02*
X0010675Y0233504D01*
X0010675Y0233504D02*
X0010300Y0233504D01*
X0010300Y0233504D02*
X0009925Y0231629D01*
X0008612Y0235192D02*
X0011237Y0235192D01*
X0010862Y0235192D02*
X0011049Y0235379D01*
X0011049Y0235379D02*
X0011237Y0235754D01*
X0011237Y0235754D02*
X0011237Y0236316D01*
X0011237Y0236316D02*
X0011049Y0236691D01*
X0011049Y0236691D02*
X0010675Y0236879D01*
X0010675Y0236879D02*
X0008612Y0236879D01*
X0010675Y0236879D02*
X0011049Y0237066D01*
X0011049Y0237066D02*
X0011237Y0237441D01*
X0011237Y0237441D02*
X0011237Y0238004D01*
X0011237Y0238004D02*
X0011049Y0238379D01*
X0011049Y0238379D02*
X0010675Y0238566D01*
X0010675Y0238566D02*
X0008612Y0238566D01*
X0008612Y0241003D02*
X0008800Y0240628D01*
X0008800Y0240628D02*
X0008987Y0240441D01*
X0008987Y0240441D02*
X0009362Y0240253D01*
X0009362Y0240253D02*
X0010487Y0240253D01*
X0010487Y0240253D02*
X0010862Y0240441D01*
X0010862Y0240441D02*
X0011049Y0240628D01*
X0011049Y0240628D02*
X0011237Y0241003D01*
X0011237Y0241003D02*
X0011237Y0241566D01*
X0011237Y0241566D02*
X0011049Y0241941D01*
X0011049Y0241941D02*
X0010862Y0242128D01*
X0010862Y0242128D02*
X0010487Y0242316D01*
X0010487Y0242316D02*
X0009362Y0242316D01*
X0009362Y0242316D02*
X0008987Y0242128D01*
X0008987Y0242128D02*
X0008800Y0241941D01*
X0008800Y0241941D02*
X0008612Y0241566D01*
X0008612Y0241566D02*
X0008612Y0241003D01*
X0011237Y0243628D02*
X0008612Y0244565D01*
X0008612Y0244565D02*
X0011237Y0245503D01*
X0008800Y0248502D02*
X0008612Y0248127D01*
X0008612Y0248127D02*
X0008612Y0247378D01*
X0008612Y0247378D02*
X0008800Y0247003D01*
X0008800Y0247003D02*
X0009175Y0246815D01*
X0009175Y0246815D02*
X0010675Y0246815D01*
X0010675Y0246815D02*
X0011049Y0247003D01*
X0011049Y0247003D02*
X0011237Y0247378D01*
X0011237Y0247378D02*
X0011237Y0248127D01*
X0011237Y0248127D02*
X0011049Y0248502D01*
X0011049Y0248502D02*
X0010675Y0248690D01*
X0010675Y0248690D02*
X0010300Y0248690D01*
X0010300Y0248690D02*
X0009925Y0246815D01*
X0008612Y0255626D02*
X0010487Y0254314D01*
X0008612Y0253377D02*
X0012549Y0253377D01*
X0012549Y0253377D02*
X0012549Y0254877D01*
X0012549Y0254877D02*
X0012362Y0255252D01*
X0012362Y0255252D02*
X0012174Y0255439D01*
X0012174Y0255439D02*
X0011799Y0255626D01*
X0011799Y0255626D02*
X0011237Y0255626D01*
X0011237Y0255626D02*
X0010862Y0255439D01*
X0010862Y0255439D02*
X0010675Y0255252D01*
X0010675Y0255252D02*
X0010487Y0254877D01*
X0010487Y0254877D02*
X0010487Y0253377D01*
X0012174Y0257126D02*
X0012362Y0257314D01*
X0012362Y0257314D02*
X0012549Y0257689D01*
X0012549Y0257689D02*
X0012549Y0258626D01*
X0012549Y0258626D02*
X0012362Y0259001D01*
X0012362Y0259001D02*
X0012174Y0259189D01*
X0012174Y0259189D02*
X0011799Y0259376D01*
X0011799Y0259376D02*
X0011424Y0259376D01*
X0011424Y0259376D02*
X0010862Y0259189D01*
X0010862Y0259189D02*
X0008612Y0256939D01*
X0008612Y0256939D02*
X0008612Y0259376D01*
X0012549Y0261813D02*
X0012549Y0262188D01*
X0012549Y0262188D02*
X0012362Y0262563D01*
X0012362Y0262563D02*
X0012174Y0262751D01*
X0012174Y0262751D02*
X0011799Y0262938D01*
X0011799Y0262938D02*
X0011049Y0263126D01*
X0011049Y0263126D02*
X0010112Y0263126D01*
X0010112Y0263126D02*
X0009362Y0262938D01*
X0009362Y0262938D02*
X0008987Y0262751D01*
X0008987Y0262751D02*
X0008800Y0262563D01*
X0008800Y0262563D02*
X0008612Y0262188D01*
X0008612Y0262188D02*
X0008612Y0261813D01*
X0008612Y0261813D02*
X0008800Y0261438D01*
X0008800Y0261438D02*
X0008987Y0261251D01*
X0008987Y0261251D02*
X0009362Y0261063D01*
X0009362Y0261063D02*
X0010112Y0260876D01*
X0010112Y0260876D02*
X0011049Y0260876D01*
X0011049Y0260876D02*
X0011799Y0261063D01*
X0011799Y0261063D02*
X0012174Y0261251D01*
X0012174Y0261251D02*
X0012362Y0261438D01*
X0012362Y0261438D02*
X0012549Y0261813D01*
X0010112Y0264813D02*
X0010112Y0267812D01*
X0008612Y0271937D02*
X0010487Y0270625D01*
X0008612Y0269687D02*
X0012549Y0269687D01*
X0012549Y0269687D02*
X0012549Y0271187D01*
X0012549Y0271187D02*
X0012362Y0271562D01*
X0012362Y0271562D02*
X0012174Y0271749D01*
X0012174Y0271749D02*
X0011799Y0271937D01*
X0011799Y0271937D02*
X0011237Y0271937D01*
X0011237Y0271937D02*
X0010862Y0271749D01*
X0010862Y0271749D02*
X0010675Y0271562D01*
X0010675Y0271562D02*
X0010487Y0271187D01*
X0010487Y0271187D02*
X0010487Y0269687D01*
X0012174Y0273437D02*
X0012362Y0273624D01*
X0012362Y0273624D02*
X0012549Y0273999D01*
X0012549Y0273999D02*
X0012549Y0274937D01*
X0012549Y0274937D02*
X0012362Y0275312D01*
X0012362Y0275312D02*
X0012174Y0275499D01*
X0012174Y0275499D02*
X0011799Y0275686D01*
X0011799Y0275686D02*
X0011424Y0275686D01*
X0011424Y0275686D02*
X0010862Y0275499D01*
X0010862Y0275499D02*
X0008612Y0273249D01*
X0008612Y0273249D02*
X0008612Y0275686D01*
X0012174Y0277186D02*
X0012362Y0277374D01*
X0012362Y0277374D02*
X0012549Y0277749D01*
X0012549Y0277749D02*
X0012549Y0278686D01*
X0012549Y0278686D02*
X0012362Y0279061D01*
X0012362Y0279061D02*
X0012174Y0279249D01*
X0012174Y0279249D02*
X0011799Y0279436D01*
X0011799Y0279436D02*
X0011424Y0279436D01*
X0011424Y0279436D02*
X0010862Y0279249D01*
X0010862Y0279249D02*
X0008612Y0276999D01*
X0008612Y0276999D02*
X0008612Y0279436D01*
X0008800Y0281311D02*
X0008612Y0281311D01*
X0008612Y0281311D02*
X0008237Y0281123D01*
X0008237Y0281123D02*
X0008050Y0280936D01*
X0002274Y0163013D02*
X0004149Y0161701D01*
X0002274Y0160763D02*
X0006211Y0160763D01*
X0006211Y0160763D02*
X0006211Y0162263D01*
X0006211Y0162263D02*
X0006023Y0162638D01*
X0006023Y0162638D02*
X0005836Y0162826D01*
X0005836Y0162826D02*
X0005461Y0163013D01*
X0005461Y0163013D02*
X0004899Y0163013D01*
X0004899Y0163013D02*
X0004524Y0162826D01*
X0004524Y0162826D02*
X0004336Y0162638D01*
X0004336Y0162638D02*
X0004149Y0162263D01*
X0004149Y0162263D02*
X0004149Y0160763D01*
X0005836Y0164513D02*
X0006023Y0164700D01*
X0006023Y0164700D02*
X0006211Y0165075D01*
X0006211Y0165075D02*
X0006211Y0166013D01*
X0006211Y0166013D02*
X0006023Y0166388D01*
X0006023Y0166388D02*
X0005836Y0166575D01*
X0005836Y0166575D02*
X0005461Y0166763D01*
X0005461Y0166763D02*
X0005086Y0166763D01*
X0005086Y0166763D02*
X0004524Y0166575D01*
X0004524Y0166575D02*
X0002274Y0164325D01*
X0002274Y0164325D02*
X0002274Y0166763D01*
X0006211Y0170137D02*
X0006211Y0169387D01*
X0006211Y0169387D02*
X0006023Y0169012D01*
X0006023Y0169012D02*
X0005836Y0168825D01*
X0005836Y0168825D02*
X0005274Y0168450D01*
X0005274Y0168450D02*
X0004524Y0168262D01*
X0004524Y0168262D02*
X0003024Y0168262D01*
X0003024Y0168262D02*
X0002649Y0168450D01*
X0002649Y0168450D02*
X0002461Y0168637D01*
X0002461Y0168637D02*
X0002274Y0169012D01*
X0002274Y0169012D02*
X0002274Y0169762D01*
X0002274Y0169762D02*
X0002461Y0170137D01*
X0002461Y0170137D02*
X0002649Y0170325D01*
X0002649Y0170325D02*
X0003024Y0170512D01*
X0003024Y0170512D02*
X0003961Y0170512D01*
X0003961Y0170512D02*
X0004336Y0170325D01*
X0004336Y0170325D02*
X0004524Y0170137D01*
X0004524Y0170137D02*
X0004711Y0169762D01*
X0004711Y0169762D02*
X0004711Y0169012D01*
X0004711Y0169012D02*
X0004524Y0168637D01*
X0004524Y0168637D02*
X0004336Y0168450D01*
X0004336Y0168450D02*
X0003961Y0168262D01*
X0003774Y0172199D02*
X0003774Y0175199D01*
X0002274Y0179324D02*
X0004149Y0178011D01*
X0002274Y0177074D02*
X0006211Y0177074D01*
X0006211Y0177074D02*
X0006211Y0178574D01*
X0006211Y0178574D02*
X0006023Y0178949D01*
X0006023Y0178949D02*
X0005836Y0179136D01*
X0005836Y0179136D02*
X0005461Y0179324D01*
X0005461Y0179324D02*
X0004899Y0179324D01*
X0004899Y0179324D02*
X0004524Y0179136D01*
X0004524Y0179136D02*
X0004336Y0178949D01*
X0004336Y0178949D02*
X0004149Y0178574D01*
X0004149Y0178574D02*
X0004149Y0177074D01*
X0005836Y0180823D02*
X0006023Y0181011D01*
X0006023Y0181011D02*
X0006211Y0181386D01*
X0006211Y0181386D02*
X0006211Y0182323D01*
X0006211Y0182323D02*
X0006023Y0182698D01*
X0006023Y0182698D02*
X0005836Y0182886D01*
X0005836Y0182886D02*
X0005461Y0183073D01*
X0005461Y0183073D02*
X0005086Y0183073D01*
X0005086Y0183073D02*
X0004524Y0182886D01*
X0004524Y0182886D02*
X0002274Y0180636D01*
X0002274Y0180636D02*
X0002274Y0183073D01*
X0004524Y0185323D02*
X0004711Y0184948D01*
X0004711Y0184948D02*
X0004899Y0184760D01*
X0004899Y0184760D02*
X0005274Y0184573D01*
X0005274Y0184573D02*
X0005461Y0184573D01*
X0005461Y0184573D02*
X0005836Y0184760D01*
X0005836Y0184760D02*
X0006023Y0184948D01*
X0006023Y0184948D02*
X0006211Y0185323D01*
X0006211Y0185323D02*
X0006211Y0186073D01*
X0006211Y0186073D02*
X0006023Y0186448D01*
X0006023Y0186448D02*
X0005836Y0186635D01*
X0005836Y0186635D02*
X0005461Y0186823D01*
X0005461Y0186823D02*
X0005274Y0186823D01*
X0005274Y0186823D02*
X0004899Y0186635D01*
X0004899Y0186635D02*
X0004711Y0186448D01*
X0004711Y0186448D02*
X0004524Y0186073D01*
X0004524Y0186073D02*
X0004524Y0185323D01*
X0004524Y0185323D02*
X0004336Y0184948D01*
X0004336Y0184948D02*
X0004149Y0184760D01*
X0004149Y0184760D02*
X0003774Y0184573D01*
X0003774Y0184573D02*
X0003024Y0184573D01*
X0003024Y0184573D02*
X0002649Y0184760D01*
X0002649Y0184760D02*
X0002461Y0184948D01*
X0002461Y0184948D02*
X0002274Y0185323D01*
X0002274Y0185323D02*
X0002274Y0186073D01*
X0002274Y0186073D02*
X0002461Y0186448D01*
X0002461Y0186448D02*
X0002649Y0186635D01*
X0002649Y0186635D02*
X0003024Y0186823D01*
X0003024Y0186823D02*
X0003774Y0186823D01*
X0003774Y0186823D02*
X0004149Y0186635D01*
X0004149Y0186635D02*
X0004336Y0186448D01*
X0004336Y0186448D02*
X0004524Y0186073D01*
X0002274Y0193197D02*
X0004336Y0193197D01*
X0004336Y0193197D02*
X0004711Y0193009D01*
X0004711Y0193009D02*
X0004899Y0192634D01*
X0004899Y0192634D02*
X0004899Y0191884D01*
X0004899Y0191884D02*
X0004711Y0191509D01*
X0002461Y0193197D02*
X0002274Y0192822D01*
X0002274Y0192822D02*
X0002274Y0191884D01*
X0002274Y0191884D02*
X0002461Y0191509D01*
X0002461Y0191509D02*
X0002836Y0191322D01*
X0002836Y0191322D02*
X0003211Y0191322D01*
X0003211Y0191322D02*
X0003586Y0191509D01*
X0003586Y0191509D02*
X0003774Y0191884D01*
X0003774Y0191884D02*
X0003774Y0192822D01*
X0003774Y0192822D02*
X0003961Y0193197D01*
X0004899Y0195072D02*
X0002274Y0195072D01*
X0004524Y0195072D02*
X0004711Y0195259D01*
X0004711Y0195259D02*
X0004899Y0195634D01*
X0004899Y0195634D02*
X0004899Y0196196D01*
X0004899Y0196196D02*
X0004711Y0196571D01*
X0004711Y0196571D02*
X0004336Y0196759D01*
X0004336Y0196759D02*
X0002274Y0196759D01*
X0002274Y0200321D02*
X0006211Y0200321D01*
X0002461Y0200321D02*
X0002274Y0199946D01*
X0002274Y0199946D02*
X0002274Y0199196D01*
X0002274Y0199196D02*
X0002461Y0198821D01*
X0002461Y0198821D02*
X0002649Y0198634D01*
X0002649Y0198634D02*
X0003024Y0198446D01*
X0003024Y0198446D02*
X0004149Y0198446D01*
X0004149Y0198446D02*
X0004524Y0198634D01*
X0004524Y0198634D02*
X0004711Y0198821D01*
X0004711Y0198821D02*
X0004899Y0199196D01*
X0004899Y0199196D02*
X0004899Y0199946D01*
X0004899Y0199946D02*
X0004711Y0200321D01*
X0004899Y0205195D02*
X0000962Y0205195D01*
X0004711Y0205195D02*
X0004899Y0205570D01*
X0004899Y0205570D02*
X0004899Y0206320D01*
X0004899Y0206320D02*
X0004711Y0206695D01*
X0004711Y0206695D02*
X0004524Y0206883D01*
X0004524Y0206883D02*
X0004149Y0207070D01*
X0004149Y0207070D02*
X0003024Y0207070D01*
X0003024Y0207070D02*
X0002649Y0206883D01*
X0002649Y0206883D02*
X0002461Y0206695D01*
X0002461Y0206695D02*
X0002274Y0206320D01*
X0002274Y0206320D02*
X0002274Y0205570D01*
X0002274Y0205570D02*
X0002461Y0205195D01*
X0002274Y0209320D02*
X0002461Y0208945D01*
X0002461Y0208945D02*
X0002649Y0208757D01*
X0002649Y0208757D02*
X0003024Y0208570D01*
X0003024Y0208570D02*
X0004149Y0208570D01*
X0004149Y0208570D02*
X0004524Y0208757D01*
X0004524Y0208757D02*
X0004711Y0208945D01*
X0004711Y0208945D02*
X0004899Y0209320D01*
X0004899Y0209320D02*
X0004899Y0209882D01*
X0004899Y0209882D02*
X0004711Y0210257D01*
X0004711Y0210257D02*
X0004524Y0210445D01*
X0004524Y0210445D02*
X0004149Y0210632D01*
X0004149Y0210632D02*
X0003024Y0210632D01*
X0003024Y0210632D02*
X0002649Y0210445D01*
X0002649Y0210445D02*
X0002461Y0210257D01*
X0002461Y0210257D02*
X0002274Y0209882D01*
X0002274Y0209882D02*
X0002274Y0209320D01*
X0004899Y0212319D02*
X0000962Y0212319D01*
X0004711Y0212319D02*
X0004899Y0212694D01*
X0004899Y0212694D02*
X0004899Y0213444D01*
X0004899Y0213444D02*
X0004711Y0213819D01*
X0004711Y0213819D02*
X0004524Y0214007D01*
X0004524Y0214007D02*
X0004149Y0214194D01*
X0004149Y0214194D02*
X0003024Y0214194D01*
X0003024Y0214194D02*
X0002649Y0214007D01*
X0002649Y0214007D02*
X0002461Y0213819D01*
X0002461Y0213819D02*
X0002274Y0213444D01*
X0002274Y0213444D02*
X0002274Y0212694D01*
X0002274Y0212694D02*
X0002461Y0212319D01*
X0004899Y0217569D02*
X0002274Y0217569D01*
X0004899Y0215881D02*
X0002836Y0215881D01*
X0002836Y0215881D02*
X0002461Y0216069D01*
X0002461Y0216069D02*
X0002274Y0216444D01*
X0002274Y0216444D02*
X0002274Y0217006D01*
X0002274Y0217006D02*
X0002461Y0217381D01*
X0002461Y0217381D02*
X0002649Y0217569D01*
X0002274Y0220006D02*
X0002461Y0219631D01*
X0002461Y0219631D02*
X0002836Y0219443D01*
X0002836Y0219443D02*
X0006211Y0219443D01*
X0002274Y0223193D02*
X0004336Y0223193D01*
X0004336Y0223193D02*
X0004711Y0223006D01*
X0004711Y0223006D02*
X0004899Y0222631D01*
X0004899Y0222631D02*
X0004899Y0221881D01*
X0004899Y0221881D02*
X0004711Y0221506D01*
X0002461Y0223193D02*
X0002274Y0222818D01*
X0002274Y0222818D02*
X0002274Y0221881D01*
X0002274Y0221881D02*
X0002461Y0221506D01*
X0002461Y0221506D02*
X0002836Y0221318D01*
X0002836Y0221318D02*
X0003211Y0221318D01*
X0003211Y0221318D02*
X0003586Y0221506D01*
X0003586Y0221506D02*
X0003774Y0221881D01*
X0003774Y0221881D02*
X0003774Y0222818D01*
X0003774Y0222818D02*
X0003961Y0223193D01*
X0004899Y0224505D02*
X0004899Y0226005D01*
X0006211Y0225068D02*
X0002836Y0225068D01*
X0002836Y0225068D02*
X0002461Y0225255D01*
X0002461Y0225255D02*
X0002274Y0225630D01*
X0002274Y0225630D02*
X0002274Y0226005D01*
X0002461Y0228817D02*
X0002274Y0228442D01*
X0002274Y0228442D02*
X0002274Y0227692D01*
X0002274Y0227692D02*
X0002461Y0227318D01*
X0002461Y0227318D02*
X0002836Y0227130D01*
X0002836Y0227130D02*
X0004336Y0227130D01*
X0004336Y0227130D02*
X0004711Y0227318D01*
X0004711Y0227318D02*
X0004899Y0227692D01*
X0004899Y0227692D02*
X0004899Y0228442D01*
X0004899Y0228442D02*
X0004711Y0228817D01*
X0004711Y0228817D02*
X0004336Y0229005D01*
X0004336Y0229005D02*
X0003961Y0229005D01*
X0003961Y0229005D02*
X0003586Y0227130D01*
X0001899Y0236316D02*
X0002086Y0235941D01*
X0002086Y0235941D02*
X0002461Y0235566D01*
X0002461Y0235566D02*
X0003024Y0235004D01*
X0003024Y0235004D02*
X0003211Y0234629D01*
X0003211Y0234629D02*
X0003211Y0234254D01*
X0002274Y0234442D02*
X0002461Y0234067D01*
X0002461Y0234067D02*
X0002836Y0233692D01*
X0002836Y0233692D02*
X0003586Y0233504D01*
X0003586Y0233504D02*
X0004899Y0233504D01*
X0004899Y0233504D02*
X0005649Y0233692D01*
X0005649Y0233692D02*
X0006023Y0234067D01*
X0006023Y0234067D02*
X0006211Y0234442D01*
X0006211Y0234442D02*
X0006211Y0235192D01*
X0006211Y0235192D02*
X0006023Y0235566D01*
X0006023Y0235566D02*
X0005649Y0235941D01*
X0005649Y0235941D02*
X0004899Y0236129D01*
X0004899Y0236129D02*
X0003586Y0236129D01*
X0003586Y0236129D02*
X0002836Y0235941D01*
X0002836Y0235941D02*
X0002461Y0235566D01*
X0002461Y0235566D02*
X0002274Y0235192D01*
X0002274Y0235192D02*
X0002274Y0234442D01*
X0006211Y0237441D02*
X0006211Y0240066D01*
X0006211Y0240066D02*
X0002274Y0238379D01*
X0003774Y0241566D02*
X0003774Y0244565D01*
X0001899Y0249065D02*
X0002086Y0248690D01*
X0002086Y0248690D02*
X0002461Y0248315D01*
X0002461Y0248315D02*
X0003024Y0247752D01*
X0003024Y0247752D02*
X0003211Y0247378D01*
X0003211Y0247378D02*
X0003211Y0247003D01*
X0002274Y0247190D02*
X0002461Y0246815D01*
X0002461Y0246815D02*
X0002836Y0246440D01*
X0002836Y0246440D02*
X0003586Y0246253D01*
X0003586Y0246253D02*
X0004899Y0246253D01*
X0004899Y0246253D02*
X0005649Y0246440D01*
X0005649Y0246440D02*
X0006023Y0246815D01*
X0006023Y0246815D02*
X0006211Y0247190D01*
X0006211Y0247190D02*
X0006211Y0247940D01*
X0006211Y0247940D02*
X0006023Y0248315D01*
X0006023Y0248315D02*
X0005649Y0248690D01*
X0005649Y0248690D02*
X0004899Y0248877D01*
X0004899Y0248877D02*
X0003586Y0248877D01*
X0003586Y0248877D02*
X0002836Y0248690D01*
X0002836Y0248690D02*
X0002461Y0248315D01*
X0002461Y0248315D02*
X0002274Y0247940D01*
X0002274Y0247940D02*
X0002274Y0247190D01*
X0002274Y0252627D02*
X0002274Y0250377D01*
X0002274Y0251502D02*
X0006211Y0251502D01*
X0006211Y0251502D02*
X0005649Y0251127D01*
X0005649Y0251127D02*
X0005274Y0250752D01*
X0005274Y0250752D02*
X0005086Y0250377D01*
X0005836Y0254127D02*
X0006023Y0254314D01*
X0006023Y0254314D02*
X0006211Y0254689D01*
X0006211Y0254689D02*
X0006211Y0255626D01*
X0006211Y0255626D02*
X0006023Y0256001D01*
X0006023Y0256001D02*
X0005836Y0256189D01*
X0005836Y0256189D02*
X0005461Y0256376D01*
X0005461Y0256376D02*
X0005086Y0256376D01*
X0005086Y0256376D02*
X0004524Y0256189D01*
X0004524Y0256189D02*
X0002274Y0253939D01*
X0002274Y0253939D02*
X0002274Y0256376D01*
X0002274Y0261626D02*
X0002461Y0261251D01*
X0002461Y0261251D02*
X0002649Y0261063D01*
X0002649Y0261063D02*
X0003024Y0260876D01*
X0003024Y0260876D02*
X0004149Y0260876D01*
X0004149Y0260876D02*
X0004524Y0261063D01*
X0004524Y0261063D02*
X0004711Y0261251D01*
X0004711Y0261251D02*
X0004899Y0261626D01*
X0004899Y0261626D02*
X0004899Y0262188D01*
X0004899Y0262188D02*
X0004711Y0262563D01*
X0004711Y0262563D02*
X0004524Y0262751D01*
X0004524Y0262751D02*
X0004149Y0262938D01*
X0004149Y0262938D02*
X0003024Y0262938D01*
X0003024Y0262938D02*
X0002649Y0262751D01*
X0002649Y0262751D02*
X0002461Y0262563D01*
X0002461Y0262563D02*
X0002274Y0262188D01*
X0002274Y0262188D02*
X0002274Y0261626D01*
X0004899Y0264625D02*
X0002274Y0264625D01*
X0004524Y0264625D02*
X0004711Y0264813D01*
X0004711Y0264813D02*
X0004899Y0265188D01*
X0004899Y0265188D02*
X0004899Y0265750D01*
X0004899Y0265750D02*
X0004711Y0266125D01*
X0004711Y0266125D02*
X0004336Y0266313D01*
X0004336Y0266313D02*
X0002274Y0266313D01*
X0004899Y0272874D02*
X0002274Y0272874D01*
X0004899Y0271187D02*
X0002836Y0271187D01*
X0002836Y0271187D02*
X0002461Y0271375D01*
X0002461Y0271375D02*
X0002274Y0271749D01*
X0002274Y0271749D02*
X0002274Y0272312D01*
X0002274Y0272312D02*
X0002461Y0272687D01*
X0002461Y0272687D02*
X0002649Y0272874D01*
X0002274Y0276436D02*
X0004336Y0276436D01*
X0004336Y0276436D02*
X0004711Y0276249D01*
X0004711Y0276249D02*
X0004899Y0275874D01*
X0004899Y0275874D02*
X0004899Y0275124D01*
X0004899Y0275124D02*
X0004711Y0274749D01*
X0002461Y0276436D02*
X0002274Y0276061D01*
X0002274Y0276061D02*
X0002274Y0275124D01*
X0002274Y0275124D02*
X0002461Y0274749D01*
X0002461Y0274749D02*
X0002836Y0274562D01*
X0002836Y0274562D02*
X0003211Y0274562D01*
X0003211Y0274562D02*
X0003586Y0274749D01*
X0003586Y0274749D02*
X0003774Y0275124D01*
X0003774Y0275124D02*
X0003774Y0276061D01*
X0003774Y0276061D02*
X0003961Y0276436D01*
X0002461Y0279811D02*
X0002274Y0279436D01*
X0002274Y0279436D02*
X0002274Y0278686D01*
X0002274Y0278686D02*
X0002461Y0278311D01*
X0002461Y0278311D02*
X0002836Y0278124D01*
X0002836Y0278124D02*
X0004336Y0278124D01*
X0004336Y0278124D02*
X0004711Y0278311D01*
X0004711Y0278311D02*
X0004899Y0278686D01*
X0004899Y0278686D02*
X0004899Y0279436D01*
X0004899Y0279436D02*
X0004711Y0279811D01*
X0004711Y0279811D02*
X0004336Y0279998D01*
X0004336Y0279998D02*
X0003961Y0279998D01*
X0003961Y0279998D02*
X0003586Y0278124D01*
X0004899Y0281123D02*
X0004899Y0282623D01*
X0002274Y0281686D02*
X0005649Y0281686D01*
X0005649Y0281686D02*
X0006023Y0281873D01*
X0006023Y0281873D02*
X0006211Y0282248D01*
X0006211Y0282248D02*
X0006211Y0282623D01*
X0002274Y0283935D02*
X0004899Y0283935D01*
X0006211Y0283935D02*
X0006023Y0283748D01*
X0006023Y0283748D02*
X0005836Y0283935D01*
X0005836Y0283935D02*
X0006023Y0284123D01*
X0006023Y0284123D02*
X0006211Y0283935D01*
X0006211Y0283935D02*
X0005836Y0283935D01*
X0002274Y0288810D02*
X0006211Y0288810D01*
X0004711Y0288810D02*
X0004899Y0289185D01*
X0004899Y0289185D02*
X0004899Y0289935D01*
X0004899Y0289935D02*
X0004711Y0290310D01*
X0004711Y0290310D02*
X0004524Y0290497D01*
X0004524Y0290497D02*
X0004149Y0290685D01*
X0004149Y0290685D02*
X0003024Y0290685D01*
X0003024Y0290685D02*
X0002649Y0290497D01*
X0002649Y0290497D02*
X0002461Y0290310D01*
X0002461Y0290310D02*
X0002274Y0289935D01*
X0002274Y0289935D02*
X0002274Y0289185D01*
X0002274Y0289185D02*
X0002461Y0288810D01*
X0002274Y0292934D02*
X0002461Y0292559D01*
X0002461Y0292559D02*
X0002649Y0292372D01*
X0002649Y0292372D02*
X0003024Y0292184D01*
X0003024Y0292184D02*
X0004149Y0292184D01*
X0004149Y0292184D02*
X0004524Y0292372D01*
X0004524Y0292372D02*
X0004711Y0292559D01*
X0004711Y0292559D02*
X0004899Y0292934D01*
X0004899Y0292934D02*
X0004899Y0293497D01*
X0004899Y0293497D02*
X0004711Y0293872D01*
X0004711Y0293872D02*
X0004524Y0294059D01*
X0004524Y0294059D02*
X0004149Y0294247D01*
X0004149Y0294247D02*
X0003024Y0294247D01*
X0003024Y0294247D02*
X0002649Y0294059D01*
X0002649Y0294059D02*
X0002461Y0293872D01*
X0002461Y0293872D02*
X0002274Y0293497D01*
X0002274Y0293497D02*
X0002274Y0292934D01*
X0002274Y0297621D02*
X0004336Y0297621D01*
X0004336Y0297621D02*
X0004711Y0297434D01*
X0004711Y0297434D02*
X0004899Y0297059D01*
X0004899Y0297059D02*
X0004899Y0296309D01*
X0004899Y0296309D02*
X0004711Y0295934D01*
X0002461Y0297621D02*
X0002274Y0297246D01*
X0002274Y0297246D02*
X0002274Y0296309D01*
X0002274Y0296309D02*
X0002461Y0295934D01*
X0002461Y0295934D02*
X0002836Y0295746D01*
X0002836Y0295746D02*
X0003211Y0295746D01*
X0003211Y0295746D02*
X0003586Y0295934D01*
X0003586Y0295934D02*
X0003774Y0296309D01*
X0003774Y0296309D02*
X0003774Y0297246D01*
X0003774Y0297246D02*
X0003961Y0297621D01*
X0002274Y0299496D02*
X0004899Y0299496D01*
X0004149Y0299496D02*
X0004524Y0299683D01*
X0004524Y0299683D02*
X0004711Y0299871D01*
X0004711Y0299871D02*
X0004899Y0300246D01*
X0004899Y0300246D02*
X0004899Y0300621D01*
X0002274Y0303620D02*
X0006211Y0303620D01*
X0002461Y0303620D02*
X0002274Y0303246D01*
X0002274Y0303246D02*
X0002274Y0302496D01*
X0002274Y0302496D02*
X0002461Y0302121D01*
X0002461Y0302121D02*
X0002649Y0301933D01*
X0002649Y0301933D02*
X0003024Y0301746D01*
X0003024Y0301746D02*
X0004149Y0301746D01*
X0004149Y0301746D02*
X0004524Y0301933D01*
X0004524Y0301933D02*
X0004711Y0302121D01*
X0004711Y0302121D02*
X0004899Y0302496D01*
X0004899Y0302496D02*
X0004899Y0303246D01*
X0004899Y0303246D02*
X0004711Y0303620D01*
X0320246Y0361824D02*
X0323030Y0364608D01*
X0323030Y0364608D02*
X0321970Y0365669D01*
X0321970Y0365669D02*
X0321572Y0365801D01*
X0321572Y0365801D02*
X0321307Y0365801D01*
X0321307Y0365801D02*
X0320909Y0365669D01*
X0320909Y0365669D02*
X0320512Y0365271D01*
X0320512Y0365271D02*
X0320379Y0364873D01*
X0320379Y0364873D02*
X0320379Y0364608D01*
X0320379Y0364608D02*
X0320512Y0364211D01*
X0320512Y0364211D02*
X0321572Y0363150D01*
X0317462Y0364608D02*
X0320246Y0367392D01*
X0320246Y0367392D02*
X0319186Y0368453D01*
X0319186Y0368453D02*
X0318788Y0368585D01*
X0318788Y0368585D02*
X0318523Y0368585D01*
X0318523Y0368585D02*
X0318125Y0368453D01*
X0318125Y0368453D02*
X0317728Y0368055D01*
X0317728Y0368055D02*
X0317595Y0367657D01*
X0317595Y0367657D02*
X0317595Y0367392D01*
X0317595Y0367392D02*
X0317728Y0366994D01*
X0317728Y0366994D02*
X0318788Y0365934D01*
X0314944Y0367392D02*
X0314413Y0367657D01*
X0314413Y0367657D02*
X0313751Y0368320D01*
X0313751Y0368320D02*
X0313618Y0368718D01*
X0313618Y0368718D02*
X0313618Y0368983D01*
X0313618Y0368983D02*
X0313751Y0369381D01*
X0313751Y0369381D02*
X0314016Y0369646D01*
X0314016Y0369646D02*
X0314413Y0369778D01*
X0314413Y0369778D02*
X0314679Y0369778D01*
X0314679Y0369778D02*
X0315076Y0369646D01*
X0315076Y0369646D02*
X0315739Y0369248D01*
X0315739Y0369248D02*
X0316137Y0369115D01*
X0316137Y0369115D02*
X0316402Y0369115D01*
X0316402Y0369115D02*
X0316800Y0369248D01*
X0316800Y0369248D02*
X0317065Y0369513D01*
X0317065Y0369513D02*
X0317197Y0369911D01*
X0317197Y0369911D02*
X0317197Y0370176D01*
X0317197Y0370176D02*
X0317065Y0370574D01*
X0317065Y0370574D02*
X0316402Y0371237D01*
X0316402Y0371237D02*
X0315872Y0371502D01*
X0310569Y0371502D02*
X0312160Y0369911D01*
X0311364Y0370706D02*
X0314148Y0373490D01*
X0314148Y0373490D02*
X0314016Y0372827D01*
X0314016Y0372827D02*
X0314016Y0372297D01*
X0314016Y0372297D02*
X0314148Y0371899D01*
X0093439Y0326540D02*
X0091848Y0328131D01*
X0089860Y0324552D02*
X0092643Y0327335D01*
X0088136Y0326275D02*
X0090920Y0329059D01*
X0090920Y0329059D02*
X0089860Y0330119D01*
X0089860Y0330119D02*
X0089462Y0330252D01*
X0089462Y0330252D02*
X0089197Y0330252D01*
X0089197Y0330252D02*
X0088799Y0330119D01*
X0088799Y0330119D02*
X0088401Y0329722D01*
X0088401Y0329722D02*
X0088269Y0329324D01*
X0088269Y0329324D02*
X0088269Y0329059D01*
X0088269Y0329059D02*
X0088401Y0328661D01*
X0088401Y0328661D02*
X0089462Y0327601D01*
X0085617Y0329059D02*
X0085087Y0329324D01*
X0085087Y0329324D02*
X0084424Y0329987D01*
X0084424Y0329987D02*
X0084292Y0330385D01*
X0084292Y0330385D02*
X0084292Y0330650D01*
X0084292Y0330650D02*
X0084424Y0331047D01*
X0084424Y0331047D02*
X0084689Y0331312D01*
X0084689Y0331312D02*
X0085087Y0331445D01*
X0085087Y0331445D02*
X0085352Y0331445D01*
X0085352Y0331445D02*
X0085750Y0331312D01*
X0085750Y0331312D02*
X0086413Y0330915D01*
X0086413Y0330915D02*
X0086811Y0330782D01*
X0086811Y0330782D02*
X0087076Y0330782D01*
X0087076Y0330782D02*
X0087473Y0330915D01*
X0087473Y0330915D02*
X0087738Y0331180D01*
X0087738Y0331180D02*
X0087871Y0331578D01*
X0087871Y0331578D02*
X0087871Y0331843D01*
X0087871Y0331843D02*
X0087738Y0332240D01*
X0087738Y0332240D02*
X0087076Y0332903D01*
X0087076Y0332903D02*
X0086545Y0333168D01*
X0085352Y0334096D02*
X0085352Y0334361D01*
X0085352Y0334361D02*
X0085220Y0334759D01*
X0085220Y0334759D02*
X0084557Y0335422D01*
X0084557Y0335422D02*
X0084159Y0335555D01*
X0084159Y0335555D02*
X0083894Y0335555D01*
X0083894Y0335555D02*
X0083496Y0335422D01*
X0083496Y0335422D02*
X0083231Y0335157D01*
X0083231Y0335157D02*
X0082966Y0334627D01*
X0082966Y0334627D02*
X0082966Y0331445D01*
X0082966Y0331445D02*
X0081243Y0333168D01*
X0061943Y0124965D02*
X0058231Y0123109D01*
X0058231Y0123109D02*
X0060087Y0126821D01*
X0056375Y0124965D02*
X0059159Y0127749D01*
X0056242Y0130400D02*
X0056640Y0130268D01*
X0056640Y0130268D02*
X0057038Y0129870D01*
X0057038Y0129870D02*
X0057303Y0129340D01*
X0057303Y0129340D02*
X0057303Y0128810D01*
X0057303Y0128810D02*
X0057170Y0128412D01*
X0057170Y0128412D02*
X0056773Y0127749D01*
X0056773Y0127749D02*
X0056375Y0127351D01*
X0056375Y0127351D02*
X0055712Y0126954D01*
X0055712Y0126954D02*
X0055314Y0126821D01*
X0055314Y0126821D02*
X0054784Y0126821D01*
X0054784Y0126821D02*
X0054254Y0127086D01*
X0054254Y0127086D02*
X0053989Y0127351D01*
X0053989Y0127351D02*
X0053724Y0127882D01*
X0053724Y0127882D02*
X0053724Y0128147D01*
X0053724Y0128147D02*
X0054652Y0129075D01*
X0054652Y0129075D02*
X0055182Y0128545D01*
X0052265Y0129075D02*
X0055049Y0131859D01*
X0055049Y0131859D02*
X0050675Y0130666D01*
X0050675Y0130666D02*
X0053459Y0133450D01*
X0063879Y0245807D02*
X0066663Y0248591D01*
X0063747Y0251243D02*
X0064144Y0251110D01*
X0064144Y0251110D02*
X0064542Y0250712D01*
X0064542Y0250712D02*
X0064807Y0250182D01*
X0064807Y0250182D02*
X0064807Y0249652D01*
X0064807Y0249652D02*
X0064675Y0249254D01*
X0064675Y0249254D02*
X0064277Y0248591D01*
X0064277Y0248591D02*
X0063879Y0248194D01*
X0063879Y0248194D02*
X0063216Y0247796D01*
X0063216Y0247796D02*
X0062819Y0247663D01*
X0062819Y0247663D02*
X0062288Y0247663D01*
X0062288Y0247663D02*
X0061758Y0247928D01*
X0061758Y0247928D02*
X0061493Y0248194D01*
X0061493Y0248194D02*
X0061228Y0248724D01*
X0061228Y0248724D02*
X0061228Y0248989D01*
X0061228Y0248989D02*
X0062156Y0249917D01*
X0062156Y0249917D02*
X0062686Y0249387D01*
X0059770Y0249917D02*
X0062554Y0252701D01*
X0062554Y0252701D02*
X0058179Y0251508D01*
X0058179Y0251508D02*
X0060963Y0254292D01*
X0055395Y0254292D02*
X0056986Y0252701D01*
X0056190Y0253496D02*
X0058974Y0256280D01*
X0058974Y0256280D02*
X0058842Y0255617D01*
X0058842Y0255617D02*
X0058842Y0255087D01*
X0058842Y0255087D02*
X0058974Y0254689D01*
X0028097Y0258052D02*
X0030881Y0260836D01*
X0026771Y0259378D02*
X0029555Y0262162D01*
X0029555Y0262162D02*
X0025181Y0260969D01*
X0025181Y0260969D02*
X0027965Y0263752D01*
X0025844Y0265874D02*
X0023855Y0263885D01*
X0023855Y0263885D02*
X0023590Y0263355D01*
X0023590Y0263355D02*
X0023590Y0262824D01*
X0023590Y0262824D02*
X0023855Y0262294D01*
X0023855Y0262294D02*
X0024120Y0262029D01*
X0020276Y0265874D02*
X0021867Y0264283D01*
X0021071Y0265078D02*
X0023855Y0267862D01*
X0023855Y0267862D02*
X0023722Y0267199D01*
X0023722Y0267199D02*
X0023722Y0266669D01*
X0023722Y0266669D02*
X0023855Y0266271D01*
X0030748Y0137775D02*
X0031146Y0137643D01*
X0031146Y0137643D02*
X0031544Y0137245D01*
X0031544Y0137245D02*
X0031809Y0136715D01*
X0031809Y0136715D02*
X0031809Y0136184D01*
X0031809Y0136184D02*
X0031676Y0135787D01*
X0031676Y0135787D02*
X0031279Y0135124D01*
X0031279Y0135124D02*
X0030881Y0134726D01*
X0030881Y0134726D02*
X0030218Y0134328D01*
X0030218Y0134328D02*
X0029820Y0134196D01*
X0029820Y0134196D02*
X0029290Y0134196D01*
X0029290Y0134196D02*
X0028760Y0134461D01*
X0028760Y0134461D02*
X0028495Y0134726D01*
X0028495Y0134726D02*
X0028230Y0135256D01*
X0028230Y0135256D02*
X0028230Y0135521D01*
X0028230Y0135521D02*
X0029158Y0136449D01*
X0029158Y0136449D02*
X0029688Y0135919D01*
X0026771Y0136449D02*
X0029555Y0139233D01*
X0029555Y0139233D02*
X0025181Y0138040D01*
X0025181Y0138040D02*
X0027965Y0140824D01*
X0023855Y0139366D02*
X0026639Y0142150D01*
X0026639Y0142150D02*
X0025976Y0142813D01*
X0025976Y0142813D02*
X0025446Y0143078D01*
X0025446Y0143078D02*
X0024915Y0143078D01*
X0024915Y0143078D02*
X0024518Y0142945D01*
X0024518Y0142945D02*
X0023855Y0142547D01*
X0023855Y0142547D02*
X0023457Y0142150D01*
X0023457Y0142150D02*
X0023060Y0141487D01*
X0023060Y0141487D02*
X0022927Y0141089D01*
X0022927Y0141089D02*
X0022927Y0140559D01*
X0022927Y0140559D02*
X0023192Y0140029D01*
X0023192Y0140029D02*
X0023855Y0139366D01*
X0287316Y0329248D02*
X0287714Y0329115D01*
X0287714Y0329115D02*
X0288112Y0328717D01*
X0288112Y0328717D02*
X0288377Y0328187D01*
X0288377Y0328187D02*
X0288377Y0327657D01*
X0288377Y0327657D02*
X0288244Y0327259D01*
X0288244Y0327259D02*
X0287847Y0326596D01*
X0287847Y0326596D02*
X0287449Y0326199D01*
X0287449Y0326199D02*
X0286786Y0325801D01*
X0286786Y0325801D02*
X0286388Y0325668D01*
X0286388Y0325668D02*
X0285858Y0325668D01*
X0285858Y0325668D02*
X0285328Y0325934D01*
X0285328Y0325934D02*
X0285063Y0326199D01*
X0285063Y0326199D02*
X0284798Y0326729D01*
X0284798Y0326729D02*
X0284798Y0326994D01*
X0284798Y0326994D02*
X0285726Y0327922D01*
X0285726Y0327922D02*
X0286256Y0327392D01*
X0283339Y0327922D02*
X0286123Y0330706D01*
X0286123Y0330706D02*
X0281749Y0329513D01*
X0281749Y0329513D02*
X0284533Y0332297D01*
X0280423Y0330838D02*
X0283207Y0333622D01*
X0283207Y0333622D02*
X0282544Y0334285D01*
X0282544Y0334285D02*
X0282014Y0334550D01*
X0282014Y0334550D02*
X0281484Y0334550D01*
X0281484Y0334550D02*
X0281086Y0334418D01*
X0281086Y0334418D02*
X0280423Y0334020D01*
X0280423Y0334020D02*
X0280025Y0333622D01*
X0280025Y0333622D02*
X0279628Y0332960D01*
X0279628Y0332960D02*
X0279495Y0332562D01*
X0279495Y0332562D02*
X0279495Y0332032D01*
X0279495Y0332032D02*
X0279760Y0331501D01*
X0279760Y0331501D02*
X0280423Y0330838D01*
X0278567Y0334285D02*
X0277241Y0335611D01*
X0278037Y0333225D02*
X0279893Y0336937D01*
X0279893Y0336937D02*
X0276181Y0335081D01*
X0321753Y0322579D02*
X0324537Y0325363D01*
X0320162Y0324170D02*
X0322946Y0324568D01*
X0322946Y0326954D02*
X0322946Y0323772D01*
X0318969Y0325363D02*
X0321753Y0328147D01*
X0321753Y0328147D02*
X0317379Y0326954D01*
X0317379Y0326954D02*
X0320162Y0329738D01*
X0318307Y0331594D02*
X0317776Y0332124D01*
X0317776Y0332124D02*
X0317379Y0332256D01*
X0317379Y0332256D02*
X0316848Y0332256D01*
X0316848Y0332256D02*
X0316186Y0331859D01*
X0316186Y0331859D02*
X0315258Y0330931D01*
X0315258Y0330931D02*
X0314860Y0330268D01*
X0314860Y0330268D02*
X0314860Y0329738D01*
X0314860Y0329738D02*
X0314992Y0329340D01*
X0314992Y0329340D02*
X0315523Y0328810D01*
X0315523Y0328810D02*
X0315920Y0328677D01*
X0315920Y0328677D02*
X0316451Y0328677D01*
X0316451Y0328677D02*
X0317113Y0329075D01*
X0317113Y0329075D02*
X0318041Y0330003D01*
X0318041Y0330003D02*
X0318439Y0330666D01*
X0318439Y0330666D02*
X0318439Y0331196D01*
X0318439Y0331196D02*
X0318307Y0331594D01*
X0311811Y0333052D02*
X0311811Y0332787D01*
X0311811Y0332787D02*
X0312076Y0332256D01*
X0312076Y0332256D02*
X0312341Y0331991D01*
X0312341Y0331991D02*
X0312871Y0331726D01*
X0312871Y0331726D02*
X0313402Y0331726D01*
X0313402Y0331726D02*
X0313799Y0331859D01*
X0313799Y0331859D02*
X0314462Y0332256D01*
X0314462Y0332256D02*
X0314860Y0332654D01*
X0314860Y0332654D02*
X0315258Y0333317D01*
X0315258Y0333317D02*
X0315390Y0333715D01*
X0315390Y0333715D02*
X0315390Y0334245D01*
X0315390Y0334245D02*
X0315125Y0334775D01*
X0315125Y0334775D02*
X0314860Y0335040D01*
X0314860Y0335040D02*
X0314330Y0335305D01*
X0314330Y0335305D02*
X0314064Y0335305D01*
X0310353Y0333980D02*
X0313136Y0336764D01*
X0308762Y0335571D02*
X0311546Y0335968D01*
X0311546Y0338354D02*
X0311546Y0335173D01*
X0066121Y0135254D02*
X0064000Y0137375D01*
X0064000Y0135254D02*
X0066121Y0137375D01*
X0060155Y0139098D02*
X0061746Y0137507D01*
X0060951Y0138303D02*
X0063735Y0141087D01*
X0063735Y0141087D02*
X0063602Y0140424D01*
X0063602Y0140424D02*
X0063602Y0139894D01*
X0063602Y0139894D02*
X0063735Y0139496D01*
X0061614Y0142677D02*
X0061614Y0142943D01*
X0061614Y0142943D02*
X0061481Y0143340D01*
X0061481Y0143340D02*
X0060818Y0144003D01*
X0060818Y0144003D02*
X0060421Y0144136D01*
X0060421Y0144136D02*
X0060155Y0144136D01*
X0060155Y0144136D02*
X0059758Y0144003D01*
X0059758Y0144003D02*
X0059493Y0143738D01*
X0059493Y0143738D02*
X0059227Y0143208D01*
X0059227Y0143208D02*
X0059227Y0140026D01*
X0059227Y0140026D02*
X0057504Y0141750D01*
X0059493Y0145329D02*
X0055781Y0143473D01*
X0055781Y0143473D02*
X0057637Y0147185D01*
X0075702Y0328263D02*
X0076100Y0328131D01*
X0076100Y0328131D02*
X0076498Y0327733D01*
X0076498Y0327733D02*
X0076763Y0327203D01*
X0076763Y0327203D02*
X0076763Y0326673D01*
X0076763Y0326673D02*
X0076630Y0326275D01*
X0076630Y0326275D02*
X0076233Y0325612D01*
X0076233Y0325612D02*
X0075835Y0325214D01*
X0075835Y0325214D02*
X0075172Y0324817D01*
X0075172Y0324817D02*
X0074774Y0324684D01*
X0074774Y0324684D02*
X0074244Y0324684D01*
X0074244Y0324684D02*
X0073714Y0324949D01*
X0073714Y0324949D02*
X0073449Y0325214D01*
X0073449Y0325214D02*
X0073184Y0325745D01*
X0073184Y0325745D02*
X0073184Y0326010D01*
X0073184Y0326010D02*
X0074111Y0326938D01*
X0074111Y0326938D02*
X0074642Y0326408D01*
X0071725Y0326938D02*
X0074509Y0329722D01*
X0074509Y0329722D02*
X0070135Y0328529D01*
X0070135Y0328529D02*
X0072918Y0331312D01*
X0068809Y0329854D02*
X0071593Y0332638D01*
X0071593Y0332638D02*
X0070930Y0333301D01*
X0070930Y0333301D02*
X0070400Y0333566D01*
X0070400Y0333566D02*
X0069869Y0333566D01*
X0069869Y0333566D02*
X0069472Y0333434D01*
X0069472Y0333434D02*
X0068809Y0333036D01*
X0068809Y0333036D02*
X0068411Y0332638D01*
X0068411Y0332638D02*
X0068013Y0331975D01*
X0068013Y0331975D02*
X0067881Y0331578D01*
X0067881Y0331578D02*
X0067881Y0331047D01*
X0067881Y0331047D02*
X0068146Y0330517D01*
X0068146Y0330517D02*
X0068809Y0329854D01*
X0066953Y0333301D02*
X0065627Y0334627D01*
X0066423Y0332240D02*
X0068279Y0335952D01*
X0068279Y0335952D02*
X0064567Y0334096D01*
X0063077Y0103216D02*
X0065861Y0106000D01*
X0065861Y0106000D02*
X0065198Y0106663D01*
X0065198Y0106663D02*
X0064668Y0106928D01*
X0064668Y0106928D02*
X0064138Y0106928D01*
X0064138Y0106928D02*
X0063740Y0106795D01*
X0063740Y0106795D02*
X0063077Y0106398D01*
X0063077Y0106398D02*
X0062679Y0106000D01*
X0062679Y0106000D02*
X0062282Y0105337D01*
X0062282Y0105337D02*
X0062149Y0104939D01*
X0062149Y0104939D02*
X0062149Y0104409D01*
X0062149Y0104409D02*
X0062414Y0103879D01*
X0062414Y0103879D02*
X0063077Y0103216D01*
X0058967Y0107856D02*
X0058967Y0107591D01*
X0058967Y0107591D02*
X0059233Y0107060D01*
X0059233Y0107060D02*
X0059498Y0106795D01*
X0059498Y0106795D02*
X0060028Y0106530D01*
X0060028Y0106530D02*
X0060558Y0106530D01*
X0060558Y0106530D02*
X0060956Y0106663D01*
X0060956Y0106663D02*
X0061619Y0107060D01*
X0061619Y0107060D02*
X0062016Y0107458D01*
X0062016Y0107458D02*
X0062414Y0108121D01*
X0062414Y0108121D02*
X0062547Y0108519D01*
X0062547Y0108519D02*
X0062547Y0109049D01*
X0062547Y0109049D02*
X0062282Y0109579D01*
X0062282Y0109579D02*
X0062016Y0109844D01*
X0062016Y0109844D02*
X0061486Y0110109D01*
X0061486Y0110109D02*
X0061221Y0110109D01*
X0060161Y0111170D02*
X0060161Y0111435D01*
X0060161Y0111435D02*
X0060028Y0111833D01*
X0060028Y0111833D02*
X0059365Y0112496D01*
X0059365Y0112496D02*
X0058967Y0112628D01*
X0058967Y0112628D02*
X0058702Y0112628D01*
X0058702Y0112628D02*
X0058305Y0112496D01*
X0058305Y0112496D02*
X0058039Y0112230D01*
X0058039Y0112230D02*
X0057774Y0111700D01*
X0057774Y0111700D02*
X0057774Y0108519D01*
X0057774Y0108519D02*
X0056051Y0110242D01*
X0055918Y0112496D02*
X0053797Y0114617D01*
X0053797Y0112496D02*
X0055918Y0114617D01*
X0351905Y0034431D02*
X0351905Y0031244D01*
X0351905Y0031244D02*
X0351717Y0030869D01*
X0351717Y0030869D02*
X0351530Y0030682D01*
X0351530Y0030682D02*
X0351155Y0030494D01*
X0351155Y0030494D02*
X0350405Y0030494D01*
X0350405Y0030494D02*
X0350030Y0030682D01*
X0350030Y0030682D02*
X0349842Y0030869D01*
X0349842Y0030869D02*
X0349655Y0031244D01*
X0349655Y0031244D02*
X0349655Y0034431D01*
X0347968Y0030682D02*
X0347405Y0030494D01*
X0347405Y0030494D02*
X0346468Y0030494D01*
X0346468Y0030494D02*
X0346093Y0030682D01*
X0346093Y0030682D02*
X0345905Y0030869D01*
X0345905Y0030869D02*
X0345718Y0031244D01*
X0345718Y0031244D02*
X0345718Y0031619D01*
X0345718Y0031619D02*
X0345905Y0031994D01*
X0345905Y0031994D02*
X0346093Y0032181D01*
X0346093Y0032181D02*
X0346468Y0032369D01*
X0346468Y0032369D02*
X0347218Y0032556D01*
X0347218Y0032556D02*
X0347593Y0032744D01*
X0347593Y0032744D02*
X0347780Y0032931D01*
X0347780Y0032931D02*
X0347968Y0033306D01*
X0347968Y0033306D02*
X0347968Y0033681D01*
X0347968Y0033681D02*
X0347780Y0034056D01*
X0347780Y0034056D02*
X0347593Y0034244D01*
X0347593Y0034244D02*
X0347218Y0034431D01*
X0347218Y0034431D02*
X0346280Y0034431D01*
X0346280Y0034431D02*
X0345718Y0034244D01*
X0342718Y0032556D02*
X0342156Y0032369D01*
X0342156Y0032369D02*
X0341968Y0032181D01*
X0341968Y0032181D02*
X0341781Y0031806D01*
X0341781Y0031806D02*
X0341781Y0031244D01*
X0341781Y0031244D02*
X0341968Y0030869D01*
X0341968Y0030869D02*
X0342156Y0030682D01*
X0342156Y0030682D02*
X0342531Y0030494D01*
X0342531Y0030494D02*
X0344031Y0030494D01*
X0344031Y0030494D02*
X0344031Y0034431D01*
X0344031Y0034431D02*
X0342718Y0034431D01*
X0342718Y0034431D02*
X0342343Y0034244D01*
X0342343Y0034244D02*
X0342156Y0034056D01*
X0342156Y0034056D02*
X0341968Y0033681D01*
X0341968Y0033681D02*
X0341968Y0033306D01*
X0341968Y0033306D02*
X0342156Y0032931D01*
X0342156Y0032931D02*
X0342343Y0032744D01*
X0342343Y0032744D02*
X0342718Y0032556D01*
X0342718Y0032556D02*
X0344031Y0032556D01*
X0340094Y0031994D02*
X0337094Y0031994D01*
X0338594Y0030494D02*
X0338594Y0033494D01*
X0348774Y0328963D02*
X0348774Y0328697D01*
X0348774Y0328697D02*
X0349039Y0328167D01*
X0349039Y0328167D02*
X0349304Y0327902D01*
X0349304Y0327902D02*
X0349835Y0327637D01*
X0349835Y0327637D02*
X0350365Y0327637D01*
X0350365Y0327637D02*
X0350763Y0327769D01*
X0350763Y0327769D02*
X0351425Y0328167D01*
X0351425Y0328167D02*
X0351823Y0328565D01*
X0351823Y0328565D02*
X0352221Y0329228D01*
X0352221Y0329228D02*
X0352353Y0329625D01*
X0352353Y0329625D02*
X0352353Y0330156D01*
X0352353Y0330156D02*
X0352088Y0330686D01*
X0352088Y0330686D02*
X0351823Y0330951D01*
X0351823Y0330951D02*
X0351293Y0331216D01*
X0351293Y0331216D02*
X0351028Y0331216D01*
X0345990Y0331216D02*
X0347316Y0329891D01*
X0347316Y0329891D02*
X0350100Y0332674D01*
X0348244Y0334530D02*
X0346653Y0336121D01*
X0344665Y0332542D02*
X0347448Y0335326D01*
X0063307Y0229072D02*
X0066091Y0231856D01*
X0063175Y0234508D02*
X0063572Y0234375D01*
X0063572Y0234375D02*
X0063970Y0233977D01*
X0063970Y0233977D02*
X0064235Y0233447D01*
X0064235Y0233447D02*
X0064235Y0232917D01*
X0064235Y0232917D02*
X0064103Y0232519D01*
X0064103Y0232519D02*
X0063705Y0231856D01*
X0063705Y0231856D02*
X0063307Y0231459D01*
X0063307Y0231459D02*
X0062644Y0231061D01*
X0062644Y0231061D02*
X0062247Y0230928D01*
X0062247Y0230928D02*
X0061716Y0230928D01*
X0061716Y0230928D02*
X0061186Y0231194D01*
X0061186Y0231194D02*
X0060921Y0231459D01*
X0060921Y0231459D02*
X0060656Y0231989D01*
X0060656Y0231989D02*
X0060656Y0232254D01*
X0060656Y0232254D02*
X0061584Y0233182D01*
X0061584Y0233182D02*
X0062114Y0232652D01*
X0059198Y0233182D02*
X0061982Y0235966D01*
X0061982Y0235966D02*
X0057607Y0234773D01*
X0057607Y0234773D02*
X0060391Y0237557D01*
X0058933Y0238485D02*
X0058933Y0238750D01*
X0058933Y0238750D02*
X0058800Y0239147D01*
X0058800Y0239147D02*
X0058137Y0239810D01*
X0058137Y0239810D02*
X0057740Y0239943D01*
X0057740Y0239943D02*
X0057474Y0239943D01*
X0057474Y0239943D02*
X0057077Y0239810D01*
X0057077Y0239810D02*
X0056812Y0239545D01*
X0056812Y0239545D02*
X0056546Y0239015D01*
X0056546Y0239015D02*
X0056546Y0235833D01*
X0056546Y0235833D02*
X0054823Y0237557D01*
X0369785Y0297579D02*
X0372569Y0300363D01*
X0371243Y0299037D02*
X0369652Y0300628D01*
X0368194Y0299170D02*
X0370978Y0301954D01*
X0370050Y0302882D02*
X0368459Y0304473D01*
X0366471Y0300893D02*
X0369255Y0303677D01*
X0363156Y0304207D02*
X0365410Y0304605D01*
X0364747Y0302617D02*
X0367531Y0305400D01*
X0367531Y0305400D02*
X0366471Y0306461D01*
X0366471Y0306461D02*
X0366073Y0306594D01*
X0366073Y0306594D02*
X0365808Y0306594D01*
X0365808Y0306594D02*
X0365410Y0306461D01*
X0365410Y0306461D02*
X0365012Y0306063D01*
X0365012Y0306063D02*
X0364880Y0305666D01*
X0364880Y0305666D02*
X0364880Y0305400D01*
X0364880Y0305400D02*
X0365012Y0305003D01*
X0365012Y0305003D02*
X0366073Y0303942D01*
X0363024Y0306461D02*
X0360903Y0308582D01*
X0360903Y0306461D02*
X0363024Y0308582D01*
X0028249Y0175532D02*
X0031033Y0178316D01*
X0026924Y0176858D02*
X0029708Y0179641D01*
X0029708Y0179641D02*
X0025333Y0178448D01*
X0025333Y0178448D02*
X0028117Y0181232D01*
X0025996Y0183353D02*
X0024007Y0181365D01*
X0024007Y0181365D02*
X0023742Y0180834D01*
X0023742Y0180834D02*
X0023742Y0180304D01*
X0023742Y0180304D02*
X0024007Y0179774D01*
X0024007Y0179774D02*
X0024272Y0179509D01*
X0023477Y0185872D02*
X0024007Y0185342D01*
X0024007Y0185342D02*
X0024140Y0184944D01*
X0024140Y0184944D02*
X0024140Y0184679D01*
X0024140Y0184679D02*
X0024007Y0184016D01*
X0024007Y0184016D02*
X0023610Y0183353D01*
X0023610Y0183353D02*
X0022549Y0182293D01*
X0022549Y0182293D02*
X0022151Y0182160D01*
X0022151Y0182160D02*
X0021886Y0182160D01*
X0021886Y0182160D02*
X0021488Y0182293D01*
X0021488Y0182293D02*
X0020958Y0182823D01*
X0020958Y0182823D02*
X0020826Y0183221D01*
X0020826Y0183221D02*
X0020826Y0183486D01*
X0020826Y0183486D02*
X0020958Y0183884D01*
X0020958Y0183884D02*
X0021621Y0184546D01*
X0021621Y0184546D02*
X0022019Y0184679D01*
X0022019Y0184679D02*
X0022284Y0184679D01*
X0022284Y0184679D02*
X0022682Y0184546D01*
X0022682Y0184546D02*
X0023212Y0184016D01*
X0023212Y0184016D02*
X0023344Y0183618D01*
X0023344Y0183618D02*
X0023344Y0183353D01*
X0023344Y0183353D02*
X0023212Y0182956D01*
X0345675Y0053185D02*
X0346050Y0053372D01*
X0346050Y0053372D02*
X0346613Y0053372D01*
X0346613Y0053372D02*
X0347175Y0053185D01*
X0347175Y0053185D02*
X0347550Y0052810D01*
X0347550Y0052810D02*
X0347738Y0052435D01*
X0347738Y0052435D02*
X0347925Y0051685D01*
X0347925Y0051685D02*
X0347925Y0051122D01*
X0347925Y0051122D02*
X0347738Y0050372D01*
X0347738Y0050372D02*
X0347550Y0049997D01*
X0347550Y0049997D02*
X0347175Y0049622D01*
X0347175Y0049622D02*
X0346613Y0049435D01*
X0346613Y0049435D02*
X0346238Y0049435D01*
X0346238Y0049435D02*
X0345675Y0049622D01*
X0345675Y0049622D02*
X0345488Y0049810D01*
X0345488Y0049810D02*
X0345488Y0051122D01*
X0345488Y0051122D02*
X0346238Y0051122D01*
X0343801Y0049435D02*
X0343801Y0053372D01*
X0343801Y0053372D02*
X0341551Y0049435D01*
X0341551Y0049435D02*
X0341551Y0053372D01*
X0339676Y0049435D02*
X0339676Y0053372D01*
X0339676Y0053372D02*
X0338739Y0053372D01*
X0338739Y0053372D02*
X0338176Y0053185D01*
X0338176Y0053185D02*
X0337801Y0052810D01*
X0337801Y0052810D02*
X0337614Y0052435D01*
X0337614Y0052435D02*
X0337427Y0051685D01*
X0337427Y0051685D02*
X0337427Y0051122D01*
X0337427Y0051122D02*
X0337614Y0050372D01*
X0337614Y0050372D02*
X0337801Y0049997D01*
X0337801Y0049997D02*
X0338176Y0049622D01*
X0338176Y0049622D02*
X0338739Y0049435D01*
X0338739Y0049435D02*
X0339676Y0049435D01*
X0337136Y0305284D02*
X0334882Y0303031D01*
X0334882Y0303031D02*
X0334484Y0302898D01*
X0334484Y0302898D02*
X0334219Y0302898D01*
X0334219Y0302898D02*
X0333821Y0303031D01*
X0333821Y0303031D02*
X0333291Y0303561D01*
X0333291Y0303561D02*
X0333159Y0303959D01*
X0333159Y0303959D02*
X0333159Y0304224D01*
X0333159Y0304224D02*
X0333291Y0304621D01*
X0333291Y0304621D02*
X0335545Y0306875D01*
X0333291Y0307273D02*
X0331435Y0305417D01*
X0333026Y0307008D02*
X0333026Y0307273D01*
X0333026Y0307273D02*
X0332893Y0307670D01*
X0332893Y0307670D02*
X0332496Y0308068D01*
X0332496Y0308068D02*
X0332098Y0308201D01*
X0332098Y0308201D02*
X0331700Y0308068D01*
X0331700Y0308068D02*
X0330242Y0306610D01*
X0267126Y0008270D02*
X0269000Y0008270D01*
X0269000Y0008270D02*
X0269000Y0012207D01*
X0265813Y0010332D02*
X0264501Y0010332D01*
X0263939Y0008270D02*
X0265813Y0008270D01*
X0265813Y0008270D02*
X0265813Y0012207D01*
X0265813Y0012207D02*
X0263939Y0012207D01*
X0262251Y0008270D02*
X0262251Y0012207D01*
X0262251Y0012207D02*
X0261314Y0012207D01*
X0261314Y0012207D02*
X0260751Y0012020D01*
X0260751Y0012020D02*
X0260377Y0011645D01*
X0260377Y0011645D02*
X0260189Y0011270D01*
X0260189Y0011270D02*
X0260002Y0010520D01*
X0260002Y0010520D02*
X0260002Y0009957D01*
X0260002Y0009957D02*
X0260189Y0009208D01*
X0260189Y0009208D02*
X0260377Y0008833D01*
X0260377Y0008833D02*
X0260751Y0008458D01*
X0260751Y0008458D02*
X0261314Y0008270D01*
X0261314Y0008270D02*
X0262251Y0008270D01*
X0259252Y0007895D02*
X0256252Y0007895D01*
X0254565Y0010145D02*
X0254565Y0008270D01*
X0255877Y0012207D02*
X0254565Y0010145D01*
X0254565Y0010145D02*
X0253252Y0012207D01*
X0030227Y0050527D02*
X0034164Y0050527D01*
X0034164Y0050527D02*
X0034164Y0051464D01*
X0034164Y0051464D02*
X0033976Y0052027D01*
X0033976Y0052027D02*
X0033601Y0052402D01*
X0033601Y0052402D02*
X0033226Y0052589D01*
X0033226Y0052589D02*
X0032476Y0052777D01*
X0032476Y0052777D02*
X0031914Y0052777D01*
X0031914Y0052777D02*
X0031164Y0052589D01*
X0031164Y0052589D02*
X0030789Y0052402D01*
X0030789Y0052402D02*
X0030414Y0052027D01*
X0030414Y0052027D02*
X0030227Y0051464D01*
X0030227Y0051464D02*
X0030227Y0050527D01*
X0030602Y0056714D02*
X0030414Y0056526D01*
X0030414Y0056526D02*
X0030227Y0055964D01*
X0030227Y0055964D02*
X0030227Y0055589D01*
X0030227Y0055589D02*
X0030414Y0055027D01*
X0030414Y0055027D02*
X0030789Y0054652D01*
X0030789Y0054652D02*
X0031164Y0054464D01*
X0031164Y0054464D02*
X0031914Y0054277D01*
X0031914Y0054277D02*
X0032476Y0054277D01*
X0032476Y0054277D02*
X0033226Y0054464D01*
X0033226Y0054464D02*
X0033601Y0054652D01*
X0033601Y0054652D02*
X0033976Y0055027D01*
X0033976Y0055027D02*
X0034164Y0055589D01*
X0034164Y0055589D02*
X0034164Y0055964D01*
X0034164Y0055964D02*
X0033976Y0056526D01*
X0033976Y0056526D02*
X0033789Y0056714D01*
X0033789Y0058214D02*
X0033976Y0058401D01*
X0033976Y0058401D02*
X0034164Y0058776D01*
X0034164Y0058776D02*
X0034164Y0059713D01*
X0034164Y0059713D02*
X0033976Y0060088D01*
X0033976Y0060088D02*
X0033789Y0060276D01*
X0033789Y0060276D02*
X0033414Y0060463D01*
X0033414Y0060463D02*
X0033039Y0060463D01*
X0033039Y0060463D02*
X0032476Y0060276D01*
X0032476Y0060276D02*
X0030227Y0058026D01*
X0030227Y0058026D02*
X0030227Y0060463D01*
X0029852Y0061213D02*
X0029852Y0064213D01*
X0030227Y0065150D02*
X0034164Y0065150D01*
X0034164Y0065150D02*
X0034164Y0066088D01*
X0034164Y0066088D02*
X0033976Y0066650D01*
X0033976Y0066650D02*
X0033601Y0067025D01*
X0033601Y0067025D02*
X0033226Y0067213D01*
X0033226Y0067213D02*
X0032476Y0067400D01*
X0032476Y0067400D02*
X0031914Y0067400D01*
X0031914Y0067400D02*
X0031164Y0067213D01*
X0031164Y0067213D02*
X0030789Y0067025D01*
X0030789Y0067025D02*
X0030414Y0066650D01*
X0030414Y0066650D02*
X0030227Y0066088D01*
X0030227Y0066088D02*
X0030227Y0065150D01*
X0030227Y0069087D02*
X0034164Y0069087D01*
X0030227Y0073212D02*
X0032101Y0071899D01*
X0030227Y0070962D02*
X0034164Y0070962D01*
X0034164Y0070962D02*
X0034164Y0072462D01*
X0034164Y0072462D02*
X0033976Y0072837D01*
X0033976Y0072837D02*
X0033789Y0073024D01*
X0033789Y0073024D02*
X0033414Y0073212D01*
X0033414Y0073212D02*
X0032851Y0073212D01*
X0032851Y0073212D02*
X0032476Y0073024D01*
X0032476Y0073024D02*
X0032289Y0072837D01*
X0032289Y0072837D02*
X0032101Y0072462D01*
X0032101Y0072462D02*
X0032101Y0070962D01*
X0043222Y0327279D02*
X0043620Y0327147D01*
X0043620Y0327147D02*
X0044017Y0326749D01*
X0044017Y0326749D02*
X0044282Y0326219D01*
X0044282Y0326219D02*
X0044282Y0325688D01*
X0044282Y0325688D02*
X0044150Y0325291D01*
X0044150Y0325291D02*
X0043752Y0324628D01*
X0043752Y0324628D02*
X0043355Y0324230D01*
X0043355Y0324230D02*
X0042692Y0323832D01*
X0042692Y0323832D02*
X0042294Y0323700D01*
X0042294Y0323700D02*
X0041764Y0323700D01*
X0041764Y0323700D02*
X0041233Y0323965D01*
X0041233Y0323965D02*
X0040968Y0324230D01*
X0040968Y0324230D02*
X0040703Y0324760D01*
X0040703Y0324760D02*
X0040703Y0325026D01*
X0040703Y0325026D02*
X0041631Y0325954D01*
X0041631Y0325954D02*
X0042161Y0325423D01*
X0039245Y0325954D02*
X0042029Y0328737D01*
X0042029Y0328737D02*
X0037654Y0327544D01*
X0037654Y0327544D02*
X0040438Y0330328D01*
X0036329Y0328870D02*
X0039112Y0331654D01*
X0039112Y0331654D02*
X0038450Y0332317D01*
X0038450Y0332317D02*
X0037919Y0332582D01*
X0037919Y0332582D02*
X0037389Y0332582D01*
X0037389Y0332582D02*
X0036991Y0332449D01*
X0036991Y0332449D02*
X0036329Y0332052D01*
X0036329Y0332052D02*
X0035931Y0331654D01*
X0035931Y0331654D02*
X0035533Y0330991D01*
X0035533Y0330991D02*
X0035401Y0330593D01*
X0035401Y0330593D02*
X0035401Y0330063D01*
X0035401Y0330063D02*
X0035666Y0329533D01*
X0035666Y0329533D02*
X0036329Y0328870D01*
X0034473Y0332317D02*
X0033147Y0333642D01*
X0033942Y0331256D02*
X0035798Y0334968D01*
X0035798Y0334968D02*
X0032086Y0333112D01*
X0267329Y0026832D02*
X0269204Y0026832D01*
X0269204Y0026832D02*
X0269204Y0030769D01*
X0266017Y0028894D02*
X0264705Y0028894D01*
X0264142Y0026832D02*
X0266017Y0026832D01*
X0266017Y0026832D02*
X0266017Y0030769D01*
X0266017Y0030769D02*
X0264142Y0030769D01*
X0262455Y0026832D02*
X0262455Y0030769D01*
X0262455Y0030769D02*
X0261518Y0030769D01*
X0261518Y0030769D02*
X0260955Y0030582D01*
X0260955Y0030582D02*
X0260580Y0030207D01*
X0260580Y0030207D02*
X0260393Y0029832D01*
X0260393Y0029832D02*
X0260205Y0029082D01*
X0260205Y0029082D02*
X0260205Y0028520D01*
X0260205Y0028520D02*
X0260393Y0027770D01*
X0260393Y0027770D02*
X0260580Y0027395D01*
X0260580Y0027395D02*
X0260955Y0027020D01*
X0260955Y0027020D02*
X0261518Y0026832D01*
X0261518Y0026832D02*
X0262455Y0026832D01*
X0259455Y0026457D02*
X0256456Y0026457D01*
X0253456Y0030582D02*
X0253831Y0030769D01*
X0253831Y0030769D02*
X0254393Y0030769D01*
X0254393Y0030769D02*
X0254956Y0030582D01*
X0254956Y0030582D02*
X0255331Y0030207D01*
X0255331Y0030207D02*
X0255518Y0029832D01*
X0255518Y0029832D02*
X0255706Y0029082D01*
X0255706Y0029082D02*
X0255706Y0028520D01*
X0255706Y0028520D02*
X0255518Y0027770D01*
X0255518Y0027770D02*
X0255331Y0027395D01*
X0255331Y0027395D02*
X0254956Y0027020D01*
X0254956Y0027020D02*
X0254393Y0026832D01*
X0254393Y0026832D02*
X0254018Y0026832D01*
X0254018Y0026832D02*
X0253456Y0027020D01*
X0253456Y0027020D02*
X0253269Y0027207D01*
X0253269Y0027207D02*
X0253269Y0028520D01*
X0253269Y0028520D02*
X0254018Y0028520D01*
X0040767Y0362380D02*
X0038646Y0364501D01*
X0038646Y0362380D02*
X0040767Y0364501D01*
X0037718Y0368876D02*
X0039043Y0367550D01*
X0039043Y0367550D02*
X0037850Y0366092D01*
X0037850Y0366092D02*
X0037850Y0366357D01*
X0037850Y0366357D02*
X0037718Y0366754D01*
X0037718Y0366754D02*
X0037055Y0367417D01*
X0037055Y0367417D02*
X0036657Y0367550D01*
X0036657Y0367550D02*
X0036392Y0367550D01*
X0036392Y0367550D02*
X0035994Y0367417D01*
X0035994Y0367417D02*
X0035331Y0366754D01*
X0035331Y0366754D02*
X0035199Y0366357D01*
X0035199Y0366357D02*
X0035199Y0366092D01*
X0035199Y0366092D02*
X0035331Y0365694D01*
X0035331Y0365694D02*
X0035994Y0365031D01*
X0035994Y0365031D02*
X0036392Y0364899D01*
X0036392Y0364899D02*
X0036657Y0364899D01*
X0036790Y0369803D02*
X0033078Y0367948D01*
X0033078Y0367948D02*
X0034934Y0371659D01*
X0031222Y0369803D02*
X0034006Y0372587D01*
X0034006Y0372587D02*
X0032945Y0373648D01*
X0032945Y0373648D02*
X0032547Y0373780D01*
X0032547Y0373780D02*
X0032282Y0373780D01*
X0032282Y0373780D02*
X0031885Y0373648D01*
X0031885Y0373648D02*
X0031487Y0373250D01*
X0031487Y0373250D02*
X0031354Y0372852D01*
X0031354Y0372852D02*
X0031354Y0372587D01*
X0031354Y0372587D02*
X0031487Y0372190D01*
X0031487Y0372190D02*
X0032547Y0371129D01*
X0333367Y0287737D02*
X0336151Y0290520D01*
X0333898Y0290918D02*
X0331114Y0288134D01*
X0333765Y0290786D02*
X0333633Y0291183D01*
X0333633Y0291183D02*
X0333102Y0291714D01*
X0333102Y0291714D02*
X0332705Y0291846D01*
X0332705Y0291846D02*
X0332439Y0291846D01*
X0332439Y0291846D02*
X0332042Y0291714D01*
X0332042Y0291714D02*
X0331246Y0290918D01*
X0331246Y0290918D02*
X0331114Y0290520D01*
X0331114Y0290520D02*
X0331114Y0290255D01*
X0331114Y0290255D02*
X0331246Y0289858D01*
X0331246Y0289858D02*
X0331777Y0289327D01*
X0331777Y0289327D02*
X0332174Y0289195D01*
X0108902Y0324817D02*
X0107576Y0326142D01*
X0108371Y0323756D02*
X0110227Y0327468D01*
X0110227Y0327468D02*
X0106516Y0325612D01*
X0108371Y0329324D02*
X0106118Y0327070D01*
X0106118Y0327070D02*
X0105720Y0326938D01*
X0105720Y0326938D02*
X0105455Y0326938D01*
X0105455Y0326938D02*
X0105057Y0327070D01*
X0105057Y0327070D02*
X0104527Y0327601D01*
X0104527Y0327601D02*
X0104394Y0327998D01*
X0104394Y0327998D02*
X0104394Y0328263D01*
X0104394Y0328263D02*
X0104527Y0328661D01*
X0104527Y0328661D02*
X0106781Y0330915D01*
X0105720Y0331975D02*
X0101080Y0331047D01*
X0103864Y0333831D02*
X0102936Y0329191D01*
X0103069Y0334627D02*
X0101345Y0336350D01*
X0101345Y0336350D02*
X0101213Y0334361D01*
X0101213Y0334361D02*
X0100815Y0334759D01*
X0100815Y0334759D02*
X0100417Y0334892D01*
X0100417Y0334892D02*
X0100152Y0334892D01*
X0100152Y0334892D02*
X0099755Y0334759D01*
X0099755Y0334759D02*
X0099092Y0334096D01*
X0099092Y0334096D02*
X0098959Y0333699D01*
X0098959Y0333699D02*
X0098959Y0333434D01*
X0098959Y0333434D02*
X0099092Y0333036D01*
X0099092Y0333036D02*
X0099887Y0332240D01*
X0099887Y0332240D02*
X0100285Y0332108D01*
X0100285Y0332108D02*
X0100550Y0332108D01*
X0029360Y0207543D02*
X0032144Y0210327D01*
X0028034Y0208869D02*
X0030818Y0211653D01*
X0030818Y0211653D02*
X0026443Y0210460D01*
X0026443Y0210460D02*
X0029227Y0213243D01*
X0027106Y0215365D02*
X0025118Y0213376D01*
X0025118Y0213376D02*
X0024853Y0212846D01*
X0024853Y0212846D02*
X0024853Y0212315D01*
X0024853Y0212315D02*
X0025118Y0211785D01*
X0025118Y0211785D02*
X0025383Y0211520D01*
X0023660Y0216955D02*
X0021804Y0215099D01*
X0025383Y0217353D02*
X0024057Y0214702D01*
X0024057Y0214702D02*
X0022334Y0216425D01*
X0335115Y0363510D02*
X0335115Y0363245D01*
X0335115Y0363245D02*
X0335380Y0362714D01*
X0335380Y0362714D02*
X0335645Y0362449D01*
X0335645Y0362449D02*
X0336175Y0362184D01*
X0336175Y0362184D02*
X0336706Y0362184D01*
X0336706Y0362184D02*
X0337103Y0362317D01*
X0337103Y0362317D02*
X0337766Y0362714D01*
X0337766Y0362714D02*
X0338164Y0363112D01*
X0338164Y0363112D02*
X0338562Y0363775D01*
X0338562Y0363775D02*
X0338694Y0364173D01*
X0338694Y0364173D02*
X0338694Y0364703D01*
X0338694Y0364703D02*
X0338429Y0365233D01*
X0338429Y0365233D02*
X0338164Y0365498D01*
X0338164Y0365498D02*
X0337634Y0365763D01*
X0337634Y0365763D02*
X0337369Y0365763D01*
X0334585Y0365101D02*
X0333259Y0366426D01*
X0334054Y0364040D02*
X0335910Y0367752D01*
X0335910Y0367752D02*
X0332198Y0365896D01*
X0331271Y0366824D02*
X0334054Y0369608D01*
X0334054Y0369608D02*
X0329680Y0368415D01*
X0329680Y0368415D02*
X0332464Y0371199D01*
X0328354Y0369740D02*
X0331138Y0372524D01*
X0329812Y0371199D02*
X0328221Y0372789D01*
X0326763Y0371331D02*
X0329547Y0374115D01*
X0127691Y0326540D02*
X0123979Y0324684D01*
X0123979Y0324684D02*
X0125835Y0328396D01*
X0120532Y0328131D02*
X0122786Y0328529D01*
X0122123Y0326540D02*
X0124907Y0329324D01*
X0124907Y0329324D02*
X0123846Y0330385D01*
X0123846Y0330385D02*
X0123449Y0330517D01*
X0123449Y0330517D02*
X0123184Y0330517D01*
X0123184Y0330517D02*
X0122786Y0330385D01*
X0122786Y0330385D02*
X0122388Y0329987D01*
X0122388Y0329987D02*
X0122256Y0329589D01*
X0122256Y0329589D02*
X0122256Y0329324D01*
X0122256Y0329324D02*
X0122388Y0328926D01*
X0122388Y0328926D02*
X0123449Y0327866D01*
X0121990Y0331710D02*
X0121990Y0331975D01*
X0121990Y0331975D02*
X0121858Y0332373D01*
X0121858Y0332373D02*
X0121195Y0333036D01*
X0121195Y0333036D02*
X0120797Y0333168D01*
X0120797Y0333168D02*
X0120532Y0333168D01*
X0120532Y0333168D02*
X0120135Y0333036D01*
X0120135Y0333036D02*
X0119869Y0332771D01*
X0119869Y0332771D02*
X0119604Y0332240D01*
X0119604Y0332240D02*
X0119604Y0329059D01*
X0119604Y0329059D02*
X0117881Y0330782D01*
X0117748Y0333036D02*
X0115627Y0335157D01*
X0115627Y0333036D02*
X0117748Y0335157D01*
X0027719Y0277122D02*
X0029044Y0275796D01*
X0029044Y0275796D02*
X0031828Y0278580D01*
X0027056Y0278049D02*
X0026525Y0278315D01*
X0026525Y0278315D02*
X0025863Y0278977D01*
X0025863Y0278977D02*
X0025730Y0279375D01*
X0025730Y0279375D02*
X0025730Y0279640D01*
X0025730Y0279640D02*
X0025863Y0280038D01*
X0025863Y0280038D02*
X0026128Y0280303D01*
X0026128Y0280303D02*
X0026525Y0280436D01*
X0026525Y0280436D02*
X0026791Y0280436D01*
X0026791Y0280436D02*
X0027188Y0280303D01*
X0027188Y0280303D02*
X0027851Y0279905D01*
X0027851Y0279905D02*
X0028249Y0279773D01*
X0028249Y0279773D02*
X0028514Y0279773D01*
X0028514Y0279773D02*
X0028912Y0279905D01*
X0028912Y0279905D02*
X0029177Y0280171D01*
X0029177Y0280171D02*
X0029309Y0280568D01*
X0029309Y0280568D02*
X0029309Y0280833D01*
X0029309Y0280833D02*
X0029177Y0281231D01*
X0029177Y0281231D02*
X0028514Y0281894D01*
X0028514Y0281894D02*
X0027984Y0282159D01*
X0022681Y0282159D02*
X0024272Y0280568D01*
X0023476Y0281364D02*
X0026260Y0284148D01*
X0026260Y0284148D02*
X0026128Y0283485D01*
X0026128Y0283485D02*
X0026128Y0282954D01*
X0026128Y0282954D02*
X0026260Y0282557D01*
X0063486Y0195735D02*
X0066269Y0198519D01*
X0063353Y0201171D02*
X0063751Y0201038D01*
X0063751Y0201038D02*
X0064148Y0200640D01*
X0064148Y0200640D02*
X0064414Y0200110D01*
X0064414Y0200110D02*
X0064414Y0199580D01*
X0064414Y0199580D02*
X0064281Y0199182D01*
X0064281Y0199182D02*
X0063883Y0198519D01*
X0063883Y0198519D02*
X0063486Y0198121D01*
X0063486Y0198121D02*
X0062823Y0197724D01*
X0062823Y0197724D02*
X0062425Y0197591D01*
X0062425Y0197591D02*
X0061895Y0197591D01*
X0061895Y0197591D02*
X0061365Y0197856D01*
X0061365Y0197856D02*
X0061099Y0198121D01*
X0061099Y0198121D02*
X0060834Y0198652D01*
X0060834Y0198652D02*
X0060834Y0198917D01*
X0060834Y0198917D02*
X0061762Y0199845D01*
X0061762Y0199845D02*
X0062292Y0199315D01*
X0059376Y0199845D02*
X0062160Y0202629D01*
X0062160Y0202629D02*
X0057785Y0201436D01*
X0057785Y0201436D02*
X0060569Y0204220D01*
X0059509Y0205280D02*
X0057785Y0207003D01*
X0057785Y0207003D02*
X0057653Y0205015D01*
X0057653Y0205015D02*
X0057255Y0205413D01*
X0057255Y0205413D02*
X0056857Y0205545D01*
X0056857Y0205545D02*
X0056592Y0205545D01*
X0056592Y0205545D02*
X0056194Y0205413D01*
X0056194Y0205413D02*
X0055532Y0204750D01*
X0055532Y0204750D02*
X0055399Y0204352D01*
X0055399Y0204352D02*
X0055399Y0204087D01*
X0055399Y0204087D02*
X0055532Y0203689D01*
X0055532Y0203689D02*
X0056327Y0202894D01*
X0056327Y0202894D02*
X0056725Y0202761D01*
X0056725Y0202761D02*
X0056990Y0202761D01*
X0270584Y0329248D02*
X0270982Y0329115D01*
X0270982Y0329115D02*
X0271380Y0328717D01*
X0271380Y0328717D02*
X0271645Y0328187D01*
X0271645Y0328187D02*
X0271645Y0327657D01*
X0271645Y0327657D02*
X0271512Y0327259D01*
X0271512Y0327259D02*
X0271114Y0326596D01*
X0271114Y0326596D02*
X0270717Y0326199D01*
X0270717Y0326199D02*
X0270054Y0325801D01*
X0270054Y0325801D02*
X0269656Y0325668D01*
X0269656Y0325668D02*
X0269126Y0325668D01*
X0269126Y0325668D02*
X0268596Y0325934D01*
X0268596Y0325934D02*
X0268331Y0326199D01*
X0268331Y0326199D02*
X0268065Y0326729D01*
X0268065Y0326729D02*
X0268065Y0326994D01*
X0268065Y0326994D02*
X0268993Y0327922D01*
X0268993Y0327922D02*
X0269524Y0327392D01*
X0266607Y0327922D02*
X0269391Y0330706D01*
X0269391Y0330706D02*
X0265016Y0329513D01*
X0265016Y0329513D02*
X0267800Y0332297D01*
X0263691Y0330838D02*
X0266475Y0333622D01*
X0266475Y0333622D02*
X0265812Y0334285D01*
X0265812Y0334285D02*
X0265282Y0334550D01*
X0265282Y0334550D02*
X0264751Y0334550D01*
X0264751Y0334550D02*
X0264354Y0334418D01*
X0264354Y0334418D02*
X0263691Y0334020D01*
X0263691Y0334020D02*
X0263293Y0333622D01*
X0263293Y0333622D02*
X0262895Y0332960D01*
X0262895Y0332960D02*
X0262763Y0332562D01*
X0262763Y0332562D02*
X0262763Y0332032D01*
X0262763Y0332032D02*
X0263028Y0331501D01*
X0263028Y0331501D02*
X0263691Y0330838D01*
X0261835Y0334285D02*
X0260509Y0335611D01*
X0261305Y0333225D02*
X0263160Y0336937D01*
X0263160Y0336937D02*
X0259449Y0335081D01*
X0027908Y0308747D02*
X0029234Y0307422D01*
X0029234Y0307422D02*
X0032017Y0310206D01*
X0027245Y0309675D02*
X0026715Y0309940D01*
X0026715Y0309940D02*
X0026052Y0310603D01*
X0026052Y0310603D02*
X0025919Y0311001D01*
X0025919Y0311001D02*
X0025919Y0311266D01*
X0025919Y0311266D02*
X0026052Y0311664D01*
X0026052Y0311664D02*
X0026317Y0311929D01*
X0026317Y0311929D02*
X0026715Y0312061D01*
X0026715Y0312061D02*
X0026980Y0312061D01*
X0026980Y0312061D02*
X0027378Y0311929D01*
X0027378Y0311929D02*
X0028041Y0311531D01*
X0028041Y0311531D02*
X0028438Y0311399D01*
X0028438Y0311399D02*
X0028703Y0311399D01*
X0028703Y0311399D02*
X0029101Y0311531D01*
X0029101Y0311531D02*
X0029366Y0311796D01*
X0029366Y0311796D02*
X0029499Y0312194D01*
X0029499Y0312194D02*
X0029499Y0312459D01*
X0029499Y0312459D02*
X0029366Y0312857D01*
X0029366Y0312857D02*
X0028703Y0313520D01*
X0028703Y0313520D02*
X0028173Y0313785D01*
X0024329Y0312327D02*
X0027113Y0315110D01*
X0025787Y0313785D02*
X0024196Y0315376D01*
X0022738Y0313917D02*
X0025522Y0316701D01*
X0019954Y0316701D02*
X0021545Y0315110D01*
X0020749Y0315906D02*
X0023533Y0318690D01*
X0023533Y0318690D02*
X0023401Y0318027D01*
X0023401Y0318027D02*
X0023401Y0317497D01*
X0023401Y0317497D02*
X0023533Y0317099D01*
X0058950Y0362040D02*
X0056829Y0364161D01*
X0056829Y0362040D02*
X0058950Y0364161D01*
X0055901Y0368535D02*
X0057226Y0367210D01*
X0057226Y0367210D02*
X0056033Y0365751D01*
X0056033Y0365751D02*
X0056033Y0366017D01*
X0056033Y0366017D02*
X0055901Y0366414D01*
X0055901Y0366414D02*
X0055238Y0367077D01*
X0055238Y0367077D02*
X0054840Y0367210D01*
X0054840Y0367210D02*
X0054575Y0367210D01*
X0054575Y0367210D02*
X0054177Y0367077D01*
X0054177Y0367077D02*
X0053515Y0366414D01*
X0053515Y0366414D02*
X0053382Y0366017D01*
X0053382Y0366017D02*
X0053382Y0365751D01*
X0053382Y0365751D02*
X0053515Y0365354D01*
X0053515Y0365354D02*
X0054177Y0364691D01*
X0054177Y0364691D02*
X0054575Y0364558D01*
X0054575Y0364558D02*
X0054840Y0364558D01*
X0054973Y0369463D02*
X0051261Y0367607D01*
X0051261Y0367607D02*
X0053117Y0371319D01*
X0049405Y0369463D02*
X0052189Y0372247D01*
X0052189Y0372247D02*
X0051128Y0373308D01*
X0051128Y0373308D02*
X0050731Y0373440D01*
X0050731Y0373440D02*
X0050466Y0373440D01*
X0050466Y0373440D02*
X0050068Y0373308D01*
X0050068Y0373308D02*
X0049670Y0372910D01*
X0049670Y0372910D02*
X0049538Y0372512D01*
X0049538Y0372512D02*
X0049538Y0372247D01*
X0049538Y0372247D02*
X0049670Y0371850D01*
X0049670Y0371850D02*
X0050731Y0370789D01*
X0009557Y0050527D02*
X0013494Y0050527D01*
X0013494Y0050527D02*
X0013494Y0051464D01*
X0013494Y0051464D02*
X0013307Y0052027D01*
X0013307Y0052027D02*
X0012932Y0052402D01*
X0012932Y0052402D02*
X0012557Y0052589D01*
X0012557Y0052589D02*
X0011807Y0052777D01*
X0011807Y0052777D02*
X0011245Y0052777D01*
X0011245Y0052777D02*
X0010495Y0052589D01*
X0010495Y0052589D02*
X0010120Y0052402D01*
X0010120Y0052402D02*
X0009745Y0052027D01*
X0009745Y0052027D02*
X0009557Y0051464D01*
X0009557Y0051464D02*
X0009557Y0050527D01*
X0009932Y0056714D02*
X0009745Y0056526D01*
X0009745Y0056526D02*
X0009557Y0055964D01*
X0009557Y0055964D02*
X0009557Y0055589D01*
X0009557Y0055589D02*
X0009745Y0055027D01*
X0009745Y0055027D02*
X0010120Y0054652D01*
X0010120Y0054652D02*
X0010495Y0054464D01*
X0010495Y0054464D02*
X0011245Y0054277D01*
X0011245Y0054277D02*
X0011807Y0054277D01*
X0011807Y0054277D02*
X0012557Y0054464D01*
X0012557Y0054464D02*
X0012932Y0054652D01*
X0012932Y0054652D02*
X0013307Y0055027D01*
X0013307Y0055027D02*
X0013494Y0055589D01*
X0013494Y0055589D02*
X0013494Y0055964D01*
X0013494Y0055964D02*
X0013307Y0056526D01*
X0013307Y0056526D02*
X0013119Y0056714D01*
X0009557Y0060463D02*
X0009557Y0058214D01*
X0009557Y0059339D02*
X0013494Y0059339D01*
X0013494Y0059339D02*
X0012932Y0058964D01*
X0012932Y0058964D02*
X0012557Y0058589D01*
X0012557Y0058589D02*
X0012370Y0058214D01*
X0009182Y0061213D02*
X0009182Y0064213D01*
X0009557Y0065150D02*
X0013494Y0065150D01*
X0013494Y0065150D02*
X0013494Y0066650D01*
X0013494Y0066650D02*
X0013307Y0067025D01*
X0013307Y0067025D02*
X0013119Y0067213D01*
X0013119Y0067213D02*
X0012745Y0067400D01*
X0012745Y0067400D02*
X0012182Y0067400D01*
X0012182Y0067400D02*
X0011807Y0067213D01*
X0011807Y0067213D02*
X0011620Y0067025D01*
X0011620Y0067025D02*
X0011432Y0066650D01*
X0011432Y0066650D02*
X0011432Y0065150D01*
X0013494Y0068712D02*
X0009557Y0069650D01*
X0009557Y0069650D02*
X0012370Y0070400D01*
X0012370Y0070400D02*
X0009557Y0071150D01*
X0009557Y0071150D02*
X0013494Y0072087D01*
X0009557Y0073587D02*
X0013494Y0073587D01*
X0013494Y0073587D02*
X0010682Y0074899D01*
X0010682Y0074899D02*
X0013494Y0076211D01*
X0013494Y0076211D02*
X0009557Y0076211D01*
X0254173Y0326540D02*
X0253643Y0326805D01*
X0253643Y0326805D02*
X0253378Y0326805D01*
X0253378Y0326805D02*
X0252980Y0326673D01*
X0252980Y0326673D02*
X0252583Y0326275D01*
X0252583Y0326275D02*
X0252450Y0325877D01*
X0252450Y0325877D02*
X0252450Y0325612D01*
X0252450Y0325612D02*
X0252583Y0325214D01*
X0252583Y0325214D02*
X0253643Y0324154D01*
X0253643Y0324154D02*
X0256427Y0326938D01*
X0256427Y0326938D02*
X0255499Y0327866D01*
X0255499Y0327866D02*
X0255101Y0327998D01*
X0255101Y0327998D02*
X0254836Y0327998D01*
X0254836Y0327998D02*
X0254438Y0327866D01*
X0254438Y0327866D02*
X0254173Y0327601D01*
X0254173Y0327601D02*
X0254041Y0327203D01*
X0254041Y0327203D02*
X0254041Y0326938D01*
X0254041Y0326938D02*
X0254173Y0326540D01*
X0254173Y0326540D02*
X0255101Y0325612D01*
X0254041Y0329324D02*
X0252450Y0330915D01*
X0250461Y0327335D02*
X0253245Y0330119D01*
X0248738Y0329059D02*
X0251522Y0331843D01*
X0251522Y0331843D02*
X0247147Y0330650D01*
X0247147Y0330650D02*
X0249931Y0333434D01*
X0248473Y0334361D02*
X0248473Y0334627D01*
X0248473Y0334627D02*
X0248340Y0335024D01*
X0248340Y0335024D02*
X0247678Y0335687D01*
X0247678Y0335687D02*
X0247280Y0335820D01*
X0247280Y0335820D02*
X0247015Y0335820D01*
X0247015Y0335820D02*
X0246617Y0335687D01*
X0246617Y0335687D02*
X0246352Y0335422D01*
X0246352Y0335422D02*
X0246087Y0334892D01*
X0246087Y0334892D02*
X0246087Y0331710D01*
X0246087Y0331710D02*
X0244363Y0333434D01*
X0029107Y0240627D02*
X0031891Y0243410D01*
X0027782Y0241952D02*
X0030566Y0244736D01*
X0030566Y0244736D02*
X0026191Y0243543D01*
X0026191Y0243543D02*
X0028975Y0246327D01*
X0026854Y0248448D02*
X0024865Y0246459D01*
X0024865Y0246459D02*
X0024600Y0245929D01*
X0024600Y0245929D02*
X0024600Y0245399D01*
X0024600Y0245399D02*
X0024865Y0244869D01*
X0024865Y0244869D02*
X0025130Y0244603D01*
X0025395Y0249376D02*
X0025395Y0249641D01*
X0025395Y0249641D02*
X0025263Y0250039D01*
X0025263Y0250039D02*
X0024600Y0250702D01*
X0024600Y0250702D02*
X0024202Y0250834D01*
X0024202Y0250834D02*
X0023937Y0250834D01*
X0023937Y0250834D02*
X0023540Y0250702D01*
X0023540Y0250702D02*
X0023274Y0250436D01*
X0023274Y0250436D02*
X0023009Y0249906D01*
X0023009Y0249906D02*
X0023009Y0246725D01*
X0023009Y0246725D02*
X0021286Y0248448D01*
X0341282Y0078875D02*
X0339032Y0078875D01*
X0340157Y0074938D02*
X0340157Y0078875D01*
X0338095Y0074938D02*
X0336032Y0077563D01*
X0338095Y0077563D02*
X0336032Y0074938D01*
X0345675Y0042830D02*
X0346050Y0043018D01*
X0346050Y0043018D02*
X0346613Y0043018D01*
X0346613Y0043018D02*
X0347175Y0042830D01*
X0347175Y0042830D02*
X0347550Y0042455D01*
X0347550Y0042455D02*
X0347738Y0042080D01*
X0347738Y0042080D02*
X0347925Y0041330D01*
X0347925Y0041330D02*
X0347925Y0040768D01*
X0347925Y0040768D02*
X0347738Y0040018D01*
X0347738Y0040018D02*
X0347550Y0039643D01*
X0347550Y0039643D02*
X0347175Y0039268D01*
X0347175Y0039268D02*
X0346613Y0039081D01*
X0346613Y0039081D02*
X0346238Y0039081D01*
X0346238Y0039081D02*
X0345675Y0039268D01*
X0345675Y0039268D02*
X0345488Y0039456D01*
X0345488Y0039456D02*
X0345488Y0040768D01*
X0345488Y0040768D02*
X0346238Y0040768D01*
X0343801Y0039081D02*
X0343801Y0043018D01*
X0343801Y0043018D02*
X0341551Y0039081D01*
X0341551Y0039081D02*
X0341551Y0043018D01*
X0339676Y0039081D02*
X0339676Y0043018D01*
X0339676Y0043018D02*
X0338739Y0043018D01*
X0338739Y0043018D02*
X0338176Y0042830D01*
X0338176Y0042830D02*
X0337801Y0042455D01*
X0337801Y0042455D02*
X0337614Y0042080D01*
X0337614Y0042080D02*
X0337427Y0041330D01*
X0337427Y0041330D02*
X0337427Y0040768D01*
X0337427Y0040768D02*
X0337614Y0040018D01*
X0337614Y0040018D02*
X0337801Y0039643D01*
X0337801Y0039643D02*
X0338176Y0039268D01*
X0338176Y0039268D02*
X0338739Y0039081D01*
X0338739Y0039081D02*
X0339676Y0039081D01*
X0140317Y0361723D02*
X0143101Y0364506D01*
X0141775Y0363181D02*
X0140184Y0364772D01*
X0138726Y0363313D02*
X0141510Y0366097D01*
X0138328Y0365302D02*
X0137003Y0366627D01*
X0137798Y0364241D02*
X0139654Y0367953D01*
X0139654Y0367953D02*
X0135942Y0366097D01*
X0133689Y0368351D02*
X0135014Y0367025D01*
X0135014Y0367025D02*
X0137798Y0369809D01*
X0131435Y0370604D02*
X0132761Y0369279D01*
X0132761Y0369279D02*
X0135544Y0372063D01*
X0133556Y0374051D02*
X0131833Y0375775D01*
X0131833Y0375775D02*
X0131700Y0373786D01*
X0131700Y0373786D02*
X0131302Y0374184D01*
X0131302Y0374184D02*
X0130905Y0374316D01*
X0130905Y0374316D02*
X0130640Y0374316D01*
X0130640Y0374316D02*
X0130242Y0374184D01*
X0130242Y0374184D02*
X0129579Y0373521D01*
X0129579Y0373521D02*
X0129446Y0373123D01*
X0129446Y0373123D02*
X0129446Y0372858D01*
X0129446Y0372858D02*
X0129579Y0372460D01*
X0129579Y0372460D02*
X0130374Y0371665D01*
X0130374Y0371665D02*
X0130772Y0371532D01*
X0130772Y0371532D02*
X0131037Y0371532D01*
X0335565Y0272406D02*
X0331853Y0270550D01*
X0331853Y0270550D02*
X0333709Y0274262D01*
X0329997Y0272406D02*
X0331853Y0274262D01*
X0331588Y0273997D02*
X0331588Y0274262D01*
X0331588Y0274262D02*
X0331455Y0274660D01*
X0331455Y0274660D02*
X0331058Y0275058D01*
X0331058Y0275058D02*
X0330660Y0275190D01*
X0330660Y0275190D02*
X0330262Y0275058D01*
X0330262Y0275058D02*
X0328804Y0273599D01*
X0330262Y0275058D02*
X0330395Y0275455D01*
X0330395Y0275455D02*
X0330262Y0275853D01*
X0330262Y0275853D02*
X0329864Y0276251D01*
X0329864Y0276251D02*
X0329467Y0276383D01*
X0329467Y0276383D02*
X0329069Y0276251D01*
X0329069Y0276251D02*
X0327611Y0274792D01*
X0085615Y0041959D02*
X0085615Y0045896D01*
X0085615Y0045896D02*
X0084677Y0045896D01*
X0084677Y0045896D02*
X0084115Y0045709D01*
X0084115Y0045709D02*
X0083740Y0045334D01*
X0083740Y0045334D02*
X0083552Y0044959D01*
X0083552Y0044959D02*
X0083365Y0044209D01*
X0083365Y0044209D02*
X0083365Y0043646D01*
X0083365Y0043646D02*
X0083552Y0042896D01*
X0083552Y0042896D02*
X0083740Y0042521D01*
X0083740Y0042521D02*
X0084115Y0042146D01*
X0084115Y0042146D02*
X0084677Y0041959D01*
X0084677Y0041959D02*
X0085615Y0041959D01*
X0079428Y0042334D02*
X0079615Y0042146D01*
X0079615Y0042146D02*
X0080178Y0041959D01*
X0080178Y0041959D02*
X0080553Y0041959D01*
X0080553Y0041959D02*
X0081115Y0042146D01*
X0081115Y0042146D02*
X0081490Y0042521D01*
X0081490Y0042521D02*
X0081678Y0042896D01*
X0081678Y0042896D02*
X0081865Y0043646D01*
X0081865Y0043646D02*
X0081865Y0044209D01*
X0081865Y0044209D02*
X0081678Y0044959D01*
X0081678Y0044959D02*
X0081490Y0045334D01*
X0081490Y0045334D02*
X0081115Y0045709D01*
X0081115Y0045709D02*
X0080553Y0045896D01*
X0080553Y0045896D02*
X0080178Y0045896D01*
X0080178Y0045896D02*
X0079615Y0045709D01*
X0079615Y0045709D02*
X0079428Y0045521D01*
X0077928Y0045521D02*
X0077741Y0045709D01*
X0077741Y0045709D02*
X0077366Y0045896D01*
X0077366Y0045896D02*
X0076428Y0045896D01*
X0076428Y0045896D02*
X0076053Y0045709D01*
X0076053Y0045709D02*
X0075866Y0045521D01*
X0075866Y0045521D02*
X0075678Y0045146D01*
X0075678Y0045146D02*
X0075678Y0044771D01*
X0075678Y0044771D02*
X0075866Y0044209D01*
X0075866Y0044209D02*
X0078116Y0041959D01*
X0078116Y0041959D02*
X0075678Y0041959D01*
X0074928Y0041584D02*
X0071929Y0041584D01*
X0070991Y0041959D02*
X0070991Y0045896D01*
X0070991Y0045896D02*
X0069492Y0045896D01*
X0069492Y0045896D02*
X0069117Y0045709D01*
X0069117Y0045709D02*
X0068929Y0045521D01*
X0068929Y0045521D02*
X0068742Y0045146D01*
X0068742Y0045146D02*
X0068742Y0044584D01*
X0068742Y0044584D02*
X0068929Y0044209D01*
X0068929Y0044209D02*
X0069117Y0044021D01*
X0069117Y0044021D02*
X0069492Y0043834D01*
X0069492Y0043834D02*
X0070991Y0043834D01*
X0067429Y0045896D02*
X0066492Y0041959D01*
X0066492Y0041959D02*
X0065742Y0044771D01*
X0065742Y0044771D02*
X0064992Y0041959D01*
X0064992Y0041959D02*
X0064055Y0045896D01*
X0062555Y0041959D02*
X0062555Y0045896D01*
X0062555Y0045896D02*
X0061243Y0043084D01*
X0061243Y0043084D02*
X0059930Y0045896D01*
X0059930Y0045896D02*
X0059930Y0041959D01*
X0062357Y0297921D02*
X0063682Y0296595D01*
X0063682Y0296595D02*
X0066466Y0299379D01*
X0061694Y0298848D02*
X0061164Y0299114D01*
X0061164Y0299114D02*
X0060501Y0299776D01*
X0060501Y0299776D02*
X0060368Y0300174D01*
X0060368Y0300174D02*
X0060368Y0300439D01*
X0060368Y0300439D02*
X0060501Y0300837D01*
X0060501Y0300837D02*
X0060766Y0301102D01*
X0060766Y0301102D02*
X0061164Y0301235D01*
X0061164Y0301235D02*
X0061429Y0301235D01*
X0061429Y0301235D02*
X0061826Y0301102D01*
X0061826Y0301102D02*
X0062489Y0300704D01*
X0062489Y0300704D02*
X0062887Y0300572D01*
X0062887Y0300572D02*
X0063152Y0300572D01*
X0063152Y0300572D02*
X0063550Y0300704D01*
X0063550Y0300704D02*
X0063815Y0300970D01*
X0063815Y0300970D02*
X0063948Y0301367D01*
X0063948Y0301367D02*
X0063948Y0301632D01*
X0063948Y0301632D02*
X0063815Y0302030D01*
X0063815Y0302030D02*
X0063152Y0302693D01*
X0063152Y0302693D02*
X0062622Y0302958D01*
X0061429Y0303886D02*
X0061429Y0304151D01*
X0061429Y0304151D02*
X0061296Y0304549D01*
X0061296Y0304549D02*
X0060633Y0305212D01*
X0060633Y0305212D02*
X0060236Y0305344D01*
X0060236Y0305344D02*
X0059971Y0305344D01*
X0059971Y0305344D02*
X0059573Y0305212D01*
X0059573Y0305212D02*
X0059308Y0304947D01*
X0059308Y0304947D02*
X0059043Y0304416D01*
X0059043Y0304416D02*
X0059043Y0301235D01*
X0059043Y0301235D02*
X0057319Y0302958D01*
X0303884Y0363986D02*
X0304812Y0363058D01*
X0303354Y0361600D02*
X0306138Y0364384D01*
X0306138Y0364384D02*
X0304812Y0365709D01*
X0299642Y0365312D02*
X0300968Y0363986D01*
X0300968Y0363986D02*
X0303752Y0366770D01*
X0300172Y0367698D02*
X0299244Y0368626D01*
X0297388Y0367565D02*
X0298714Y0366240D01*
X0298714Y0366240D02*
X0301498Y0369024D01*
X0301498Y0369024D02*
X0300172Y0370349D01*
X0299244Y0371277D02*
X0294605Y0370349D01*
X0297388Y0373133D02*
X0296460Y0368493D01*
X0027985Y0291138D02*
X0029311Y0289812D01*
X0029311Y0289812D02*
X0032095Y0292596D01*
X0027322Y0292066D02*
X0026792Y0292331D01*
X0026792Y0292331D02*
X0026129Y0292994D01*
X0026129Y0292994D02*
X0025997Y0293391D01*
X0025997Y0293391D02*
X0025997Y0293657D01*
X0025997Y0293657D02*
X0026129Y0294054D01*
X0026129Y0294054D02*
X0026394Y0294319D01*
X0026394Y0294319D02*
X0026792Y0294452D01*
X0026792Y0294452D02*
X0027057Y0294452D01*
X0027057Y0294452D02*
X0027455Y0294319D01*
X0027455Y0294319D02*
X0028118Y0293922D01*
X0028118Y0293922D02*
X0028516Y0293789D01*
X0028516Y0293789D02*
X0028781Y0293789D01*
X0028781Y0293789D02*
X0029178Y0293922D01*
X0029178Y0293922D02*
X0029444Y0294187D01*
X0029444Y0294187D02*
X0029576Y0294584D01*
X0029576Y0294584D02*
X0029576Y0294850D01*
X0029576Y0294850D02*
X0029444Y0295247D01*
X0029444Y0295247D02*
X0028781Y0295910D01*
X0028781Y0295910D02*
X0028250Y0296175D01*
X0024406Y0294717D02*
X0027190Y0297501D01*
X0025864Y0296175D02*
X0024273Y0297766D01*
X0022815Y0296308D02*
X0025599Y0299092D01*
X0024141Y0300020D02*
X0024141Y0300285D01*
X0024141Y0300285D02*
X0024008Y0300683D01*
X0024008Y0300683D02*
X0023345Y0301345D01*
X0023345Y0301345D02*
X0022948Y0301478D01*
X0022948Y0301478D02*
X0022683Y0301478D01*
X0022683Y0301478D02*
X0022285Y0301345D01*
X0022285Y0301345D02*
X0022020Y0301080D01*
X0022020Y0301080D02*
X0021755Y0300550D01*
X0021755Y0300550D02*
X0021755Y0297368D01*
X0021755Y0297368D02*
X0020031Y0299092D01*
X0338975Y0093121D02*
X0340287Y0094996D01*
X0341224Y0093121D02*
X0341224Y0097058D01*
X0341224Y0097058D02*
X0339725Y0097058D01*
X0339725Y0097058D02*
X0339350Y0096871D01*
X0339350Y0096871D02*
X0339162Y0096683D01*
X0339162Y0096683D02*
X0338975Y0096308D01*
X0338975Y0096308D02*
X0338975Y0095746D01*
X0338975Y0095746D02*
X0339162Y0095371D01*
X0339162Y0095371D02*
X0339350Y0095184D01*
X0339350Y0095184D02*
X0339725Y0094996D01*
X0339725Y0094996D02*
X0341224Y0094996D01*
X0337662Y0093121D02*
X0335600Y0095746D01*
X0337662Y0095746D02*
X0335600Y0093121D01*
X0030899Y0155429D02*
X0031297Y0155296D01*
X0031297Y0155296D02*
X0031695Y0154899D01*
X0031695Y0154899D02*
X0031960Y0154368D01*
X0031960Y0154368D02*
X0031960Y0153838D01*
X0031960Y0153838D02*
X0031827Y0153440D01*
X0031827Y0153440D02*
X0031429Y0152777D01*
X0031429Y0152777D02*
X0031032Y0152380D01*
X0031032Y0152380D02*
X0030369Y0151982D01*
X0030369Y0151982D02*
X0029971Y0151850D01*
X0029971Y0151850D02*
X0029441Y0151850D01*
X0029441Y0151850D02*
X0028911Y0152115D01*
X0028911Y0152115D02*
X0028646Y0152380D01*
X0028646Y0152380D02*
X0028380Y0152910D01*
X0028380Y0152910D02*
X0028380Y0153175D01*
X0028380Y0153175D02*
X0029308Y0154103D01*
X0029308Y0154103D02*
X0029839Y0153573D01*
X0026922Y0154103D02*
X0029706Y0156887D01*
X0029706Y0156887D02*
X0025331Y0155694D01*
X0025331Y0155694D02*
X0028115Y0158478D01*
X0024006Y0157020D02*
X0026790Y0159803D01*
X0026790Y0159803D02*
X0026127Y0160466D01*
X0026127Y0160466D02*
X0025596Y0160731D01*
X0025596Y0160731D02*
X0025066Y0160731D01*
X0025066Y0160731D02*
X0024669Y0160599D01*
X0024669Y0160599D02*
X0024006Y0160201D01*
X0024006Y0160201D02*
X0023608Y0159803D01*
X0023608Y0159803D02*
X0023210Y0159141D01*
X0023210Y0159141D02*
X0023078Y0158743D01*
X0023078Y0158743D02*
X0023078Y0158213D01*
X0023078Y0158213D02*
X0023343Y0157682D01*
X0023343Y0157682D02*
X0024006Y0157020D01*
X0028602Y0224211D02*
X0031386Y0226995D01*
X0027277Y0225537D02*
X0030060Y0228321D01*
X0030060Y0228321D02*
X0025686Y0227128D01*
X0025686Y0227128D02*
X0028470Y0229911D01*
X0026349Y0232032D02*
X0024360Y0230044D01*
X0024360Y0230044D02*
X0024095Y0229514D01*
X0024095Y0229514D02*
X0024095Y0228983D01*
X0024095Y0228983D02*
X0024360Y0228453D01*
X0024360Y0228453D02*
X0024625Y0228188D01*
X0025288Y0233093D02*
X0023565Y0234816D01*
X0023565Y0234816D02*
X0023432Y0232828D01*
X0023432Y0232828D02*
X0023034Y0233226D01*
X0023034Y0233226D02*
X0022637Y0233358D01*
X0022637Y0233358D02*
X0022372Y0233358D01*
X0022372Y0233358D02*
X0021974Y0233226D01*
X0021974Y0233226D02*
X0021311Y0232563D01*
X0021311Y0232563D02*
X0021179Y0232165D01*
X0021179Y0232165D02*
X0021179Y0231900D01*
X0021179Y0231900D02*
X0021311Y0231502D01*
X0021311Y0231502D02*
X0022107Y0230707D01*
X0022107Y0230707D02*
X0022504Y0230574D01*
X0022504Y0230574D02*
X0022769Y0230574D01*
X0089706Y0361319D02*
X0092490Y0364103D01*
X0092490Y0364103D02*
X0091429Y0365164D01*
X0091429Y0365164D02*
X0091032Y0365296D01*
X0091032Y0365296D02*
X0090767Y0365296D01*
X0090767Y0365296D02*
X0090369Y0365164D01*
X0090369Y0365164D02*
X0089971Y0364766D01*
X0089971Y0364766D02*
X0089839Y0364368D01*
X0089839Y0364368D02*
X0089839Y0364103D01*
X0089839Y0364103D02*
X0089971Y0363705D01*
X0089971Y0363705D02*
X0091032Y0362645D01*
X0086922Y0364103D02*
X0089706Y0366887D01*
X0089706Y0366887D02*
X0088646Y0367948D01*
X0088646Y0367948D02*
X0088248Y0368080D01*
X0088248Y0368080D02*
X0087983Y0368080D01*
X0087983Y0368080D02*
X0087585Y0367948D01*
X0087585Y0367948D02*
X0087187Y0367550D01*
X0087187Y0367550D02*
X0087055Y0367152D01*
X0087055Y0367152D02*
X0087055Y0366887D01*
X0087055Y0366887D02*
X0087187Y0366489D01*
X0087187Y0366489D02*
X0088248Y0365429D01*
X0084403Y0366887D02*
X0083873Y0367152D01*
X0083873Y0367152D02*
X0083210Y0367815D01*
X0083210Y0367815D02*
X0083078Y0368213D01*
X0083078Y0368213D02*
X0083078Y0368478D01*
X0083078Y0368478D02*
X0083210Y0368876D01*
X0083210Y0368876D02*
X0083475Y0369141D01*
X0083475Y0369141D02*
X0083873Y0369273D01*
X0083873Y0369273D02*
X0084138Y0369273D01*
X0084138Y0369273D02*
X0084536Y0369141D01*
X0084536Y0369141D02*
X0085199Y0368743D01*
X0085199Y0368743D02*
X0085596Y0368610D01*
X0085596Y0368610D02*
X0085862Y0368610D01*
X0085862Y0368610D02*
X0086259Y0368743D01*
X0086259Y0368743D02*
X0086524Y0369008D01*
X0086524Y0369008D02*
X0086657Y0369406D01*
X0086657Y0369406D02*
X0086657Y0369671D01*
X0086657Y0369671D02*
X0086524Y0370069D01*
X0086524Y0370069D02*
X0085862Y0370731D01*
X0085862Y0370731D02*
X0085331Y0370997D01*
X0084138Y0371925D02*
X0084138Y0372190D01*
X0084138Y0372190D02*
X0084006Y0372587D01*
X0084006Y0372587D02*
X0083343Y0373250D01*
X0083343Y0373250D02*
X0082945Y0373383D01*
X0082945Y0373383D02*
X0082680Y0373383D01*
X0082680Y0373383D02*
X0082282Y0373250D01*
X0082282Y0373250D02*
X0082017Y0372985D01*
X0082017Y0372985D02*
X0081752Y0372455D01*
X0081752Y0372455D02*
X0081752Y0369273D01*
X0081752Y0369273D02*
X0080029Y0370997D01*
X0351530Y0363764D02*
X0351530Y0363499D01*
X0351530Y0363499D02*
X0351795Y0362969D01*
X0351795Y0362969D02*
X0352061Y0362704D01*
X0352061Y0362704D02*
X0352591Y0362439D01*
X0352591Y0362439D02*
X0353121Y0362439D01*
X0353121Y0362439D02*
X0353519Y0362571D01*
X0353519Y0362571D02*
X0354182Y0362969D01*
X0354182Y0362969D02*
X0354579Y0363367D01*
X0354579Y0363367D02*
X0354977Y0364030D01*
X0354977Y0364030D02*
X0355110Y0364427D01*
X0355110Y0364427D02*
X0355110Y0364958D01*
X0355110Y0364958D02*
X0354844Y0365488D01*
X0354844Y0365488D02*
X0354579Y0365753D01*
X0354579Y0365753D02*
X0354049Y0366018D01*
X0354049Y0366018D02*
X0353784Y0366018D01*
X0351000Y0365355D02*
X0349674Y0366681D01*
X0350470Y0364295D02*
X0352326Y0368007D01*
X0352326Y0368007D02*
X0348614Y0366151D01*
X0347686Y0367079D02*
X0350470Y0369862D01*
X0350470Y0369862D02*
X0346095Y0368669D01*
X0346095Y0368669D02*
X0348879Y0371453D01*
X0343444Y0371321D02*
X0344769Y0369995D01*
X0344769Y0369995D02*
X0347553Y0372779D01*
X0029706Y0101319D02*
X0032490Y0104103D01*
X0032490Y0104103D02*
X0031827Y0104766D01*
X0031827Y0104766D02*
X0031297Y0105031D01*
X0031297Y0105031D02*
X0030767Y0105031D01*
X0030767Y0105031D02*
X0030369Y0104899D01*
X0030369Y0104899D02*
X0029706Y0104501D01*
X0029706Y0104501D02*
X0029308Y0104103D01*
X0029308Y0104103D02*
X0028911Y0103440D01*
X0028911Y0103440D02*
X0028778Y0103043D01*
X0028778Y0103043D02*
X0028778Y0102512D01*
X0028778Y0102512D02*
X0029043Y0101982D01*
X0029043Y0101982D02*
X0029706Y0101319D01*
X0025596Y0105959D02*
X0025596Y0105694D01*
X0025596Y0105694D02*
X0025862Y0105164D01*
X0025862Y0105164D02*
X0026127Y0104899D01*
X0026127Y0104899D02*
X0026657Y0104633D01*
X0026657Y0104633D02*
X0027187Y0104633D01*
X0027187Y0104633D02*
X0027585Y0104766D01*
X0027585Y0104766D02*
X0028248Y0105164D01*
X0028248Y0105164D02*
X0028646Y0105561D01*
X0028646Y0105561D02*
X0029043Y0106224D01*
X0029043Y0106224D02*
X0029176Y0106622D01*
X0029176Y0106622D02*
X0029176Y0107152D01*
X0029176Y0107152D02*
X0028911Y0107682D01*
X0028911Y0107682D02*
X0028646Y0107948D01*
X0028646Y0107948D02*
X0028115Y0108213D01*
X0028115Y0108213D02*
X0027850Y0108213D01*
X0022680Y0108345D02*
X0024271Y0106754D01*
X0023475Y0107550D02*
X0026259Y0110334D01*
X0026259Y0110334D02*
X0026127Y0109671D01*
X0026127Y0109671D02*
X0026127Y0109141D01*
X0026127Y0109141D02*
X0026259Y0108743D01*
X0022547Y0110599D02*
X0020426Y0112720D01*
X0058970Y0327279D02*
X0059368Y0327147D01*
X0059368Y0327147D02*
X0059765Y0326749D01*
X0059765Y0326749D02*
X0060031Y0326219D01*
X0060031Y0326219D02*
X0060031Y0325688D01*
X0060031Y0325688D02*
X0059898Y0325291D01*
X0059898Y0325291D02*
X0059500Y0324628D01*
X0059500Y0324628D02*
X0059103Y0324230D01*
X0059103Y0324230D02*
X0058440Y0323832D01*
X0058440Y0323832D02*
X0058042Y0323700D01*
X0058042Y0323700D02*
X0057512Y0323700D01*
X0057512Y0323700D02*
X0056982Y0323965D01*
X0056982Y0323965D02*
X0056716Y0324230D01*
X0056716Y0324230D02*
X0056451Y0324760D01*
X0056451Y0324760D02*
X0056451Y0325026D01*
X0056451Y0325026D02*
X0057379Y0325954D01*
X0057379Y0325954D02*
X0057909Y0325423D01*
X0054993Y0325954D02*
X0057777Y0328737D01*
X0057777Y0328737D02*
X0053402Y0327544D01*
X0053402Y0327544D02*
X0056186Y0330328D01*
X0052077Y0328870D02*
X0054860Y0331654D01*
X0054860Y0331654D02*
X0054198Y0332317D01*
X0054198Y0332317D02*
X0053667Y0332582D01*
X0053667Y0332582D02*
X0053137Y0332582D01*
X0053137Y0332582D02*
X0052739Y0332449D01*
X0052739Y0332449D02*
X0052077Y0332052D01*
X0052077Y0332052D02*
X0051679Y0331654D01*
X0051679Y0331654D02*
X0051281Y0330991D01*
X0051281Y0330991D02*
X0051149Y0330593D01*
X0051149Y0330593D02*
X0051149Y0330063D01*
X0051149Y0330063D02*
X0051414Y0329533D01*
X0051414Y0329533D02*
X0052077Y0328870D01*
X0050221Y0332317D02*
X0048895Y0333642D01*
X0049690Y0331256D02*
X0051546Y0334968D01*
X0051546Y0334968D02*
X0047834Y0333112D01*
X0189348Y0363686D02*
X0188420Y0364614D01*
X0186564Y0363553D02*
X0187889Y0362228D01*
X0187889Y0362228D02*
X0190673Y0365012D01*
X0190673Y0365012D02*
X0189348Y0366337D01*
X0186564Y0368856D02*
X0186961Y0368723D01*
X0186961Y0368723D02*
X0187359Y0368326D01*
X0187359Y0368326D02*
X0187624Y0367795D01*
X0187624Y0367795D02*
X0187624Y0367265D01*
X0187624Y0367265D02*
X0187492Y0366867D01*
X0187492Y0366867D02*
X0187094Y0366205D01*
X0187094Y0366205D02*
X0186696Y0365807D01*
X0186696Y0365807D02*
X0186033Y0365409D01*
X0186033Y0365409D02*
X0185636Y0365277D01*
X0185636Y0365277D02*
X0185105Y0365277D01*
X0185105Y0365277D02*
X0184575Y0365542D01*
X0184575Y0365542D02*
X0184310Y0365807D01*
X0184310Y0365807D02*
X0184045Y0366337D01*
X0184045Y0366337D02*
X0184045Y0366602D01*
X0184045Y0366602D02*
X0184973Y0367530D01*
X0184973Y0367530D02*
X0185503Y0367000D01*
X0185768Y0369916D02*
X0184177Y0371507D01*
X0182189Y0367928D02*
X0184973Y0370712D01*
X0181526Y0370712D02*
X0179405Y0372833D01*
X0179405Y0370712D02*
X0181526Y0372833D01*
X0106855Y0361596D02*
X0109639Y0364380D01*
X0108313Y0363054D02*
X0106722Y0364645D01*
X0105264Y0363187D02*
X0108048Y0365971D01*
X0104866Y0365176D02*
X0103540Y0366501D01*
X0104336Y0364115D02*
X0106192Y0367827D01*
X0106192Y0367827D02*
X0102480Y0365971D01*
X0100226Y0368225D02*
X0101552Y0366899D01*
X0101552Y0366899D02*
X0104336Y0369683D01*
X0097973Y0370478D02*
X0099298Y0369153D01*
X0099298Y0369153D02*
X0102082Y0371936D01*
X0095587Y0372864D02*
X0097177Y0371274D01*
X0096382Y0372069D02*
X0099166Y0374853D01*
X0099166Y0374853D02*
X0099033Y0374190D01*
X0099033Y0374190D02*
X0099033Y0373660D01*
X0099033Y0373660D02*
X0099166Y0373262D01*
X0062698Y0086359D02*
X0065482Y0089143D01*
X0065482Y0089143D02*
X0064819Y0089805D01*
X0064819Y0089805D02*
X0064289Y0090070D01*
X0064289Y0090070D02*
X0063759Y0090070D01*
X0063759Y0090070D02*
X0063361Y0089938D01*
X0063361Y0089938D02*
X0062698Y0089540D01*
X0062698Y0089540D02*
X0062300Y0089143D01*
X0062300Y0089143D02*
X0061903Y0088480D01*
X0061903Y0088480D02*
X0061770Y0088082D01*
X0061770Y0088082D02*
X0061770Y0087552D01*
X0061770Y0087552D02*
X0062035Y0087021D01*
X0062035Y0087021D02*
X0062698Y0086359D01*
X0058589Y0090998D02*
X0058589Y0090733D01*
X0058589Y0090733D02*
X0058854Y0090203D01*
X0058854Y0090203D02*
X0059119Y0089938D01*
X0059119Y0089938D02*
X0059649Y0089673D01*
X0059649Y0089673D02*
X0060179Y0089673D01*
X0060179Y0089673D02*
X0060577Y0089805D01*
X0060577Y0089805D02*
X0061240Y0090203D01*
X0061240Y0090203D02*
X0061638Y0090601D01*
X0061638Y0090601D02*
X0062035Y0091264D01*
X0062035Y0091264D02*
X0062168Y0091661D01*
X0062168Y0091661D02*
X0062168Y0092192D01*
X0062168Y0092192D02*
X0061903Y0092722D01*
X0061903Y0092722D02*
X0061638Y0092987D01*
X0061638Y0092987D02*
X0061107Y0093252D01*
X0061107Y0093252D02*
X0060842Y0093252D01*
X0055672Y0093385D02*
X0057263Y0091794D01*
X0056468Y0092589D02*
X0059251Y0095373D01*
X0059251Y0095373D02*
X0059119Y0094710D01*
X0059119Y0094710D02*
X0059119Y0094180D01*
X0059119Y0094180D02*
X0059251Y0093782D01*
X0055540Y0095638D02*
X0053419Y0097759D01*
X0053419Y0095638D02*
X0055540Y0097759D01*
X0064667Y0211555D02*
X0067451Y0214339D01*
X0064534Y0216991D02*
X0064932Y0216858D01*
X0064932Y0216858D02*
X0065330Y0216460D01*
X0065330Y0216460D02*
X0065595Y0215930D01*
X0065595Y0215930D02*
X0065595Y0215400D01*
X0065595Y0215400D02*
X0065462Y0215002D01*
X0065462Y0215002D02*
X0065064Y0214339D01*
X0065064Y0214339D02*
X0064667Y0213942D01*
X0064667Y0213942D02*
X0064004Y0213544D01*
X0064004Y0213544D02*
X0063606Y0213411D01*
X0063606Y0213411D02*
X0063076Y0213411D01*
X0063076Y0213411D02*
X0062546Y0213677D01*
X0062546Y0213677D02*
X0062280Y0213942D01*
X0062280Y0213942D02*
X0062015Y0214472D01*
X0062015Y0214472D02*
X0062015Y0214737D01*
X0062015Y0214737D02*
X0062943Y0215665D01*
X0062943Y0215665D02*
X0063474Y0215135D01*
X0060557Y0215665D02*
X0063341Y0218449D01*
X0063341Y0218449D02*
X0058966Y0217256D01*
X0058966Y0217256D02*
X0061750Y0220040D01*
X0059099Y0222691D02*
X0060425Y0221365D01*
X0060425Y0221365D02*
X0059231Y0219907D01*
X0059231Y0219907D02*
X0059231Y0220172D01*
X0059231Y0220172D02*
X0059099Y0220570D01*
X0059099Y0220570D02*
X0058436Y0221233D01*
X0058436Y0221233D02*
X0058038Y0221365D01*
X0058038Y0221365D02*
X0057773Y0221365D01*
X0057773Y0221365D02*
X0057376Y0221233D01*
X0057376Y0221233D02*
X0056713Y0220570D01*
X0056713Y0220570D02*
X0056580Y0220172D01*
X0056580Y0220172D02*
X0056580Y0219907D01*
X0056580Y0219907D02*
X0056713Y0219509D01*
X0056713Y0219509D02*
X0057376Y0218847D01*
X0057376Y0218847D02*
X0057773Y0218714D01*
X0057773Y0218714D02*
X0058038Y0218714D01*
X0175575Y0327335D02*
X0171863Y0325479D01*
X0171863Y0325479D02*
X0173719Y0329191D01*
X0168416Y0328926D02*
X0170670Y0329323D01*
X0170007Y0327335D02*
X0172791Y0330119D01*
X0172791Y0330119D02*
X0171730Y0331179D01*
X0171730Y0331179D02*
X0171333Y0331312D01*
X0171333Y0331312D02*
X0171068Y0331312D01*
X0171068Y0331312D02*
X0170670Y0331179D01*
X0170670Y0331179D02*
X0170272Y0330782D01*
X0170272Y0330782D02*
X0170140Y0330384D01*
X0170140Y0330384D02*
X0170140Y0330119D01*
X0170140Y0330119D02*
X0170272Y0329721D01*
X0170272Y0329721D02*
X0171333Y0328661D01*
X0165765Y0331577D02*
X0167356Y0329986D01*
X0166560Y0330782D02*
X0169344Y0333566D01*
X0169344Y0333566D02*
X0169212Y0332903D01*
X0169212Y0332903D02*
X0169212Y0332372D01*
X0169212Y0332372D02*
X0169344Y0331975D01*
X0165632Y0333831D02*
X0163511Y0335952D01*
X0061373Y0281188D02*
X0062698Y0279863D01*
X0062698Y0279863D02*
X0065482Y0282646D01*
X0060710Y0282116D02*
X0060179Y0282381D01*
X0060179Y0282381D02*
X0059517Y0283044D01*
X0059517Y0283044D02*
X0059384Y0283442D01*
X0059384Y0283442D02*
X0059384Y0283707D01*
X0059384Y0283707D02*
X0059517Y0284105D01*
X0059517Y0284105D02*
X0059782Y0284370D01*
X0059782Y0284370D02*
X0060179Y0284502D01*
X0060179Y0284502D02*
X0060445Y0284502D01*
X0060445Y0284502D02*
X0060842Y0284370D01*
X0060842Y0284370D02*
X0061505Y0283972D01*
X0061505Y0283972D02*
X0061903Y0283840D01*
X0061903Y0283840D02*
X0062168Y0283840D01*
X0062168Y0283840D02*
X0062566Y0283972D01*
X0062566Y0283972D02*
X0062831Y0284237D01*
X0062831Y0284237D02*
X0062963Y0284635D01*
X0062963Y0284635D02*
X0062963Y0284900D01*
X0062963Y0284900D02*
X0062831Y0285298D01*
X0062831Y0285298D02*
X0062168Y0285961D01*
X0062168Y0285961D02*
X0061638Y0286226D01*
X0060842Y0287286D02*
X0059119Y0289010D01*
X0059119Y0289010D02*
X0058986Y0287021D01*
X0058986Y0287021D02*
X0058589Y0287419D01*
X0058589Y0287419D02*
X0058191Y0287551D01*
X0058191Y0287551D02*
X0057926Y0287551D01*
X0057926Y0287551D02*
X0057528Y0287419D01*
X0057528Y0287419D02*
X0056865Y0286756D01*
X0056865Y0286756D02*
X0056733Y0286358D01*
X0056733Y0286358D02*
X0056733Y0286093D01*
X0056733Y0286093D02*
X0056865Y0285695D01*
X0056865Y0285695D02*
X0057661Y0284900D01*
X0057661Y0284900D02*
X0058058Y0284768D01*
X0058058Y0284768D02*
X0058323Y0284768D01*
X0235927Y0325138D02*
X0238710Y0327922D01*
X0238710Y0327922D02*
X0235794Y0326862D01*
X0235794Y0326862D02*
X0236854Y0329778D01*
X0236854Y0329778D02*
X0234071Y0326994D01*
X0233673Y0328983D02*
X0232347Y0330308D01*
X0233143Y0327922D02*
X0234999Y0331634D01*
X0234999Y0331634D02*
X0231287Y0329778D01*
X0230359Y0330706D02*
X0233143Y0333490D01*
X0233143Y0333490D02*
X0232082Y0334550D01*
X0232082Y0334550D02*
X0231684Y0334683D01*
X0231684Y0334683D02*
X0231419Y0334683D01*
X0231419Y0334683D02*
X0231022Y0334550D01*
X0231022Y0334550D02*
X0230624Y0334153D01*
X0230624Y0334153D02*
X0230491Y0333755D01*
X0230491Y0333755D02*
X0230491Y0333490D01*
X0230491Y0333490D02*
X0230624Y0333092D01*
X0230624Y0333092D02*
X0231684Y0332032D01*
X0062618Y0162572D02*
X0065402Y0165356D01*
X0062485Y0168007D02*
X0062883Y0167874D01*
X0062883Y0167874D02*
X0063281Y0167477D01*
X0063281Y0167477D02*
X0063546Y0166946D01*
X0063546Y0166946D02*
X0063546Y0166416D01*
X0063546Y0166416D02*
X0063413Y0166018D01*
X0063413Y0166018D02*
X0063015Y0165356D01*
X0063015Y0165356D02*
X0062618Y0164958D01*
X0062618Y0164958D02*
X0061955Y0164560D01*
X0061955Y0164560D02*
X0061557Y0164428D01*
X0061557Y0164428D02*
X0061027Y0164428D01*
X0061027Y0164428D02*
X0060497Y0164693D01*
X0060497Y0164693D02*
X0060232Y0164958D01*
X0060232Y0164958D02*
X0059966Y0165488D01*
X0059966Y0165488D02*
X0059966Y0165753D01*
X0059966Y0165753D02*
X0060894Y0166681D01*
X0060894Y0166681D02*
X0061425Y0166151D01*
X0058508Y0166681D02*
X0061292Y0169465D01*
X0061292Y0169465D02*
X0056917Y0168272D01*
X0056917Y0168272D02*
X0059701Y0171056D01*
X0057183Y0173575D02*
X0057713Y0173044D01*
X0057713Y0173044D02*
X0057845Y0172647D01*
X0057845Y0172647D02*
X0057845Y0172382D01*
X0057845Y0172382D02*
X0057713Y0171719D01*
X0057713Y0171719D02*
X0057315Y0171056D01*
X0057315Y0171056D02*
X0056255Y0169995D01*
X0056255Y0169995D02*
X0055857Y0169863D01*
X0055857Y0169863D02*
X0055592Y0169863D01*
X0055592Y0169863D02*
X0055194Y0169995D01*
X0055194Y0169995D02*
X0054664Y0170526D01*
X0054664Y0170526D02*
X0054531Y0170923D01*
X0054531Y0170923D02*
X0054531Y0171189D01*
X0054531Y0171189D02*
X0054664Y0171586D01*
X0054664Y0171586D02*
X0055327Y0172249D01*
X0055327Y0172249D02*
X0055724Y0172382D01*
X0055724Y0172382D02*
X0055989Y0172382D01*
X0055989Y0172382D02*
X0056387Y0172249D01*
X0056387Y0172249D02*
X0056917Y0171719D01*
X0056917Y0171719D02*
X0057050Y0171321D01*
X0057050Y0171321D02*
X0057050Y0171056D01*
X0057050Y0171056D02*
X0056917Y0170658D01*
X0190141Y0326596D02*
X0189213Y0327524D01*
X0187357Y0326464D02*
X0188682Y0325138D01*
X0188682Y0325138D02*
X0191466Y0327922D01*
X0191466Y0327922D02*
X0190141Y0329248D01*
X0187357Y0331766D02*
X0187754Y0331634D01*
X0187754Y0331634D02*
X0188152Y0331236D01*
X0188152Y0331236D02*
X0188417Y0330706D01*
X0188417Y0330706D02*
X0188417Y0330176D01*
X0188417Y0330176D02*
X0188285Y0329778D01*
X0188285Y0329778D02*
X0187887Y0329115D01*
X0187887Y0329115D02*
X0187489Y0328717D01*
X0187489Y0328717D02*
X0186826Y0328320D01*
X0186826Y0328320D02*
X0186429Y0328187D01*
X0186429Y0328187D02*
X0185899Y0328187D01*
X0185899Y0328187D02*
X0185368Y0328452D01*
X0185368Y0328452D02*
X0185103Y0328717D01*
X0185103Y0328717D02*
X0184838Y0329248D01*
X0184838Y0329248D02*
X0184838Y0329513D01*
X0184838Y0329513D02*
X0185766Y0330441D01*
X0185766Y0330441D02*
X0186296Y0329911D01*
X0186561Y0332827D02*
X0184971Y0334418D01*
X0182982Y0330838D02*
X0185766Y0333622D01*
X0182319Y0333622D02*
X0180198Y0335743D01*
D14*
X0241123Y0024409D02*
X0241123Y0034882D01*
X0241123Y0004724D02*
X0241123Y0015197D01*
X0242282Y0034882D02*
X0241123Y0034882D01*
X0242282Y0015197D02*
X0241123Y0015197D01*
X0242326Y0024409D02*
X0241123Y0024409D01*
X0242326Y0004724D02*
X0241123Y0004724D01*
X0250392Y0034882D02*
X0251595Y0034882D01*
X0250392Y0015197D02*
X0251595Y0015197D01*
X0250436Y0024409D02*
X0251595Y0024409D01*
X0250436Y0004724D02*
X0251595Y0004724D01*
X0251595Y0034882D02*
X0251595Y0024409D01*
X0251595Y0015197D02*
X0251595Y0004724D01*
X0322619Y0089370D02*
X0322619Y0099843D01*
X0322619Y0070866D02*
X0322619Y0081339D01*
X0323778Y0099843D02*
X0322619Y0099843D01*
X0323778Y0081339D02*
X0322619Y0081339D01*
X0323822Y0089370D02*
X0322619Y0089370D01*
X0323822Y0070866D02*
X0322619Y0070866D01*
X0331888Y0099843D02*
X0333091Y0099843D01*
X0331888Y0081339D02*
X0333091Y0081339D01*
X0331932Y0089370D02*
X0333091Y0089370D01*
X0331932Y0070866D02*
X0333091Y0070866D01*
X0333091Y0099843D02*
X0333091Y0089370D01*
X0333091Y0081339D02*
X0333091Y0070866D01*
X0000197Y0000118D02*
%LPD*%
G01*
D14*
X0241123Y0024508D02*
X0241123Y0034981D01*
X0241123Y0004823D02*
X0241123Y0015296D01*
X0242282Y0034981D02*
X0241123Y0034981D01*
X0242282Y0015296D02*
X0241123Y0015296D01*
X0242326Y0024508D02*
X0241123Y0024508D01*
X0242326Y0004823D02*
X0241123Y0004823D01*
X0250392Y0034981D02*
X0251595Y0034981D01*
X0250392Y0015296D02*
X0251595Y0015296D01*
X0250436Y0024508D02*
X0251595Y0024508D01*
X0250436Y0004823D02*
X0251595Y0004823D01*
X0251595Y0034981D02*
X0251595Y0024508D01*
X0251595Y0015296D02*
X0251595Y0004823D01*
X0322619Y0089469D02*
X0322619Y0099941D01*
X0322619Y0070965D02*
X0322619Y0081437D01*
X0323778Y0099941D02*
X0322619Y0099941D01*
X0323778Y0081437D02*
X0322619Y0081437D01*
X0323822Y0089469D02*
X0322619Y0089469D01*
X0323822Y0070965D02*
X0322619Y0070965D01*
X0331888Y0099941D02*
X0333091Y0099941D01*
X0331888Y0081437D02*
X0333091Y0081437D01*
X0331932Y0089469D02*
X0333091Y0089469D01*
X0331932Y0070965D02*
X0333091Y0070965D01*
X0333091Y0099941D02*
X0333091Y0089469D01*
X0333091Y0081437D02*
X0333091Y0070965D01*
M02*
