M48
INCH,TZ
T01C0.011800
%
T01
X394Y7677
X591Y591
X12992Y7480
X12992Y591
X1068Y5016
X1068Y4622
X6747Y7559
X6747Y7087
X6747Y6614
X6747Y6142
X8720Y6850
X8720Y6496
X12146Y6850
X12146Y6476
X12146Y6102
X1058Y5768
X1085Y7414
X1107Y6585
X1829Y4061
X1838Y4818
X1864Y5597
X1912Y7426
X1914Y6494
X2086Y5792
X2260Y7398
X2347Y4189
X2377Y5504
X2652Y4055
X2708Y7589
X2785Y6042
X2796Y4796
X2950Y7117
X3073Y6106
X3367Y6083
X3609Y6484
X3741Y5678
X3794Y6004
X3804Y5286
X3824Y4203
X3874Y4575
X3914Y4925
X4135Y5583
X4444Y4055
X4513Y5630
X4827Y6054
X4946Y5768
X5044Y5264
X5066Y6727
X5109Y4215
X5132Y6024
X5201Y7398
X5497Y7339
X5680Y6069
X5692Y7568
X6019Y4695
X6495Y4687
X6737Y4518
X6747Y4931
X6763Y4036
X1068Y5016
X1068Y4622
X6747Y7559
X6747Y7087
X6747Y6615
X6747Y6142
X8726Y5956
X8878Y6209
X8720Y6496
X8720Y6851
X9722Y6517
X9996Y6412
X10239Y6625
X9689Y6112
X11168Y6852
X12145Y6851
X12145Y6477
X12145Y6103
M30
