G75*
G70*
%OFA0B0*%
%FSLAX25Y25*%
%IPPOS*%
%LPD*%
%AMOC8*
5,1,8,0,0,1.08239X$1,22.5*
%
%AMM1*
21,1,0.021650,0.052760,0.000000,0.000000,270.000000*
21,1,0.017320,0.057090,0.000000,0.000000,270.000000*
1,1,0.004330,-0.026380,-0.008660*
1,1,0.004330,-0.026380,0.008660*
1,1,0.004330,0.026380,0.008660*
1,1,0.004330,0.026380,-0.008660*
%
%ADD10C,0.02362*%
%ADD11O,0.00787X0.04823*%
%ADD12O,0.36614X0.00787*%
%ADD14C,0.00787*%
%ADD16M1*%
%ADD17C,0.00984*%
%ADD18C,0.01850*%
%ADD19C,0.01575*%
X0000000Y0000000D02*
%LPD*%
G01*
D10*
X0076772Y0062756D03*
D11*
X0041732Y0054980D03*
D12*
X0059646Y0065118D03*
X0059646Y0052913D03*
D10*
X0076772Y0059016D03*
X0076772Y0055276D03*
X0042520Y0059213D03*
X0042520Y0062756D03*
D10*
X0003937Y0076772D03*
X0000000Y0080709D03*
X0005906Y0005906D03*
X0129921Y0005906D03*
X0129921Y0074803D03*
X0041339Y0052520D02*
G01*
G75*
G36*
X0076559Y0064922D02*
X0075927Y0064796D01*
X0075432Y0064465D01*
X0074913Y0064192D01*
X0074646Y0064371D01*
X0074331Y0064433D01*
X0069056Y0064433D01*
X0068741Y0064371D01*
X0068474Y0064192D01*
X0067853Y0064326D01*
X0067690Y0064434D01*
X0066999Y0064572D01*
X0066308Y0064434D01*
X0066197Y0064360D01*
X0066182Y0064371D01*
X0065867Y0064433D01*
X0060591Y0064433D01*
X0060276Y0064371D01*
X0060009Y0064192D01*
X0059964Y0064125D01*
X0059946Y0064118D01*
X0059326Y0064118D01*
X0059308Y0064125D01*
X0059263Y0064192D01*
X0058997Y0064371D01*
X0058682Y0064433D01*
X0053406Y0064433D01*
X0053091Y0064371D01*
X0052824Y0064192D01*
X0052646Y0063925D01*
X0052583Y0063610D01*
X0052583Y0061878D01*
X0052646Y0061563D01*
X0052824Y0061296D01*
X0053091Y0061118D01*
X0053406Y0061055D01*
X0055551Y0061055D01*
X0055926Y0060599D01*
X0055906Y0060498D01*
X0056043Y0059807D01*
X0056435Y0059221D01*
X0057021Y0058829D01*
X0057712Y0058692D01*
X0058403Y0058829D01*
X0058776Y0059078D01*
X0059367Y0058804D01*
X0059367Y0058138D01*
X0059460Y0057669D01*
X0059704Y0057304D01*
X0059610Y0057064D01*
X0059569Y0056989D01*
X0059105Y0056818D01*
X0058997Y0056890D01*
X0058682Y0056953D01*
X0053406Y0056953D01*
X0053117Y0056896D01*
X0052896Y0057043D01*
X0052205Y0057181D01*
X0051659Y0057072D01*
X0051318Y0057449D01*
X0051269Y0057551D01*
X0051348Y0057669D01*
X0051441Y0058138D01*
X0051441Y0058217D01*
X0047579Y0058217D01*
X0047579Y0059791D01*
X0051441Y0059791D01*
X0051441Y0059870D01*
X0051348Y0060339D01*
X0051083Y0060736D01*
X0051053Y0060756D01*
X0051005Y0060858D01*
X0050940Y0061507D01*
X0050977Y0061563D01*
X0051040Y0061878D01*
X0051040Y0063610D01*
X0050977Y0063925D01*
X0050799Y0064192D01*
X0050532Y0064371D01*
X0050217Y0064433D01*
X0044941Y0064433D01*
X0044627Y0064371D01*
X0044081Y0064317D01*
X0043365Y0064796D01*
X0042733Y0064922D01*
X0042792Y0065512D01*
X0076501Y0065512D01*
X0076559Y0064922D01*
D02*
G37*
G36*
X0075442Y0061041D02*
X0075927Y0060716D01*
X0076772Y0060548D01*
X0076772Y0057484D01*
X0075927Y0057316D01*
X0075438Y0056989D01*
X0074913Y0056712D01*
X0074646Y0056890D01*
X0074331Y0056953D01*
X0069056Y0056953D01*
X0068741Y0056890D01*
X0068474Y0056712D01*
X0068295Y0056445D01*
X0068260Y0056268D01*
X0067083Y0056268D01*
X0066735Y0056703D01*
X0066732Y0057272D01*
X0066998Y0057669D01*
X0067091Y0058138D01*
X0067091Y0058217D01*
X0063229Y0058217D01*
X0063229Y0059791D01*
X0067091Y0059791D01*
X0067091Y0059870D01*
X0066998Y0060339D01*
X0066960Y0060395D01*
X0066963Y0060442D01*
X0067259Y0061011D01*
X0067690Y0061097D01*
X0067833Y0061192D01*
X0068474Y0061296D01*
X0068741Y0061118D01*
X0069056Y0061055D01*
X0074331Y0061055D01*
X0074646Y0061118D01*
X0074913Y0061296D01*
X0075442Y0061041D01*
D02*
G37*
G36*
X0042387Y0056825D02*
X0042290Y0056338D01*
X0042428Y0055647D01*
X0042819Y0055061D01*
X0043405Y0054669D01*
X0044096Y0054532D01*
X0044118Y0054514D01*
X0044118Y0054398D01*
X0044181Y0054083D01*
X0044360Y0053816D01*
X0044626Y0053638D01*
X0044941Y0053575D01*
X0050217Y0053575D01*
X0050532Y0053638D01*
X0050799Y0053816D01*
X0051222Y0053900D01*
X0051514Y0053705D01*
X0052205Y0053568D01*
X0052896Y0053705D01*
X0052943Y0053736D01*
X0053091Y0053638D01*
X0053406Y0053575D01*
X0058682Y0053575D01*
X0058997Y0053638D01*
X0059263Y0053816D01*
X0059308Y0053883D01*
X0059326Y0053890D01*
X0059946Y0053890D01*
X0059964Y0053883D01*
X0060009Y0053816D01*
X0060276Y0053638D01*
X0060591Y0053575D01*
X0065867Y0053575D01*
X0066182Y0053638D01*
X0066448Y0053816D01*
X0066627Y0054083D01*
X0066662Y0054260D01*
X0068260Y0054260D01*
X0068295Y0054083D01*
X0068474Y0053816D01*
X0068741Y0053638D01*
X0069056Y0053575D01*
X0074331Y0053575D01*
X0074646Y0053638D01*
X0074913Y0053816D01*
X0075449Y0053556D01*
X0075927Y0053236D01*
X0076559Y0053111D01*
X0076501Y0052520D01*
X0041339Y0052520D01*
X0041339Y0056742D01*
X0041832Y0057059D01*
X0042387Y0056825D01*
D02*
G37*
D14*
X0052205Y0055374D02*
X0052260Y0055319D01*
X0055894Y0055319D01*
X0055950Y0055264D01*
X0065579Y0062610D02*
X0065579Y0062645D01*
X0066988Y0062755D02*
X0066999Y0062766D01*
X0065579Y0062645D02*
X0065689Y0062755D01*
X0066988Y0062755D01*
X0044096Y0056338D02*
X0044523Y0056338D01*
X0044908Y0055953D01*
X0046796Y0055953D01*
X0047485Y0055264D01*
X0063229Y0055264D02*
X0069922Y0055264D01*
X0072078Y0055649D02*
X0075932Y0055649D01*
X0071693Y0055264D02*
X0072078Y0055649D01*
X0075932Y0055649D02*
X0076346Y0056063D01*
X0076772Y0056063D01*
X0047174Y0063150D02*
X0047579Y0062744D01*
X0042520Y0063150D02*
X0047174Y0063150D01*
D16*
X0056044Y0062744D02*
D03*
X0056044Y0055264D02*
D03*
X0047579Y0055264D02*
D03*
X0047579Y0059004D02*
D03*
X0071693Y0062744D02*
D03*
X0071693Y0055264D02*
D03*
X0063229Y0055264D02*
D03*
X0063229Y0059004D02*
D03*
D16*
X0047579Y0062744D02*
D03*
X0063229Y0062744D02*
D03*
D12*
X0059646Y0065118D02*
D03*
X0059646Y0052914D02*
D03*
D11*
X0041733Y0054981D02*
D03*
D17*
X0059240Y0058140D02*
X0059513Y0058414D01*
X0062638Y0058414D01*
X0063229Y0059004D01*
X0055509Y0058140D02*
X0059240Y0058140D01*
X0055281Y0058367D02*
X0055509Y0058140D01*
X0047917Y0058560D02*
X0048570Y0059213D01*
X0047544Y0058560D02*
X0047917Y0058560D01*
D18*
X0057671Y0060539D02*
X0057671Y0062436D01*
X0057671Y0060539D02*
X0057712Y0060498D01*
D19*
X0071699Y0062750D02*
X0076766Y0062750D01*
X0076772Y0062756D01*
X0071693Y0062744D02*
X0071699Y0062750D01*
D10*
X0076772Y0062756D02*
D03*
X0076772Y0059016D02*
D03*
X0076772Y0055276D02*
D03*
X0042520Y0059213D02*
D03*
X0042520Y0062756D02*
D03*
X0052205Y0055374D02*
D03*
X0066999Y0062766D02*
D03*
X0057712Y0060498D02*
D03*
X0044096Y0056338D02*
D03*
X0042579Y0053805D02*
D03*
X0055281Y0058367D02*
D03*
X0052542Y0059423D02*
D03*
M02*
