G75*
G70*
%OFA0B0*%
%FSLAX25Y25*%
%IPPOS*%
%LPD*%
%AMOC8*
5,1,8,0,0,1.08239X$1,22.5*
%
%AMM10*
21,1,0.025200,0.019680,0.000000,0.000000,0.000000*
21,1,0.015750,0.029130,0.000000,0.000000,0.000000*
1,1,0.009450,0.007870,-0.009840*
1,1,0.009450,-0.007870,-0.009840*
1,1,0.009450,-0.007870,0.009840*
1,1,0.009450,0.007870,0.009840*
%
%AMM7*
21,1,0.029130,0.018900,0.000000,0.000000,180.000000*
21,1,0.018900,0.029130,0.000000,0.000000,180.000000*
1,1,0.010240,-0.009450,0.009450*
1,1,0.010240,0.009450,0.009450*
1,1,0.010240,0.009450,-0.009450*
1,1,0.010240,-0.009450,-0.009450*
%
%AMM8*
21,1,0.025200,0.019680,0.000000,0.000000,270.000000*
21,1,0.015750,0.029130,0.000000,0.000000,270.000000*
1,1,0.009450,-0.009840,-0.007870*
1,1,0.009450,-0.009840,0.007870*
1,1,0.009450,0.009840,0.007870*
1,1,0.009450,0.009840,-0.007870*
%
%AMM9*
21,1,0.038980,0.026770,0.000000,0.000000,270.000000*
21,1,0.026770,0.038980,0.000000,0.000000,270.000000*
1,1,0.012210,-0.013390,-0.013390*
1,1,0.012210,-0.013390,0.013390*
1,1,0.012210,0.013390,0.013390*
1,1,0.012210,0.013390,-0.013390*
%
%ADD10C,0.02362*%
%ADD30C,0.02913*%
%ADD35M7*%
%ADD36M8*%
%ADD37M9*%
%ADD38M10*%
X0000000Y0000000D02*
%LPD*%
G01*
D10*
X0076772Y0062756D03*
X0076772Y0059016D03*
X0076772Y0055276D03*
X0042520Y0059213D03*
X0042520Y0062756D03*
X0087894Y0035925D03*
X0087894Y0031201D03*
X0087894Y0040650D03*
X0087894Y0045374D03*
X0031102Y0019941D03*
X0031102Y0016004D03*
X0029626Y0008760D02*
%LPD*%
G01*
D10*
X0087894Y0035925D03*
X0087894Y0031201D03*
X0087894Y0040650D03*
X0087894Y0045374D03*
X0031102Y0019941D03*
X0031102Y0016004D03*
G36*
G01*
X0046555Y0039354D02*
X0046555Y0038173D01*
G75*
G02*
X0045965Y0037582I-000591J0000000D01*
G01*
X0041929Y0037582D01*
G75*
G02*
X0041339Y0038173I0000000J0000591D01*
G01*
X0041339Y0039354D01*
G75*
G02*
X0041929Y0039944I0000591J0000000D01*
G01*
X0045965Y0039944D01*
G75*
G02*
X0046555Y0039354I0000000J-000591D01*
G01*
G37*
G36*
G01*
X0046555Y0035613D02*
X0046555Y0034432D01*
G75*
G02*
X0045965Y0033842I-000591J0000000D01*
G01*
X0041929Y0033842D01*
G75*
G02*
X0041339Y0034432I0000000J0000591D01*
G01*
X0041339Y0035613D01*
G75*
G02*
X0041929Y0036204I0000591J0000000D01*
G01*
X0045965Y0036204D01*
G75*
G02*
X0046555Y0035613I0000000J-000591D01*
G01*
G37*
G36*
G01*
X0046555Y0031873D02*
X0046555Y0030692D01*
G75*
G02*
X0045965Y0030102I-000591J0000000D01*
G01*
X0041929Y0030102D01*
G75*
G02*
X0041339Y0030692I0000000J0000591D01*
G01*
X0041339Y0031873D01*
G75*
G02*
X0041929Y0032464I0000591J0000000D01*
G01*
X0045965Y0032464D01*
G75*
G02*
X0046555Y0031873I0000000J-000591D01*
G01*
G37*
G36*
G01*
X0037598Y0031873D02*
X0037598Y0030692D01*
G75*
G02*
X0037008Y0030102I-000591J0000000D01*
G01*
X0032972Y0030102D01*
G75*
G02*
X0032382Y0030692I0000000J0000591D01*
G01*
X0032382Y0031873D01*
G75*
G02*
X0032972Y0032464I0000591J0000000D01*
G01*
X0037008Y0032464D01*
G75*
G02*
X0037598Y0031873I0000000J-000591D01*
G01*
G37*
G36*
G01*
X0037598Y0039354D02*
X0037598Y0038173D01*
G75*
G02*
X0037008Y0037582I-000591J0000000D01*
G01*
X0032972Y0037582D01*
G75*
G02*
X0032382Y0038173I0000000J0000591D01*
G01*
X0032382Y0039354D01*
G75*
G02*
X0032972Y0039944I0000591J0000000D01*
G01*
X0037008Y0039944D01*
G75*
G02*
X0037598Y0039354I0000000J-000591D01*
G01*
G37*
G36*
G01*
X0046280Y0017067D02*
X0047618Y0017067D01*
G75*
G02*
X0048169Y0016516I0000000J-000551D01*
G01*
X0048169Y0015414D01*
G75*
G02*
X0047618Y0014862I-000551J0000000D01*
G01*
X0046280Y0014862D01*
G75*
G02*
X0045728Y0015414I0000000J0000551D01*
G01*
X0045728Y0016516D01*
G75*
G02*
X0046280Y0017067I0000551J0000000D01*
G01*
G37*
G36*
G01*
X0046280Y0013288D02*
X0047618Y0013288D01*
G75*
G02*
X0048169Y0012736I0000000J-000551D01*
G01*
X0048169Y0011634D01*
G75*
G02*
X0047618Y0011083I-000551J0000000D01*
G01*
X0046280Y0011083D01*
G75*
G02*
X0045728Y0011634I0000000J0000551D01*
G01*
X0045728Y0012736D01*
G75*
G02*
X0046280Y0013288I0000551J0000000D01*
G01*
G37*
G36*
G01*
X0072795Y0039784D02*
X0072795Y0041122D01*
G75*
G02*
X0073346Y0041673I0000551J0000000D01*
G01*
X0074449Y0041673D01*
G75*
G02*
X0075000Y0041122I0000000J-000551D01*
G01*
X0075000Y0039784D01*
G75*
G02*
X0074449Y0039232I-000551J0000000D01*
G01*
X0073346Y0039232D01*
G75*
G02*
X0072795Y0039784I0000000J0000551D01*
G01*
G37*
G36*
G01*
X0076575Y0039784D02*
X0076575Y0041122D01*
G75*
G02*
X0077126Y0041673I0000551J0000000D01*
G01*
X0078228Y0041673D01*
G75*
G02*
X0078780Y0041122I0000000J-000551D01*
G01*
X0078780Y0039784D01*
G75*
G02*
X0078228Y0039232I-000551J0000000D01*
G01*
X0077126Y0039232D01*
G75*
G02*
X0076575Y0039784I0000000J0000551D01*
G01*
G37*
G36*
G01*
X0086142Y0044784D02*
X0086142Y0043445D01*
G75*
G02*
X0085591Y0042894I-000551J0000000D01*
G01*
X0084488Y0042894D01*
G75*
G02*
X0083937Y0043445I0000000J0000551D01*
G01*
X0083937Y0044784D01*
G75*
G02*
X0084488Y0045335I0000551J0000000D01*
G01*
X0085591Y0045335D01*
G75*
G02*
X0086142Y0044784I0000000J-000551D01*
G01*
G37*
G36*
G01*
X0082362Y0044784D02*
X0082362Y0043445D01*
G75*
G02*
X0081811Y0042894I-000551J0000000D01*
G01*
X0080709Y0042894D01*
G75*
G02*
X0080157Y0043445I0000000J0000551D01*
G01*
X0080157Y0044784D01*
G75*
G02*
X0080709Y0045335I0000551J0000000D01*
G01*
X0081811Y0045335D01*
G75*
G02*
X0082362Y0044784I0000000J-000551D01*
G01*
G37*
G36*
G01*
X0064390Y0036043D02*
X0064390Y0037382D01*
G75*
G02*
X0064941Y0037933I0000551J0000000D01*
G01*
X0066043Y0037933D01*
G75*
G02*
X0066595Y0037382I0000000J-000551D01*
G01*
X0066595Y0036043D01*
G75*
G02*
X0066043Y0035492I-000551J0000000D01*
G01*
X0064941Y0035492D01*
G75*
G02*
X0064390Y0036043I0000000J0000551D01*
G01*
G37*
G36*
G01*
X0068169Y0036043D02*
X0068169Y0037382D01*
G75*
G02*
X0068720Y0037933I0000551J0000000D01*
G01*
X0069823Y0037933D01*
G75*
G02*
X0070374Y0037382I0000000J-000551D01*
G01*
X0070374Y0036043D01*
G75*
G02*
X0069823Y0035492I-000551J0000000D01*
G01*
X0068720Y0035492D01*
G75*
G02*
X0068169Y0036043I0000000J0000551D01*
G01*
G37*
G36*
G01*
X0085945Y0041122D02*
X0085945Y0039784D01*
G75*
G02*
X0085394Y0039232I-000551J0000000D01*
G01*
X0084291Y0039232D01*
G75*
G02*
X0083740Y0039784I0000000J0000551D01*
G01*
X0083740Y0041122D01*
G75*
G02*
X0084291Y0041673I0000551J0000000D01*
G01*
X0085394Y0041673D01*
G75*
G02*
X0085945Y0041122I0000000J-000551D01*
G01*
G37*
G36*
G01*
X0082165Y0041122D02*
X0082165Y0039784D01*
G75*
G02*
X0081614Y0039232I-000551J0000000D01*
G01*
X0080512Y0039232D01*
G75*
G02*
X0079961Y0039784I0000000J0000551D01*
G01*
X0079961Y0041122D01*
G75*
G02*
X0080512Y0041673I0000551J0000000D01*
G01*
X0081614Y0041673D01*
G75*
G02*
X0082165Y0041122I0000000J-000551D01*
G01*
G37*
G36*
G01*
X0080669Y0019606D02*
X0080669Y0020945D01*
G75*
G02*
X0081220Y0021496I0000551J0000000D01*
G01*
X0082323Y0021496D01*
G75*
G02*
X0082874Y0020945I0000000J-000551D01*
G01*
X0082874Y0019606D01*
G75*
G02*
X0082323Y0019055I-000551J0000000D01*
G01*
X0081220Y0019055D01*
G75*
G02*
X0080669Y0019606I0000000J0000551D01*
G01*
G37*
G36*
G01*
X0084449Y0019606D02*
X0084449Y0020945D01*
G75*
G02*
X0085000Y0021496I0000551J0000000D01*
G01*
X0086102Y0021496D01*
G75*
G02*
X0086654Y0020945I0000000J-000551D01*
G01*
X0086654Y0019606D01*
G75*
G02*
X0086102Y0019055I-000551J0000000D01*
G01*
X0085000Y0019055D01*
G75*
G02*
X0084449Y0019606I0000000J0000551D01*
G01*
G37*
G36*
G01*
X0050160Y0012106D02*
X0050160Y0012894D01*
G75*
G02*
X0050554Y0013288I0000394J0000000D01*
G01*
X0055574Y0013288D01*
G75*
G02*
X0055967Y0012894I0000000J-000394D01*
G01*
X0055967Y0012106D01*
G75*
G02*
X0055574Y0011713I-000394J0000000D01*
G01*
X0050554Y0011713D01*
G75*
G02*
X0050160Y0012106I0000000J0000394D01*
G01*
G37*
G36*
G01*
X0050160Y0014666D02*
X0050160Y0015453D01*
G75*
G02*
X0050554Y0015847I0000394J0000000D01*
G01*
X0055574Y0015847D01*
G75*
G02*
X0055967Y0015453I0000000J-000394D01*
G01*
X0055967Y0014666D01*
G75*
G02*
X0055574Y0014272I-000394J0000000D01*
G01*
X0050554Y0014272D01*
G75*
G02*
X0050160Y0014666I0000000J0000394D01*
G01*
G37*
G36*
G01*
X0050160Y0017225D02*
X0050160Y0018012D01*
G75*
G02*
X0050554Y0018406I0000394J0000000D01*
G01*
X0055574Y0018406D01*
G75*
G02*
X0055967Y0018012I0000000J-000394D01*
G01*
X0055967Y0017225D01*
G75*
G02*
X0055574Y0016831I-000394J0000000D01*
G01*
X0050554Y0016831D01*
G75*
G02*
X0050160Y0017225I0000000J0000394D01*
G01*
G37*
G36*
G01*
X0050160Y0019784D02*
X0050160Y0020571D01*
G75*
G02*
X0050554Y0020965I0000394J0000000D01*
G01*
X0055574Y0020965D01*
G75*
G02*
X0055967Y0020571I0000000J-000394D01*
G01*
X0055967Y0019784D01*
G75*
G02*
X0055574Y0019390I-000394J0000000D01*
G01*
X0050554Y0019390D01*
G75*
G02*
X0050160Y0019784I0000000J0000394D01*
G01*
G37*
G36*
G01*
X0050160Y0022343D02*
X0050160Y0023130D01*
G75*
G02*
X0050554Y0023524I0000394J0000000D01*
G01*
X0055574Y0023524D01*
G75*
G02*
X0055967Y0023130I0000000J-000394D01*
G01*
X0055967Y0022343D01*
G75*
G02*
X0055574Y0021949I-000394J0000000D01*
G01*
X0050554Y0021949D01*
G75*
G02*
X0050160Y0022343I0000000J0000394D01*
G01*
G37*
G36*
G01*
X0050160Y0024902D02*
X0050160Y0025689D01*
G75*
G02*
X0050554Y0026083I0000394J0000000D01*
G01*
X0055574Y0026083D01*
G75*
G02*
X0055967Y0025689I0000000J-000394D01*
G01*
X0055967Y0024902D01*
G75*
G02*
X0055574Y0024508I-000394J0000000D01*
G01*
X0050554Y0024508D01*
G75*
G02*
X0050160Y0024902I0000000J0000394D01*
G01*
G37*
G36*
G01*
X0050160Y0027461D02*
X0050160Y0028248D01*
G75*
G02*
X0050554Y0028642I0000394J0000000D01*
G01*
X0055574Y0028642D01*
G75*
G02*
X0055967Y0028248I0000000J-000394D01*
G01*
X0055967Y0027461D01*
G75*
G02*
X0055574Y0027067I-000394J0000000D01*
G01*
X0050554Y0027067D01*
G75*
G02*
X0050160Y0027461I0000000J0000394D01*
G01*
G37*
G36*
G01*
X0072700Y0027461D02*
X0072700Y0028248D01*
G75*
G02*
X0073093Y0028642I0000394J0000000D01*
G01*
X0078113Y0028642D01*
G75*
G02*
X0078507Y0028248I0000000J-000394D01*
G01*
X0078507Y0027461D01*
G75*
G02*
X0078113Y0027067I-000394J0000000D01*
G01*
X0073093Y0027067D01*
G75*
G02*
X0072700Y0027461I0000000J0000394D01*
G01*
G37*
G36*
G01*
X0072700Y0024902D02*
X0072700Y0025689D01*
G75*
G02*
X0073093Y0026083I0000394J0000000D01*
G01*
X0078113Y0026083D01*
G75*
G02*
X0078507Y0025689I0000000J-000394D01*
G01*
X0078507Y0024902D01*
G75*
G02*
X0078113Y0024508I-000394J0000000D01*
G01*
X0073093Y0024508D01*
G75*
G02*
X0072700Y0024902I0000000J0000394D01*
G01*
G37*
G36*
G01*
X0072700Y0022343D02*
X0072700Y0023130D01*
G75*
G02*
X0073093Y0023524I0000394J0000000D01*
G01*
X0078113Y0023524D01*
G75*
G02*
X0078507Y0023130I0000000J-000394D01*
G01*
X0078507Y0022343D01*
G75*
G02*
X0078113Y0021949I-000394J0000000D01*
G01*
X0073093Y0021949D01*
G75*
G02*
X0072700Y0022343I0000000J0000394D01*
G01*
G37*
G36*
G01*
X0072700Y0019784D02*
X0072700Y0020571D01*
G75*
G02*
X0073093Y0020965I0000394J0000000D01*
G01*
X0078113Y0020965D01*
G75*
G02*
X0078507Y0020571I0000000J-000394D01*
G01*
X0078507Y0019784D01*
G75*
G02*
X0078113Y0019390I-000394J0000000D01*
G01*
X0073093Y0019390D01*
G75*
G02*
X0072700Y0019784I0000000J0000394D01*
G01*
G37*
G36*
G01*
X0072700Y0017225D02*
X0072700Y0018012D01*
G75*
G02*
X0073093Y0018406I0000394J0000000D01*
G01*
X0078113Y0018406D01*
G75*
G02*
X0078507Y0018012I0000000J-000394D01*
G01*
X0078507Y0017225D01*
G75*
G02*
X0078113Y0016831I-000394J0000000D01*
G01*
X0073093Y0016831D01*
G75*
G02*
X0072700Y0017225I0000000J0000394D01*
G01*
G37*
G36*
G01*
X0072700Y0014666D02*
X0072700Y0015453D01*
G75*
G02*
X0073093Y0015847I0000394J0000000D01*
G01*
X0078113Y0015847D01*
G75*
G02*
X0078507Y0015453I0000000J-000394D01*
G01*
X0078507Y0014666D01*
G75*
G02*
X0078113Y0014272I-000394J0000000D01*
G01*
X0073093Y0014272D01*
G75*
G02*
X0072700Y0014666I0000000J0000394D01*
G01*
G37*
G36*
G01*
X0072700Y0012106D02*
X0072700Y0012894D01*
G75*
G02*
X0073093Y0013288I0000394J0000000D01*
G01*
X0078113Y0013288D01*
G75*
G02*
X0078507Y0012894I0000000J-000394D01*
G01*
X0078507Y0012106D01*
G75*
G02*
X0078113Y0011713I-000394J0000000D01*
G01*
X0073093Y0011713D01*
G75*
G02*
X0072700Y0012106I0000000J0000394D01*
G01*
G37*
G36*
G01*
X0032517Y0019977D02*
X0032517Y0023520D01*
G75*
G02*
X0033501Y0024504I0000984J0000000D01*
G01*
X0035568Y0024504D01*
G75*
G02*
X0036552Y0023520I0000000J-000984D01*
G01*
X0036552Y0019977D01*
G75*
G02*
X0035568Y0018992I-000984J0000000D01*
G01*
X0033501Y0018992D01*
G75*
G02*
X0032517Y0019977I0000000J0000984D01*
G01*
G37*
G36*
G01*
X0039702Y0019977D02*
X0039702Y0023520D01*
G75*
G02*
X0040686Y0024504I0000984J0000000D01*
G01*
X0042753Y0024504D01*
G75*
G02*
X0043737Y0023520I0000000J-000984D01*
G01*
X0043737Y0019977D01*
G75*
G02*
X0042753Y0018992I-000984J0000000D01*
G01*
X0040686Y0018992D01*
G75*
G02*
X0039702Y0019977I0000000J0000984D01*
G01*
G37*
G36*
G01*
X0078760Y0033701D02*
X0078760Y0032244D01*
G75*
G02*
X0078228Y0031713I-000531J0000000D01*
G01*
X0077165Y0031713D01*
G75*
G02*
X0076634Y0032244I0000000J0000531D01*
G01*
X0076634Y0033701D01*
G75*
G02*
X0077165Y0034232I0000531J0000000D01*
G01*
X0078228Y0034232D01*
G75*
G02*
X0078760Y0033701I0000000J-000531D01*
G01*
G37*
G36*
G01*
X0074744Y0033701D02*
X0074744Y0032244D01*
G75*
G02*
X0074213Y0031713I-000531J0000000D01*
G01*
X0073150Y0031713D01*
G75*
G02*
X0072618Y0032244I0000000J0000531D01*
G01*
X0072618Y0033701D01*
G75*
G02*
X0073150Y0034232I0000531J0000000D01*
G01*
X0074213Y0034232D01*
G75*
G02*
X0074744Y0033701I0000000J-000531D01*
G01*
G37*
G36*
G01*
X0038327Y0044626D02*
X0038327Y0043288D01*
G75*
G02*
X0037776Y0042736I-000551J0000000D01*
G01*
X0036673Y0042736D01*
G75*
G02*
X0036122Y0043288I0000000J0000551D01*
G01*
X0036122Y0044626D01*
G75*
G02*
X0036673Y0045177I0000551J0000000D01*
G01*
X0037776Y0045177D01*
G75*
G02*
X0038327Y0044626I0000000J-000551D01*
G01*
G37*
G36*
G01*
X0034547Y0044626D02*
X0034547Y0043288D01*
G75*
G02*
X0033996Y0042736I-000551J0000000D01*
G01*
X0032894Y0042736D01*
G75*
G02*
X0032343Y0043288I0000000J0000551D01*
G01*
X0032343Y0044626D01*
G75*
G02*
X0032894Y0045177I0000551J0000000D01*
G01*
X0033996Y0045177D01*
G75*
G02*
X0034547Y0044626I0000000J-000551D01*
G01*
G37*
G36*
G01*
X0086437Y0037441D02*
X0086437Y0035984D01*
G75*
G02*
X0085906Y0035453I-000531J0000000D01*
G01*
X0084843Y0035453D01*
G75*
G02*
X0084311Y0035984I0000000J0000531D01*
G01*
X0084311Y0037441D01*
G75*
G02*
X0084843Y0037973I0000531J0000000D01*
G01*
X0085906Y0037973D01*
G75*
G02*
X0086437Y0037441I0000000J-000531D01*
G01*
G37*
G36*
G01*
X0082421Y0037441D02*
X0082421Y0035984D01*
G75*
G02*
X0081890Y0035453I-000531J0000000D01*
G01*
X0080827Y0035453D01*
G75*
G02*
X0080295Y0035984I0000000J0000531D01*
G01*
X0080295Y0037441D01*
G75*
G02*
X0080827Y0037973I0000531J0000000D01*
G01*
X0081890Y0037973D01*
G75*
G02*
X0082421Y0037441I0000000J-000531D01*
G01*
G37*
G36*
G01*
X0070504Y0033701D02*
X0070504Y0032245D01*
G75*
G02*
X0069972Y0031713I-000531J0000000D01*
G01*
X0068909Y0031713D01*
G75*
G02*
X0068378Y0032245I0000000J0000531D01*
G01*
X0068378Y0033701D01*
G75*
G02*
X0068909Y0034233I0000531J0000000D01*
G01*
X0069972Y0034233D01*
G75*
G02*
X0070504Y0033701I0000000J-000531D01*
G01*
G37*
G36*
G01*
X0066488Y0033701D02*
X0066488Y0032245D01*
G75*
G02*
X0065956Y0031713I-000531J0000000D01*
G01*
X0064893Y0031713D01*
G75*
G02*
X0064362Y0032245I0000000J0000531D01*
G01*
X0064362Y0033701D01*
G75*
G02*
X0064893Y0034233I0000531J0000000D01*
G01*
X0065956Y0034233D01*
G75*
G02*
X0066488Y0033701I0000000J-000531D01*
G01*
G37*
G36*
G01*
X0043737Y0015945D02*
X0043737Y0012402D01*
G75*
G02*
X0042753Y0011417I-000984J0000000D01*
G01*
X0040686Y0011417D01*
G75*
G02*
X0039702Y0012402I0000000J0000984D01*
G01*
X0039702Y0015945D01*
G75*
G02*
X0040686Y0016929I0000984J0000000D01*
G01*
X0042753Y0016929D01*
G75*
G02*
X0043737Y0015945I0000000J-000984D01*
G01*
G37*
G36*
G01*
X0036552Y0015945D02*
X0036552Y0012402D01*
G75*
G02*
X0035568Y0011417I-000984J0000000D01*
G01*
X0033501Y0011417D01*
G75*
G02*
X0032517Y0012402I0000000J0000984D01*
G01*
X0032517Y0015945D01*
G75*
G02*
X0033501Y0016929I0000984J0000000D01*
G01*
X0035568Y0016929D01*
G75*
G02*
X0036552Y0015945I0000000J-000984D01*
G01*
G37*
G36*
G01*
X0070453Y0044843D02*
X0070453Y0043386D01*
G75*
G02*
X0069921Y0042854I-000531J0000000D01*
G01*
X0068858Y0042854D01*
G75*
G02*
X0068327Y0043386I0000000J0000531D01*
G01*
X0068327Y0044843D01*
G75*
G02*
X0068858Y0045374I0000531J0000000D01*
G01*
X0069921Y0045374D01*
G75*
G02*
X0070453Y0044843I0000000J-000531D01*
G01*
G37*
G36*
G01*
X0066437Y0044843D02*
X0066437Y0043386D01*
G75*
G02*
X0065906Y0042854I-000531J0000000D01*
G01*
X0064843Y0042854D01*
G75*
G02*
X0064311Y0043386I0000000J0000531D01*
G01*
X0064311Y0044843D01*
G75*
G02*
X0064843Y0045374I0000531J0000000D01*
G01*
X0065906Y0045374D01*
G75*
G02*
X0066437Y0044843I0000000J-000531D01*
G01*
G37*
G36*
G01*
X0080138Y0011339D02*
X0080138Y0012795D01*
G75*
G02*
X0080669Y0013327I0000531J0000000D01*
G01*
X0081732Y0013327D01*
G75*
G02*
X0082264Y0012795I0000000J-000531D01*
G01*
X0082264Y0011339D01*
G75*
G02*
X0081732Y0010807I-000531J0000000D01*
G01*
X0080669Y0010807D01*
G75*
G02*
X0080138Y0011339I0000000J0000531D01*
G01*
G37*
G36*
G01*
X0084154Y0011339D02*
X0084154Y0012795D01*
G75*
G02*
X0084685Y0013327I0000531J0000000D01*
G01*
X0085748Y0013327D01*
G75*
G02*
X0086280Y0012795I0000000J-000531D01*
G01*
X0086280Y0011339D01*
G75*
G02*
X0085748Y0010807I-000531J0000000D01*
G01*
X0084685Y0010807D01*
G75*
G02*
X0084154Y0011339I0000000J0000531D01*
G01*
G37*
G36*
G01*
X0080591Y0023288D02*
X0080591Y0024744D01*
G75*
G02*
X0081122Y0025276I0000531J0000000D01*
G01*
X0082185Y0025276D01*
G75*
G02*
X0082717Y0024744I0000000J-000531D01*
G01*
X0082717Y0023288D01*
G75*
G02*
X0082185Y0022756I-000531J0000000D01*
G01*
X0081122Y0022756D01*
G75*
G02*
X0080591Y0023288I0000000J0000531D01*
G01*
G37*
G36*
G01*
X0084606Y0023288D02*
X0084606Y0024744D01*
G75*
G02*
X0085138Y0025276I0000531J0000000D01*
G01*
X0086201Y0025276D01*
G75*
G02*
X0086732Y0024744I0000000J-000531D01*
G01*
X0086732Y0023288D01*
G75*
G02*
X0086201Y0022756I-000531J0000000D01*
G01*
X0085138Y0022756D01*
G75*
G02*
X0084606Y0023288I0000000J0000531D01*
G01*
G37*
G36*
G01*
X0079055Y0037441D02*
X0079055Y0035984D01*
G75*
G02*
X0078524Y0035453I-000531J0000000D01*
G01*
X0077461Y0035453D01*
G75*
G02*
X0076929Y0035984I0000000J0000531D01*
G01*
X0076929Y0037441D01*
G75*
G02*
X0077461Y0037973I0000531J0000000D01*
G01*
X0078524Y0037973D01*
G75*
G02*
X0079055Y0037441I0000000J-000531D01*
G01*
G37*
G36*
G01*
X0075039Y0037441D02*
X0075039Y0035984D01*
G75*
G02*
X0074508Y0035453I-000531J0000000D01*
G01*
X0073445Y0035453D01*
G75*
G02*
X0072913Y0035984I0000000J0000531D01*
G01*
X0072913Y0037441D01*
G75*
G02*
X0073445Y0037973I0000531J0000000D01*
G01*
X0074508Y0037973D01*
G75*
G02*
X0075039Y0037441I0000000J-000531D01*
G01*
G37*
G36*
G01*
X0086752Y0028524D02*
X0086752Y0027185D01*
G75*
G02*
X0086201Y0026634I-000551J0000000D01*
G01*
X0085098Y0026634D01*
G75*
G02*
X0084547Y0027185I0000000J0000551D01*
G01*
X0084547Y0028524D01*
G75*
G02*
X0085098Y0029075I0000551J0000000D01*
G01*
X0086201Y0029075D01*
G75*
G02*
X0086752Y0028524I0000000J-000551D01*
G01*
G37*
G36*
G01*
X0082972Y0028524D02*
X0082972Y0027185D01*
G75*
G02*
X0082421Y0026634I-000551J0000000D01*
G01*
X0081319Y0026634D01*
G75*
G02*
X0080768Y0027185I0000000J0000551D01*
G01*
X0080768Y0028524D01*
G75*
G02*
X0081319Y0029075I0000551J0000000D01*
G01*
X0082421Y0029075D01*
G75*
G02*
X0082972Y0028524I0000000J-000551D01*
G01*
G37*
G36*
G01*
X0047604Y0018309D02*
X0046266Y0018309D01*
G75*
G02*
X0045714Y0018860I0000000J0000551D01*
G01*
X0045714Y0019962D01*
G75*
G02*
X0046266Y0020514I0000551J0000000D01*
G01*
X0047604Y0020514D01*
G75*
G02*
X0048155Y0019962I0000000J-000551D01*
G01*
X0048155Y0018860D01*
G75*
G02*
X0047604Y0018309I-000551J0000000D01*
G01*
G37*
G36*
G01*
X0047604Y0022088D02*
X0046266Y0022088D01*
G75*
G02*
X0045714Y0022639I0000000J0000551D01*
G01*
X0045714Y0023742D01*
G75*
G02*
X0046266Y0024293I0000551J0000000D01*
G01*
X0047604Y0024293D01*
G75*
G02*
X0048155Y0023742I0000000J-000551D01*
G01*
X0048155Y0022639D01*
G75*
G02*
X0047604Y0022088I-000551J0000000D01*
G01*
G37*
G36*
G01*
X0080098Y0032244D02*
X0080098Y0033701D01*
G75*
G02*
X0080630Y0034232I0000531J0000000D01*
G01*
X0081693Y0034232D01*
G75*
G02*
X0082224Y0033701I0000000J-000531D01*
G01*
X0082224Y0032244D01*
G75*
G02*
X0081693Y0031713I-000531J0000000D01*
G01*
X0080630Y0031713D01*
G75*
G02*
X0080098Y0032244I0000000J0000531D01*
G01*
G37*
G36*
G01*
X0084114Y0032244D02*
X0084114Y0033701D01*
G75*
G02*
X0084646Y0034232I0000531J0000000D01*
G01*
X0085709Y0034232D01*
G75*
G02*
X0086240Y0033701I0000000J-000531D01*
G01*
X0086240Y0032244D01*
G75*
G02*
X0085709Y0031713I-000531J0000000D01*
G01*
X0084646Y0031713D01*
G75*
G02*
X0084114Y0032244I0000000J0000531D01*
G01*
G37*
G36*
G01*
X0062697Y0043603D02*
X0062697Y0042421D01*
G75*
G02*
X0062106Y0041831I-000591J0000000D01*
G01*
X0058071Y0041831D01*
G75*
G02*
X0057480Y0042421I0000000J0000591D01*
G01*
X0057480Y0043603D01*
G75*
G02*
X0058071Y0044193I0000591J0000000D01*
G01*
X0062106Y0044193D01*
G75*
G02*
X0062697Y0043603I0000000J-000591D01*
G01*
G37*
G36*
G01*
X0062697Y0039862D02*
X0062697Y0038681D01*
G75*
G02*
X0062106Y0038091I-000591J0000000D01*
G01*
X0058071Y0038091D01*
G75*
G02*
X0057480Y0038681I0000000J0000591D01*
G01*
X0057480Y0039862D01*
G75*
G02*
X0058071Y0040453I0000591J0000000D01*
G01*
X0062106Y0040453D01*
G75*
G02*
X0062697Y0039862I0000000J-000591D01*
G01*
G37*
G36*
G01*
X0062697Y0036122D02*
X0062697Y0034941D01*
G75*
G02*
X0062106Y0034351I-000591J0000000D01*
G01*
X0058071Y0034351D01*
G75*
G02*
X0057480Y0034941I0000000J0000591D01*
G01*
X0057480Y0036122D01*
G75*
G02*
X0058071Y0036713I0000591J0000000D01*
G01*
X0062106Y0036713D01*
G75*
G02*
X0062697Y0036122I0000000J-000591D01*
G01*
G37*
G36*
G01*
X0053740Y0036122D02*
X0053740Y0034941D01*
G75*
G02*
X0053150Y0034351I-000591J0000000D01*
G01*
X0049114Y0034351D01*
G75*
G02*
X0048524Y0034941I0000000J0000591D01*
G01*
X0048524Y0036122D01*
G75*
G02*
X0049114Y0036713I0000591J0000000D01*
G01*
X0053150Y0036713D01*
G75*
G02*
X0053740Y0036122I0000000J-000591D01*
G01*
G37*
G36*
G01*
X0053740Y0043603D02*
X0053740Y0042421D01*
G75*
G02*
X0053150Y0041831I-000591J0000000D01*
G01*
X0049114Y0041831D01*
G75*
G02*
X0048524Y0042421I0000000J0000591D01*
G01*
X0048524Y0043603D01*
G75*
G02*
X0049114Y0044193I0000591J0000000D01*
G01*
X0053150Y0044193D01*
G75*
G02*
X0053740Y0043603I0000000J-000591D01*
G01*
G37*
G36*
G01*
X0064390Y0039784D02*
X0064390Y0041122D01*
G75*
G02*
X0064941Y0041673I0000551J0000000D01*
G01*
X0066043Y0041673D01*
G75*
G02*
X0066595Y0041122I0000000J-000551D01*
G01*
X0066595Y0039784D01*
G75*
G02*
X0066043Y0039232I-000551J0000000D01*
G01*
X0064941Y0039232D01*
G75*
G02*
X0064390Y0039784I0000000J0000551D01*
G01*
G37*
G36*
G01*
X0068169Y0039784D02*
X0068169Y0041122D01*
G75*
G02*
X0068720Y0041673I0000551J0000000D01*
G01*
X0069823Y0041673D01*
G75*
G02*
X0070374Y0041122I0000000J-000551D01*
G01*
X0070374Y0039784D01*
G75*
G02*
X0069823Y0039232I-000551J0000000D01*
G01*
X0068720Y0039232D01*
G75*
G02*
X0068169Y0039784I0000000J0000551D01*
G01*
G37*
X0041339Y0052520D02*
G01*
G75*
D30*
X0076772Y0062756D02*
D03*
X0076772Y0059016D02*
D03*
X0076772Y0055276D02*
D03*
X0042520Y0059213D02*
D03*
X0042520Y0062756D02*
D03*
D35*
X0069292Y0062756D02*
D03*
X0073229Y0062756D02*
D03*
X0058169Y0062756D02*
D03*
X0054232Y0062756D02*
D03*
X0049803Y0062756D02*
D03*
X0045866Y0062756D02*
D03*
X0069292Y0055473D02*
D03*
X0073229Y0055473D02*
D03*
D36*
X0065907Y0055276D02*
D03*
X0065907Y0058819D02*
D03*
D37*
X0062022Y0061989D02*
D03*
X0062022Y0055768D02*
D03*
D38*
X0049410Y0058819D02*
D03*
X0045867Y0058819D02*
D03*
X0057776Y0055276D02*
D03*
X0054233Y0055276D02*
D03*
X0072638Y0058877D02*
D03*
X0069095Y0058877D02*
D03*
X0045867Y0055276D02*
D03*
X0049410Y0055276D02*
D03*
M02*
