G75*
G70*
%OFA0B0*%
%FSLAX25Y25*%
%IPPOS*%
%LPD*%
%AMOC8*
5,1,8,0,0,1.08239X$1,22.5*
%
%ADD13C,0.00591*%
%ADD14C,0.00787*%
X0000000Y0000000D02*
%LPD*%
G01*
D13*
X0041897Y0068738D02*
X0041897Y0071100D01*
X0041897Y0071100D02*
X0042684Y0069413D01*
X0042684Y0069413D02*
X0043471Y0071100D01*
X0043471Y0071100D02*
X0043471Y0068738D01*
X0044484Y0070875D02*
X0044596Y0070988D01*
X0044596Y0070988D02*
X0044821Y0071100D01*
X0044821Y0071100D02*
X0045384Y0071100D01*
X0045384Y0071100D02*
X0045609Y0070988D01*
X0045609Y0070988D02*
X0045721Y0070875D01*
X0045721Y0070875D02*
X0045834Y0070650D01*
X0045834Y0070650D02*
X0045834Y0070425D01*
X0045834Y0070425D02*
X0045721Y0070088D01*
X0045721Y0070088D02*
X0044371Y0068738D01*
X0044371Y0068738D02*
X0045834Y0068738D01*
D14*
X0041732Y0065118D02*
X0077559Y0065118D01*
X0041732Y0052913D02*
X0041732Y0056850D01*
X0041732Y0052913D02*
X0077559Y0052913D01*
X0041339Y0052520D02*
G01*
G75*
D13*
X0044519Y0064693D02*
X0043732Y0064693D01*
X0044519Y0064693D01*
X0060129Y0064626D02*
X0059341Y0064626D01*
X0060129Y0064626D01*
D14*
X0041733Y0052914D02*
X0077559Y0052914D01*
X0041733Y0065118D02*
X0077559Y0065118D01*
X0041733Y0052914D02*
X0041733Y0056851D01*
X0048268Y0052902D02*
X0055355Y0052902D01*
X0048268Y0065106D02*
X0055355Y0065106D01*
X0055355Y0064910D02*
X0055355Y0065106D01*
X0048268Y0064910D02*
X0048268Y0065106D01*
X0055355Y0052902D02*
X0055355Y0053099D01*
X0048268Y0052902D02*
X0048268Y0053099D01*
X0063918Y0052902D02*
X0071004Y0052902D01*
X0063918Y0065106D02*
X0071004Y0065106D01*
X0071004Y0064910D02*
X0071004Y0065106D01*
X0063918Y0064910D02*
X0063918Y0065106D01*
X0071004Y0052902D02*
X0071004Y0053099D01*
X0063918Y0052902D02*
X0063918Y0053099D01*
M02*
