G75*
G70*
%OFA0B0*%
%FSLAX25Y25*%
%IPPOS*%
%LPD*%
%AMOC8*
5,1,8,0,0,1.08239X$1,22.5*
%
%ADD18C,0.00787*%
%ADD24C,0.00472*%
%ADD39C,0.00394*%
X0000000Y0000000D02*
%LPD*%
G01*
D18*
X0041732Y0065118D02*
X0077559Y0065118D01*
X0041732Y0052913D02*
X0041732Y0056850D01*
X0041732Y0052913D02*
X0077559Y0052913D01*
X0030020Y0046949D02*
X0030020Y0021752D01*
X0030020Y0009154D02*
X0030020Y0014272D01*
X0030020Y0009154D02*
X0089075Y0009154D01*
X0086713Y0046949D02*
X0030020Y0046949D01*
X0089075Y0009154D02*
X0089075Y0029232D01*
X0029626Y0008760D02*
%LPD*%
G01*
D18*
X0030020Y0046949D02*
X0030020Y0021752D01*
X0030020Y0009154D02*
X0030020Y0014272D01*
X0030020Y0009154D02*
X0089075Y0009154D01*
X0086713Y0046949D02*
X0030020Y0046949D01*
X0089075Y0009154D02*
X0089075Y0029232D01*
D24*
X0039469Y0041165D02*
X0036319Y0041165D01*
X0039469Y0041165D02*
X0046555Y0041165D01*
X0039469Y0028881D02*
X0042618Y0028881D01*
X0039469Y0028881D02*
X0036319Y0028881D01*
X0048366Y0014500D02*
X0048366Y0013650D01*
X0045532Y0014500D02*
X0045532Y0013650D01*
X0075363Y0041870D02*
X0076212Y0041870D01*
X0075363Y0039036D02*
X0076212Y0039036D01*
X0083574Y0042697D02*
X0082725Y0042697D01*
X0083574Y0045532D02*
X0082725Y0045532D01*
X0066957Y0038130D02*
X0067806Y0038130D01*
X0066957Y0035295D02*
X0067806Y0035295D01*
X0083377Y0041870D02*
X0082528Y0041870D01*
X0083377Y0039036D02*
X0082528Y0039036D01*
X0083237Y0021693D02*
X0084086Y0021693D01*
X0083237Y0018858D02*
X0084086Y0018858D01*
X0064334Y0009902D02*
X0072995Y0009902D01*
X0064334Y0009902D02*
X0050160Y0009902D01*
X0064334Y0030453D02*
X0072995Y0030453D01*
X0064334Y0030453D02*
X0055672Y0030453D01*
X0037233Y0024642D02*
X0039021Y0024642D01*
X0037233Y0018854D02*
X0039021Y0018854D01*
X0076294Y0031477D02*
X0075084Y0031477D01*
X0076294Y0034469D02*
X0075084Y0034469D01*
X0035759Y0042540D02*
X0034910Y0042540D01*
X0035759Y0045374D02*
X0034910Y0045374D01*
X0083971Y0035217D02*
X0082761Y0035217D01*
X0083971Y0038209D02*
X0082761Y0038209D01*
X0068038Y0031477D02*
X0066828Y0031477D01*
X0068038Y0034469D02*
X0066828Y0034469D01*
X0039021Y0017067D02*
X0037233Y0017067D01*
X0039021Y0011280D02*
X0037233Y0011280D01*
X0067987Y0042618D02*
X0066777Y0042618D01*
X0067987Y0045610D02*
X0066777Y0045610D01*
X0082604Y0013563D02*
X0083814Y0013563D01*
X0082604Y0010571D02*
X0083814Y0010571D01*
X0083057Y0022520D02*
X0084266Y0022520D01*
X0083057Y0025512D02*
X0084266Y0025512D01*
X0076589Y0035217D02*
X0075379Y0035217D01*
X0076589Y0038209D02*
X0075379Y0038209D01*
X0084184Y0026437D02*
X0083335Y0026437D01*
X0084184Y0029272D02*
X0083335Y0029272D01*
X0048352Y0020876D02*
X0048352Y0021725D01*
X0045517Y0020876D02*
X0045517Y0021725D01*
X0082564Y0031477D02*
X0083774Y0031477D01*
X0082564Y0034469D02*
X0083774Y0034469D01*
X0055610Y0033130D02*
X0052461Y0033130D01*
X0055610Y0045414D02*
X0062697Y0045414D01*
X0055610Y0045414D02*
X0052461Y0045414D01*
X0055610Y0033130D02*
X0058760Y0033130D01*
X0066957Y0039036D02*
X0067806Y0039036D01*
X0066957Y0041870D02*
X0067806Y0041870D01*
X0041339Y0052520D02*
G01*
G75*
G36*
X0059745Y0058069D02*
X0059309Y0058069D01*
X0059309Y0058595D01*
X0059107Y0058807D01*
X0058694Y0058069D01*
X0058224Y0058069D01*
X0058827Y0059112D01*
X0058264Y0059714D01*
X0058800Y0059714D01*
X0059309Y0059134D01*
X0059309Y0060339D01*
X0059745Y0060339D01*
X0059745Y0058069D01*
D02*
G37*
G36*
X0052345Y0058069D02*
X0051909Y0058069D01*
X0051909Y0058595D01*
X0051708Y0058807D01*
X0051294Y0058069D01*
X0050825Y0058069D01*
X0051427Y0059112D01*
X0050864Y0059714D01*
X0051400Y0059714D01*
X0051909Y0059134D01*
X0051909Y0060339D01*
X0052345Y0060339D01*
X0052345Y0058069D01*
D02*
G37*
G36*
X0053459Y0059749D02*
X0053523Y0059741D01*
X0053582Y0059729D01*
X0053639Y0059717D01*
X0053690Y0059697D01*
X0053737Y0059680D01*
X0053782Y0059658D01*
X0053821Y0059638D01*
X0053855Y0059616D01*
X0053887Y0059594D01*
X0053912Y0059577D01*
X0053934Y0059560D01*
X0053951Y0059545D01*
X0053964Y0059532D01*
X0053971Y0059525D01*
X0053973Y0059523D01*
X0054010Y0059478D01*
X0054045Y0059431D01*
X0054072Y0059380D01*
X0054096Y0059328D01*
X0054118Y0059274D01*
X0054136Y0059222D01*
X0054148Y0059171D01*
X0054160Y0059122D01*
X0054170Y0059072D01*
X0054175Y0059028D01*
X0054180Y0058989D01*
X0054185Y0058954D01*
X0054185Y0058927D01*
X0054187Y0058905D01*
X0054187Y0058893D01*
X0054187Y0058888D01*
X0054185Y0058814D01*
X0054178Y0058745D01*
X0054168Y0058681D01*
X0054153Y0058620D01*
X0054138Y0058563D01*
X0054118Y0058511D01*
X0054101Y0058465D01*
X0054079Y0058423D01*
X0054059Y0058386D01*
X0054040Y0058352D01*
X0054023Y0058324D01*
X0054008Y0058300D01*
X0053993Y0058283D01*
X0053983Y0058268D01*
X0053976Y0058261D01*
X0053973Y0058258D01*
X0053932Y0058219D01*
X0053887Y0058184D01*
X0053841Y0058152D01*
X0053794Y0058128D01*
X0053745Y0058106D01*
X0053698Y0058086D01*
X0053651Y0058071D01*
X0053607Y0058061D01*
X0053565Y0058051D01*
X0053526Y0058044D01*
X0053489Y0058039D01*
X0053459Y0058034D01*
X0053435Y0058034D01*
X0053415Y0058032D01*
X0053400Y0058032D01*
X0053341Y0058034D01*
X0053287Y0058039D01*
X0053235Y0058047D01*
X0053189Y0058054D01*
X0053142Y0058066D01*
X0053100Y0058079D01*
X0053063Y0058091D01*
X0053029Y0058106D01*
X0052999Y0058120D01*
X0052972Y0058133D01*
X0052950Y0058145D01*
X0052930Y0058157D01*
X0052916Y0058165D01*
X0052903Y0058172D01*
X0052898Y0058177D01*
X0052896Y0058179D01*
X0052861Y0058209D01*
X0052829Y0058241D01*
X0052802Y0058275D01*
X0052775Y0058312D01*
X0052751Y0058349D01*
X0052731Y0058386D01*
X0052697Y0058457D01*
X0052682Y0058492D01*
X0052670Y0058524D01*
X0052660Y0058551D01*
X0052652Y0058575D01*
X0052645Y0058598D01*
X0052640Y0058612D01*
X0052638Y0058622D01*
X0052638Y0058625D01*
X0053066Y0058699D01*
X0053080Y0058639D01*
X0053098Y0058588D01*
X0053117Y0058546D01*
X0053134Y0058511D01*
X0053152Y0058487D01*
X0053167Y0058470D01*
X0053176Y0058457D01*
X0053179Y0058455D01*
X0053211Y0058433D01*
X0053243Y0058416D01*
X0053277Y0058403D01*
X0053309Y0058396D01*
X0053336Y0058391D01*
X0053361Y0058386D01*
X0053381Y0058386D01*
X0053410Y0058389D01*
X0053439Y0058391D01*
X0053494Y0058406D01*
X0053538Y0058425D01*
X0053575Y0058448D01*
X0053607Y0058470D01*
X0053629Y0058487D01*
X0053641Y0058502D01*
X0053646Y0058504D01*
X0053646Y0058507D01*
X0053663Y0058531D01*
X0053678Y0058558D01*
X0053690Y0058590D01*
X0053703Y0058622D01*
X0053717Y0058691D01*
X0053730Y0058758D01*
X0053735Y0058792D01*
X0053737Y0058821D01*
X0053740Y0058849D01*
X0053740Y0058873D01*
X0053742Y0058893D01*
X0053742Y0058908D01*
X0053742Y0058917D01*
X0053742Y0058920D01*
X0053742Y0058967D01*
X0053737Y0059011D01*
X0053732Y0059053D01*
X0053727Y0059090D01*
X0053720Y0059124D01*
X0053713Y0059154D01*
X0053703Y0059183D01*
X0053693Y0059208D01*
X0053686Y0059227D01*
X0053676Y0059247D01*
X0053668Y0059262D01*
X0053661Y0059274D01*
X0053656Y0059284D01*
X0053651Y0059291D01*
X0053646Y0059294D01*
X0053646Y0059296D01*
X0053626Y0059316D01*
X0053607Y0059333D01*
X0053565Y0059363D01*
X0053523Y0059382D01*
X0053481Y0059395D01*
X0053444Y0059404D01*
X0053427Y0059407D01*
X0053415Y0059407D01*
X0053403Y0059409D01*
X0053388Y0059409D01*
X0053344Y0059407D01*
X0053304Y0059400D01*
X0053270Y0059387D01*
X0053243Y0059377D01*
X0053218Y0059365D01*
X0053203Y0059353D01*
X0053191Y0059345D01*
X0053189Y0059343D01*
X0053162Y0059316D01*
X0053139Y0059286D01*
X0053122Y0059254D01*
X0053107Y0059225D01*
X0053100Y0059198D01*
X0053093Y0059173D01*
X0053088Y0059159D01*
X0053088Y0059156D01*
X0053088Y0059154D01*
X0052660Y0059230D01*
X0052675Y0059277D01*
X0052694Y0059323D01*
X0052711Y0059363D01*
X0052733Y0059402D01*
X0052753Y0059436D01*
X0052775Y0059468D01*
X0052797Y0059498D01*
X0052817Y0059525D01*
X0052837Y0059547D01*
X0052854Y0059567D01*
X0052871Y0059584D01*
X0052886Y0059596D01*
X0052898Y0059609D01*
X0052908Y0059616D01*
X0052913Y0059618D01*
X0052916Y0059621D01*
X0052950Y0059643D01*
X0052987Y0059665D01*
X0053026Y0059683D01*
X0053066Y0059697D01*
X0053144Y0059719D01*
X0053221Y0059734D01*
X0053255Y0059741D01*
X0053290Y0059744D01*
X0053316Y0059746D01*
X0053344Y0059749D01*
X0053363Y0059751D01*
X0053393Y0059751D01*
X0053459Y0059749D01*
D02*
G37*
G36*
X0057085Y0059749D02*
X0057142Y0059739D01*
X0057196Y0059727D01*
X0057248Y0059707D01*
X0057294Y0059687D01*
X0057339Y0059663D01*
X0057380Y0059638D01*
X0057417Y0059611D01*
X0057452Y0059584D01*
X0057479Y0059560D01*
X0057506Y0059535D01*
X0057526Y0059515D01*
X0057543Y0059498D01*
X0057555Y0059483D01*
X0057563Y0059473D01*
X0057565Y0059471D01*
X0057565Y0059714D01*
X0057968Y0059714D01*
X0057968Y0058069D01*
X0057533Y0058069D01*
X0057533Y0058814D01*
X0057533Y0058863D01*
X0057531Y0058910D01*
X0057531Y0058952D01*
X0057528Y0058989D01*
X0057526Y0059023D01*
X0057523Y0059055D01*
X0057521Y0059082D01*
X0057516Y0059107D01*
X0057513Y0059126D01*
X0057511Y0059144D01*
X0057508Y0059159D01*
X0057506Y0059171D01*
X0057503Y0059181D01*
X0057503Y0059186D01*
X0057501Y0059191D01*
X0057486Y0059227D01*
X0057469Y0059259D01*
X0057449Y0059289D01*
X0057430Y0059311D01*
X0057410Y0059331D01*
X0057395Y0059343D01*
X0057385Y0059353D01*
X0057380Y0059355D01*
X0057346Y0059377D01*
X0057309Y0059392D01*
X0057275Y0059404D01*
X0057245Y0059412D01*
X0057216Y0059417D01*
X0057196Y0059419D01*
X0057176Y0059419D01*
X0057144Y0059417D01*
X0057117Y0059412D01*
X0057093Y0059404D01*
X0057071Y0059397D01*
X0057053Y0059390D01*
X0057038Y0059382D01*
X0057031Y0059377D01*
X0057029Y0059375D01*
X0057006Y0059358D01*
X0056987Y0059338D01*
X0056972Y0059316D01*
X0056960Y0059296D01*
X0056950Y0059279D01*
X0056943Y0059264D01*
X0056938Y0059254D01*
X0056938Y0059252D01*
X0056933Y0059235D01*
X0056928Y0059215D01*
X0056923Y0059193D01*
X0056920Y0059166D01*
X0056915Y0059109D01*
X0056911Y0059050D01*
X0056911Y0058996D01*
X0056908Y0058972D01*
X0056908Y0058952D01*
X0056908Y0058932D01*
X0056908Y0058920D01*
X0056908Y0058910D01*
X0056908Y0058908D01*
X0056908Y0058069D01*
X0056473Y0058069D01*
X0056473Y0059090D01*
X0056473Y0059159D01*
X0056478Y0059217D01*
X0056480Y0059267D01*
X0056485Y0059308D01*
X0056490Y0059340D01*
X0056492Y0059363D01*
X0056497Y0059377D01*
X0056497Y0059382D01*
X0056507Y0059419D01*
X0056522Y0059454D01*
X0056534Y0059486D01*
X0056549Y0059513D01*
X0056564Y0059535D01*
X0056574Y0059550D01*
X0056581Y0059562D01*
X0056583Y0059564D01*
X0056608Y0059594D01*
X0056638Y0059618D01*
X0056667Y0059643D01*
X0056697Y0059660D01*
X0056721Y0059678D01*
X0056743Y0059687D01*
X0056758Y0059695D01*
X0056760Y0059697D01*
X0056763Y0059697D01*
X0056807Y0059714D01*
X0056854Y0059729D01*
X0056898Y0059739D01*
X0056938Y0059744D01*
X0056975Y0059749D01*
X0057002Y0059751D01*
X0057026Y0059751D01*
X0057085Y0059749D01*
D02*
G37*
G36*
X0055373Y0059746D02*
X0055454Y0059734D01*
X0055528Y0059717D01*
X0055562Y0059707D01*
X0055594Y0059697D01*
X0055622Y0059687D01*
X0055646Y0059678D01*
X0055668Y0059668D01*
X0055688Y0059660D01*
X0055703Y0059653D01*
X0055713Y0059648D01*
X0055720Y0059646D01*
X0055722Y0059643D01*
X0055791Y0059599D01*
X0055850Y0059550D01*
X0055902Y0059498D01*
X0055946Y0059449D01*
X0055978Y0059404D01*
X0055993Y0059385D01*
X0056003Y0059368D01*
X0056010Y0059353D01*
X0056018Y0059343D01*
X0056020Y0059336D01*
X0056022Y0059333D01*
X0056042Y0059296D01*
X0056057Y0059257D01*
X0056084Y0059183D01*
X0056101Y0059112D01*
X0056116Y0059048D01*
X0056119Y0059018D01*
X0056123Y0058994D01*
X0056126Y0058969D01*
X0056126Y0058949D01*
X0056128Y0058935D01*
X0056128Y0058922D01*
X0056128Y0058915D01*
X0056128Y0058912D01*
X0056126Y0058861D01*
X0056123Y0058812D01*
X0056119Y0058762D01*
X0056111Y0058718D01*
X0056104Y0058676D01*
X0056094Y0058637D01*
X0056084Y0058600D01*
X0056074Y0058566D01*
X0056064Y0058536D01*
X0056057Y0058509D01*
X0056047Y0058487D01*
X0056040Y0058467D01*
X0056032Y0058452D01*
X0056027Y0058443D01*
X0056022Y0058435D01*
X0056022Y0058433D01*
X0055978Y0058364D01*
X0055929Y0058302D01*
X0055877Y0058251D01*
X0055828Y0058209D01*
X0055781Y0058177D01*
X0055764Y0058162D01*
X0055747Y0058152D01*
X0055732Y0058143D01*
X0055722Y0058138D01*
X0055715Y0058135D01*
X0055713Y0058133D01*
X0055636Y0058098D01*
X0055560Y0058074D01*
X0055486Y0058056D01*
X0055420Y0058044D01*
X0055390Y0058039D01*
X0055363Y0058037D01*
X0055341Y0058034D01*
X0055321Y0058034D01*
X0055304Y0058032D01*
X0055282Y0058032D01*
X0055216Y0058034D01*
X0055152Y0058042D01*
X0055090Y0058054D01*
X0055034Y0058071D01*
X0054980Y0058088D01*
X0054930Y0058108D01*
X0054884Y0058130D01*
X0054842Y0058155D01*
X0054805Y0058177D01*
X0054773Y0058199D01*
X0054743Y0058219D01*
X0054721Y0058238D01*
X0054702Y0058253D01*
X0054687Y0058265D01*
X0054679Y0058273D01*
X0054677Y0058275D01*
X0054635Y0058322D01*
X0054598Y0058374D01*
X0054566Y0058423D01*
X0054537Y0058477D01*
X0054515Y0058529D01*
X0054495Y0058580D01*
X0054478Y0058630D01*
X0054465Y0058679D01*
X0054455Y0058723D01*
X0054448Y0058765D01*
X0054443Y0058802D01*
X0054438Y0058834D01*
X0054438Y0058858D01*
X0054436Y0058878D01*
X0054436Y0058890D01*
X0054436Y0058895D01*
X0054438Y0058964D01*
X0054446Y0059028D01*
X0054458Y0059090D01*
X0054473Y0059146D01*
X0054490Y0059200D01*
X0054512Y0059252D01*
X0054532Y0059299D01*
X0054554Y0059340D01*
X0054578Y0059377D01*
X0054598Y0059412D01*
X0054618Y0059439D01*
X0054638Y0059464D01*
X0054652Y0059483D01*
X0054665Y0059496D01*
X0054672Y0059505D01*
X0054675Y0059508D01*
X0054721Y0059550D01*
X0054768Y0059589D01*
X0054820Y0059621D01*
X0054871Y0059648D01*
X0054920Y0059673D01*
X0054972Y0059692D01*
X0055021Y0059707D01*
X0055068Y0059722D01*
X0055112Y0059732D01*
X0055154Y0059739D01*
X0055191Y0059744D01*
X0055223Y0059746D01*
X0055248Y0059749D01*
X0055267Y0059751D01*
X0055329Y0059751D01*
X0055373Y0059746D01*
D02*
G37*
G36*
X0064661Y0063697D02*
X0064712Y0063692D01*
X0064761Y0063685D01*
X0064805Y0063676D01*
X0064849Y0063664D01*
X0064888Y0063653D01*
X0064923Y0063639D01*
X0064958Y0063625D01*
X0064988Y0063611D01*
X0065014Y0063597D01*
X0065037Y0063585D01*
X0065055Y0063574D01*
X0065069Y0063564D01*
X0065081Y0063558D01*
X0065088Y0063553D01*
X0065090Y0063550D01*
X0065125Y0063520D01*
X0065155Y0063488D01*
X0065183Y0063451D01*
X0065206Y0063411D01*
X0065227Y0063372D01*
X0065246Y0063330D01*
X0065262Y0063291D01*
X0065276Y0063251D01*
X0065287Y0063214D01*
X0065297Y0063179D01*
X0065304Y0063147D01*
X0065308Y0063119D01*
X0065313Y0063096D01*
X0065315Y0063077D01*
X0065318Y0063068D01*
X0065318Y0063063D01*
X0064909Y0063024D01*
X0064907Y0063056D01*
X0064902Y0063086D01*
X0064891Y0063140D01*
X0064877Y0063184D01*
X0064863Y0063219D01*
X0064847Y0063247D01*
X0064835Y0063265D01*
X0064826Y0063274D01*
X0064823Y0063279D01*
X0064793Y0063305D01*
X0064758Y0063326D01*
X0064724Y0063339D01*
X0064691Y0063349D01*
X0064661Y0063353D01*
X0064638Y0063358D01*
X0064617Y0063358D01*
X0064571Y0063356D01*
X0064531Y0063346D01*
X0064496Y0063335D01*
X0064466Y0063321D01*
X0064443Y0063307D01*
X0064427Y0063295D01*
X0064415Y0063286D01*
X0064413Y0063284D01*
X0064387Y0063254D01*
X0064369Y0063219D01*
X0064357Y0063184D01*
X0064348Y0063152D01*
X0064343Y0063119D01*
X0064338Y0063096D01*
X0064338Y0063086D01*
X0064338Y0063080D01*
X0064338Y0063075D01*
X0064338Y0063073D01*
X0064343Y0063026D01*
X0064352Y0062980D01*
X0064366Y0062938D01*
X0064380Y0062901D01*
X0064396Y0062868D01*
X0064410Y0062843D01*
X0064417Y0062834D01*
X0064420Y0062827D01*
X0064424Y0062824D01*
X0064424Y0062822D01*
X0064438Y0062803D01*
X0064457Y0062780D01*
X0064480Y0062755D01*
X0064503Y0062729D01*
X0064559Y0062671D01*
X0064619Y0062613D01*
X0064647Y0062585D01*
X0064675Y0062557D01*
X0064698Y0062534D01*
X0064721Y0062514D01*
X0064740Y0062497D01*
X0064754Y0062483D01*
X0064763Y0062474D01*
X0064765Y0062472D01*
X0064828Y0062414D01*
X0064884Y0062358D01*
X0064937Y0062305D01*
X0064983Y0062256D01*
X0065025Y0062212D01*
X0065062Y0062168D01*
X0065097Y0062131D01*
X0065125Y0062096D01*
X0065150Y0062063D01*
X0065171Y0062038D01*
X0065190Y0062012D01*
X0065204Y0061994D01*
X0065213Y0061980D01*
X0065222Y0061968D01*
X0065225Y0061961D01*
X0065227Y0061959D01*
X0065266Y0061887D01*
X0065297Y0061815D01*
X0065322Y0061745D01*
X0065341Y0061683D01*
X0065348Y0061655D01*
X0065352Y0061630D01*
X0065357Y0061606D01*
X0065362Y0061588D01*
X0065364Y0061572D01*
X0065364Y0061560D01*
X0065366Y0061553D01*
X0065366Y0061551D01*
X0063928Y0061551D01*
X0063928Y0061931D01*
X0064744Y0061931D01*
X0064717Y0061971D01*
X0064703Y0061989D01*
X0064691Y0062008D01*
X0064679Y0062022D01*
X0064670Y0062033D01*
X0064663Y0062040D01*
X0064661Y0062042D01*
X0064649Y0062054D01*
X0064636Y0062070D01*
X0064619Y0062087D01*
X0064601Y0062105D01*
X0064561Y0062145D01*
X0064519Y0062184D01*
X0064480Y0062221D01*
X0064461Y0062237D01*
X0064445Y0062251D01*
X0064434Y0062263D01*
X0064424Y0062272D01*
X0064417Y0062277D01*
X0064415Y0062279D01*
X0064380Y0062312D01*
X0064348Y0062342D01*
X0064318Y0062372D01*
X0064290Y0062397D01*
X0064267Y0062423D01*
X0064243Y0062444D01*
X0064225Y0062465D01*
X0064206Y0062483D01*
X0064181Y0062514D01*
X0064160Y0062534D01*
X0064151Y0062548D01*
X0064146Y0062553D01*
X0064107Y0062606D01*
X0064072Y0062657D01*
X0064044Y0062704D01*
X0064021Y0062743D01*
X0064004Y0062778D01*
X0063998Y0062792D01*
X0063990Y0062803D01*
X0063986Y0062813D01*
X0063984Y0062822D01*
X0063981Y0062824D01*
X0063981Y0062827D01*
X0063963Y0062875D01*
X0063951Y0062924D01*
X0063942Y0062971D01*
X0063935Y0063015D01*
X0063930Y0063049D01*
X0063930Y0063066D01*
X0063928Y0063077D01*
X0063928Y0063089D01*
X0063928Y0063096D01*
X0063928Y0063100D01*
X0063928Y0063103D01*
X0063930Y0063149D01*
X0063935Y0063193D01*
X0063944Y0063235D01*
X0063956Y0063277D01*
X0063970Y0063314D01*
X0063986Y0063349D01*
X0064002Y0063381D01*
X0064018Y0063409D01*
X0064037Y0063437D01*
X0064053Y0063460D01*
X0064069Y0063481D01*
X0064083Y0063497D01*
X0064095Y0063509D01*
X0064104Y0063520D01*
X0064109Y0063525D01*
X0064111Y0063527D01*
X0064146Y0063558D01*
X0064185Y0063583D01*
X0064225Y0063606D01*
X0064264Y0063627D01*
X0064306Y0063643D01*
X0064348Y0063657D01*
X0064387Y0063669D01*
X0064427Y0063678D01*
X0064464Y0063685D01*
X0064499Y0063690D01*
X0064529Y0063694D01*
X0064554Y0063697D01*
X0064577Y0063699D01*
X0064608Y0063699D01*
X0064661Y0063697D01*
D02*
G37*
G36*
X0066058Y0061551D02*
X0065647Y0061551D01*
X0065647Y0061961D01*
X0066058Y0061961D01*
X0066058Y0061551D01*
D02*
G37*
G36*
X0067171Y0063697D02*
X0067225Y0063690D01*
X0067276Y0063678D01*
X0067322Y0063664D01*
X0067366Y0063648D01*
X0067406Y0063629D01*
X0067443Y0063609D01*
X0067475Y0063590D01*
X0067503Y0063569D01*
X0067529Y0063548D01*
X0067549Y0063530D01*
X0067568Y0063513D01*
X0067582Y0063499D01*
X0067591Y0063488D01*
X0067598Y0063481D01*
X0067600Y0063479D01*
X0067638Y0063425D01*
X0067670Y0063365D01*
X0067698Y0063300D01*
X0067721Y0063230D01*
X0067742Y0063158D01*
X0067758Y0063086D01*
X0067772Y0063015D01*
X0067784Y0062943D01*
X0067791Y0062875D01*
X0067798Y0062813D01*
X0067802Y0062757D01*
X0067807Y0062706D01*
X0067807Y0062685D01*
X0067807Y0062667D01*
X0067809Y0062650D01*
X0067809Y0062634D01*
X0067809Y0062625D01*
X0067809Y0062616D01*
X0067809Y0062611D01*
X0067809Y0062609D01*
X0067807Y0062497D01*
X0067800Y0062395D01*
X0067791Y0062300D01*
X0067779Y0062214D01*
X0067765Y0062135D01*
X0067749Y0062066D01*
X0067733Y0062003D01*
X0067714Y0061947D01*
X0067696Y0061901D01*
X0067679Y0061859D01*
X0067663Y0061824D01*
X0067649Y0061797D01*
X0067638Y0061776D01*
X0067626Y0061762D01*
X0067621Y0061753D01*
X0067619Y0061750D01*
X0067582Y0061708D01*
X0067542Y0061671D01*
X0067501Y0061639D01*
X0067459Y0061611D01*
X0067417Y0061590D01*
X0067375Y0061569D01*
X0067336Y0061553D01*
X0067297Y0061541D01*
X0067259Y0061532D01*
X0067225Y0061523D01*
X0067194Y0061518D01*
X0067167Y0061516D01*
X0067146Y0061513D01*
X0067130Y0061511D01*
X0067115Y0061511D01*
X0067060Y0061513D01*
X0067007Y0061521D01*
X0066955Y0061532D01*
X0066909Y0061546D01*
X0066865Y0061562D01*
X0066825Y0061581D01*
X0066788Y0061599D01*
X0066756Y0061620D01*
X0066728Y0061641D01*
X0066703Y0061660D01*
X0066679Y0061678D01*
X0066663Y0061694D01*
X0066649Y0061708D01*
X0066638Y0061720D01*
X0066633Y0061727D01*
X0066631Y0061729D01*
X0066594Y0061783D01*
X0066561Y0061843D01*
X0066533Y0061910D01*
X0066508Y0061978D01*
X0066489Y0062049D01*
X0066471Y0062124D01*
X0066457Y0062196D01*
X0066445Y0062267D01*
X0066438Y0062335D01*
X0066431Y0062397D01*
X0066426Y0062455D01*
X0066422Y0062504D01*
X0066422Y0062527D01*
X0066422Y0062546D01*
X0066419Y0062562D01*
X0066419Y0062578D01*
X0066419Y0062588D01*
X0066419Y0062597D01*
X0066419Y0062602D01*
X0066419Y0062604D01*
X0066422Y0062713D01*
X0066429Y0062815D01*
X0066438Y0062910D01*
X0066452Y0062996D01*
X0066468Y0063075D01*
X0066485Y0063147D01*
X0066505Y0063212D01*
X0066524Y0063267D01*
X0066542Y0063318D01*
X0066561Y0063360D01*
X0066580Y0063397D01*
X0066596Y0063425D01*
X0066610Y0063448D01*
X0066619Y0063465D01*
X0066626Y0063474D01*
X0066628Y0063476D01*
X0066663Y0063516D01*
X0066700Y0063550D01*
X0066740Y0063581D01*
X0066779Y0063606D01*
X0066819Y0063627D01*
X0066860Y0063646D01*
X0066900Y0063660D01*
X0066937Y0063671D01*
X0066974Y0063680D01*
X0067009Y0063687D01*
X0067039Y0063692D01*
X0067064Y0063697D01*
X0067085Y0063697D01*
X0067102Y0063699D01*
X0067115Y0063699D01*
X0067171Y0063697D01*
D02*
G37*
%LPC*%
G36*
X0055302Y0059397D02*
X0055285Y0059397D01*
X0055253Y0059395D01*
X0055223Y0059392D01*
X0055169Y0059377D01*
X0055120Y0059355D01*
X0055078Y0059333D01*
X0055043Y0059308D01*
X0055019Y0059286D01*
X0055011Y0059279D01*
X0055004Y0059272D01*
X0055002Y0059269D01*
X0054999Y0059267D01*
X0054980Y0059242D01*
X0054960Y0059213D01*
X0054933Y0059154D01*
X0054911Y0059092D01*
X0054898Y0059031D01*
X0054893Y0059003D01*
X0054889Y0058976D01*
X0054886Y0058954D01*
X0054886Y0058932D01*
X0054884Y0058917D01*
X0054884Y0058903D01*
X0054884Y0058895D01*
X0054884Y0058893D01*
X0054884Y0058849D01*
X0054889Y0058804D01*
X0054893Y0058765D01*
X0054901Y0058728D01*
X0054911Y0058696D01*
X0054920Y0058664D01*
X0054930Y0058635D01*
X0054940Y0058610D01*
X0054952Y0058588D01*
X0054962Y0058568D01*
X0054972Y0058551D01*
X0054982Y0058539D01*
X0054989Y0058529D01*
X0054994Y0058521D01*
X0054997Y0058516D01*
X0054999Y0058514D01*
X0055021Y0058492D01*
X0055043Y0058472D01*
X0055068Y0058455D01*
X0055093Y0058440D01*
X0055139Y0058418D01*
X0055186Y0058403D01*
X0055225Y0058393D01*
X0055243Y0058391D01*
X0055255Y0058389D01*
X0055267Y0058386D01*
X0055285Y0058386D01*
X0055316Y0058389D01*
X0055346Y0058391D01*
X0055400Y0058406D01*
X0055449Y0058425D01*
X0055491Y0058450D01*
X0055523Y0058475D01*
X0055550Y0058494D01*
X0055558Y0058502D01*
X0055565Y0058509D01*
X0055567Y0058511D01*
X0055570Y0058514D01*
X0055590Y0058539D01*
X0055607Y0058568D01*
X0055636Y0058627D01*
X0055656Y0058691D01*
X0055668Y0058750D01*
X0055673Y0058780D01*
X0055678Y0058807D01*
X0055681Y0058829D01*
X0055681Y0058851D01*
X0055683Y0058866D01*
X0055683Y0058881D01*
X0055683Y0058888D01*
X0055683Y0058890D01*
X0055681Y0058935D01*
X0055678Y0058976D01*
X0055673Y0059016D01*
X0055666Y0059053D01*
X0055656Y0059087D01*
X0055646Y0059117D01*
X0055636Y0059146D01*
X0055627Y0059171D01*
X0055617Y0059193D01*
X0055607Y0059213D01*
X0055597Y0059230D01*
X0055587Y0059242D01*
X0055580Y0059252D01*
X0055575Y0059262D01*
X0055570Y0059264D01*
X0055570Y0059267D01*
X0055548Y0059289D01*
X0055523Y0059311D01*
X0055501Y0059328D01*
X0055476Y0059343D01*
X0055430Y0059365D01*
X0055383Y0059380D01*
X0055344Y0059390D01*
X0055326Y0059392D01*
X0055312Y0059395D01*
X0055302Y0059397D01*
D02*
G37*
G36*
X0067127Y0063358D02*
X0067115Y0063358D01*
X0067088Y0063356D01*
X0067064Y0063351D01*
X0067041Y0063342D01*
X0067020Y0063335D01*
X0067007Y0063326D01*
X0066993Y0063316D01*
X0066986Y0063311D01*
X0066983Y0063309D01*
X0066962Y0063288D01*
X0066944Y0063260D01*
X0066928Y0063230D01*
X0066914Y0063198D01*
X0066902Y0063168D01*
X0066895Y0063145D01*
X0066893Y0063135D01*
X0066891Y0063128D01*
X0066888Y0063124D01*
X0066888Y0063121D01*
X0066881Y0063091D01*
X0066874Y0063059D01*
X0066870Y0063022D01*
X0066865Y0062980D01*
X0066858Y0062896D01*
X0066853Y0062810D01*
X0066851Y0062769D01*
X0066851Y0062731D01*
X0066849Y0062694D01*
X0066849Y0062664D01*
X0066849Y0062639D01*
X0066849Y0062620D01*
X0066849Y0062609D01*
X0066849Y0062604D01*
X0066849Y0062537D01*
X0066851Y0062472D01*
X0066853Y0062414D01*
X0066856Y0062360D01*
X0066858Y0062312D01*
X0066863Y0062267D01*
X0066867Y0062228D01*
X0066870Y0062193D01*
X0066874Y0062163D01*
X0066879Y0062138D01*
X0066884Y0062117D01*
X0066886Y0062098D01*
X0066888Y0062084D01*
X0066891Y0062075D01*
X0066893Y0062070D01*
X0066893Y0062068D01*
X0066907Y0062026D01*
X0066921Y0061989D01*
X0066935Y0061961D01*
X0066951Y0061938D01*
X0066962Y0061919D01*
X0066974Y0061908D01*
X0066981Y0061901D01*
X0066983Y0061899D01*
X0067007Y0061882D01*
X0067027Y0061871D01*
X0067051Y0061864D01*
X0067071Y0061859D01*
X0067090Y0061855D01*
X0067104Y0061852D01*
X0067115Y0061852D01*
X0067143Y0061855D01*
X0067167Y0061859D01*
X0067190Y0061866D01*
X0067208Y0061876D01*
X0067225Y0061885D01*
X0067238Y0061892D01*
X0067246Y0061896D01*
X0067248Y0061899D01*
X0067269Y0061919D01*
X0067287Y0061947D01*
X0067303Y0061978D01*
X0067317Y0062010D01*
X0067329Y0062038D01*
X0067336Y0062061D01*
X0067338Y0062070D01*
X0067341Y0062077D01*
X0067343Y0062082D01*
X0067343Y0062084D01*
X0067350Y0062114D01*
X0067354Y0062147D01*
X0067359Y0062184D01*
X0067364Y0062226D01*
X0067371Y0062312D01*
X0067375Y0062397D01*
X0067378Y0062439D01*
X0067378Y0062476D01*
X0067378Y0062511D01*
X0067380Y0062544D01*
X0067380Y0062569D01*
X0067380Y0062588D01*
X0067380Y0062599D01*
X0067380Y0062604D01*
X0067380Y0062671D01*
X0067378Y0062734D01*
X0067375Y0062794D01*
X0067373Y0062845D01*
X0067371Y0062894D01*
X0067366Y0062938D01*
X0067364Y0062978D01*
X0067359Y0063012D01*
X0067354Y0063042D01*
X0067352Y0063070D01*
X0067348Y0063091D01*
X0067345Y0063110D01*
X0067343Y0063124D01*
X0067341Y0063133D01*
X0067338Y0063137D01*
X0067338Y0063140D01*
X0067324Y0063182D01*
X0067310Y0063219D01*
X0067294Y0063247D01*
X0067280Y0063270D01*
X0067269Y0063288D01*
X0067257Y0063300D01*
X0067250Y0063307D01*
X0067248Y0063309D01*
X0067225Y0063326D01*
X0067204Y0063337D01*
X0067181Y0063346D01*
X0067160Y0063351D01*
X0067141Y0063356D01*
X0067127Y0063358D01*
D02*
G37*
%LPD*%
D18*
X0041733Y0052914D02*
X0077559Y0052914D01*
X0041733Y0065118D02*
X0077559Y0065118D01*
X0041733Y0052914D02*
X0041733Y0056851D01*
X0060645Y0058878D02*
X0063597Y0058878D01*
D39*
X0071260Y0061575D02*
X0071260Y0063937D01*
X0064923Y0057240D02*
X0064923Y0056847D01*
X0066892Y0057244D02*
X0066892Y0056851D01*
X0056201Y0061575D02*
X0056201Y0063937D01*
X0047835Y0061575D02*
X0047835Y0063937D01*
X0047445Y0057835D02*
X0047839Y0057835D01*
X0047441Y0059803D02*
X0047835Y0059803D01*
X0071260Y0054292D02*
X0071260Y0056654D01*
X0055808Y0054292D02*
X0056201Y0054292D01*
X0055803Y0056260D02*
X0056197Y0056260D01*
X0070670Y0057892D02*
X0071063Y0057892D01*
X0070666Y0059861D02*
X0071059Y0059861D01*
X0047437Y0056260D02*
X0047831Y0056260D01*
X0047441Y0054292D02*
X0047835Y0054292D01*
M02*
