G75*
G70*
%OFA0B0*%
%FSLAX25Y25*%
%IPPOS*%
%LPD*%
%AMOC8*
5,1,8,0,0,1.08239X$1,22.5*
%
%AMM3*
21,1,0.023620,0.018900,0.000000,0.000000,180.000000*
21,1,0.018900,0.023620,0.000000,0.000000,180.000000*
1,1,0.004720,-0.009450,0.009450*
1,1,0.004720,0.009450,0.009450*
1,1,0.004720,0.009450,-0.009450*
1,1,0.004720,-0.009450,-0.009450*
%
%AMM4*
21,1,0.019680,0.019680,0.000000,0.000000,270.000000*
21,1,0.015750,0.023620,0.000000,0.000000,270.000000*
1,1,0.003940,-0.009840,-0.007870*
1,1,0.003940,-0.009840,0.007870*
1,1,0.003940,0.009840,0.007870*
1,1,0.003940,0.009840,-0.007870*
%
%AMM5*
21,1,0.033470,0.026770,0.000000,0.000000,270.000000*
21,1,0.026770,0.033470,0.000000,0.000000,270.000000*
1,1,0.006690,-0.013390,-0.013390*
1,1,0.006690,-0.013390,0.013390*
1,1,0.006690,0.013390,0.013390*
1,1,0.006690,0.013390,-0.013390*
%
%AMM6*
21,1,0.019680,0.019680,0.000000,0.000000,0.000000*
21,1,0.015750,0.023620,0.000000,0.000000,0.000000*
1,1,0.003940,0.007870,-0.009840*
1,1,0.003940,-0.007870,-0.009840*
1,1,0.003940,-0.007870,0.009840*
1,1,0.003940,0.007870,0.009840*
%
%ADD37M3*%
%ADD38M4*%
%ADD39M5*%
%ADD40M6*%
X0000000Y0000000D02*
%LPD*%
G01*
X0009203Y0038976D02*
%LPD*%
G01*
G36*
G01*
X0026132Y0069570D02*
X0026132Y0068389D01*
G75*
G02*
X0025542Y0067798I-000591J0000000D01*
G01*
X0021506Y0067798D01*
G75*
G02*
X0020916Y0068389I0000000J0000591D01*
G01*
X0020916Y0069570D01*
G75*
G02*
X0021506Y0070160I0000591J0000000D01*
G01*
X0025542Y0070160D01*
G75*
G02*
X0026132Y0069570I0000000J-000591D01*
G01*
G37*
G36*
G01*
X0026132Y0065829D02*
X0026132Y0064648D01*
G75*
G02*
X0025542Y0064058I-000591J0000000D01*
G01*
X0021506Y0064058D01*
G75*
G02*
X0020916Y0064648I0000000J0000591D01*
G01*
X0020916Y0065829D01*
G75*
G02*
X0021506Y0066420I0000591J0000000D01*
G01*
X0025542Y0066420D01*
G75*
G02*
X0026132Y0065829I0000000J-000591D01*
G01*
G37*
G36*
G01*
X0026132Y0062089D02*
X0026132Y0060908D01*
G75*
G02*
X0025542Y0060318I-000591J0000000D01*
G01*
X0021506Y0060318D01*
G75*
G02*
X0020916Y0060908I0000000J0000591D01*
G01*
X0020916Y0062089D01*
G75*
G02*
X0021506Y0062680I0000591J0000000D01*
G01*
X0025542Y0062680D01*
G75*
G02*
X0026132Y0062089I0000000J-000591D01*
G01*
G37*
G36*
G01*
X0017175Y0062089D02*
X0017175Y0060908D01*
G75*
G02*
X0016585Y0060318I-000591J0000000D01*
G01*
X0012549Y0060318D01*
G75*
G02*
X0011959Y0060908I0000000J0000591D01*
G01*
X0011959Y0062089D01*
G75*
G02*
X0012549Y0062680I0000591J0000000D01*
G01*
X0016585Y0062680D01*
G75*
G02*
X0017175Y0062089I0000000J-000591D01*
G01*
G37*
G36*
G01*
X0017175Y0069570D02*
X0017175Y0068389D01*
G75*
G02*
X0016585Y0067798I-000591J0000000D01*
G01*
X0012549Y0067798D01*
G75*
G02*
X0011959Y0068389I0000000J0000591D01*
G01*
X0011959Y0069570D01*
G75*
G02*
X0012549Y0070160I0000591J0000000D01*
G01*
X0016585Y0070160D01*
G75*
G02*
X0017175Y0069570I0000000J-000591D01*
G01*
G37*
G36*
G01*
X0025857Y0047283D02*
X0027195Y0047283D01*
G75*
G02*
X0027746Y0046732I0000000J-000551D01*
G01*
X0027746Y0045630D01*
G75*
G02*
X0027195Y0045078I-000551J0000000D01*
G01*
X0025857Y0045078D01*
G75*
G02*
X0025305Y0045630I0000000J0000551D01*
G01*
X0025305Y0046732D01*
G75*
G02*
X0025857Y0047283I0000551J0000000D01*
G01*
G37*
G36*
G01*
X0025857Y0043504D02*
X0027195Y0043504D01*
G75*
G02*
X0027746Y0042952I0000000J-000551D01*
G01*
X0027746Y0041850D01*
G75*
G02*
X0027195Y0041299I-000551J0000000D01*
G01*
X0025857Y0041299D01*
G75*
G02*
X0025305Y0041850I0000000J0000551D01*
G01*
X0025305Y0042952D01*
G75*
G02*
X0025857Y0043504I0000551J0000000D01*
G01*
G37*
G36*
G01*
X0052372Y0070000D02*
X0052372Y0071338D01*
G75*
G02*
X0052923Y0071889I0000551J0000000D01*
G01*
X0054026Y0071889D01*
G75*
G02*
X0054577Y0071338I0000000J-000551D01*
G01*
X0054577Y0070000D01*
G75*
G02*
X0054026Y0069448I-000551J0000000D01*
G01*
X0052923Y0069448D01*
G75*
G02*
X0052372Y0070000I0000000J0000551D01*
G01*
G37*
G36*
G01*
X0056152Y0070000D02*
X0056152Y0071338D01*
G75*
G02*
X0056703Y0071889I0000551J0000000D01*
G01*
X0057805Y0071889D01*
G75*
G02*
X0058357Y0071338I0000000J-000551D01*
G01*
X0058357Y0070000D01*
G75*
G02*
X0057805Y0069448I-000551J0000000D01*
G01*
X0056703Y0069448D01*
G75*
G02*
X0056152Y0070000I0000000J0000551D01*
G01*
G37*
G36*
G01*
X0065719Y0075000D02*
X0065719Y0073661D01*
G75*
G02*
X0065168Y0073110I-000551J0000000D01*
G01*
X0064065Y0073110D01*
G75*
G02*
X0063514Y0073661I0000000J0000551D01*
G01*
X0063514Y0075000D01*
G75*
G02*
X0064065Y0075551I0000551J0000000D01*
G01*
X0065168Y0075551D01*
G75*
G02*
X0065719Y0075000I0000000J-000551D01*
G01*
G37*
G36*
G01*
X0061939Y0075000D02*
X0061939Y0073661D01*
G75*
G02*
X0061388Y0073110I-000551J0000000D01*
G01*
X0060286Y0073110D01*
G75*
G02*
X0059734Y0073661I0000000J0000551D01*
G01*
X0059734Y0075000D01*
G75*
G02*
X0060286Y0075551I0000551J0000000D01*
G01*
X0061388Y0075551D01*
G75*
G02*
X0061939Y0075000I0000000J-000551D01*
G01*
G37*
G36*
G01*
X0043967Y0066259D02*
X0043967Y0067598D01*
G75*
G02*
X0044518Y0068149I0000551J0000000D01*
G01*
X0045620Y0068149D01*
G75*
G02*
X0046172Y0067598I0000000J-000551D01*
G01*
X0046172Y0066259D01*
G75*
G02*
X0045620Y0065708I-000551J0000000D01*
G01*
X0044518Y0065708D01*
G75*
G02*
X0043967Y0066259I0000000J0000551D01*
G01*
G37*
G36*
G01*
X0047746Y0066259D02*
X0047746Y0067598D01*
G75*
G02*
X0048297Y0068149I0000551J0000000D01*
G01*
X0049400Y0068149D01*
G75*
G02*
X0049951Y0067598I0000000J-000551D01*
G01*
X0049951Y0066259D01*
G75*
G02*
X0049400Y0065708I-000551J0000000D01*
G01*
X0048297Y0065708D01*
G75*
G02*
X0047746Y0066259I0000000J0000551D01*
G01*
G37*
G36*
G01*
X0065522Y0071338D02*
X0065522Y0070000D01*
G75*
G02*
X0064971Y0069448I-000551J0000000D01*
G01*
X0063868Y0069448D01*
G75*
G02*
X0063317Y0070000I0000000J0000551D01*
G01*
X0063317Y0071338D01*
G75*
G02*
X0063868Y0071889I0000551J0000000D01*
G01*
X0064971Y0071889D01*
G75*
G02*
X0065522Y0071338I0000000J-000551D01*
G01*
G37*
G36*
G01*
X0061742Y0071338D02*
X0061742Y0070000D01*
G75*
G02*
X0061191Y0069448I-000551J0000000D01*
G01*
X0060089Y0069448D01*
G75*
G02*
X0059538Y0070000I0000000J0000551D01*
G01*
X0059538Y0071338D01*
G75*
G02*
X0060089Y0071889I0000551J0000000D01*
G01*
X0061191Y0071889D01*
G75*
G02*
X0061742Y0071338I0000000J-000551D01*
G01*
G37*
G36*
G01*
X0060246Y0049822D02*
X0060246Y0051161D01*
G75*
G02*
X0060797Y0051712I0000551J0000000D01*
G01*
X0061900Y0051712D01*
G75*
G02*
X0062451Y0051161I0000000J-000551D01*
G01*
X0062451Y0049822D01*
G75*
G02*
X0061900Y0049271I-000551J0000000D01*
G01*
X0060797Y0049271D01*
G75*
G02*
X0060246Y0049822I0000000J0000551D01*
G01*
G37*
G36*
G01*
X0064026Y0049822D02*
X0064026Y0051161D01*
G75*
G02*
X0064577Y0051712I0000551J0000000D01*
G01*
X0065679Y0051712D01*
G75*
G02*
X0066231Y0051161I0000000J-000551D01*
G01*
X0066231Y0049822D01*
G75*
G02*
X0065679Y0049271I-000551J0000000D01*
G01*
X0064577Y0049271D01*
G75*
G02*
X0064026Y0049822I0000000J0000551D01*
G01*
G37*
G36*
G01*
X0029737Y0042322D02*
X0029737Y0043110D01*
G75*
G02*
X0030131Y0043504I0000394J0000000D01*
G01*
X0035151Y0043504D01*
G75*
G02*
X0035544Y0043110I0000000J-000394D01*
G01*
X0035544Y0042322D01*
G75*
G02*
X0035151Y0041929I-000394J0000000D01*
G01*
X0030131Y0041929D01*
G75*
G02*
X0029737Y0042322I0000000J0000394D01*
G01*
G37*
G36*
G01*
X0029737Y0044882D02*
X0029737Y0045669D01*
G75*
G02*
X0030131Y0046063I0000394J0000000D01*
G01*
X0035151Y0046063D01*
G75*
G02*
X0035544Y0045669I0000000J-000394D01*
G01*
X0035544Y0044882D01*
G75*
G02*
X0035151Y0044488I-000394J0000000D01*
G01*
X0030131Y0044488D01*
G75*
G02*
X0029737Y0044882I0000000J0000394D01*
G01*
G37*
G36*
G01*
X0029737Y0047441D02*
X0029737Y0048228D01*
G75*
G02*
X0030131Y0048622I0000394J0000000D01*
G01*
X0035151Y0048622D01*
G75*
G02*
X0035544Y0048228I0000000J-000394D01*
G01*
X0035544Y0047441D01*
G75*
G02*
X0035151Y0047047I-000394J0000000D01*
G01*
X0030131Y0047047D01*
G75*
G02*
X0029737Y0047441I0000000J0000394D01*
G01*
G37*
G36*
G01*
X0029737Y0050000D02*
X0029737Y0050787D01*
G75*
G02*
X0030131Y0051181I0000394J0000000D01*
G01*
X0035151Y0051181D01*
G75*
G02*
X0035544Y0050787I0000000J-000394D01*
G01*
X0035544Y0050000D01*
G75*
G02*
X0035151Y0049606I-000394J0000000D01*
G01*
X0030131Y0049606D01*
G75*
G02*
X0029737Y0050000I0000000J0000394D01*
G01*
G37*
G36*
G01*
X0029737Y0052559D02*
X0029737Y0053346D01*
G75*
G02*
X0030131Y0053740I0000394J0000000D01*
G01*
X0035151Y0053740D01*
G75*
G02*
X0035544Y0053346I0000000J-000394D01*
G01*
X0035544Y0052559D01*
G75*
G02*
X0035151Y0052165I-000394J0000000D01*
G01*
X0030131Y0052165D01*
G75*
G02*
X0029737Y0052559I0000000J0000394D01*
G01*
G37*
G36*
G01*
X0029737Y0055118D02*
X0029737Y0055905D01*
G75*
G02*
X0030131Y0056299I0000394J0000000D01*
G01*
X0035151Y0056299D01*
G75*
G02*
X0035544Y0055905I0000000J-000394D01*
G01*
X0035544Y0055118D01*
G75*
G02*
X0035151Y0054724I-000394J0000000D01*
G01*
X0030131Y0054724D01*
G75*
G02*
X0029737Y0055118I0000000J0000394D01*
G01*
G37*
G36*
G01*
X0029737Y0057677D02*
X0029737Y0058464D01*
G75*
G02*
X0030131Y0058858I0000394J0000000D01*
G01*
X0035151Y0058858D01*
G75*
G02*
X0035544Y0058464I0000000J-000394D01*
G01*
X0035544Y0057677D01*
G75*
G02*
X0035151Y0057283I-000394J0000000D01*
G01*
X0030131Y0057283D01*
G75*
G02*
X0029737Y0057677I0000000J0000394D01*
G01*
G37*
G36*
G01*
X0052277Y0057677D02*
X0052277Y0058464D01*
G75*
G02*
X0052670Y0058858I0000394J0000000D01*
G01*
X0057690Y0058858D01*
G75*
G02*
X0058084Y0058464I0000000J-000394D01*
G01*
X0058084Y0057677D01*
G75*
G02*
X0057690Y0057283I-000394J0000000D01*
G01*
X0052670Y0057283D01*
G75*
G02*
X0052277Y0057677I0000000J0000394D01*
G01*
G37*
G36*
G01*
X0052277Y0055118D02*
X0052277Y0055905D01*
G75*
G02*
X0052670Y0056299I0000394J0000000D01*
G01*
X0057690Y0056299D01*
G75*
G02*
X0058084Y0055905I0000000J-000394D01*
G01*
X0058084Y0055118D01*
G75*
G02*
X0057690Y0054724I-000394J0000000D01*
G01*
X0052670Y0054724D01*
G75*
G02*
X0052277Y0055118I0000000J0000394D01*
G01*
G37*
G36*
G01*
X0052277Y0052559D02*
X0052277Y0053346D01*
G75*
G02*
X0052670Y0053740I0000394J0000000D01*
G01*
X0057690Y0053740D01*
G75*
G02*
X0058084Y0053346I0000000J-000394D01*
G01*
X0058084Y0052559D01*
G75*
G02*
X0057690Y0052165I-000394J0000000D01*
G01*
X0052670Y0052165D01*
G75*
G02*
X0052277Y0052559I0000000J0000394D01*
G01*
G37*
G36*
G01*
X0052277Y0050000D02*
X0052277Y0050787D01*
G75*
G02*
X0052670Y0051181I0000394J0000000D01*
G01*
X0057690Y0051181D01*
G75*
G02*
X0058084Y0050787I0000000J-000394D01*
G01*
X0058084Y0050000D01*
G75*
G02*
X0057690Y0049606I-000394J0000000D01*
G01*
X0052670Y0049606D01*
G75*
G02*
X0052277Y0050000I0000000J0000394D01*
G01*
G37*
G36*
G01*
X0052277Y0047441D02*
X0052277Y0048228D01*
G75*
G02*
X0052670Y0048622I0000394J0000000D01*
G01*
X0057690Y0048622D01*
G75*
G02*
X0058084Y0048228I0000000J-000394D01*
G01*
X0058084Y0047441D01*
G75*
G02*
X0057690Y0047047I-000394J0000000D01*
G01*
X0052670Y0047047D01*
G75*
G02*
X0052277Y0047441I0000000J0000394D01*
G01*
G37*
G36*
G01*
X0052277Y0044882D02*
X0052277Y0045669D01*
G75*
G02*
X0052670Y0046063I0000394J0000000D01*
G01*
X0057690Y0046063D01*
G75*
G02*
X0058084Y0045669I0000000J-000394D01*
G01*
X0058084Y0044882D01*
G75*
G02*
X0057690Y0044488I-000394J0000000D01*
G01*
X0052670Y0044488D01*
G75*
G02*
X0052277Y0044882I0000000J0000394D01*
G01*
G37*
G36*
G01*
X0052277Y0042322D02*
X0052277Y0043110D01*
G75*
G02*
X0052670Y0043504I0000394J0000000D01*
G01*
X0057690Y0043504D01*
G75*
G02*
X0058084Y0043110I0000000J-000394D01*
G01*
X0058084Y0042322D01*
G75*
G02*
X0057690Y0041929I-000394J0000000D01*
G01*
X0052670Y0041929D01*
G75*
G02*
X0052277Y0042322I0000000J0000394D01*
G01*
G37*
G36*
G01*
X0012094Y0050193D02*
X0012094Y0053736D01*
G75*
G02*
X0013078Y0054720I0000984J0000000D01*
G01*
X0015145Y0054720D01*
G75*
G02*
X0016129Y0053736I0000000J-000984D01*
G01*
X0016129Y0050193D01*
G75*
G02*
X0015145Y0049208I-000984J0000000D01*
G01*
X0013078Y0049208D01*
G75*
G02*
X0012094Y0050193I0000000J0000984D01*
G01*
G37*
G36*
G01*
X0019279Y0050193D02*
X0019279Y0053736D01*
G75*
G02*
X0020263Y0054720I0000984J0000000D01*
G01*
X0022330Y0054720D01*
G75*
G02*
X0023314Y0053736I0000000J-000984D01*
G01*
X0023314Y0050193D01*
G75*
G02*
X0022330Y0049208I-000984J0000000D01*
G01*
X0020263Y0049208D01*
G75*
G02*
X0019279Y0050193I0000000J0000984D01*
G01*
G37*
G36*
G01*
X0058337Y0063917D02*
X0058337Y0062460D01*
G75*
G02*
X0057805Y0061929I-000531J0000000D01*
G01*
X0056742Y0061929D01*
G75*
G02*
X0056211Y0062460I0000000J0000531D01*
G01*
X0056211Y0063917D01*
G75*
G02*
X0056742Y0064448I0000531J0000000D01*
G01*
X0057805Y0064448D01*
G75*
G02*
X0058337Y0063917I0000000J-000531D01*
G01*
G37*
G36*
G01*
X0054321Y0063917D02*
X0054321Y0062460D01*
G75*
G02*
X0053790Y0061929I-000531J0000000D01*
G01*
X0052727Y0061929D01*
G75*
G02*
X0052195Y0062460I0000000J0000531D01*
G01*
X0052195Y0063917D01*
G75*
G02*
X0052727Y0064448I0000531J0000000D01*
G01*
X0053790Y0064448D01*
G75*
G02*
X0054321Y0063917I0000000J-000531D01*
G01*
G37*
G36*
G01*
X0017904Y0074842D02*
X0017904Y0073504D01*
G75*
G02*
X0017353Y0072952I-000551J0000000D01*
G01*
X0016250Y0072952D01*
G75*
G02*
X0015699Y0073504I0000000J0000551D01*
G01*
X0015699Y0074842D01*
G75*
G02*
X0016250Y0075393I0000551J0000000D01*
G01*
X0017353Y0075393D01*
G75*
G02*
X0017904Y0074842I0000000J-000551D01*
G01*
G37*
G36*
G01*
X0014124Y0074842D02*
X0014124Y0073504D01*
G75*
G02*
X0013573Y0072952I-000551J0000000D01*
G01*
X0012471Y0072952D01*
G75*
G02*
X0011920Y0073504I0000000J0000551D01*
G01*
X0011920Y0074842D01*
G75*
G02*
X0012471Y0075393I0000551J0000000D01*
G01*
X0013573Y0075393D01*
G75*
G02*
X0014124Y0074842I0000000J-000551D01*
G01*
G37*
G36*
G01*
X0066014Y0067657D02*
X0066014Y0066200D01*
G75*
G02*
X0065483Y0065669I-000531J0000000D01*
G01*
X0064420Y0065669D01*
G75*
G02*
X0063888Y0066200I0000000J0000531D01*
G01*
X0063888Y0067657D01*
G75*
G02*
X0064420Y0068189I0000531J0000000D01*
G01*
X0065483Y0068189D01*
G75*
G02*
X0066014Y0067657I0000000J-000531D01*
G01*
G37*
G36*
G01*
X0061998Y0067657D02*
X0061998Y0066200D01*
G75*
G02*
X0061467Y0065669I-000531J0000000D01*
G01*
X0060404Y0065669D01*
G75*
G02*
X0059872Y0066200I0000000J0000531D01*
G01*
X0059872Y0067657D01*
G75*
G02*
X0060404Y0068189I0000531J0000000D01*
G01*
X0061467Y0068189D01*
G75*
G02*
X0061998Y0067657I0000000J-000531D01*
G01*
G37*
G36*
G01*
X0050081Y0063917D02*
X0050081Y0062461D01*
G75*
G02*
X0049549Y0061929I-000531J0000000D01*
G01*
X0048486Y0061929D01*
G75*
G02*
X0047955Y0062461I0000000J0000531D01*
G01*
X0047955Y0063917D01*
G75*
G02*
X0048486Y0064449I0000531J0000000D01*
G01*
X0049549Y0064449D01*
G75*
G02*
X0050081Y0063917I0000000J-000531D01*
G01*
G37*
G36*
G01*
X0046065Y0063917D02*
X0046065Y0062461D01*
G75*
G02*
X0045533Y0061929I-000531J0000000D01*
G01*
X0044470Y0061929D01*
G75*
G02*
X0043939Y0062461I0000000J0000531D01*
G01*
X0043939Y0063917D01*
G75*
G02*
X0044470Y0064449I0000531J0000000D01*
G01*
X0045533Y0064449D01*
G75*
G02*
X0046065Y0063917I0000000J-000531D01*
G01*
G37*
G36*
G01*
X0023314Y0046161D02*
X0023314Y0042618D01*
G75*
G02*
X0022330Y0041633I-000984J0000000D01*
G01*
X0020263Y0041633D01*
G75*
G02*
X0019279Y0042618I0000000J0000984D01*
G01*
X0019279Y0046161D01*
G75*
G02*
X0020263Y0047145I0000984J0000000D01*
G01*
X0022330Y0047145D01*
G75*
G02*
X0023314Y0046161I0000000J-000984D01*
G01*
G37*
G36*
G01*
X0016129Y0046161D02*
X0016129Y0042618D01*
G75*
G02*
X0015145Y0041633I-000984J0000000D01*
G01*
X0013078Y0041633D01*
G75*
G02*
X0012094Y0042618I0000000J0000984D01*
G01*
X0012094Y0046161D01*
G75*
G02*
X0013078Y0047145I0000984J0000000D01*
G01*
X0015145Y0047145D01*
G75*
G02*
X0016129Y0046161I0000000J-000984D01*
G01*
G37*
G36*
G01*
X0050030Y0075059D02*
X0050030Y0073602D01*
G75*
G02*
X0049498Y0073070I-000531J0000000D01*
G01*
X0048435Y0073070D01*
G75*
G02*
X0047904Y0073602I0000000J0000531D01*
G01*
X0047904Y0075059D01*
G75*
G02*
X0048435Y0075590I0000531J0000000D01*
G01*
X0049498Y0075590D01*
G75*
G02*
X0050030Y0075059I0000000J-000531D01*
G01*
G37*
G36*
G01*
X0046014Y0075059D02*
X0046014Y0073602D01*
G75*
G02*
X0045483Y0073070I-000531J0000000D01*
G01*
X0044420Y0073070D01*
G75*
G02*
X0043888Y0073602I0000000J0000531D01*
G01*
X0043888Y0075059D01*
G75*
G02*
X0044420Y0075590I0000531J0000000D01*
G01*
X0045483Y0075590D01*
G75*
G02*
X0046014Y0075059I0000000J-000531D01*
G01*
G37*
G36*
G01*
X0059715Y0041555D02*
X0059715Y0043011D01*
G75*
G02*
X0060246Y0043543I0000531J0000000D01*
G01*
X0061309Y0043543D01*
G75*
G02*
X0061841Y0043011I0000000J-000531D01*
G01*
X0061841Y0041555D01*
G75*
G02*
X0061309Y0041023I-000531J0000000D01*
G01*
X0060246Y0041023D01*
G75*
G02*
X0059715Y0041555I0000000J0000531D01*
G01*
G37*
G36*
G01*
X0063731Y0041555D02*
X0063731Y0043011D01*
G75*
G02*
X0064262Y0043543I0000531J0000000D01*
G01*
X0065325Y0043543D01*
G75*
G02*
X0065857Y0043011I0000000J-000531D01*
G01*
X0065857Y0041555D01*
G75*
G02*
X0065325Y0041023I-000531J0000000D01*
G01*
X0064262Y0041023D01*
G75*
G02*
X0063731Y0041555I0000000J0000531D01*
G01*
G37*
G36*
G01*
X0060168Y0053504D02*
X0060168Y0054960D01*
G75*
G02*
X0060699Y0055492I0000531J0000000D01*
G01*
X0061762Y0055492D01*
G75*
G02*
X0062294Y0054960I0000000J-000531D01*
G01*
X0062294Y0053504D01*
G75*
G02*
X0061762Y0052972I-000531J0000000D01*
G01*
X0060699Y0052972D01*
G75*
G02*
X0060168Y0053504I0000000J0000531D01*
G01*
G37*
G36*
G01*
X0064183Y0053504D02*
X0064183Y0054960D01*
G75*
G02*
X0064715Y0055492I0000531J0000000D01*
G01*
X0065778Y0055492D01*
G75*
G02*
X0066309Y0054960I0000000J-000531D01*
G01*
X0066309Y0053504D01*
G75*
G02*
X0065778Y0052972I-000531J0000000D01*
G01*
X0064715Y0052972D01*
G75*
G02*
X0064183Y0053504I0000000J0000531D01*
G01*
G37*
G36*
G01*
X0058632Y0067657D02*
X0058632Y0066200D01*
G75*
G02*
X0058101Y0065669I-000531J0000000D01*
G01*
X0057038Y0065669D01*
G75*
G02*
X0056506Y0066200I0000000J0000531D01*
G01*
X0056506Y0067657D01*
G75*
G02*
X0057038Y0068189I0000531J0000000D01*
G01*
X0058101Y0068189D01*
G75*
G02*
X0058632Y0067657I0000000J-000531D01*
G01*
G37*
G36*
G01*
X0054616Y0067657D02*
X0054616Y0066200D01*
G75*
G02*
X0054085Y0065669I-000531J0000000D01*
G01*
X0053022Y0065669D01*
G75*
G02*
X0052490Y0066200I0000000J0000531D01*
G01*
X0052490Y0067657D01*
G75*
G02*
X0053022Y0068189I0000531J0000000D01*
G01*
X0054085Y0068189D01*
G75*
G02*
X0054616Y0067657I0000000J-000531D01*
G01*
G37*
G36*
G01*
X0066329Y0058740D02*
X0066329Y0057401D01*
G75*
G02*
X0065778Y0056850I-000551J0000000D01*
G01*
X0064675Y0056850D01*
G75*
G02*
X0064124Y0057401I0000000J0000551D01*
G01*
X0064124Y0058740D01*
G75*
G02*
X0064675Y0059291I0000551J0000000D01*
G01*
X0065778Y0059291D01*
G75*
G02*
X0066329Y0058740I0000000J-000551D01*
G01*
G37*
G36*
G01*
X0062549Y0058740D02*
X0062549Y0057401D01*
G75*
G02*
X0061998Y0056850I-000551J0000000D01*
G01*
X0060896Y0056850D01*
G75*
G02*
X0060345Y0057401I0000000J0000551D01*
G01*
X0060345Y0058740D01*
G75*
G02*
X0060896Y0059291I0000551J0000000D01*
G01*
X0061998Y0059291D01*
G75*
G02*
X0062549Y0058740I0000000J-000551D01*
G01*
G37*
G36*
G01*
X0027181Y0048525D02*
X0025843Y0048525D01*
G75*
G02*
X0025291Y0049076I0000000J0000551D01*
G01*
X0025291Y0050178D01*
G75*
G02*
X0025843Y0050730I0000551J0000000D01*
G01*
X0027181Y0050730D01*
G75*
G02*
X0027732Y0050178I0000000J-000551D01*
G01*
X0027732Y0049076D01*
G75*
G02*
X0027181Y0048525I-000551J0000000D01*
G01*
G37*
G36*
G01*
X0027181Y0052304D02*
X0025843Y0052304D01*
G75*
G02*
X0025291Y0052855I0000000J0000551D01*
G01*
X0025291Y0053958D01*
G75*
G02*
X0025843Y0054509I0000551J0000000D01*
G01*
X0027181Y0054509D01*
G75*
G02*
X0027732Y0053958I0000000J-000551D01*
G01*
X0027732Y0052855D01*
G75*
G02*
X0027181Y0052304I-000551J0000000D01*
G01*
G37*
G36*
G01*
X0059675Y0062460D02*
X0059675Y0063917D01*
G75*
G02*
X0060207Y0064448I0000531J0000000D01*
G01*
X0061270Y0064448D01*
G75*
G02*
X0061801Y0063917I0000000J-000531D01*
G01*
X0061801Y0062460D01*
G75*
G02*
X0061270Y0061929I-000531J0000000D01*
G01*
X0060207Y0061929D01*
G75*
G02*
X0059675Y0062460I0000000J0000531D01*
G01*
G37*
G36*
G01*
X0063691Y0062460D02*
X0063691Y0063917D01*
G75*
G02*
X0064223Y0064448I0000531J0000000D01*
G01*
X0065286Y0064448D01*
G75*
G02*
X0065817Y0063917I0000000J-000531D01*
G01*
X0065817Y0062460D01*
G75*
G02*
X0065286Y0061929I-000531J0000000D01*
G01*
X0064223Y0061929D01*
G75*
G02*
X0063691Y0062460I0000000J0000531D01*
G01*
G37*
G36*
G01*
X0042274Y0073819D02*
X0042274Y0072637D01*
G75*
G02*
X0041683Y0072047I-000591J0000000D01*
G01*
X0037648Y0072047D01*
G75*
G02*
X0037057Y0072637I0000000J0000591D01*
G01*
X0037057Y0073819D01*
G75*
G02*
X0037648Y0074409I0000591J0000000D01*
G01*
X0041683Y0074409D01*
G75*
G02*
X0042274Y0073819I0000000J-000591D01*
G01*
G37*
G36*
G01*
X0042274Y0070078D02*
X0042274Y0068897D01*
G75*
G02*
X0041683Y0068307I-000591J0000000D01*
G01*
X0037648Y0068307D01*
G75*
G02*
X0037057Y0068897I0000000J0000591D01*
G01*
X0037057Y0070078D01*
G75*
G02*
X0037648Y0070669I0000591J0000000D01*
G01*
X0041683Y0070669D01*
G75*
G02*
X0042274Y0070078I0000000J-000591D01*
G01*
G37*
G36*
G01*
X0042274Y0066338D02*
X0042274Y0065157D01*
G75*
G02*
X0041683Y0064567I-000591J0000000D01*
G01*
X0037648Y0064567D01*
G75*
G02*
X0037057Y0065157I0000000J0000591D01*
G01*
X0037057Y0066338D01*
G75*
G02*
X0037648Y0066929I0000591J0000000D01*
G01*
X0041683Y0066929D01*
G75*
G02*
X0042274Y0066338I0000000J-000591D01*
G01*
G37*
G36*
G01*
X0033317Y0066338D02*
X0033317Y0065157D01*
G75*
G02*
X0032727Y0064567I-000591J0000000D01*
G01*
X0028691Y0064567D01*
G75*
G02*
X0028101Y0065157I0000000J0000591D01*
G01*
X0028101Y0066338D01*
G75*
G02*
X0028691Y0066929I0000591J0000000D01*
G01*
X0032727Y0066929D01*
G75*
G02*
X0033317Y0066338I0000000J-000591D01*
G01*
G37*
G36*
G01*
X0033317Y0073819D02*
X0033317Y0072637D01*
G75*
G02*
X0032727Y0072047I-000591J0000000D01*
G01*
X0028691Y0072047D01*
G75*
G02*
X0028101Y0072637I0000000J0000591D01*
G01*
X0028101Y0073819D01*
G75*
G02*
X0028691Y0074409I0000591J0000000D01*
G01*
X0032727Y0074409D01*
G75*
G02*
X0033317Y0073819I0000000J-000591D01*
G01*
G37*
G36*
G01*
X0043967Y0070000D02*
X0043967Y0071338D01*
G75*
G02*
X0044518Y0071889I0000551J0000000D01*
G01*
X0045620Y0071889D01*
G75*
G02*
X0046172Y0071338I0000000J-000551D01*
G01*
X0046172Y0070000D01*
G75*
G02*
X0045620Y0069448I-000551J0000000D01*
G01*
X0044518Y0069448D01*
G75*
G02*
X0043967Y0070000I0000000J0000551D01*
G01*
G37*
G36*
G01*
X0047746Y0070000D02*
X0047746Y0071338D01*
G75*
G02*
X0048297Y0071889I0000551J0000000D01*
G01*
X0049400Y0071889D01*
G75*
G02*
X0049951Y0071338I0000000J-000551D01*
G01*
X0049951Y0070000D01*
G75*
G02*
X0049400Y0069448I-000551J0000000D01*
G01*
X0048297Y0069448D01*
G75*
G02*
X0047746Y0070000I0000000J0000551D01*
G01*
G37*
X0086024Y0058268D02*
G01*
G75*
D37*
X0113977Y0068504D02*
D03*
X0117914Y0068504D02*
D03*
X0102854Y0068504D02*
D03*
X0098917Y0068504D02*
D03*
X0094488Y0068504D02*
D03*
X0090551Y0068504D02*
D03*
X0113977Y0061221D02*
D03*
X0117914Y0061221D02*
D03*
D38*
X0110592Y0061024D02*
D03*
X0110592Y0064567D02*
D03*
D39*
X0106707Y0067737D02*
D03*
X0106707Y0061516D02*
D03*
D40*
X0094095Y0064567D02*
D03*
X0090552Y0064567D02*
D03*
X0102461Y0061024D02*
D03*
X0098918Y0061024D02*
D03*
X0117323Y0064625D02*
D03*
X0113780Y0064625D02*
D03*
X0090552Y0061024D02*
D03*
X0094095Y0061024D02*
D03*
M02*
