G75*
G70*
%OFA0B0*%
%FSLAX25Y25*%
%IPPOS*%
%LPD*%
%AMOC8*
5,1,8,0,0,1.08239X$1,22.5*
%
%AMM3*
21,1,0.023620,0.018900,0.000000,0.000000,180.000000*
21,1,0.018900,0.023620,0.000000,0.000000,180.000000*
1,1,0.004720,-0.009450,0.009450*
1,1,0.004720,0.009450,0.009450*
1,1,0.004720,0.009450,-0.009450*
1,1,0.004720,-0.009450,-0.009450*
%
%AMM4*
21,1,0.019680,0.019680,0.000000,0.000000,270.000000*
21,1,0.015750,0.023620,0.000000,0.000000,270.000000*
1,1,0.003940,-0.009840,-0.007870*
1,1,0.003940,-0.009840,0.007870*
1,1,0.003940,0.009840,0.007870*
1,1,0.003940,0.009840,-0.007870*
%
%AMM5*
21,1,0.033470,0.026770,0.000000,0.000000,270.000000*
21,1,0.026770,0.033470,0.000000,0.000000,270.000000*
1,1,0.006690,-0.013390,-0.013390*
1,1,0.006690,-0.013390,0.013390*
1,1,0.006690,0.013390,0.013390*
1,1,0.006690,0.013390,-0.013390*
%
%AMM6*
21,1,0.019680,0.019680,0.000000,0.000000,0.000000*
21,1,0.015750,0.023620,0.000000,0.000000,0.000000*
1,1,0.003940,0.007870,-0.009840*
1,1,0.003940,-0.007870,-0.009840*
1,1,0.003940,-0.007870,0.009840*
1,1,0.003940,0.007870,0.009840*
%
%ADD22M3*%
%ADD23M4*%
%ADD24M5*%
%ADD25M6*%
X0000000Y0000000D02*
%LPD*%
G01*
X0041339Y0052520D02*
G01*
G75*
D22*
X0069292Y0062756D02*
D03*
X0073229Y0062756D02*
D03*
X0058169Y0062756D02*
D03*
X0054232Y0062756D02*
D03*
X0049803Y0062756D02*
D03*
X0045866Y0062756D02*
D03*
X0069292Y0055473D02*
D03*
X0073229Y0055473D02*
D03*
D23*
X0065907Y0055276D02*
D03*
X0065907Y0058819D02*
D03*
D24*
X0062022Y0061989D02*
D03*
X0062022Y0055768D02*
D03*
D25*
X0049410Y0058819D02*
D03*
X0045867Y0058819D02*
D03*
X0057776Y0055276D02*
D03*
X0054233Y0055276D02*
D03*
X0072638Y0058877D02*
D03*
X0069095Y0058877D02*
D03*
X0045867Y0055276D02*
D03*
X0049410Y0055276D02*
D03*
M02*
