G75*
G70*
%OFA0B0*%
%FSLAX25Y25*%
%IPPOS*%
%LPD*%
%AMOC8*
5,1,8,0,0,1.08239X$1,22.5*
%
%ADD13C,0.00394*%
%ADD15C,0.00197*%
X0000000Y0000000D02*
%LPD*%
G01*
D15*
X0000000Y0584764D02*
X0711299Y0584764D01*
X0711299Y0000000D01*
X0000000Y0000000D01*
X0000000Y0584764D01*
D13*
X0071112Y0125068D02*
X0071063Y0059173D01*
X0071112Y0125068D02*
X0071112Y0294557D01*
X0078937Y0051299D02*
X0090748Y0051299D01*
X0098622Y0043425D02*
X0098622Y0013061D01*
X0228150Y0005236D02*
X0106496Y0005187D01*
X0236024Y0013110D02*
X0236023Y0031614D01*
X0243897Y0039489D02*
X0299646Y0039488D01*
X0295720Y0322116D02*
X0098672Y0322116D01*
X0307531Y0109320D02*
X0307520Y0047362D01*
X0315405Y0117194D02*
X0376231Y0117194D01*
X0323279Y0294557D02*
X0323279Y0264242D01*
X0376231Y0256368D02*
X0331153Y0256368D01*
X0384105Y0125068D02*
X0384105Y0248494D01*
X0071112Y0294557D02*
G75*
G02*
X0098672Y0322116I0027559J0000000D01*
G01*
X0078937Y0051299D02*
G75*
G02*
X0071063Y0059173I0000000J0007874D01*
G01*
X0090748Y0051299D02*
G75*
G02*
X0098622Y0043425I0000000J-007874D01*
G01*
X0106496Y0005187D02*
G75*
G02*
X0098622Y0013061I0000000J0007874D01*
G01*
X0236023Y0031614D02*
G75*
G02*
X0243897Y0039489I0007874J0000000D01*
G01*
X0236024Y0013110D02*
G75*
G02*
X0228150Y0005236I-007874J0000000D01*
G01*
X0295720Y0322116D02*
G75*
G02*
X0323279Y0294557I0000001J-027558D01*
G01*
X0307520Y0047362D02*
G75*
G02*
X0299646Y0039488I-007874J0000000D01*
G01*
X0307531Y0109320D02*
G75*
G02*
X0315405Y0117194I0007874J0000000D01*
G01*
X0331153Y0256368D02*
G75*
G02*
X0323279Y0264242I0000000J0007874D01*
G01*
X0376231Y0256368D02*
G75*
G02*
X0384104Y0248494I0000000J-007874D01*
G01*
X0384105Y0125068D02*
G75*
G02*
X0376231Y0117193I-007874J0000000D01*
G01*
X0000197Y0000118D02*
G01*
G75*
M02*
