G75*
G70*
%OFA0B0*%
%FSLAX25Y25*%
%IPPOS*%
%LPD*%
%AMOC8*
5,1,8,0,0,1.08239X$1,22.5*
%
%ADD24C,0.00787*%
%ADD30C,0.00472*%
%ADD45C,0.00394*%
%ADD64C,0.01000*%
X0000000Y0000000D02*
%LPD*%
G01*
D24*
X0086417Y0070866D02*
X0122244Y0070866D01*
X0086417Y0058661D02*
X0086417Y0062598D01*
X0086417Y0058661D02*
X0122244Y0058661D01*
X0009596Y0077165D02*
X0009596Y0051969D01*
X0009596Y0039370D02*
X0009596Y0044488D01*
X0009596Y0039370D02*
X0068652Y0039370D01*
X0066289Y0077165D02*
X0009596Y0077165D01*
X0068652Y0039370D02*
X0068652Y0059449D01*
X0009203Y0038976D02*
%LPD*%
G01*
D24*
X0009597Y0077165D02*
X0009597Y0051968D01*
X0009597Y0039370D02*
X0009597Y0044488D01*
X0009597Y0039370D02*
X0068652Y0039370D01*
X0066290Y0077165D02*
X0009597Y0077165D01*
X0068652Y0039370D02*
X0068652Y0059448D01*
D30*
X0019046Y0071381D02*
X0015896Y0071381D01*
X0019046Y0071381D02*
X0026132Y0071381D01*
X0019046Y0059097D02*
X0022195Y0059097D01*
X0019046Y0059097D02*
X0015896Y0059097D01*
X0027943Y0044716D02*
X0027943Y0043866D01*
X0025109Y0044716D02*
X0025109Y0043866D01*
X0054940Y0072086D02*
X0055789Y0072086D01*
X0054940Y0069252D02*
X0055789Y0069252D01*
X0063151Y0072913D02*
X0062302Y0072913D01*
X0063151Y0075748D02*
X0062302Y0075748D01*
X0046534Y0068346D02*
X0047383Y0068346D01*
X0046534Y0065511D02*
X0047383Y0065511D01*
X0062954Y0072086D02*
X0062105Y0072086D01*
X0062954Y0069252D02*
X0062105Y0069252D01*
X0062814Y0051909D02*
X0063663Y0051909D01*
X0062814Y0049074D02*
X0063663Y0049074D01*
X0043911Y0040118D02*
X0052572Y0040118D01*
X0043911Y0040118D02*
X0029737Y0040118D01*
X0043911Y0060669D02*
X0052572Y0060669D01*
X0043911Y0060669D02*
X0035249Y0060669D01*
X0016810Y0054858D02*
X0018598Y0054858D01*
X0016810Y0049070D02*
X0018598Y0049070D01*
X0055871Y0061693D02*
X0054661Y0061693D01*
X0055871Y0064685D02*
X0054661Y0064685D01*
X0015336Y0072756D02*
X0014487Y0072756D01*
X0015336Y0075590D02*
X0014487Y0075590D01*
X0063548Y0065433D02*
X0062338Y0065433D01*
X0063548Y0068425D02*
X0062338Y0068425D01*
X0047615Y0061693D02*
X0046405Y0061693D01*
X0047615Y0064685D02*
X0046405Y0064685D01*
X0018598Y0047283D02*
X0016810Y0047283D01*
X0018598Y0041496D02*
X0016810Y0041496D01*
X0047564Y0072834D02*
X0046354Y0072834D01*
X0047564Y0075826D02*
X0046354Y0075826D01*
X0062181Y0043779D02*
X0063391Y0043779D01*
X0062181Y0040787D02*
X0063391Y0040787D01*
X0062634Y0052736D02*
X0063843Y0052736D01*
X0062634Y0055728D02*
X0063843Y0055728D01*
X0056166Y0065433D02*
X0054956Y0065433D01*
X0056166Y0068425D02*
X0054956Y0068425D01*
X0063761Y0056653D02*
X0062912Y0056653D01*
X0063761Y0059488D02*
X0062912Y0059488D01*
X0027929Y0051092D02*
X0027929Y0051941D01*
X0025094Y0051092D02*
X0025094Y0051941D01*
X0062141Y0061693D02*
X0063351Y0061693D01*
X0062141Y0064685D02*
X0063351Y0064685D01*
X0035187Y0063346D02*
X0032038Y0063346D01*
X0035187Y0075630D02*
X0042274Y0075630D01*
X0035187Y0075630D02*
X0032038Y0075630D01*
X0035187Y0063346D02*
X0038337Y0063346D01*
X0046534Y0069252D02*
X0047383Y0069252D01*
X0046534Y0072086D02*
X0047383Y0072086D01*
X0086024Y0058268D02*
G01*
G75*
G36*
X0104430Y0063817D02*
X0103994Y0063817D01*
X0103994Y0064343D01*
X0103792Y0064555D01*
X0103379Y0063817D01*
X0102909Y0063817D01*
X0103512Y0064860D01*
X0102949Y0065462D01*
X0103485Y0065462D01*
X0103994Y0064882D01*
X0103994Y0066087D01*
X0104430Y0066087D01*
X0104430Y0063817D01*
D02*
G37*
G36*
X0097030Y0063817D02*
X0096594Y0063817D01*
X0096594Y0064343D01*
X0096393Y0064555D01*
X0095979Y0063817D01*
X0095510Y0063817D01*
X0096112Y0064860D01*
X0095549Y0065462D01*
X0096085Y0065462D01*
X0096594Y0064882D01*
X0096594Y0066087D01*
X0097030Y0066087D01*
X0097030Y0063817D01*
D02*
G37*
G36*
X0098144Y0065497D02*
X0098208Y0065489D01*
X0098267Y0065477D01*
X0098324Y0065465D01*
X0098375Y0065445D01*
X0098422Y0065428D01*
X0098467Y0065406D01*
X0098506Y0065386D01*
X0098540Y0065364D01*
X0098572Y0065342D01*
X0098597Y0065325D01*
X0098619Y0065308D01*
X0098636Y0065293D01*
X0098649Y0065280D01*
X0098656Y0065273D01*
X0098658Y0065271D01*
X0098695Y0065226D01*
X0098730Y0065179D01*
X0098757Y0065128D01*
X0098781Y0065076D01*
X0098803Y0065022D01*
X0098821Y0064970D01*
X0098833Y0064919D01*
X0098845Y0064870D01*
X0098855Y0064820D01*
X0098860Y0064776D01*
X0098865Y0064737D01*
X0098870Y0064702D01*
X0098870Y0064675D01*
X0098872Y0064653D01*
X0098872Y0064641D01*
X0098872Y0064636D01*
X0098870Y0064562D01*
X0098863Y0064493D01*
X0098853Y0064429D01*
X0098838Y0064368D01*
X0098823Y0064311D01*
X0098803Y0064259D01*
X0098786Y0064213D01*
X0098764Y0064171D01*
X0098744Y0064134D01*
X0098725Y0064100D01*
X0098708Y0064072D01*
X0098693Y0064048D01*
X0098678Y0064031D01*
X0098668Y0064016D01*
X0098661Y0064009D01*
X0098658Y0064006D01*
X0098617Y0063967D01*
X0098572Y0063932D01*
X0098526Y0063900D01*
X0098479Y0063876D01*
X0098430Y0063854D01*
X0098383Y0063834D01*
X0098336Y0063819D01*
X0098292Y0063809D01*
X0098250Y0063799D01*
X0098211Y0063792D01*
X0098174Y0063787D01*
X0098144Y0063782D01*
X0098120Y0063782D01*
X0098100Y0063780D01*
X0098085Y0063780D01*
X0098026Y0063782D01*
X0097972Y0063787D01*
X0097920Y0063795D01*
X0097874Y0063802D01*
X0097827Y0063814D01*
X0097785Y0063827D01*
X0097748Y0063839D01*
X0097714Y0063854D01*
X0097684Y0063868D01*
X0097657Y0063881D01*
X0097635Y0063893D01*
X0097615Y0063905D01*
X0097601Y0063913D01*
X0097588Y0063920D01*
X0097583Y0063925D01*
X0097581Y0063927D01*
X0097546Y0063957D01*
X0097514Y0063989D01*
X0097487Y0064023D01*
X0097460Y0064060D01*
X0097436Y0064097D01*
X0097416Y0064134D01*
X0097382Y0064205D01*
X0097367Y0064240D01*
X0097355Y0064272D01*
X0097345Y0064299D01*
X0097337Y0064323D01*
X0097330Y0064346D01*
X0097325Y0064360D01*
X0097323Y0064370D01*
X0097323Y0064373D01*
X0097751Y0064447D01*
X0097765Y0064387D01*
X0097783Y0064336D01*
X0097802Y0064294D01*
X0097819Y0064259D01*
X0097837Y0064235D01*
X0097852Y0064218D01*
X0097861Y0064205D01*
X0097864Y0064203D01*
X0097896Y0064181D01*
X0097928Y0064164D01*
X0097962Y0064151D01*
X0097994Y0064144D01*
X0098021Y0064139D01*
X0098046Y0064134D01*
X0098066Y0064134D01*
X0098095Y0064137D01*
X0098124Y0064139D01*
X0098179Y0064154D01*
X0098223Y0064173D01*
X0098260Y0064196D01*
X0098292Y0064218D01*
X0098314Y0064235D01*
X0098326Y0064250D01*
X0098331Y0064252D01*
X0098331Y0064255D01*
X0098348Y0064279D01*
X0098363Y0064306D01*
X0098375Y0064338D01*
X0098388Y0064370D01*
X0098402Y0064439D01*
X0098415Y0064506D01*
X0098420Y0064540D01*
X0098422Y0064569D01*
X0098425Y0064597D01*
X0098425Y0064621D01*
X0098427Y0064641D01*
X0098427Y0064656D01*
X0098427Y0064665D01*
X0098427Y0064668D01*
X0098427Y0064715D01*
X0098422Y0064759D01*
X0098417Y0064801D01*
X0098412Y0064838D01*
X0098405Y0064872D01*
X0098398Y0064902D01*
X0098388Y0064931D01*
X0098378Y0064956D01*
X0098371Y0064975D01*
X0098361Y0064995D01*
X0098353Y0065010D01*
X0098346Y0065022D01*
X0098341Y0065032D01*
X0098336Y0065039D01*
X0098331Y0065042D01*
X0098331Y0065044D01*
X0098311Y0065064D01*
X0098292Y0065081D01*
X0098250Y0065111D01*
X0098208Y0065130D01*
X0098166Y0065143D01*
X0098129Y0065152D01*
X0098112Y0065155D01*
X0098100Y0065155D01*
X0098088Y0065157D01*
X0098073Y0065157D01*
X0098029Y0065155D01*
X0097989Y0065148D01*
X0097955Y0065135D01*
X0097928Y0065125D01*
X0097903Y0065113D01*
X0097888Y0065101D01*
X0097876Y0065093D01*
X0097874Y0065091D01*
X0097847Y0065064D01*
X0097824Y0065034D01*
X0097807Y0065002D01*
X0097792Y0064973D01*
X0097785Y0064946D01*
X0097778Y0064921D01*
X0097773Y0064907D01*
X0097773Y0064904D01*
X0097773Y0064902D01*
X0097345Y0064978D01*
X0097360Y0065025D01*
X0097379Y0065071D01*
X0097396Y0065111D01*
X0097418Y0065150D01*
X0097438Y0065184D01*
X0097460Y0065216D01*
X0097482Y0065246D01*
X0097502Y0065273D01*
X0097522Y0065295D01*
X0097539Y0065315D01*
X0097556Y0065332D01*
X0097571Y0065344D01*
X0097583Y0065357D01*
X0097593Y0065364D01*
X0097598Y0065366D01*
X0097601Y0065369D01*
X0097635Y0065391D01*
X0097672Y0065413D01*
X0097711Y0065431D01*
X0097751Y0065445D01*
X0097829Y0065467D01*
X0097906Y0065482D01*
X0097940Y0065489D01*
X0097975Y0065492D01*
X0098001Y0065494D01*
X0098029Y0065497D01*
X0098048Y0065499D01*
X0098078Y0065499D01*
X0098144Y0065497D01*
D02*
G37*
G36*
X0101770Y0065497D02*
X0101827Y0065487D01*
X0101881Y0065475D01*
X0101933Y0065455D01*
X0101979Y0065435D01*
X0102024Y0065411D01*
X0102065Y0065386D01*
X0102102Y0065359D01*
X0102137Y0065332D01*
X0102164Y0065308D01*
X0102191Y0065283D01*
X0102211Y0065263D01*
X0102228Y0065246D01*
X0102240Y0065231D01*
X0102248Y0065221D01*
X0102250Y0065219D01*
X0102250Y0065462D01*
X0102653Y0065462D01*
X0102653Y0063817D01*
X0102218Y0063817D01*
X0102218Y0064562D01*
X0102218Y0064611D01*
X0102216Y0064658D01*
X0102216Y0064700D01*
X0102213Y0064737D01*
X0102211Y0064771D01*
X0102208Y0064803D01*
X0102206Y0064830D01*
X0102201Y0064855D01*
X0102198Y0064874D01*
X0102196Y0064892D01*
X0102193Y0064907D01*
X0102191Y0064919D01*
X0102188Y0064929D01*
X0102188Y0064934D01*
X0102186Y0064939D01*
X0102171Y0064975D01*
X0102154Y0065007D01*
X0102134Y0065037D01*
X0102115Y0065059D01*
X0102095Y0065079D01*
X0102080Y0065091D01*
X0102070Y0065101D01*
X0102065Y0065103D01*
X0102031Y0065125D01*
X0101994Y0065140D01*
X0101960Y0065152D01*
X0101930Y0065160D01*
X0101901Y0065165D01*
X0101881Y0065167D01*
X0101861Y0065167D01*
X0101829Y0065165D01*
X0101802Y0065160D01*
X0101778Y0065152D01*
X0101756Y0065145D01*
X0101738Y0065138D01*
X0101723Y0065130D01*
X0101716Y0065125D01*
X0101714Y0065123D01*
X0101691Y0065106D01*
X0101672Y0065086D01*
X0101657Y0065064D01*
X0101645Y0065044D01*
X0101635Y0065027D01*
X0101628Y0065012D01*
X0101623Y0065002D01*
X0101623Y0065000D01*
X0101618Y0064983D01*
X0101613Y0064963D01*
X0101608Y0064941D01*
X0101605Y0064914D01*
X0101600Y0064857D01*
X0101596Y0064798D01*
X0101596Y0064744D01*
X0101593Y0064720D01*
X0101593Y0064700D01*
X0101593Y0064680D01*
X0101593Y0064668D01*
X0101593Y0064658D01*
X0101593Y0064656D01*
X0101593Y0063817D01*
X0101158Y0063817D01*
X0101158Y0064838D01*
X0101158Y0064907D01*
X0101163Y0064965D01*
X0101165Y0065015D01*
X0101170Y0065056D01*
X0101175Y0065088D01*
X0101177Y0065111D01*
X0101182Y0065125D01*
X0101182Y0065130D01*
X0101192Y0065167D01*
X0101207Y0065202D01*
X0101219Y0065234D01*
X0101234Y0065261D01*
X0101249Y0065283D01*
X0101259Y0065298D01*
X0101266Y0065310D01*
X0101268Y0065312D01*
X0101293Y0065342D01*
X0101323Y0065366D01*
X0101352Y0065391D01*
X0101382Y0065408D01*
X0101406Y0065426D01*
X0101428Y0065435D01*
X0101443Y0065443D01*
X0101445Y0065445D01*
X0101448Y0065445D01*
X0101492Y0065462D01*
X0101539Y0065477D01*
X0101583Y0065487D01*
X0101623Y0065492D01*
X0101660Y0065497D01*
X0101687Y0065499D01*
X0101711Y0065499D01*
X0101770Y0065497D01*
D02*
G37*
G36*
X0100058Y0065494D02*
X0100139Y0065482D01*
X0100213Y0065465D01*
X0100247Y0065455D01*
X0100279Y0065445D01*
X0100307Y0065435D01*
X0100331Y0065426D01*
X0100353Y0065416D01*
X0100373Y0065408D01*
X0100388Y0065401D01*
X0100398Y0065396D01*
X0100405Y0065394D01*
X0100407Y0065391D01*
X0100476Y0065347D01*
X0100535Y0065298D01*
X0100587Y0065246D01*
X0100631Y0065197D01*
X0100663Y0065152D01*
X0100678Y0065133D01*
X0100688Y0065116D01*
X0100695Y0065101D01*
X0100703Y0065091D01*
X0100705Y0065084D01*
X0100707Y0065081D01*
X0100727Y0065044D01*
X0100742Y0065005D01*
X0100769Y0064931D01*
X0100786Y0064860D01*
X0100801Y0064796D01*
X0100804Y0064766D01*
X0100808Y0064742D01*
X0100811Y0064717D01*
X0100811Y0064697D01*
X0100813Y0064683D01*
X0100813Y0064670D01*
X0100813Y0064663D01*
X0100813Y0064660D01*
X0100811Y0064609D01*
X0100808Y0064560D01*
X0100804Y0064510D01*
X0100796Y0064466D01*
X0100789Y0064424D01*
X0100779Y0064385D01*
X0100769Y0064348D01*
X0100759Y0064314D01*
X0100749Y0064284D01*
X0100742Y0064257D01*
X0100732Y0064235D01*
X0100725Y0064215D01*
X0100717Y0064200D01*
X0100712Y0064191D01*
X0100707Y0064183D01*
X0100707Y0064181D01*
X0100663Y0064112D01*
X0100614Y0064050D01*
X0100562Y0063999D01*
X0100513Y0063957D01*
X0100466Y0063925D01*
X0100449Y0063910D01*
X0100432Y0063900D01*
X0100417Y0063891D01*
X0100407Y0063886D01*
X0100400Y0063883D01*
X0100398Y0063881D01*
X0100321Y0063846D01*
X0100245Y0063822D01*
X0100171Y0063804D01*
X0100105Y0063792D01*
X0100075Y0063787D01*
X0100048Y0063785D01*
X0100026Y0063782D01*
X0100006Y0063782D01*
X0099989Y0063780D01*
X0099967Y0063780D01*
X0099901Y0063782D01*
X0099837Y0063790D01*
X0099775Y0063802D01*
X0099719Y0063819D01*
X0099665Y0063836D01*
X0099615Y0063856D01*
X0099569Y0063878D01*
X0099527Y0063903D01*
X0099490Y0063925D01*
X0099458Y0063947D01*
X0099428Y0063967D01*
X0099406Y0063986D01*
X0099387Y0064001D01*
X0099372Y0064013D01*
X0099364Y0064021D01*
X0099362Y0064023D01*
X0099320Y0064070D01*
X0099283Y0064122D01*
X0099251Y0064171D01*
X0099222Y0064225D01*
X0099200Y0064277D01*
X0099180Y0064328D01*
X0099163Y0064378D01*
X0099150Y0064427D01*
X0099140Y0064471D01*
X0099133Y0064513D01*
X0099128Y0064550D01*
X0099123Y0064582D01*
X0099123Y0064606D01*
X0099121Y0064626D01*
X0099121Y0064638D01*
X0099121Y0064643D01*
X0099123Y0064712D01*
X0099131Y0064776D01*
X0099143Y0064838D01*
X0099158Y0064894D01*
X0099175Y0064948D01*
X0099197Y0065000D01*
X0099217Y0065047D01*
X0099239Y0065088D01*
X0099263Y0065125D01*
X0099283Y0065160D01*
X0099303Y0065187D01*
X0099323Y0065212D01*
X0099337Y0065231D01*
X0099350Y0065244D01*
X0099357Y0065253D01*
X0099360Y0065256D01*
X0099406Y0065298D01*
X0099453Y0065337D01*
X0099505Y0065369D01*
X0099556Y0065396D01*
X0099605Y0065421D01*
X0099657Y0065440D01*
X0099706Y0065455D01*
X0099753Y0065470D01*
X0099797Y0065480D01*
X0099839Y0065487D01*
X0099876Y0065492D01*
X0099908Y0065494D01*
X0099933Y0065497D01*
X0099952Y0065499D01*
X0100014Y0065499D01*
X0100058Y0065494D01*
D02*
G37*
G36*
X0109346Y0069445D02*
X0109397Y0069440D01*
X0109446Y0069433D01*
X0109490Y0069424D01*
X0109534Y0069412D01*
X0109573Y0069401D01*
X0109608Y0069387D01*
X0109643Y0069373D01*
X0109673Y0069359D01*
X0109699Y0069345D01*
X0109722Y0069333D01*
X0109740Y0069322D01*
X0109754Y0069312D01*
X0109766Y0069306D01*
X0109773Y0069301D01*
X0109775Y0069298D01*
X0109810Y0069268D01*
X0109840Y0069236D01*
X0109868Y0069199D01*
X0109891Y0069159D01*
X0109912Y0069120D01*
X0109931Y0069078D01*
X0109947Y0069039D01*
X0109961Y0068999D01*
X0109972Y0068962D01*
X0109982Y0068927D01*
X0109989Y0068895D01*
X0109993Y0068867D01*
X0109998Y0068844D01*
X0110000Y0068825D01*
X0110003Y0068816D01*
X0110003Y0068811D01*
X0109594Y0068772D01*
X0109592Y0068804D01*
X0109587Y0068834D01*
X0109576Y0068888D01*
X0109562Y0068932D01*
X0109548Y0068967D01*
X0109532Y0068995D01*
X0109520Y0069013D01*
X0109511Y0069022D01*
X0109508Y0069027D01*
X0109478Y0069053D01*
X0109443Y0069074D01*
X0109409Y0069087D01*
X0109376Y0069097D01*
X0109346Y0069101D01*
X0109323Y0069106D01*
X0109302Y0069106D01*
X0109256Y0069104D01*
X0109216Y0069094D01*
X0109181Y0069083D01*
X0109151Y0069069D01*
X0109128Y0069055D01*
X0109112Y0069043D01*
X0109100Y0069034D01*
X0109098Y0069032D01*
X0109072Y0069002D01*
X0109054Y0068967D01*
X0109042Y0068932D01*
X0109033Y0068900D01*
X0109028Y0068867D01*
X0109023Y0068844D01*
X0109023Y0068834D01*
X0109023Y0068828D01*
X0109023Y0068823D01*
X0109023Y0068821D01*
X0109028Y0068774D01*
X0109037Y0068728D01*
X0109051Y0068686D01*
X0109065Y0068649D01*
X0109081Y0068616D01*
X0109095Y0068591D01*
X0109102Y0068582D01*
X0109105Y0068575D01*
X0109109Y0068572D01*
X0109109Y0068570D01*
X0109123Y0068551D01*
X0109142Y0068528D01*
X0109165Y0068503D01*
X0109188Y0068477D01*
X0109244Y0068419D01*
X0109304Y0068361D01*
X0109332Y0068333D01*
X0109360Y0068305D01*
X0109383Y0068282D01*
X0109406Y0068262D01*
X0109425Y0068245D01*
X0109439Y0068231D01*
X0109448Y0068222D01*
X0109450Y0068220D01*
X0109513Y0068162D01*
X0109569Y0068106D01*
X0109622Y0068053D01*
X0109668Y0068004D01*
X0109710Y0067960D01*
X0109747Y0067916D01*
X0109782Y0067879D01*
X0109810Y0067844D01*
X0109835Y0067811D01*
X0109856Y0067786D01*
X0109875Y0067760D01*
X0109889Y0067742D01*
X0109898Y0067728D01*
X0109907Y0067716D01*
X0109910Y0067709D01*
X0109912Y0067707D01*
X0109951Y0067635D01*
X0109982Y0067563D01*
X0110007Y0067493D01*
X0110026Y0067431D01*
X0110033Y0067403D01*
X0110037Y0067378D01*
X0110042Y0067354D01*
X0110047Y0067336D01*
X0110049Y0067320D01*
X0110049Y0067308D01*
X0110051Y0067301D01*
X0110051Y0067299D01*
X0108613Y0067299D01*
X0108613Y0067679D01*
X0109429Y0067679D01*
X0109402Y0067719D01*
X0109388Y0067737D01*
X0109376Y0067756D01*
X0109364Y0067770D01*
X0109355Y0067781D01*
X0109348Y0067788D01*
X0109346Y0067790D01*
X0109334Y0067802D01*
X0109321Y0067818D01*
X0109304Y0067835D01*
X0109286Y0067853D01*
X0109246Y0067893D01*
X0109204Y0067932D01*
X0109165Y0067969D01*
X0109146Y0067985D01*
X0109130Y0067999D01*
X0109119Y0068011D01*
X0109109Y0068020D01*
X0109102Y0068025D01*
X0109100Y0068027D01*
X0109065Y0068060D01*
X0109033Y0068090D01*
X0109003Y0068120D01*
X0108975Y0068145D01*
X0108952Y0068171D01*
X0108928Y0068192D01*
X0108910Y0068213D01*
X0108891Y0068231D01*
X0108866Y0068262D01*
X0108845Y0068282D01*
X0108836Y0068296D01*
X0108831Y0068301D01*
X0108792Y0068354D01*
X0108757Y0068405D01*
X0108729Y0068452D01*
X0108706Y0068491D01*
X0108689Y0068526D01*
X0108683Y0068540D01*
X0108675Y0068551D01*
X0108671Y0068561D01*
X0108669Y0068570D01*
X0108666Y0068572D01*
X0108666Y0068575D01*
X0108648Y0068623D01*
X0108636Y0068672D01*
X0108627Y0068719D01*
X0108620Y0068763D01*
X0108615Y0068797D01*
X0108615Y0068814D01*
X0108613Y0068825D01*
X0108613Y0068837D01*
X0108613Y0068844D01*
X0108613Y0068848D01*
X0108613Y0068851D01*
X0108615Y0068897D01*
X0108620Y0068941D01*
X0108629Y0068983D01*
X0108641Y0069025D01*
X0108655Y0069062D01*
X0108671Y0069097D01*
X0108687Y0069129D01*
X0108703Y0069157D01*
X0108722Y0069185D01*
X0108738Y0069208D01*
X0108754Y0069229D01*
X0108768Y0069245D01*
X0108780Y0069257D01*
X0108789Y0069268D01*
X0108794Y0069273D01*
X0108796Y0069275D01*
X0108831Y0069306D01*
X0108870Y0069331D01*
X0108910Y0069354D01*
X0108949Y0069375D01*
X0108991Y0069391D01*
X0109033Y0069405D01*
X0109072Y0069417D01*
X0109112Y0069426D01*
X0109149Y0069433D01*
X0109184Y0069438D01*
X0109214Y0069442D01*
X0109239Y0069445D01*
X0109262Y0069447D01*
X0109293Y0069447D01*
X0109346Y0069445D01*
D02*
G37*
G36*
X0110743Y0067299D02*
X0110332Y0067299D01*
X0110332Y0067709D01*
X0110743Y0067709D01*
X0110743Y0067299D01*
D02*
G37*
G36*
X0111856Y0069445D02*
X0111910Y0069438D01*
X0111961Y0069426D01*
X0112007Y0069412D01*
X0112051Y0069396D01*
X0112091Y0069377D01*
X0112128Y0069357D01*
X0112160Y0069338D01*
X0112188Y0069317D01*
X0112214Y0069296D01*
X0112234Y0069278D01*
X0112253Y0069261D01*
X0112267Y0069247D01*
X0112276Y0069236D01*
X0112283Y0069229D01*
X0112285Y0069227D01*
X0112323Y0069173D01*
X0112355Y0069113D01*
X0112383Y0069048D01*
X0112406Y0068978D01*
X0112427Y0068906D01*
X0112443Y0068834D01*
X0112457Y0068763D01*
X0112469Y0068691D01*
X0112476Y0068623D01*
X0112483Y0068561D01*
X0112487Y0068505D01*
X0112492Y0068454D01*
X0112492Y0068433D01*
X0112492Y0068415D01*
X0112494Y0068398D01*
X0112494Y0068382D01*
X0112494Y0068373D01*
X0112494Y0068364D01*
X0112494Y0068359D01*
X0112494Y0068357D01*
X0112492Y0068245D01*
X0112485Y0068143D01*
X0112476Y0068048D01*
X0112464Y0067962D01*
X0112450Y0067883D01*
X0112434Y0067814D01*
X0112418Y0067751D01*
X0112399Y0067695D01*
X0112381Y0067649D01*
X0112364Y0067607D01*
X0112348Y0067572D01*
X0112334Y0067545D01*
X0112323Y0067524D01*
X0112311Y0067510D01*
X0112306Y0067501D01*
X0112304Y0067498D01*
X0112267Y0067456D01*
X0112227Y0067419D01*
X0112186Y0067387D01*
X0112144Y0067359D01*
X0112102Y0067338D01*
X0112060Y0067317D01*
X0112021Y0067301D01*
X0111982Y0067289D01*
X0111944Y0067280D01*
X0111910Y0067271D01*
X0111879Y0067266D01*
X0111852Y0067264D01*
X0111831Y0067261D01*
X0111815Y0067259D01*
X0111800Y0067259D01*
X0111745Y0067261D01*
X0111692Y0067269D01*
X0111640Y0067280D01*
X0111594Y0067294D01*
X0111550Y0067310D01*
X0111510Y0067329D01*
X0111473Y0067347D01*
X0111441Y0067368D01*
X0111413Y0067389D01*
X0111388Y0067408D01*
X0111364Y0067426D01*
X0111348Y0067442D01*
X0111334Y0067456D01*
X0111323Y0067468D01*
X0111318Y0067475D01*
X0111316Y0067477D01*
X0111279Y0067531D01*
X0111246Y0067591D01*
X0111218Y0067658D01*
X0111193Y0067726D01*
X0111174Y0067797D01*
X0111156Y0067872D01*
X0111142Y0067944D01*
X0111130Y0068015D01*
X0111123Y0068083D01*
X0111116Y0068145D01*
X0111111Y0068203D01*
X0111107Y0068252D01*
X0111107Y0068275D01*
X0111107Y0068294D01*
X0111104Y0068310D01*
X0111104Y0068326D01*
X0111104Y0068336D01*
X0111104Y0068345D01*
X0111104Y0068350D01*
X0111104Y0068352D01*
X0111107Y0068461D01*
X0111114Y0068563D01*
X0111123Y0068658D01*
X0111137Y0068744D01*
X0111153Y0068823D01*
X0111170Y0068895D01*
X0111190Y0068960D01*
X0111209Y0069015D01*
X0111227Y0069066D01*
X0111246Y0069108D01*
X0111265Y0069145D01*
X0111281Y0069173D01*
X0111295Y0069196D01*
X0111304Y0069213D01*
X0111311Y0069222D01*
X0111313Y0069224D01*
X0111348Y0069264D01*
X0111385Y0069298D01*
X0111425Y0069329D01*
X0111464Y0069354D01*
X0111504Y0069375D01*
X0111545Y0069394D01*
X0111585Y0069408D01*
X0111622Y0069419D01*
X0111659Y0069428D01*
X0111694Y0069435D01*
X0111724Y0069440D01*
X0111749Y0069445D01*
X0111770Y0069445D01*
X0111787Y0069447D01*
X0111800Y0069447D01*
X0111856Y0069445D01*
D02*
G37*
%LPC*%
G36*
X0099987Y0065145D02*
X0099970Y0065145D01*
X0099938Y0065143D01*
X0099908Y0065140D01*
X0099854Y0065125D01*
X0099805Y0065103D01*
X0099763Y0065081D01*
X0099728Y0065056D01*
X0099704Y0065034D01*
X0099696Y0065027D01*
X0099689Y0065020D01*
X0099687Y0065017D01*
X0099684Y0065015D01*
X0099665Y0064990D01*
X0099645Y0064961D01*
X0099618Y0064902D01*
X0099596Y0064840D01*
X0099583Y0064779D01*
X0099578Y0064751D01*
X0099574Y0064724D01*
X0099571Y0064702D01*
X0099571Y0064680D01*
X0099569Y0064665D01*
X0099569Y0064651D01*
X0099569Y0064643D01*
X0099569Y0064641D01*
X0099569Y0064597D01*
X0099574Y0064552D01*
X0099578Y0064513D01*
X0099586Y0064476D01*
X0099596Y0064444D01*
X0099605Y0064412D01*
X0099615Y0064383D01*
X0099625Y0064358D01*
X0099637Y0064336D01*
X0099647Y0064316D01*
X0099657Y0064299D01*
X0099667Y0064287D01*
X0099674Y0064277D01*
X0099679Y0064269D01*
X0099682Y0064264D01*
X0099684Y0064262D01*
X0099706Y0064240D01*
X0099728Y0064220D01*
X0099753Y0064203D01*
X0099778Y0064188D01*
X0099824Y0064166D01*
X0099871Y0064151D01*
X0099910Y0064141D01*
X0099928Y0064139D01*
X0099940Y0064137D01*
X0099952Y0064134D01*
X0099970Y0064134D01*
X0100001Y0064137D01*
X0100031Y0064139D01*
X0100085Y0064154D01*
X0100134Y0064173D01*
X0100176Y0064198D01*
X0100208Y0064223D01*
X0100235Y0064242D01*
X0100243Y0064250D01*
X0100250Y0064257D01*
X0100252Y0064259D01*
X0100255Y0064262D01*
X0100275Y0064287D01*
X0100292Y0064316D01*
X0100321Y0064375D01*
X0100341Y0064439D01*
X0100353Y0064498D01*
X0100358Y0064528D01*
X0100363Y0064555D01*
X0100366Y0064577D01*
X0100366Y0064599D01*
X0100368Y0064614D01*
X0100368Y0064629D01*
X0100368Y0064636D01*
X0100368Y0064638D01*
X0100366Y0064683D01*
X0100363Y0064724D01*
X0100358Y0064764D01*
X0100351Y0064801D01*
X0100341Y0064835D01*
X0100331Y0064865D01*
X0100321Y0064894D01*
X0100312Y0064919D01*
X0100302Y0064941D01*
X0100292Y0064961D01*
X0100282Y0064978D01*
X0100272Y0064990D01*
X0100265Y0065000D01*
X0100260Y0065010D01*
X0100255Y0065012D01*
X0100255Y0065015D01*
X0100233Y0065037D01*
X0100208Y0065059D01*
X0100186Y0065076D01*
X0100161Y0065091D01*
X0100115Y0065113D01*
X0100068Y0065128D01*
X0100029Y0065138D01*
X0100011Y0065140D01*
X0099997Y0065143D01*
X0099987Y0065145D01*
D02*
G37*
G36*
X0111812Y0069106D02*
X0111800Y0069106D01*
X0111773Y0069104D01*
X0111749Y0069099D01*
X0111726Y0069090D01*
X0111705Y0069083D01*
X0111692Y0069074D01*
X0111678Y0069064D01*
X0111671Y0069059D01*
X0111668Y0069057D01*
X0111647Y0069036D01*
X0111629Y0069008D01*
X0111613Y0068978D01*
X0111599Y0068946D01*
X0111587Y0068916D01*
X0111580Y0068893D01*
X0111578Y0068883D01*
X0111576Y0068876D01*
X0111573Y0068872D01*
X0111573Y0068869D01*
X0111566Y0068839D01*
X0111559Y0068807D01*
X0111555Y0068770D01*
X0111550Y0068728D01*
X0111543Y0068644D01*
X0111538Y0068558D01*
X0111536Y0068517D01*
X0111536Y0068479D01*
X0111534Y0068442D01*
X0111534Y0068412D01*
X0111534Y0068387D01*
X0111534Y0068368D01*
X0111534Y0068357D01*
X0111534Y0068352D01*
X0111534Y0068285D01*
X0111536Y0068220D01*
X0111538Y0068162D01*
X0111541Y0068108D01*
X0111543Y0068060D01*
X0111548Y0068015D01*
X0111552Y0067976D01*
X0111555Y0067941D01*
X0111559Y0067911D01*
X0111564Y0067886D01*
X0111569Y0067865D01*
X0111571Y0067846D01*
X0111573Y0067832D01*
X0111576Y0067823D01*
X0111578Y0067818D01*
X0111578Y0067816D01*
X0111592Y0067774D01*
X0111606Y0067737D01*
X0111620Y0067709D01*
X0111636Y0067686D01*
X0111647Y0067667D01*
X0111659Y0067656D01*
X0111666Y0067649D01*
X0111668Y0067647D01*
X0111692Y0067630D01*
X0111712Y0067619D01*
X0111736Y0067612D01*
X0111756Y0067607D01*
X0111775Y0067603D01*
X0111789Y0067600D01*
X0111800Y0067600D01*
X0111828Y0067603D01*
X0111852Y0067607D01*
X0111875Y0067614D01*
X0111893Y0067624D01*
X0111910Y0067633D01*
X0111923Y0067640D01*
X0111931Y0067644D01*
X0111933Y0067647D01*
X0111954Y0067667D01*
X0111972Y0067695D01*
X0111988Y0067726D01*
X0112002Y0067758D01*
X0112014Y0067786D01*
X0112021Y0067809D01*
X0112023Y0067818D01*
X0112026Y0067825D01*
X0112028Y0067830D01*
X0112028Y0067832D01*
X0112035Y0067862D01*
X0112039Y0067895D01*
X0112044Y0067932D01*
X0112049Y0067974D01*
X0112056Y0068060D01*
X0112060Y0068145D01*
X0112063Y0068187D01*
X0112063Y0068224D01*
X0112063Y0068259D01*
X0112065Y0068292D01*
X0112065Y0068317D01*
X0112065Y0068336D01*
X0112065Y0068347D01*
X0112065Y0068352D01*
X0112065Y0068419D01*
X0112063Y0068482D01*
X0112060Y0068542D01*
X0112058Y0068593D01*
X0112056Y0068642D01*
X0112051Y0068686D01*
X0112049Y0068726D01*
X0112044Y0068760D01*
X0112039Y0068790D01*
X0112037Y0068818D01*
X0112033Y0068839D01*
X0112030Y0068858D01*
X0112028Y0068872D01*
X0112026Y0068881D01*
X0112023Y0068885D01*
X0112023Y0068888D01*
X0112009Y0068930D01*
X0111995Y0068967D01*
X0111979Y0068995D01*
X0111965Y0069018D01*
X0111954Y0069036D01*
X0111942Y0069048D01*
X0111935Y0069055D01*
X0111933Y0069057D01*
X0111910Y0069074D01*
X0111889Y0069085D01*
X0111866Y0069094D01*
X0111845Y0069099D01*
X0111826Y0069104D01*
X0111812Y0069106D01*
D02*
G37*
%LPD*%
D24*
X0086418Y0058662D02*
X0122244Y0058662D01*
X0086418Y0070866D02*
X0122244Y0070866D01*
X0086418Y0058662D02*
X0086418Y0062599D01*
X0105330Y0064626D02*
X0108282Y0064626D01*
D45*
X0115945Y0067323D02*
X0115945Y0069685D01*
X0109608Y0062988D02*
X0109608Y0062595D01*
X0111577Y0062992D02*
X0111577Y0062599D01*
X0100886Y0067323D02*
X0100886Y0069685D01*
X0092520Y0067323D02*
X0092520Y0069685D01*
X0092130Y0063583D02*
X0092524Y0063583D01*
X0092126Y0065551D02*
X0092520Y0065551D01*
X0115945Y0060040D02*
X0115945Y0062402D01*
X0100493Y0060040D02*
X0100886Y0060040D01*
X0100488Y0062008D02*
X0100882Y0062008D01*
X0115355Y0063640D02*
X0115748Y0063640D01*
X0115351Y0065609D02*
X0115744Y0065609D01*
X0092122Y0062008D02*
X0092516Y0062008D01*
X0092126Y0060040D02*
X0092520Y0060040D01*
X0048228Y0002559D02*
G01*
G75*
D24*
X0049409Y0002953D02*
X0124704Y0002953D01*
X0125590Y0003839D01*
X0125590Y0032874D01*
X0124311Y0034153D02*
X0125590Y0032874D01*
X0050256Y0034153D02*
X0124311Y0034153D01*
X0049409Y0033307D02*
X0050256Y0034153D01*
X0049409Y0002953D02*
X0049409Y0033307D01*
D64*
X0053233Y0029610D02*
X0056381Y0028036D01*
X0053233Y0026462D01*
X0053233Y0024887D02*
X0056381Y0024887D01*
X0054807Y0024887D01*
X0054020Y0024100D01*
X0053233Y0023313D01*
X0053233Y0022526D01*
X0054020Y0020164D02*
X0054020Y0017016D01*
X0052446Y0015441D02*
X0051659Y0014654D01*
X0051659Y0013080D01*
X0052446Y0012293D01*
X0055594Y0012293D01*
X0056381Y0013080D01*
X0056381Y0014654D01*
X0055594Y0015441D01*
X0052446Y0015441D01*
X0056381Y0010719D02*
X0055594Y0010719D01*
X0055594Y0009932D01*
X0056381Y0009932D01*
X0056381Y0010719D01*
X0056381Y0006783D02*
X0056381Y0005209D01*
X0056381Y0005996D01*
X0051659Y0005996D01*
X0052446Y0006783D01*
M02*
