G75*
G70*
%OFA0B0*%
%FSLAX25Y25*%
%IPPOS*%
%LPD*%
%AMOC8*
5,1,8,0,0,1.08239X$1,22.5*
%
%ADD12C,0.00591*%
%ADD13C,0.00472*%
X0000000Y0000000D02*
%LPD*%
G01*
D12*
X0030563Y0070434D02*
X0030563Y0067247D01*
X0030563Y0067247D02*
X0030751Y0066872D01*
X0030751Y0066872D02*
X0030938Y0066684D01*
X0030938Y0066684D02*
X0031313Y0066497D01*
X0031313Y0066497D02*
X0032063Y0066497D01*
X0032063Y0066497D02*
X0032438Y0066684D01*
X0032438Y0066684D02*
X0032626Y0066872D01*
X0032626Y0066872D02*
X0032813Y0067247D01*
X0032813Y0067247D02*
X0032813Y0070434D01*
X0034500Y0070059D02*
X0034688Y0070246D01*
X0034688Y0070246D02*
X0035063Y0070434D01*
X0035063Y0070434D02*
X0036000Y0070434D01*
X0036000Y0070434D02*
X0036375Y0070246D01*
X0036375Y0070246D02*
X0036563Y0070059D01*
X0036563Y0070059D02*
X0036750Y0069684D01*
X0036750Y0069684D02*
X0036750Y0069309D01*
X0036750Y0069309D02*
X0036563Y0068746D01*
X0036563Y0068746D02*
X0034313Y0066497D01*
X0034313Y0066497D02*
X0036750Y0066497D01*
X0071902Y0060434D02*
X0071902Y0057247D01*
X0071902Y0057247D02*
X0072089Y0056872D01*
X0072089Y0056872D02*
X0072277Y0056684D01*
X0072277Y0056684D02*
X0072652Y0056497D01*
X0072652Y0056497D02*
X0073402Y0056497D01*
X0073402Y0056497D02*
X0073777Y0056684D01*
X0073777Y0056684D02*
X0073964Y0056872D01*
X0073964Y0056872D02*
X0074152Y0057247D01*
X0074152Y0057247D02*
X0074152Y0060434D01*
X0078089Y0056497D02*
X0075839Y0056497D01*
X0076964Y0056497D02*
X0076964Y0060434D01*
X0076964Y0060434D02*
X0076589Y0059871D01*
X0076589Y0059871D02*
X0076214Y0059496D01*
X0076214Y0059496D02*
X0075839Y0059309D01*
D13*
X0033563Y0064980D02*
X0025886Y0064980D01*
X0033563Y0064980D02*
X0041240Y0064980D01*
X0033563Y0044823D02*
X0025886Y0044823D01*
X0033563Y0044823D02*
X0041240Y0044823D01*
X0022933Y0064606D02*
X0021988Y0065905D01*
X0023878Y0065905D01*
X0022933Y0064606D01*
G36*
X0022933Y0064606D02*
G01*
X0021988Y0065905D01*
X0023878Y0065905D01*
X0022933Y0064606D01*
G37*
X0074902Y0054980D02*
X0067224Y0054980D01*
X0074902Y0054980D02*
X0082579Y0054980D01*
X0074902Y0034823D02*
X0067224Y0034823D01*
X0074902Y0034823D02*
X0082579Y0034823D01*
X0064272Y0054606D02*
X0063327Y0055905D01*
X0065217Y0055905D01*
X0064272Y0054606D01*
G36*
X0064272Y0054606D02*
G01*
X0063327Y0055905D01*
X0065217Y0055905D01*
X0064272Y0054606D01*
G37*
M02*
