G75*
G70*
%OFA0B0*%
%FSLAX25Y25*%
%IPPOS*%
%LPD*%
%AMOC8*
5,1,8,0,0,1.08239X$1,22.5*
%
%ADD16C,0.02362*%
%ADD31C,0.00787*%
%ADD32C,0.00591*%
%ADD33C,0.00394*%
%ADD37C,0.00984*%
%ADD38C,0.00472*%
%ADD70C,0.00800*%
X0000000Y0000000D02*
%LPD*%
G01*
D32*
X0086582Y0074486D02*
X0086582Y0076848D01*
X0086582Y0076848D02*
X0087369Y0075161D01*
X0087369Y0075161D02*
X0088156Y0076848D01*
X0088156Y0076848D02*
X0088156Y0074486D01*
X0089169Y0076623D02*
X0089281Y0076736D01*
X0089281Y0076736D02*
X0089506Y0076848D01*
X0089506Y0076848D02*
X0090069Y0076848D01*
X0090069Y0076848D02*
X0090294Y0076736D01*
X0090294Y0076736D02*
X0090406Y0076623D01*
X0090406Y0076623D02*
X0090519Y0076398D01*
X0090519Y0076398D02*
X0090519Y0076173D01*
X0090519Y0076173D02*
X0090406Y0075836D01*
X0090406Y0075836D02*
X0089056Y0074486D01*
X0089056Y0074486D02*
X0090519Y0074486D01*
D33*
X0034291Y0122756D02*
X0088228Y0122756D01*
X0088228Y0083780D01*
X0034291Y0083780D01*
X0034291Y0122756D01*
D31*
X0086417Y0070866D02*
X0122244Y0070866D01*
X0086417Y0058661D02*
X0086417Y0062598D01*
X0086417Y0058661D02*
X0122244Y0058661D01*
X0049409Y0033307D02*
X0050256Y0034154D01*
X0049409Y0002953D02*
X0049409Y0033307D01*
X0049409Y0002953D02*
X0124705Y0002953D01*
X0050256Y0034154D02*
X0124311Y0034154D01*
X0124311Y0034154D02*
X0125591Y0032874D01*
X0124705Y0002953D02*
X0125591Y0003839D01*
X0125591Y0003839D02*
X0125591Y0032874D01*
X0009596Y0077165D02*
X0009596Y0051969D01*
X0009596Y0039370D02*
X0009596Y0044488D01*
X0009596Y0039370D02*
X0068652Y0039370D01*
X0066289Y0077165D02*
X0009596Y0077165D01*
X0068652Y0039370D02*
X0068652Y0059449D01*
X0009203Y0038976D02*
%LPD*%
G01*
D31*
X0012254Y0075950D02*
X0014223Y0070044D01*
X0014223Y0070044D02*
X0016191Y0075950D01*
X0021534Y0070044D02*
X0019566Y0072856D01*
X0018160Y0070044D02*
X0018160Y0075950D01*
X0018160Y0075950D02*
X0020409Y0075950D01*
X0020409Y0075950D02*
X0020972Y0075669D01*
X0020972Y0075669D02*
X0021253Y0075387D01*
X0021253Y0075387D02*
X0021534Y0074825D01*
X0021534Y0074825D02*
X0021534Y0073981D01*
X0021534Y0073981D02*
X0021253Y0073419D01*
X0021253Y0073419D02*
X0020972Y0073138D01*
X0020972Y0073138D02*
X0020409Y0072856D01*
X0020409Y0072856D02*
X0018160Y0072856D01*
X0009597Y0077165D02*
X0009597Y0051968D01*
X0009597Y0039370D02*
X0009597Y0044488D01*
X0009597Y0039370D02*
X0068652Y0039370D01*
X0066290Y0077165D02*
X0009597Y0077165D01*
X0068652Y0039370D02*
X0068652Y0059448D01*
D38*
X0025094Y0055826D02*
X0026304Y0055826D01*
X0025094Y0058819D02*
X0026304Y0058819D01*
X0047668Y0043371D02*
X0047668Y0044581D01*
X0050660Y0043371D02*
X0050660Y0044581D01*
X0052502Y0076417D02*
X0038920Y0076417D01*
X0052502Y0056259D02*
X0060179Y0056259D01*
X0052502Y0056259D02*
X0044825Y0056259D01*
X0052502Y0076417D02*
X0060179Y0076417D01*
X0030896Y0075984D02*
X0023416Y0075984D01*
X0025384Y0066850D02*
X0030896Y0066850D01*
X0039794Y0052422D02*
X0039794Y0051212D01*
X0042786Y0052422D02*
X0042786Y0051212D01*
X0046644Y0051392D02*
X0046644Y0052241D01*
X0043809Y0051392D02*
X0043809Y0052241D01*
X0039794Y0043371D02*
X0039794Y0044581D01*
X0042786Y0043371D02*
X0042786Y0044581D01*
X0052864Y0044401D02*
X0052864Y0043551D01*
X0055699Y0044401D02*
X0055699Y0043551D01*
X0032569Y0048259D02*
X0032569Y0047410D01*
X0029734Y0048259D02*
X0029734Y0047410D01*
X0033784Y0051850D02*
X0032574Y0051850D01*
X0033784Y0054842D02*
X0032574Y0054842D01*
X0064509Y0055551D02*
X0063660Y0055551D01*
X0064509Y0052716D02*
X0063660Y0052716D01*
X0019794Y0064468D02*
X0010797Y0064468D01*
X0010797Y0058681D02*
X0019794Y0058681D01*
X0010797Y0064468D02*
X0010797Y0058681D01*
X0037549Y0068355D02*
X0037549Y0069204D01*
X0034715Y0068355D02*
X0034715Y0069204D01*
X0016698Y0069409D02*
X0015488Y0069409D01*
X0016698Y0066417D02*
X0015488Y0066417D01*
X0032574Y0058779D02*
X0033784Y0058779D01*
X0032574Y0055787D02*
X0033784Y0055787D01*
X0037471Y0048298D02*
X0037471Y0047088D01*
X0034479Y0048298D02*
X0034479Y0047088D01*
X0015336Y0058110D02*
X0014487Y0058110D01*
X0015336Y0055275D02*
X0014487Y0055275D01*
X0052864Y0051392D02*
X0052864Y0052241D01*
X0055699Y0051392D02*
X0055699Y0052241D01*
X0032397Y0040531D02*
X0033607Y0040531D01*
X0032397Y0043523D02*
X0033607Y0043523D01*
X0066316Y0043504D02*
X0066316Y0049015D01*
X0057183Y0049015D02*
X0057183Y0041535D01*
X0020328Y0042014D02*
X0017178Y0042014D01*
X0020328Y0054297D02*
X0013241Y0054297D01*
X0020328Y0042014D02*
X0023477Y0042014D01*
X0020328Y0054297D02*
X0023477Y0054297D01*
X0026928Y0062441D02*
X0027777Y0062441D01*
X0026928Y0065275D02*
X0027777Y0065275D01*
X0046644Y0043551D02*
X0046644Y0044401D01*
X0043809Y0043551D02*
X0043809Y0044401D01*
X0050660Y0051212D02*
X0050660Y0052422D01*
X0047668Y0051212D02*
X0047668Y0052422D01*
X0086024Y0058268D02*
G01*
G75*
D32*
X0089204Y0070441D02*
X0088417Y0070441D01*
X0089204Y0070441D01*
X0104814Y0070374D02*
X0104026Y0070374D01*
X0104814Y0070374D01*
D31*
X0086418Y0058662D02*
X0122244Y0058662D01*
X0086418Y0070866D02*
X0122244Y0070866D01*
X0086418Y0058662D02*
X0086418Y0062599D01*
X0092953Y0058650D02*
X0100040Y0058650D01*
X0092953Y0070854D02*
X0100040Y0070854D01*
X0100040Y0070658D02*
X0100040Y0070854D01*
X0092953Y0070658D02*
X0092953Y0070854D01*
X0100040Y0058650D02*
X0100040Y0058847D01*
X0092953Y0058650D02*
X0092953Y0058847D01*
X0108603Y0058650D02*
X0115689Y0058650D01*
X0108603Y0070854D02*
X0115689Y0070854D01*
X0115689Y0070658D02*
X0115689Y0070854D01*
X0108603Y0070658D02*
X0108603Y0070854D01*
X0115689Y0058650D02*
X0115689Y0058847D01*
X0108603Y0058650D02*
X0108603Y0058847D01*
X0048228Y0002559D02*
G01*
G75*
D16*
X0069882Y0020965D02*
X0069437Y0021888D01*
X0068438Y0022116D01*
X0067636Y0021477D01*
X0067636Y0020452D01*
X0068438Y0019813D01*
X0069437Y0020041D01*
X0069882Y0020965D01*
D37*
X0058858Y0025000D02*
X0058120Y0025426D01*
X0058120Y0024574D01*
X0058858Y0025000D01*
D31*
X0049409Y0002953D02*
X0124704Y0002953D01*
X0125590Y0003839D01*
X0125590Y0032874D01*
X0124311Y0034153D02*
X0125590Y0032874D01*
X0050256Y0034153D02*
X0124311Y0034153D01*
X0049409Y0033307D02*
X0050256Y0034153D01*
X0049409Y0002953D02*
X0049409Y0033307D01*
X0065846Y0004134D02*
X0076082Y0004134D01*
X0065846Y0023819D02*
X0076082Y0023819D01*
X0076082Y0004134D02*
X0076082Y0023819D01*
X0065846Y0004134D02*
X0065846Y0023819D01*
X0104823Y0024114D02*
X0106397Y0024114D01*
X0104805Y0018985D02*
X0106380Y0018985D01*
X0117323Y0024114D02*
X0118897Y0024114D01*
X0117305Y0018985D02*
X0118880Y0018985D01*
X0093504Y0022244D02*
X0093504Y0023819D01*
X0098633Y0022227D02*
X0098633Y0023802D01*
X0086712Y0022244D02*
X0092224Y0022244D01*
X0086712Y0023819D02*
X0092224Y0023819D01*
X0052165Y0019783D02*
X0054035Y0019783D01*
X0050000Y0018799D02*
X0050945Y0019980D01*
X0053051Y0018996D02*
X0053051Y0020669D01*
X0051279Y0005315D02*
X0055118Y0005315D01*
X0050000Y0015197D02*
X0050000Y0018799D01*
X0056299Y0015197D02*
X0056299Y0018799D01*
X0055354Y0019980D02*
X0056299Y0018799D01*
X0050000Y0006398D02*
X0050000Y0010236D01*
X0056299Y0006398D02*
X0056299Y0010236D01*
X0050000Y0006398D02*
X0056299Y0006398D01*
X0051673Y0034153D02*
X0053543Y0034153D01*
X0049508Y0033169D02*
X0050452Y0034350D01*
X0052559Y0033366D02*
X0052559Y0034547D01*
X0052559Y0035039D02*
X0050787Y0019685D02*
X0054626Y0019685D01*
X0049508Y0029567D02*
X0049508Y0033169D01*
X0055807Y0029567D02*
X0055807Y0033169D01*
X0054862Y0034350D02*
X0055807Y0033169D01*
X0049508Y0020768D02*
X0049508Y0024606D01*
X0055807Y0020768D02*
X0055807Y0024606D01*
X0049508Y0020768D02*
X0055807Y0020768D01*
X0117323Y0031201D02*
X0118897Y0031201D01*
X0117305Y0026071D02*
X0118880Y0026071D01*
X0076378Y0024803D02*
X0076378Y0027756D01*
X0076279Y0029134D02*
X0076279Y0032087D01*
X0104921Y0010039D02*
X0106496Y0010039D01*
X0104904Y0004910D02*
X0106478Y0004910D01*
X0117323Y0010039D02*
X0118897Y0010039D01*
X0117305Y0004910D02*
X0118880Y0004910D01*
X0086909Y0009646D02*
X0086909Y0011221D01*
X0092039Y0009628D02*
X0092039Y0011203D01*
X0093504Y0009646D02*
X0099015Y0009646D01*
X0093504Y0011221D02*
X0099015Y0011221D01*
X0104921Y0017028D02*
X0106496Y0017028D01*
X0104904Y0011898D02*
X0106478Y0011898D01*
X0117323Y0017028D02*
X0118897Y0017028D01*
X0117305Y0011898D02*
X0118880Y0011898D01*
X0104823Y0031201D02*
X0106397Y0031201D01*
X0104805Y0026071D02*
X0106380Y0026071D01*
D70*
X0064866Y0027740D02*
X0066441Y0027740D01*
X0064862Y0024803D02*
X0066437Y0024803D01*
X0064768Y0032366D02*
X0066342Y0032366D01*
X0064763Y0029429D02*
X0066338Y0029429D01*
X0034094Y0083583D02*
%LPD*%
G01*
D32*
X0087283Y0122057D02*
X0087283Y0118907D01*
X0087283Y0118907D02*
X0086233Y0121157D01*
X0086233Y0121157D02*
X0085183Y0118907D01*
X0085183Y0118907D02*
X0085183Y0122057D01*
X0083083Y0118907D02*
X0082484Y0118907D01*
X0082484Y0118907D02*
X0082184Y0119057D01*
X0082184Y0119057D02*
X0081884Y0119357D01*
X0081884Y0119357D02*
X0081734Y0119957D01*
X0081734Y0119957D02*
X0081734Y0121007D01*
X0081734Y0121007D02*
X0081884Y0121607D01*
X0081884Y0121607D02*
X0082184Y0121907D01*
X0082184Y0121907D02*
X0082484Y0122057D01*
X0082484Y0122057D02*
X0083083Y0122057D01*
X0083083Y0122057D02*
X0083383Y0121907D01*
X0083383Y0121907D02*
X0083683Y0121607D01*
X0083683Y0121607D02*
X0083833Y0121007D01*
X0083833Y0121007D02*
X0083833Y0119957D01*
X0083833Y0119957D02*
X0083683Y0119357D01*
X0083683Y0119357D02*
X0083383Y0119057D01*
X0083383Y0119057D02*
X0083083Y0118907D01*
X0080834Y0118907D02*
X0079034Y0118907D01*
X0079934Y0122057D02*
X0079934Y0118907D01*
X0077384Y0118907D02*
X0076784Y0118907D01*
X0076784Y0118907D02*
X0076484Y0119057D01*
X0076484Y0119057D02*
X0076184Y0119357D01*
X0076184Y0119357D02*
X0076034Y0119957D01*
X0076034Y0119957D02*
X0076034Y0121007D01*
X0076034Y0121007D02*
X0076184Y0121607D01*
X0076184Y0121607D02*
X0076484Y0121907D01*
X0076484Y0121907D02*
X0076784Y0122057D01*
X0076784Y0122057D02*
X0077384Y0122057D01*
X0077384Y0122057D02*
X0077684Y0121907D01*
X0077684Y0121907D02*
X0077984Y0121607D01*
X0077984Y0121607D02*
X0078134Y0121007D01*
X0078134Y0121007D02*
X0078134Y0119957D01*
X0078134Y0119957D02*
X0077984Y0119357D01*
X0077984Y0119357D02*
X0077684Y0119057D01*
X0077684Y0119057D02*
X0077384Y0118907D01*
X0072885Y0122057D02*
X0073935Y0120557D01*
X0074685Y0122057D02*
X0074685Y0118907D01*
X0074685Y0118907D02*
X0073485Y0118907D01*
X0073485Y0118907D02*
X0073185Y0119057D01*
X0073185Y0119057D02*
X0073035Y0119207D01*
X0073035Y0119207D02*
X0072885Y0119507D01*
X0072885Y0119507D02*
X0072885Y0119957D01*
X0072885Y0119957D02*
X0073035Y0120257D01*
X0073035Y0120257D02*
X0073185Y0120407D01*
X0073185Y0120407D02*
X0073485Y0120557D01*
X0073485Y0120557D02*
X0074685Y0120557D01*
X0071535Y0120857D02*
X0069135Y0120857D01*
X0067635Y0122057D02*
X0067635Y0118907D01*
X0067635Y0118907D02*
X0066886Y0118907D01*
X0066886Y0118907D02*
X0066436Y0119057D01*
X0066436Y0119057D02*
X0066136Y0119357D01*
X0066136Y0119357D02*
X0065986Y0119657D01*
X0065986Y0119657D02*
X0065836Y0120257D01*
X0065836Y0120257D02*
X0065836Y0120707D01*
X0065836Y0120707D02*
X0065986Y0121307D01*
X0065986Y0121307D02*
X0066136Y0121607D01*
X0066136Y0121607D02*
X0066436Y0121907D01*
X0066436Y0121907D02*
X0066886Y0122057D01*
X0066886Y0122057D02*
X0067635Y0122057D01*
X0062686Y0122057D02*
X0063736Y0120557D01*
X0064486Y0122057D02*
X0064486Y0118907D01*
X0064486Y0118907D02*
X0063286Y0118907D01*
X0063286Y0118907D02*
X0062986Y0119057D01*
X0062986Y0119057D02*
X0062836Y0119207D01*
X0062836Y0119207D02*
X0062686Y0119507D01*
X0062686Y0119507D02*
X0062686Y0119957D01*
X0062686Y0119957D02*
X0062836Y0120257D01*
X0062836Y0120257D02*
X0062986Y0120407D01*
X0062986Y0120407D02*
X0063286Y0120557D01*
X0063286Y0120557D02*
X0064486Y0120557D01*
X0061336Y0122057D02*
X0061336Y0118907D01*
X0060286Y0118907D02*
X0059236Y0122057D01*
X0059236Y0122057D02*
X0058187Y0118907D01*
X0057137Y0120407D02*
X0056087Y0120407D01*
X0055637Y0122057D02*
X0057137Y0122057D01*
X0057137Y0122057D02*
X0057137Y0118907D01*
X0057137Y0118907D02*
X0055637Y0118907D01*
X0052487Y0122057D02*
X0053537Y0120557D01*
X0054287Y0122057D02*
X0054287Y0118907D01*
X0054287Y0118907D02*
X0053087Y0118907D01*
X0053087Y0118907D02*
X0052787Y0119057D01*
X0052787Y0119057D02*
X0052637Y0119207D01*
X0052637Y0119207D02*
X0052487Y0119507D01*
X0052487Y0119507D02*
X0052487Y0119957D01*
X0052487Y0119957D02*
X0052637Y0120257D01*
X0052637Y0120257D02*
X0052787Y0120407D01*
X0052787Y0120407D02*
X0053087Y0120557D01*
X0053087Y0120557D02*
X0054287Y0120557D01*
X0086533Y0114576D02*
X0086233Y0114576D01*
X0086233Y0114576D02*
X0085933Y0114726D01*
X0085933Y0114726D02*
X0085783Y0114876D01*
X0085783Y0114876D02*
X0085633Y0115176D01*
X0085633Y0115176D02*
X0085483Y0115776D01*
X0085483Y0115776D02*
X0085483Y0116526D01*
X0085483Y0116526D02*
X0085633Y0117126D01*
X0085633Y0117126D02*
X0085783Y0117426D01*
X0085783Y0117426D02*
X0085933Y0117576D01*
X0085933Y0117576D02*
X0086233Y0117726D01*
X0086233Y0117726D02*
X0086533Y0117726D01*
X0086533Y0117726D02*
X0086833Y0117576D01*
X0086833Y0117576D02*
X0086983Y0117426D01*
X0086983Y0117426D02*
X0087133Y0117126D01*
X0087133Y0117126D02*
X0087283Y0116526D01*
X0087283Y0116526D02*
X0087283Y0115776D01*
X0087283Y0115776D02*
X0087133Y0115176D01*
X0087133Y0115176D02*
X0086983Y0114876D01*
X0086983Y0114876D02*
X0086833Y0114726D01*
X0086833Y0114726D02*
X0086533Y0114576D01*
X0084133Y0117426D02*
X0083983Y0117576D01*
X0083983Y0117576D02*
X0084133Y0117726D01*
X0084133Y0117726D02*
X0084283Y0117576D01*
X0084283Y0117576D02*
X0084133Y0117426D01*
X0084133Y0117426D02*
X0084133Y0117726D01*
X0080984Y0117726D02*
X0082784Y0117726D01*
X0081884Y0117726D02*
X0081884Y0114576D01*
X0081884Y0114576D02*
X0082184Y0115026D01*
X0082184Y0115026D02*
X0082484Y0115326D01*
X0082484Y0115326D02*
X0082784Y0115476D01*
X0049150Y0116515D02*
X0049150Y0119702D01*
X0049150Y0119702D02*
X0048963Y0120077D01*
X0048963Y0120077D02*
X0048775Y0120265D01*
X0048775Y0120265D02*
X0048400Y0120452D01*
X0048400Y0120452D02*
X0047650Y0120452D01*
X0047650Y0120452D02*
X0047275Y0120265D01*
X0047275Y0120265D02*
X0047088Y0120077D01*
X0047088Y0120077D02*
X0046901Y0119702D01*
X0046901Y0119702D02*
X0046901Y0116515D01*
X0044463Y0118203D02*
X0044838Y0118015D01*
X0044838Y0118015D02*
X0045026Y0117828D01*
X0045026Y0117828D02*
X0045213Y0117453D01*
X0045213Y0117453D02*
X0045213Y0117265D01*
X0045213Y0117265D02*
X0045026Y0116890D01*
X0045026Y0116890D02*
X0044838Y0116703D01*
X0044838Y0116703D02*
X0044463Y0116515D01*
X0044463Y0116515D02*
X0043713Y0116515D01*
X0043713Y0116515D02*
X0043338Y0116703D01*
X0043338Y0116703D02*
X0043151Y0116890D01*
X0043151Y0116890D02*
X0042964Y0117265D01*
X0042964Y0117265D02*
X0042964Y0117453D01*
X0042964Y0117453D02*
X0043151Y0117828D01*
X0043151Y0117828D02*
X0043338Y0118015D01*
X0043338Y0118015D02*
X0043713Y0118203D01*
X0043713Y0118203D02*
X0044463Y0118203D01*
X0044463Y0118203D02*
X0044838Y0118390D01*
X0044838Y0118390D02*
X0045026Y0118578D01*
X0045026Y0118578D02*
X0045213Y0118953D01*
X0045213Y0118953D02*
X0045213Y0119702D01*
X0045213Y0119702D02*
X0045026Y0120077D01*
X0045026Y0120077D02*
X0044838Y0120265D01*
X0044838Y0120265D02*
X0044463Y0120452D01*
X0044463Y0120452D02*
X0043713Y0120452D01*
X0043713Y0120452D02*
X0043338Y0120265D01*
X0043338Y0120265D02*
X0043151Y0120077D01*
X0043151Y0120077D02*
X0042964Y0119702D01*
X0042964Y0119702D02*
X0042964Y0118953D01*
X0042964Y0118953D02*
X0043151Y0118578D01*
X0043151Y0118578D02*
X0043338Y0118390D01*
X0043338Y0118390D02*
X0043713Y0118203D01*
X0041464Y0116890D02*
X0041276Y0116703D01*
X0041276Y0116703D02*
X0040901Y0116515D01*
X0040901Y0116515D02*
X0039964Y0116515D01*
X0039964Y0116515D02*
X0039589Y0116703D01*
X0039589Y0116703D02*
X0039401Y0116890D01*
X0039401Y0116890D02*
X0039214Y0117265D01*
X0039214Y0117265D02*
X0039214Y0117640D01*
X0039214Y0117640D02*
X0039401Y0118203D01*
X0039401Y0118203D02*
X0041651Y0120452D01*
X0041651Y0120452D02*
X0039214Y0120452D01*
X0035464Y0120452D02*
X0037714Y0120452D01*
X0036589Y0120452D02*
X0036589Y0116515D01*
X0036589Y0116515D02*
X0036964Y0117078D01*
X0036964Y0117078D02*
X0037339Y0117453D01*
X0037339Y0117453D02*
X0037714Y0117640D01*
D33*
X0034330Y0122796D02*
X0088267Y0122796D01*
X0088267Y0122796D02*
X0088267Y0083819D01*
X0088267Y0083819D02*
X0034330Y0083819D01*
X0034330Y0083819D02*
X0034330Y0122796D01*
D32*
X0039645Y0115709D02*
X0053031Y0115709D01*
X0047126Y0090709D02*
X0047126Y0089331D01*
X0047126Y0089331D02*
X0053228Y0089331D01*
X0077834Y0115709D02*
X0071732Y0115709D01*
X0077834Y0114331D02*
X0077834Y0115709D01*
X0077834Y0090709D02*
X0077834Y0089331D01*
X0077834Y0089331D02*
X0071732Y0089331D01*
M02*
